<svg fill="none" height="109" viewBox="0 0 162 109" width="162" xmlns="http://www.w3.org/2000/svg"><path d="m18.8823 90.7008c-1.544-1.0025-.6617-2.528 1.0146-1.8742 23.0721 9.3709 38.0271 12.8144 59.0699 12.8144 21.0432 0 35.9982-3.4435 59.0702-12.8144 1.676-.6538 2.558.9153 1.014 1.8742-9.043 5.7969-30.174 17.4782-60.0842 17.4782-29.9099 0-50.9968-11.6813-60.0845-17.4782zm62.737-34.3777c3.4582 0 5.4534 2.0042 5.8967 2.895.0887.1782.1774.1782.2217-.0445.133-.5345.2217-.7572.266-.9799.2661-.8908.8868-1.4252 1.9509-1.4698.4877-.035 1.7965-.0425 2.6576-.0441l.579-.0004c.931 0 1.6404.8017 1.3744 2.0042-1.1528 4.9884-2.8819 11.9809-4.744 19.3744-2.3499 9.3531-7.2713 14.2078-14.2765 14.2078-2.8375 0-7.6702-.8462-9.7541-4.2312-.399-.668-.6207-1.4252.4877-2.1824.9311-.6235 2.0839-1.0689 3.0593-1.3361.8867-.2227 1.1971-.1782 2.1725.4008.6207.4009 1.8621 1.1135 3.5912 1.1135 2.6159 0 5.9855-1.5143 7.5816-7.0371.0444-.1782-.0886-.2672-.2217-.0891-1.197 1.5143-3.5912 2.4496-6.3401 2.4051-3.2809-.0445-5.4091-1.3362-6.7392-3.3404-1.4631-2.2269-1.3744-6.3245-.2217-9.8876 1.8178-5.6564 6.1628-11.7582 12.4587-11.7582zm27.8377.1763c7.81 0 11.38 5.0958 9.773 12.5401-1.562 7.4443-7.319 12.54-15.128 12.54-7.7654 0-11.3355-5.0957-9.7736-12.54 1.6066-7.4443 7.3636-12.5401 15.1286-12.5401zm23.84-.7206c3.763 0 7.089 1.6395 8.445 4.1209.525.9749.35 1.5066-.569 2.0826-.437.3102-1.794.9306-2.625 1.2408-.788.3101-1.488.2215-2.144-.5761-2.67-3.1461-6.564-2.0383-6.695-.3102-.132 1.6395 1.663 2.2156 4.069 2.9246 3.676 1.0634 7.745 2.9245 6.52 7.976-1.225 5.1401-6.213 7.6658-11.946 7.6658-3.632 0-7.833-1.1964-9.408-5.0072-.306-.7532-.087-1.3736.482-1.7724.962-.6647 1.969-1.1964 2.888-1.4623.787-.2658 1.4-.0886 1.925.5761 1.138 1.5066 2.45 2.3485 4.507 2.3485 1.969 0 3.938-.9306 3.851-2.6587-.044-1.5952-2.538-2.2156-3.763-2.5257-2.495-.6204-7.352-1.7725-7.352-5.7605 0-5.0071 4.682-8.7736 11.815-8.8622zm-72.0372 1.0867c.7427 0 1.1358.5755.9611 1.2395-.1311.5755-.2621 1.0625-.3058 1.2838-.0437.1328.0874.1329.1311.0886 2.7958-2.6119 6.5527-2.6119 10.4843-2.6119.699 0 .9611.6641.5242 1.0625-1.3542 1.2838-2.2279 2.4348-3.189 3.9842-.6115.8853-1.0484 1.2395-2.1842 1.2838-2.5337.1328-3.8006.6197-4.718 1.328-.961.7526-1.9658 2.7004-2.4463 5.1795-.3058 1.6822-1.2669 6.5075-2.0095 10.0933-.1311.7083-.5679 1.1067-1.3979 1.1067h-4.6743c-.5242 0-1.0484-.487-.9174-1.1067.8737-4.5155 3.888-19.5668 4.3248-21.5589.2184-.974.699-1.3281 1.5727-1.3281 1.4416-.0443 2.6647-.0443 3.8442-.0443zm-14.8045-10.4203c1.4205 0 2.042.5342 2.1308 1.7807.3995 5.075 1.5093 26.7107 1.6425 31.1179.042 1.0122-.5932 1.3852-1.3019 1.4216l-.1187.003h-4.5279c-1.1098 0-1.5982-.5342-1.6425-1.38-.0431-1.5109-.1696-5.5335-.1772-5.7759l-.0004-.0114h-12.2966c-1.3318 2.2704-2.8411 4.9414-3.4626 6.0099-.541.9181-1.082 1.132-1.8425 1.1552l-.1551.0022h-5.1495c-1.0654 0-1.4205-.8458-.9322-1.7362 7.0139-12.5095 15.8923-26.2655 19.7544-30.8508 1.1986-1.4246 2.486-1.5582 4.0397-1.6472 1.1098-.089 2.6635-.1335 4.0397-.089zm62.5997 15.2386c-4.373 0-6.203 3.5449-7.274 7.3114-1.16 3.8107-1.562 7.3113 2.812 7.3113 4.328 0 6.203-3.5449 7.318-7.3113 1.072-3.7665 1.518-7.3114-2.856-7.3114zm-33.7316 7.1547c-.7537 2.5832-.9754 6.5471 2.4386 6.8589 3.3252.2673 5.4534-2.2269 6.8278-6.9035.8867-3.0731 1.7292-7.0816-2.3498-7.2153-3.1923-.089-5.5421 2.4051-6.9166 7.2599zm-33.6625-14.6472c-2.6801 3.541-6.2165 9.0036-8.3819 12.9791l-.2745.5098h9.4999s-.3995-9.3933-.5327-13.4444c0 0-.0888-.4452-.3108-.0445zm91.7121-47.58132c.318 0 .477.10393.583.41573l4.234 10.91289 4.075-10.91289c.053-.25984.264-.41573.529-.41573h1.746c.159 0 .318.15589.318.36376 0 .1559-.106.25983-.159.4677l-7.097 17.98036c-.99 2.4944-3.784 4.547-6.774 4.547l.01.0312c-.476 0-.952 0-1.608-.1559-.503-.1039-.778-.4157-.778-.7795v-2.1878c0-.2598.232-.5196.508-.5196.423 0 .741.1039 1.185.2078.741.1559 1.429.2599 2.064.2599 2.17 0 3.758-1.0913 3.811-3.2219l-7.039-16.00567c-.159-.41573-.212-.51966-.212-.62359 0-.25983.159-.36376.371-.36376zm22.244-.20267c1.641 0 3.366.31179 4.922.98736.477.20786.582.57163.582.98736v1.29915c0 .51962-.227.67552-.635.67552-.174 0-.492-.1559-.719-.3118-1.376-.93535-3.25-1.45501-4.806-1.45501-1.588 0-2.858.57163-2.858 1.81881 0 3.0141 9.897 1.6629 9.897 7.691 0 4.5731-3.387 6.184-6.944 6.184l.011-.1611c-1.884 0-3.8-.4469-5.292-1.1121-.456-.2078-.567-.5456-.567-.9665v-1.4863c0-.5352.238-.6911.619-.6911.286 0 .53.1559.741.3118 1.572 1.1952 3.419 1.7668 4.922 1.7668h.022c1.704 0 3.016-.7275 3.016-2.1306 0-3.2739-9.791-2.0267-9.791-8.0548 0-3.68957 3.229-5.35249 6.88-5.35249zm-147.66254-6.106042c2.56684 0 4.89544.483287 6.20794.987362.3546.1559.4234.33258.4234.68595v2.20857c0 .33778-.1058.60281-.5292.60281-.344 0-.6192-.20787-1.0479-.51966-1.5507-1.0913-3.03255-1.76686-4.97486-1.76686-2.16987 0-3.87402 1.14326-3.87402 2.91011 0 4.36517 12.29418 3.89747 12.29418 10.91295 0 5.3005-4.4985 7.7949-9.42042 7.7949l.0053.0936c-2.1593 0-4.40327-.4677-6.393209-1.4031-.386344-.2599-.460437-.4158-.460437-.7795v-1.9072c0-.3482.121724-.6911.777981-.6911.349295 0 .582165.1818 1.079645.5352 1.99523 1.3667 3.8952 1.9228 5.50409 1.9228 2.70965 0 4.55145-1.611 4.55145-3.6065.0212-5.2122-12.0984-3.6169-12.0984-11.30786 0-3.55969 2.79438-6.672472 7.95446-6.672472zm74.87674.005197c.2646 0 .4763.197472.4763.467697v7.576688c.7409-.6236 2.4345-1.94354 5.0807-1.94354 4.0222 0 6.5625 3.42977 6.5625 8.00279 0 5.8722-4.128 9.7697-9.2616 9.7697l-.1059-.0364c-2.752 0-4.8161-.951-6.1921-1.9747-.5821-.4158-.688-1.1433-.688-1.7669v-19.627638c0-.270225.2117-.467697.3705-.467697zm-12.8552 6.028085c1.6406 0 3.3342.33259 4.9219.97177.4763.19228.5821.57163.5821.98736v1.26278c0 .53004-.2117.68594-.5821.68594-.1588 0-.4763-.1559-.741-.31178-1.376-.93539-3.2283-1.45506-4.816-1.45506-1.5878 0-2.8579.57163-2.8579 1.81884 0 3.014 9.9497 1.6109 9.9497 7.639 0 4.5731-3.3872 6.1321-6.9331 6.1321l-.1323.0831c-1.8523 0-3.7893-.4417-5.2924-1.1069-.4445-.2234-.5557-.556-.5557-.977v-1.4966c0-.5352.2647-.6911.6351-.6911.2646 0 .5293.1195.741.3118 1.5877 1.1796 3.44 1.7512 4.9219 1.7512 1.7465 0 3.0166-.7275 3.0166-2.1306 0-3.2739-9.7379-2.0267-9.7379-8.0859 0-3.71044 3.2283-5.38895 6.8801-5.38895zm-43.5617-.16629c5.5041 0 7.1447 2.13062 7.1447 5.22264v11.8587c0 .2598-.1587.4469-.4763.4469h-3.5459c-.1588 0-.3704-.1819-.3704-.4469l-.1059-.9874c-1.2172 1.0601-2.6991 1.8188-4.4985 1.8188l-.1112-.0104c-3.2654 0-6.0545-1.8084-6.0545-5.2485 0-4.1574 4.6997-5.0668 6.7531-5.337 3.3766-.4157 3.6835-.6444 3.6835-1.5226 0-1.8604-.3387-3.37781-2.715-3.37781-1.5983 0-2.8737.45211-4.0963 1.16925l-.6351.41576c-.2117.1559-.5821.5716-1.0055.5716-.2117 0-.6351-.2183-.6351-.76391v-1.70449c0-.35337.1588-.68596.5822-.925 1.5877-.75871 3.9693-1.17964 6.0862-1.17964zm85.4087.38975c.264 0 .476.20786.476.4677v10.70509c0 4.7289-3.916 6.3191-7.78 6.3191l.053.0052c-3.863 0-7.7266-1.559-7.7266-5.8722v-11.10523c0-.25983.1588-.46769.3705-.46769h3.7571c.265 0 .477.20786.477.46769v12.00423c0 1.7876 1.164 2.8945 3.122 2.8945 2.382 0 3.176-1.3199 3.176-3.7935v-11.15719c0-.25984.158-.4677.37-.4677zm-56.5863-.35337c3.7576 0 5.3982 2.13062 5.3982 5.24856v11.812c0 .2598-.1588.4677-.4763.4677l-.1482-.0052h-3.7576c-.2117 0-.3705-.1975-.3705-.4677v-11.4326c0-1.2992-.2117-2.82698-2.752-2.82698-1.3231 0-2.9108.75352-3.6518 1.16928v13.0955c0 .2598-.1587.4677-.4763.4677h-3.7046c-.1747 0-.3705-.2079-.3705-.4677v-16.21351c0-.28062.2117-.4677.5081-.4677h3.7046c.2646 0 .4869.18708.4869.4677v.86784c1.0585-.69635 3.4401-1.71489 5.61-1.71489zm-14.4906.34817c.2646 0 .4763.20787.4763.4677v16.21869c0 .2754-.2117.4521-.4763.4521l.1058-.0935h-3.7576c-.2116 0-.4233-.2079-.4233-.4677v-16.10959c0-.25983.2117-.4677.3704-.4677zm86.1019-.20786c.529.10393.794.41573.794.77949v2.39045c0 .25983-.244.51971-.529.51971-.424 0-.794-.15595-1.297-.31184-.503-.10394-1.085-.1559-1.667-.1559-1.8 0-3.599.67554-3.599 3.11794v10.2894c0 .2598-.185.4677-.45.4677l-.058.1559h-3.705c-.185 0-.37-.2079-.37-.4677v-16.10959c0-.25983.185-.4677.37-.4677h3.599c.291 0 .476.20787.476.4677l.08 2.02668c.021 0 .026 0 .032-.05196.74-1.09129 2.487-2.80618 4.63-2.80618.514 0 .953 0 1.694.1559zm-40.6244 2.97247c-1.429 0-2.4345.77948-3.0167 1.19518v10.2894l.0477-.052c0 .3638.0952.7275.5292.9874.3705.2598.9526.4157 2.1169.4157 2.4716 0 4.2234-2.4944 4.2234-6.7556 0-1.559-.3705-6.08008-3.9005-6.08008zm-57.216 5.62798h-.0529c-4.2869 0-5.9275 1.8967-5.9275 3.9598 0 1.4343.7938 2.8945 2.8579 2.8945 1.7994 0 3.1225-1.3303 3.1225-1.8344zm120.8094-14.451856c1.058 1.995506-.371 5.274576-3.001 5.664326l.011.03118c-.9.25983.899-1.87079.608-3.01405-.317-1.09129-1.603-2.59831-.688-2.941288.9-.348174 2.594-.342977 3.07.259832zm-110.8491-.374158c1.6406 0 2.4503 1.039324 2.4503 2.182584 0 1.40309-.9261 2.28652-2.4503 2.28652v-.04158c-1.5137 0-2.5245-.90941-2.5245-2.28651 0-1.14326.815-2.141014 2.5245-2.141014z" fill="#fff"/></svg>