<?xml version="1.0" encoding="UTF-8"?>
<svg width="160px" height="80px" viewBox="0 0 160 80" version="1.1" xmlns="http://www.w3.org/2000/svg" xmlns:xlink="http://www.w3.org/1999/xlink">
    <!-- Generator: Sketch 64 (93537) - https://sketch.com -->
    <title>argos</title>
    <desc>Created with Sketch.</desc>
    <g id="Index" stroke="none" stroke-width="1" fill="none" fill-rule="evenodd">
        <g id="Desktop-HD" transform="translate(-382.000000, -1930.000000)" fill="#FFFFFF" fill-rule="nonzero">
            <g id="argos" style="mix-blend-mode: overlay;" transform="translate(382.000000, 1930.000000)">
                <g id="g2924" transform="translate(0.000000, 54.782609)">
                    <path d="M78.5251923,25.1613527 C117.049129,25.1613527 144.265892,10.1429952 155.913985,2.68985507 C157.902684,1.45700483 156.766285,-0.560386473 154.607126,0.280193237 C124.890284,12.3285024 105.628316,16.7555556 78.5251923,16.7555556 C51.4220687,16.7555556 32.1601005,12.3285024 2.44325852,0.280193237 C0.284099827,-0.560386473 -0.852299482,1.40096618 1.13639931,2.68985507 C12.8413122,10.1429952 40.0012557,25.1613527 78.5251923,25.1613527" id="path2926"></path>
                </g>
                <g id="g2928" transform="translate(129.565217, 12.173913)">
                    <path d="M3.71980676,11.7931034 C3.71980676,16.9205397 9.97584541,18.4017991 13.1884058,19.1994003 C14.7665056,19.5982009 17.979066,20.3958021 18.0354267,22.4467766 C18.1481481,24.6686657 15.6119163,25.8650675 13.0756844,25.8650675 C10.4267311,25.8650675 8.73590982,24.7826087 7.2705314,22.8455772 C6.5942029,21.9910045 5.80515298,21.7631184 4.79066023,22.1049475 C3.60708535,22.4467766 2.31078905,23.1304348 1.07085346,23.9850075 C0.338164251,24.4977511 0.0563607085,25.2953523 0.450885668,26.2638681 C2.47987118,31.1634183 7.89049919,32.7016492 12.568438,32.7016492 C19.9516908,32.7016492 26.3768116,29.4542729 27.9549114,22.8455772 C29.5330113,16.3508246 24.2914654,13.958021 19.5571659,12.5907046 C16.4573269,11.6791604 14.1465378,10.9385307 14.31562,8.83058471 C14.4847021,6.60869565 19.5008052,5.1844078 22.9388084,9.22938531 C23.784219,10.2548726 24.6859903,10.3688156 25.7004831,9.97001499 C26.7713366,9.57121439 28.5185185,8.77361319 29.0821256,8.37481259 C30.2657005,7.63418291 30.4911433,6.95052474 29.8148148,5.69715142 C28.0676329,2.50674663 23.784219,0.3988006 18.9371981,0.3988006 C9.75040258,0.512743628 3.71980676,5.35532234 3.71980676,11.7931034" id="path2930"></path>
                </g>
                <g id="g2932">
                    <path d="M30.8755211,10.5888828 C31.0470518,15.7974684 31.5616438,27.8745184 31.5616438,27.8745184 L19.3257892,27.8745184 C22.0702799,22.7231701 26.8731388,15.2823335 30.4752829,10.5316456 C30.7611674,10.0165107 30.8755211,10.5888828 30.8755211,10.5888828 M31.4472901,0.68684645 C29.4460989,0.801320859 27.787969,0.973032471 26.244193,2.804623 C21.2698035,8.70005504 9.83442525,26.3863511 0.800476474,42.4700055 C0.171530673,43.6147496 0.628945801,44.7022565 2.00119119,44.7022565 C3.54496724,44.7022565 7.89041096,44.7022565 8.63371054,44.7022565 C9.72007147,44.7022565 10.4633711,44.4733076 11.2066706,43.2140892 C12.0071471,41.8403963 13.9511614,38.406164 15.6664681,35.4870666 L31.5044669,35.4870666 C31.5044669,35.4870666 31.6759976,40.924601 31.7331745,42.9279031 C31.7903514,44.01541 32.4192972,44.7022565 33.8487195,44.7022565 C35.2781418,44.7022565 38.7087552,44.7022565 39.6807624,44.7022565 C40.6527695,44.7022565 41.5675998,44.2443588 41.5104229,42.8706659 C41.3388922,37.2041827 39.9094699,9.38690149 39.3948779,2.86186021 C39.2805241,1.25921849 38.4800476,0.572372042 36.6503871,0.572372042 C34.8779035,0.515134838 32.8767123,0.572372042 31.4472901,0.68684645" id="path2934"></path>
                </g>
                <g id="g2936" transform="translate(97.391304, 13.043478)">
                    <path d="M14.1400147,25.922039 C19.715549,25.922039 22.1296979,21.3643178 23.5666912,16.5217391 C24.9462049,11.6791604 25.5210022,7.12143928 19.8879882,7.12143928 C14.2549742,7.12143928 11.8983051,11.6791604 10.5187915,16.5217391 C9.02431835,21.4212894 8.50700074,25.922039 14.1400147,25.922039 Z M13.5077377,32.7016492 C3.50626382,32.7016492 -1.09211496,26.149925 0.919675755,16.5787106 C2.9889462,7.00749625 10.403832,0.455772114 20.4053058,0.455772114 C30.4642594,0.455772114 35.0626382,7.00749625 32.9933677,16.5787106 C30.981577,26.149925 23.5666912,32.7016492 13.5077377,32.7016492" id="path2938"></path>
                </g>
                <g id="g2940" transform="translate(60.869565, 13.043478)">
                    <path d="M31.6365996,28.173913 C34.0350422,18.6680806 36.2621674,9.6776246 37.7469176,3.2640509 C38.0895522,1.71792153 37.1758598,0.687168611 35.9766385,0.687168611 C35.1200519,0.687168611 32.6073978,0.687168611 31.8079169,0.744432662 C30.4373783,0.801696713 29.6378975,1.48886532 29.2952628,2.63414634 C29.238157,2.9204666 29.1239455,3.20678685 28.9526282,3.89395546 C28.8955224,4.18027572 28.7813108,4.18027572 28.6670993,3.95121951 C28.0960415,2.80593849 25.5262816,0.229056204 21.0720311,0.229056204 C12.963011,0.229056204 7.36664504,8.07423118 5.02530824,15.3467656 C3.54055808,19.9278897 3.42634653,25.1961824 5.31083712,28.0593849 C7.02401038,30.6362672 9.76508761,32.2969247 13.990915,32.3541888 C17.5314731,32.4114528 20.6151849,31.2089077 22.1570409,29.26193 C22.3283582,29.0328738 22.4996755,29.1474019 22.4425698,29.3764581 C20.3867618,36.4772004 16.0467229,38.4241782 12.6774822,38.4241782 C10.4503569,38.4241782 8.8513952,37.5079533 8.05191434,36.9925769 C6.79558728,36.2481442 6.39584685,36.1908802 5.25373134,36.4772004 C3.99740428,36.8207847 2.51265412,37.3934252 1.31343284,38.195122 C-0.114211551,39.1686108 0.171317326,40.1420997 0.685269306,41.0010604 C3.36924075,45.3531283 9.59377028,46.4411453 13.2485399,46.4411453 C22.2712524,46.4411453 28.6099935,40.1993637 31.6365996,28.173913 Z M12.963011,16.3202545 C14.7332901,10.078473 17.7598962,6.87168611 21.871512,6.98621421 C27.1252433,7.15800636 26.0402336,12.3117709 24.8981181,16.2629905 C23.1278391,22.2757158 20.3867618,25.4825027 16.1038287,25.1389183 C11.706684,24.73807 11.9922128,19.6415695 12.963011,16.3202545" id="path2942"></path>
                </g>
                <g id="g2944" transform="translate(42.608696, 13.913043)">
                    <path d="M28.3017903,1.4229249 C28.8644501,0.910671937 28.5268542,0.056916996 27.6265985,0.056916996 C22.5626598,0.056916996 17.7237852,0.056916996 14.1227621,3.41501976 C14.0664962,3.47193676 13.8976982,3.47193676 13.9539642,3.30118577 C14.0102302,3.01660079 14.1790281,2.39051383 14.3478261,1.65059289 C14.57289,0.796837945 14.0664962,0.056916996 13.1099744,0.056916996 C11.5907928,0.056916996 10.0153453,0.056916996 8.15856777,0.113833992 C7.03324808,0.113833992 6.41432225,0.56916996 6.13299233,1.82134387 C5.57033248,4.3826087 1.68797954,23.7343874 0.562659847,29.5399209 C0.393861893,30.3367589 1.06905371,30.9628458 1.74424552,30.9628458 C2.36317136,30.9628458 7.20204604,30.9628458 7.76470588,30.9628458 C8.83375959,30.9628458 9.39641944,30.4505929 9.56521739,29.5399209 C10.5217391,24.9296443 11.7595908,18.7256917 12.1534527,16.5628458 C12.7723785,13.3754941 14.0664962,10.8711462 15.3043478,9.90355731 C16.4859335,8.99288538 18.1176471,8.36679842 21.3810742,8.19604743 C22.8439898,8.13913043 23.4066496,7.68379447 24.1943734,6.54545455 C25.4322251,4.55335968 26.5575448,3.07351779 28.3017903,1.4229249" id="path2946"></path>
                </g>
            </g>
        </g>
    </g>
</svg>