<?xml version="1.0" encoding="UTF-8"?>
<svg width="162px" height="109px" viewBox="0 0 162 109" version="1.1" xmlns="http://www.w3.org/2000/svg" xmlns:xlink="http://www.w3.org/1999/xlink">
    <title>Combined Shape</title>
    <g id="Index" stroke="none" stroke-width="1" fill="none" fill-rule="evenodd">
        <path d="M18.8822976,90.7008054 C17.3382768,89.6983363 18.2205744,88.1728397 19.8969398,88.826624 C42.9690221,98.1975311 57.9239664,101.640795 78.9667642,101.640795 C100.009562,101.640795 114.964506,98.1975311 138.036589,88.826624 C139.712954,88.1728397 140.595252,89.7419219 139.051231,90.7008054 C130.00768,96.4976922 108.876653,108.178637 78.9667642,108.178637 C49.0568755,108.178637 27.9699629,96.4976922 18.8822976,90.7008054 Z M81.6192516,56.3230822 C85.0775207,56.3230822 87.0726759,58.3273239 87.5160437,59.2180981 C87.6047172,59.3962529 87.6933908,59.3962529 87.7377276,59.1735594 C87.870738,58.6390949 87.9594115,58.4164014 88.0037483,58.1937078 C88.269769,57.3029337 88.8904839,56.7684692 89.9545667,56.7239305 C90.4422713,56.6889358 91.7511112,56.681437 92.6122369,56.6798301 L93.1911518,56.6793918 C94.1222242,56.6793918 94.8316127,57.4810885 94.5655921,58.6836336 C93.4128357,63.6719687 91.6837012,70.6645456 89.8215564,78.0579708 C87.4717069,87.4110991 82.5503241,92.2658181 75.5451125,92.2658181 C72.7075584,92.2658181 67.8748492,91.4195827 65.7910204,88.034641 C65.3919894,87.3665604 65.1703055,86.6094024 66.278725,85.8522444 C67.2097975,85.2287025 68.3625538,84.7833154 69.337963,84.5160832 C70.2246986,84.2933897 70.5350561,84.3379284 71.5104653,84.9169316 C72.1311803,85.3177799 73.3726102,86.0303993 75.1017447,86.0303993 C77.7176148,86.0303993 81.0872102,84.5160832 82.6833345,78.9932836 C82.7276712,78.8151288 82.5946609,78.7260514 82.4616505,78.9042062 C81.2645574,80.4185222 78.8703712,81.3538351 76.1214907,81.3092964 C72.8405688,81.2647577 70.7124032,79.9731352 69.3822998,77.9688934 C67.919186,75.7419581 68.0078595,71.6443971 69.1606159,68.0813006 C70.9784239,62.4248849 75.3234286,56.3230822 81.6192516,56.3230822 Z M109.456995,56.4994168 C117.266742,56.4994168 120.836912,61.5952022 119.230335,69.03948 C117.668386,76.4837579 111.911487,81.5795434 104.10174,81.5795434 C96.336621,81.5795434 92.7664511,76.4837579 94.3284004,69.03948 C95.9349769,61.5952022 101.691876,56.4994168 109.456995,56.4994168 Z M133.296906,55.7787772 C137.060121,55.7787772 140.385753,57.4182908 141.742261,59.8997168 C142.26736,60.8745627 142.092327,61.4062968 141.173403,61.9823421 C140.735819,62.2925204 139.379312,62.9128769 138.547904,63.2230551 C137.760254,63.5332334 137.060121,63.444611 136.403746,62.6470098 C133.734489,59.5009162 129.839999,60.6086956 129.708724,62.3368316 C129.577449,63.9763451 131.37154,64.5523904 133.778248,65.2613692 C137.453946,66.3248376 141.523469,68.185907 140.298236,73.2373813 C139.073004,78.3774779 134.084556,80.903215 128.352217,80.903215 C124.720277,80.903215 120.519478,79.7068132 118.944179,75.896052 C118.637871,75.1427619 118.856662,74.5224054 119.425521,74.1236048 C120.388203,73.4589372 121.394645,72.927203 122.313569,72.6613359 C123.101219,72.3954689 123.713835,72.5727136 124.238935,73.2373813 C125.376651,74.7439613 126.689401,75.5858737 128.746041,75.5858737 C130.715166,75.5858737 132.68429,74.655339 132.596773,72.927203 C132.553015,71.3320006 130.058791,70.7116441 128.833558,70.4014659 C126.339334,69.7811094 121.482161,68.6290188 121.482161,64.6410128 C121.482161,59.6338497 126.164301,55.8673996 133.296906,55.7787772 Z M61.2598373,56.8655244 C62.0024784,56.8655244 62.3956413,57.4410185 62.2209023,58.1050501 C62.0898479,58.6805442 61.9587936,59.1675007 61.9151089,59.3888446 C61.8714241,59.5216509 62.0024784,59.5216509 62.0461631,59.4773821 C64.8419885,56.8655244 68.5988787,56.8655244 72.5305082,56.8655244 C73.2294644,56.8655244 73.4915731,57.5295561 73.0547254,57.927975 C71.7004975,59.2117695 70.8268021,60.3627576 69.8657371,61.9121648 C69.2541503,62.7975403 68.8173026,63.1516904 67.6814986,63.1959592 C65.1477819,63.3287655 63.8809235,63.8157221 62.9635433,64.5240225 C62.0024784,65.2765916 60.9977286,67.2244177 60.5171962,69.7034691 C60.2114028,71.3856825 59.2503378,76.210979 58.5076967,79.7967497 C58.3766424,80.5050501 57.9397947,80.9034691 57.1097841,80.9034691 L57.1097841,80.9034691 L52.4355136,80.9034691 C51.9112964,80.9034691 51.3870791,80.4165126 51.5181334,79.7967497 C52.3918288,75.2813348 55.406078,60.2299513 55.8429257,58.2378565 C56.0613496,57.2639434 56.541882,56.9097932 57.4155775,56.9097932 C58.8571749,56.8655244 60.0803484,56.8655244 61.2598373,56.8655244 Z M46.4552695,46.4451783 C47.8758134,46.4451783 48.4973013,46.9793922 48.5860853,48.2258913 C48.9856133,53.3009234 50.0954132,74.9365865 50.2285892,79.3438513 C50.2706448,80.356046 49.6353842,80.7289599 48.9267303,80.7654102 L48.8080453,80.7684217 L44.2800617,80.7684217 C43.1702618,80.7684217 42.6819498,80.2342078 42.6375578,79.3883691 C42.5945111,77.8774611 42.4679796,73.8549138 42.4603505,73.6125105 L42.4599898,73.6010518 L30.1634069,73.6010518 C28.831647,75.8714609 27.3223192,78.5425305 26.7008312,79.6109583 C26.1598038,80.5291383 25.6187763,80.7430326 24.8582816,80.7661828 L24.7031914,80.7684217 L19.5537199,80.7684217 C18.488312,80.7684217 18.133176,79.922583 18.6214879,79.0322265 C25.6354233,66.5227175 34.5138226,52.7667095 38.3759262,48.1813734 C39.5745101,46.756803 40.861878,46.6232496 42.4155979,46.5342139 C43.5253977,46.4451783 45.0791176,46.4006604 46.4552695,46.4451783 Z M109.055351,61.6838246 C104.681893,61.6838246 102.852181,65.2287188 101.78113,68.9951689 C100.620825,72.8059302 100.219181,76.3065132 104.592639,76.3065132 C108.92147,76.3065132 110.795809,72.761619 111.911487,68.9951689 C112.982538,65.2287188 113.428809,61.6838246 109.055351,61.6838246 Z M75.3234286,68.8384586 C74.5697033,71.4217036 74.3480194,75.3856484 77.7619516,75.6974193 C81.0872102,75.9646517 83.2153759,73.4704841 84.5898161,68.7939199 C85.4765517,65.7207491 86.3189505,61.7122656 82.2399666,61.5786495 C79.0477183,61.4895721 76.6978689,63.9837397 75.3234286,68.8384586 Z M41.6609339,54.1912799 C38.9807672,57.7323019 35.444436,63.1949328 33.2789872,67.1703611 L33.0044947,67.680181 L42.5043818,67.680181 C42.5043818,67.680181 42.1048539,58.2869199 41.9716779,54.2357977 C41.9716779,54.2357977 41.8828939,53.7906194 41.6609339,54.1912799 Z M133.373473,6.60997533 C133.691016,6.60997533 133.849788,6.7139079 133.955635,7.02570561 L138.189546,17.9386254 L142.264685,7.02570561 C142.317609,6.76587419 142.529304,6.60997533 142.793924,6.60997533 L144.540412,6.60997533 C144.699183,6.60997533 144.857955,6.76587419 144.857955,6.97373932 C144.857955,7.12963818 144.752107,7.23357075 144.699183,7.44143588 L137.602091,25.4217703 C136.612414,27.916152 133.818033,29.9688202 130.827834,29.9688202 L130.838419,30 C130.362104,30 129.885789,30 129.229533,29.8441011 C128.726756,29.7401686 128.451552,29.4283709 128.451552,29.0646069 L128.451552,26.8768263 C128.451552,26.6169949 128.684417,26.3571635 128.959621,26.3571635 C129.383012,26.3571635 129.700555,26.461096 130.145116,26.5650286 C130.88605,26.7209274 131.574061,26.82486 132.209147,26.82486 C134.379026,26.82486 135.966743,25.733568 136.019667,23.6029504 L128.980791,7.59733474 C128.822019,7.18160446 128.769095,7.07767189 128.769095,6.97373932 C128.769095,6.7139079 128.927867,6.60997533 129.139562,6.60997533 L133.373473,6.60997533 Z M155.61738,6.40730682 C157.25802,6.40730682 158.983339,6.71910453 160.539301,7.39466623 C161.015616,7.60253137 161.121464,7.96629536 161.121464,8.38202563 L161.121464,9.68118275 C161.121464,10.2008456 160.893891,10.3567444 160.486377,10.3567444 C160.311728,10.3567444 159.994185,10.2008456 159.766612,10.0449467 C158.390591,9.10955362 156.517086,8.58989077 154.961124,8.58989077 C153.373407,8.58989077 152.103234,9.1615199 152.103234,10.4087107 C152.103234,13.4227552 162,12.0716318 162,18.0997208 C162,22.6727539 158.612872,24.2837087 155.056387,24.2837087 L155.066972,24.1226132 C153.182881,24.1226132 151.267037,23.6757032 149.774583,23.0105347 C149.319438,22.8026696 149.208298,22.4648887 149.208298,22.0439618 L149.208298,20.5577261 C149.208298,20.0224734 149.446455,19.8665745 149.827507,19.8665745 C150.113296,19.8665745 150.356746,20.0224734 150.568442,20.1783722 C152.140281,21.3735968 153.987324,21.9452259 155.490363,21.9452259 L155.511532,21.9452259 C157.215681,21.9452259 158.528193,21.2176979 158.528193,19.8146082 C158.528193,16.5407323 148.737275,17.7879231 148.737275,11.7598341 C148.737275,8.07022793 151.965632,6.40730682 155.61738,6.40730682 Z M7.95445933,0.30126839 C10.5212676,0.30126839 12.8499183,0.784554836 14.1624306,1.2886278 C14.5170206,1.44452665 14.5858216,1.62121202 14.5858216,1.97458275 L14.5858216,4.18314984 C14.5858216,4.52093069 14.4799739,4.78595875 14.0565828,4.78595875 C13.7125776,4.78595875 13.4373734,4.57809361 13.00869,4.2662959 C11.4580203,3.17500392 9.97615158,2.49944223 8.03384515,2.49944223 C5.86396602,2.49944223 4.15981705,3.64270049 4.15981705,5.40955416 C4.15981705,9.77472206 16.4540346,9.3070255 16.4540346,16.3224739 C16.4540346,21.6230349 11.9555047,24.1174166 7.0335838,24.1174166 L7.03887618,24.2109559 C4.87958184,24.2109559 2.63560928,23.7432593 0.645671349,22.8078662 C0.259327017,22.5480348 0.185233584,22.3921359 0.185233584,22.028372 L0.185233584,20.1212093 C0.185233584,19.7730352 0.30695851,19.4300577 0.963214636,19.4300577 C1.31251225,19.4300577 1.54537733,19.6119397 2.04286181,19.9653105 C4.03809213,21.3320237 5.93805946,21.888063 7.54694544,21.888063 C10.2566482,21.888063 12.0983992,20.2771082 12.0983992,18.2816028 C12.1195688,13.0693845 -5.15143483e-14,14.6647494 -5.15143483e-14,6.97373932 C-5.15143483e-14,3.41404883 2.79438092,0.30126839 7.95445933,0.30126839 Z M82.8311663,0.306465019 C83.0957857,0.306465019 83.3074812,0.5039369 83.3074812,0.774161579 L83.3074812,8.35084586 C84.0484156,7.72725045 85.7419797,6.40730682 88.3881738,6.40730682 C92.4103888,6.40730682 94.9507351,9.8370816 94.9507351,14.4101146 C94.9507351,20.2823048 90.8226723,24.1797761 85.6890559,24.1797761 L85.5832081,24.1433997 C82.8311663,24.1433997 80.7671349,23.1924167 79.391114,22.1686809 C78.8089513,21.7529506 78.7031036,21.0254227 78.7031036,20.4018272 L78.7031036,0.774161579 C78.7031036,0.5039369 78.9147991,0.306465019 79.0735707,0.306465019 L82.8311663,0.306465019 Z M69.9759556,6.33455402 C71.6165959,6.33455402 73.3101601,6.66713825 74.8978765,7.30632355 C75.3741914,7.4985988 75.4800392,7.87795267 75.4800392,8.29368295 L75.4800392,9.55646367 C75.4800392,10.0865198 75.2683437,10.2424186 74.8978765,10.2424186 C74.7391049,10.2424186 74.4215616,10.0865198 74.1569422,9.93062091 C72.7809213,8.99522779 70.9285854,8.47556495 69.340869,8.47556495 C67.7531526,8.47556495 66.4829794,9.04719408 66.4829794,10.2943849 C66.4829794,13.3084294 76.4326691,11.9053397 76.4326691,17.9334287 C76.4326691,22.5064618 73.0455407,24.0654503 69.4996406,24.0654503 L69.3673309,24.1485964 C67.5149951,24.1485964 65.5779811,23.7068829 64.0749428,23.0417145 C63.6303822,22.8182595 63.5192421,22.4856753 63.5192421,22.0647484 L63.5192421,20.5681194 C63.5192421,20.0328666 63.7838615,19.8769678 64.1543287,19.8769678 C64.4189481,19.8769678 64.6835675,19.9964902 64.895263,20.1887655 C66.4829794,21.3684001 68.3353153,21.9400293 69.8171839,21.9400293 C71.563672,21.9400293 72.8338451,21.2125013 72.8338451,19.8094116 C72.8338451,16.5355357 63.095851,17.7827265 63.095851,11.7234577 C63.095851,8.01306501 66.3242078,6.33455402 69.9759556,6.33455402 Z M26.414309,6.16826191 C31.9183927,6.16826191 33.559033,8.29887958 33.559033,11.3908735 L33.559033,23.2495796 C33.559033,23.5094111 33.4002614,23.6964897 33.0827181,23.6964897 L29.536818,23.6964897 C29.3780464,23.6964897 29.1663509,23.5146077 29.1663509,23.2495796 L29.0605031,22.2622202 C27.8432538,23.3223324 26.3613852,24.0810402 24.5619732,24.0810402 L24.4508331,24.0706469 C21.1854296,24.0706469 18.3963411,22.2622202 18.3963411,18.8220522 C18.3963411,14.6647494 23.0959817,13.7553395 25.1494283,13.4851148 C28.5259719,13.0693845 28.8329304,12.8407328 28.8329304,11.9625026 C28.8329304,10.1021097 28.4942176,8.58469414 26.1179353,8.58469414 C24.5196341,8.58469414 23.2441686,9.03680082 22.0216269,9.75393555 L21.3865403,10.1696658 C21.1748448,10.3255647 20.8043777,10.741295 20.3809866,10.741295 C20.1692911,10.741295 19.7459,10.5230366 19.7459,9.97739057 L19.7459,8.27289644 C19.7459,7.9195257 19.9046717,7.58694148 20.3280627,7.34789657 C21.9157792,6.58918882 24.2973538,6.16826191 26.414309,6.16826191 Z M111.822868,6.55800905 C112.087488,6.55800905 112.299183,6.76587419 112.299183,7.02570561 L112.299183,17.7307602 C112.299183,22.4596921 108.382816,24.0498604 104.519373,24.0498604 L104.572297,24.055057 C100.708853,24.055057 96.84541,22.4960685 96.84541,18.1828669 L96.84541,7.07767189 C96.84541,6.81784047 97.0041816,6.60997533 97.2158772,6.60997533 L100.973473,6.60997533 C101.238092,6.60997533 101.449788,6.81784047 101.449788,7.07767189 L101.449788,19.0818836 C101.449788,20.8695238 102.614113,21.9764057 104.572297,21.9764057 C106.953871,21.9764057 107.74773,20.656462 107.74773,18.1828669 L107.74773,7.02570561 C107.74773,6.76587419 107.906501,6.55800905 108.118197,6.55800905 L111.822868,6.55800905 Z M55.2366547,6.20463831 C58.9942502,6.20463831 60.6348906,8.33525598 60.6348906,11.4532331 L60.6348906,23.2651695 C60.6348906,23.5250009 60.4761189,23.7328661 60.1585756,23.7328661 L60.0103888,23.7276695 L56.2527932,23.7276695 C56.0410977,23.7276695 55.882326,23.5301976 55.882326,23.2599729 L55.882326,11.8273903 C55.882326,10.5282332 55.6706305,9.00042442 53.1302842,9.00042442 C51.8071872,9.00042442 50.2194708,9.75393555 49.4785364,10.1696658 L49.4785364,23.2651695 C49.4785364,23.5250009 49.3197648,23.7328661 49.0022215,23.7328661 L45.2975498,23.7328661 C45.122901,23.7328661 44.9270827,23.5250009 44.9270827,23.2651695 L44.9270827,7.05168875 C44.9270827,6.77107081 45.1387782,6.58399219 45.4351519,6.58399219 L49.1398236,6.58399219 C49.404443,6.58399219 49.6267233,6.77107081 49.6267233,7.05168875 L49.6267233,7.9195257 C50.6852009,7.22317749 53.0667756,6.20463831 55.2366547,6.20463831 Z M40.746096,6.55281242 C41.0107155,6.55281242 41.222411,6.76067756 41.222411,7.02050898 L41.222411,23.2391864 C41.222411,23.5146077 41.0107155,23.6912931 40.746096,23.6912931 L40.8519438,23.5977537 L37.0943483,23.5977537 C36.8826527,23.5977537 36.6709572,23.3898886 36.6709572,23.1300572 L36.6709572,7.02050898 C36.6709572,6.76067756 36.8826527,6.55281242 37.0414244,6.55281242 L40.746096,6.55281242 Z M126.847958,6.34494728 C127.377197,6.44887985 127.641816,6.76067756 127.641816,7.12444155 L127.641816,9.51489064 C127.641816,9.77472206 127.398367,10.0345535 127.112578,10.0345535 C126.689187,10.0345535 126.318719,9.87865463 125.815943,9.72275578 C125.313166,9.61882321 124.731003,9.56685692 124.14884,9.56685692 C122.349428,9.56685692 120.550016,10.2424186 120.550016,12.684834 L120.550016,22.9741583 C120.550016,23.2339898 120.364783,23.4418549 120.100163,23.4418549 L120.041947,23.5977537 L116.337275,23.5977537 C116.152042,23.5977537 115.966808,23.3898886 115.966808,23.1300572 L115.966808,7.02050898 C115.966808,6.76067756 116.152042,6.55281242 116.337275,6.55281242 L119.936099,6.55281242 C120.227181,6.55281242 120.412414,6.76067756 120.412414,7.02050898 L120.4918,9.04719408 C120.51297,9.04719408 120.518262,9.04719408 120.523554,8.99522779 C121.264489,7.90393582 123.010977,6.18904843 125.154394,6.18904843 C125.667756,6.18904843 126.107024,6.18904843 126.847958,6.34494728 Z M86.2235871,9.31741876 C84.7946423,9.31741876 83.7890885,10.096913 83.2069258,10.5126433 L83.2069258,20.8019676 L83.2545573,20.7500014 C83.2545573,21.1137653 83.3498203,21.4775293 83.7837961,21.7373608 C84.1542633,21.9971922 84.736426,22.153091 85.9007514,22.153091 C88.3722966,22.153091 90.1240771,19.6587094 90.1240771,15.397474 C90.1240771,13.8384855 89.7536099,9.31741876 86.2235871,9.31741876 Z M29.0075792,14.9453674 L28.9546553,14.9453674 C24.667821,14.9453674 23.0271807,16.8421368 23.0271807,18.9051983 C23.0271807,20.3394677 23.8210389,21.7997203 25.8850702,21.7997203 C27.6844822,21.7997203 29.0075792,20.4693834 29.0075792,19.9653105 L29.0075792,14.9453674 Z M149.816923,0.493543643 C150.8754,2.48904897 149.446455,5.76812152 146.816139,6.15786866 L146.826723,6.18904843 C145.927017,6.44887985 147.726429,4.31826218 147.435348,3.17500392 C147.117805,2.08371195 145.831754,0.576689698 146.747337,0.23371222 C147.647043,-0.114461886 149.340608,-0.109265258 149.816923,0.493543643 Z M38.9678536,0.119386394 C40.608494,0.119386394 41.4182293,1.15871209 41.4182293,2.30197034 C41.4182293,3.70506003 40.4920614,4.58848686 38.9678536,4.58848686 L38.9678536,4.54691384 C37.4542306,4.54691384 36.4433845,3.63750386 36.4433845,2.26039732 C36.4433845,1.11713906 37.2584123,0.119386394 38.9678536,0.119386394 Z" id="Combined-Shape" fill="#000000" fill-rule="nonzero"></path>
    </g>
</svg>