<?xml version="1.0" encoding="UTF-8"?>
<svg width="162px" height="109px" viewBox="0 0 162 109" version="1.1" xmlns="http://www.w3.org/2000/svg" xmlns:xlink="http://www.w3.org/1999/xlink">
    <title>Group 6</title>
    <defs>
        <filter id="filter-1">
            <feColorMatrix in="SourceGraphic" type="matrix" values="0 0 0 0 0.000000 0 0 0 0 0.000000 0 0 0 0 0.000000 0 0 0 1.000000 0"></feColorMatrix>
        </filter>
        <filter id="filter-2">
            <feColorMatrix in="SourceGraphic" type="matrix" values="0 0 0 0 0.000000 0 0 0 0 0.000000 0 0 0 0 0.000000 0 0 0 1.000000 0"></feColorMatrix>
        </filter>
        <filter id="filter-3">
            <feColorMatrix in="SourceGraphic" type="matrix" values="0 0 0 0 0.000000 0 0 0 0 0.000000 0 0 0 0 0.000000 0 0 0 1.000000 0"></feColorMatrix>
        </filter>
        <filter id="filter-4">
            <feColorMatrix in="SourceGraphic" type="matrix" values="0 0 0 0 0.000000 0 0 0 0 0.000000 0 0 0 0 0.000000 0 0 0 1.000000 0"></feColorMatrix>
        </filter>
        <filter id="filter-5">
            <feColorMatrix in="SourceGraphic" type="matrix" values="0 0 0 0 0.000000 0 0 0 0 0.000000 0 0 0 0 0.000000 0 0 0 1.000000 0"></feColorMatrix>
        </filter>
        <filter id="filter-6">
            <feColorMatrix in="SourceGraphic" type="matrix" values="0 0 0 0 0.000000 0 0 0 0 0.000000 0 0 0 0 0.000000 0 0 0 1.000000 0"></feColorMatrix>
        </filter>
    </defs>
    <g id="Index" stroke="none" stroke-width="1" fill="none" fill-rule="evenodd">
        <g id="Group-6">
            <g id="argos" transform="translate(18.000000, 46.000000)">
                <g style="mix-blend-mode: overlay;">
                    <g filter="url(#filter-1)" id="g2924">
                        <g transform="translate(0.000000, 42.608696)">
                            <path d="M60.9667642,19.569941 C90.876653,19.569941 112.00768,7.88899627 121.051231,2.0921095 C122.595252,1.13322598 121.712954,-0.435856146 120.036589,0.217928073 C96.9645062,9.5888352 82.0095621,13.0320988 60.9667642,13.0320988 C39.9239664,13.0320988 24.9690221,9.5888352 1.89693984,0.217928073 C0.2205744,-0.435856146 -0.6617232,1.08964036 0.882297601,2.0921095 C9.96996289,7.88899627 31.0568755,19.569941 60.9667642,19.569941" id="path2926" fill="#FFFFFF" fill-rule="nonzero"></path>
                        </g>
                    </g>
                    <g filter="url(#filter-2)" id="g2928">
                        <g transform="translate(100.594113, 9.468599)">
                            <path d="M2.88804873,9.17241376 C2.88804873,13.1604198 7.74522159,14.3125104 10.2394455,14.9328669 C11.4646783,15.2430451 13.9589022,15.8634016 14.0026605,17.458604 C14.0901771,19.18674 12.121053,20.1172747 10.1519289,20.1172747 C8.09528812,20.1172747 6.78253868,19.2753623 5.64482252,17.7687823 C5.11972275,17.1041146 4.50710635,16.9268699 3.7194567,17.1927369 C2.8005321,17.458604 1.79409088,17.9903382 0.831407966,18.6550058 C0.262549884,19.0538064 0.0437583141,19.6741629 0.350066512,20.427453 C1.92536582,24.2382142 6.12616397,25.434616 9.75810404,25.434616 C15.4904432,25.434616 20.478891,22.9088789 21.7041238,17.7687823 C22.9293566,12.717308 18.8598334,10.8562386 15.184135,9.79277024 C12.7774277,9.08379142 10.9833368,8.5077461 11.1146118,6.86823255 C11.2458867,5.14009662 15.1403767,4.03231718 17.8096339,7.1784108 C18.4660085,7.97601202 19.1661415,8.06463436 19.9537912,7.7544561 C20.7851992,7.44427786 22.1417069,6.82392137 22.5792901,6.51374313 C23.4982147,5.93769782 23.6732479,5.40596369 23.1481481,4.43111777 C21.7916405,1.94969182 18.4660085,0.310178244 14.7027936,0.310178244 C7.57018834,0.3988006 2.88804873,4.16525071 2.88804873,9.17241376" id="path2930" fill="#FFFFFF" fill-rule="nonzero"></path>
                        </g>
                    </g>
                    <g filter="url(#filter-3)" id="g2932">
                        <g>
                            <path d="M23.9716779,8.23579773 C24.1048539,12.2869199 24.5043818,21.680181 24.5043818,21.680181 L15.0044947,21.680181 C17.1353105,17.6735767 20.8642382,11.8862594 23.6609339,8.19127991 C23.8828939,7.79061943 23.9716779,8.23579773 23.9716779,8.23579773 M24.4155979,0.534213906 C22.861878,0.623249557 21.5745101,0.756803033 20.3759262,2.18137344 C16.5138226,6.76670948 7.63542333,20.5227175 0.621487946,33.0322265 C0.133175988,33.922583 0.488311957,34.7684217 1.55371987,34.7684217 C2.75230376,34.7684217 6.12609547,34.7684217 6.70319141,34.7684217 C7.54663934,34.7684217 8.12373533,34.5903504 8.70083121,33.6109583 C9.32231918,32.5425305 10.831647,29.8714609 12.1634069,27.6010518 L24.4599898,27.6010518 C24.4599898,27.6010518 24.5931658,31.8302452 24.6375578,33.3883691 C24.6819498,34.2342078 25.1702618,34.7684217 26.2800617,34.7684217 C27.3898616,34.7684217 30.0533814,34.7684217 30.8080453,34.7684217 C31.5627092,34.7684217 32.2729812,34.4122791 32.2285892,33.3438513 C32.0954132,28.9365865 30.9856133,7.30092338 30.5860853,2.22589127 C30.4973013,0.979392159 29.8758134,0.445178255 28.4552695,0.445178255 C27.0791176,0.40066043 25.5253977,0.445178255 24.4155979,0.534213906" id="path2934" fill="#FFFFFF" fill-rule="nonzero"></path>
                        </g>
                    </g>
                    <g filter="url(#filter-4)" id="g2936">
                        <g transform="translate(75.614366, 10.144927)">
                            <path d="M10.9782723,20.1615859 C15.3071033,20.1615859 17.1814425,16.6166916 18.2971205,12.8502415 C19.3681715,9.08379142 19.8144427,5.53889722 15.4409846,5.53889722 C11.0675266,5.53889722 9.23781452,9.08379142 8.16676359,12.8502415 C7.00645835,16.6610029 6.60481424,20.1615859 10.9782723,20.1615859 Z M10.487374,25.434616 C2.72225452,25.434616 -0.847915342,20.3388306 0.714033971,12.8945527 C2.3206104,5.45027486 8.07750932,0.354489422 15.8426287,0.354489422 C23.6523753,0.354489422 27.2225452,5.45027486 25.6159687,12.8945527 C24.0540194,20.3388306 18.2971205,25.434616 10.487374,25.434616" id="path2938" fill="#FFFFFF" fill-rule="nonzero"></path>
                        </g>
                    </g>
                    <g filter="url(#filter-5)" id="g2940">
                        <g transform="translate(47.258979, 10.144927)">
                            <path d="M24.5625773,21.9130434 C26.4247222,14.5196182 28.1538567,7.52704136 29.306613,2.53870626 C29.5726337,1.33616119 28.8632452,0.534464475 27.9321727,0.534464475 C27.267121,0.534464475 25.3163026,0.534464475 24.6955877,0.579003182 C23.6315049,0.623541888 23.01079,1.15800636 22.7447693,2.04878049 C22.7004325,2.27147402 22.6117589,2.49416755 22.4787486,3.02863202 C22.4344118,3.25132556 22.3457382,3.25132556 22.2570647,3.07317073 C21.8136968,2.1823966 19.8185416,0.178154825 16.3602726,0.178154825 C10.0644495,0.178154825 5.71944491,6.27995758 3.90163683,11.9363732 C2.7488805,15.4994698 2.66020693,19.5970308 4.12332075,21.823966 C5.45342421,23.8282078 7.58158976,25.1198303 10.8625116,25.1643691 C13.6113922,25.2089077 16.0055783,24.2735949 17.2026715,22.7592789 C17.3356818,22.5811241 17.4686922,22.6702015 17.4243554,22.8483563 C15.8282312,28.3711559 12.4586358,29.8854719 9.84276568,29.8854719 C8.11363113,29.8854719 6.87220124,29.1728526 6.25148629,28.7720043 C5.27607708,28.193001 4.9657196,28.1484624 4.07898396,28.3711559 C3.10357475,28.6383881 1.95081842,29.0837752 1.01974599,29.7073171 C-0.0886735644,30.4644751 0.133010346,31.2216331 0.532041387,31.8897136 C2.61587015,35.2746553 7.44857941,36.1208908 10.2861335,36.1208908 C17.291345,36.1208908 22.2127279,31.2661718 24.5625773,21.9130434 Z M10.0644495,12.6935313 C11.4388898,7.83881233 13.7887393,5.34464475 16.9809876,5.43372216 C21.0599715,5.56733828 20.2175727,9.57582181 19.330837,12.6489926 C17.9563968,17.3255567 15.8282312,19.8197243 12.5029726,19.552492 C9.08904037,19.2407211 9.31072422,15.2767763 10.0644495,12.6935313" id="path2942" fill="#FFFFFF" fill-rule="nonzero"></path>
                        </g>
                    </g>
                    <g filter="url(#filter-6)" id="g2944">
                        <g transform="translate(33.081286, 10.821256)">
                            <path d="M21.9734397,1.10671937 C22.4102873,0.708300395 22.1481787,0.0442687747 21.4492224,0.0442687747 C17.517593,0.0442687747 13.7607028,0.0442687747 10.9648774,2.65612648 C10.9211927,2.70039526 10.7901384,2.70039526 10.8338231,2.56758893 C10.8775079,2.34624506 11.0085622,1.85928853 11.1396165,1.28379447 C11.3143556,0.619762846 10.9211927,0.0442687747 10.1785516,0.0442687747 C8.99906273,0.0442687747 7.77588921,0.0442687747 6.33429175,0.0885375493 C5.46059634,0.0885375493 4.98006386,0.442687747 4.76164001,1.41660079 C4.3247923,3.40869566 1.31054312,18.4600791 0.436847707,22.975494 C0.305793395,23.5952569 0.830010644,24.0822134 1.35422789,24.0822134 C1.83476037,24.0822134 5.59165065,24.0822134 6.02849835,24.0822134 C6.858509,24.0822134 7.29535671,23.6837945 7.42641102,22.975494 C8.1690521,19.3897233 9.13011708,14.5644269 9.43591048,12.8822134 C9.91644293,10.4031621 10.9211927,8.45533593 11.8822576,7.7027668 C12.7996378,6.99446641 14.0664962,6.50750988 16.6002129,6.37470356 C17.7360169,6.33043478 18.1728646,5.97628459 18.7844514,5.09090909 C19.7455164,3.54150197 20.6192118,2.39051384 21.9734397,1.10671937" id="path2946" fill="#FFFFFF" fill-rule="nonzero"></path>
                        </g>
                    </g>
                </g>
            </g>
            <g id="Sainsbury's_Logo" fill="#000000" fill-rule="nonzero">
                <path d="M38.9678536,4.54691384 C37.4542306,4.54691384 36.4433845,3.63750386 36.4433845,2.26039732 C36.4433845,1.11713906 37.2584123,0.119386394 38.9678536,0.119386394 C40.608494,0.119386394 41.4182293,1.15871209 41.4182293,2.30197034 C41.4182293,3.70506003 40.4920614,4.58848686 38.9678536,4.58848686 M24.4508331,24.0706469 C21.1854296,24.0706469 18.3963411,22.2622202 18.3963411,18.8220522 C18.3963411,14.6647494 23.0959817,13.7553395 25.1494283,13.4851148 C28.5259719,13.0693845 28.8329304,12.8407328 28.8329304,11.9625026 C28.8329304,10.1021097 28.4942176,8.58469414 26.1179353,8.58469414 C24.5196341,8.58469414 23.2441686,9.03680082 22.0216269,9.75393555 L21.3865403,10.1696658 C21.1748448,10.3255647 20.8043777,10.741295 20.3809866,10.741295 C20.1692911,10.741295 19.7459,10.5230366 19.7459,9.97739057 L19.7459,8.27289644 C19.7459,7.9195257 19.9046717,7.58694148 20.3280627,7.34789657 C21.9157792,6.58918882 24.2973538,6.16826191 26.414309,6.16826191 C31.9183927,6.16826191 33.559033,8.29887958 33.559033,11.3908735 L33.559033,23.2495796 C33.559033,23.5094111 33.4002614,23.6964897 33.0827181,23.6964897 L29.536818,23.6964897 C29.3780464,23.6964897 29.1663509,23.5146077 29.1663509,23.2495796 L29.0605031,22.2622202 C27.8432538,23.3223324 26.3613852,24.0810402 24.5619732,24.0810402 M28.9546553,14.9453674 C24.667821,14.9453674 23.0271807,16.8421368 23.0271807,18.9051983 C23.0271807,20.3394677 23.8210389,21.7997203 25.8850702,21.7997203 C27.6844822,21.7997203 29.0075792,20.4693834 29.0075792,19.9653105 L29.0075792,14.9453674 M85.5832081,24.1433997 C82.8311663,24.1433997 80.7671349,23.1924167 79.391114,22.1686809 C78.8089513,21.7529506 78.7031036,21.0254227 78.7031036,20.4018272 L78.7031036,0.774161579 C78.7031036,0.5039369 78.9147991,0.306465019 79.0735707,0.306465019 L82.8311663,0.306465019 C83.0957857,0.306465019 83.3074812,0.5039369 83.3074812,0.774161579 L83.3074812,8.35084586 C84.0484156,7.72725045 85.7419797,6.40730682 88.3881738,6.40730682 C92.4103888,6.40730682 94.9507351,9.8370816 94.9507351,14.4101146 C94.9507351,20.2823048 90.8226723,24.1797761 85.6890559,24.1797761 M83.2545573,20.7500014 C83.2545573,21.1137653 83.3498203,21.4775293 83.7837961,21.7373608 C84.1542633,21.9971922 84.736426,22.153091 85.9007514,22.153091 C88.3722966,22.153091 90.1240771,19.6587094 90.1240771,15.397474 C90.1240771,13.8384855 89.7536099,9.31741876 86.2235871,9.31741876 C84.7946423,9.31741876 83.7890885,10.096913 83.2069258,10.5126433 L83.2069258,20.9059002 L83.2069258,20.8019676 M130.838419,30 C130.362104,30 129.885789,30 129.229533,29.8441011 C128.726756,29.7401686 128.451552,29.4283709 128.451552,29.0646069 L128.451552,26.8768263 C128.451552,26.6169949 128.684417,26.3571635 128.959621,26.3571635 C129.383012,26.3571635 129.700555,26.461096 130.145116,26.5650286 C130.88605,26.7209274 131.574061,26.82486 132.209147,26.82486 C134.379026,26.82486 135.966743,25.733568 136.019667,23.6029504 L128.980791,7.59733474 C128.822019,7.18160446 128.769095,7.07767189 128.769095,6.97373932 C128.769095,6.7139079 128.927867,6.60997533 129.139562,6.60997533 L133.373473,6.60997533 C133.691016,6.60997533 133.849788,6.7139079 133.955635,7.02570561 L138.189546,17.9386254 L142.264685,7.02570561 C142.317609,6.76587419 142.529304,6.60997533 142.793924,6.60997533 L144.540412,6.60997533 C144.699183,6.60997533 144.857955,6.76587419 144.857955,6.97373932 C144.857955,7.12963818 144.752107,7.23357075 144.699183,7.44143588 L137.602091,25.4217703 C136.612414,27.916152 133.818033,29.9688202 130.827834,29.9688202 M7.03887618,24.2109559 C4.87958184,24.2109559 2.63560928,23.7432593 0.645671349,22.8078662 C0.259327017,22.5480348 0.185233584,22.3921359 0.185233584,22.028372 L0.185233584,20.1212093 C0.185233584,19.7730352 0.30695851,19.4300577 0.963214636,19.4300577 C1.31251225,19.4300577 1.54537733,19.6119397 2.04286181,19.9653105 C4.03809213,21.3320237 5.93805946,21.888063 7.54694544,21.888063 C10.2566482,21.888063 12.0983992,20.2771082 12.0983992,18.2816028 C12.1195688,13.0693845 0,14.6647494 0,6.97373932 C0,3.41404883 2.79438092,0.30126839 7.95445933,0.30126839 C10.5212676,0.30126839 12.8499183,0.784554836 14.1624306,1.2886278 C14.5170206,1.44452665 14.5858216,1.62121202 14.5858216,1.97458275 L14.5858216,4.18314984 C14.5858216,4.52093069 14.4799739,4.78595875 14.0565828,4.78595875 C13.7125776,4.78595875 13.4373734,4.57809361 13.00869,4.2662959 C11.4580203,3.17500392 9.97615158,2.49944223 8.03384515,2.49944223 C5.86396602,2.49944223 4.15981705,3.64270049 4.15981705,5.40955416 C4.15981705,9.77472206 16.4540346,9.3070255 16.4540346,16.3224739 C16.4540346,21.6230349 11.9555047,24.1174166 7.0335838,24.1174166 M40.8519438,23.5977537 L37.0943483,23.5977537 C36.8826527,23.5977537 36.6709572,23.3898886 36.6709572,23.1300572 L36.6709572,7.02050898 C36.6709572,6.76067756 36.8826527,6.55281242 37.0414244,6.55281242 L40.746096,6.55281242 C41.0107155,6.55281242 41.222411,6.76067756 41.222411,7.02050898 L41.222411,23.2391864 C41.222411,23.5146077 41.0107155,23.6912931 40.746096,23.6912931 M104.572297,24.055057 C100.708853,24.055057 96.84541,22.4960685 96.84541,18.1828669 L96.84541,7.07767189 C96.84541,6.81784047 97.0041816,6.60997533 97.2158772,6.60997533 L100.973473,6.60997533 C101.238092,6.60997533 101.449788,6.81784047 101.449788,7.07767189 L101.449788,19.0818836 C101.449788,20.8695238 102.614113,21.9764057 104.572297,21.9764057 C106.953871,21.9764057 107.74773,20.656462 107.74773,18.1828669 L107.74773,7.02570561 C107.74773,6.76587419 107.906501,6.55800905 108.118197,6.55800905 L111.822868,6.55800905 C112.087488,6.55800905 112.299183,6.76587419 112.299183,7.02570561 L112.299183,17.7307602 C112.299183,22.4596921 108.382816,24.0498604 104.519373,24.0498604 M60.0103888,23.7276695 L56.2527932,23.7276695 C56.0410977,23.7276695 55.882326,23.5301976 55.882326,23.2599729 L55.882326,11.8273903 C55.882326,10.5282332 55.6706305,9.00042442 53.1302842,9.00042442 C51.8071872,9.00042442 50.2194708,9.75393555 49.4785364,10.1696658 L49.4785364,23.2651695 C49.4785364,23.5250009 49.3197648,23.7328661 49.0022215,23.7328661 L45.2975498,23.7328661 C45.122901,23.7328661 44.9270827,23.5250009 44.9270827,23.2651695 L44.9270827,7.05168875 C44.9270827,6.77107081 45.1387782,6.58399219 45.4351519,6.58399219 L49.1398236,6.58399219 C49.404443,6.58399219 49.6267233,6.77107081 49.6267233,7.05168875 L49.6267233,7.9195257 C50.6852009,7.22317749 53.0667756,6.20463831 55.2366547,6.20463831 C58.9942502,6.20463831 60.6348906,8.33525598 60.6348906,11.4532331 L60.6348906,23.2651695 C60.6348906,23.5250009 60.4761189,23.7328661 60.1585756,23.7328661 M69.3673309,24.1485964 C67.5149951,24.1485964 65.5779811,23.7068829 64.0749428,23.0417145 C63.6303822,22.8182595 63.5192421,22.4856753 63.5192421,22.0647484 L63.5192421,20.5681194 C63.5192421,20.0328666 63.7838615,19.8769678 64.1543287,19.8769678 C64.4189481,19.8769678 64.6835675,19.9964902 64.895263,20.1887655 C66.4829794,21.3684001 68.3353153,21.9400293 69.8171839,21.9400293 C71.563672,21.9400293 72.8338451,21.2125013 72.8338451,19.8094116 C72.8338451,16.5355357 63.095851,17.7827265 63.095851,11.7234577 C63.095851,8.01306501 66.3242078,6.33455402 69.9759556,6.33455402 C71.6165959,6.33455402 73.3101601,6.66713825 74.8978765,7.30632355 C75.3741914,7.4985988 75.4800392,7.87795267 75.4800392,8.29368295 L75.4800392,9.55646367 C75.4800392,10.0865198 75.2683437,10.2424186 74.8978765,10.2424186 C74.7391049,10.2424186 74.4215616,10.0865198 74.1569422,9.93062091 C72.7809213,8.99522779 70.9285854,8.47556495 69.340869,8.47556495 C67.7531526,8.47556495 66.4829794,9.04719408 66.4829794,10.2943849 C66.4829794,13.3084294 76.4326691,11.9053397 76.4326691,17.9334287 C76.4326691,22.5064618 73.0455407,24.0654503 69.4996406,24.0654503 M120.041947,23.5977537 L116.337275,23.5977537 C116.152042,23.5977537 115.966808,23.3898886 115.966808,23.1300572 L115.966808,7.02050898 C115.966808,6.76067756 116.152042,6.55281242 116.337275,6.55281242 L119.936099,6.55281242 C120.227181,6.55281242 120.412414,6.76067756 120.412414,7.02050898 L120.4918,9.04719408 C120.51297,9.04719408 120.518262,9.04719408 120.523554,8.99522779 C121.264489,7.90393582 123.010977,6.18904843 125.154394,6.18904843 C125.667756,6.18904843 126.107024,6.18904843 126.847958,6.34494728 C127.377197,6.44887985 127.641816,6.76067756 127.641816,7.12444155 L127.641816,9.51489064 C127.641816,9.77472206 127.398367,10.0345535 127.112578,10.0345535 C126.689187,10.0345535 126.318719,9.87865463 125.815943,9.72275578 C125.313166,9.61882321 124.731003,9.56685692 124.14884,9.56685692 C122.349428,9.56685692 120.550016,10.2424186 120.550016,12.684834 L120.550016,22.9741583 C120.550016,23.2339898 120.364783,23.4418549 120.100163,23.4418549 M146.826723,6.18904843 C145.927017,6.44887985 147.726429,4.31826218 147.435348,3.17500392 C147.117805,2.08371195 145.831754,0.576689698 146.747337,0.23371222 C147.647043,-0.114461886 149.340608,-0.109265258 149.816923,0.493543643 C150.8754,2.48904897 149.446455,5.76812152 146.816139,6.15786866 L146.826723,6.18904843 Z M155.066972,24.1226132 C153.182881,24.1226132 151.267037,23.6757032 149.774583,23.0105347 C149.319438,22.8026696 149.208298,22.4648887 149.208298,22.0439618 L149.208298,20.5577261 C149.208298,20.0224734 149.446455,19.8665745 149.827507,19.8665745 C150.113296,19.8665745 150.356746,20.0224734 150.568442,20.1783722 C152.140281,21.3735968 153.987324,21.9452259 155.490363,21.9452259 L155.511532,21.9452259 C157.215681,21.9452259 158.528193,21.2176979 158.528193,19.8146082 C158.528193,16.5407323 148.737275,17.7879231 148.737275,11.7598341 C148.737275,8.07022793 151.965632,6.40730682 155.61738,6.40730682 C157.25802,6.40730682 158.983339,6.71910453 160.539301,7.39466623 C161.015616,7.60253137 161.121464,7.96629536 161.121464,8.38202563 L161.121464,9.68118275 C161.121464,10.2008456 160.893891,10.3567444 160.486377,10.3567444 C160.311728,10.3567444 159.994185,10.2008456 159.766612,10.0449467 C158.390591,9.10955362 156.517086,8.58989077 154.961124,8.58989077 C153.373407,8.58989077 152.103234,9.1615199 152.103234,10.4087107 C152.103234,13.4227552 162,12.0716318 162,18.0997208 C162,22.6727539 158.612872,24.2837087 155.056387,24.2837087" id="Shape"></path>
            </g>
        </g>
    </g>
</svg>