<?xml version="1.0" encoding="UTF-8"?>
<svg width="162px" height="129px" viewBox="0 0 162 129" version="1.1" xmlns="http://www.w3.org/2000/svg" xmlns:xlink="http://www.w3.org/1999/xlink">
    <title>Group 6</title>
    <defs>
        <filter id="filter-1">
            <feColorMatrix in="SourceGraphic" type="matrix" values="0 0 0 0 0.000000 0 0 0 0 0.000000 0 0 0 0 0.000000 0 0 0 1.000000 0"></feColorMatrix>
        </filter>
        <filter id="filter-2">
            <feColorMatrix in="SourceGraphic" type="matrix" values="0 0 0 0 0.000000 0 0 0 0 0.000000 0 0 0 0 0.000000 0 0 0 1.000000 0"></feColorMatrix>
        </filter>
        <filter id="filter-3">
            <feColorMatrix in="SourceGraphic" type="matrix" values="0 0 0 0 0.000000 0 0 0 0 0.000000 0 0 0 0 0.000000 0 0 0 1.000000 0"></feColorMatrix>
        </filter>
        <filter id="filter-4">
            <feColorMatrix in="SourceGraphic" type="matrix" values="0 0 0 0 0.000000 0 0 0 0 0.000000 0 0 0 0 0.000000 0 0 0 1.000000 0"></feColorMatrix>
        </filter>
        <filter id="filter-5">
            <feColorMatrix in="SourceGraphic" type="matrix" values="0 0 0 0 0.000000 0 0 0 0 0.000000 0 0 0 0 0.000000 0 0 0 1.000000 0"></feColorMatrix>
        </filter>
        <filter id="filter-6">
            <feColorMatrix in="SourceGraphic" type="matrix" values="0 0 0 0 0.000000 0 0 0 0 0.000000 0 0 0 0 0.000000 0 0 0 1.000000 0"></feColorMatrix>
        </filter>
    </defs>
    <g id="Index" stroke="none" stroke-width="1" fill="none" fill-rule="evenodd">
        <g id="Group-6">
            <g id="argos" transform="translate(0.000000, 48.000000)">
                <g style="mix-blend-mode: overlay;">
                    <g filter="url(#filter-1)" id="g2924">
                        <g transform="translate(0.000000, 54.782609)">
                            <path d="M78.5251923,25.1613527 C117.049129,25.1613527 144.265892,10.1429952 155.913985,2.68985507 C157.902684,1.45700483 156.766285,-0.560386473 154.607126,0.280193237 C124.890284,12.3285024 105.628316,16.7555556 78.5251923,16.7555556 C51.4220687,16.7555556 32.1601005,12.3285024 2.44325852,0.280193237 C0.284099827,-0.560386473 -0.852299482,1.40096618 1.13639931,2.68985507 C12.8413122,10.1429952 40.0012557,25.1613527 78.5251923,25.1613527" id="path2926" fill="#FFFFFF" fill-rule="nonzero"></path>
                        </g>
                    </g>
                    <g filter="url(#filter-2)" id="g2928">
                        <g transform="translate(129.565217, 12.173913)">
                            <path d="M3.71980676,11.7931034 C3.71980676,16.9205397 9.97584541,18.4017991 13.1884058,19.1994003 C14.7665056,19.5982009 17.979066,20.3958021 18.0354267,22.4467766 C18.1481481,24.6686657 15.6119163,25.8650675 13.0756844,25.8650675 C10.4267311,25.8650675 8.73590982,24.7826087 7.2705314,22.8455772 C6.5942029,21.9910045 5.80515298,21.7631184 4.79066023,22.1049475 C3.60708535,22.4467766 2.31078905,23.1304348 1.07085346,23.9850075 C0.338164251,24.4977511 0.0563607085,25.2953523 0.450885668,26.2638681 C2.47987118,31.1634183 7.89049919,32.7016492 12.568438,32.7016492 C19.9516908,32.7016492 26.3768116,29.4542729 27.9549114,22.8455772 C29.5330113,16.3508246 24.2914654,13.958021 19.5571659,12.5907046 C16.4573269,11.6791604 14.1465378,10.9385307 14.31562,8.83058471 C14.4847021,6.60869565 19.5008052,5.1844078 22.9388084,9.22938531 C23.784219,10.2548726 24.6859903,10.3688156 25.7004831,9.97001499 C26.7713366,9.57121439 28.5185185,8.77361319 29.0821256,8.37481259 C30.2657005,7.63418291 30.4911433,6.95052474 29.8148148,5.69715142 C28.0676329,2.50674663 23.784219,0.3988006 18.9371981,0.3988006 C9.75040258,0.512743628 3.71980676,5.35532234 3.71980676,11.7931034" id="path2930" fill="#FFFFFF" fill-rule="nonzero"></path>
                        </g>
                    </g>
                    <g filter="url(#filter-3)" id="g2932">
                        <g>
                            <path d="M30.8755211,10.5888828 C31.0470518,15.7974684 31.5616438,27.8745184 31.5616438,27.8745184 L19.3257892,27.8745184 C22.0702799,22.7231701 26.8731388,15.2823335 30.4752829,10.5316456 C30.7611674,10.0165107 30.8755211,10.5888828 30.8755211,10.5888828 M31.4472901,0.68684645 C29.4460989,0.801320859 27.787969,0.973032471 26.244193,2.804623 C21.2698035,8.70005504 9.83442525,26.3863511 0.800476474,42.4700055 C0.171530673,43.6147496 0.628945801,44.7022565 2.00119119,44.7022565 C3.54496724,44.7022565 7.89041096,44.7022565 8.63371054,44.7022565 C9.72007147,44.7022565 10.4633711,44.4733076 11.2066706,43.2140892 C12.0071471,41.8403963 13.9511614,38.406164 15.6664681,35.4870666 L31.5044669,35.4870666 C31.5044669,35.4870666 31.6759976,40.924601 31.7331745,42.9279031 C31.7903514,44.01541 32.4192972,44.7022565 33.8487195,44.7022565 C35.2781418,44.7022565 38.7087552,44.7022565 39.6807624,44.7022565 C40.6527695,44.7022565 41.5675998,44.2443588 41.5104229,42.8706659 C41.3388922,37.2041827 39.9094699,9.38690149 39.3948779,2.86186021 C39.2805241,1.25921849 38.4800476,0.572372042 36.6503871,0.572372042 C34.8779035,0.515134838 32.8767123,0.572372042 31.4472901,0.68684645" id="path2934" fill="#FFFFFF" fill-rule="nonzero"></path>
                        </g>
                    </g>
                    <g filter="url(#filter-4)" id="g2936">
                        <g transform="translate(97.391304, 13.043478)">
                            <path d="M14.1400147,25.922039 C19.715549,25.922039 22.1296979,21.3643178 23.5666912,16.5217391 C24.9462049,11.6791604 25.5210022,7.12143928 19.8879882,7.12143928 C14.2549742,7.12143928 11.8983051,11.6791604 10.5187915,16.5217391 C9.02431835,21.4212894 8.50700074,25.922039 14.1400147,25.922039 Z M13.5077377,32.7016492 C3.50626382,32.7016492 -1.09211496,26.149925 0.919675755,16.5787106 C2.9889462,7.00749625 10.403832,0.455772114 20.4053058,0.455772114 C30.4642594,0.455772114 35.0626382,7.00749625 32.9933677,16.5787106 C30.981577,26.149925 23.5666912,32.7016492 13.5077377,32.7016492" id="path2938" fill="#FFFFFF" fill-rule="nonzero"></path>
                        </g>
                    </g>
                    <g filter="url(#filter-5)" id="g2940">
                        <g transform="translate(60.869565, 13.043478)">
                            <path d="M31.6365996,28.173913 C34.0350422,18.6680806 36.2621674,9.6776246 37.7469176,3.2640509 C38.0895522,1.71792153 37.1758598,0.687168611 35.9766385,0.687168611 C35.1200519,0.687168611 32.6073978,0.687168611 31.8079169,0.744432662 C30.4373783,0.801696713 29.6378975,1.48886532 29.2952628,2.63414634 C29.238157,2.9204666 29.1239455,3.20678685 28.9526282,3.89395546 C28.8955224,4.18027572 28.7813108,4.18027572 28.6670993,3.95121951 C28.0960415,2.80593849 25.5262816,0.229056204 21.0720311,0.229056204 C12.963011,0.229056204 7.36664504,8.07423118 5.02530824,15.3467656 C3.54055808,19.9278897 3.42634653,25.1961824 5.31083712,28.0593849 C7.02401038,30.6362672 9.76508761,32.2969247 13.990915,32.3541888 C17.5314731,32.4114528 20.6151849,31.2089077 22.1570409,29.26193 C22.3283582,29.0328738 22.4996755,29.1474019 22.4425698,29.3764581 C20.3867618,36.4772004 16.0467229,38.4241782 12.6774822,38.4241782 C10.4503569,38.4241782 8.8513952,37.5079533 8.05191434,36.9925769 C6.79558728,36.2481442 6.39584685,36.1908802 5.25373134,36.4772004 C3.99740428,36.8207847 2.51265412,37.3934252 1.31343284,38.195122 C-0.114211551,39.1686108 0.171317326,40.1420997 0.685269306,41.0010604 C3.36924075,45.3531283 9.59377028,46.4411453 13.2485399,46.4411453 C22.2712524,46.4411453 28.6099935,40.1993637 31.6365996,28.173913 Z M12.963011,16.3202545 C14.7332901,10.078473 17.7598962,6.87168611 21.871512,6.98621421 C27.1252433,7.15800636 26.0402336,12.3117709 24.8981181,16.2629905 C23.1278391,22.2757158 20.3867618,25.4825027 16.1038287,25.1389183 C11.706684,24.73807 11.9922128,19.6415695 12.963011,16.3202545" id="path2942" fill="#FFFFFF" fill-rule="nonzero"></path>
                        </g>
                    </g>
                    <g filter="url(#filter-6)" id="g2944">
                        <g transform="translate(42.608696, 13.913043)">
                            <path d="M28.3017903,1.4229249 C28.8644501,0.910671937 28.5268542,0.056916996 27.6265985,0.056916996 C22.5626598,0.056916996 17.7237852,0.056916996 14.1227621,3.41501976 C14.0664962,3.47193676 13.8976982,3.47193676 13.9539642,3.30118577 C14.0102302,3.01660079 14.1790281,2.39051383 14.3478261,1.65059289 C14.57289,0.796837945 14.0664962,0.056916996 13.1099744,0.056916996 C11.5907928,0.056916996 10.0153453,0.056916996 8.15856777,0.113833992 C7.03324808,0.113833992 6.41432225,0.56916996 6.13299233,1.82134387 C5.57033248,4.3826087 1.68797954,23.7343874 0.562659847,29.5399209 C0.393861893,30.3367589 1.06905371,30.9628458 1.74424552,30.9628458 C2.36317136,30.9628458 7.20204604,30.9628458 7.76470588,30.9628458 C8.83375959,30.9628458 9.39641944,30.4505929 9.56521739,29.5399209 C10.5217391,24.9296443 11.7595908,18.7256917 12.1534527,16.5628458 C12.7723785,13.3754941 14.0664962,10.8711462 15.3043478,9.90355731 C16.4859335,8.99288538 18.1176471,8.36679842 21.3810742,8.19604743 C22.8439898,8.13913043 23.4066496,7.68379447 24.1943734,6.54545455 C25.4322251,4.55335968 26.5575448,3.07351779 28.3017903,1.4229249" id="path2946" fill="#FFFFFF" fill-rule="nonzero"></path>
                        </g>
                    </g>
                </g>
            </g>
            <g id="Sainsbury's_Logo" fill="#000000" fill-rule="nonzero">
                <path d="M38.9678536,4.54691384 C37.4542306,4.54691384 36.4433845,3.63750386 36.4433845,2.26039732 C36.4433845,1.11713906 37.2584123,0.119386394 38.9678536,0.119386394 C40.608494,0.119386394 41.4182293,1.15871209 41.4182293,2.30197034 C41.4182293,3.70506003 40.4920614,4.58848686 38.9678536,4.58848686 M24.4508331,24.0706469 C21.1854296,24.0706469 18.3963411,22.2622202 18.3963411,18.8220522 C18.3963411,14.6647494 23.0959817,13.7553395 25.1494283,13.4851148 C28.5259719,13.0693845 28.8329304,12.8407328 28.8329304,11.9625026 C28.8329304,10.1021097 28.4942176,8.58469414 26.1179353,8.58469414 C24.5196341,8.58469414 23.2441686,9.03680082 22.0216269,9.75393555 L21.3865403,10.1696658 C21.1748448,10.3255647 20.8043777,10.741295 20.3809866,10.741295 C20.1692911,10.741295 19.7459,10.5230366 19.7459,9.97739057 L19.7459,8.27289644 C19.7459,7.9195257 19.9046717,7.58694148 20.3280627,7.34789657 C21.9157792,6.58918882 24.2973538,6.16826191 26.414309,6.16826191 C31.9183927,6.16826191 33.559033,8.29887958 33.559033,11.3908735 L33.559033,23.2495796 C33.559033,23.5094111 33.4002614,23.6964897 33.0827181,23.6964897 L29.536818,23.6964897 C29.3780464,23.6964897 29.1663509,23.5146077 29.1663509,23.2495796 L29.0605031,22.2622202 C27.8432538,23.3223324 26.3613852,24.0810402 24.5619732,24.0810402 M28.9546553,14.9453674 C24.667821,14.9453674 23.0271807,16.8421368 23.0271807,18.9051983 C23.0271807,20.3394677 23.8210389,21.7997203 25.8850702,21.7997203 C27.6844822,21.7997203 29.0075792,20.4693834 29.0075792,19.9653105 L29.0075792,14.9453674 M85.5832081,24.1433997 C82.8311663,24.1433997 80.7671349,23.1924167 79.391114,22.1686809 C78.8089513,21.7529506 78.7031036,21.0254227 78.7031036,20.4018272 L78.7031036,0.774161579 C78.7031036,0.5039369 78.9147991,0.306465019 79.0735707,0.306465019 L82.8311663,0.306465019 C83.0957857,0.306465019 83.3074812,0.5039369 83.3074812,0.774161579 L83.3074812,8.35084586 C84.0484156,7.72725045 85.7419797,6.40730682 88.3881738,6.40730682 C92.4103888,6.40730682 94.9507351,9.8370816 94.9507351,14.4101146 C94.9507351,20.2823048 90.8226723,24.1797761 85.6890559,24.1797761 M83.2545573,20.7500014 C83.2545573,21.1137653 83.3498203,21.4775293 83.7837961,21.7373608 C84.1542633,21.9971922 84.736426,22.153091 85.9007514,22.153091 C88.3722966,22.153091 90.1240771,19.6587094 90.1240771,15.397474 C90.1240771,13.8384855 89.7536099,9.31741876 86.2235871,9.31741876 C84.7946423,9.31741876 83.7890885,10.096913 83.2069258,10.5126433 L83.2069258,20.9059002 L83.2069258,20.8019676 M130.838419,30 C130.362104,30 129.885789,30 129.229533,29.8441011 C128.726756,29.7401686 128.451552,29.4283709 128.451552,29.0646069 L128.451552,26.8768263 C128.451552,26.6169949 128.684417,26.3571635 128.959621,26.3571635 C129.383012,26.3571635 129.700555,26.461096 130.145116,26.5650286 C130.88605,26.7209274 131.574061,26.82486 132.209147,26.82486 C134.379026,26.82486 135.966743,25.733568 136.019667,23.6029504 L128.980791,7.59733474 C128.822019,7.18160446 128.769095,7.07767189 128.769095,6.97373932 C128.769095,6.7139079 128.927867,6.60997533 129.139562,6.60997533 L133.373473,6.60997533 C133.691016,6.60997533 133.849788,6.7139079 133.955635,7.02570561 L138.189546,17.9386254 L142.264685,7.02570561 C142.317609,6.76587419 142.529304,6.60997533 142.793924,6.60997533 L144.540412,6.60997533 C144.699183,6.60997533 144.857955,6.76587419 144.857955,6.97373932 C144.857955,7.12963818 144.752107,7.23357075 144.699183,7.44143588 L137.602091,25.4217703 C136.612414,27.916152 133.818033,29.9688202 130.827834,29.9688202 M7.03887618,24.2109559 C4.87958184,24.2109559 2.63560928,23.7432593 0.645671349,22.8078662 C0.259327017,22.5480348 0.185233584,22.3921359 0.185233584,22.028372 L0.185233584,20.1212093 C0.185233584,19.7730352 0.30695851,19.4300577 0.963214636,19.4300577 C1.31251225,19.4300577 1.54537733,19.6119397 2.04286181,19.9653105 C4.03809213,21.3320237 5.93805946,21.888063 7.54694544,21.888063 C10.2566482,21.888063 12.0983992,20.2771082 12.0983992,18.2816028 C12.1195688,13.0693845 0,14.6647494 0,6.97373932 C0,3.41404883 2.79438092,0.30126839 7.95445933,0.30126839 C10.5212676,0.30126839 12.8499183,0.784554836 14.1624306,1.2886278 C14.5170206,1.44452665 14.5858216,1.62121202 14.5858216,1.97458275 L14.5858216,4.18314984 C14.5858216,4.52093069 14.4799739,4.78595875 14.0565828,4.78595875 C13.7125776,4.78595875 13.4373734,4.57809361 13.00869,4.2662959 C11.4580203,3.17500392 9.97615158,2.49944223 8.03384515,2.49944223 C5.86396602,2.49944223 4.15981705,3.64270049 4.15981705,5.40955416 C4.15981705,9.77472206 16.4540346,9.3070255 16.4540346,16.3224739 C16.4540346,21.6230349 11.9555047,24.1174166 7.0335838,24.1174166 M40.8519438,23.5977537 L37.0943483,23.5977537 C36.8826527,23.5977537 36.6709572,23.3898886 36.6709572,23.1300572 L36.6709572,7.02050898 C36.6709572,6.76067756 36.8826527,6.55281242 37.0414244,6.55281242 L40.746096,6.55281242 C41.0107155,6.55281242 41.222411,6.76067756 41.222411,7.02050898 L41.222411,23.2391864 C41.222411,23.5146077 41.0107155,23.6912931 40.746096,23.6912931 M104.572297,24.055057 C100.708853,24.055057 96.84541,22.4960685 96.84541,18.1828669 L96.84541,7.07767189 C96.84541,6.81784047 97.0041816,6.60997533 97.2158772,6.60997533 L100.973473,6.60997533 C101.238092,6.60997533 101.449788,6.81784047 101.449788,7.07767189 L101.449788,19.0818836 C101.449788,20.8695238 102.614113,21.9764057 104.572297,21.9764057 C106.953871,21.9764057 107.74773,20.656462 107.74773,18.1828669 L107.74773,7.02570561 C107.74773,6.76587419 107.906501,6.55800905 108.118197,6.55800905 L111.822868,6.55800905 C112.087488,6.55800905 112.299183,6.76587419 112.299183,7.02570561 L112.299183,17.7307602 C112.299183,22.4596921 108.382816,24.0498604 104.519373,24.0498604 M60.0103888,23.7276695 L56.2527932,23.7276695 C56.0410977,23.7276695 55.882326,23.5301976 55.882326,23.2599729 L55.882326,11.8273903 C55.882326,10.5282332 55.6706305,9.00042442 53.1302842,9.00042442 C51.8071872,9.00042442 50.2194708,9.75393555 49.4785364,10.1696658 L49.4785364,23.2651695 C49.4785364,23.5250009 49.3197648,23.7328661 49.0022215,23.7328661 L45.2975498,23.7328661 C45.122901,23.7328661 44.9270827,23.5250009 44.9270827,23.2651695 L44.9270827,7.05168875 C44.9270827,6.77107081 45.1387782,6.58399219 45.4351519,6.58399219 L49.1398236,6.58399219 C49.404443,6.58399219 49.6267233,6.77107081 49.6267233,7.05168875 L49.6267233,7.9195257 C50.6852009,7.22317749 53.0667756,6.20463831 55.2366547,6.20463831 C58.9942502,6.20463831 60.6348906,8.33525598 60.6348906,11.4532331 L60.6348906,23.2651695 C60.6348906,23.5250009 60.4761189,23.7328661 60.1585756,23.7328661 M69.3673309,24.1485964 C67.5149951,24.1485964 65.5779811,23.7068829 64.0749428,23.0417145 C63.6303822,22.8182595 63.5192421,22.4856753 63.5192421,22.0647484 L63.5192421,20.5681194 C63.5192421,20.0328666 63.7838615,19.8769678 64.1543287,19.8769678 C64.4189481,19.8769678 64.6835675,19.9964902 64.895263,20.1887655 C66.4829794,21.3684001 68.3353153,21.9400293 69.8171839,21.9400293 C71.563672,21.9400293 72.8338451,21.2125013 72.8338451,19.8094116 C72.8338451,16.5355357 63.095851,17.7827265 63.095851,11.7234577 C63.095851,8.01306501 66.3242078,6.33455402 69.9759556,6.33455402 C71.6165959,6.33455402 73.3101601,6.66713825 74.8978765,7.30632355 C75.3741914,7.4985988 75.4800392,7.87795267 75.4800392,8.29368295 L75.4800392,9.55646367 C75.4800392,10.0865198 75.2683437,10.2424186 74.8978765,10.2424186 C74.7391049,10.2424186 74.4215616,10.0865198 74.1569422,9.93062091 C72.7809213,8.99522779 70.9285854,8.47556495 69.340869,8.47556495 C67.7531526,8.47556495 66.4829794,9.04719408 66.4829794,10.2943849 C66.4829794,13.3084294 76.4326691,11.9053397 76.4326691,17.9334287 C76.4326691,22.5064618 73.0455407,24.0654503 69.4996406,24.0654503 M120.041947,23.5977537 L116.337275,23.5977537 C116.152042,23.5977537 115.966808,23.3898886 115.966808,23.1300572 L115.966808,7.02050898 C115.966808,6.76067756 116.152042,6.55281242 116.337275,6.55281242 L119.936099,6.55281242 C120.227181,6.55281242 120.412414,6.76067756 120.412414,7.02050898 L120.4918,9.04719408 C120.51297,9.04719408 120.518262,9.04719408 120.523554,8.99522779 C121.264489,7.90393582 123.010977,6.18904843 125.154394,6.18904843 C125.667756,6.18904843 126.107024,6.18904843 126.847958,6.34494728 C127.377197,6.44887985 127.641816,6.76067756 127.641816,7.12444155 L127.641816,9.51489064 C127.641816,9.77472206 127.398367,10.0345535 127.112578,10.0345535 C126.689187,10.0345535 126.318719,9.87865463 125.815943,9.72275578 C125.313166,9.61882321 124.731003,9.56685692 124.14884,9.56685692 C122.349428,9.56685692 120.550016,10.2424186 120.550016,12.684834 L120.550016,22.9741583 C120.550016,23.2339898 120.364783,23.4418549 120.100163,23.4418549 M146.826723,6.18904843 C145.927017,6.44887985 147.726429,4.31826218 147.435348,3.17500392 C147.117805,2.08371195 145.831754,0.576689698 146.747337,0.23371222 C147.647043,-0.114461886 149.340608,-0.109265258 149.816923,0.493543643 C150.8754,2.48904897 149.446455,5.76812152 146.816139,6.15786866 L146.826723,6.18904843 Z M155.066972,24.1226132 C153.182881,24.1226132 151.267037,23.6757032 149.774583,23.0105347 C149.319438,22.8026696 149.208298,22.4648887 149.208298,22.0439618 L149.208298,20.5577261 C149.208298,20.0224734 149.446455,19.8665745 149.827507,19.8665745 C150.113296,19.8665745 150.356746,20.0224734 150.568442,20.1783722 C152.140281,21.3735968 153.987324,21.9452259 155.490363,21.9452259 L155.511532,21.9452259 C157.215681,21.9452259 158.528193,21.2176979 158.528193,19.8146082 C158.528193,16.5407323 148.737275,17.7879231 148.737275,11.7598341 C148.737275,8.07022793 151.965632,6.40730682 155.61738,6.40730682 C157.25802,6.40730682 158.983339,6.71910453 160.539301,7.39466623 C161.015616,7.60253137 161.121464,7.96629536 161.121464,8.38202563 L161.121464,9.68118275 C161.121464,10.2008456 160.893891,10.3567444 160.486377,10.3567444 C160.311728,10.3567444 159.994185,10.2008456 159.766612,10.0449467 C158.390591,9.10955362 156.517086,8.58989077 154.961124,8.58989077 C153.373407,8.58989077 152.103234,9.1615199 152.103234,10.4087107 C152.103234,13.4227552 162,12.0716318 162,18.0997208 C162,22.6727539 158.612872,24.2837087 155.056387,24.2837087" id="Shape"></path>
            </g>
        </g>
    </g>
</svg>