<svg width="78" height="78" viewBox="0 0 78 78" fill="none" xmlns="http://www.w3.org/2000/svg">
<path d="M0 0.94104H77.1655V77.1655H0V0.94104Z" fill="#F7F7F7"/>
<path d="M53.6394 52.6984H58.3446V47.9932H53.6394V52.6984Z" fill="#231F20"/>
<path d="M56.4626 71.5193H58.3447V53.6395H56.4626V71.5193Z" fill="#231F20"/>
<path d="M9.4104 43.6644H68.6961V42.9115H9.4104V43.6644Z" fill="black"/>
<path d="M54.0791 71.2907H56.2653V54.0902H54.0791V71.2907Z" fill="#231F20"/>
<path d="M52.0143 71.2907V58.1195C52.0171 56.8503 51.4958 55.637 50.5748 54.769C49.6538 53.901 48.4157 53.4562 47.1561 53.5408C45.4018 53.4376 43.6861 54.0864 42.4345 55.3265V54.1055H40.2483V58.6842C41.3545 56.6998 43.4512 55.482 45.7138 55.5096C46.749 55.4257 47.7737 55.7685 48.5525 56.4593C49.3313 57.1501 49.7972 58.1295 49.8433 59.1725V71.2449L52.0143 71.2907Z" fill="#231F20"/>
<path d="M49.0993 71.2907V59.2183C49.0993 57.1427 47.399 56.288 45.6986 56.288C44.2021 56.1991 42.7407 56.7667 41.6924 57.8439C40.6441 58.9212 40.1118 60.4024 40.2331 61.9045V71.306H42.4193V60.3172C42.4047 59.6759 42.6602 59.0583 43.1228 58.6165C43.5854 58.1747 44.2121 57.9498 44.8484 57.9974C46.3666 57.9974 46.7917 58.8521 46.7917 59.8288V71.2907H49.0993Z" fill="#231F20"/>
<path d="M37.3335 71.2907H39.6412V54.0902H37.3335V71.2907Z" fill="#231F20"/>
<path d="M35.6331 52.3809V50.5494H21.1951V58.9742H34.9044V57.0206H23.8671V52.3809H35.6331Z" fill="#231F20"/>
<path d="M35.9974 71.2907V69.2151H20.4662V49.8168H35.633V48.0006H18.0371V71.2907H35.9974Z" fill="#231F20"/>
<path d="M35.9975 68.4825V66.4068H23.7456V61.5382H34.9044V59.7067H21.1951V68.4825H35.9975Z" fill="#231F20"/>
<path d="M44.1081 11.341C44.1081 11.1145 43.8661 10.7748 43.6241 10.7748C42.4142 10.0954 41.2043 10.8881 39.9944 10.8881C39.5104 10.8881 39.0264 11.0013 38.7845 10.7748C38.7845 10.5484 38.9054 10.5484 38.9054 10.3219C38.6635 10.3219 38.3005 10.2086 37.9375 10.2086C37.5225 10.2061 37.1118 10.1292 36.7276 9.98218C35.0876 9.26145 33.1991 9.22034 31.525 9.86894C30.9553 10.1242 30.3399 10.2778 29.7101 10.3219C29.3471 10.3219 30.1941 10.8881 30.0731 11.2278C29.0459 11.3381 28.077 11.7323 27.2903 12.3602V12.4734C27.9496 13.0323 28.8223 13.3182 29.7101 13.2661C30.4085 13.6757 31.1922 13.9411 32.0089 14.0446C34.0658 14.3843 35.2757 13.3651 36.7276 13.9313C36.6298 13.7575 36.5878 13.5608 36.6066 13.3651C38.073 13.841 39.6803 13.7597 41.0833 13.1387C42.2932 12.799 42.8982 11.2136 44.2291 11.3269L44.1081 11.341Z" fill="black"/>
<path fill-rule="evenodd" clip-rule="evenodd" d="M29.3316 6.9601L29.8037 9.32113H29.8646C29.948 9.66144 29.7459 9.76875 29.5319 9.88236C29.4334 9.93468 29.3323 9.98834 29.2555 10.0667C29.1538 10.1705 29.1157 10.3392 29.0794 10.5005C29.0286 10.7257 28.9811 10.9366 28.7682 10.9366C28.7355 10.87 28.7116 10.8034 28.6894 10.7416C28.6288 10.5727 28.581 10.4395 28.4027 10.4395C28.3613 10.5239 28.348 10.6368 28.3343 10.7541C28.3074 10.9825 28.2786 11.2273 28.0372 11.3094C27.9763 11.2472 27.9154 11.154 27.8545 11.0608L27.8545 11.0608L27.8544 11.0608C27.7935 10.9676 27.7326 10.8744 27.6717 10.8123L26.1489 11.6821V11.7909L27.2453 13.9034C27.5391 14.0123 27.7743 14.0735 27.987 14.1288C28.2593 14.1997 28.4945 14.2609 28.7682 14.4004C28.8701 14.4004 28.972 14.2917 29.065 14.1925C29.1943 14.0546 29.3064 13.935 29.3773 14.1519C29.4516 14.3794 29.3899 14.6531 29.3305 14.9166C29.2925 15.085 29.2555 15.2492 29.2555 15.3945L29.0118 15.6431L26.8189 15.1926C26.6362 15.0684 26.4839 14.882 26.3316 14.6956L26.3316 14.6956L26.3316 14.6956C26.1793 14.5092 26.0271 14.3228 25.8443 14.1985H25.7225C25.9481 14.5054 26.1215 14.9188 26.2982 15.3401C26.694 16.2837 27.1063 17.2667 28.159 17.1808C28.159 17.3628 28.0284 17.4781 27.8629 17.6244C27.8023 17.6779 27.737 17.7356 27.6717 17.8022C27.1125 18.0153 26.49 17.97 25.9661 17.6779L25.1895 16.9012C25.1895 16.9012 25.7986 18.1439 25.4331 18.8895C24.8406 18.6657 24.2288 18.4993 23.6057 18.3924C22.9912 18.9983 22.5671 19.7769 22.3875 20.6292C22.2013 20.6292 22.0863 20.4841 21.988 20.3603C21.9577 20.322 21.9289 20.2857 21.9002 20.2564C21.4673 19.6492 21.7074 18.7479 21.8518 18.2057L21.8518 18.2057C21.8699 18.1376 21.8866 18.0751 21.9002 18.0196V17.8954C21.5347 19.2001 20.6819 20.6292 19.4636 20.7534C19.6005 20.4828 19.6834 20.1871 19.7073 19.8836C19.5872 18.9554 19.7134 18.0113 20.0728 17.1498C19.6524 17.6478 18.982 17.8432 18.3672 17.6468C19.0733 17.1427 19.0427 16.388 19.0109 15.6007C18.9877 15.0296 18.9639 14.4413 19.22 13.9189C19.2898 13.8477 19.3196 13.8173 19.3323 13.7809C19.3418 13.7538 19.3418 13.7234 19.3418 13.6704C19.1119 13.5682 18.8608 13.5255 18.6108 13.5461C18.2604 13.4377 17.9862 13.158 17.8799 12.8005C18.6245 12.3195 19.2169 11.629 19.5855 10.8123C19.9509 10.3152 20.4382 9.81818 20.9256 9.81818C21.0474 9.81818 21.1692 9.81818 21.0474 9.69392C20.9256 8.94833 20.8037 7.82995 20.6819 6.58731L23.4839 8.57554C23.7276 8.6998 23.8494 8.6998 23.9712 8.57554C24.8849 8.26488 25.6768 7.95422 26.4687 7.64356C27.2605 7.3329 28.0524 7.02224 28.9661 6.71158C29.088 6.58731 29.3316 6.83584 29.3316 6.9601ZM58.4178 33.6459C58.731 33.8577 59.0174 34.1081 59.2705 34.3914H59.2858C59.164 34.5778 58.9812 34.671 58.7985 34.7642C58.6157 34.8574 58.433 34.9506 58.3112 35.137C58.3319 35.7609 58.291 36.3854 58.1893 37.001L57.9457 37.1253L55.5091 37.6223C55.4482 37.5602 55.3873 37.5291 55.3264 37.4981C55.2655 37.467 55.2046 37.4359 55.1437 37.3738L55.2655 37.001C55.9394 36.313 56.551 35.5644 57.0929 34.7642C57.0555 34.418 56.8791 34.103 56.6056 33.8944C55.7221 32.5301 54.9089 31.1199 54.1691 29.6694L53.8036 29.4209C51.8161 29.1566 49.8579 28.6988 47.9559 28.054H47.8341C47.8442 28.4794 47.9267 28.8999 48.0777 29.2966C48.4994 29.2451 48.9262 29.3321 49.296 29.5451C49.3644 29.4754 49.3944 29.5231 49.4291 29.5784C49.4562 29.6216 49.4862 29.6694 49.5396 29.6694C49.585 29.6694 49.6472 29.635 49.7138 29.5981C49.826 29.536 49.9505 29.4671 50.0269 29.5451C49.9811 30.0188 49.707 30.4382 49.296 30.6635C49.296 30.8593 49.4976 30.9523 49.6714 31.0324C49.8285 31.1049 49.963 31.1668 49.9051 31.2848C49.8564 31.3842 49.7687 31.4439 49.681 31.5035C49.5494 31.593 49.4178 31.6825 49.4178 31.9062C49.4787 31.9683 49.5396 31.9994 49.6005 32.0304C49.6615 32.0615 49.7224 32.0926 49.7833 32.1547C49.6283 32.3127 49.4734 32.4261 49.3277 32.5327C49.1298 32.6775 48.949 32.8098 48.8087 33.0245L48.9914 34.8885L48.7478 35.0128L46.1894 35.6341C46.1285 35.6341 46.098 35.603 46.0676 35.572C46.0371 35.5409 46.0067 35.5098 45.9457 35.5098L46.0676 35.2613L47.5904 32.776C47.673 32.3549 47.4757 32.0479 47.3021 31.7778L47.3021 31.7777C47.2195 31.6493 47.1423 31.5292 47.1031 31.4091C46.5898 30.7325 45.9728 30.1451 45.2757 29.6694C45.0888 29.4708 44.9994 29.1971 45.032 28.9238C44.8196 28.5758 44.6556 28.1994 44.5447 27.8054C44.4635 27.6398 44.3823 27.695 44.3011 27.7502C44.2605 27.7778 44.2199 27.8054 44.1793 27.8054C43.7893 28.1618 43.4599 28.5818 43.2046 29.0481C43.2517 29.3268 43.4357 29.5614 43.6919 29.6694C43.7732 29.6694 43.8408 29.6832 43.9085 29.697C44.0439 29.7246 44.1793 29.7522 44.4229 29.6694V29.7937C44.1793 30.2907 44.0574 30.415 43.8138 30.5393C43.9501 30.6784 44.1247 30.6228 44.2947 30.5687C44.4284 30.5262 44.5593 30.4845 44.6666 30.5393C44.627 30.5796 44.5843 30.6199 44.5404 30.6613C44.3139 30.875 44.0574 31.117 44.0574 31.5334C44.097 31.5535 44.1397 31.5737 44.1836 31.5944C44.4101 31.7012 44.6666 31.8222 44.6666 32.0304C44.2701 32.0304 44.0285 32.3462 43.8073 32.6353C43.6887 32.7904 43.5759 32.9378 43.4483 33.0245C43.3885 33.4206 43.3581 33.8167 43.3282 34.2055V34.2055V34.2055L43.3282 34.2056C43.2972 34.6096 43.2667 35.0056 43.2046 35.3856C43.2046 35.5098 42.961 35.6341 42.8392 35.6341L40.159 35.7584C39.9728 35.7584 40 35.6133 40.0232 35.4894C40.0303 35.4512 40.0371 35.4149 40.0371 35.3856L41.9864 33.0867V32.7139C41.0583 31.6497 40.3166 30.4307 39.7935 29.1102C39.3467 29.1078 38.9311 29.3433 38.697 29.7315C38.8189 29.9801 39.3062 30.1043 39.6717 30.1043C39.6376 30.5983 39.3553 31.0391 38.9255 31.2693C38.7916 31.2537 38.6579 31.2992 38.56 31.3936C38.6818 31.5178 38.8036 31.6421 38.9255 31.6421C38.4468 32.0655 37.8506 32.3262 37.2199 32.3877C37.0981 32.5119 37.3417 32.5119 37.3417 32.5119H37.7072C37.7072 32.8847 37.4635 33.1333 37.3417 33.1333C37.1233 33.2818 36.8613 33.2972 36.6078 33.312C36.4372 33.322 36.2705 33.3318 36.1235 33.3818C36.2028 33.5032 36.2951 33.6115 36.3835 33.7152C36.5664 33.9297 36.7326 34.1246 36.7326 34.3759C36.3014 34.5299 35.8492 34.6138 35.3925 34.6244C35.2707 34.7487 35.2707 35.1215 35.2707 35.37C35.1204 35.6 34.9907 35.8194 34.8646 36.0327L34.8646 36.0327L34.8646 36.0328C34.6842 36.3381 34.5112 36.6307 34.296 36.9233H34.0524L32.225 35.37C32.3082 35.0303 32.5622 34.8648 32.7924 34.7147C32.8991 34.6451 33.0006 34.5789 33.0778 34.5002C33.6539 34.1818 34.1697 33.761 34.6006 33.2575C34.7224 32.5741 34.9052 31.8906 35.0879 31.2072C35.2707 30.5237 35.4534 29.8403 35.5752 29.1568C35.5752 29.08 35.5287 29.0507 35.4644 29.0101C35.4246 28.9851 35.3781 28.9557 35.3316 28.9083C34.2487 29.1573 33.1251 29.1573 32.0423 28.9083C31.7986 28.9083 31.7986 29.1568 31.7986 29.2811C31.6589 29.6381 31.5767 30.0157 31.5549 30.3995C31.6424 30.4441 31.7455 30.4726 31.8531 30.5025L31.8531 30.5025C32.0453 30.5557 32.2515 30.6129 32.4077 30.7722C32.1705 31.359 31.7395 31.8426 31.1895 32.1392C31.2185 32.538 31.5294 32.8551 31.9204 32.8847C31.8392 33.0504 31.758 33.1057 31.6768 33.1609C31.6362 33.1885 31.5956 33.2161 31.5549 33.2575C31.2485 33.2057 30.9355 33.297 30.7022 33.5061C31.1457 33.7506 31.4907 34.1465 31.6768 34.6244C31.4763 34.6782 31.2729 34.7197 31.0676 34.7487C30.9114 34.908 30.7052 34.9652 30.513 35.0185C30.4054 35.0483 30.3023 35.0769 30.2148 35.1215C30.0488 35.3473 29.9331 35.6244 29.8105 35.9178C29.6632 36.2703 29.5062 36.6464 29.2402 36.9855L29.1184 36.8612C28.492 36.4136 27.9195 35.8922 27.4128 35.3079C27.4128 35.1346 27.5905 35.0217 27.7394 34.9272C27.804 34.8861 27.8633 34.8485 27.9001 34.8108C28.0081 34.7007 28.1479 34.6069 28.2944 34.5085C28.6442 34.2738 29.0326 34.0131 29.1184 33.4439C29.1892 32.9746 29.0132 32.5473 28.8295 32.101C28.6969 31.7791 28.5603 31.4474 28.5093 31.0829C28.3098 30.5267 28.2269 29.9341 28.2656 29.3432L26.3164 28.3491L26.1946 28.4734V29.4675C26.7607 29.4721 27.3043 29.694 27.7174 30.0888C27.2275 30.3944 26.8768 30.8861 26.7428 31.4557C26.8521 31.623 27.0105 31.6652 27.163 31.7057C27.3502 31.7556 27.5284 31.803 27.5956 32.077C27.8135 32.2993 27.6849 32.3891 27.5197 32.5043C27.4079 32.5824 27.2793 32.6721 27.2301 32.8226C27.1975 32.8559 27.1648 32.8803 27.1345 32.9029L27.1345 32.9029C27.0517 32.9647 26.9864 33.0135 26.9864 33.1954C26.9864 33.2987 27.0706 33.3805 27.1603 33.4677C27.2863 33.5902 27.4231 33.7231 27.3519 33.941C27.0987 34.261 26.8129 34.5526 26.4991 34.8108C26.56 34.9972 26.6819 35.1215 26.7885 35.2302C26.8951 35.339 26.9864 35.4322 26.9864 35.5564C26.6813 35.738 26.461 36.0171 26.2459 36.2896C25.9459 36.6698 25.6558 37.0373 25.159 37.1097C24.8408 38.033 24.6362 38.9931 24.5499 39.9678C24.444 40.2292 24.214 40.4169 23.9408 40.4649H21.6261L21.5042 40.3406C21.735 39.827 22.1248 39.3871 22.5167 38.9447C23.2627 38.1028 24.0166 37.252 23.6971 35.8671C23.489 33.6024 22.8462 31.504 22.1963 29.3825C21.705 27.7789 21.2098 26.1621 20.8951 24.4503V23.829C20.802 23.5065 20.7609 23.1708 20.7733 22.8349C20.7733 22.1522 20.904 21.7028 20.974 21.4625C20.9995 21.3747 21.0169 21.3148 21.0169 21.2816C21.0169 21.1573 21.0169 20.9088 21.2606 21.033C21.5372 21.6367 22.1301 22.0238 22.7834 22.0271C23.0398 21.153 23.4085 20.3173 23.8799 19.5419C24.1896 19.4629 24.7453 19.7353 25.1718 19.9443C25.4164 20.0641 25.6185 20.1632 25.7073 20.1632C25.9509 20.1632 26.0727 19.7904 26.1946 19.4176C26.2739 19.2204 26.3152 19.0094 26.3164 18.7963C26.3773 18.7549 26.5059 18.7687 26.6774 18.7871C27.0203 18.8239 27.5347 18.8791 28.022 18.5477C28.374 18.3888 28.7022 18.1796 28.9966 17.9264C29.0571 17.9264 29.0875 17.9264 29.1029 17.9417C29.1184 17.9571 29.1184 17.9881 29.1184 18.0507C29.1768 18.3378 29.2175 18.6283 29.2402 18.9205C29.2323 19.2662 29.1491 19.6058 28.9966 19.9147C28.9441 20.1192 28.9035 20.3266 28.8748 20.536C29.2698 20.2871 29.6374 19.9954 29.9712 19.6661C30.3574 19.354 30.6872 18.9756 30.9458 18.5477C31.1895 18.5477 31.1895 19.0448 31.1895 19.1691C31.299 19.8011 31.2139 20.4523 30.9458 21.033V21.2816C31.4408 21.2816 31.8536 20.6537 32.2321 20.0781C32.5057 19.6621 32.7613 19.2734 33.0169 19.1691C33.0487 19.779 33.2153 20.3737 33.5042 20.9088C33.7179 20.4852 34.0071 20.1059 34.357 19.7904C34.3874 19.7593 34.4179 19.7205 34.4483 19.6817C34.5397 19.5652 34.6311 19.4487 34.7224 19.5419C34.7224 20.1632 34.8443 20.9088 35.3316 20.9088C35.6735 20.9088 35.7755 20.6641 35.8901 20.3894C35.9388 20.2725 35.9898 20.1502 36.0625 20.0389C36.2406 19.8437 36.4458 19.6762 36.6717 19.5419C36.6717 20.2874 36.9153 21.1573 37.5245 21.2816C37.6492 21.2816 37.6143 21.1513 37.5669 20.9742C37.5216 20.8053 37.465 20.5937 37.5245 20.4117C37.4489 20.0062 37.6484 19.5992 38.0118 19.4176C38.2107 20.0072 38.5449 20.5397 38.9864 20.9709C39.1082 20.9709 39.1082 20.8466 39.1082 20.7224C39.1082 20.6295 39.1048 20.5348 39.1015 20.4399C39.0845 19.9636 39.0674 19.4799 39.4737 19.1691C39.6212 19.1691 39.6348 19.2602 39.6495 19.3597C39.6591 19.4245 39.6693 19.4928 39.7173 19.5419C39.8827 19.8626 40.2153 20.0564 40.5701 20.0389C40.692 20.0389 40.8138 19.7904 40.8138 19.7904C40.7558 19.4653 40.6428 19.2105 40.5401 18.9792C40.427 18.7242 40.3265 18.4977 40.3265 18.2371C40.1756 17.525 40.5302 16.8015 41.1793 16.4974C41.6316 16.1556 42.2498 16.1556 42.7021 16.4974C42.9792 16.7561 43.1527 17.1102 43.1894 17.4915C43.2279 17.7928 43.0833 18.0877 42.8239 18.2371C42.5828 18.3811 42.2753 18.3288 42.093 18.1128C42.008 18.1128 41.8639 17.9316 41.7431 17.7797C41.6906 17.7138 41.6425 17.6534 41.6057 17.6158C41.5381 18.0273 41.675 18.4462 41.9711 18.7341C42.4584 19.2312 42.9458 19.1069 43.0676 18.8584C43.9557 18.1996 44.1482 17.5407 44.4253 16.5925L44.4253 16.5925C44.5663 16.11 44.7292 15.5525 45.0168 14.882C45.4764 13.1675 46.9354 11.9273 48.6716 11.7753C49.9254 11.7309 51.0993 12.4015 51.7173 13.515C52.3289 14.7671 52.3289 16.2394 51.7173 17.4915C51.7173 17.74 51.3518 18.1128 51.1082 18.2371C50.9193 18.3334 50.95 18.5044 50.9734 18.6344C50.9802 18.672 50.9863 18.7062 50.9863 18.7341C51.1259 18.8765 51.23 18.9645 51.3188 19.0397C51.4626 19.1613 51.5667 19.2493 51.7173 19.4797C52.8572 21.0569 53.7226 22.8224 54.2757 24.6988C54.3524 24.8553 54.3929 25.0119 54.4313 25.1606C54.5151 25.4843 54.5893 25.7712 55.0066 25.9415C55.3112 26.0657 55.6157 26.2211 55.9203 26.3764C56.2249 26.5317 56.5294 26.6871 56.834 26.8113C56.8894 26.9243 56.8189 27.0373 56.7484 27.1502C56.6639 27.2858 56.5793 27.4213 56.7122 27.5569C57.0125 27.7143 57.3577 27.7583 57.6868 27.6812C57.7658 28.1648 57.4348 28.4392 57.1925 28.6402C57.0611 28.7491 56.9558 28.8365 56.9558 28.9238C57.2353 29.023 57.52 29.106 57.8086 29.1723C57.9584 29.2927 58.0478 29.475 58.0523 29.6694C57.8086 29.6694 57.4431 29.7937 57.4431 30.1665C57.7392 30.3176 57.96 30.5878 58.0523 30.912C58.1045 31.1786 57.955 31.2851 57.7961 31.3982C57.5845 31.5488 57.3563 31.7113 57.565 32.279C57.6346 32.421 57.6843 32.5833 57.734 32.7456C57.8584 33.1513 57.9827 33.5571 58.4178 33.6459ZM50.6208 14.7732C50.9089 15.4786 50.7981 16.2879 50.3315 16.8857C49.9117 17.4651 49.1807 17.7136 48.5041 17.507C48.1142 17.3483 47.7457 17.1396 47.4077 16.8857C46.9597 17.6284 46.4053 18.2985 45.763 18.8739C45.255 19.2472 44.6727 19.5017 44.0574 19.6195V19.371C45.0413 18.0733 45.86 16.6537 46.494 15.146C46.7739 14.1909 47.5923 13.5034 48.565 13.4063C49.4452 13.4519 50.2346 13.973 50.6361 14.7732H50.6208ZM24.824 10.9366C25.1604 10.9366 25.4331 10.6584 25.4331 10.3152C25.442 10.1478 25.3807 9.98448 25.2645 9.86594C25.1483 9.74739 24.9881 9.68485 24.824 9.69392C24.4876 9.69392 24.2149 9.97209 24.2149 10.3152C24.2149 10.6584 24.4876 10.9366 24.824 10.9366Z" fill="#231F20"/>
</svg>
