<svg id="Layer_1" data-name="Layer 1" xmlns="http://www.w3.org/2000/svg" viewBox="0 0 50.4 50.4"><title>Eni</title><polygon points="0 0 50.4 0 50.4 50.4 0 50.4 0 0 0 0" fill="#ffe512" fill-rule="evenodd"/><polygon points="35.43 34.47 38.79 34.47 38.79 31.2 35.43 31.2 35.43 34.47 35.43 34.47" fill="#231f20" fill-rule="evenodd"/><polygon points="37.35 46.46 38.79 46.46 38.79 35.19 37.35 35.19 37.35 46.46 37.35 46.46" fill="#231f20" fill-rule="evenodd"/><polygon points="5.62 28.64 44.78 28.64 44.78 28.24 5.62 28.24 5.62 28.64 5.62 28.64" fill="#e31837" fill-rule="evenodd"/><polygon points="35.43 46.46 36.87 46.46 36.87 35.19 35.43 35.19 35.43 46.46 35.43 46.46" fill="#231f20" fill-rule="evenodd"/><path d="M34.07,46.46V37.83a3,3,0,0,0-3.2-3A4.09,4.09,0,0,0,27.76,36v-.8H26.32v3a4.07,4.07,0,0,1,3.6-2.08,2.52,2.52,0,0,1,2.72,2.4v7.91Z" fill="#231f20" fill-rule="evenodd"/><path d="M32.15,46.46V38.55c0-1.36-1.12-1.92-2.24-1.92a3.41,3.41,0,0,0-3.6,3.68v6.16h1.44V39.27a1.49,1.49,0,0,1,1.6-1.52c1,0,1.28.56,1.28,1.2v7.51Z" fill="#231f20" fill-rule="evenodd"/><polygon points="24.4 46.46 25.92 46.46 25.92 35.19 24.4 35.19 24.4 46.46 24.4 46.46" fill="#231f20" fill-rule="evenodd"/><polygon points="23.28 34.07 23.28 32.87 13.77 32.87 13.77 38.39 22.8 38.39 22.8 37.11 15.53 37.11 15.53 34.07 23.28 34.07 23.28 34.07" fill="#231f20" fill-rule="evenodd"/><polygon points="23.52 46.46 23.52 45.1 13.29 45.1 13.29 32.39 23.28 32.39 23.28 31.2 11.69 31.2 11.69 46.46 23.52 46.46 23.52 46.46" fill="#231f20" fill-rule="evenodd"/><polygon points="23.52 44.62 23.52 43.26 15.45 43.26 15.45 40.07 22.8 40.07 22.8 38.87 13.77 38.87 13.77 44.62 23.52 44.62 23.52 44.62" fill="#231f20" fill-rule="evenodd"/><path d="M29,6.9c0-.16-.16-.4-.32-.4-.8-.48-1.6.08-2.4.08-.32,0-.64.08-.8-.08,0-.16.08-.16.08-.32-.16,0-.4-.08-.64-.08a2.15,2.15,0,0,1-.8-.16,4.26,4.26,0,0,0-3.44-.08,3.36,3.36,0,0,1-1.2.32c-.24,0,.32.4.24.64a3.44,3.44,0,0,0-1.84.8V7.7a2.18,2.18,0,0,0,1.6.56A3.83,3.83,0,0,0,21,8.81c1.36.24,2.16-.48,3.12-.08a.72.72,0,0,1-.08-.4A3.92,3.92,0,0,0,27,8.17c.8-.24,1.2-1.36,2.08-1.28Z" fill="#e31837" fill-rule="evenodd"/><path d="M38.87,21.76a3,3,0,0,0-.56-.48c-.4-.08-.4-.56-.56-.88-.24-.64.4-.48.32-.88a.78.78,0,0,0-.4-.48c0-.24.24-.32.4-.32a.42.42,0,0,0-.16-.32,5.14,5.14,0,0,1-.56-.16c0-.16.56-.32.48-.8a.94.94,0,0,1-.64-.08c-.16-.16.16-.32.08-.48-.4-.16-.8-.4-1.2-.56s-.32-.48-.48-.8a11,11,0,0,0-1.68-3.36c-.16-.24-.24-.24-.48-.48,0-.08-.08-.24.08-.32s.4-.32.4-.48a2.87,2.87,0,0,0,0-2.56,2.21,2.21,0,0,0-2-1.12,2.73,2.73,0,0,0-2.4,2c-.56,1.28-.4,1.92-1.28,2.56-.08.16-.4.24-.72-.08a.81.81,0,0,1-.24-.72c.08.08.24.32.32.32a.38.38,0,0,0,.48.08.48.48,0,0,0,.24-.48,1,1,0,0,0-.32-.64.84.84,0,0,0-1,0,1,1,0,0,0-.56,1.12c0,.32.24.56.32,1,0,0-.08.16-.16.16a.6.6,0,0,1-.56-.32c-.08-.08,0-.24-.16-.24-.32.24-.24.64-.24,1,0,.08,0,.16-.08.16a2.52,2.52,0,0,1-.64-1,.59.59,0,0,0-.32.64c-.08.24.16.56,0,.56-.4-.08-.56-.64-.56-1.12a1.75,1.75,0,0,0-.4.32c-.16.24-.16.56-.48.56s-.4-.48-.4-.88c-.08-.08-.16.08-.24.16a2.47,2.47,0,0,0-.56.72,2.61,2.61,0,0,1-.32-1.12h0c-.4.16-.8,1.36-1.36,1.36v-.16a2,2,0,0,0,.16-1.2c0-.08,0-.4-.16-.4a2.78,2.78,0,0,1-.64.72,4.24,4.24,0,0,1-.72.56,3.49,3.49,0,0,1,.08-.4,1.5,1.5,0,0,0,.16-.64,4.52,4.52,0,0,0-.08-.56c0-.08,0-.08-.08-.08a2.67,2.67,0,0,1-.64.4c-.48.32-1,.08-1.12.16a1.07,1.07,0,0,1-.08.4c-.08.24-.16.48-.32.48s-.88-.48-1.2-.4a6.66,6.66,0,0,0-.72,1.6,1.11,1.11,0,0,1-1-.64c-.16-.08-.16.08-.16.16s-.16.4-.16,1a2,2,0,0,0,.08.64v.4c.48,2.56,1.6,4.79,1.84,7.35.32,1.36-1,1.92-1.44,2.88l.08.08h1.52a.53.53,0,0,0,.4-.32,7.61,7.61,0,0,1,.4-1.84c.56-.08.72-.72,1.2-1,0-.16-.24-.24-.32-.48a3.73,3.73,0,0,0,.56-.56c.08-.24-.24-.32-.24-.48s.08-.16.16-.24c.08-.24.48-.24.24-.48-.08-.32-.4-.16-.56-.4a1.42,1.42,0,0,1,.64-.88,1.48,1.48,0,0,0-1-.4v-.64l.08-.08,1.28.64a2.73,2.73,0,0,0,.16,1.12c.08.56.48,1,.4,1.52s-.56.64-.8.88c-.08.08-.32.16-.32.32a6.39,6.39,0,0,0,1.12,1l.08.08c.32-.4.4-.88.64-1.2.16-.08.4-.08.56-.24a3.42,3.42,0,0,0,.4-.08,1.41,1.41,0,0,0-.64-.72.68.68,0,0,1,.56-.16c.08-.08.16-.08.24-.24a.52.52,0,0,1-.48-.48,1.75,1.75,0,0,0,.8-.88c-.16-.16-.4-.16-.56-.24a2.3,2.3,0,0,1,.16-.72c0-.08,0-.24.16-.24a4.91,4.91,0,0,0,2.16,0c.08.08.16.08.16.16-.16.88-.48,1.76-.64,2.64a3.61,3.61,0,0,1-1,.8c-.16.16-.48.24-.56.56l1.2,1h.16c.24-.32.4-.64.64-1,0-.16,0-.4.08-.48a2.86,2.86,0,0,0,.88-.16c0-.24-.24-.4-.4-.64.24-.08.56,0,.8-.16.08,0,.24-.16.24-.4h-.24s-.16,0-.08-.08a2,2,0,0,0,1.12-.48c-.08,0-.16-.08-.24-.16a.3.3,0,0,1,.24-.08A.92.92,0,0,0,26,19c-.24,0-.56-.08-.64-.24a.84.84,0,0,1,.72-.4,8,8,0,0,0,1.44,2.32v.24L26.24,22.4c0,.08-.08.24.08.24l1.76-.08c.08,0,.24-.08.24-.16.08-.48.08-1,.16-1.52.24-.16.4-.64.8-.64,0-.16-.24-.24-.4-.32,0-.32.24-.48.4-.64-.16-.08-.4.16-.56,0,.16-.08.24-.16.4-.48v-.08c-.24.08-.32,0-.48,0a.53.53,0,0,1-.32-.4,3.11,3.11,0,0,1,.64-.8c.08,0,.16-.16.24,0a2.85,2.85,0,0,0,.32.72.59.59,0,0,0,.16.48,5.11,5.11,0,0,1,1.2,1.12c.08.24.4.48.32.88l-1,1.6-.08.16c.08,0,.08.08.16.08l1.68-.4.16-.08L32,20.88c.16-.24.4-.32.64-.56-.08-.08-.16-.08-.24-.16,0-.24.24-.24.32-.4s-.4-.16-.4-.4a.92.92,0,0,0,.48-.72c-.08-.08-.24.08-.32.08s-.08-.16-.16-.08a1.31,1.31,0,0,0-.8-.16,2.37,2.37,0,0,1-.16-.8h.08a20.63,20.63,0,0,0,3.84.88l.24.16a30.35,30.35,0,0,0,1.6,2.72.81.81,0,0,1,.32.56,10.4,10.4,0,0,1-1.2,1.44l-.08.24c.08.08.16.08.24.16l1.6-.32.16-.08a6,6,0,0,0,.08-1.2c.16-.24.48-.24.64-.48ZM19.52,5.62,19.21,4.1c0-.08-.16-.24-.24-.16-1.2.4-2.08.8-3.28,1.2-.08.08-.16.08-.32,0L13.53,3.86c.08.8.16,1.52.24,2,.08.08,0,.08-.08.08-.32,0-.64.32-.88.64a3,3,0,0,1-1.12,1.28.72.72,0,0,0,.48.48,1,1,0,0,1,.48.08c0,.08,0,.08-.08.16-.4.8.24,1.84-.56,2.4a1.06,1.06,0,0,0,1.12-.32h0a3.37,3.37,0,0,0-.24,1.76,1.48,1.48,0,0,1-.16.56c.8-.08,1.36-1,1.6-1.84v.08c-.08.32-.32,1,0,1.44.08.08.16.24.32.24a2.83,2.83,0,0,1,.8-1.44,6.62,6.62,0,0,1,1.2.32c.24-.48-.16-1.28-.16-1.28h0L17,11a1.35,1.35,0,0,0,1.12.08c.16-.16.32-.24.32-.4-1,.08-1.12-1.28-1.6-1.92h.08c.24.16.4.48.64.64L19,9.69l.16-.16c0-.24.16-.56.08-.8s-.24.16-.4.16c-.32-.16-.56-.16-1-.32l-.72-1.36V7.14l1-.56c.08.08.16.24.24.32.24-.08.16-.4.24-.56.16,0,.16.16.24.32.24,0,.16-.4.32-.56s.48-.16.4-.48ZM33.19,9.13A1.35,1.35,0,0,1,33,10.49a1.1,1.1,0,0,1-1.2.4,3.24,3.24,0,0,1-.72-.4A5.63,5.63,0,0,1,30,11.77a2.8,2.8,0,0,1-1.12.48v-.16a12.5,12.5,0,0,0,1.6-2.72,1.58,1.58,0,0,1,1.36-1.12,1.62,1.62,0,0,1,1.36.88ZM16.65,6.26a.4.4,0,1,1-.4-.4.38.38,0,0,1,.4.4Z" fill="#231f20" fill-rule="evenodd"/></svg>