<svg width="429" height="89" viewBox="0 0 429 89" fill="none" xmlns="http://www.w3.org/2000/svg">
<path d="M332.565 0.00292969C332.565 2.02875 332.565 4.05747 332.565 6.38513C322.927 6.38513 313.335 6.38513 303.545 6.38513C303.499 10.8286 303.38 14.9615 303.272 19.4891C311.434 19.4891 319.374 19.4891 327.504 19.4891C327.504 21.8197 327.504 23.77 327.504 25.9584C319.479 25.9584 311.634 25.9584 303.533 25.9584C303.533 30.872 303.533 35.5563 303.533 40.5541C313.056 40.5541 322.634 40.5541 332.383 40.5541C332.47 42.7657 332.56 44.5158 332.557 47.0176C320.573 47.0176 307.823 47.0176 295.831 47.0176C295.897 44.449 295.848 44.2023 295.842 42.7628C295.805 29.9839 295.868 17.9451 295.842 5.16906C295.839 3.69178 295.842 1.73271 295.842 0.00292969C308.087 0.00292969 320.326 0.00292969 332.565 0.00292969Z" fill="white"/>
<path d="M54.3166 0.00292969C53.7419 2.40895 52.9554 4.04296 52.2588 6.38803C43.7202 6.38803 35.2048 6.38803 26.4689 6.38803C26.4689 11.9315 26.4689 17.1382 26.4689 22.5917C32.6769 22.5917 38.7602 22.5917 45.2207 22.5917C44.263 25.1834 43.4997 26.8436 42.568 29.2177C37.3583 29.2177 32.0848 29.2177 26.376 29.2177C26.376 35.1906 26.376 40.9488 26.376 47.331C23.7204 47.331 21.474 47.331 19.2305 47.331C19.2305 31.5569 19.2305 15.7799 19.2305 0.00583152C30.9268 0.0029292 42.6232 0.00292969 54.3166 0.00292969Z" fill="white"/>
<path d="M237.912 0.00292969C238.092 13.6583 238.017 26.7478 238.179 40.5164C246.762 40.5164 255.701 40.5425 264.083 40.5425C264.083 43.439 264.083 43.9789 264.007 46.9799C253.164 46.9799 241.918 47.2149 231.106 47.2149C231.121 45.1427 231.121 45.7899 231.121 45.1427C231.106 30.2364 231.069 14.8077 230.799 0.00583152C230.802 0.0029292 235.736 0.00292969 237.912 0.00292969Z" fill="white"/>
<path d="M185.899 22.5249C186.256 22.2811 186.549 22.0257 186.886 21.8574C191.283 19.6661 193.228 15.9512 192.862 11.2349C192.473 6.19938 189.765 2.70209 184.855 1.01874C184.332 0.838797 183.682 0.687876 183.009 0.476007C181.903 0.127729 180.933 0.00292969 179.775 0.00292969H158.76V47.1888C166.997 47.1888 174.723 47.2585 182.448 47.1511C185.162 47.1134 187.786 46.3646 190.247 45.1108C194.743 42.8237 196.621 39.0943 196.513 34.169C196.446 27.3166 191.962 24.3098 185.899 22.5249ZM166.294 6.64634C170.743 6.64634 175.297 6.37642 179.799 6.73341C183.27 7.00913 185.252 9.82147 185.182 13.2259C185.116 16.6535 182.907 19.1669 178.983 19.4572C174.842 19.7648 170.659 19.5268 166.294 19.5268C166.294 15.3098 166.294 11.1652 166.294 6.64634ZM188.842 34.198C188.607 37.6489 186.163 40.3219 182.109 40.5773C176.983 40.8995 171.82 40.6557 166.242 40.6557C166.242 35.8901 166.242 31.316 166.242 26.2167C168.976 26.3705 171.722 26.2225 174.473 26.1964C179.45 26.1412 184.701 26.4721 187.258 29.3947C188.41 30.6688 188.97 32.3057 188.842 34.198Z" fill="white"/>
<path d="M410.294 17.7796C408.503 8.28902 400.989 0 392.131 0H391.168C383.009 0 375.812 0 367.65 0C367.65 15.6609 367.65 31.3218 367.65 47.2439C374.419 47.2439 380.763 47.2701 387.108 47.2381C397.541 47.1859 408.109 41.6773 410.291 29.7575C411.397 24.0515 410.361 18.1366 410.294 17.7796ZM390.828 40.3393C390.039 40.5135 389.226 40.6673 388.422 40.6731C384.104 40.705 379.785 40.6876 375.223 40.6876C375.223 29.3773 375.223 18.1946 375.223 6.60277C380.116 6.60277 384.858 6.30674 389.545 6.66953C396.935 7.24419 402.203 12.776 403.262 20.917C404.312 28.9593 401.378 37.9972 390.828 40.3393Z" fill="white"/>
<path d="M113.422 14.7612C111.593 9.87661 109.707 5.01233 108.169 0.00292969C104.904 0.00292969 101.641 0.00292969 98.3763 0.00292969C97.5317 2.13904 79.6621 47.0669 79.6621 47.0669C82.2568 47.0669 84.5061 47.0669 86.8773 47.0669C87.3213 46.1701 89.6055 40.7457 91.4629 36.9465C99.2295 36.9465 106.915 36.9465 114.539 36.9465C116.237 40.38 117.34 43.8047 118.933 47.0553C121.302 47.0553 123.542 47.0553 126.021 47.0553C122.198 36.0904 117.366 25.6652 113.422 14.7612ZM93.4684 31.0258C96.6697 23.326 99.781 15.8438 103.255 7.4822C106.509 15.6871 109.486 23.1954 112.592 31.0258C106.07 31.0258 100.028 31.0258 93.4684 31.0258Z" fill="white"/>
<rect y="75" width="117" height="1" fill="#C4C4C4"/>
<rect x="312" y="75" width="117" height="1" fill="#C4C4C4"/>
<path d="M128.053 74.4533C129.995 71.2259 131.565 70.1404 133.564 70.1404C135.477 70.1404 136.879 71.3681 136.879 73.5681C136.879 78.0812 132.165 83.0499 127.739 83.0499C126.111 83.0499 124.027 82.394 124.027 81.5378V81.3666L128.082 66.4284C128.253 65.7434 128.34 65.3429 128.34 65.0875C128.34 64.4577 128.198 64.4287 126.512 64.3735V63.8888C128.424 63.6595 129.455 63.4883 130.883 63.2329L131.025 63.3751L130.424 65.7173L128.024 74.4562H128.053V74.4533ZM132.453 71.5393C131.083 71.5393 129.768 72.738 128.54 74.8248C127.284 76.9377 126.486 79.7094 126.486 81.4217C126.486 82.0806 126.915 82.394 127.8 82.394C129.028 82.394 130.256 81.7932 131.312 80.7078C133.025 78.9374 134.455 76.1105 134.455 73.9947C134.452 72.2533 133.709 71.5393 132.453 71.5393Z" fill="white"/>
<path d="M145.133 80.5652C147.56 76.5368 148.619 74.4819 148.619 73.2252C148.619 72.8247 148.419 72.6535 147.876 72.311C147.304 71.9395 147.133 71.6551 147.133 71.1965C147.133 70.5696 147.618 70.1401 148.277 70.1401C149.133 70.1401 149.76 70.8541 149.76 71.7102C149.76 73.3384 148.39 76.4787 146.019 80.423C143.047 85.3366 139.993 88.6191 138.365 88.6191C137.509 88.6191 136.908 88.1345 136.908 87.3915C136.908 86.7617 137.393 86.2479 138.023 86.2479C139.021 86.2479 139.021 87.0461 139.764 87.0461C140.136 87.0461 140.478 86.8168 141.137 86.1028C141.651 85.5601 142.936 83.8739 143.166 83.5024C143.337 83.1599 143.45 82.8174 143.45 82.5011C143.45 81.3604 141.88 74.9608 141.108 73.0192C140.565 71.6203 140.051 71.1907 138.908 71.1907C138.594 71.1907 138.336 71.2197 138.023 71.3039V70.8192C138.336 70.7612 138.65 70.706 138.937 70.648C139.509 70.5348 140.452 70.3636 141.993 70.1343H142.106C142.536 70.1343 144.048 74.8767 144.535 77.4162L145.133 80.5652Z" fill="white"/>
<path d="M188.488 81.0995L187.272 76.9202L186.761 74.6679C186.836 74.6476 186.775 74.4967 186.773 74.4764C186.34 70.9065 183.586 71.31 181.798 71.9224C181.798 71.9224 181.702 72.0123 181.705 71.8933C181.711 71.7482 181.714 70.3029 181.714 69.911C181.714 69.8182 181.795 69.7921 181.795 69.7921C184.03 68.8111 187.263 68.8952 189.254 69.8907C190.749 70.6395 191.617 71.7743 192.438 75.1788C192.664 76.1191 192.923 77.4164 193.642 80.2288C193.988 81.5813 194.353 82.0834 195.096 81.9412C195.189 81.9237 195.192 81.9731 195.192 82.0514C195.189 82.6929 195.189 83.7638 195.189 83.8393C195.189 84.0628 195.189 84.0627 195.114 84.0598C195.018 84.0569 193.059 84.0628 193.059 84.0628C192.165 84.0569 191.077 84.0569 189.66 82.8206L188.488 81.0995Z" fill="white"/>
<path d="M188.489 81.0995C188.523 81.2011 188.378 81.2998 188.283 81.3433C185.192 83.1021 184.071 77.8953 187.078 76.8911C187.2 76.8563 187.272 76.9202 187.272 76.9202L186.762 74.668C185.154 75.0221 182.626 75.7476 181.532 76.7838C179.082 79.0969 180.139 82.8206 182.826 83.7842C184.327 84.3211 187.432 84.7477 189.655 82.8235L188.489 81.0995Z" fill="white"/>
<path d="M209.491 68.8168C211.195 68.8168 212.577 67.7023 212.577 66.3266C212.577 64.9509 211.195 63.8364 209.491 63.8364C207.785 63.8364 206.406 64.9509 206.406 66.3266C206.406 67.7023 207.785 68.8168 209.491 68.8168Z" fill="white"/>
<path d="M220.268 78.4702C220.372 78.4121 228.641 76.1193 228.641 76.1193C228.795 76.0322 228.798 75.7855 228.783 75.623C228.449 71.7455 225.698 69.1073 222.102 68.9883C217.537 68.8403 214.489 71.4901 214.219 76.3921C214.048 79.4715 216.027 82.2925 218.201 83.3635C220.787 84.6376 224.116 84.417 226.653 83.4883C227.155 83.3083 227.129 83.2068 227.129 82.9223V81.1635C227.129 81.0213 227.187 80.7804 226.812 80.9836C226.432 81.1809 225.358 81.683 224.398 81.7353C222.543 81.8398 221.156 81.4886 220.187 78.8881C220.033 78.4789 220.163 78.5253 220.268 78.4702ZM219.652 76.2093C219.597 75.1528 219.679 73.5711 220.088 72.7004C220.787 71.2086 222.143 71.2463 222.886 72.2505C223.277 72.7845 223.614 73.7017 223.692 75.0454C223.724 75.5708 223.35 75.565 223.254 75.5882C222.619 75.7797 220.024 76.4792 220.024 76.4792C219.725 76.5546 219.673 76.5372 219.652 76.2093Z" fill="white"/>
<path d="M178.705 82.9308C178.702 83.6012 178.859 83.8595 178.911 83.9698C178.955 84.0714 178.821 84.0569 178.821 84.0569H177.779H173.434C173.434 84.0569 173.33 84.0627 173.362 83.9698C173.426 83.7899 173.556 83.4619 173.556 82.9308L173.55 82.2342V75.614V74.3689C173.548 73.9017 173.257 72.8946 172.125 72.8917C171.185 72.9004 170.311 73.7537 170.309 74.9349V77.4048L170.306 82.3358C170.306 82.3358 170.309 82.9047 170.309 82.9279C170.306 83.5983 170.462 83.8566 170.515 83.9669C170.558 84.0685 170.425 84.054 170.425 84.054H169.386H165.038C165.038 84.054 164.933 84.0598 164.965 83.9669C165.029 83.787 165.157 83.459 165.16 82.9279V82.5564V75.6198V74.3747C165.157 73.9046 164.867 72.9004 163.732 72.8946C162.794 72.9033 161.918 73.7566 161.918 74.9378V75.5763V82.5303L161.912 82.9279C161.912 83.5983 162.069 83.8566 162.118 83.9669C162.162 84.0685 162.031 84.054 162.031 84.054H160.989H156.644C156.644 84.054 156.537 84.0598 156.569 83.9669C156.636 83.787 156.761 83.459 156.766 82.9279V82.4606C156.766 80.7308 156.763 73.1326 156.761 72.4331C156.766 71.9774 156.621 71.6495 156.552 71.4724C156.511 71.3796 156.601 71.3389 156.601 71.3389C156.601 71.3389 158.583 70.4508 161.828 68.9503C161.863 68.9358 161.918 68.9561 161.915 69.0142V70.3202V71.4434C161.915 71.5044 161.982 71.5392 162.031 71.484C162.06 71.455 162.092 71.4115 162.139 71.3621C163.918 68.6485 169.461 68.2073 170.332 71.4579C170.349 71.5131 170.41 71.5073 170.445 71.4579C171.542 69.9864 172.642 69.2464 174.906 69.2464C179.329 69.2464 178.693 73.0194 178.69 75.3412L178.693 82.2313L178.705 82.9308Z" fill="white"/>
<path d="M201.763 82.9397C201.76 83.6072 201.917 83.8684 201.966 83.9787C202.013 84.0803 201.879 84.0658 201.879 84.0658H200.562H196.217C196.217 84.0658 196.109 84.0687 196.141 83.9787C196.205 83.7959 196.333 83.4708 196.336 82.9397L196.339 82.5392C196.339 80.8152 196.336 73.452 196.336 72.7525C196.336 72.3636 196.075 71.6352 196.022 71.5045C195.988 71.4349 196.098 71.4059 196.098 71.4059C196.098 71.4059 198.443 70.2072 201.676 68.7125C201.711 68.698 201.763 68.7183 201.763 68.7764V70.2304C201.763 70.4249 201.784 71.0344 201.784 71.1156C201.784 71.1795 201.85 71.2143 201.897 71.1592C201.926 71.1272 201.961 71.0866 202.001 71.0344C203.209 68.6661 205.124 68.7415 206.581 68.9592C206.767 68.9882 206.744 69.0492 206.691 69.293C206.596 69.7603 205.954 72.4101 205.896 72.6045C205.853 72.77 205.806 72.8425 205.609 72.799C203.777 72.4159 201.757 73.0108 201.757 75.2921V75.62C201.757 77.2831 201.757 81.3521 201.76 82.5392L201.763 82.9397Z" fill="white"/>
<path d="M212.377 82.9394C212.374 83.6069 212.53 83.8681 212.58 83.9784C212.626 84.08 212.493 84.0655 212.493 84.0655H211.166H206.822C206.822 84.0655 206.714 84.0713 206.743 83.9784C206.81 83.7955 206.938 83.4705 206.941 82.9394L206.944 82.861V71.5652C206.944 71.2866 206.944 71.2837 207.141 71.1937C207.245 71.1472 207.208 71.1618 207.208 71.1618C207.208 71.1618 209.08 70.2359 212.203 68.7644C212.237 68.747 212.368 68.7702 212.365 68.8283C212.365 69.2753 212.371 81.6827 212.374 82.8813V82.9394H212.377Z" fill="white"/>
<path d="M245.259 81.4941C243.959 82.1559 242.018 82.3706 240.857 80.8992C239.704 79.4306 239.136 78.1478 239.138 76.0436C239.141 71.2635 242.459 70.6366 244.978 72.0413V69.583C243.556 68.8603 241.681 68.7355 240.273 68.8836C236.074 69.3334 233.624 72.851 233.621 76.8533C233.618 81.2155 236.404 86.4368 245.262 84.0104V81.4941H245.259Z" fill="white"/>
<path d="M252.219 82.3878C252.219 82.3878 252.199 63.4212 252.207 63.517C252.207 63.517 248.292 65.3251 246.246 66.3032C246.449 66.4715 246.879 67.2 246.879 69.606V75.6951C246.882 77.4365 246.879 80.7742 246.853 83.4153C246.85 83.7055 246.667 84.1089 246.667 84.1379H252.582C252.524 84.135 252.219 82.3878 252.219 82.3878Z" fill="white"/>
<path d="M262.224 81.2534C262.258 81.3579 262.2 81.3927 262.105 81.442C261.431 81.8716 260.273 81.9645 259.594 81.3347C258.953 80.5771 258.619 79.7094 258.889 78.6268C259.104 77.9622 259.786 76.7983 260.926 76.5952L260.561 74.4155C260.564 74.4533 260.561 74.4504 260.447 74.4765C260.102 74.5635 259.919 74.5955 259.318 74.6971C258.056 74.906 256.631 75.3356 255.444 76.2614C252.06 78.8909 253.647 82.7626 256.396 83.8974C258.001 84.5591 260.833 84.948 263.176 82.9948L262.224 81.2534Z" fill="white"/>
<path d="M262.225 81.2533L260.969 76.6154C260.969 76.6154 260.969 76.5806 260.928 76.5951L260.562 74.4154C260.313 70.5234 257.187 70.8833 255.449 71.5305C255.449 71.5305 255.35 71.6234 255.356 71.4986C255.359 71.3477 255.364 69.8472 255.364 69.4438C255.362 69.3451 255.446 69.3219 255.446 69.3219C257.654 68.3525 261.033 68.4831 262.983 69.4612C264.692 70.3173 265.543 71.8875 265.885 73.24C265.885 73.24 267.421 80.2433 267.592 81.0008C267.731 81.6074 268.126 82.1385 268.744 82.1356C268.988 82.1356 269.023 82.182 269.026 82.4374C269.029 83.0498 269.031 83.996 269.029 84.1266C269.026 84.2862 269.014 84.3443 268.895 84.3443C268.796 84.3443 266.773 84.3472 266.773 84.3472C265.685 84.3414 264.788 84.3384 263.175 82.9947L262.225 81.2533Z" fill="white"/>
<path d="M273.141 68.6256C274.908 68.6256 276.339 67.4704 276.339 66.0396C276.339 64.6146 274.908 63.4565 273.141 63.4565C271.37 63.4565 269.939 64.6117 269.939 66.0396C269.939 67.4675 271.373 68.6256 273.141 68.6256Z" fill="white"/>
<path d="M275.927 82.9397V83.2444C275.927 83.6856 276.124 84.0165 276.171 84.1325C276.173 84.1471 276.156 84.1558 276.156 84.1558H274.65H270.035C270.035 84.1558 270.015 84.1471 270.021 84.1325C270.061 84.0252 270.264 83.6798 270.264 83.2444V82.9165C270.264 81.1199 270.267 72.294 270.267 71.194C270.267 70.9241 270.392 70.9125 270.392 70.9125C270.392 70.9125 272.461 69.8531 275.834 68.2975C275.869 68.2801 275.927 68.3004 275.924 68.3613C275.924 68.8257 275.927 81.6975 275.927 82.9397Z" fill="white"/>
<path d="M287.954 72.6883C286.622 72.668 286.288 72.5838 285.586 72.8334C284.712 73.1672 284.109 73.8637 284.091 74.926V75.5703V82.948V83.244C284.091 83.6736 284.283 83.9957 284.329 84.1118C284.335 84.1234 284.318 84.1321 284.318 84.1321H282.855H278.368C278.368 84.1321 278.351 84.1234 278.353 84.1089C278.394 84.0044 278.591 83.6678 278.591 83.244V82.9277V72.3981C278.56 72.0005 278.4 71.5187 278.351 71.391C278.316 71.3213 278.426 71.2952 278.426 71.2952C278.426 71.2952 280.725 70.23 284.001 68.7208C284.033 68.7034 284.091 68.7237 284.088 68.7847V70.1023C284.088 70.2968 284.112 70.9179 284.112 71.0021C284.112 71.063 284.178 71.0978 284.228 71.0427C284.257 71.0108 284.289 70.9701 284.332 70.9179C285.653 68.4712 287.809 68.7818 288.906 68.953C289.095 68.982 289.069 69.043 289.017 69.2897C288.918 69.7628 288.297 72.2907 288.242 72.488C288.201 72.6593 288.16 72.6941 287.954 72.6883Z" fill="white"/>
<path d="M293.998 78.7951C294.102 78.74 302.374 76.4443 302.374 76.4443C302.528 76.3572 302.528 76.1105 302.513 75.948C302.18 72.0705 299.431 69.4352 295.832 69.3162C291.27 69.1652 288.219 71.8151 287.949 76.72C287.781 79.7964 289.761 82.6204 291.934 83.6884C294.517 84.9626 297.846 84.742 300.386 83.8161C300.885 83.6333 300.862 83.5317 300.862 83.2502V81.4914C300.862 81.3492 300.92 81.1083 300.543 81.3086C300.162 81.5059 299.089 82.0109 298.128 82.0632C296.276 82.1676 294.886 81.8165 293.917 79.216C293.76 78.8068 293.896 78.8532 293.998 78.7951ZM293.386 76.5342C293.33 75.4807 293.412 73.896 293.818 73.0282C294.517 71.5335 295.873 71.5713 296.616 72.5784C297.008 73.1124 297.344 74.0266 297.423 75.3704C297.455 75.8957 297.08 75.8899 296.987 75.916C296.352 76.1047 293.754 76.8071 293.754 76.8071C293.458 76.8796 293.403 76.8651 293.386 76.5342Z" fill="white"/>
</svg>
