<svg fill="none" height="89" viewBox="0 0 431 89" width="431" xmlns="http://www.w3.org/2000/svg"><g fill="#fff"><path d="m332.565.00292969v6.38220031c-9.638 0-19.23 0-29.02 0-.046 4.44347-.165 8.57637-.273 13.10397h24.232v6.4693c-8.025 0-15.87 0-23.971 0v14.5957h28.85c.087 2.2116.177 3.9617.174 6.4635-11.984 0-24.734 0-36.726 0 .066-2.5686.017-2.8153.011-4.2548-.037-12.7789.026-24.8177 0-37.59374-.003-1.47728 0-3.43635 0-5.16613031z"/><path d="m54.3166.00292969c-.5747 2.40602031-1.3612 4.04003031-2.0578 6.38510031-8.5386 0-17.054 0-25.7899 0v16.20367h18.7518c-.9577 2.5917-1.721 4.2519-2.6527 6.626-5.2097 0-10.4832 0-16.192 0v18.1133c-2.6556 0-4.902 0-7.1455 0 0-15.7741 0-31.5511 0-47.32516848 11.6963-.00290232 23.3927-.00290183 35.0861-.00290183z"/><path d="m237.912.00292969c.18 13.65537031.105 26.74487031.267 40.51347031 8.583 0 17.522.0261 25.904.0261 0 2.8965 0 3.4364-.076 6.4374-10.843 0-22.089.235-32.901.235.015-2.0722.015-1.425.015-2.0722-.015-14.9063-.052-30.335-.322-45.13686848.003-.00290232 4.937-.00290183 7.113-.00290183z"/><path d="m65.662 76.058c36.264 0 65.662-.2586 65.662-.5776s-29.398-.5776-65.662-.5776c-36.2641 0-65.662.2586-65.662.5776s29.3979.5776 65.662.5776z"/><path d="m364.467 76.058c36.264 0 65.662-.2586 65.662-.5776s-29.398-.5776-65.662-.5776-65.662.2586-65.662.5776 29.398.5776 65.662.5776z"/><path d="m185.899 22.5249c.357-.2438.65-.4992.987-.6675 4.397-2.1913 6.342-5.9062 5.976-10.6225-.389-5.03552-3.097-8.53281-8.007-10.21616-.523-.179943-1.173-.330864-1.846-.542733-1.106-.348278-2.076-.47307731-3.234-.47307731h-21.015v47.18587031c8.237 0 15.963.0697 23.688-.0377 2.714-.0377 5.338-.7865 7.799-2.0403 4.496-2.2871 6.374-6.0165 6.266-10.9418-.067-6.8524-4.551-9.8592-10.614-11.6441zm-19.605-15.87856c4.449 0 9.003-.26992 13.505.08707 3.471.27572 5.453 3.08806 5.383 6.49249-.066 3.4276-2.275 5.941-6.199 6.2313-4.141.3076-8.324.0696-12.689.0696 0-4.217 0-8.3616 0-12.88046zm22.548 27.55166c-.235 3.4509-2.679 6.1239-6.733 6.3793-5.126.3222-10.289.0784-15.867.0784 0-4.7656 0-9.3397 0-14.439 2.734.1538 5.48.0058 8.231-.0203 4.977-.0552 10.228.2757 12.785 3.1983 1.152 1.2741 1.712 2.911 1.584 4.8033z"/><path d="m410.294 17.7796c-1.791-9.49058-9.305-17.7796-18.163-17.7796h-.963c-8.159 0-15.356 0-23.518 0v47.2439c6.769 0 13.113.0262 19.458-.0058 10.433-.0522 21.001-5.5608 23.183-17.4806 1.106-5.706.07-11.6209.003-11.9779zm-19.466 22.5597c-.789.1742-1.602.328-2.406.3338-4.318.0319-8.637.0145-13.199.0145 0-11.3103 0-22.493 0-34.08483 4.893 0 9.635-.29603 14.322.06676 7.39.57466 12.658 6.10647 13.717 14.24747 1.05 8.0423-1.884 17.0802-12.434 19.4223z"/><path d="m113.422 14.7612c-1.829-4.88459-3.715-9.74887-5.253-14.75827031-3.265 0-6.528 0-9.7927 0-.8446 2.13611031-18.7142 47.06397031-18.7142 47.06397031h7.2152c.444-.8968 2.7282-6.3212 4.5856-10.1204h23.0761c1.698 3.4335 2.801 6.8582 4.394 10.1088h7.088c-3.823-10.9649-8.655-21.3901-12.599-32.2941zm-19.9536 16.2646c3.2013-7.6998 6.3126-15.182 9.7866-23.5436 3.254 8.2049 6.231 15.7132 9.337 23.5436-6.522 0-12.564 0-19.1236 0z"/><path d="m128.053 74.4533c1.942-3.2274 3.512-4.3129 5.511-4.3129 1.913 0 3.315 1.2277 3.315 3.4277 0 4.5131-4.714 9.4818-9.14 9.4818-1.628 0-3.712-.6559-3.712-1.5121v-.1712l4.055-14.9382c.171-.685.258-1.0855.258-1.3409 0-.6298-.142-.6588-1.828-.714v-.4847c1.912-.2293 2.943-.4005 4.371-.6559l.142.1422-.601 2.3422-2.4 8.7389h.029zm4.4-2.914c-1.37 0-2.685 1.1987-3.913 3.2855-1.256 2.1129-2.054 4.8846-2.054 6.5969 0 .6589.429.9723 1.314.9723 1.228 0 2.456-.6008 3.512-1.6862 1.713-1.7704 3.143-4.5973 3.143-6.7131-.003-1.7414-.746-2.4554-2.002-2.4554z"/><path d="m145.133 80.5652c2.427-4.0284 3.486-6.0833 3.486-7.34 0-.4005-.2-.5717-.743-.9142-.572-.3715-.743-.6559-.743-1.1145 0-.6269.485-1.0564 1.144-1.0564.856 0 1.483.714 1.483 1.5701 0 1.6282-1.37 4.7685-3.741 8.7128-2.972 4.9136-6.026 8.1961-7.654 8.1961-.856 0-1.457-.4846-1.457-1.2276 0-.6298.485-1.1436 1.115-1.1436.998 0 .998.7982 1.741.7982.372 0 .714-.2293 1.373-.9433.514-.5427 1.799-2.2289 2.029-2.6004.171-.3425.284-.685.284-1.0013 0-1.1407-1.57-7.5403-2.342-9.4819-.543-1.3989-1.057-1.8285-2.2-1.8285-.314 0-.572.029-.885.1132v-.4847c.313-.058.627-.1132.914-.1712.572-.1132 1.515-.2844 3.056-.5137h.113c.43 0 1.942 4.7424 2.429 7.2819z"/><path d="m188.488 81.0995-1.216-4.1793-.511-2.2523c.075-.0203.014-.1712.012-.1915-.433-3.5699-3.187-3.1664-4.975-2.554 0 0-.096.0899-.093-.0291.006-.1451.009-1.5904.009-1.9823 0-.0928.081-.1189.081-.1189 2.235-.981 5.468-.8969 7.459.0986 1.495.7488 2.363 1.8836 3.184 5.2881.226.9403.485 2.2376 1.204 5.05.346 1.3525.711 1.8546 1.454 1.7124.093-.0175.096.0319.096.1102-.003.6415-.003 1.7124-.003 1.7879 0 .2235 0 .2234-.075.2205-.096-.0029-2.055.003-2.055.003-.894-.0059-1.982-.0059-3.399-1.2422z"/><path d="m188.489 81.0995c.034.1016-.111.2003-.206.2438-3.091 1.7588-4.212-3.448-1.205-4.4522.122-.0348.194.0291.194.0291l-.51-2.2522c-1.608.3541-4.136 1.0796-5.23 2.1158-2.45 2.3131-1.393 6.0368 1.294 7.0004 1.501.5369 4.606.9635 6.829-.9607z"/><path d="m209.491 68.8168c1.704 0 3.086-1.1145 3.086-2.4902s-1.382-2.4902-3.086-2.4902c-1.706 0-3.085 1.1145-3.085 2.4902s1.379 2.4902 3.085 2.4902z"/><path d="m220.268 78.4702c.104-.0581 8.373-2.3509 8.373-2.3509.154-.0871.157-.3338.142-.4963-.334-3.8775-3.085-6.5157-6.681-6.6347-4.565-.148-7.613 2.5018-7.883 7.4038-.171 3.0794 1.808 5.9004 3.982 6.9714 2.586 1.2741 5.915 1.0535 8.452.1248.502-.18.476-.2815.476-.566v-1.7588c0-.1422.058-.3831-.317-.1799-.38.1973-1.454.6994-2.414.7517-1.855.1045-3.242-.2467-4.211-2.8472-.154-.4092-.024-.3628.081-.4179zm-.616-2.2609c-.055-1.0565.027-2.6382.436-3.5089.699-1.4918 2.055-1.4541 2.798-.4499.391.534.728 1.4512.806 2.7949.032.5254-.342.5196-.438.5428-.635.1915-3.23.891-3.23.891-.299.0754-.351.058-.372-.2699z"/><path d="m178.705 82.9308c-.003.6704.154.9287.206 1.039.044.1016-.09.0871-.09.0871h-1.042-4.345s-.104.0058-.072-.0871c.064-.1799.194-.5079.194-1.039l-.006-.6966v-6.6202-1.2451c-.002-.4672-.293-1.4743-1.425-1.4772-.94.0087-1.814.862-1.816 2.0432v2.4699l-.003 4.931s.003.5689.003.5921c-.003.6704.153.9287.206 1.039.043.1016-.09.0871-.09.0871h-1.039-4.348s-.105.0058-.073-.0871c.064-.1799.192-.5079.195-1.039v-.3715-6.9366-1.2451c-.003-.4701-.293-1.4743-1.428-1.4801-.938.0087-1.814.862-1.814 2.0432v.6385 6.954l-.006.3976c0 .6704.157.9287.206 1.039.044.1016-.087.0871-.087.0871h-1.042-4.345s-.107.0058-.075-.0871c.067-.1799.192-.5079.197-1.039v-.4673c0-1.7298-.003-9.328-.005-10.0275.005-.4557-.14-.7836-.209-.9607-.041-.0928.049-.1335.049-.1335s1.982-.8881 5.227-2.3886c.035-.0145.09.0058.087.0639v1.306 1.1232c0 .061.067.0958.116.0406.029-.029.061-.0725.108-.1219 1.779-2.7136 7.322-3.1548 8.193.0958.017.0552.078.0494.113 0 1.097-1.4715 2.197-2.2115 4.461-2.2115 4.423 0 3.787 3.773 3.784 6.0948l.003 6.8901z"/><path d="m201.763 82.9397c-.003.6675.154.9287.203 1.039.047.1016-.087.0871-.087.0871h-1.317-4.345s-.108.0029-.076-.0871c.064-.1828.192-.5079.195-1.039l.003-.4005c0-1.724-.003-9.0872-.003-9.7867 0-.3889-.261-1.1173-.314-1.248-.034-.0696.076-.0986.076-.0986s2.345-1.1987 5.578-2.6934c.035-.0145.087.0058.087.0639v1.454c0 .1945.021.804.021.8852 0 .0639.066.0987.113.0436.029-.032.064-.0726.104-.1248 1.208-2.3683 3.123-2.2929 4.58-2.0752.186.029.163.09.11.3338-.095.4673-.737 3.1171-.795 3.3115-.043.1655-.09.238-.287.1945-1.832-.3831-3.852.2118-3.852 2.4931v.3279c0 1.6631 0 5.7321.003 6.9192z"/><path d="m212.377 82.9394c-.003.6675.153.9287.203 1.039.046.1016-.087.0871-.087.0871h-1.327-4.344s-.108.0058-.079-.0871c.067-.1829.195-.5079.198-1.039l.003-.0784v-11.2958c0-.2786 0-.2815.197-.3715.104-.0465.067-.0319.067-.0319s1.872-.9259 4.995-2.3974c.034-.0174.165.0058.162.0639 0 .447.006 12.8544.009 14.053v.0581z"/><path d="m245.259 81.4941c-1.3.6618-3.241.8765-4.402-.5949-1.153-1.4686-1.721-2.7514-1.719-4.8556.003-4.7801 3.321-5.407 5.84-4.0023v-2.4583c-1.422-.7227-3.297-.8475-4.705-.6994-4.199.4498-6.649 3.9674-6.652 7.9697-.003 4.3622 2.783 9.5835 11.641 7.1571v-2.5163z"/><path d="m252.219 82.3878s-.02-18.9666-.012-18.8708c0 0-3.915 1.8081-5.961 2.7862.203.1683.633.8968.633 3.3028v6.0891c.003 1.7414 0 5.0791-.026 7.7202-.003.2902-.186.6936-.186.7226h5.915c-.058-.0029-.363-1.7501-.363-1.7501z"/><path d="m262.224 81.2534c.034.1045-.024.1393-.119.1886-.674.4296-1.832.5225-2.511-.1073-.641-.7576-.975-1.6253-.705-2.7079.215-.6646.897-1.8285 2.037-2.0316l-.365-2.1797c.003.0378 0 .0349-.114.061-.345.087-.528.119-1.129.2206-1.262.2089-2.687.6385-3.874 1.5643-3.384 2.6295-1.797 6.5012.952 7.636 1.605.6617 4.437 1.0506 6.78-.9026z"/><path d="m262.225 81.2533-1.256-4.6379s0-.0348-.041-.0203l-.366-2.1797c-.249-3.892-3.375-3.5321-5.113-2.8849 0 0-.099.0929-.093-.0319.003-.1509.008-1.6514.008-2.0548-.002-.0987.082-.1219.082-.1219 2.208-.9694 5.587-.8388 7.537.1393 1.709.8561 2.56 2.4263 2.902 3.7788 0 0 1.536 7.0033 1.707 7.7608.139.6066.534 1.1377 1.152 1.1348.244 0 .279.0464.282.3018.003.6124.005 1.5586.003 1.6892-.003.1596-.015.2177-.134.2177-.099 0-2.122.0029-2.122.0029-1.088-.0058-1.985-.0088-3.598-1.3525z"/><path d="m273.141 68.6256c1.767 0 3.198-1.1552 3.198-2.586 0-1.425-1.431-2.5831-3.198-2.5831-1.771 0-3.202 1.1552-3.202 2.5831s1.434 2.586 3.202 2.586z"/><path d="m275.927 82.9397v.3047c0 .4412.197.7721.244.8881.002.0146-.015.0233-.015.0233h-1.506-4.615s-.02-.0087-.014-.0233c.04-.1073.243-.4527.243-.8881v-.3279c0-1.7966.003-10.6225.003-11.7225 0-.2699.125-.2815.125-.2815s2.069-1.0594 5.442-2.615c.035-.0174.093.0029.09.0638 0 .4644.003 13.3362.003 14.5784z"/><path d="m287.954 72.6883c-1.332-.0203-1.666-.1045-2.368.1451-.874.3338-1.477 1.0303-1.495 2.0926v.6443 7.3777.296c0 .4296.192.7517.238.8678.006.0116-.011.0203-.011.0203h-1.463-4.487s-.017-.0087-.015-.0232c.041-.1045.238-.4411.238-.8649v-.3163-10.5296c-.031-.3976-.191-.8794-.24-1.0071-.035-.0697.075-.0958.075-.0958s2.299-1.0652 5.575-2.5744c.032-.0174.09.0029.087.0639v1.3176c0 .1945.024.8156.024.8998 0 .0609.066.0957.116.0406.029-.0319.061-.0726.104-.1248 1.321-2.4467 3.477-2.1361 4.574-1.9649.189.029.163.09.111.3367-.099.4731-.72 3.001-.775 3.1983-.041.1713-.082.2061-.288.2003z"/><path d="m294 78.7951c.104-.0551 8.376-2.3508 8.376-2.3508.154-.0871.154-.3338.139-.4963-.334-3.8775-3.082-6.5128-6.681-6.6318-4.562-.151-7.613 2.4989-7.883 7.4038-.168 3.0764 1.811 5.9004 3.985 6.9684 2.583 1.2742 5.912 1.0536 8.452.1277.499-.1828.476-.2844.476-.5659v-1.7588c0-.1422.058-.3831-.319-.1828-.381.1973-1.454.7023-2.415.7546-1.852.1044-3.242-.2467-4.211-2.8472-.157-.4092-.021-.3628.081-.4209zm-.613-2.2609c-.055-1.0535.027-2.6382.433-3.506.699-1.4947 2.055-1.4569 2.798-.4498.392.534.728 1.4482.807 2.792.032.5253-.343.5195-.436.5456-.635.1887-3.233.8911-3.233.8911-.296.0725-.351.058-.369-.2729z"/></g></svg>