<?xml version="1.0" encoding="utf-8"?>
<!-- Generator: Adobe Illustrator 24.2.3, SVG Export Plug-In . SVG Version: 6.00 Build 0)  -->
<svg version="1.1" id="Layer_1" xmlns="http://www.w3.org/2000/svg" xmlns:xlink="http://www.w3.org/1999/xlink" x="0px" y="0px"
	 viewBox="0 0 1366 367.6" style="enable-background:new 0 0 1366 367.6;" xml:space="preserve">
<style type="text/css">
	.st0{fill:#FFFFFF;}
</style>
<g>
	<path class="st0" d="M1088.97,34.49c0,6.98,0,13.97,0,21.99c-33.21,0-66.26,0-99.99,0c-0.16,15.31-0.57,29.55-0.94,45.15
		c28.12,0,55.48,0,83.49,0c0,8.03,0,14.75,0,22.29c-27.65,0-54.68,0-82.59,0c0,16.93,0,33.07,0,50.29c32.81,0,65.81,0,99.4,0
		c0.3,7.62,0.61,13.65,0.6,22.27c-41.29,0-85.22,0-126.54,0c0.23-8.85,0.06-9.7,0.04-14.66c-0.13-44.03,0.09-85.51,0-129.53
		c-0.01-5.09,0-11.84,0-17.8C1004.63,34.49,1046.8,34.49,1088.97,34.49z"/>
	<path class="st0" d="M130.26,34.49c-1.98,8.29-4.69,13.92-7.09,22c-29.42,0-58.76,0-88.86,0c0,19.1,0,37.04,0,55.83
		c21.39,0,42.35,0,64.61,0c-3.3,8.93-5.93,14.65-9.14,22.83c-17.95,0-36.12,0-55.79,0c0,20.58,0,40.42,0,62.41
		c-9.15,0-16.89,0-24.62,0c0-54.35,0-108.71,0-163.06C49.67,34.49,89.97,34.49,130.26,34.49z"/>
	<path class="st0" d="M762.84,34.49c0.62,47.05,0.36,92.15,0.92,139.59c29.57,0,60.37,0.09,89.25,0.09c0,9.98,0,11.84-0.26,22.18
		c-37.36,0-76.11,0.81-113.36,0.81c0.05-7.14,0.05-4.91,0.05-7.14c-0.05-51.36-0.18-104.52-1.11-155.52
		C738.34,34.49,755.34,34.49,762.84,34.49z"/>
	<ellipse class="st0" cx="169.35" cy="294.55" rx="226.24" ry="1.99"/>
	<ellipse class="st0" cx="1198.89" cy="294.55" rx="226.24" ry="1.99"/>
	<path class="st0" d="M583.63,112.09c1.23-0.84,2.24-1.72,3.4-2.3c15.15-7.55,21.85-20.35,20.59-36.6
		c-1.34-17.35-10.67-29.4-27.59-35.2c-1.8-0.62-4.04-1.14-6.36-1.87c-3.81-1.2-7.15-1.63-11.14-1.63h-72.41v162.58
		c28.38,0,55,0.24,81.62-0.13c9.35-0.13,18.39-2.71,26.87-7.03c15.49-7.88,21.96-20.73,21.59-37.7
		C619.97,128.6,604.52,118.24,583.63,112.09z M516.08,57.38c15.33,0,31.02-0.93,46.53,0.3c11.96,0.95,18.79,10.64,18.55,22.37
		c-0.23,11.81-7.84,20.47-21.36,21.47c-14.27,1.06-28.68,0.24-43.72,0.24C516.08,87.23,516.08,72.95,516.08,57.38z M593.77,152.31
		c-0.81,11.89-9.23,21.1-23.2,21.98c-17.66,1.11-35.45,0.27-54.67,0.27c0-16.42,0-32.18,0-49.75c9.42,0.53,18.88,0.02,28.36-0.07
		c17.15-0.19,35.24,0.95,44.05,11.02C592.28,140.15,594.21,145.79,593.77,152.31z"/>
	<path class="st0" d="M1356.79,95.74c-6.17-32.7-32.06-61.26-62.58-61.26h-3.32c-28.11,0-52.91,0-81.03,0c0,53.96,0,107.92,0,162.78
		c23.32,0,45.18,0.09,67.04-0.02c35.95-0.18,72.36-19.16,79.88-60.23C1360.59,117.35,1357.02,96.97,1356.79,95.74z M1289.72,173.47
		c-2.72,0.6-5.52,1.13-8.29,1.15c-14.88,0.11-29.76,0.05-45.48,0.05c0-38.97,0-77.5,0-117.44c16.86,0,33.2-1.02,49.35,0.23
		c25.46,1.98,43.61,21.04,47.26,49.09C1336.18,134.26,1326.07,165.4,1289.72,173.47z"/>
	<path class="st0" d="M333.91,85.34c-6.3-16.83-12.8-33.59-18.1-50.85c-11.25,0-22.49,0-33.74,0
		c-2.91,7.36-64.48,162.16-64.48,162.16c8.94,0,16.69,0,24.86,0c1.53-3.09,9.4-21.78,15.8-34.87c26.76,0,53.24,0,79.51,0
		c5.85,11.83,9.65,23.63,15.14,34.83c8.16,0,15.88,0,24.42,0C364.15,158.83,347.5,122.91,333.91,85.34z M265.16,141.38
		c11.03-26.53,21.75-52.31,33.72-81.12c11.21,28.27,21.47,54.14,32.17,81.12C308.58,141.38,287.76,141.38,265.16,141.38z"/>
	<g>
		<path class="st0" d="M384.32,291.01c6.69-11.12,12.1-14.86,18.99-14.86c6.59,0,11.42,4.23,11.42,11.81
			c0,15.55-16.24,32.67-31.49,32.67c-5.61,0-12.79-2.26-12.79-5.21v-0.59l13.97-51.47c0.59-2.36,0.89-3.74,0.89-4.62
			c0-2.17-0.49-2.27-6.3-2.46v-1.67c6.59-0.79,10.14-1.38,15.06-2.26l0.49,0.49l-2.07,8.07l-8.27,30.11H384.32z M399.48,280.97
			c-4.72,0-9.25,4.13-13.48,11.32c-4.33,7.28-7.08,16.83-7.08,22.73c0,2.27,1.48,3.35,4.53,3.35c4.23,0,8.46-2.07,12.1-5.81
			c5.9-6.1,10.83-15.84,10.83-23.13C406.37,283.43,403.81,280.97,399.48,280.97z"/>
		<path class="st0" d="M443.17,312.07c8.36-13.88,12.01-20.96,12.01-25.29c0-1.38-0.69-1.97-2.56-3.15
			c-1.97-1.28-2.56-2.26-2.56-3.84c0-2.16,1.67-3.64,3.94-3.64c2.95,0,5.11,2.46,5.11,5.41c0,5.61-4.72,16.43-12.89,30.02
			c-10.24,16.93-20.76,28.24-26.37,28.24c-2.95,0-5.02-1.67-5.02-4.23c0-2.17,1.67-3.94,3.84-3.94c3.44,0,3.44,2.75,6,2.75
			c1.28,0,2.46-0.79,4.73-3.25c1.77-1.87,6.2-7.68,6.99-8.96c0.59-1.18,0.98-2.36,0.98-3.45c0-3.93-5.41-25.98-8.07-32.67
			c-1.87-4.82-3.64-6.3-7.58-6.3c-1.08,0-1.97,0.1-3.05,0.39v-1.67c1.08-0.2,2.16-0.39,3.15-0.59c1.97-0.39,5.22-0.98,10.53-1.77
			h0.39c1.48,0,6.69,16.34,8.37,25.09L443.17,312.07z"/>
	</g>
	<path class="st0" d="M592.55,313.91l-4.19-14.4l-1.76-7.76c0.26-0.07,0.05-0.59,0.04-0.66c-1.49-12.3-10.98-10.91-17.14-8.8
		c0,0-0.33,0.31-0.32-0.1c0.02-0.5,0.03-5.48,0.03-6.83c0-0.32,0.28-0.41,0.28-0.41c7.7-3.38,18.84-3.09,25.7,0.34
		c5.15,2.58,8.14,6.49,10.97,18.22c0.78,3.24,1.67,7.71,4.15,17.4c1.19,4.66,2.45,6.39,5.01,5.9c0.32-0.06,0.33,0.11,0.33,0.38
		c-0.01,2.21-0.01,5.9-0.01,6.16c0,0.77,0,0.77-0.26,0.76c-0.33-0.01-7.08,0.01-7.08,0.01c-3.08-0.02-6.83-0.02-11.71-4.28
		L592.55,313.91z"/>
	<path class="st0" d="M592.55,313.91c0.12,0.35-0.38,0.69-0.71,0.84c-10.65,6.06-14.51-11.88-4.15-15.34
		c0.42-0.12,0.67,0.1,0.67,0.1l-1.76-7.76c-5.54,1.22-14.25,3.72-18.02,7.29c-8.44,7.97-4.8,20.8,4.46,24.12
		c5.17,1.85,15.87,3.32,23.53-3.31L592.55,313.91z"/>
	<path class="st0" d="M664.92,271.59c5.87,0,10.63-3.84,10.63-8.58c0-4.74-4.76-8.58-10.63-8.58c-5.88,0-10.63,3.84-10.63,8.58
		C654.29,267.75,659.04,271.59,664.92,271.59"/>
	<path class="st0" d="M702.05,304.85c0.36-0.2,28.85-8.1,28.85-8.1c0.53-0.3,0.54-1.15,0.49-1.71
		c-1.15-13.36-10.63-22.45-23.02-22.86c-15.73-0.51-26.23,8.62-27.16,25.51c-0.59,10.61,6.23,20.33,13.72,24.02
		c8.91,4.39,20.38,3.63,29.12,0.43c1.73-0.62,1.64-0.97,1.64-1.95v-6.06c0-0.49,0.2-1.32-1.09-0.62c-1.31,0.68-5.01,2.41-8.32,2.59
		c-6.39,0.36-11.17-0.85-14.51-9.81C701.24,304.88,701.69,305.04,702.05,304.85z M699.93,297.06c-0.19-3.64,0.09-9.09,1.5-12.09
		c2.41-5.14,7.08-5.01,9.64-1.55c1.35,1.84,2.51,5,2.78,9.63c0.11,1.81-1.18,1.79-1.51,1.87c-2.19,0.66-11.13,3.07-11.13,3.07
		C700.18,298.25,700,298.19,699.93,297.06z"/>
	<path class="st0" d="M558.84,320.22c-0.01,2.31,0.53,3.2,0.71,3.58c0.15,0.35-0.31,0.3-0.31,0.3h-3.59h-14.97
		c0,0-0.36,0.02-0.25-0.3c0.22-0.62,0.67-1.75,0.67-3.58l-0.02-2.4v-22.81v-4.29c-0.01-1.61-1.01-5.08-4.91-5.09
		c-3.24,0.03-6.25,2.97-6.26,7.04v8.51l-0.01,16.99c0,0,0.01,1.96,0.01,2.04c-0.01,2.31,0.53,3.2,0.71,3.58
		c0.15,0.35-0.31,0.3-0.31,0.3h-3.58h-14.98c0,0-0.36,0.02-0.25-0.3c0.22-0.62,0.66-1.75,0.67-3.58v-1.28v-23.9v-4.29
		c-0.01-1.62-1.01-5.08-4.92-5.1c-3.23,0.03-6.25,2.97-6.25,7.04v2.2v23.96l-0.02,1.37c0,2.31,0.54,3.2,0.71,3.58
		c0.15,0.35-0.3,0.3-0.3,0.3h-3.59h-14.97c0,0-0.37,0.02-0.26-0.3c0.23-0.62,0.66-1.75,0.68-3.58v-1.61
		c0-5.96-0.01-32.14-0.02-34.55c0.02-1.57-0.48-2.7-0.72-3.31c-0.14-0.32,0.17-0.46,0.17-0.46s6.83-3.06,18.01-8.23
		c0.12-0.05,0.31,0.02,0.3,0.22v4.5v3.87c0,0.21,0.23,0.33,0.4,0.14c0.1-0.1,0.21-0.25,0.37-0.42c6.13-9.35,25.23-10.87,28.23,0.33
		c0.06,0.19,0.27,0.17,0.39,0c3.78-5.07,7.57-7.62,15.37-7.62c15.24,0,13.05,13,13.04,21l0.01,23.74L558.84,320.22z"/>
	<path class="st0" d="M638.29,320.25c-0.01,2.3,0.53,3.2,0.7,3.58c0.16,0.35-0.3,0.3-0.3,0.3h-4.54h-14.97c0,0-0.37,0.01-0.26-0.3
		c0.22-0.63,0.66-1.75,0.67-3.58l0.01-1.38c0-5.94-0.01-31.31-0.01-33.72c0-1.34-0.9-3.85-1.08-4.3c-0.12-0.24,0.26-0.34,0.26-0.34
		s8.08-4.13,19.22-9.28c0.12-0.05,0.3,0.02,0.3,0.22v5.01c0,0.67,0.07,2.77,0.07,3.05c0,0.22,0.23,0.34,0.39,0.15
		c0.1-0.11,0.22-0.25,0.36-0.43c4.16-8.16,10.76-7.9,15.78-7.15c0.64,0.1,0.56,0.31,0.38,1.15c-0.33,1.61-2.54,10.74-2.74,11.41
		c-0.15,0.57-0.31,0.82-0.99,0.67c-6.31-1.32-13.27,0.73-13.27,8.59v1.13c0,5.73,0,19.75,0.01,23.84L638.29,320.25z"/>
	<path class="st0" d="M674.86,320.25c-0.01,2.3,0.53,3.2,0.7,3.58c0.16,0.35-0.3,0.3-0.3,0.3h-4.57h-14.97c0,0-0.37,0.02-0.27-0.3
		c0.23-0.63,0.67-1.75,0.68-3.58l0.01-0.27v-38.92c0-0.96,0-0.97,0.68-1.28c0.36-0.16,0.23-0.11,0.23-0.11s6.45-3.19,17.21-8.26
		c0.12-0.06,0.57,0.02,0.56,0.22c0,1.54,0.02,44.29,0.03,48.42V320.25z"/>
	<path class="st0" d="M788.16,315.27c-4.48,2.28-11.17,3.02-15.17-2.05c-3.97-5.06-5.93-9.48-5.92-16.73
		c0.01-16.47,11.44-18.63,20.12-13.79v-8.47c-4.9-2.49-11.36-2.92-16.21-2.41c-14.47,1.55-22.91,13.67-22.92,27.46
		c-0.01,15.03,9.59,33.02,40.11,24.66V315.27z"/>
	<path class="st0" d="M812.14,318.35c0,0-0.07-65.35-0.04-65.02c0,0-13.49,6.23-20.54,9.6c0.7,0.58,2.18,3.09,2.18,11.38v20.98
		c0.01,6,0,17.5-0.09,26.6c-0.01,1-0.64,2.39-0.64,2.49h20.38C813.19,324.37,812.14,318.35,812.14,318.35"/>
	<path class="st0" d="M846.61,314.44c0.12,0.36-0.08,0.48-0.41,0.65c-2.32,1.48-6.31,1.8-8.65-0.37c-2.21-2.61-3.36-5.6-2.43-9.33
		c0.74-2.29,3.09-6.3,7.02-7l-1.26-7.51c0.01,0.13,0,0.12-0.39,0.21c-1.19,0.3-1.82,0.41-3.89,0.76c-4.35,0.72-9.26,2.2-13.35,5.39
		c-11.66,9.06-6.19,22.4,3.28,26.31c5.53,2.28,15.29,3.62,23.36-3.11L846.61,314.44z"/>
	<path class="st0" d="M846.61,314.44l-4.33-15.98c0,0,0-0.12-0.14-0.07l-1.26-7.51c-0.86-13.41-11.63-12.17-17.62-9.94
		c0,0-0.34,0.32-0.32-0.11c0.01-0.52,0.03-5.69,0.03-7.08c-0.01-0.34,0.28-0.42,0.28-0.42c7.61-3.34,19.25-2.89,25.97,0.48
		c5.89,2.95,8.82,8.36,10,13.02c0,0,5.29,24.13,5.88,26.74c0.48,2.09,1.84,3.92,3.97,3.91c0.84,0,0.96,0.16,0.97,1.04
		c0.01,2.11,0.02,5.37,0.01,5.82c-0.01,0.55-0.05,0.75-0.46,0.75c-0.34,0-7.31,0.01-7.31,0.01c-3.75-0.02-6.84-0.03-12.4-4.66
		L846.61,314.44z"/>
	<path class="st0" d="M884.22,270.93c6.09,0,11.02-3.98,11.02-8.91c0-4.91-4.93-8.9-11.02-8.9c-6.1,0-11.03,3.98-11.03,8.9
		C873.19,266.94,878.13,270.93,884.22,270.93"/>
	<path class="st0" d="M893.82,320.25v1.05c0,1.52,0.68,2.66,0.84,3.06c0.01,0.05-0.05,0.08-0.05,0.08h-5.19h-15.9
		c0,0-0.07-0.03-0.05-0.08c0.14-0.37,0.84-1.56,0.84-3.06v-1.13c0-6.19,0.01-36.6,0.01-40.39c0-0.93,0.43-0.97,0.43-0.97
		s7.13-3.65,18.75-9.01c0.12-0.06,0.32,0.01,0.31,0.22C893.81,271.62,893.82,315.97,893.82,320.25"/>
	<path class="st0" d="M935.26,284.93c-4.59-0.07-5.74-0.36-8.16,0.5c-3.01,1.15-5.09,3.55-5.15,7.21v2.22v25.42v1.02
		c0,1.48,0.66,2.59,0.82,2.99c0.02,0.04-0.04,0.07-0.04,0.07h-5.04h-15.46c0,0-0.06-0.03-0.05-0.08c0.14-0.36,0.82-1.52,0.82-2.98
		v-1.09v-36.28c-0.11-1.37-0.66-3.03-0.83-3.47c-0.12-0.24,0.26-0.33,0.26-0.33s7.92-3.67,19.21-8.87c0.11-0.06,0.31,0.01,0.3,0.22
		v4.54c0,0.67,0.08,2.81,0.08,3.1c0,0.21,0.23,0.33,0.4,0.14c0.1-0.11,0.21-0.25,0.36-0.43c4.55-8.43,11.98-7.36,15.76-6.77
		c0.65,0.1,0.56,0.31,0.38,1.16c-0.34,1.63-2.48,10.34-2.67,11.02C936.11,284.83,935.97,284.95,935.26,284.93"/>
	<path class="st0" d="M956.09,305.97c0.36-0.19,28.86-8.1,28.86-8.1c0.53-0.3,0.53-1.15,0.48-1.71
		c-1.15-13.36-10.62-22.44-23.02-22.85c-15.72-0.52-26.23,8.61-27.16,25.51c-0.58,10.6,6.24,20.33,13.73,24.01
		c8.9,4.39,20.37,3.63,29.12,0.44c1.72-0.63,1.64-0.98,1.64-1.95v-6.06c0-0.49,0.2-1.32-1.1-0.63c-1.31,0.68-5.01,2.42-8.32,2.6
		c-6.38,0.36-11.17-0.85-14.51-9.81C955.27,306.01,955.74,306.17,956.09,305.97z M953.98,298.18c-0.19-3.63,0.09-9.09,1.49-12.08
		c2.41-5.15,7.08-5.02,9.64-1.55c1.35,1.84,2.51,4.99,2.78,9.62c0.11,1.81-1.18,1.79-1.5,1.88c-2.19,0.65-11.14,3.07-11.14,3.07
		C954.23,299.37,954.04,299.32,953.98,298.18z"/>
</g>
</svg>
