<svg width="112" height="27" viewBox="0 0 112 27" fill="none" xmlns="http://www.w3.org/2000/svg">
<path fill-rule="evenodd" clip-rule="evenodd" d="M30.6234 13.3264L25.3079 0H22.9257L17.3739 13.3264H19.4611L20.681 10.3864H27.3551L28.5362 13.3264H30.6234ZM2.06472 1.7854V6.41874H7.56649L6.81409 8.22156H2.06472V13.3202H0.102486L0.101236 0.0298604H10.2311L9.49873 1.7854H2.06472ZM21.2322 8.83867H26.8239L24.1068 2.03797L21.2322 8.83867ZM49.6571 3.48869C49.6571 1.09737 47.9248 0 45.1102 0H39.9322V13.3264H46.0151C49.1059 13.3264 50.7207 11.9553 50.7207 9.79918C50.7207 7.79978 49.4609 6.74222 47.4137 6.38888C48.771 5.93848 49.6571 4.95807 49.6571 3.48869ZM45.7401 11.5634C47.5899 11.5634 48.5347 10.8766 48.5347 9.56403C48.5347 8.03493 47.3737 7.42777 45.4052 7.42777H41.9794V11.5634H45.7401ZM47.5311 3.72384C47.5311 5.05636 46.4288 5.62495 44.7353 5.62495H41.9794V1.76425H44.834C46.5075 1.76425 47.5311 2.27312 47.5311 3.72384ZM60.5994 13.3264V0H62.6479V11.5435H69.9706V13.3264H60.5994ZM79.2206 0V13.3264H89.6155V11.5236H81.1891V7.34938H88.1782V5.54656H81.1891V1.80282H89.6155V0H79.2206ZM99.5942 0H105.047C109.004 0.0199069 111.958 2.3515 111.958 6.68375C111.958 10.9749 109.004 13.3264 105.047 13.3264H99.5942V0ZM101.641 11.5435V1.78291H104.968C107.823 1.80282 109.85 3.50859 109.85 6.68375C109.85 9.81909 107.823 11.5435 104.968 11.5435H101.641ZM0 21.8093H17.2727V21.2506H0V21.8093ZM19.0962 24.1508C19.6361 24.6435 20.176 24.814 20.9347 24.814C22.7632 24.814 24.2105 22.6516 24.2105 21.0503C24.2105 19.9517 23.6368 19.3794 22.8657 19.3794C22.2345 19.3794 21.6596 19.6991 21.0847 20.3287L21.0622 20.3063L22.142 16.5066L19.9461 16.5874V16.7243C20.7972 16.7703 21.0272 16.942 20.9234 17.3315L19.7861 21.7931L19.0962 24.1508ZM23.2344 21.1872C23.2344 20.4083 22.9232 19.9517 22.2683 19.9517C21.8321 19.9517 21.3609 20.2379 21.0047 20.5925L20.1073 24.07C20.2685 24.4258 20.601 24.6087 21.0159 24.6087C22.3145 24.6087 23.2344 22.6864 23.2344 21.1872ZM27.0026 24.2081L26.6002 21.5418L26.2552 19.4242L24.6005 19.5847V19.7228C25.2666 19.7103 25.3816 19.8024 25.4628 20.2379L25.8878 22.6516L26.324 25.1686C25.6803 26.2099 25.0941 26.5197 24.6692 26.623C24.7154 26.5421 24.7379 26.3816 24.7379 26.2336C24.7379 25.8554 24.4855 25.6152 24.1518 25.6152C23.8181 25.6152 23.5543 25.9014 23.5543 26.256C23.5543 26.6566 23.8181 27 24.4167 27C25.1291 27 25.819 26.5882 27.7725 23.4989C29.2786 21.1187 29.3586 20.6945 29.3586 20.1346C29.3586 19.7228 29.1174 19.3669 28.7262 19.3669C28.3825 19.3669 28.1525 19.6307 28.1525 19.9853C28.1525 20.3063 28.37 20.6037 28.7724 20.7517C28.7149 21.1187 28.5662 21.7931 27.7613 23.0522L27.0251 24.2081H27.0026ZM34.1417 18.5557L31.8232 19.576C31.8232 19.576 31.957 20.0637 31.957 20.5962V23.8808C31.957 23.8808 31.957 24.4121 31.8232 24.8563H34.2304C34.2304 24.8563 34.1417 24.6784 34.1417 23.8808V21.4397C34.1417 21.4397 34.1417 20.9956 34.1854 20.7293C34.1854 20.6858 34.4091 20.1533 34.8991 20.2416C34.8991 20.2416 35.479 20.1968 35.434 21.0404V23.8808C35.434 23.8808 35.389 24.6348 35.3453 24.8563H37.7512C37.7512 24.8563 37.6175 24.3238 37.6175 23.8808C37.5737 23.8808 37.6175 21.4397 37.6175 21.4397C37.6175 21.4397 37.6175 20.7293 37.7962 20.5526C37.7962 20.5526 37.9749 20.1533 38.5098 20.1968C38.5098 20.1968 38.9998 20.2416 38.911 21.0404V23.8808C38.911 23.8808 38.911 24.6348 38.8211 24.8563H41.2282C41.2282 24.8563 41.0945 24.5017 41.0945 23.8808V20.3299C41.0945 20.3299 41.2282 18.5557 39.5797 18.6441C39.5797 18.6441 38.4199 18.5109 37.6175 19.576C37.6175 19.576 37.3063 18.3778 35.5677 18.6889C35.5677 18.6889 34.6766 18.822 34.1417 19.576V18.5557ZM45.4627 18.8668C43.6354 18.1564 42.2981 18.9103 42.2981 18.9103V19.8422C44.4828 18.9999 44.4378 20.9072 44.4378 20.9072C43.0352 21.0585 42.5034 21.5299 42.3479 21.6678C42.3205 21.6921 42.3048 21.706 42.2981 21.706C40.9846 23.0924 42.0167 24.1257 42.2529 24.3622C42.2812 24.3905 42.2981 24.4074 42.2981 24.4121C44.0366 25.6998 45.5964 24.3238 45.5964 24.3238C46.4875 25.1673 47.9148 24.8563 47.9148 24.8563V23.8808C47.4236 23.9692 47.3349 23.5698 47.3349 23.5698L46.6662 20.6858C46.328 19.4132 45.7045 19.0244 45.5172 18.9076C45.4824 18.8859 45.4627 18.8736 45.4627 18.8668ZM45.1502 23.6133L44.6603 21.7508C44.6603 21.7508 43.6804 21.9723 43.8141 23.0373C43.8141 23.0373 43.8141 23.7913 44.5715 23.836C44.5715 23.836 45.0177 23.7913 45.1502 23.6133ZM48.4048 21.0404C48.4048 20.0637 48.271 19.576 48.271 19.576L50.6782 18.4226V19.3545C50.6782 19.3993 50.722 19.3545 50.722 19.3545L50.7669 19.3097C50.8557 19.1766 50.9894 18.9999 51.0344 18.9999C51.7481 18.1564 52.7729 18.5557 52.7729 18.5557L52.3267 20.1968C52.1493 20.1085 51.6143 20.1085 51.6143 20.1085C50.6332 20.1968 50.6782 21.0404 50.6782 21.0404C50.6782 21.0404 50.722 23.9244 50.722 23.8808C50.722 24.4569 50.7669 24.8563 50.7669 24.8563H48.271C48.4048 24.5017 48.4048 23.8808 48.4048 23.8808V21.0404ZM52.5942 17.4459C52.5942 16.8699 53.1741 16.3809 53.9315 16.3809C54.6452 16.3809 55.2239 16.8699 55.2239 17.4459C55.2239 18.0232 54.6452 18.5109 53.9315 18.5109C53.1741 18.5109 52.5942 18.0232 52.5942 17.4459ZM52.8167 19.4876L55.0901 18.4226V23.8808C55.0901 24.279 55.1801 24.8563 55.1801 24.8563H52.6842C52.8167 24.6784 52.8167 23.8808 52.8167 23.8808V19.4876ZM58.3447 22.6379C59.0571 24.9011 61.2855 23.525 61.2855 23.525V24.5452C59.637 25.344 58.166 24.9011 58.121 24.8563C55.5813 24.0575 55.8925 21.4398 55.8925 21.4398C56.2937 18.1564 59.2358 18.6005 59.2358 18.6005C61.9992 18.7772 61.9992 21.6177 61.9992 21.6177L58.3447 22.6379ZM59.8595 21.2618L58.211 21.706C58.121 21.6177 58.166 21.2183 58.166 21.2183C58.166 19.6208 58.9234 19.6643 58.9234 19.6643C59.7707 19.576 59.8595 21.2618 59.8595 21.2618ZM68.8183 18.8668V19.9318C68.8183 19.9318 66.9023 18.9103 66.5011 21.0404C66.5011 21.0404 66.2336 22.2833 66.991 23.2587C66.991 23.2587 67.6159 24.3238 68.952 23.7029V24.7679C68.952 24.7679 67.081 25.4336 65.6987 24.6784C65.6537 24.6784 63.6927 23.6581 64.3164 20.9956C64.3164 20.9956 64.6738 18.7337 67.1698 18.6005C67.2585 18.6005 68.2396 18.6005 68.8183 18.8668ZM71.7604 16.3374C71.7612 16.3374 71.7612 16.3378 71.7604 16.3385V16.3374ZM71.7604 16.3385C71.7167 16.3815 69.3095 17.5791 69.3095 17.5791C69.3095 17.5791 69.4869 17.8018 69.4869 18.4674V23.8808C69.4869 23.8808 69.4869 24.59 69.3982 24.8563H71.8941C71.8941 24.8563 71.8054 24.6348 71.7604 23.8808V16.3385ZM73.009 18.8668C73.009 18.8668 74.3463 18.1116 76.1286 18.8668C76.1286 18.8668 76.9759 19.1766 77.3771 20.641C77.3321 20.6858 78.0458 23.5698 78.0458 23.5698C78.0458 23.5698 78.0895 23.9692 78.6245 23.836V24.8115C78.6245 24.8115 77.1534 25.1673 76.2623 24.279C76.2623 24.279 74.7025 25.655 73.009 24.3686C73.009 24.3637 72.9909 24.3461 72.9608 24.3167L72.9607 24.3167C72.7141 24.0767 71.6584 23.0494 73.009 21.706C73.0157 21.706 73.0303 21.6922 73.056 21.6678C73.2023 21.5294 73.7071 21.0519 75.1487 20.8624C75.1431 20.8624 75.1389 20.8339 75.1318 20.7855C75.0814 20.4423 74.8839 19.0986 73.009 19.7974V18.8668ZM75.3262 21.7508L75.8611 23.5698C75.7274 23.7913 75.2824 23.836 75.2824 23.836C74.48 23.7465 74.48 22.9925 74.48 22.9925C74.39 21.9275 75.3262 21.7508 75.3262 21.7508ZM78.9819 17.4459C78.9819 16.8699 79.5606 16.3809 80.2742 16.3809C81.0316 16.3809 81.6116 16.8699 81.6116 17.4459C81.6116 18.0232 81.0316 18.5109 80.2742 18.5109C79.5606 18.5109 78.9819 18.0232 78.9819 17.4459ZM79.1594 19.4876L81.4328 18.4226V23.8808C81.4328 24.279 81.5666 24.8563 81.5666 24.8563H79.0257C79.1594 24.6784 79.1594 23.8808 79.1594 23.8808V19.4876ZM82.414 19.576C82.414 19.576 82.5477 20.0637 82.5477 21.0404V23.8808C82.5477 23.8808 82.5477 24.5452 82.4577 24.8563H84.9099C84.9099 24.8563 84.8649 24.4569 84.8649 23.8808V21.0404C84.8649 21.0404 84.8199 20.1968 85.756 20.1085C85.756 20.1085 86.3359 20.1085 86.4697 20.1968L86.9159 18.5557C86.9159 18.5557 85.8897 18.1564 85.1773 18.9999C85.1323 18.9999 84.9986 19.1766 84.9549 19.3097C84.9271 19.3097 84.9165 19.3268 84.9018 19.3505L84.9017 19.3505C84.8927 19.3651 84.882 19.3822 84.8649 19.3993C84.8649 19.3993 84.8199 19.3993 84.8199 19.3545V18.4226L82.414 19.576ZM91.9964 23.525C91.9964 23.525 89.768 24.8563 89.0543 22.6379L92.7101 21.6177C92.7101 21.6177 92.7101 18.7772 89.9467 18.6005C89.9467 18.6005 87.0046 18.1564 86.6034 21.4398C86.6034 21.4398 86.2909 24.0575 88.8318 24.8563C88.8768 24.9011 90.3029 25.344 91.9964 24.5452V23.525ZM88.9206 21.706L90.5704 21.2618C90.5704 21.2618 90.4816 19.576 89.6342 19.6643C89.6342 19.6643 88.8768 19.6208 88.8768 21.2183C88.8768 21.2183 88.8319 21.6177 88.9206 21.706ZM112 21.8093H94.7273V21.2506H112V21.8093Z" fill="black"/>
</svg>
