<svg fill="none" height="80" viewBox="0 0 265 80" width="265" xmlns="http://www.w3.org/2000/svg"><path d="m8.62987 26.0648v-2.8178c-.17611-16.026 6.86853-23.071 21.31003-23.247 7.9252 0 18.844 2.8178 18.844 12.328 0 4.4029-3.3462 8.8057-7.749 8.8057s-7.9252-2.8178-8.1013-7.3968c0-2.9939 1.7611-5.1073 4.579-5.4595v-.17611c-1.4089-.17611-2.8178-.52834-4.2267-.52834-5.2834 0-5.8118 4.75505-5.8118 9.33405l.1761 8.9818h9.5102l.1761 9.158-9.6863.1762.1761 28.707c0 3.1701.8806 4.9312 4.0506 4.7551h4.7551v9.158l-36.632.1761v-9.158h4.9312c3.3462 0 4.0506-1.7611 4.0506-4.9312l-.17611-28.707h-8.4535v-9.158h8.2774zm49.66403 27.65c0 7.9252 1.9373 15.85 11.447 15.85 4.0506 0 10.391-3.1701 11.447-9.8624l13.209-.1761c-1.7611 13.737-14.97 19.549-27.298 19.725-19.549.1761-28.883-10.567-28.883-28.178-.1761-17.611 12.328-28.354 28.531-28.531 18.492-.1761 28.883 13.032 29.059 30.82l-37.512.3522zm17.259-9.158v-2.9939c0-5.8118-3.1701-9.6863-8.6296-9.6863s-8.6296 4.0506-8.4535 9.8624v2.8178zm43.8531-41.5632.176 21.1342 14.089-.1761.176 9.158-14.089.1761.176 31.172c0 2.4656 1.409 4.4029 4.051 4.4029 4.403 0 5.459-3.1701 5.459-8.2774l-.176-8.8057h9.158l.176 10.039c.176 11.095-5.459 17.259-19.02 17.435-11.8 0-18.316-5.4595-18.316-17.259l-.352-28.531h-7.7489v-9.158c11.4469-.1761 14.2649-11.8 15.1459-21.31zm72.559 55.4762c-.352 14.618-10.743 20.253-23.423 20.253-16.907.1761-28.178-9.158-28.354-28.178-.176-18.844 13.385-28.178 28.002-28.354 12.152-.1761 23.599 5.8118 23.599 18.316 0 5.9879-3.699 11.095-10.039 11.095-5.46 0-10.039-2.1134-10.039-8.2774 0-5.2834 3.522-8.2774 8.806-8.2774-2.114-2.4656-5.636-3.8745-9.158-3.8745-5.812 0-11.095 5.8118-11.095 19.02.176 13.032 3.346 18.844 11.271 18.668 5.811 0 8.629-5.1073 9.158-10.391h11.271zm26.241-57.061.176 30.82h.176c4.931-7.3968 10.391-10.567 19.549-10.567 13.032-.1761 17.259 7.3968 17.435 19.196l.176 21.662c0 3.1701.881 4.9312 4.051 4.7551h4.403v9.158l-33.814.1764-.176-9.1583h2.465c3.17 0 4.051-1.7611 4.051-4.9312l-.176-19.549c0-6.6924-1.057-11.095-8.806-11.095-5.283 0-8.454 4.9312-8.454 9.6863l.177 20.958c0 3.1701.88 4.9312 4.05 4.7551h2.818v9.158l-34.342.1761v-9.158h4.579c3.17 0 4.051-1.7611 4.051-4.9312l-.353-47.375c0-3.1701-.88-4.9312-4.05-4.9312h-4.755l-.176-9.15798 26.946.35223z" fill="#fff"/></svg>