<?xml version="1.0" encoding="UTF-8"?>
<svg width="265px" height="80px" viewBox="0 0 265 80" version="1.1" xmlns="http://www.w3.org/2000/svg" xmlns:xlink="http://www.w3.org/1999/xlink">
    <!-- Generator: Sketch 64 (93537) - https://sketch.com -->
    <title>Shape</title>
    <desc>Created with Sketch.</desc>
    <g id="Index" stroke="none" stroke-width="1" fill="none" fill-rule="evenodd">
        <g id="fetch" fill="#FFFFFF" fill-rule="nonzero">
            <path d="M8.62987,26.0648 L8.62987,23.247 C8.45376,7.221 15.49837,0.176 29.93987,-7.10542736e-15 C37.86507,-7.10542736e-15 48.78387,2.8178 48.78387,12.328 C48.78387,16.7309 45.43767,21.1337 41.03487,21.1337 C36.63207,21.1337 33.10967,18.3159 32.93357,13.7369 C32.93357,10.743 34.69467,8.6296 37.51257,8.2774 L37.51257,8.10129 C36.10367,7.92518 34.69477,7.57295 33.28587,7.57295 C28.00247,7.57295 27.47407,12.32805 27.47407,16.90705 L27.65018,25.88885 L37.16038,25.88885 L37.33649,35.04685 L27.65019,35.22296 L27.8263,63.92996 C27.8263,67.10006 28.70687,68.86116 31.8769,68.68506 L36.632,68.68506 L36.632,77.84306 L-1.70530257e-13,78.01917 L-1.70530257e-13,68.86117 L4.9312,68.86117 C8.2774,68.86117 8.9818,67.10007 8.9818,63.92997 L8.80569,35.22297 L0.35219,35.22297 L0.35219,26.06497 L8.62959,26.06497 L8.62987,26.0648 Z M58.29387,53.7148 C58.29387,61.64 60.23117,69.5648 69.74087,69.5648 C73.79147,69.5648 80.13187,66.3947 81.18787,59.7024 L94.39687,59.52629 C92.63577,73.26329 79.42687,79.07529 67.09887,79.25129 C47.54987,79.4274 38.21587,68.68429 38.21587,51.07329 C38.03976,33.46229 50.54387,22.71929 66.74687,22.54229 C85.23887,22.36618 95.62987,35.57429 95.80587,53.36229 L58.29387,53.71452 L58.29387,53.7148 Z M75.55287,44.5568 L75.55287,41.5629 C75.55287,35.7511 72.38277,31.8766 66.92327,31.8766 C61.46377,31.8766 58.29367,35.9272 58.46977,41.739 L58.46977,44.5568 L75.55287,44.5568 L75.55287,44.5568 Z M119.40587,2.9936 L119.58199,24.1278 L133.67099,23.95169 L133.8471,33.10969 L119.7581,33.2858 L119.93422,64.4578 C119.93422,66.9234 121.34312,68.8607 123.98482,68.8607 C128.38772,68.8607 129.44432,65.6906 129.44432,60.5833 L129.26821,51.7776 L138.42621,51.7776 L138.60233,61.8166 C138.77844,72.9116 133.14283,79.0756 119.58233,79.2516 C107.78233,79.2516 101.26633,73.7921 101.26633,61.9926 L100.9141,33.4616 L93.1651,33.4616 L93.1651,24.3036 C104.6121,24.12749 107.4301,12.5036 108.3111,2.9936 L119.4061,2.9936 L119.40587,2.9936 Z M191.96487,58.4698 C191.61264,73.0878 181.22187,78.7228 168.54187,78.7228 C151.63487,78.89891 140.36387,69.5648 140.18787,50.5448 C140.01176,31.7008 153.57287,22.3668 168.18987,22.1908 C180.34187,22.01469 191.78887,28.0026 191.78887,40.5068 C191.78887,46.4947 188.09047,51.6018 181.74987,51.6018 C176.29037,51.6018 171.71087,49.4884 171.71087,43.3244 C171.71087,38.041 175.23317,35.047 180.51657,35.047 C178.40317,32.5814 174.88087,31.1725 171.35857,31.1725 C165.54677,31.1725 160.26357,36.9843 160.26357,50.1925 C160.43969,63.2245 163.60977,69.0365 171.53457,68.8605 C177.34637,68.8605 180.16417,63.7532 180.69257,58.4695 L191.96357,58.4695 L191.96487,58.4698 Z M218.20587,1.4088 L218.38199,32.2288 L218.5581,32.2288 C223.4893,24.832 228.9491,21.6618 238.1071,21.6618 C251.1391,21.48569 255.3661,29.0586 255.5421,40.8578 L255.71821,62.5198 C255.71821,65.6899 256.59878,67.451 259.76881,67.2749 L264.17171,67.2749 L264.17171,76.4329 L230.35771,76.60932 L230.1816,67.45101 L232.6472,67.45101 C235.8173,67.45101 236.6978,65.68991 236.6978,62.51981 L236.52169,42.97081 C236.52169,36.27841 235.46499,31.87581 227.71599,31.87581 C222.43259,31.87581 219.26249,36.80701 219.26249,41.56211 L219.43861,62.52011 C219.43861,65.69021 220.31918,67.45131 223.48921,67.27521 L226.30701,67.27521 L226.30701,76.43321 L191.96501,76.60932 L191.96501,67.45132 L196.54401,67.45132 C199.71411,67.45132 200.59461,65.69022 200.59461,62.52012 L200.24238,15.14512 C200.24238,11.97502 199.36181,10.21392 196.19178,10.21392 L191.43668,10.21392 L191.26057,1.05592 L218.20657,1.40815 L218.20587,1.4088 Z" id="Shape"></path>
        </g>
    </g>
</svg>