<svg height="137.100418" viewBox="0 0 400 137.10041809" width="400" xmlns="http://www.w3.org/2000/svg"><g fill="#03234c"><path d="m0 0-.051 12.751c0 1.282.998 2.319 2.278 2.319h.25c1.281 0 2.32-1.037 2.32-2.319l.051-12.751c0-1.28-1.037-2.32-2.321-2.32h-.263c-1.284 0-2.264 1.04-2.264 2.32" transform="matrix(7.42297714 0 0 -7.42297714 130.153496 115.864266)"/><path d="m0 0 5.154-8.391c1.114-1.812 1.373-2.284 1.373-3.62 0-2.107-1.91-3.719-3.605-3.719h-6.959c-1.272 0-2.297.878-2.297 2.147v.145c0 1.268 1.025 2.295 2.297 2.295h4.266c.267 0 .437.036.507.205.078.185.057.289-.07.496l-3.039 4.877c-.051.081-.107.193-.203.193-.088 0-.164-.112-.205-.199l-4.647-7.97c-.72-1.265-1.572-2.189-2.842-2.189h-8.929c-1.69 0-3.393 1.667-3.393 3.394v11.53c0 1.267 1.026 2.296 2.291 2.296h.293c1.268 0 2.297-1.029 2.297-2.296l-.004-9.419c0-.348.252-.623.627-.623h4.44c.775 0 1.244.279 1.652.957l5.967 9.891c.57.941 1.482 1.444 2.558 1.444 1.041 0 1.866-.471 2.471-1.444" transform="matrix(7.42297714 0 0 -7.42297714 347.550228 15.179004)"/><path d="m0 0c-.346 0-.623-.279-.623-.624v-3.209c0-1.268-1.027-2.292-2.293-2.292h-.295c-1.266 0-2.293 1.024-2.293 2.292l.002 5.836c0 1.481 1.137 2.732 2.731 2.732h9.324c1.265 0 2.293-1.028 2.293-2.296v-.144c0-1.27-1.028-2.295-2.293-2.295z" transform="matrix(7.42297714 0 0 -7.42297714 44.856066 87.634684)"/></g><path d="m0 0h10.861c1.28 0 2.321-.999 2.321-2.278v-.144c0-1.285-1.041-2.323-2.321-2.323h-10.861c-1.281 0-2.32 1.038-2.32 2.323v.159c0 1.282 1.039 2.263 2.32 2.263" fill="#e51937" transform="matrix(7.42297714 0 0 -7.42297714 21.22873 6.449583)"/></svg>