<?xml version="1.0" encoding="UTF-8"?>
<svg width="91px" height="30px" viewBox="0 0 91 30" version="1.1" xmlns="http://www.w3.org/2000/svg" xmlns:xlink="http://www.w3.org/1999/xlink">
    <!-- Generator: Sketch 64 (93537) - https://sketch.com -->
    <title>fila</title>
    <desc>Created with Sketch.</desc>
    <g id="Index" stroke="none" stroke-width="1" fill="none" fill-rule="evenodd">
        <g id="Desktop-HD" transform="translate(-873.000000, -7006.000000)" fill="#000000" fill-rule="nonzero">
            <g id="fila" transform="translate(873.000000, 7006.000000)">
                <g id="Group">
                    <path d="M29.285633,3.97414788 L29.1977503,25.8165436 C29.1977503,28.0126028 30.917495,29.7889784 33.1231796,29.7889784 L33.5539774,29.7889784 C35.7613852,29.7889784 37.5517808,28.0126028 37.5517808,25.8165436 L37.6396636,3.97414788 C37.6396636,1.78151463 35.8527144,1.1543077e-07 33.640137,1.1543077e-07 L33.1869377,1.1543077e-07 C30.9743603,1.1543077e-07 29.285633,1.78151463 29.285633,3.97414788" id="Path" transform="translate(33.418707, 14.894489) scale(-1, 1) rotate(-180.000000) translate(-33.418707, -14.894489) "></path>
                    <path d="M79.7527315,26.972815 L88.6340585,12.5990763 C90.5536935,9.49512986 91,8.68659635 91,6.3980354 C91,2.78875551 87.7087049,0.0274080142 84.787896,0.0274080142 L72.7962089,0.0274080142 C70.6043098,0.0274080142 68.8380389,1.53141738 68.8380389,3.70520769 L68.8380389,3.95359192 C68.8380389,6.12566923 70.6043098,7.88491482 72.7962089,7.88491482 L80.1473423,7.88491482 C80.6074343,7.88491482 80.9003768,7.94658263 81.0210002,8.23607873 C81.1554091,8.55298276 81.1192221,8.73113421 80.9003768,9.08572412 L75.663599,17.4399994 C75.5757162,17.578752 75.4792175,17.7706074 75.3137912,17.7706074 C75.1621504,17.7706074 75.0311878,17.578752 74.960537,17.4297214 L66.9528678,3.77715347 C65.7121702,1.61021514 64.2440114,0.0274080142 62.0555587,0.0274080142 L46.6691852,0.0274080142 C43.7569922,0.0274080142 40.8223977,2.88297022 40.8223977,5.84131211 L40.8223977,25.5921413 C40.8223977,27.7625056 42.5903918,29.5251772 44.7702285,29.5251772 L45.2751235,29.5251772 C47.4601299,29.5251772 49.2332935,27.7625056 49.2332935,25.5921413 L49.2264008,9.45744397 C49.2264008,8.86132181 49.6606449,8.39024826 50.3068416,8.39024826 L57.9578102,8.39024826 C59.2932833,8.39024826 60.1014599,8.86817379 60.8045219,10.0295842 L71.0868033,26.972815 C72.0690223,28.5847431 73.6405726,29.4463794 75.4947262,29.4463794 C77.2885682,29.4463794 78.7102009,28.6395589 79.7527315,26.972815" id="Path" transform="translate(65.911199, 14.776293) scale(-1, 1) rotate(-180.000000) translate(-65.911199, -14.776293) "></path>
                    <path d="M9.48444389,21.6813744 C8.88821976,21.6813744 8.41089582,21.2034488 8.41089582,20.6124657 L8.41089582,15.1154656 C8.41089582,12.9433883 6.64117854,11.1892817 4.45961858,11.1892817 L3.9512772,11.1892817 C1.76971724,11.1892817 -4.14514304e-08,12.9433883 -4.14514304e-08,15.1154656 L0.00344634079,25.1125028 C0.00344634079,27.649448 1.96271465,29.7924044 4.70948129,29.7924044 L20.7765153,29.7924044 C22.9563521,29.7924044 24.7277926,28.0314458 24.7277926,25.8593685 L24.7277926,25.6126973 C24.7277926,23.437194 22.9563521,21.6813744 20.7765153,21.6813744 L9.48444389,21.6813744 Z" id="Path" transform="translate(12.363896, 20.490843) scale(-1, 1) rotate(-180.000000) translate(-12.363896, -20.490843) "></path>
                </g>
                <path d="M4.04076893,10 L22.9574894,10 C25.1868791,10 27,8.10516333 27,5.67924131 L27,5.4061117 C27,2.96880927 25.1868791,1 22.9574894,1 L4.04076893,1 C1.80963747,1 0,2.96880927 0,5.4061117 L0,5.70769231 C0,8.13930453 1.80963747,10 4.04076893,10" id="Path" transform="translate(13.500000, 5.500000) scale(-1, 1) rotate(-180.000000) translate(-13.500000, -5.500000) "></path>
            </g>
        </g>
    </g>
</svg>