<svg height="204" width="398" xmlns="http://www.w3.org/2000/svg"><g fill="#ee1c23" transform="matrix(3.4518946 0 0 3.4518946 -110.244884 -1910.46556)"><path d="m147.2365 611.4952h-16.024l-3.856-6.466h-16.378l5.955-10.184h4.78l-6.756-12.29c-6.409 10.36-11.083 24.989-24.753 28.568-10.306 3.203-21.89 1.015-29.474-6.514-7.957-8.011-11.104-20.025-7.155-30.918 3.205-9.984 13.35-17.833 23.546-19.06 4.38-.586 8.97-.244 12.817 1.091 0 0 4.621 1.627 6.084 2.484l-7.365 12.442c-3.683-2.615-9.294-2.615-13.456-1.015-5.449 2.189-9.077 7.85-9.077 13.668 0 5.611 3.152 10.736 8.167 13.46 4.436 2.242 10.839 2.024 14.899-.75 2.136-1.331 3.793-3.577 5.124-5.661l20.612-36.896z"/><path d="m46.2605 611.4982-14.323-.003v-56.412h14.312l.011 56.422z"/></g></svg>