<svg enable-background="new -0.581 -0.277 155 69" height="69" viewBox="-.581 -.277 155 69" width="155" xmlns="http://www.w3.org/2000/svg"><g clip-rule="evenodd" fill-rule="evenodd"><path d="m19.6 68.104c0-2.854 0-6.83 0-6.83 0-2.408-.936-4.959-4.631-4.959-2.479 0-3.789 1.146-4.537 2.293-.608-1.473-2.316-2.293-4.023-2.293-2.362 0-3.625 1.264-4.21 1.988v-1.895h-2.199v11.695h2.198v-7.414c.398-1.193 1.427-2.643 3.626-2.643 1.73 0 3.04 1.332 3.04 3.297v6.76h2.082s0-6.689 0-6.76c0-1.426 1.053-3.297 3.462-3.297 2.175 0 3.017 1.473 3.017 3.367v6.689h2.175z"/><path d="m35.714 68.033v-1.404c-.07.025-.654 0-.842 0-.538-.021-.749-.373-.749-1.309 0-1.824 0-4.047 0-5.123 0-2.666-1.895-3.904-5.262-3.904-.187 0-.351 0-.538.021v1.592h.444c2.315 0 3.111.771 3.111 1.777 0 .443-.468.865-3.555 1.17v1.332c.117 0 .21-.023.328-.023 1.754-.164 2.83-.443 3.321-.865-.024.656-.024 2.035-.094 2.877-.117 1.217-1.45 2.34-3.555 2.549v1.404c1.356-.164 2.666-.631 3.789-1.637.117.936.538 1.66 1.848 1.66.585 0 1.287-.07 1.754-.117zm-7.39-11.719c-2.456.117-4.14 1.123-5.192 2.41l1.263 1.053c.865-1.24 2.362-1.777 3.929-1.871zm0 4.54c-.047 0-.094 0-.164 0-2.877.256-5.754.982-5.754 3.836 0 2.197 1.544 3.508 4.491 3.508.468 0 .959-.023 1.427-.07v-1.404c-.234.023-.468.023-.725.023-2.058 0-2.923-.678-2.923-2.012 0-1.73 1.567-2.314 3.648-2.549z"/><path d="m50.403 64.713-2.128-.352c-.795 1.66-2.082 2.268-4.046 2.268-2.082 0-4.303-1.285-4.303-4.326 0-2.924 1.848-4.443 4.28-4.443 1.848 0 3.368.795 3.977 2.199l2.198-.398c-.772-2.035-2.97-3.367-6.198-3.367-3.906 0-6.479 2.244-6.479 5.963 0 4.047 2.854 5.918 6.525 5.918 3.04-.001 5.215-.937 6.174-3.462z"/><path d="m60.319 58.186v-1.871c-.07 0-.164 0-.21 0-2.316 0-3.719.914-4.631 2.199v-2.082h-2.198v11.672h2.198v-7.367c.702-1.475 2.012-2.666 4.187-2.666.187-.001.514.07.654.115z"/><path d="m75.429 62.256c0-3.859-2.876-5.963-6.783-5.963h-.023v1.543h.023c2.315 0 4.584 1.355 4.584 4.42 0 2.643-1.731 4.373-4.584 4.373h-.023v1.568h.023c3.906 0 6.783-2.246 6.783-5.941zm-6.806-5.963c-4.046 0-6.783 2.314-6.783 5.963 0 3.789 2.643 5.941 6.783 5.941v-1.568c-2.409 0-4.584-1.379-4.584-4.373 0-2.807 2.105-4.42 4.584-4.42z"/><path d="m98.186 68.104c0-2.854 0-6.83 0-6.83 0-2.408-.912-4.959-4.631-4.959-2.479 0-3.789 1.146-4.514 2.293-.608-1.473-2.339-2.293-4.046-2.293-2.339 0-3.602 1.264-4.188 1.988v-1.895h-2.198v11.695h2.198v-7.414c.375-1.193 1.404-2.643 3.626-2.643 1.707 0 3.017 1.332 3.017 3.297v6.76h2.082s0-6.689 0-6.76c0-1.426 1.076-3.297 3.484-3.297 2.176 0 2.994 1.473 2.994 3.367v6.689h2.176z"/><path d="m114.301 62.701c.023-4.117-2.503-6.387-6.549-6.408v1.496c2.198.023 3.952 1.006 4.327 3.555h-4.327v1.357zm-6.549 5.496c3.204 0 5.31-1.428 6.198-3.416l-2.128-.373c-.655 1.449-2.082 2.27-4.07 2.27zm0-11.904c-.023 0-.047 0-.07 0-3.602 0-6.502 2.314-6.502 5.799 0 4.094 2.666 6.105 6.525 6.105h.047v-1.52c-.023 0-.023 0-.047 0-2.292 0-4.233-1.381-4.327-3.977h4.374v-1.357h-4.327c.164-2.152 2.222-3.555 4.28-3.555h.047z"/><path d="m129.55 68.104v-16.747h-2.175v6.875c-.678-.936-2.245-1.824-4.304-1.918v1.498h.117c2.198 0 4.023 1.496 4.163 2.994 0 .094.023.865.023 1.355 0 .516-.023 1.311-.023 1.404-.046 1.52-1.661 3.156-4.14 3.156-.047 0-.094 0-.141 0v1.451c2.292-.07 3.742-1.053 4.327-1.965v1.895h2.153zm-6.479-11.79c-.093 0-.21 0-.327 0-3.368 0-6.175 2.152-6.175 5.918 0 3.836 2.644 5.941 6.222 5.941h.28v-1.451c-2.269-.045-4.279-1.426-4.279-4.49 0-2.549 1.543-4.373 4.279-4.42z"/><path d="m135.562 54.654v-2.244h-2.269v2.244zm-.024 13.45v-11.696h-2.199v11.695h2.199z"/><path d="m151.652 68.033v-1.404c-.069.025-.654 0-.842 0-.538-.021-.748-.373-.748-1.309 0-1.824 0-4.047 0-5.123 0-2.666-1.895-3.904-5.263-3.904-.188 0-.374 0-.538.021v1.592h.444c2.315 0 3.11.771 3.11 1.777 0 .443-.468.865-3.555 1.17v1.332c.094 0 .211-.023.328-.023 1.753-.164 2.829-.443 3.32-.865-.023.656-.023 2.035-.094 2.877-.116 1.217-1.449 2.34-3.555 2.549v1.404c1.356-.164 2.666-.631 3.789-1.637.117.936.538 1.66 1.848 1.66.587 0 1.289-.07 1.756-.117zm-7.39-11.719c-2.455.117-4.14 1.123-5.192 2.41l1.263 1.053c.866-1.24 2.362-1.777 3.93-1.871v-1.592zm0 4.54c-.047 0-.094 0-.164 0-2.876.256-5.753.982-5.753 3.836 0 2.197 1.543 3.508 4.49 3.508.468 0 .959-.023 1.427-.07v-1.404c-.233.023-.468.023-.725.023-2.059 0-2.924-.678-2.924-2.012 0-1.73 1.567-2.314 3.648-2.549v-1.332z"/><path d="m88.683 3.895c5.191 5.192 5.191 13.589 0 18.781l-23.483 23.458c-5.192 5.192-13.589 5.192-18.781 0-5.192-5.191-5.192-13.588 0-18.757l23.482-23.482c5.192-5.193 13.588-5.193 18.782 0z"/><path d="m126.314 4.059 23.482 23.154c5.192 5.192 5.192 13.589 0 18.782-5.192 5.19-13.612 5.19-18.805 0l-14.08-14.385-14.104 14.385c-5.146 5.19-13.565 5.19-18.757 0-5.193-5.193-5.193-13.59 0-18.782l23.46-23.154c5.192-5.193 13.612-5.193 18.804 0z" fill="#4764af"/></g><text font-family="'MyriadPro-Regular'" font-size="14.069" transform="matrix(.9121 0 0 1 134.1602 12.2021)">®</text></svg>