<?xml version="1.0" encoding="UTF-8"?>
<svg width="133px" height="59px" viewBox="0 0 133 59" version="1.1" xmlns="http://www.w3.org/2000/svg" xmlns:xlink="http://www.w3.org/1999/xlink">
    <!-- Generator: Sketch 64 (93537) - https://sketch.com -->
    <title>macromedia</title>
    <desc>Created with Sketch.</desc>
    <g id="Index" stroke="none" stroke-width="1" fill="none" fill-rule="evenodd">
        <g id="Desktop-HD" transform="translate(-186.000000, -7031.000000)" fill="#000000">
            <g id="macromedia" transform="translate(186.000000, 7029.000000)">
                <g id="Group" transform="translate(0.000000, 2.000000)" fill-rule="nonzero">
                    <path d="M16.9272727,58.2338551 C16.9272727,55.7934783 16.9272727,52.3937101 16.9272727,52.3937101 C16.9272727,50.3346957 16.1189091,48.1534058 12.9277727,48.1534058 C10.7868182,48.1534058 9.65545455,49.1333188 9.00945455,50.114087 C8.48436364,48.8545652 7.00927273,48.1534058 5.53504545,48.1534058 C3.49513636,48.1534058 2.40436364,49.2342174 1.89913636,49.8532899 L1.89913636,48.2329275 L2.30118954e-15,48.2329275 L2.30118954e-15,58.233 L1.89827273,58.233 L1.89827273,51.8934928 C2.242,50.8733913 3.13068182,49.6335362 5.02981818,49.6335362 C6.52390909,49.6335362 7.65527273,50.7724928 7.65527273,52.4527101 L7.65527273,58.233 L9.45336364,58.233 C9.45336364,58.233 9.45336364,52.5134203 9.45336364,52.4527101 C9.45336364,51.2333768 10.3627727,49.6335362 12.4432727,49.6335362 C14.3216818,49.6335362 15.0488636,50.893058 15.0488636,52.5125652 L15.0488636,58.2321449 L16.9272727,58.2321449 L16.9272727,58.2338551 Z" id="Path"></path>
                    <path d="M30.8439091,58.1731449 L30.8439091,56.9726232 C30.7834545,56.994 30.2790909,56.9726232 30.1167273,56.9726232 C29.6520909,56.9546667 29.4698636,56.6536812 29.4698636,55.8533333 C29.4698636,54.2936812 29.4698636,52.3928551 29.4698636,51.4727971 C29.4698636,49.1931739 27.8332727,48.1345942 24.9254091,48.1345942 C24.7639091,48.1345942 24.6222727,48.1345942 24.4607727,48.1525507 L24.4607727,49.5138261 L24.8442273,49.5138261 C26.8435455,49.5138261 27.531,50.173087 27.531,51.0332899 C27.531,51.412087 27.1268182,51.7729275 24.4607727,52.0337246 L24.4607727,53.1726812 C24.5618182,53.1726812 24.6421364,53.1530145 24.7440455,53.1530145 C26.2588636,53.0127826 27.1881364,52.7742174 27.6121818,52.4133768 C27.5914545,52.9743043 27.5914545,54.1534493 27.531,54.8734203 C27.4299545,55.9140435 26.2787273,56.8742899 24.4607727,57.053 L24.4607727,58.2535217 C25.6318636,58.1132899 26.7632273,57.713971 27.7330909,56.8537681 C27.8341364,57.6541159 28.1977273,58.2731884 29.3290909,58.2731884 C29.8343182,58.2731884 30.4405909,58.2133333 30.8439091,58.1731449 L30.8439091,58.1731449 Z M24.4616364,48.1525507 C22.3405455,48.2525942 20.8861818,49.1127971 19.9776364,50.2132754 L21.0684091,51.1136667 C21.8154545,50.0533768 23.1083182,49.5942029 24.4616364,49.5138261 L24.4616364,48.1525507 Z M24.4616364,52.0345797 C24.4210455,52.0345797 24.3804545,52.0345797 24.32,52.0345797 C21.8353182,52.2534783 19.3506364,52.8742609 19.3506364,55.3146377 C19.3506364,57.1932319 20.6840909,58.3142319 23.2292273,58.3142319 C23.6334091,58.3142319 24.0574545,58.2945652 24.4616364,58.2543768 L24.4616364,57.0538551 C24.2595455,57.0735217 24.0574545,57.0735217 23.8355,57.0735217 C22.0581364,57.0735217 21.3110909,56.4937826 21.3110909,55.3531159 C21.3110909,53.8738406 22.6644091,53.3744783 24.4616364,53.1735362 L24.4616364,52.0345797 Z" id="Shape"></path>
                    <path d="M43.5298636,55.3343043 L41.6920455,55.0333188 C41.0054545,56.4527391 39.8939545,56.9726232 38.1977727,56.9726232 C36.3996818,56.9726232 34.4815455,55.8738551 34.4815455,53.2735797 C34.4815455,50.7733478 36.0775455,49.4744928 38.1779091,49.4744928 C39.7739091,49.4744928 41.0866364,50.1542754 41.6125909,51.3547971 L43.5108636,51.0144783 C42.8441364,49.2744058 40.9458636,48.1354493 38.1580455,48.1354493 C34.7846818,48.1354493 32.5625455,50.0542319 32.5625455,53.2342464 C32.5625455,56.6947246 35.0273636,58.2945652 38.1977727,58.2945652 C40.8232273,58.2937101 42.7016364,57.4933623 43.5298636,55.3343043 Z" id="Path"></path>
                    <path d="M52.0936818,49.7532464 L52.0936818,48.1534058 C52.0332273,48.1534058 51.9520455,48.1534058 51.9123182,48.1534058 C49.9121364,48.1534058 48.7004545,48.934942 47.9128182,50.0337101 L47.9128182,48.2534493 L46.0145455,48.2534493 L46.0145455,58.2338551 L47.9128182,58.2338551 L47.9128182,51.9345362 C48.5190909,50.6733043 49.6504545,49.654913 51.5288636,49.654913 C51.6903636,49.654058 51.9727727,49.7147681 52.0936818,49.7532464 L52.0936818,49.7532464 Z" id="Path"></path>
                    <path d="M65.1432273,53.2333913 C65.1432273,49.9336667 62.6594091,48.1345942 59.2851818,48.1345942 L59.2653182,48.1345942 L59.2653182,49.453971 L59.2851818,49.453971 C61.2845,49.453971 63.2440909,50.6125942 63.2440909,53.2333913 C63.2440909,55.4933478 61.7491364,56.9726232 59.2851818,56.9726232 L59.2653182,56.9726232 L59.2653182,58.3133768 L59.2851818,58.3133768 C62.6585455,58.3133768 65.1432273,56.3928841 65.1432273,53.2333913 Z M59.2653182,48.1345942 C55.7710455,48.1345942 53.4072727,50.1132319 53.4072727,53.2333913 C53.4072727,56.4732609 55.6898636,58.3133768 59.2653182,58.3133768 L59.2653182,56.9726232 C57.1848182,56.9726232 55.3064091,55.7934783 55.3064091,53.2333913 C55.3064091,50.8332029 57.1243636,49.453971 59.2653182,49.453971 L59.2653182,48.1345942 Z" id="Shape"></path>
                    <path d="M84.797,58.2338551 C84.797,55.7934783 84.797,52.3937101 84.797,52.3937101 C84.797,50.3346957 84.0093636,48.1534058 80.7975,48.1534058 C78.6565455,48.1534058 77.5251818,49.1333188 76.8990455,50.114087 C76.3739545,48.8545652 74.879,48.1534058 73.4047727,48.1534058 C71.3847273,48.1534058 70.2939545,49.2342174 69.7878636,49.8532899 L69.7878636,48.2329275 L67.8895909,48.2329275 L67.8895909,58.233 L69.7878636,58.233 L69.7878636,51.8934928 C70.1117273,50.8733913 71.0004091,49.6335362 72.9194091,49.6335362 C74.3936364,49.6335362 75.525,50.7724928 75.525,52.4527101 L75.525,58.233 L77.3230909,58.233 C77.3230909,58.233 77.3230909,52.5134203 77.3230909,52.4527101 C77.3230909,51.2333768 78.2523636,49.6335362 80.332,49.6335362 C82.2112727,49.6335362 82.9177273,50.893058 82.9177273,52.5125652 L82.9177273,58.2321449 L84.797,58.2321449 L84.797,58.2338551 Z" id="Path"></path>
                    <path d="M98.7145,53.6138986 C98.7343636,50.0935652 96.5528182,48.1525507 93.0585455,48.1345942 L93.0585455,49.4137826 C94.9568182,49.4334493 96.4716364,50.2739855 96.7955,52.4535652 L93.0585455,52.4535652 L93.0585455,53.6138986 L98.7145,53.6138986 Z M93.0585455,58.3133768 C95.8256364,58.3133768 97.6444545,57.0923333 98.4113636,55.3924493 L96.5735455,55.0735072 C96.0078636,56.3125072 94.7754545,57.0145217 93.0585455,57.0145217 L93.0585455,58.3133768 Z M93.0585455,48.1345942 C93.0386818,48.1345942 93.0179545,48.1345942 92.9980909,48.1345942 C89.8872727,48.1345942 87.3827273,50.1132319 87.3827273,53.0931594 C87.3827273,56.5938261 89.6851818,58.3133768 93.0179545,58.3133768 L93.0585455,58.3133768 L93.0585455,57.0136667 C93.0386818,57.0136667 93.0386818,57.0136667 93.0179545,57.0136667 C91.0385,57.0136667 89.3621818,55.8328116 89.281,53.6130435 L93.0585455,53.6130435 L93.0585455,52.4527101 L89.3215909,52.4527101 C89.4632273,50.6125942 91.2405909,49.4129275 93.0179545,49.4129275 L93.0585455,49.4129275 L93.0585455,48.1345942 Z" id="Shape"></path>
                    <path d="M111.884091,58.2338551 L111.884091,43.9139565 L110.005682,43.9139565 L110.005682,49.7925797 C109.420136,48.9922319 108.066818,48.2329275 106.288591,48.1525507 L106.288591,49.4334493 L106.389636,49.4334493 C108.287909,49.4334493 109.864045,50.7126377 109.984955,51.9935362 C109.984955,52.073913 110.004818,52.7331739 110.004818,53.1521594 C110.004818,53.5933768 109.984955,54.2731594 109.984955,54.3526812 C109.945227,55.6523913 108.550455,57.0512899 106.4095,57.0512899 C106.368909,57.0512899 106.328318,57.0512899 106.287727,57.0512899 L106.287727,58.292 C108.267182,58.2321449 109.519455,57.3916087 110.024682,56.6117826 L110.024682,58.2321449 L111.884091,58.2321449 L111.884091,58.2338551 Z M106.288591,48.1525507 C106.208273,48.1525507 106.107227,48.1525507 106.006182,48.1525507 C103.097455,48.1525507 100.673227,49.9926667 100.673227,53.2128696 C100.673227,56.4929275 102.956682,58.2928551 106.046773,58.2928551 L106.288591,58.2928551 L106.288591,57.0521449 C104.329,57.0136667 102.593091,55.8328116 102.593091,53.2128696 C102.593091,51.0332899 103.925682,49.4736377 106.288591,49.4334493 L106.288591,48.1525507 Z" id="Shape"></path>
                    <path d="M117.076273,46.7331304 L117.076273,44.8143478 L115.116682,44.8143478 L115.116682,46.7331304 L117.076273,46.7331304 Z M117.055545,58.2338551 L117.055545,48.2329275 L115.156409,48.2329275 L115.156409,58.233 L117.055545,58.233 L117.055545,58.2338551 Z" id="Shape"></path>
                    <path d="M130.972182,58.1731449 L130.972182,56.9726232 C130.912591,56.994 130.407364,56.9726232 130.245,56.9726232 C129.780364,56.9546667 129.599,56.6536812 129.599,55.8533333 C129.599,54.2936812 129.599,52.3928551 129.599,51.4727971 C129.599,49.1931739 127.962409,48.1345942 125.053682,48.1345942 C124.891318,48.1345942 124.730682,48.1345942 124.589045,48.1525507 L124.589045,49.5138261 L124.9725,49.5138261 C126.971818,49.5138261 127.658409,50.173087 127.658409,51.0332899 C127.658409,51.412087 127.254227,51.7729275 124.588182,52.0337246 L124.588182,53.1726812 C124.669364,53.1726812 124.770409,53.1530145 124.871455,53.1530145 C126.385409,53.0127826 127.314682,52.7742174 127.738727,52.4133768 C127.718864,52.9743043 127.718864,54.1534493 127.657545,54.8734203 C127.557364,55.9140435 126.406136,56.8742899 124.587318,57.053 L124.587318,58.2535217 C125.758409,58.1132899 126.889773,57.713971 127.859636,56.8537681 C127.960682,57.6541159 128.324273,58.2731884 129.455636,58.2731884 C129.962591,58.2731884 130.568864,58.2133333 130.972182,58.1731449 L130.972182,58.1731449 Z M124.589909,48.1525507 C122.469682,48.2525942 121.014455,49.1127971 120.105909,50.2132754 L121.196682,51.1136667 C121.944591,50.0533768 123.236591,49.5942029 124.590773,49.5138261 L124.590773,48.1525507 L124.589909,48.1525507 Z M124.589909,52.0345797 C124.549318,52.0345797 124.508727,52.0345797 124.448273,52.0345797 C121.964455,52.2534783 119.479773,52.8742609 119.479773,55.3146377 C119.479773,57.1932319 120.812364,58.3142319 123.3575,58.3142319 C123.761682,58.3142319 124.185727,58.2945652 124.589909,58.2543768 L124.589909,57.0538551 C124.388682,57.0735217 124.185727,57.0735217 123.963773,57.0735217 C122.185545,57.0735217 121.4385,56.4937826 121.4385,55.3531159 C121.4385,53.8738406 122.791818,53.3744783 124.589045,53.1735362 L124.589045,52.0345797 L124.589909,52.0345797 Z" id="Shape"></path>
                    <path d="M76.5898636,3.33050725 C81.073,7.77004348 81.073,14.950087 76.5898636,19.3896232 L56.3090909,39.447913 C51.8250909,43.8874493 44.5731364,43.8874493 40.0891364,39.447913 C35.6051364,35.0092319 35.6051364,27.8291884 40.0891364,23.4093188 L60.3690455,3.33050725 C64.8530455,-1.10988406 72.1041364,-1.10988406 76.5898636,3.33050725 Z" id="Path"></path>
                    <path d="M109.089364,3.47073913 L129.369273,23.269087 C133.853273,27.7086232 133.853273,34.8886667 129.369273,39.329058 C124.885273,43.7668841 117.613455,43.7668841 113.128591,39.329058 L100.968591,27.0288406 L88.7878636,39.329058 C84.3435909,43.7668841 77.0726364,43.7668841 72.5886364,39.329058 C68.1037727,34.8886667 68.1037727,27.7086232 72.5886364,23.269087 L92.8495455,3.47073913 C97.3335455,-0.969652174 104.605364,-0.969652174 109.089364,3.47073913 Z" id="Path"></path>
                </g>
                <text id="®" font-family="Helvetica" font-size="14.069" font-weight="normal">
                    <tspan x="116" y="14">®</tspan>
                </text>
            </g>
        </g>
    </g>
</svg>