<?xml version="1.0" encoding="UTF-8"?>
<svg width="154px" height="69px" viewBox="0 0 154 69" version="1.1" xmlns="http://www.w3.org/2000/svg" xmlns:xlink="http://www.w3.org/1999/xlink">
    <!-- Generator: Sketch 64 (93537) - https://sketch.com -->
    <title>macromedia</title>
    <desc>Created with Sketch.</desc>
    <g id="Page-1" stroke="none" stroke-width="1" fill="none" fill-rule="evenodd">
        <g id="Artboard" transform="translate(-222.000000, -140.000000)" fill="#000000">
            <g id="macromedia" transform="translate(222.000000, 138.000000)">
                <g id="Group" transform="translate(0.000000, 2.000000)" fill-rule="nonzero">
                    <path d="M19.6,68.104 C19.6,65.25 19.6,61.274 19.6,61.274 C19.6,58.866 18.664,56.315 14.969,56.315 C12.49,56.315 11.18,57.461 10.432,58.608 C9.824,57.135 8.116,56.315 6.409,56.315 C4.047,56.315 2.784,57.579 2.199,58.303 L2.199,56.408 L2.66453526e-15,56.408 L2.66453526e-15,68.103 L2.198,68.103 L2.198,60.689 C2.596,59.496 3.625,58.046 5.824,58.046 C7.554,58.046 8.864,59.378 8.864,61.343 L8.864,68.103 L10.946,68.103 C10.946,68.103 10.946,61.414 10.946,61.343 C10.946,59.917 11.999,58.046 14.408,58.046 C16.583,58.046 17.425,59.519 17.425,61.413 L17.425,68.102 L19.6,68.102 L19.6,68.104 Z" id="Path"></path>
                    <path d="M35.714,68.033 L35.714,66.629 C35.644,66.654 35.06,66.629 34.872,66.629 C34.334,66.608 34.123,66.256 34.123,65.32 C34.123,63.496 34.123,61.273 34.123,60.197 C34.123,57.531 32.228,56.293 28.861,56.293 C28.674,56.293 28.51,56.293 28.323,56.314 L28.323,57.906 L28.767,57.906 C31.082,57.906 31.878,58.677 31.878,59.683 C31.878,60.126 31.41,60.548 28.323,60.853 L28.323,62.185 C28.44,62.185 28.533,62.162 28.651,62.162 C30.405,61.998 31.481,61.719 31.972,61.297 C31.948,61.953 31.948,63.332 31.878,64.174 C31.761,65.391 30.428,66.514 28.323,66.723 L28.323,68.127 C29.679,67.963 30.989,67.496 32.112,66.49 C32.229,67.426 32.65,68.15 33.96,68.15 C34.545,68.15 35.247,68.08 35.714,68.033 L35.714,68.033 Z M28.324,56.314 C25.868,56.431 24.184,57.437 23.132,58.724 L24.395,59.777 C25.26,58.537 26.757,58 28.324,57.906 L28.324,56.314 Z M28.324,60.854 C28.277,60.854 28.23,60.854 28.16,60.854 C25.283,61.11 22.406,61.836 22.406,64.69 C22.406,66.887 23.95,68.198 26.897,68.198 C27.365,68.198 27.856,68.175 28.324,68.128 L28.324,66.724 C28.09,66.747 27.856,66.747 27.599,66.747 C25.541,66.747 24.676,66.069 24.676,64.735 C24.676,63.005 26.243,62.421 28.324,62.186 L28.324,60.854 Z" id="Shape"></path>
                    <path d="M50.403,64.713 L48.275,64.361 C47.48,66.021 46.193,66.629 44.229,66.629 C42.147,66.629 39.926,65.344 39.926,62.303 C39.926,59.379 41.774,57.86 44.206,57.86 C46.054,57.86 47.574,58.655 48.183,60.059 L50.381,59.661 C49.609,57.626 47.411,56.294 44.183,56.294 C40.277,56.294 37.704,58.538 37.704,62.257 C37.704,66.304 40.558,68.175 44.229,68.175 C47.269,68.174 49.444,67.238 50.403,64.713 Z" id="Path"></path>
                    <path d="M60.319,58.186 L60.319,56.315 C60.249,56.315 60.155,56.315 60.109,56.315 C57.793,56.315 56.39,57.229 55.478,58.514 L55.478,56.432 L53.28,56.432 L53.28,68.104 L55.478,68.104 L55.478,60.737 C56.18,59.262 57.49,58.071 59.665,58.071 C59.852,58.07 60.179,58.141 60.319,58.186 L60.319,58.186 Z" id="Path"></path>
                    <path d="M75.429,62.256 C75.429,58.397 72.553,56.293 68.646,56.293 L68.623,56.293 L68.623,57.836 L68.646,57.836 C70.961,57.836 73.23,59.191 73.23,62.256 C73.23,64.899 71.499,66.629 68.646,66.629 L68.623,66.629 L68.623,68.197 L68.646,68.197 C72.552,68.197 75.429,65.951 75.429,62.256 Z M68.623,56.293 C64.577,56.293 61.84,58.607 61.84,62.256 C61.84,66.045 64.483,68.197 68.623,68.197 L68.623,66.629 C66.214,66.629 64.039,65.25 64.039,62.256 C64.039,59.449 66.144,57.836 68.623,57.836 L68.623,56.293 Z" id="Shape"></path>
                    <path d="M98.186,68.104 C98.186,65.25 98.186,61.274 98.186,61.274 C98.186,58.866 97.274,56.315 93.555,56.315 C91.076,56.315 89.766,57.461 89.041,58.608 C88.433,57.135 86.702,56.315 84.995,56.315 C82.656,56.315 81.393,57.579 80.807,58.303 L80.807,56.408 L78.609,56.408 L78.609,68.103 L80.807,68.103 L80.807,60.689 C81.182,59.496 82.211,58.046 84.433,58.046 C86.14,58.046 87.45,59.378 87.45,61.343 L87.45,68.103 L89.532,68.103 C89.532,68.103 89.532,61.414 89.532,61.343 C89.532,59.917 90.608,58.046 93.016,58.046 C95.192,58.046 96.01,59.519 96.01,61.413 L96.01,68.102 L98.186,68.102 L98.186,68.104 Z" id="Path"></path>
                    <path d="M114.301,62.701 C114.324,58.584 111.798,56.314 107.752,56.293 L107.752,57.789 C109.95,57.812 111.704,58.795 112.079,61.344 L107.752,61.344 L107.752,62.701 L114.301,62.701 Z M107.752,68.197 C110.956,68.197 113.062,66.769 113.95,64.781 L111.822,64.408 C111.167,65.857 109.74,66.678 107.752,66.678 L107.752,68.197 Z M107.752,56.293 C107.729,56.293 107.705,56.293 107.682,56.293 C104.08,56.293 101.18,58.607 101.18,62.092 C101.18,66.186 103.846,68.197 107.705,68.197 L107.752,68.197 L107.752,66.677 C107.729,66.677 107.729,66.677 107.705,66.677 C105.413,66.677 103.472,65.296 103.378,62.7 L107.752,62.7 L107.752,61.343 L103.425,61.343 C103.589,59.191 105.647,57.788 107.705,57.788 L107.752,57.788 L107.752,56.293 Z" id="Shape"></path>
                    <path d="M129.55,68.104 L129.55,51.357 L127.375,51.357 L127.375,58.232 C126.697,57.296 125.13,56.408 123.071,56.314 L123.071,57.812 L123.188,57.812 C125.386,57.812 127.211,59.308 127.351,60.806 C127.351,60.9 127.374,61.671 127.374,62.161 C127.374,62.677 127.351,63.472 127.351,63.565 C127.305,65.085 125.69,66.721 123.211,66.721 C123.164,66.721 123.117,66.721 123.07,66.721 L123.07,68.172 C125.362,68.102 126.812,67.119 127.397,66.207 L127.397,68.102 L129.55,68.102 L129.55,68.104 Z M123.071,56.314 C122.978,56.314 122.861,56.314 122.744,56.314 C119.376,56.314 116.569,58.466 116.569,62.232 C116.569,66.068 119.213,68.173 122.791,68.173 L123.071,68.173 L123.071,66.722 C120.802,66.677 118.792,65.296 118.792,62.232 C118.792,59.683 120.335,57.859 123.071,57.812 L123.071,56.314 Z" id="Shape"></path>
                    <path d="M135.562,54.654 L135.562,52.41 L133.293,52.41 L133.293,54.654 L135.562,54.654 Z M135.538,68.104 L135.538,56.408 L133.339,56.408 L133.339,68.103 L135.538,68.103 L135.538,68.104 Z" id="Shape"></path>
                    <path d="M151.652,68.033 L151.652,66.629 C151.583,66.654 150.998,66.629 150.81,66.629 C150.272,66.608 150.062,66.256 150.062,65.32 C150.062,63.496 150.062,61.273 150.062,60.197 C150.062,57.531 148.167,56.293 144.799,56.293 C144.611,56.293 144.425,56.293 144.261,56.314 L144.261,57.906 L144.705,57.906 C147.02,57.906 147.815,58.677 147.815,59.683 C147.815,60.126 147.347,60.548 144.26,60.853 L144.26,62.185 C144.354,62.185 144.471,62.162 144.588,62.162 C146.341,61.998 147.417,61.719 147.908,61.297 C147.885,61.953 147.885,63.332 147.814,64.174 C147.698,65.391 146.365,66.514 144.259,66.723 L144.259,68.127 C145.615,67.963 146.925,67.496 148.048,66.49 C148.165,67.426 148.586,68.15 149.896,68.15 C150.483,68.15 151.185,68.08 151.652,68.033 L151.652,68.033 Z M144.262,56.314 C141.807,56.431 140.122,57.437 139.07,58.724 L140.333,59.777 C141.199,58.537 142.695,58 144.263,57.906 L144.263,56.314 L144.262,56.314 Z M144.262,60.854 C144.215,60.854 144.168,60.854 144.098,60.854 C141.222,61.11 138.345,61.836 138.345,64.69 C138.345,66.887 139.888,68.198 142.835,68.198 C143.303,68.198 143.794,68.175 144.262,68.128 L144.262,66.724 C144.029,66.747 143.794,66.747 143.537,66.747 C141.478,66.747 140.613,66.069 140.613,64.735 C140.613,63.005 142.18,62.421 144.261,62.186 L144.261,60.854 L144.262,60.854 Z" id="Shape"></path>
                    <path d="M88.683,3.895 C93.874,9.087 93.874,17.484 88.683,22.676 L65.2,46.134 C60.008,51.326 51.611,51.326 46.419,46.134 C41.227,40.943 41.227,32.546 46.419,27.377 L69.901,3.895 C75.093,-1.298 83.489,-1.298 88.683,3.895 Z" id="Path"></path>
                    <path d="M126.314,4.059 L149.796,27.213 C154.988,32.405 154.988,40.802 149.796,45.995 C144.604,51.185 136.184,51.185 130.991,45.995 L116.911,31.61 L102.807,45.995 C97.661,51.185 89.242,51.185 84.05,45.995 C78.857,40.802 78.857,32.405 84.05,27.213 L107.51,4.059 C112.702,-1.134 121.122,-1.134 126.314,4.059 Z" id="Path"></path>
                </g>
                <text id="®" font-family="Helvetica" font-size="14.069" font-weight="normal">
                    <tspan x="134.1602" y="14.2021">®</tspan>
                </text>
            </g>
        </g>
    </g>
</svg>