<svg height="150" viewBox="0 0 650 150" width="650" xmlns="http://www.w3.org/2000/svg"><path d="m179.56347 37.177501c-20.90683 0-37.93506 16.944489-37.93506 37.822499 0 20.88883 17.02823 37.8225 37.93506 37.8225 20.92126 0 37.82251-16.93367 37.82251-37.8225.004-20.87801-16.90125-37.8225-37.82251-37.8225zm158.832 0c-20.91765 0-37.93507 16.944489-37.93507 37.822499 0 20.88883 17.01742 37.8225 37.93507 37.8225 20.92125 0 37.82249-16.93367 37.82249-37.8225 0-20.87801-16.90124-37.8225-37.82249-37.8225zm-288.39656 1.913637.11256 3.151876c3.537306 0 7.65456 1.274258 7.65456 6.64145v62.136966h6.19118v-53.35674l26.002966 53.35674h3.03931l25.890394-58.98508v58.98508h10.69387v-71.930292h-11.81953l-24.089333 55.157812-26.790938-55.157812zm171.66461 0v3.151876c3.5265 0 7.76712 1.274258 7.76712 6.64145v62.136966h6.19119v-58.19712l51.33053 59.99819h1.91364v-73.731362h-6.07862l-.11257 52.231072-44.68907-52.231072zm158.94456 0v3.151876c3.53369 0 7.65455 1.285065 7.65455 6.64145v62.136966h10.80642v-32.19414c5.05741.82849 8.71089 1.05181 11.81954.90053 12.07079-.58715 23.07622-8.11383 23.07622-20.48718 0-12.769611-10.73709-20.149501-23.30135-20.149501h-30.05538zm58.53482 0v3.151876c3.5301 0 7.76711 1.263451 7.76711 6.64145v62.136966h10.69387v-33.65751c1.44086.0864 3.14467.16749 4.50267.22513 3.07264.22332 8.30385-.30708 14.07088 9.79332 2.24054 3.89752 12.38236 22.06133 13.28289 23.63906h12.60751s-11.14863-19.58935-13.50804-23.5265c-2.83128-4.7224-6.3947-9.83474-11.81953-11.81952 7.83106-2.17571 15.87195-7.8959 15.87195-17.56045 0-12.571482-10.42731-19.023821-23.30137-19.023821h-30.16794zm67.20247 0v3.151876c3.5301 0 7.76712 1.274258 7.76712 6.64145v62.136966h10.69387v-71.930292zm28.70458 0v3.151876c2.42423 0 5.12224.435859 6.75401 2.701607l21.16259 31.068479-26.00297 35.00833h7.65456l22.06313-29.71766 20.26205 29.71766h13.05777l-26.5658-38.72303 24.65216-33.207262h-7.65456l-20.71232 27.804052-19.02381-27.804052zm-355.59904 2.476474c14.4482 0 26.11554 11.373768 26.11554 33.544968 0 22.16398-11.66734 33.43237-26.11554 33.43237-14.44819 0-26.2281-11.272-26.2281-33.43237 0-22.15679 11.77991-33.544966 26.2281-33.544966zm158.83198 0c14.4482 0 26.11554 11.373768 26.11554 33.544968 0 22.16398-11.66734 33.43237-26.11554 33.43237-14.46979 0-26.2281-11.272-26.2281-33.43237 0-22.15679 11.75831-33.544966 26.2281-33.544966zm118.42046 1.801073h7.99225c9.12063 0 16.54734 3.512086 16.54734 14.858835.004 11.073-7.53118 15.08397-16.54734 15.08397-2.46747 0-5.12496-.19451-7.09172-.45025v-25.21501c0-3.267145-.56915-3.798461-.90053-4.277545zm-58.53483.112565h7.87969c9.13143 0 16.54735 4.548606 16.54735 15.64682.004 12.20405-7.51677 16.20964-16.54735 16.20964-2.46027 0-4.81067-.37822-6.97916-.90054v-26.565808c0-3.263542-.38543-3.644467-.90053-4.390112z" fill="#e30613"/></svg>