<?xml version="1.0" encoding="utf-8"?>
<!-- Generator: Adobe Illustrator 18.0.0, SVG Export Plug-In . SVG Version: 6.00 Build 0)  -->
<!DOCTYPE svg PUBLIC "-//W3C//DTD SVG 1.1//EN" "http://www.w3.org/Graphics/SVG/1.1/DTD/svg11.dtd">
<svg version="1.1" id="Layer_1" xmlns="http://www.w3.org/2000/svg" xmlns:xlink="http://www.w3.org/1999/xlink" x="0px" y="0px"
	 viewBox="0 0 404.5 207.3" enable-background="new 0 0 404.5 207.3" xml:space="preserve">
<path fill="#00563F" d="M153.9,207c3.1,0,5.6-1.7,5.6-4.5l0,0c0-2.4-1.7-3.8-4.9-4.5c-2.4-0.7-3.1-1-3.1-2.1l0,0
	c0-0.7,0.7-1.4,1.7-1.4c1.4,0,2.4,0.7,3.8,1.4l1.7-2.4c-1.4-1-3.5-1.7-5.6-1.7c-3.1,0-5.2,1.7-5.2,4.5l0,0c0,2.8,2.1,3.8,4.9,4.5
	c2.4,0.7,3.1,1,3.1,1.7l0,0c0,1-0.7,1.4-2.1,1.4c-1.7,0-3.1-0.7-4.5-1.7l-2.1,2.4C149.4,206.3,151.5,207,153.9,207 M161.6,194.1h3.5
	v-2.8h-3.5V194.1z M161.6,207h3.1v-11.5h-3.1V207z M167.9,207h3.1v-6.3c0-1.4,0.7-2.4,2.1-2.4c1.4,0,2.1,0.7,2.1,2.4v6.3h3.1v-7.3
	c0-2.8-1.4-4.2-3.8-4.2c-1.7,0-2.4,1-3.5,1.7v-1.7h-3.1V207z M186.4,207.3c2.4,0,3.5-1,4.5-2.1l-1.7-2.1c-0.7,0.7-1.4,1-2.8,1
	c-1.7,0-2.8-1.4-2.8-3.1l0,0c0-1.7,1-3.1,2.8-3.1c1,0,1.7,0.3,2.4,1.4l2.1-2.1c-1-1-2.4-2.1-4.5-2.1c-3.5,0-5.9,2.8-5.9,5.9l0,0
	C180.5,204.5,182.9,207.3,186.4,207.3 M197.9,207.3c2.1,0,3.5-0.7,4.5-2.1l-1.7-1.7c-1,0.7-1.7,1-2.8,1c-1.4,0-2.4-0.7-2.8-2.1h8
	c0-0.3,0-0.7,0-0.7c0-3.1-1.7-6.3-5.6-6.3c-3.5,0-5.6,2.8-5.6,5.9l0,0C192,204.9,194.4,207.3,197.9,207.3 M195.1,200.3
	c0.3-1.4,1-2.4,2.4-2.4s2.1,1,2.4,2.4H195.1z M211.9,207h3.1v-15h-2.1l-4.2,1.4l0.7,2.8l2.4-0.7C211.9,195.5,211.9,207,211.9,207z
	 M223.4,207c3.1,0,5.9-1.7,5.9-4.5l0,0c0-1.7-1-2.8-2.4-3.5c1-0.7,1.7-1.7,1.7-3.1l0,0c0-2.4-2.1-4.2-5.2-4.2s-5.2,1.7-5.2,4.2l0,0
	c0,1.7,0.7,2.4,1.7,3.1c-1.7,0.7-2.4,1.7-2.4,3.5l0,0C217.8,205.6,220.2,207,223.4,207 M223.4,197.9c-1.4,0-2.1-0.7-2.1-1.7l0,0
	c0-1,0.7-1.7,2.1-1.7c1.4,0,2.1,0.7,2.1,1.7l0,0C225.5,197.2,224.8,197.9,223.4,197.9 M223.4,204.5c-1.7,0-2.4-0.7-2.4-1.7l0,0
	c0-1,1-1.7,2.4-1.7s2.4,0.7,2.4,1.7l0,0C226.2,203.5,225.1,204.5,223.4,204.5 M236.3,207.3c4.2,0,6.6-3.1,6.6-8l0,0
	c0-2.8-0.7-4.5-1.7-5.6c-1-1-2.4-1.7-4.2-1.7c-3.5,0-5.6,2.1-5.6,5.2l0,0c0,3.1,2.1,4.9,5.2,4.9c1.4,0,2.4-0.3,3.1-1
	c-0.3,2.1-1,3.5-3.1,3.5c-1.4,0-2.1-0.3-3.1-1.4l-1.7,2.4C232.8,206.3,234.2,207.3,236.3,207.3 M237,199c-1.7,0-2.4-1-2.4-2.1l0,0
	c0-1.4,1-2.1,2.4-2.1c1.7,0,2.8,1,2.8,2.4l0,0C239.4,198.3,238.7,199,237,199 M250.3,207.3c4.2,0,6.6-3.1,6.6-8l0,0
	c0-2.8-0.7-4.5-1.7-5.6c-1-1-2.4-1.7-4.2-1.7c-3.5,0-5.6,2.1-5.6,5.2l0,0c0,3.1,2.1,4.9,5.2,4.9c1.4,0,2.4-0.3,3.1-1
	c-0.3,2.1-1,3.5-3.1,3.5c-1.4,0-2.1-0.3-3.1-1.4l-1.7,2.4C246.8,206.3,248.2,207.3,250.3,207.3 M251,199c-1.7,0-2.4-1-2.4-2.1l0,0
	c0-1.4,1-2.1,2.4-2.1c1.7,0,2.8,1,2.8,2.4l0,0C253.4,198.3,252.4,199,251,199"/>
<path fill="#00563F" d="M210.5,115.5c0,4.5-3.8,8.4-8.4,8.4c-4.5,0-8.4-3.8-8.4-8.4c0-4.5,3.8-8.4,8.4-8.4
	C206.6,107.2,210.5,111,210.5,115.5 M389.2,149.7c-0.7,0-1-0.3-1.7-0.3c-4.5-1.4-7.3-2.4-7.3-4.5l0,0c0-1.7,2.1-3.1,4.9-2.8
	c3.1,0,6.3,1,10.8,3.5l0,0h0.3c0.3,0,0.3,0,0.7-0.3l4.9-8.7v-0.3c0-0.3,0-0.3-0.3-0.7c-5.2-2.8-10.5-4.5-16.1-4.5
	c-11.2,0-18.5,5.6-18.5,14.7l0,0c0,8.7,7,12.6,15,14.7c0.7,0.3,1.4,0.3,2.1,0.7c4.9,1.4,7,2.4,7,4.9v0.3c-0.3,1.7-1.7,2.8-5.2,2.8
	c-4.9,0-8.7-1.7-14-4.9l0,0h-0.3c-0.3,0-0.3,0-0.3,0.3l-5.6,8.4v0.3c0,0.3,0,0.3,0.3,0.3c6.3,4.5,11.9,7,19.2,7
	c12.2,0,19.5-5.6,19.5-15l0,0C404.2,155.7,396.9,151.8,389.2,149.7 M253.8,164L253.8,164c0,9.8-7.3,15.4-19.5,15.4
	c-7,0-12.9-2.4-19.2-7l-0.3-0.3v-0.3l5.6-8.4l0.3-0.3h0.3l0,0c5.2,3.5,9.1,4.9,14,4.9c3.1,0,4.9-1,5.2-2.8v-0.3c0-2.4-2.1-3.5-7-4.9
	c-0.7,0-1.4-0.3-2.1-0.7c-8-2.1-15-5.6-15-14.7l0,0c0-9.1,7.3-14.7,18.5-14.7c5.6,0,10.8,1.7,16.1,4.5c0.3,0,0.3,0.3,0.3,0.7v0.3
	l-4.9,8.7c0,0.3-0.3,0.3-0.7,0.3H245l0,0c-4.5-2.4-7.7-3.1-10.8-3.5c-2.8,0-4.9,1-4.9,2.8l0,0c0,2.1,2.8,3.1,7.3,4.5
	c0.7,0,1,0.3,1.7,0.3C246.4,151.8,253.8,155.3,253.8,164 M173.8,178.7h-12.2c-0.3,0-0.7-0.3-0.7-0.7v-45.4c0-0.3,0.3-0.7,0.7-0.7
	h11.9c0.3,0,0.7,0.3,0.7,0.7v5.6c3.1-4.2,7.7-7,12.6-7c0.7,0,1.4,0,1.7,0c0.3,0,0.7,0.3,0.7,0.7v12.2c0,0.3,0,0.3-0.3,0.3
	c0,0-0.3,0.3-0.3,0c-0.3,0-1,0-2.1,0c-3.8,0-8.7,2.1-10.8,8.4c-0.7,1.7-1,4.2-1,6.6v18.2C174.5,178.4,174.2,178.7,173.8,178.7
	 M140,178v-18.2c0-2.8,0.3-4.9,1-6.6c2.1-5.9,6.6-8.4,10.8-8.4c1,0,1.7,0,2.1,0c0.3,0,0.3,0,0.3,0l0.3-0.3v-12.2
	c0-0.3-0.3-0.7-0.7-0.7c-0.3,0-1,0-1.7,0c-4.9,0-9.4,2.4-12.6,7V133c0-0.3-0.3-0.7-0.7-0.7h-11.9c-0.3,0-0.7,0.3-0.7,0.7v45.4
	c0,0.3,0.3,0.7,0.7,0.7h12.2C139.6,178.7,140,178.4,140,178 M62.1,178.7H49.6c-0.3,0-0.7-0.3-0.7-0.7c0-14.3-1-30.4-1.4-35.6
	c-4.5,5.9-8.7,14-12.2,21.6c0,0.3-0.3,0.3-0.7,0.3h-7c-0.3,0-0.3,0-0.7-0.3c-3.5-7.7-7.7-15.7-12.2-21.6c0,5.2-1,21.3-1,35.6
	c0,0.3-0.3,0.7-0.7,0.7H0.7c-0.3,0-0.7-0.3-0.7-0.7c0-19.2,1.4-44.7,4.5-57.9c0-0.3,0.3-0.3,0.7-0.3H15c0.3,0,0.3,0,0.3,0.3
	c6.3,7.3,11.9,15.4,15.7,23c4.2-8,9.4-16.1,15.7-23l0.3-0.3h9.8c0.3,0,0.7,0.3,0.7,0.3c3.1,12.9,4.5,38.4,4.5,57.9
	C62.5,178.4,62.5,178.7,62.1,178.7 M359.5,178v-29c0-11.9-5.6-18.2-16.4-18.2c-7.3,0-11.9,3.5-14.3,6.3v-4.5c0-0.3-0.3-0.7-0.7-0.7
	h-11.9c-0.3,0-0.7,0.3-0.7,0.7V178c0,0.3,0.3,0.7,0.7,0.7h12.2c0.3,0,0.7-0.3,0.7-0.7v-20.9c0-2.1,0.3-3.8,0.7-5.6
	c1.4-4.9,5.6-8,10.5-8c4.2,0,5.6,2.1,5.6,7.7v26.5c0,0.3,0.3,0.7,0.7,0.7h12.2C359.2,178.7,359.5,178.4,359.5,178 M284.1,143.1
	c-6.6,0-11.9,5.2-11.9,12.2c0,7,4.9,12.2,11.9,12.2c6.6,0,11.5-5.2,11.5-12.2C296,148.3,290.7,143.1,284.1,143.1 M284.1,179.8
	c-14.7,0-25.5-10.5-25.5-24.4c0-14,10.8-24.4,25.5-24.4c14.7,0,25.5,10.5,25.5,24.4C309.6,169.3,298.8,179.8,284.1,179.8 M209.1,178
	v-45.4c0-0.3-0.3-0.7-0.7-0.7h-12.2c-0.3,0-0.7,0.3-0.7,0.7V178c0,0.3,0.3,0.7,0.7,0.7h12.2C208.7,178.7,209.1,178.4,209.1,178
	 M94.2,143.1c-6.6,0-11.9,5.2-11.9,12.2c0,7,4.9,12.2,11.9,12.2c6.6,0,11.5-5.2,11.5-12.2C106.1,148.3,100.9,143.1,94.2,143.1
	 M94.2,179.8c-14.7,0-25.5-10.5-25.5-24.4c0-14,10.8-24.4,25.5-24.4s25.5,10.5,25.5,24.4C119.7,169.3,108.9,179.8,94.2,179.8"/>
<path fill="#FFC20E" d="M241.5,112.7c-11.2,4.2-20.9-3.5-20.9-3.5s2.8-11.9,14-16.1c11.2-4.2,20.9,3.5,20.9,3.5
	S252.7,108.6,241.5,112.7 M271.2,56.2c0,0-10.8-5.6-21.3,0.3c-10.5,5.9-10.8,18.2-10.8,18.2s10.8,5.6,21.3-0.3
	C270.5,68.4,271.2,56.2,271.2,56.2 M224.1,83.8C218.8,94.6,207,96.3,207,96.3s-6.6-10.5-1.4-21.3c5.2-10.8,17.1-12.6,17.1-12.6
	S229,72.6,224.1,83.8 M149,96.7c0,0,2.8,11.9,14,16.1c11.2,4.2,20.9-3.5,20.9-3.5s-2.8-11.9-14-16.1C158.8,89,149,96.7,149,96.7
	 M154.3,56.5c10.5,5.9,10.8,18.2,10.8,18.2s-10.8,5.6-21.3-0.3C133.3,68.4,133,56.2,133,56.2S144.2,50.6,154.3,56.5 M168.2,36.6
	c0,0-2.8,11.9,5.9,20.6c8.4,8.4,20.6,5.9,20.6,5.9s2.8-11.9-5.9-20.6C180.5,34.2,168.2,36.6,168.2,36.6 M212.2,18.5
	c0,11.9-10.5,18.5-10.5,18.5s-10.5-6.6-10.5-18.5S201.7,0,201.7,0C201.7,0,212.2,6.6,212.2,18.5 M232.8,45.4c0,4.9-3.8,8.7-8.7,8.7
	c-4.9,0-8.7-3.8-8.7-8.7s3.8-8.7,8.7-8.7C229,36.6,232.8,40.5,232.8,45.4 M193.7,81c0,4.9-3.8,8.7-8.7,8.7s-8.7-3.8-8.7-8.7
	c0-4.9,3.8-8.7,8.7-8.7S193.7,76.4,193.7,81"/>
</svg>
