<?xml version="1.0" encoding="UTF-8"?>
<svg width="103px" height="84px" viewBox="0 0 103 84" version="1.1" xmlns="http://www.w3.org/2000/svg" xmlns:xlink="http://www.w3.org/1999/xlink">
    <!-- Generator: Sketch 64 (93537) - https://sketch.com -->
    <title>nasa</title>
    <desc>Created with Sketch.</desc>
    <g id="Index" stroke="none" stroke-width="1" fill="none" fill-rule="evenodd">
        <g id="Desktop-HD" transform="translate(-1129.000000, -7018.000000)">
            <g id="nasa" transform="translate(1129.000000, 7018.000000)">
                <path d="M90,42 C90,65.0386757 70.8137296,84 47.5,84 C24.1866308,84 5,65.0376061 5,42 C5,18.9598981 23.7379155,0 47.5,0 C70.3635728,0 90,18.9609677 90,42" id="Path" fill="#000000" fill-rule="nonzero"></path>
                <path d="M57.137644,63.9383694 C75.4530468,71.2053125 72.2745088,52.8412382 62.5116745,38.7800329 C56.9784081,30.8138867 49.7618943,24.1770679 45.2102192,20.9738482 C30.1180713,10.3497485 20.8013157,16.7933572 31.4584887,37.745605 C34.9041286,44.51988 39.3297602,49.0920509 42.7864158,53.4015824 C45.4261692,56.6916941 50.5678898,58.3391344 48.7566721,59.9005944 C46.7155439,61.6611204 41.7731954,53.8960039 41.7731954,53.8960039 C38.12313,49.64959 34.6439342,45.1191468 31.0582176,38.9020603 C22.8655659,24.7009442 24.0467474,10.2070325 38.8756834,16.5205488 C51.4600473,21.8813394 63.4801779,36.9166602 68.3128791,47.5940592 C70.5451267,52.5238967 76.6309564,72.0318028 57.2474368,64.1449043" id="Path" fill="#FFFFFF" fill-rule="nonzero"></path>
                <path d="M1,54.7069769 C8.98511506,49.4131944 16.5558962,45.9951898 29.4395189,41.7594464 C47.5437488,35.8057343 61.1699299,31.8038355 77.8877625,23.4385114 C85.3709931,19.6948459 98.3558574,11.2990358 103,4 C101.609279,6.82478533 97.3038095,12.3230026 95.3546387,14.7550581 C72.6707582,43.0290934 24.3522191,41.4258951 1.31885696,55" id="Path" fill="#D4D7D9"></path>
                <g id="Group" transform="translate(12.000000, 4.000000)" fill="#FFFFFF" fill-rule="nonzero">
                    <path d="M0.605717073,30.637565 C7.92774634,30.6940668 7.20940488,30.6231094 7.2949561,30.7074645 C7.42294722,30.7074645 13.1413171,40.3925745 13.1413171,40.4759995 C13.1413171,40.5173818 13.0985631,37.034239 13.0985631,32.6780695 C13.0985631,32.1749635 11.6909387,30.707642 11.7330285,30.707642 C13.8229329,30.707642 16.5545797,30.7496882 16.5545797,30.7496882 C15.5310695,31.9236377 15.3266129,31.8273617 15.3180939,32.5527332 C15.2892339,34.8856512 15.2622581,39.1969132 15.3180939,44.0398232 C15.3260498,44.7657272 15.8729495,45.0459997 16.7689992,46.3039067 L10.06857,46.3039067 C7.8922119,42.7404167 3.90418946,36.0554117 3.92404312,36.0742267 C3.95465746,36.1048632 3.83813093,40.2674867 3.96571776,43.6204617 C4.008876,44.7286297 4.52097044,45.0876767 5.46033727,46.0943857 C5.46033727,46.0943857 6.54077337,46.0658792 0.211029951,46.1358994 C2.1312758,45.1297229 1.87624654,43.8722064 1.875308,43.8302809 C1.80625698,39.1968209 1.86101337,35.2353759 1.86101337,32.6779559 C1.86101337,32.2588429 1.8320162,32.3002004 0.509773366,30.7075284" id="Path"></path>
                    <path d="M23.4995122,37.7933 C24.114362,35.694327 24.6395454,33.818365 24.888799,32.59539 C24.9310115,32.3855601 24.4194585,31.6312455 23.6086351,30.8763025 L23.5511822,30.7591844 C27.4609091,30.771652 31.5453481,30.792345 31.5453481,30.792345 C32.6121754,33.349836 35.0445013,40.51828 36.8794847,44.920635 C37.3647442,46.084254 38.2024242,46.3038925 38.2024242,46.3038925 C34.8738681,46.2625101 28.6968535,46.290509 28.7297022,46.2625101 C30.3934388,44.7942301 30.1800661,44.7942301 29.4546135,42.6567751 L24.2489842,42.6567751 C23.1821569,45.0877441 24.5814355,46.2291401 24.7605588,46.2202651 C23.5757286,46.2803489 19.5549296,46.2202651 19.5549296,46.2202651 C21.7312876,44.7104856 21.6027803,44.2498377 21.6027803,44.2498377 C22.2007725,42.1581776 22.8934847,39.8666526 23.4998515,37.7920326 L25.6356359,37.7923877 C25.1767998,39.2395807 24.7179998,40.6855666 24.7179998,40.6855666 L28.85839,40.6855666 L26.5534886,34.8997766 C26.5534886,34.8997766 26.0946525,36.3462952 25.6357081,37.7923166 L23.4999237,37.7919616" id="Path"></path>
                    <path d="M59.2613659,38.00275 C59.8750244,35.9043095 60.4008576,34.027815 60.6495698,32.80413 C60.6916487,32.5953616 60.1795434,31.8410505 59.3692615,31.085575 L59.3114043,30.9689894 C63.222214,30.981457 67.307736,31.00215 67.307736,31.00215 C68.3729389,33.559641 70.8058062,40.72844 72.6404287,45.13044 C73.1251467,46.2945915 73.9628267,46.51423 73.9628267,46.51423 C70.635895,46.4717862 64.4586999,46.5008465 64.4904658,46.4717862 C66.1552853,45.0051037 65.9419126,45.0051037 65.2164599,42.8667612 L60.0097477,42.8667612 C58.9428121,45.2982272 60.341524,46.4391262 60.5207448,46.4309612 C59.3368892,46.4905124 55.3154765,46.4309612 55.3154765,46.4309612 C57.4912931,44.9211817 57.3637243,44.4600012 57.3637243,44.4600012 C57.9617165,42.3679507 58.654537,40.0771712 59.2614453,38.0029062 L61.3966882,38.0029062 C60.9368053,39.4499572 60.4799906,40.8964757 60.4799906,40.8964757 L64.618215,40.8964757 L62.313458,35.1106857 C62.313458,35.1106857 61.8561019,36.5566717 61.3967604,38.0027997 L59.2615175,38.0027997" id="Path"></path>
                    <path d="M52.5291707,34.56635 C52.4437964,31.588823 52.5291707,30.624785 52.5291707,30.624785 C51.2056898,31.6734195 51.8733141,31.539691 48.5609659,31.0023985 C39.0149659,29.453356 38.2876,38.2177735 43.4824,40.1837635 C47.8429854,41.834407 49.388322,42.1577765 48.7306244,43.7048665 C48.5172625,44.209002 44.5490829,46.05344 40.4530927,42.3219995 L40.5373877,47.5206195 C41.0494677,47.002 42.4587165,46.0534045 42.4587165,46.0534045 C42.5007954,46.0534045 46.8987165,47.9589735 50.8643945,45.9689145 C56.9677701,42.908992 53.9216053,37.9558545 47.408378,35.9912845 C41.9886901,34.3560125 47.1096418,30.5406145 52.4858609,34.607885" id="Path"></path>
                    <path d="M36.5487805,0.67379 C36.5487805,0.8613365 36.3928751,1.0151935 36.2021681,1.0151935 C36.012544,1.0151935 35.8555557,0.8613365 35.8555557,0.67379 C35.8555557,0.4878339 36.012544,0.3334444 36.2021681,0.3334444 C36.3928751,0.3334444 36.5487805,0.4878339 36.5487805,0.67379" id="Path"></path>
                    <path d="M38.952878,5.8362 C38.952878,6.0661903 38.7589367,6.255313 38.5261688,6.255313 C38.2917693,6.255313 38.098918,6.0661761 38.098918,5.8362 C38.098918,5.60673865 38.2917801,5.417584 38.5261688,5.417584 C38.7589511,5.417584 38.952878,5.60672445 38.952878,5.8362" id="Path"></path>
                    <path d="M45.1905366,14.27313 C45.1905366,14.5027227 44.9983496,14.692243 44.7638273,14.692243 C44.5305035,14.692243 44.337118,14.502705 44.337118,14.27313 C44.337118,14.0431397 44.5162233,13.8534845 44.75076,13.8534845 C44.9851595,13.8534845 45.1905727,14.0431539 45.1905727,14.27313" id="Path"></path>
                    <path d="M35.1626341,8.744715 C35.1626341,8.93173255 35.0067252,9.08505705 34.8160218,9.08505705 C34.6257226,9.08505705 34.4687343,8.931729 34.4687343,8.744715 C34.4687343,8.55809505 34.6257226,8.4037091 34.8160218,8.4037091 C35.0067252,8.4037091 35.1626341,8.5580986 35.1626341,8.744715" id="Path"></path>
                    <path d="M38.8987317,10.68408 C38.8987317,10.8700361 38.7421513,11.0244221 38.5525272,11.0244221 C38.3623617,11.0244221 38.2053734,10.8700325 38.2053734,10.68408 C38.2053734,10.497595 38.3623617,10.343603 38.5525272,10.343603 C38.7421513,10.343603 38.8987317,10.4975949 38.8987317,10.68408" id="Path"></path>
                    <path d="M34.0436098,5.259325 C34.0436098,5.48944665 33.8508813,5.678438 33.6169005,5.678438 C33.3830388,5.678438 33.1901912,5.48943245 33.1901912,5.259325 C33.1901912,5.0293347 33.3830533,4.8396795 33.6169005,4.8396795 C33.8508957,4.8396795 34.0436098,5.0293489 34.0436098,5.259325" id="Path"></path>
                    <path d="M28.3907317,8.63999 C28.3907317,8.82700755 28.2342849,8.98086455 28.0435815,8.98086455 C27.8534159,8.98086455 27.6969691,8.82700755 27.6969691,8.63999 C27.6969691,8.45337005 27.8534159,8.2989841 28.0435815,8.2989841 C28.2342849,8.2989841 28.3907317,8.4533736 28.3907317,8.63999" id="Path"></path>
                    <path d="M29.4014634,9.320525 C29.4014634,9.5082064 29.2450166,9.6620634 29.0543132,9.6620634 C28.8641476,9.6620634 28.7071629,9.5082064 28.7071629,9.320525 C28.7071629,9.13403995 28.8641476,8.9807119 29.0543132,8.9807119 C29.2450166,8.9807119 29.4014634,9.13403995 29.4014634,9.320525" id="Path"></path>
                    <path d="M30.4158049,10.002125 C30.4158049,10.1896715 30.2593544,10.3435285 30.0690553,10.3435285 C29.8788934,10.3435285 29.7219051,10.1896715 29.7219051,10.002125 C29.7219051,9.8161689 29.8788934,9.6623119 30.0690553,9.6623119 C30.2593544,9.6623119 30.4158049,9.8161689 30.4158049,10.002125" id="Path"></path>
                    <path d="M28.8708293,11.312785 C28.8708293,11.4998025 28.7133031,11.6536595 28.5236754,11.6536595 C28.332972,11.6536595 28.1763916,11.4998025 28.1763916,11.312785 C28.1763916,11.1262999 28.332972,10.9724429 28.5236754,10.9724429 C28.7133031,10.9724429 28.8708293,11.1262999 28.8708293,11.312785" id="Path"></path>
                    <path d="M20.8152976,16.86747 C20.8152976,17.0544876 20.6583093,17.2078156 20.4681473,17.2078156 C20.2779818,17.2078156 20.1209971,17.0544876 20.1209971,16.86747 C20.1209971,16.6804525 20.2779854,16.5264641 20.4681473,16.5264641 C20.6583129,16.5264641 20.8152976,16.680456 20.8152976,16.86747" id="Path"></path>
                    <path d="M22.3082927,18.649925 C22.3082927,18.8365449 22.1513044,18.9904019 21.9611424,18.9904019 C21.7709769,18.9904019 21.6139922,18.8365449 21.6139922,18.649925 C21.6139922,18.4623785 21.7709805,18.3090504 21.9611424,18.3090504 C22.151308,18.3090504 22.3082927,18.4623785 22.3082927,18.649925" id="Path"></path>
                    <path d="M21.1214049,47.4209 C21.1214049,47.6080489 20.964958,47.7613769 20.7746589,47.7613769 C20.5844934,47.7613769 20.4280465,47.6080489 20.4280465,47.4209 C20.4280465,47.234415 20.5844934,47.0800255 20.7746589,47.0800255 C20.964958,47.0800255 21.1214049,47.234415 21.1214049,47.4209" id="Path"></path>
                    <path d="M21.3347415,55.3587 C21.3347415,55.5886903 21.1418794,55.777316 20.9080322,55.777316 C20.674037,55.777316 20.4813229,55.5887081 20.4813229,55.3587 C20.4813229,55.1285783 20.6740514,54.939587 20.9080322,54.939587 C21.1418939,54.939587 21.3347415,55.1285926 21.3347415,55.3587" id="Path"></path>
                    <path d="M16.7463805,59.42345 C16.7463805,59.6094061 16.5899337,59.763792 16.400306,59.763792 C16.2101404,59.763792 16.0531557,59.6094061 16.0531557,59.42345 C16.0531557,59.2359035 16.210144,59.0824441 16.400306,59.0824441 C16.58993,59.0824441 16.7463805,59.2359035 16.7463805,59.42345" id="Path"></path>
                    <path d="M11.2530537,61.07065 C11.2530537,61.3006403 11.0591123,61.489266 10.8258029,61.489266 C10.5918077,61.489266 10.3990937,61.300658 10.3990937,61.07065 C10.3990937,60.8401272 10.5918221,60.6510045 10.8258029,60.6510045 C11.0591267,60.6510045 11.2530537,60.8401414 11.2530537,61.07065" id="Path"></path>
                    <path d="M10.1325854,57.4035 C10.1325854,57.6324324 9.93985688,57.822116 9.70641756,57.822116 C9.4725559,57.822116 9.27970829,57.6324466 9.27970829,57.4035 C9.27970829,57.1729807 9.47257034,56.9838545 9.70641756,56.9838545 C9.93987493,56.9838545 10.1325854,57.1729949 10.1325854,57.4035" id="Path"></path>
                    <path d="M9.49329756,59.73585 C9.49329756,59.9228676 9.33630927,60.0761956 9.14614732,60.0761956 C8.95598176,60.0761956 8.7988599,59.9228676 8.7988599,59.73585 C8.7988599,59.5493649 8.95598176,59.3949754 9.14614732,59.3949754 C9.33631288,59.3949754 9.49329756,59.5493649 9.49329756,59.73585" id="Path"></path>
                    <path d="M5.38503415,57.79755 C5.38503415,57.984035 5.22858732,58.1384245 5.03895961,58.1384245 C4.8482562,58.1384245 4.6916722,57.984035 4.6916722,57.79755 C4.6916722,57.6110614 4.8482562,57.457073 5.03895961,57.457073 C5.22858371,57.457073 5.38503415,57.6110614 5.38503415,57.79755" id="Path"></path>
                    <path d="M19.7338146,64.3473 C19.7338146,64.5344489 19.5904496,64.6883059 19.4008255,64.6883059 C19.2106599,64.6883059 19.0404563,64.5344489 19.0404563,64.3473 C19.0404563,64.1608149 19.1974446,64.0064254 19.3870687,64.0064254 C19.5777721,64.0064254 19.7338146,64.1608149 19.7338146,64.3473" id="Path"></path>
                    <path d="M24.0554146,61.2304 C24.0554146,61.4609228 23.8763094,61.6500455 23.6417727,61.6500455 C23.407911,61.6500455 23.20196,61.4609086 23.20196,61.2304 C23.20196,61.0013398 23.3946885,60.811784 23.6286693,60.811784 C23.8630724,60.811784 24.0554146,61.001322 24.0554146,61.2304" id="Path"></path>
                    <path d="M24.5499512,65.23835 C24.5499512,65.4253676 24.3792098,65.5798884 24.1901235,65.5798884 C23.9994201,65.5798884 23.8429733,65.4253675 23.8429733,65.23835 C23.8429733,65.0518649 23.9994201,64.8985369 24.1901235,64.8985369 C24.3792098,64.8985369 24.5499512,65.0518649 24.5499512,65.23835" id="Path"></path>
                    <path d="M42.3099512,61.41145 C42.3099512,61.5980664 42.1535044,61.7524559 41.9638803,61.7524559 C41.7726354,61.7524559 41.6161886,61.5980664 41.6161886,61.41145 C41.6161886,61.2244324 41.7726354,61.0711044 41.9638803,61.0711044 C42.1535044,61.0711044 42.3099512,61.2244324 42.3099512,61.41145" id="Path"></path>
                    <path d="M34.0436098,64.29405 C34.0436098,64.481064 33.8877008,64.6343921 33.6969974,64.6343921 C33.5073697,64.6343921 33.350385,64.481064 33.350385,64.29405 C33.350385,64.1075614 33.5073697,63.9531755 33.6969974,63.9531755 C33.8877008,63.9531755 34.0436098,64.1075614 34.0436098,64.29405" id="Path"></path>
                    <path d="M56.2869268,68.4369 C56.2869268,68.6234099 56.1299385,68.7772953 55.9403144,68.7772953 C55.749611,68.7772953 55.5926227,68.6234099 55.5926227,68.4369 C55.5926227,68.249854 55.749611,68.0959828 55.9403144,68.0959828 C56.1299385,68.0959828 56.2869268,68.249854 56.2869268,68.4369" id="Path"></path>
                    <path d="M58.0990244,52.3199 C58.0990244,52.5498903 57.9068374,52.7395455 57.6723151,52.7395455 C57.437912,52.7395455 57.2456059,52.5498761 57.2456059,52.3199 C57.2456059,52.0897748 57.4379264,51.9002545 57.6723151,51.9002545 C57.9068518,51.9002545 58.0990244,52.089789 58.0990244,52.3199" id="Path"></path>
                    <path d="M54.6878049,54.599 C54.6878049,54.7856164 54.531358,54.9400059 54.3401132,54.9400059 C54.1503555,54.9400059 53.9939051,54.7856164 53.9939051,54.599 C53.9939051,54.4119824 54.1503555,54.2586544 54.3401132,54.2586544 C54.531358,54.2586544 54.6878049,54.4119824 54.6878049,54.599" id="Path"></path>
                    <path d="M58.0484878,55.25575 C58.0484878,55.4857403 57.8561672,55.6753955 57.6217785,55.6753955 C57.3872455,55.6753955 57.1950693,55.4857261 57.1950693,55.25575 C57.1950693,55.0261573 57.3872599,54.836637 57.6217785,54.836637 C57.8561817,54.836637 58.0484878,55.026175 58.0484878,55.25575" id="Path"></path>
                    <path d="M54.6878049,59.31695 C54.6878049,59.503435 54.531358,59.657292 54.3401132,59.657292 C54.1503555,59.657292 53.9939051,59.503435 53.9939051,59.31695 C53.9939051,59.1299324 54.1503555,58.9759405 54.3401132,58.9759405 C54.531358,58.9759405 54.6878049,59.1299324 54.6878049,59.31695" id="Path"></path>
                    <path d="M63.3800976,50.0408 C63.3800976,50.2278176 63.2231129,50.3818094 63.0333516,50.3818094 C62.8437275,50.3818094 62.6872807,50.2278175 62.6872807,50.0408 C62.6872807,49.853786 62.8437275,49.700458 63.0333516,49.700458 C63.2231129,49.700458 63.3800976,49.853786 63.3800976,50.0408" id="Path"></path>
                    <path d="M64.2211707,52.11045 C64.2211707,52.3409692 64.0431448,52.5300955 63.8087561,52.5300955 C63.574223,52.5300955 63.368799,52.340955 63.368799,52.11045 C63.368799,51.8803248 63.5611196,51.691834 63.7944615,51.691834 C64.0288646,51.691834 64.2211707,51.880307 64.2211707,52.11045" id="Path"></path>
                    <path d="M70.2097561,54.57415 C70.2097561,54.8041403 70.0185148,54.993263 69.7830468,54.993263 C69.5485138,54.993263 69.3563376,54.8041261 69.3563376,54.57415 C69.3563376,54.3446886 69.5485282,54.1545045 69.7830468,54.1545045 C70.0185293,54.1545045 70.2097561,54.3447028 70.2097561,54.57415" id="Path"></path>
                    <path d="M64.1273171,58.9513 C64.1273171,59.1377886 63.9692495,59.2917769 63.7794918,59.2917769 C63.5898641,59.2917769 63.4328794,59.1377886 63.4328794,58.9513 C63.4328794,58.7637535 63.5898641,58.6104255 63.7794918,58.6104255 C63.9692495,58.6104255 64.1273171,58.7637535 64.1273171,58.9513" id="Path"></path>
                    <path d="M67.9680976,55.3871 C67.9680976,55.574114 67.8116507,55.7274421 67.6220266,55.7274421 C67.4324025,55.7274421 67.2754142,55.574114 67.2754142,55.3871 C67.2754142,55.2000824 67.4324025,55.0462255 67.6220266,55.0462255 C67.8116507,55.0462255 67.9680976,55.2000825 67.9680976,55.3871" id="Path"></path>
                    <path d="M67.2605854,60.8896 C67.2605854,61.0767489 67.1041385,61.2300769 66.9145144,61.2300769 C66.7232696,61.2300769 66.5668227,61.0767489 66.5668227,60.8896 C66.5668227,60.703115 66.7232696,60.5487255 66.9145144,60.5487255 C67.1041385,60.5487255 67.2605854,60.703115 67.2605854,60.8896" id="Path"></path>
                    <path d="M68.8885854,51.7448 C68.8885854,52.0323535 68.6471721,52.268567 68.354919,52.268567 C68.0625252,52.268567 67.8216498,52.0323429 67.8216498,51.7448 C67.8216498,51.4572464 68.0625252,51.221033 68.354919,51.221033 C68.6471793,51.221033 68.8885854,51.4572571 68.8885854,51.7448" id="Path"></path>
                    <polyline id="Path" points="68.3543415 50.1473 68.1951981 51.588245 66.7411884 51.7456804 68.2068216 51.9021928 68.3674485 53.3963168 68.5282126 51.9021928 69.9679277 51.7192861 68.5150009 51.588245 68.354374 50.1473"></polyline>
                    <path d="M65.1524878,60.8612 C65.1524878,61.1487571 64.911746,61.384967 64.6193629,61.384967 C64.3269691,61.384967 64.0856966,61.1487429 64.0856966,60.8612 C64.0856966,60.5736464 64.3269799,60.337433 64.6193629,60.337433 C64.9117568,60.337433 65.1524878,60.5736571 65.1524878,60.8612" id="Path"></path>
                    <polyline id="Path" points="64.6218537 59.2637 64.4612231 60.704645 63.0081519 60.8620839 64.4742904 61.0196542 64.6350509 62.5127487 64.7956815 61.0196542 66.2349995 60.8362186 64.7809898 60.704645 64.6218464 59.2637"></polyline>
                    <path d="M25.3621463,17.574275 C25.3621463,17.8618285 25.1214081,18.098042 24.8290215,18.098042 C24.5355447,18.098042 24.2953551,17.8618179 24.2953551,17.574275 C24.2953551,17.2867215 24.5355555,17.050508 24.8290215,17.050508 C25.1214153,17.050508 25.3621463,17.2867321 25.3621463,17.574275" id="Path"></path>
                    <polyline id="Path" points="24.8279024 15.976065 24.6676762 17.4169035 23.2136664 17.5744738 24.6808879 17.7309826 24.8411105 19.2251421 25.0006618 17.7309826 26.4410627 17.5486085 24.987053 17.4168999 24.8279097 15.9760614"></polyline>
                    <path d="M45.2049756,4.892965 C45.2049756,5.18051855 44.9636959,5.4172645 44.6713093,5.4172645 C44.3789154,5.4172645 44.1392673,5.1805079 44.1392673,4.892965 C44.1392673,4.60541145 44.3789299,4.3686655 44.6713093,4.3686655 C44.9637031,4.3686655 45.2049756,4.6054221 45.2049756,4.892965" id="Path"></path>
                    <polyline id="Path" points="44.6707317 3.293335 44.5115848 4.734706 43.057575 4.8922763 44.5247965 5.04971525 44.6839398 6.54344875 44.8445703 5.04971525 46.2844299 4.8657507 44.8304201 4.734706 44.6707353 3.293335"></polyline>
                    <path d="M21.0809756,69.24985 C21.0809756,69.5374035 20.8402338,69.7736525 20.5478507,69.7736525 C20.2543776,69.7736525 20.0136429,69.5374 20.0136429,69.24985 C20.0136429,68.9628148 20.2543848,68.725515 20.5478507,68.725515 C20.8402446,68.725515 21.0809756,68.9628005 21.0809756,69.24985" id="Path"></path>
                    <polygon id="Path" points="20.5604488 67.6488 20.4008976 69.090171 18.9472849 69.2476738 20.4141093 69.4046619 20.5741983 70.8983954 20.7338831 69.4046619 22.1741397 69.221773 20.7206714 69.090171"></polygon>
                </g>
                <path d="M103,4 C96.558848,23.0123749 70.7548116,37.693543 49.0333975,51.7092496 C35.9292196,60.1662472 22.9189528,69.901031 13.9622746,78.1847091 C11.6013792,80.3692136 14.4433359,77.3680742 13.5385637,78.2903734 C26.0380547,63.9708227 40.4164838,55.4417869 48.3620051,50.0735156 C61.7995314,40.9906416 69.44253,38.7014678 92.6256591,17.4555526" id="Path" fill="#D4D7D9"></path>
                <path d="M5.76147365,52 C3.59214772,52.9100019 1.64877644,53.8092237 0,54.6869427 L1.00324937,55 C2.44516404,54.2384992 4.17639611,53.4442832 6,52.744264" id="Path" fill="#C2C2C2" fill-rule="nonzero"></path>
                <path d="M18.3023758,72 C16.2798222,74.011623 14.1893873,76.1588936 12.09261,78.4096579 L12,80 C13.9198061,77.7465009 16.2782349,75.3125031 19,72.7300431" id="Path" fill="#D4D7D9"></path>
                <path d="M57.1934623,63.8739294 C75.437987,71.3641923 72.2717495,52.4357731 62.546696,37.9424541 C57.0348426,29.731501 50.2373728,23.2178203 45.3121949,19.5890691 C39.5613254,15.3513094 39,15 39,15 C51.8424013,21.0832183 63.5092786,36.0225411 68.3232778,47.0284278 C70.546887,52.1097638 76.6091654,72.2171657 57.3006573,64.0878956" id="Path" fill="#FFFFFF" fill-rule="nonzero"></path>
            </g>
        </g>
    </g>
</svg>