<svg width="99" height="80" viewBox="0 0 99 80" fill="none" xmlns="http://www.w3.org/2000/svg">
<path d="M85.7143 40C85.7143 61.9416 67.4417 80 45.2382 80C23.0349 80 4.76196 61.9406 4.76196 40C4.76196 18.057 22.6076 0 45.2382 0C67.013 0 85.7143 18.0581 85.7143 40" fill="black"/>
<path d="M54.4169 60.8937C71.8601 67.8146 68.8329 50.325 59.535 36.9334C54.2652 29.3465 47.3923 23.0258 43.0574 19.9751C28.6839 9.85689 19.8108 15.9937 29.9605 35.9482C33.2421 42.3999 37.457 46.7543 40.749 50.8586C43.2631 53.9921 48.16 55.5611 46.435 57.0482C44.4911 58.7249 39.7841 51.3295 39.7841 51.3295C36.3078 47.2853 32.9943 42.9706 29.5793 37.0496C21.7768 23.5247 22.9017 9.72097 37.0245 15.7338C49.0096 20.8394 60.4574 35.1587 65.0599 45.3277C67.1859 50.0228 72.9819 68.6017 54.5214 61.0904" fill="white"/>
<path d="M0.952393 52.1019C8.55726 47.0602 15.7675 43.8049 28.0376 39.7709C45.2798 34.1007 58.2571 30.2894 74.1788 22.3224C81.3057 18.757 93.6723 10.761 98.0953 3.80951C96.7708 6.49978 92.6703 11.7362 90.8139 14.0524C69.2103 40.9801 23.1926 39.4532 1.25607 52.3809" fill="#D4D7D9"/>
<path d="M12.0054 32.9881C18.9788 33.0419 18.2946 32.9744 18.3761 33.0547C18.498 33.0547 23.9441 42.2786 23.9441 42.3581C23.9441 42.3975 23.9034 39.0802 23.9034 34.9315C23.9034 34.4523 22.5628 33.0549 22.6028 33.0549C24.5932 33.0549 27.1948 33.0949 27.1948 33.0949C26.22 34.213 26.0253 34.1213 26.0172 34.8121C25.9897 37.0339 25.964 41.1399 26.0172 45.7522C26.0248 46.4435 26.5456 46.7104 27.399 47.9085H21.0176C18.9449 44.5147 15.1468 38.148 15.1657 38.1659C15.1949 38.1951 15.0839 42.1595 15.2054 45.3528C15.2465 46.4082 15.7342 46.7501 16.6289 47.7089C16.6289 47.7089 17.6578 47.6818 11.6295 47.7484C13.4583 46.7902 13.2154 45.5925 13.2145 45.5526C13.1488 41.1398 13.2009 37.367 13.2009 34.9314C13.2009 34.5322 13.1733 34.5716 11.914 33.0548" fill="white"/>
<path d="M33.809 39.8031C34.3946 37.8041 34.8947 36.0175 35.1321 34.8527C35.1723 34.6529 34.6851 33.9345 33.9129 33.2155L33.8582 33.104C37.5818 33.1158 41.4717 33.1356 41.4717 33.1356C42.4877 35.5713 44.8042 42.3984 46.5518 46.5911C47.014 47.6993 47.8118 47.9085 47.8118 47.9085C44.6417 47.869 38.7588 47.8957 38.7901 47.869C40.3746 46.4707 40.1714 46.4707 39.4805 44.435H34.5228C33.5067 46.7502 34.8394 47.8373 35.01 47.8288C33.8816 47.886 30.0522 47.8288 30.0522 47.8288C32.125 46.3909 32.0026 45.9522 32.0026 45.9522C32.5721 43.9602 33.2318 41.7778 33.8093 39.8019L35.8434 39.8023C35.4064 41.1805 34.9695 42.5577 34.9695 42.5577H38.9127L36.7175 37.0474C36.7175 37.0474 36.2806 38.425 35.8435 39.8022L33.8094 39.8019" fill="white"/>
<path d="M67.868 40.0026C68.4524 38.0041 68.9532 36.2169 69.1901 35.0515C69.2301 34.8527 68.7424 34.1343 67.9707 33.4148L67.9156 33.3038C71.6402 33.3156 75.5312 33.3354 75.5312 33.3354C76.5457 35.7711 78.8627 42.5985 80.6099 46.7909C81.0716 47.8996 81.8694 48.1088 81.8694 48.1088C78.7009 48.0683 72.8178 48.096 72.8481 48.0683C74.4336 46.6715 74.2304 46.6715 73.5395 44.635H68.5807C67.5646 46.9507 68.8967 48.0372 69.0674 48.0295C67.9399 48.0862 64.11 48.0295 64.11 48.0295C66.1822 46.5916 66.0607 46.1524 66.0607 46.1524C66.6302 44.1599 67.29 41.9782 67.8681 40.0027H69.9016C69.4636 41.3809 69.0286 42.7585 69.0286 42.7585H72.9697L70.7747 37.2482C70.7747 37.2482 70.3392 38.6254 69.9017 40.0026H67.8681" fill="white"/>
<path d="M61.4563 36.7299C61.375 33.8941 61.4563 32.976 61.4563 32.976C60.1958 33.9747 60.8317 33.8473 57.6771 33.3356C48.5856 31.8603 47.8929 40.2074 52.8403 42.0798C56.9933 43.6518 58.465 43.9598 57.8386 45.4332C57.6354 45.9133 53.8562 47.6699 49.9553 44.1162L50.0356 49.0673C50.5232 48.5733 51.8654 47.6699 51.8654 47.6699C51.9055 47.6699 56.094 49.4847 59.8708 47.5894C65.6835 44.6752 62.7824 39.958 56.5794 38.0869C51.4177 36.5295 56.2948 32.8958 61.4151 36.7694" fill="white"/>
<path d="M46.2368 4.45121C46.2368 4.62983 46.0884 4.77636 45.9067 4.77636C45.7261 4.77636 45.5766 4.62983 45.5766 4.45121C45.5766 4.27411 45.7261 4.12707 45.9067 4.12707C46.0884 4.12707 46.2368 4.27411 46.2368 4.45121" fill="white"/>
<path d="M48.5265 9.3678C48.5265 9.58684 48.3418 9.76695 48.1201 9.76695C47.8969 9.76695 47.7132 9.58682 47.7132 9.3678C47.7132 9.14926 47.8969 8.96912 48.1201 8.96912C48.3418 8.96912 48.5265 9.14925 48.5265 9.3678" fill="white"/>
<path d="M54.4672 17.403C54.4672 17.6216 54.2841 17.8021 54.0608 17.8021C53.8386 17.8021 53.6544 17.6216 53.6544 17.403C53.6544 17.1839 53.825 17.0033 54.0483 17.0033C54.2716 17.0033 54.4672 17.1839 54.4672 17.403" fill="white"/>
<path d="M44.9167 12.1378C44.9167 12.3159 44.7682 12.4619 44.5866 12.4619C44.4054 12.4619 44.2559 12.3159 44.2559 12.1378C44.2559 11.9601 44.4054 11.813 44.5866 11.813C44.7682 11.813 44.9167 11.9601 44.9167 12.1378" fill="white"/>
<path d="M48.4749 13.9848C48.4749 14.1619 48.3258 14.309 48.1452 14.309C47.9641 14.309 47.8146 14.1619 47.8146 13.9848C47.8146 13.8072 47.9641 13.6606 48.1452 13.6606C48.3258 13.6606 48.4749 13.8072 48.4749 13.9848" fill="white"/>
<path d="M43.851 8.81839C43.851 9.03756 43.6674 9.21755 43.4446 9.21755C43.2218 9.21755 43.0382 9.03754 43.0382 8.81839C43.0382 8.59936 43.2219 8.41873 43.4446 8.41873C43.6674 8.41873 43.851 8.59937 43.851 8.81839" fill="white"/>
<path d="M38.4673 12.0381C38.4673 12.2162 38.3183 12.3627 38.1367 12.3627C37.9556 12.3627 37.8066 12.2162 37.8066 12.0381C37.8066 11.8603 37.9556 11.7133 38.1367 11.7133C38.3183 11.7133 38.4673 11.8604 38.4673 12.0381" fill="white"/>
<path d="M39.43 12.6862C39.43 12.8649 39.281 13.0115 39.0994 13.0115C38.9182 13.0115 38.7687 12.8649 38.7687 12.6862C38.7687 12.5086 38.9182 12.3626 39.0994 12.3626C39.281 12.3626 39.43 12.5086 39.43 12.6862" fill="white"/>
<path d="M40.396 13.3353C40.396 13.5139 40.247 13.6605 40.0657 13.6605C39.8846 13.6605 39.7351 13.5139 39.7351 13.3353C39.7351 13.1582 39.8846 13.0117 40.0657 13.0117C40.247 13.0117 40.396 13.1582 40.396 13.3353" fill="white"/>
<path d="M38.9246 14.5836C38.9246 14.7617 38.7745 14.9082 38.5939 14.9082C38.4123 14.9082 38.2632 14.7617 38.2632 14.5836C38.2632 14.406 38.4123 14.2595 38.5939 14.2595C38.7745 14.2595 38.9246 14.406 38.9246 14.5836" fill="white"/>
<path d="M31.2526 19.8738C31.2526 20.0519 31.1031 20.1979 30.922 20.1979C30.7409 20.1979 30.5914 20.0519 30.5914 19.8738C30.5914 19.6956 30.7409 19.549 30.922 19.549C31.1031 19.549 31.2526 19.6956 31.2526 19.8738" fill="white"/>
<path d="M32.6745 21.5714C32.6745 21.7491 32.525 21.8956 32.3439 21.8956C32.1628 21.8956 32.0132 21.7491 32.0132 21.5714C32.0132 21.3927 32.1628 21.2467 32.3439 21.2467C32.525 21.2467 32.6745 21.3927 32.6745 21.5714" fill="white"/>
<path d="M31.5442 48.9723C31.5442 49.1505 31.3952 49.2965 31.2139 49.2965C31.0328 49.2965 30.8838 49.1505 30.8838 48.9723C30.8838 48.7947 31.0328 48.6476 31.2139 48.6476C31.3952 48.6476 31.5442 48.7947 31.5442 48.9723" fill="white"/>
<path d="M31.7473 56.5321C31.7473 56.7511 31.5636 56.9308 31.3409 56.9308C31.1181 56.9308 30.9345 56.7511 30.9345 56.5321C30.9345 56.3129 31.1181 56.1329 31.3409 56.1329C31.5637 56.1329 31.7473 56.3129 31.7473 56.5321" fill="white"/>
<path d="M27.3775 60.4033C27.3775 60.5804 27.2285 60.7274 27.0479 60.7274C26.8668 60.7274 26.7173 60.5804 26.7173 60.4033C26.7173 60.2246 26.8668 60.0785 27.0479 60.0785C27.2285 60.0785 27.3775 60.2246 27.3775 60.4033" fill="white"/>
<path d="M22.1458 61.972C22.1458 62.1911 21.9611 62.3707 21.7389 62.3707C21.516 62.3707 21.3325 62.1911 21.3325 61.972C21.3325 61.7525 21.516 61.5724 21.7389 61.5724C21.9611 61.5724 22.1458 61.7525 22.1458 61.972" fill="white"/>
<path d="M21.0786 58.4795C21.0786 58.6975 20.8951 58.8782 20.6727 58.8782C20.45 58.8782 20.2663 58.6975 20.2663 58.4795C20.2663 58.2599 20.45 58.0798 20.6727 58.0798C20.8951 58.0798 21.0786 58.26 21.0786 58.4795" fill="white"/>
<path d="M20.4697 60.7008C20.4697 60.8789 20.3202 61.0249 20.1391 61.0249C19.958 61.0249 19.8083 60.8789 19.8083 60.7008C19.8083 60.5232 19.958 60.3762 20.1391 60.3762C20.3202 60.3762 20.4697 60.5232 20.4697 60.7008" fill="white"/>
<path d="M16.5571 58.8548C16.5571 59.0324 16.4081 59.1794 16.2275 59.1794C16.0459 59.1794 15.8968 59.0324 15.8968 58.8548C15.8968 58.6772 16.0459 58.5305 16.2275 58.5305C16.4081 58.5305 16.5571 58.6772 16.5571 58.8548" fill="white"/>
<path d="M30.2226 65.0926C30.2226 65.2709 30.0861 65.4174 29.9055 65.4174C29.7244 65.4174 29.5623 65.2709 29.5623 65.0926C29.5623 64.915 29.7118 64.768 29.8924 64.768C30.074 64.768 30.2226 64.915 30.2226 65.0926" fill="white"/>
<path d="M34.3384 62.1242C34.3384 62.3437 34.1678 62.5238 33.9445 62.5238C33.7217 62.5238 33.5256 62.3437 33.5256 62.1242C33.5256 61.906 33.7091 61.7255 33.932 61.7255C34.1552 61.7255 34.3384 61.906 34.3384 62.1242" fill="white"/>
<path d="M34.8094 65.9413C34.8094 66.1194 34.6468 66.2665 34.4667 66.2665C34.2851 66.2665 34.1361 66.1194 34.1361 65.9413C34.1361 65.7636 34.2851 65.6176 34.4667 65.6176C34.6468 65.6176 34.8094 65.7636 34.8094 65.9413" fill="white"/>
<path d="M51.7238 62.2966C51.7238 62.4743 51.5748 62.6214 51.3942 62.6214C51.2121 62.6214 51.0631 62.4743 51.0631 62.2966C51.0631 62.1185 51.2121 61.9725 51.3942 61.9725C51.5748 61.9725 51.7238 62.1185 51.7238 62.2966" fill="white"/>
<path d="M43.851 65.0419C43.851 65.22 43.7025 65.3661 43.5209 65.3661C43.3403 65.3661 43.1908 65.22 43.1908 65.0419C43.1908 64.8643 43.3403 64.7173 43.5209 64.7173C43.7025 64.7173 43.851 64.8643 43.851 65.0419" fill="white"/>
<path d="M65.0351 68.9875C65.0351 69.1651 64.8856 69.3117 64.705 69.3117C64.5234 69.3117 64.3738 69.1651 64.3738 68.9875C64.3738 68.8094 64.5234 68.6628 64.705 68.6628C64.8856 68.6628 65.0351 68.8094 65.0351 68.9875" fill="white"/>
<path d="M66.761 53.638C66.761 53.857 66.578 54.0377 66.3546 54.0377C66.1314 54.0377 65.9482 53.857 65.9482 53.638C65.9482 53.4188 66.1314 53.2383 66.3546 53.2383C66.578 53.2383 66.761 53.4188 66.761 53.638" fill="white"/>
<path d="M63.5122 55.8085C63.5122 55.9863 63.3632 56.1333 63.1811 56.1333C63.0003 56.1333 62.8513 55.9863 62.8513 55.8085C62.8513 55.6304 63.0003 55.4844 63.1811 55.4844C63.3632 55.4844 63.5122 55.6304 63.5122 55.8085" fill="white"/>
<path d="M66.7128 56.434C66.7128 56.6531 66.5296 56.8337 66.3064 56.8337C66.083 56.8337 65.9 56.6531 65.9 56.434C65.9 56.2154 66.083 56.0349 66.3064 56.0349C66.5296 56.0349 66.7128 56.2154 66.7128 56.434" fill="white"/>
<path d="M63.5122 60.3018C63.5122 60.4794 63.3632 60.626 63.1811 60.626C63.0003 60.626 62.8513 60.4794 62.8513 60.3018C62.8513 60.1237 63.0003 59.9771 63.1811 59.9771C63.3632 59.9771 63.5122 60.1237 63.5122 60.3018" fill="white"/>
<path d="M71.7905 51.4674C71.7905 51.6455 71.641 51.7922 71.4602 51.7922C71.2796 51.7922 71.1307 51.6455 71.1307 51.4674C71.1307 51.2893 71.2796 51.1433 71.4602 51.1433C71.641 51.1433 71.7905 51.2893 71.7905 51.4674" fill="white"/>
<path d="M72.5916 53.4385C72.5916 53.658 72.422 53.8382 72.1988 53.8382C71.9754 53.8382 71.7798 53.658 71.7798 53.4385C71.7798 53.2193 71.9629 53.0398 72.1852 53.0398C72.4084 53.0398 72.5916 53.2193 72.5916 53.4385" fill="white"/>
<path d="M78.2949 55.7849C78.2949 56.0039 78.1128 56.184 77.8885 56.184C77.6652 56.184 77.4822 56.0039 77.4822 55.7849C77.4822 55.5664 77.6652 55.3852 77.8885 55.3852C78.1128 55.3852 78.2949 55.5664 78.2949 55.7849" fill="white"/>
<path d="M72.5022 59.9536C72.5022 60.1312 72.3516 60.2779 72.1709 60.2779C71.9903 60.2779 71.8408 60.1312 71.8408 59.9536C71.8408 59.775 71.9903 59.629 72.1709 59.629C72.3516 59.629 72.5022 59.775 72.5022 59.9536" fill="white"/>
<path d="M76.16 56.5591C76.16 56.7372 76.011 56.8833 75.8305 56.8833C75.6499 56.8833 75.5003 56.7372 75.5003 56.5591C75.5003 56.381 75.6499 56.2345 75.8305 56.2345C76.011 56.2345 76.16 56.381 76.16 56.5591" fill="white"/>
<path d="M75.4862 61.7996C75.4862 61.9778 75.3372 62.1239 75.1566 62.1239C74.9745 62.1239 74.8255 61.9778 74.8255 61.7996C74.8255 61.622 74.9745 61.4749 75.1566 61.4749C75.3372 61.4749 75.4862 61.622 75.4862 61.7996" fill="white"/>
<path d="M77.0368 53.0903C77.0368 53.3641 76.8068 53.5891 76.5285 53.5891C76.25 53.5891 76.0206 53.3641 76.0206 53.0903C76.0206 52.8164 76.25 52.5914 76.5285 52.5914C76.8068 52.5914 77.0368 52.8164 77.0368 53.0903" fill="white"/>
<path d="M76.5279 51.5688L76.3763 52.9412L74.9916 53.0911L76.3874 53.2402L76.5404 54.6631L76.6935 53.2402L78.0647 53.066L76.6809 52.9412L76.5279 51.5688" fill="white"/>
<path d="M73.4785 61.7726C73.4785 62.0464 73.2492 62.2714 72.9708 62.2714C72.6923 62.2714 72.4625 62.0464 72.4625 61.7726C72.4625 61.4987 72.6923 61.2737 72.9708 61.2737C73.2492 61.2737 73.4785 61.4987 73.4785 61.7726" fill="white"/>
<path d="M72.9731 60.2511L72.8202 61.6235L71.4363 61.7734L72.8326 61.9235L72.9857 63.3455L73.1387 61.9235L74.5095 61.7488L73.1247 61.6235L72.9731 60.2511" fill="white"/>
<path d="M35.583 20.5469C35.583 20.8208 35.3537 21.0457 35.0753 21.0457C34.7958 21.0457 34.567 20.8208 34.567 20.5469C34.567 20.2731 34.7958 20.0481 35.0753 20.0481C35.3537 20.0481 35.583 20.2731 35.583 20.5469" fill="white"/>
<path d="M35.0741 19.0248L34.9215 20.397L33.5367 20.5471L34.9341 20.6962L35.0867 22.1192L35.2386 20.6962L36.6105 20.5225L35.2257 20.397L35.0741 19.0248" fill="white"/>
<path d="M54.4809 8.46949C54.4809 8.74335 54.2511 8.96882 53.9726 8.96882C53.6942 8.96882 53.4659 8.74334 53.4659 8.46949C53.4659 8.19563 53.6942 7.97015 53.9726 7.97015C54.2511 7.97015 54.4809 8.19564 54.4809 8.46949" fill="white"/>
<path d="M53.9721 6.94601L53.8206 8.31875L52.4358 8.46882L53.8331 8.61876L53.9847 10.0414L54.1377 8.61876L55.509 8.44355L54.1242 8.31875L53.9721 6.94601" fill="white"/>
<path d="M31.5056 69.7618C31.5056 70.0356 31.2764 70.2606 30.9979 70.2606C30.7184 70.2606 30.4891 70.0356 30.4891 69.7618C30.4891 69.4884 30.7184 69.2624 30.9979 69.2624C31.2764 69.2624 31.5056 69.4884 31.5056 69.7618" fill="white"/>
<path d="M31.0099 68.2369L30.8579 69.6097L29.4735 69.7597L30.8705 69.9092L31.023 71.3318L31.175 69.9092L32.5467 69.735L31.1625 69.6097L31.0099 68.2369Z" fill="white"/>
<path d="M98.0953 3.80951C91.9608 21.9165 67.3856 35.8986 46.6985 49.2469C34.2183 57.3012 21.8276 66.5724 13.2974 74.4616C11.049 76.5421 13.7556 73.6839 12.8939 74.5622C24.7982 60.9246 38.4919 52.8017 46.0591 47.689C58.8567 39.0387 66.1358 36.8585 88.2149 16.6243" fill="#D4D7D9"/>
<path d="M5.48712 49.5238C3.42109 50.3905 1.57026 51.2469 0 52.0828L0.955476 52.3809C2.32873 51.6557 3.97752 50.8993 5.71429 50.2326" fill="#C2C2C2"/>
<path d="M17.4309 68.5714C15.5046 70.4872 13.5137 72.5323 11.5168 74.6758L11.4286 76.1905C13.257 74.0443 15.5031 71.7262 18.0953 69.2667" fill="#D4D7D9"/>
<path d="M54.4699 60.8323C71.8457 67.9659 68.8302 49.9388 59.5682 36.1357C54.3189 28.3157 47.8451 22.1122 43.1544 18.6562C37.6774 14.6203 37.1428 14.2857 37.1428 14.2857C49.3737 20.0792 60.485 34.3072 65.0698 44.789C67.1875 49.6283 72.9611 68.7782 54.572 61.0361" fill="white"/>
</svg>
