<svg viewBox="0 0 355.92 57.91" xmlns="http://www.w3.org/2000/svg"><g transform="translate(-7.08 -7.09)"><g fill="#005579"><path d="m91.84 57c.07 3.08.59 4.11 1.38 4.38a6.2 6.2 0 0 0 2.06.28c.43 0 .67.08.67.32s-.36.39-.91.39c-2.57 0-4.15-.11-4.9-.11-.36 0-2.22.11-4.27.11-.52 0-.88 0-.88-.39s.24-.32.64-.32a7.39 7.39 0 0 0 1.78-.19c1-.32 1.18-1.47 1.22-4.91l.37-23.4c0-.8.12-1.35.51-1.35s.79.51 1.47 1.23c.47.51 6.48 7 12.25 12.69 2.69 2.69 8 8.38 8.7 9h.18l-.4-17.73c0-2.41-.39-3.16-1.32-3.56a6.73 6.73 0 0 0 -2.11-.23c-.47 0-.63-.13-.63-.36s.44-.36 1-.36c2.07 0 4 .12 4.78.12.45 0 1.93-.12 3.89-.12.51 0 .9 0 .9.36s-.24.36-.72.36a4.55 4.55 0 0 0 -1.17.11c-1.12.32-1.42 1.15-1.48 3.36l-.42 24.95c0 .87-.15 1.23-.52 1.23s-.9-.43-1.35-.87c-2.49-2.37-7.55-7.55-11.66-11.62-4.31-4.28-8.7-9.22-9.41-10h-.09z"/><path d="m157.42 48.18c0-8.86-5.1-14.35-11.58-14.35-4.55 0-9.74 2.53-9.74 12.37 0 8.23 4.56 14.75 12.15 14.75 2.75.05 9.17-1.34 9.17-12.77zm-26.77-.75c0-6.76 4.46-15.5 16.34-15.5 9.82 0 16 5.73 16 14.79s-6.33 16.21-16.37 16.21c-11.36 0-15.94-8.5-15.94-15.5"/><path d="m175.87 36.36c-.91-2.18-1.57-2.61-3-3a6.19 6.19 0 0 0 -1.53-.15c-.34 0-.46-.13-.46-.36s.43-.36 1-.36c2.08 0 4.34.12 5.73.12 1 0 2.89-.12 4.85-.12.48 0 .91.08.91.36s-.25.36-.58.36a3 3 0 0 0 -1.57.27 1 1 0 0 0 -.39.83 12.08 12.08 0 0 0 .91 3.05l6.81 17.95h.15c1.72-4.35 6.85-17.08 7.81-19.69a5.36 5.36 0 0 0 .33-1.47.77.77 0 0 0 -.48-.75 5.36 5.36 0 0 0 -1.6-.19c-.36 0-.66 0-.66-.32s.36-.4 1.11-.4c2 0 3.62.12 4.13.12.7 0 2.54-.12 3.71-.12.55 0 .85.08.85.36s-.24.36-.64.36a3.42 3.42 0 0 0 -1.93.47c-.51.35-1.11 1-2.17 3.56-1.56 3.71-2.62 5.85-4.76 10.71-2.52 5.76-4.4 10.05-5.24 12.05-1 2.29-1.26 2.93-1.84 2.93s-.72-.56-1.47-2.41l-10-24.16"/><path d="m225.67 50.08c.21 0 .24-.12.21-.24l-3.55-9.76c0-.16-.09-.36-.21-.36s-.18.2-.21.36l-3.65 9.72c0 .16 0 .28.15.28zm-8 2c-.21 0-.27.08-.36.32l-2.19 5.6a7.55 7.55 0 0 0 -.57 2.41c0 .71.33 1.22 1.57 1.22h.6c.45 0 .57.08.57.32s-.21.39-.66.39c-1.27 0-3-.11-4.19-.11-.42 0-2.62.11-4.67.11-.52 0-.76-.08-.76-.39s.18-.32.48-.32a12.11 12.11 0 0 0 1.24-.08c1.81-.23 2.56-1.58 3.35-3.55l9.92-24.8c.48-1.15.72-1.59 1.11-1.59s.6.36 1 1.27c.93 2.17 7.26 18.31 9.79 24.31 1.51 3.56 2.66 4.12 3.5 4.31a8.37 8.37 0 0 0 1.66.16c.3 0 .51 0 .51.32s-.36.39-1.84.39-4.31 0-7.44-.08c-.73 0-1.21 0-1.21-.31s.15-.32.54-.36a.61.61 0 0 0 .36-.9l-3.16-8.39a.35.35 0 0 0 -.39-.28h-8.81"/><path d="m256.27 47.07c0 .44.09.6.37.71a10.38 10.38 0 0 0 3 .4 4 4 0 0 0 2.8-.67c1.18-.87 2.33-2.69 2.33-5.93 0-5.62-3.71-7.24-6-7.24a8.63 8.63 0 0 0 -2.11.16c-.28.08-.37.24-.37.55zm-4.64-3.07c0-6 0-7.12-.09-8.38s-.39-2-1.69-2.26a8.34 8.34 0 0 0 -1.56-.11c-.43 0-.67-.09-.67-.36s.27-.36.88-.36c2.11 0 4.58.12 5.42.12 1.33 0 4.34-.12 5.58-.12 2.47 0 5.13.24 7.27 1.7a6.86 6.86 0 0 1 2.68 5.42c0 2.93-1.24 5.61-5.22 8.86 3.53 4.43 6.24 7.94 8.6 10.39 2.2 2.3 3.82 2.58 4.4 2.69a6.49 6.49 0 0 0 1.11.12c.33 0 .49.12.49.32s-.28.39-.76.39h-3.77c-2.2 0-3.19-.19-4.22-.75-1.69-.9-3.19-2.77-5.42-5.81-1.57-2.17-3.38-4.86-3.89-5.45a.88.88 0 0 0 -.73-.28l-3.43-.13c-.21 0-.34.08-.34.31v.56c0 3.68 0 6.8.22 8.46.12 1.15.36 2 1.53 2.17a18.73 18.73 0 0 0 1.93.16c.33 0 .48.12.48.32s-.27.39-.78.39c-2.29 0-5.21-.11-5.82-.11s-3.22.11-4.82.11c-.51 0-.79-.11-.79-.39s.16-.32.64-.32a6.45 6.45 0 0 0 1.41-.16c.79-.15 1-1 1.15-2.17.21-1.66.21-4.78.21-8.42z"/><path d="m292.9 34.7-5.87.15c-2.3.09-3.26.28-3.86 1.15a4.89 4.89 0 0 0 -.67 1.39c-.06.31-.18.47-.42.47s-.36-.2-.36-.63c0-.63.75-4.23.81-4.55.12-.51.24-.75.49-.75a9.91 9.91 0 0 0 1.71.47c1.15.12 2.66.2 3.95.2h15.65a17.37 17.37 0 0 0 3.8-.39c.27 0 .3.23.3.83 0 .83-.12 3.56-.12 4.58 0 .4-.09.63-.33.63s-.39-.19-.45-.79v-.43c-.09-1-1.15-2.13-4.68-2.22l-5-.11v16.21c0 3.64 0 6.76.18 8.46.15 1.11.36 2 1.57 2.13a16.06 16.06 0 0 0 2 .16c.42 0 .63.12.63.32s-.33.39-.75.39c-2.63 0-5.13-.11-6.21-.11-.91 0-3.41.11-5 .11-.51 0-.78-.11-.78-.39s.15-.32.63-.32a6.11 6.11 0 0 0 1.42-.16c.81-.15 1.05-1 1.17-2.17.18-1.66.18-4.78.18-8.42v-16.21"/><path d="m323.63 44c0-6 0-7.12-.09-8.38s-.46-2-1.33-2.22a5.72 5.72 0 0 0 -1.42-.15c-.42 0-.63-.09-.63-.4s.3-.32.93-.32c1.51 0 4 .12 5.13.12 1 0 3.35-.12 4.82-.12.55 0 .85.08.85.32s-.24.4-.64.4a6.22 6.22 0 0 0 -1.17.11c-1.09.2-1.39.87-1.48 2.26s-.06 2.37-.06 8.38v7c0 3.83 0 7 .15 8.66.12 1.06.39 1.78 1.57 1.93a17.18 17.18 0 0 0 2 .16c.45 0 .63.12.63.32s-.3.39-.75.39c-2.59 0-5.1-.11-6.15-.11s-3.41.11-5 .11c-.51 0-.78-.11-.78-.39s.15-.32.63-.32a6.25 6.25 0 0 0 1.42-.16c.81-.15 1-.82 1.15-2 .21-1.66.21-4.79.21-8.62v-6.97"/><path d="m347.23 61.9c-.63-.28-.75-.47-.75-1.34 0-2.18.15-4.55.18-5.18s.18-1 .48-1 .39.35.39.67a7.49 7.49 0 0 0 .37 2 5.45 5.45 0 0 0 5.66 4c3.56 0 5.28-2.41 5.28-4.51 0-1.93-.57-3.79-3.86-6.32l-1.84-1.43c-4.34-3.4-5.85-6.17-5.85-9.37 0-4.35 3.65-7.47 9.14-7.47a19 19 0 0 1 5.27.67c.37.08.55.2.55.47 0 .52-.15 1.67-.15 4.75 0 .87-.13 1.19-.46 1.19s-.39-.24-.39-.72a4.65 4.65 0 0 0 -1-2.6 5 5 0 0 0 -4.31-1.94c-2.93 0-4.71 1.7-4.71 4.07 0 1.82.91 3.21 4.19 5.7l1.12.82c4.71 3.64 6.46 6.31 6.46 10.07a8 8 0 0 1 -3.71 6.88 11.51 11.51 0 0 1 -6.3 1.62 13.64 13.64 0 0 1 -5.76-1"/></g><path d="m31.21 65c-21.94-1.68-28.61-14.3-21.21-28.5 4-7.65 10-15.88 2.8-23.48-.2-.25 0-.41.27-.27 16.36 6.54 7.82 19.75 5.02 25.25-5.53 10.78-2 23.88 13.12 26.7.33.07.31.35 0 .32" fill="#c12239"/><path d="m34.14 53 3.71-45.9h-8.7l4.68 45.9c0 .3.29.29.31 0" fill="#005579"/><path d="m44.07 29.88c5.42 4.26 14.25 28-7.32 34.78-.35.09-.32.36 0 .32 34.31-4.28 22.52-28.91 7.6-35.39-.4-.2-.59.05-.29.29" fill="#e89140"/></g></svg>