<?xml version="1.0" encoding="UTF-8"?>
<svg width="186px" height="30px" viewBox="0 0 186 30" version="1.1" xmlns="http://www.w3.org/2000/svg" xmlns:xlink="http://www.w3.org/1999/xlink">
    <!-- Generator: Sketch 64 (93537) - https://sketch.com -->
    <title>novartis</title>
    <desc>Created with Sketch.</desc>
    <g id="Index" stroke="none" stroke-width="1" fill="none" fill-rule="evenodd">
        <g id="Desktop-HD" transform="translate(-416.000000, -6996.000000)" fill="#000000" fill-rule="nonzero">
            <g id="novartis" transform="translate(416.000000, 6996.000000)">
                <g id="Group" transform="translate(40.000000, 12.000000)">
                    <path d="M3.59677943,13.7626953 C3.63354085,15.4245117 3.90662565,15.980249 4.32150448,16.1259277 C4.67126982,16.238485 5.03702248,16.2895609 5.40334043,16.277002 C5.62916055,16.277002 5.75519969,16.320166 5.75519969,16.4496582 C5.75519969,16.5791504 5.56614098,16.660083 5.27730129,16.660083 C3.92763217,16.660083 3.09787451,16.6007324 2.7040022,16.6007324 C2.51494349,16.6007324 1.53814016,16.660083 0.461555849,16.660083 C0.188471048,16.660083 -0.000587660284,16.660083 -0.000587660284,16.4496582 C-0.000587660284,16.2392334 0.125451479,16.277002 0.33551671,16.277002 C0.650005559,16.2818736 0.963904702,16.2474495 1.27030699,16.1744873 C1.79547007,16.0018311 1.88999942,15.3813477 1.91100595,13.525293 L2.10531629,0.899804687 C2.10531629,0.468164062 2.16833586,0.171411133 2.37314946,0.171411133 C2.57796306,0.171411133 2.78802829,0.446582031 3.14513918,0.835058594 C3.39196583,1.11022949 6.54819594,4.61191406 9.57838691,7.68195801 C10.9910756,9.13334961 13.7796915,12.2033936 14.1473057,12.537915 L14.241835,12.537915 L14.0317698,2.97167969 C14.0317698,1.6713623 13.8269562,1.26669922 13.3385546,1.05087891 C12.9779039,0.949556457 12.6038889,0.907670105 12.2304605,0.926782227 C11.9836338,0.926782227 11.8996077,0.856640625 11.8996077,0.732543945 C11.8996077,0.608447266 12.1306795,0.538305664 12.4247708,0.538305664 C13.5118584,0.538305664 14.5254231,0.603051758 14.9350503,0.603051758 C15.1713737,0.603051758 15.9486151,0.538305664 16.9779347,0.538305664 C17.2457679,0.538305664 17.4505815,0.538305664 17.4505815,0.732543945 C17.4505815,0.926782227 17.3245423,0.926782227 17.072464,0.926782227 C16.8660144,0.919194406 16.6594786,0.939144287 16.4580232,0.986132812 C15.8698406,1.15878906 15.7122917,1.60661621 15.6807819,2.79902344 L15.4602134,16.2608154 C15.4602134,16.7302246 15.3814389,16.9244629 15.1871286,16.9244629 C14.9928183,16.9244629 14.7144818,16.6924561 14.4781584,16.4550537 C13.1705024,15.1763184 10.5131772,12.3814453 8.35475693,10.1854736 C6.09130406,7.87619629 3.78583814,5.21081543 3.41297235,4.78996582 L3.36570768,4.78996582 L3.59677943,13.7626953 Z" id="Path"></path>
                    <path d="M38.0369742,9.00385742 C38.0369742,4.2234375 35.3586425,1.26130371 31.9555857,1.26130371 C29.5660937,1.26130371 26.8404973,2.62636719 26.8404973,7.93554688 C26.8404973,12.3760498 29.235241,15.8939209 33.2212287,15.8939209 C34.6654272,15.9208984 38.0369742,15.1709229 38.0369742,9.00385742 L38.0369742,9.00385742 Z M23.9783585,8.59919434 C23.9783585,4.95183105 26.3205859,0.236157227 32.5595233,0.236157227 C37.7166247,0.236157227 40.9621325,3.3277832 40.9621325,8.21611328 C40.9621325,13.1044434 37.6378502,16.9622314 32.3652129,16.9622314 C26.3993603,16.9622314 23.9941134,12.3760498 23.9941134,8.59919434" id="Shape"></path>
                    <path d="M47.726233,2.62636719 C47.2483346,1.45014648 46.9017269,1.21813965 46.1507437,1.00771484 C45.8872245,0.946538927 45.6173102,0.919351766 45.3472442,0.926782227 C45.1686888,0.926782227 45.1056692,0.856640625 45.1056692,0.732543945 C45.1056692,0.608447266 45.3314893,0.538305664 45.6308323,0.538305664 C46.7231715,0.538305664 47.9100401,0.603051758 48.6400167,0.603051758 C49.1651798,0.603051758 50.157738,0.538305664 51.1870577,0.538305664 C51.439136,0.538305664 51.6649561,0.581469727 51.6649561,0.732543945 C51.6649561,0.883618164 51.5336653,0.926782227 51.3603615,0.926782227 C51.0777699,0.898114352 50.7928901,0.948448638 50.5358555,1.07246094 C50.4010592,1.17888043 50.3247401,1.34575316 50.3310419,1.52028809 C50.4189976,2.088086 50.5796916,2.64143122 50.8089403,3.16591797 L54.3853008,12.8508545 L54.4640753,12.8508545 C55.3673558,10.5038086 58.0614424,3.63532715 58.5655989,2.22709961 C58.6594242,1.97242096 58.7177683,1.70540403 58.7389028,1.43395996 C58.7470073,1.25777152 58.6459422,1.09553098 58.4868245,1.02929688 C58.2133651,0.951822377 57.9300782,0.917260424 57.6465635,0.926782227 C57.4575048,0.926782227 57.2999559,0.926782227 57.2999559,0.754125977 C57.2999559,0.581469727 57.4890146,0.538305664 57.8828869,0.538305664 C58.9332131,0.538305664 59.7839773,0.603051758 60.0518105,0.603051758 C60.4194246,0.603051758 61.3857247,0.538305664 62.0001655,0.538305664 C62.2890052,0.538305664 62.4465541,0.581469727 62.4465541,0.732543945 C62.4465541,0.883618164 62.320515,0.926782227 62.1104497,0.926782227 C61.7556157,0.906425685 61.4028793,0.994678569 61.096885,1.18037109 C60.8290518,1.36921387 60.513954,1.71992188 59.9572811,3.10117188 C59.1380267,5.10290527 58.5813538,6.25754395 57.4575048,8.87976074 C56.1340939,11.9875732 55.1467873,14.3022461 54.7056503,15.3813477 C54.1804872,16.6169189 54.0439448,16.9622314 53.7393502,16.9622314 C53.4347557,16.9622314 53.3612328,16.660083 52.9673605,15.6619141 L47.7157297,2.62636719" id="Path"></path>
                    <path d="M73.8793543,10.0290039 C73.9896386,10.0290039 74.0053935,9.96425781 73.9896386,9.89951172 L72.1253096,4.63349609 C72.1253096,4.54716797 72.078045,4.43925781 72.0150254,4.43925781 C71.9520058,4.43925781 71.920496,4.54716797 71.9047411,4.63349609 L69.9878959,9.87792969 C69.9878959,9.96425781 69.9878959,10.0290039 70.0666704,10.0290039 L73.8793543,10.0290039 Z M69.6780497,11.1081055 C69.5677654,11.1081055 69.5362557,11.1512695 69.488991,11.2807617 L68.3388838,14.3022461 C68.1701204,14.7158031 68.0689791,15.1551513 68.0395409,15.6025635 C68.0395409,15.9856445 68.2128447,16.2608154 68.8640469,16.2608154 L69.1791448,16.2608154 C69.4154682,16.2608154 69.4784877,16.3039795 69.4784877,16.4334717 C69.4784877,16.5629639 69.3682035,16.6438965 69.1318801,16.6438965 C68.464923,16.6438965 67.5563909,16.5845459 66.9314468,16.5845459 C66.7108783,16.5845459 65.5555195,16.6438965 64.4789352,16.6438965 C64.2058504,16.6438965 64.0798113,16.6007324 64.0798113,16.4334717 C64.0798113,16.2662109 64.1743406,16.2608154 64.3318895,16.2608154 C64.5495329,16.2578859 64.7668863,16.2434789 64.9830918,16.2176514 C65.9336369,16.0935547 66.3275092,15.3651611 66.7423881,14.3022461 L71.9520058,0.921386719 C72.2040841,0.30090332 72.3301232,0.0635009766 72.5349368,0.0635009766 C72.7397504,0.0635009766 72.8500347,0.257739258 73.0600999,0.748730469 C73.5485016,1.91955566 76.8727839,10.6279053 78.2014465,13.86521 C78.9944427,15.7860107 79.5983803,16.0881592 80.0395172,16.1906738 C80.3265856,16.2491949 80.6186251,16.2781145 80.911288,16.277002 C81.0688369,16.277002 81.1791211,16.277002 81.1791211,16.4496582 C81.1791211,16.6223145 80.9900624,16.660083 80.2128211,16.660083 C79.4355797,16.660083 77.9493682,16.660083 76.3056078,16.6169189 C75.9222387,16.6169189 75.6701604,16.6169189 75.6701604,16.4496582 C75.6701604,16.2823975 75.7489349,16.277002 75.9537485,16.2554199 C76.0498893,16.2278648 76.1280355,16.1558449 76.1651047,16.0606331 C76.2021738,15.9654213 76.1939296,15.8578984 76.1428072,15.7698242 L74.4832919,11.2429932 C74.4646949,11.1448822 74.3749062,11.0786525 74.2784783,11.0919189 L69.6517915,11.0919189" id="Shape"></path>
                    <path d="M89.9493446,8.40495605 C89.9493446,8.6423584 89.9966092,8.72868652 90.1436549,8.78803711 C90.6557343,8.93867308 91.1865384,9.01138593 91.7191441,9.00385742 C92.2359788,9.07504522 92.7601104,8.94619202 93.1896008,8.6423584 C93.8092932,8.17294922 94.4132307,7.1909668 94.4132307,5.44282227 C94.4132307,2.41054688 92.4648757,1.53647461 91.2622523,1.53647461 C90.8908392,1.51844121 90.5186776,1.54743515 90.1541582,1.62280273 C90.0071125,1.6659668 89.9598478,1.75229492 89.9598478,1.91955566 L89.9493446,8.40495605 Z M87.5125879,6.74853516 C87.5125879,3.51123047 87.5125879,2.90693359 87.4653232,2.22709961 C87.4180585,1.54726563 87.2605096,1.14799805 86.5777976,1.00771484 C86.3071249,0.961611744 86.0328346,0.941740878 85.7585432,0.948364258 C85.5327231,0.948364258 85.4066839,0.899804688 85.4066839,0.754125977 C85.4066839,0.608447266 85.5484779,0.559887695 85.8688274,0.559887695 C86.9769215,0.559887695 88.2740743,0.624633789 88.7152113,0.624633789 C89.4136782,0.624633789 90.9944191,0.559887695 91.6456213,0.559887695 C92.9427741,0.559887695 94.3397079,0.689379883 95.4635569,1.47712402 C96.348084,2.17546748 96.8678339,3.25540111 96.8709939,4.40148926 C96.8709939,5.98237305 96.2197917,7.42836914 94.1296427,9.18190918 C95.9834683,11.5721191 97.4066603,13.4659424 98.6460451,14.7878418 C99.8014039,16.0288086 100.652168,16.1798828 100.956763,16.2392334 C101.148902,16.2779786 101.343934,16.2996408 101.539694,16.3039795 C101.712998,16.3039795 101.797024,16.3687256 101.797024,16.4766357 C101.797024,16.5845459 101.649978,16.6870605 101.3979,16.6870605 L99.4180349,16.6870605 C98.2626761,16.6870605 97.7427646,16.5845459 97.2018467,16.2823975 C96.3143211,15.7968018 95.5265765,14.7878418 94.3554628,13.1476074 C93.5309568,11.9767822 92.5804116,10.5253906 92.3125784,10.2070557 C92.2147746,10.0979361 92.0729529,10.0420484 91.9292094,10.0559814 L90.1279,9.98583984 C90.0176158,9.98583984 89.9493446,10.0290039 89.9493446,10.1531006 L89.9493446,10.455249 C89.9493446,12.4407959 89.9493446,14.1241943 90.0648804,15.0198486 C90.1279,15.640332 90.2539391,16.0989502 90.8683799,16.1906738 C91.2045598,16.2373877 91.5428668,16.2662022 91.8819447,16.277002 C92.0552485,16.277002 92.134023,16.341748 92.134023,16.4496582 C92.134023,16.5575684 91.9922289,16.660083 91.7243958,16.660083 C90.5217723,16.660083 88.9882961,16.6007324 88.6679466,16.6007324 C88.3475972,16.6007324 86.9769215,16.660083 86.1366606,16.660083 C85.8688274,16.660083 85.7217818,16.6007324 85.7217818,16.4496582 C85.7217818,16.298584 85.8058079,16.277002 86.0578861,16.277002 C86.307052,16.2762941 86.5553811,16.2473429 86.7983661,16.1906738 C87.2132449,16.1097412 87.3235292,15.651123 87.4023036,15.0198486 C87.5125879,14.1241943 87.5125879,12.4407959 87.5125879,10.4768311 L87.5125879,6.74853516 Z" id="Shape"></path>
                    <path d="M109.186068,1.73071289 L106.103361,1.81164551 C104.895486,1.86020508 104.391329,1.96271973 104.076231,2.43212891 C103.921051,2.66141355 103.802287,2.91455631 103.724372,3.18210449 C103.692862,3.34936523 103.629843,3.43569336 103.503804,3.43569336 C103.377764,3.43569336 103.314745,3.3277832 103.314745,3.09577637 C103.314745,2.75585938 103.708617,0.813476563 103.740127,0.640820313 C103.803147,0.365649414 103.866166,0.236157227 103.997457,0.236157227 C104.288822,0.348090091 104.589368,0.432959445 104.895486,0.489746094 C105.499423,0.554492188 106.29242,0.59765625 106.96988,0.59765625 L115.188682,0.59765625 C115.859396,0.603105592 116.528648,0.53253737 117.184302,0.387231445 C117.326096,0.387231445 117.341851,0.511328125 117.341851,0.835058594 C117.341851,1.28288574 117.278831,2.75585938 117.278831,3.30620117 C117.278831,3.52202148 117.231567,3.64611816 117.105527,3.64611816 C116.979488,3.64611816 116.900714,3.54360352 116.869204,3.21987305 L116.869204,2.98786621 C116.821939,2.44831543 116.265266,1.83862305 114.411441,1.79006348 L111.785625,1.73071289 L111.785625,10.4768311 C111.785625,12.4407959 111.785625,14.1241943 111.880155,15.0414307 C111.958929,15.640332 112.069213,16.1205322 112.704661,16.1906738 C113.052676,16.2419126 113.403469,16.2707448 113.754987,16.277002 C113.975555,16.277002 114.08584,16.341748 114.08584,16.4496582 C114.08584,16.5575684 113.912536,16.660083 113.691967,16.660083 C112.310788,16.660083 110.997881,16.6007324 110.430705,16.6007324 C109.952806,16.6007324 108.639899,16.660083 107.804889,16.660083 C107.537056,16.660083 107.395262,16.6007324 107.395262,16.4496582 C107.395262,16.298584 107.474037,16.277002 107.726115,16.277002 C107.977123,16.2782923 108.227411,16.2493182 108.471846,16.1906738 C108.897228,16.1097412 109.023268,15.651123 109.086287,15.0198486 C109.180817,14.1241943 109.180817,12.4407959 109.180817,10.4768311 L109.180817,1.73071289" id="Path"></path>
                    <path d="M125.32433,6.74853516 C125.32433,3.51123047 125.32433,2.90693359 125.277065,2.22709961 C125.2298,1.54726563 125.03549,1.14799805 124.578598,1.02929688 C124.334287,0.970423552 124.083758,0.943234216 123.832866,0.948364258 C123.612298,0.948364258 123.502014,0.899804688 123.502014,0.732543945 C123.502014,0.565283203 123.659563,0.559887695 123.990415,0.559887695 C124.783412,0.559887695 126.091068,0.624633789 126.684502,0.624633789 C127.209665,0.624633789 128.443798,0.559887695 129.215788,0.559887695 C129.504628,0.559887695 129.662177,0.603051758 129.662177,0.732543945 C129.662177,0.862036133 129.536137,0.948364258 129.326072,0.948364258 C129.119894,0.948180874 128.914163,0.968053071 128.711631,1.00771484 C128.139204,1.115625 127.981655,1.47712402 127.93439,2.22709961 C127.887125,2.9770752 127.90288,3.50583496 127.90288,6.74853516 L127.90288,10.5253906 C127.90288,12.5918701 127.90288,14.3022461 127.981655,15.1979004 C128.044674,15.7698242 128.186468,16.1583008 128.806161,16.2392334 C129.154334,16.2890069 129.50504,16.317832 129.856487,16.3255615 C130.09281,16.3255615 130.18734,16.3903076 130.18734,16.4982178 C130.18734,16.6061279 130.029791,16.7086426 129.793467,16.7086426 C128.433295,16.7086426 127.115136,16.649292 126.563714,16.649292 C126.012293,16.649292 124.772908,16.7086426 123.937899,16.7086426 C123.670066,16.7086426 123.528272,16.649292 123.528272,16.4982178 C123.528272,16.3471436 123.607046,16.3255615 123.859125,16.3255615 C124.110097,16.3261717 124.360309,16.2972064 124.604856,16.2392334 C125.030238,16.1583008 125.130019,15.7968018 125.208794,15.1601318 C125.319078,14.2644775 125.319078,12.5756836 125.319078,10.5092041 L125.319078,6.74853516" id="Path"></path>
                    <path d="M137.718178,16.4064941 C137.387326,16.2554199 137.324306,16.1529053 137.324306,15.6834961 C137.324306,14.5072754 137.40308,13.22854 137.418835,12.888623 C137.43459,12.5487061 137.513365,12.3490723 137.670914,12.3490723 C137.828462,12.3490723 137.875727,12.537915 137.875727,12.7105713 C137.892438,13.0776758 137.957811,13.4407228 138.070038,13.7896729 C138.430667,15.1470495 139.676682,16.0517507 141.042461,15.947876 C142.912041,15.947876 143.815322,14.6475586 143.815322,13.514502 C143.815322,12.4731689 143.515979,11.4696045 141.788192,10.104541 L140.821892,9.3329834 C138.542684,7.49851074 137.749688,6.00395508 137.749688,4.27739258 C137.749688,1.93034668 139.666533,0.246948242 142.549679,0.246948242 C143.484141,0.233695053 144.415781,0.355383911 145.317288,0.608447266 C145.511598,0.651611328 145.606128,0.716357422 145.606128,0.862036133 C145.606128,1.14260254 145.527353,1.76308594 145.527353,3.42490234 C145.527353,3.89431152 145.459082,4.06696777 145.285778,4.06696777 C145.112474,4.06696777 145.080965,3.93747559 145.080965,3.67849121 C145.049558,3.16673059 144.866277,2.6771452 144.555802,2.27565918 C144.019588,1.55927115 143.169854,1.16631359 142.292349,1.22893066 C140.753621,1.22893066 139.818831,2.14616699 139.818831,3.42490234 C139.818831,4.40688477 140.296729,5.15686035 142.019264,6.5003418 L142.607447,6.94277344 C145.080965,8.90673828 146,10.3473389 146,12.3760498 C146.02318,13.8773569 145.285318,15.2831708 144.051645,16.0881592 C143.053546,16.7002933 141.904822,17.0037722 140.743118,16.9622314 C139.7087,17.0091077 138.676685,16.8250299 137.718178,16.4226807" id="Path"></path>
                </g>
                <path d="M12.8718245,29.9885238 C1.15730928,29.1216225 -2.40403151,22.6095432 1.54708121,15.2821639 C3.68281781,11.3346673 6.88642271,7.08788344 3.04209683,3.16618749 C2.93531,3.03718433 3.04209683,2.95462231 3.18625905,3.02686408 C11.9214217,6.40158665 7.3616241,13.2181134 5.86660848,16.0561829 C2.91395263,21.618799 4.79874018,28.3785644 12.8718245,29.83372 C13.0480228,29.8698409 13.0373441,30.0143244 12.8718245,29.998844" id="Path"></path>
                <path d="M13.8678161,23.8848605 L16,0 L11,0 L13.6896552,23.8848605 C13.6896552,24.0409707 13.8563218,24.035767 13.8678161,23.8848605" id="Path"></path>
                <path d="M19.6940657,11.1943797 C22.3384777,13.4765103 26.6466247,26.1942988 16.122646,29.8264221 C15.9518814,29.8746361 15.9665183,30.0192782 16.122646,29.9978498 C32.8624564,27.705005 27.1101287,14.5104333 19.8306774,11.0390234 C19.6355179,10.9318811 19.5428171,11.065809 19.6891868,11.1943797" id="Path"></path>
            </g>
        </g>
    </g>
</svg>