<?xml version="1.0" encoding="UTF-8"?>
<svg width="159px" height="138px" viewBox="0 0 159 138" version="1.1" xmlns="http://www.w3.org/2000/svg" xmlns:xlink="http://www.w3.org/1999/xlink">
    <!-- Generator: Sketch 64 (93537) - https://sketch.com -->
    <title>ocado-b</title>
    <desc>Created with Sketch.</desc>
    <g id="Page-1" stroke="none" stroke-width="1" fill="none" fill-rule="evenodd">
        <g id="ocado-b" fill-rule="nonzero">
            <path d="M115.302427,0 L44.838856,0 C39.4853608,0 35,4.33386838 35,9.82343499 L35,80.176565 C35,85.5216693 39.3406718,90 44.838856,90 L124.996594,90 L124.996594,9.82343499 C125.141283,4.33386838 120.655923,0 115.302427,0" id="Path" fill="#262626"></path>
            <path d="M79.9280742,76 C97.0464037,76 111,62.0323326 111,44.7182448 C111,40.6443418 109.705336,35.26097 109.705336,36.5704388 C109.705336,48.2101617 99.0603248,57.6674365 87.6960557,56.0669746 C79.0649652,54.9030023 69.4269142,46.9006928 71.1531323,34.2424942 C72.8793503,21.7297921 83.6682135,16.7829099 91.4361949,17.8013857 C103.951276,19.5473441 106.540603,29.1501155 102.800464,33.6605081 C99.0603248,38.8983834 91.2923434,35.8429561 91.2923434,29.8775982 C91.2923434,26.5311778 93.450116,25.0762125 93.737819,24.7852194 C87.4083527,22.8937644 80.7911833,27.9861432 79.9280742,34.6789838 C78.9211137,41.9538106 84.2436195,47.7736721 90.2853828,48.5011547 C101.361949,50.1016166 107.691415,41.0808314 107.691415,33.0785219 C107.691415,23.6212471 97.7656613,13 80.0719258,13 C62.9535963,13 49,26.9676674 49,44.1362587 C49,61.886836 62.8097448,76 79.9280742,76" id="Path" fill="#FFFFFF"></path>
            <path d="M144.111818,109.257732 C135.728182,109.257732 129.223636,115.457045 129.223636,123.628866 C129.223636,131.800687 135.728182,138 144.111818,138 C152.495455,138 159,131.800687 159,123.628866 C158.855455,115.457045 152.350909,109.257732 144.111818,109.257732 M144.111818,114.189003 C149.46,114.189003 153.651818,118.415808 153.651818,123.628866 C153.651818,128.701031 149.46,133.068729 144.111818,133.068729 C138.763636,133.068729 134.571818,128.701031 134.571818,123.628866 C134.571818,118.415808 138.763636,114.189003 144.111818,114.189003 M75.3081818,133.068729 C69.96,133.068729 65.7681818,128.701031 65.7681818,123.628866 C65.7681818,118.415808 69.96,114.189003 75.3081818,114.189003 C80.6563636,114.189003 84.8481818,118.415808 84.8481818,123.628866 C84.8481818,128.701031 80.6563636,133.068729 75.3081818,133.068729 M84.8481818,109.962199 L84.8481818,113.061856 L84.7036364,113.061856 C82.3909091,110.80756 78.9218182,109.257732 75.1636364,109.257732 C66.78,109.257732 60.2754545,115.457045 60.2754545,123.628866 C60.2754545,131.800687 66.78,138 75.1636364,138 C78.7772727,138 82.3909091,136.450172 84.5590909,134.054983 L84.7036364,134.054983 L84.7036364,137.013746 L90.0518182,137.013746 L90.0518182,109.962199 L84.8481818,109.962199 Z M109.71,133.068729 C104.361818,133.068729 100.17,128.701031 100.17,123.628866 C100.17,118.415808 104.361818,114.189003 109.71,114.189003 C115.058182,114.189003 119.25,118.415808 119.25,123.628866 C119.25,128.701031 115.058182,133.068729 109.71,133.068729 M119.105455,97 L119.105455,113.061856 L118.960909,113.061856 C116.792727,110.666667 113.323636,109.116838 109.565455,109.116838 C101.181818,109.116838 94.6772727,115.316151 94.6772727,123.487973 C94.6772727,131.659794 101.181818,137.859107 109.565455,137.859107 C113.179091,137.859107 116.792727,136.309278 118.960909,133.914089 L119.105455,133.914089 L119.105455,136.872852 L124.453636,136.872852 L124.453636,97 L119.105455,97 Z M55.5054545,130.109966 C53.7709091,131.941581 51.3136364,133.068729 48.5672727,133.068729 C43.2190909,133.068729 39.0272727,128.701031 39.0272727,123.628866 C39.0272727,118.415808 43.2190909,114.189003 48.5672727,114.189003 C51.3136364,114.189003 53.7709091,115.316151 55.5054545,117.147766 L58.1072727,112.357388 C55.5054545,110.38488 52.3254545,109.116838 48.5672727,109.116838 C40.1836364,109.116838 33.6790909,115.316151 33.6790909,123.487973 C33.6790909,131.659794 40.1836364,137.859107 48.5672727,137.859107 C52.1809091,137.859107 55.5054545,136.591065 58.1072727,134.618557 L55.5054545,130.109966 Z M14.8881818,109.257732 C6.50454545,109.257732 0,115.457045 0,123.628866 C0,131.800687 6.50454545,138 14.8881818,138 C23.2718182,138 29.7763636,131.800687 29.7763636,123.628866 C29.6318182,115.457045 23.1272727,109.257732 14.8881818,109.257732 M14.8881818,114.189003 C20.2363636,114.189003 24.4281818,118.415808 24.4281818,123.628866 C24.4281818,128.701031 20.2363636,133.068729 14.8881818,133.068729 C9.54,133.068729 5.34818182,128.701031 5.34818182,123.628866 C5.34818182,118.415808 9.54,114.189003 14.8881818,114.189003" id="Shape" fill="#262626"></path>
        </g>
    </g>
</svg>