<svg width="209" height="42" viewBox="0 0 209 42" fill="none" xmlns="http://www.w3.org/2000/svg">
<path d="M194.112 13.2577C185.728 13.2577 179.224 19.457 179.224 27.6289C179.224 35.8007 185.728 42 194.112 42C202.495 42 209 35.8007 209 27.6289C208.855 19.457 202.351 13.2577 194.112 13.2577ZM194.112 18.189C199.46 18.189 203.652 22.4158 203.652 27.6289C203.652 32.701 199.46 37.0687 194.112 37.0687C188.764 37.0687 184.572 32.701 184.572 27.6289C184.572 22.4158 188.764 18.189 194.112 18.189ZM125.308 37.0687C119.96 37.0687 115.768 32.701 115.768 27.6289C115.768 22.4158 119.96 18.189 125.308 18.189C130.656 18.189 134.848 22.4158 134.848 27.6289C134.848 32.701 130.656 37.0687 125.308 37.0687ZM134.848 13.9622V17.0619H134.704C132.391 14.8076 128.922 13.2577 125.164 13.2577C116.78 13.2577 110.275 19.457 110.275 27.6289C110.275 35.8007 116.78 42 125.164 42C128.777 42 132.391 40.4502 134.559 38.055H134.704V41.0137H140.052V13.9622H134.848ZM159.71 37.0687C154.362 37.0687 150.17 32.701 150.17 27.6289C150.17 22.4158 154.362 18.189 159.71 18.189C165.058 18.189 169.25 22.4158 169.25 27.6289C169.25 32.701 165.058 37.0687 159.71 37.0687ZM169.105 1V17.0619H168.961C166.793 14.6667 163.324 13.1168 159.565 13.1168C151.182 13.1168 144.677 19.3162 144.677 27.488C144.677 35.6598 151.182 41.8591 159.565 41.8591C163.179 41.8591 166.793 40.3093 168.961 37.9141H169.105V40.8728H174.454V1H169.105ZM105.505 34.11C103.771 35.9416 101.314 37.0687 98.5673 37.0687C93.2191 37.0687 89.0273 32.701 89.0273 27.6289C89.0273 22.4158 93.2191 18.189 98.5673 18.189C101.314 18.189 103.771 19.3162 105.505 21.1478L108.107 16.3574C105.505 14.3849 102.325 13.1168 98.5673 13.1168C90.1836 13.1168 83.6791 19.3162 83.6791 27.488C83.6791 35.6598 90.1836 41.8591 98.5673 41.8591C102.181 41.8591 105.505 40.5911 108.107 38.6186L105.505 34.11ZM64.8882 13.2577C56.5045 13.2577 50 19.457 50 27.6289C50 35.8007 56.5045 42 64.8882 42C73.2718 42 79.7764 35.8007 79.7764 27.6289C79.6318 19.457 73.1273 13.2577 64.8882 13.2577ZM64.8882 18.189C70.2364 18.189 74.4282 22.4158 74.4282 27.6289C74.4282 32.701 70.2364 37.0687 64.8882 37.0687C59.54 37.0687 55.3482 32.701 55.3482 27.6289C55.3482 22.4158 59.54 18.189 64.8882 18.189Z" fill="black"/>
<path d="M37.4745 0C39.9728 0 42.0659 2.02247 41.9984 4.58427V42H4.59147C2.02565 42 0 39.9101 0 37.4157V4.58427C0 2.02247 2.09317 0 4.59147 0H37.4745ZM21.0336 6.06667C13.045 6.06667 6.53333 12.5849 6.53333 20.5969C6.53333 28.8805 12.9779 35.4667 20.9664 35.4667C28.955 35.4667 35.4667 28.9484 35.4667 20.8685C35.4667 18.9674 34.8625 16.4551 34.8625 17.0662C34.8625 22.4981 29.8948 26.9115 24.5915 26.1646C20.5636 25.6214 16.0659 21.887 16.8715 15.9798C17.677 10.1406 22.7118 7.83202 26.3369 8.30731C32.1773 9.12209 33.3856 13.6034 31.6402 15.7082C29.8948 18.1526 26.2698 16.7267 26.2698 13.9429C26.2698 12.3812 27.2767 11.7022 27.411 11.5664C24.4572 10.6838 21.3692 13.0602 20.9664 16.1835C20.4965 19.5784 22.9804 22.2944 25.7998 22.6339C30.9689 23.3808 33.9227 19.1711 33.9227 15.4366C33.9227 11.0232 29.2906 6.06667 21.0336 6.06667Z" fill="black"/>
</svg>
