<?xml version="1.0" encoding="utf-8"?>
<!-- Generator: Adobe Illustrator 20.1.0, SVG Export Plug-In . SVG Version: 6.00 Build 0)  -->
<svg version="1.1" id="Layer_1" xmlns="http://www.w3.org/2000/svg" xmlns:xlink="http://www.w3.org/1999/xlink" x="0px" y="0px"
	 viewBox="0 0 558 547" style="enable-background:new 0 0 558 547;" xml:space="preserve">
<style type="text/css">
	.st0{fill:url(#SVGID_1_);}
	.st1{fill:url(#SVGID_2_);}
	.st2{fill:url(#SVGID_3_);}
	.st3{fill:url(#SVGID_4_);}
	.st4{fill:url(#SVGID_5_);}
	.st5{fill:#56585A;}
	.st6{fill:#36A9E1;}
	.st7{fill:#555759;}
</style>
<g>
	
		<linearGradient id="SVGID_1_" gradientUnits="userSpaceOnUse" x1="190.5" y1="505.1933" x2="190.5" y2="429.5802" gradientTransform="matrix(1 0 0 -1 0 542.72)">
		<stop  offset="0" style="stop-color:#BBBA32"/>
		<stop  offset="0.4049" style="stop-color:#B7B72E"/>
		<stop  offset="0.8668" style="stop-color:#ADB020"/>
		<stop  offset="1" style="stop-color:#AAAD19"/>
	</linearGradient>
	<path class="st0" d="M161.7,115.2c-6.4,0-11.7-5.2-11.7-11.7V45.9c0-6.4,5.2-11.7,11.7-11.7h57.6c6.4,0,11.7,5.2,11.7,11.7v69.3
		H161.7z"/>
	
		<linearGradient id="SVGID_2_" gradientUnits="userSpaceOnUse" x1="283" y1="414.632" x2="283" y2="341.5584" gradientTransform="matrix(1 0 0 -1 0 542.72)">
		<stop  offset="0" style="stop-color:#BBBA32"/>
		<stop  offset="0.4049" style="stop-color:#B7B72E"/>
		<stop  offset="0.8668" style="stop-color:#ADB020"/>
		<stop  offset="1" style="stop-color:#AAAD19"/>
	</linearGradient>
	<path class="st1" d="M254.2,207.7c-6.4,0-11.7-5.2-11.7-11.7v-57.6c0-6.4,5.2-11.7,11.7-11.7h57.6c6.4,0,11.7,5.2,11.7,11.7v69.3
		H254.2z"/>
	
		<linearGradient id="SVGID_3_" gradientUnits="userSpaceOnUse" x1="283" y1="504.2213" x2="283" y2="428.4491" gradientTransform="matrix(1 0 0 -1 0 542.72)">
		<stop  offset="0" style="stop-color:#4EB1E4"/>
		<stop  offset="0.2816" style="stop-color:#49ADE2"/>
		<stop  offset="0.6035" style="stop-color:#39A3DA"/>
		<stop  offset="0.944" style="stop-color:#1592CE"/>
		<stop  offset="1" style="stop-color:#088ECC"/>
	</linearGradient>
	<path class="st2" d="M254.2,115.2c-6.4,0-11.7-5.2-11.7-11.7V45.9c0-6.4,5.2-11.7,11.7-11.7h57.6c6.4,0,11.7,5.2,11.7,11.7v69.3
		H254.2z"/>
	
		<linearGradient id="SVGID_4_" gradientUnits="userSpaceOnUse" x1="375.6" y1="412.6693" x2="375.6" y2="334.4724" gradientTransform="matrix(1 0 0 -1 0 542.72)">
		<stop  offset="0" style="stop-color:#4EB1E4"/>
		<stop  offset="0.2816" style="stop-color:#49ADE2"/>
		<stop  offset="0.6035" style="stop-color:#39A3DA"/>
		<stop  offset="0.944" style="stop-color:#1592CE"/>
		<stop  offset="1" style="stop-color:#088ECC"/>
	</linearGradient>
	<path class="st3" d="M346.8,207.7c-6.4,0-11.7-5.2-11.7-11.7v-57.6c0-6.4,5.2-11.7,11.7-11.7h57.6c6.4,0,11.7,5.2,11.7,11.7v69.3
		H346.8z"/>
	
		<linearGradient id="SVGID_5_" gradientUnits="userSpaceOnUse" x1="190.5" y1="319.702" x2="190.5" y2="243.2718" gradientTransform="matrix(1 0 0 -1 0 542.72)">
		<stop  offset="0" style="stop-color:#4EB1E4"/>
		<stop  offset="0.2816" style="stop-color:#49ADE2"/>
		<stop  offset="0.6035" style="stop-color:#39A3DA"/>
		<stop  offset="0.944" style="stop-color:#1592CE"/>
		<stop  offset="1" style="stop-color:#088ECC"/>
	</linearGradient>
	<path class="st4" d="M161.7,300.3c-6.4,0-11.7-5.2-11.7-11.7V231c0-6.4,5.2-11.7,11.7-11.7h57.6c6.4,0,11.7,5.2,11.7,11.7v69.3
		L161.7,300.3L161.7,300.3z"/>
	<path class="st5" d="M346.8,115.2c-6.4,0-11.7-5.2-11.7-11.7V45.9c0-6.4,5.2-11.7,11.7-11.7h57.6c6.4,0,11.7,5.2,11.7,11.7v69.3
		H346.8z"/>
	<path class="st5" d="M161.7,207.7c-6.4,0-11.7-5.2-11.7-11.7v-57.6c0-6.4,5.2-11.7,11.7-11.7h57.6c6.4,0,11.7,5.2,11.7,11.7v69.3
		H161.7z"/>
	<path class="st5" d="M254.2,300.3c-6.4,0-11.7-5.2-11.7-11.7V231c0-6.4,5.2-11.7,11.7-11.7h57.6c6.4,0,11.7,5.2,11.7,11.7v69.3
		L254.2,300.3L254.2,300.3z"/>
</g>
<g id="XMLID_21_">
	<g id="XMLID_123_">
		<path id="XMLID_124_" class="st6" d="M50.1,500.3c1.2,1.3,2.7,2.3,4.3,3.1c1.7,0.8,3.4,1.2,5.2,1.2c2.3,0,4-0.5,5.3-1.5
			s1.9-2.4,1.9-4.1c0-0.9-0.1-1.6-0.4-2.2c-0.3-0.6-0.7-1.1-1.2-1.6c-0.5-0.4-1.1-0.8-1.8-1.2c-0.7-0.3-1.4-0.7-2.2-1.1l-4.9-2.1
			c-0.8-0.3-1.6-0.8-2.5-1.3c-0.8-0.5-1.6-1.1-2.2-1.8c-0.7-0.7-1.2-1.5-1.6-2.5c-0.4-1-0.6-2.1-0.6-3.3c0-1.3,0.3-2.5,0.8-3.6
			s1.3-2.1,2.2-2.9c1-0.8,2.1-1.5,3.4-1.9c1.3-0.5,2.7-0.7,4.3-0.7c2.1,0,4,0.4,5.7,1.2c1.7,0.8,3.2,1.8,4.4,3.1l-2.4,2.8
			c-1-1-2.2-1.8-3.5-2.4s-2.7-0.9-4.3-0.9c-1.9,0-3.5,0.4-4.6,1.3c-1.2,0.9-1.8,2.1-1.8,3.7c0,0.8,0.2,1.5,0.5,2.1s0.8,1.1,1.3,1.5
			c0.6,0.4,1.2,0.8,1.8,1.2c0.7,0.3,1.3,0.6,2,0.9l4.9,2.1c1,0.4,1.9,0.9,2.8,1.4c0.9,0.5,1.6,1.2,2.2,1.9c0.6,0.7,1.1,1.6,1.5,2.5
			c0.4,1,0.5,2.1,0.5,3.3c0,1.4-0.3,2.6-0.8,3.8s-1.3,2.2-2.3,3.1c-1,0.9-2.2,1.6-3.7,2.1c-1.4,0.5-3.1,0.8-4.9,0.8
			c-2.4,0-4.6-0.5-6.7-1.4c-2.1-0.9-3.8-2.1-5.3-3.7L50.1,500.3z"/>
		<path id="XMLID_126_" class="st6" d="M83.2,473.5h5.1l6.6,18.4l2.5,7h0.2l2.4-7l6.6-18.4h5.1v34.3h-4.1v-18.9
			c0-1.5,0.1-3.2,0.2-5.1c0.1-1.8,0.3-3.5,0.4-5.1H108l-2.8,7.6l-6.6,17.9h-2.5l-6.6-17.9l-2.7-7.6h-0.2c0.1,1.5,0.2,3.2,0.4,5.1
			c0.1,1.8,0.2,3.5,0.2,5.1v18.9h-4L83.2,473.5L83.2,473.5z"/>
		<path id="XMLID_146_" class="st6" d="M142.1,497.3h-12.5l-3.3,10.5h-4.4l11.6-34.3h4.9l11.6,34.3h-4.7L142.1,497.3z M141,493.8
			l-1.6-5.2c-0.6-1.9-1.2-3.8-1.8-5.7c-0.6-1.9-1.1-3.8-1.7-5.8h-0.2c-0.5,2-1.1,3.9-1.6,5.8c-0.6,1.9-1.2,3.8-1.8,5.7l-1.6,5.2H141
			z"/>
		<path id="XMLID_163_" class="st6" d="M178.9,507.8l-8.3-14.5h-6.2v14.5h-4.3v-34.3h10.7c1.7,0,3.4,0.2,4.8,0.5
			c1.5,0.3,2.8,0.9,3.8,1.6c1.1,0.8,1.9,1.8,2.5,3s0.9,2.7,0.9,4.5c0,2.7-0.7,4.8-2.1,6.4s-3.3,2.7-5.6,3.3l8.7,15H178.9z
			 M164.5,489.7h5.8c2.7,0,4.7-0.5,6.2-1.6c1.4-1.1,2.1-2.8,2.1-5c0-2.3-0.7-3.9-2.1-4.8s-3.5-1.4-6.2-1.4h-5.8V489.7z"/>
		<path id="XMLID_166_" class="st6" d="M201.8,477.1h-10.4v-3.7h25.1v3.7h-10.4v30.7h-4.4L201.8,477.1L201.8,477.1z"/>
		<path id="XMLID_168_" class="st6" d="M243.7,473.5h10.5c1.9,0,3.6,0.2,5.2,0.5s2.9,0.9,4,1.7c1.1,0.8,2,1.8,2.6,3.1
			c0.6,1.3,0.9,2.9,0.9,4.8c0,1.8-0.3,3.4-0.9,4.7s-1.5,2.4-2.6,3.3c-1.1,0.9-2.4,1.5-4,2c-1.6,0.4-3.3,0.7-5.2,0.7H248v13.6h-4.3
			V473.5z M253.7,490.6c3,0,5.2-0.6,6.7-1.7c1.4-1.1,2.2-2.9,2.2-5.4c0-2.5-0.7-4.2-2.2-5.2s-3.7-1.4-6.6-1.4h-5.6v13.7H253.7z"/>
		<path id="XMLID_171_" class="st6" d="M279.1,473.5h4.3v30.6h15v3.7H279v-34.3H279.1z"/>
		<path id="XMLID_173_" class="st6" d="M325.6,497.3h-12.5l-3.3,10.5h-4.4l11.6-34.3h4.9l11.6,34.3h-4.7L325.6,497.3z M324.5,493.8
			l-1.6-5.2c-0.6-1.9-1.2-3.8-1.8-5.7c-0.6-1.9-1.1-3.8-1.7-5.8h-0.2c-0.5,2-1.1,3.9-1.6,5.8c-0.6,1.9-1.2,3.8-1.8,5.7l-1.6,5.2
			H324.5z"/>
		<path id="XMLID_176_" class="st6" d="M348.6,477.1h-10.4v-3.7h25.1v3.7H353v30.7h-4.4V477.1z"/>
		<path id="XMLID_178_" class="st6" d="M374.8,473.5h19.8v3.7h-15.4v11.6h13.1v3.7h-13.1v15.4h-4.3L374.8,473.5L374.8,473.5z"/>
		<path id="XMLID_180_" class="st6" d="M418,508.4c-2.2,0-4.1-0.4-5.9-1.3c-1.8-0.8-3.3-2-4.6-3.6c-1.3-1.5-2.3-3.4-3-5.6
			c-0.7-2.2-1.1-4.7-1.1-7.5s0.4-5.2,1.1-7.4c0.7-2.2,1.7-4,3-5.5s2.8-2.7,4.6-3.5s3.8-1.2,5.9-1.2c2.2,0,4.1,0.4,5.9,1.2
			c1.8,0.8,3.3,2,4.7,3.5c1.3,1.5,2.3,3.4,3,5.5c0.7,2.2,1.1,4.6,1.1,7.3c0,2.8-0.4,5.2-1.1,7.5c-0.7,2.2-1.7,4.1-3,5.6
			c-1.3,1.6-2.9,2.7-4.7,3.6C422.1,508,420.1,508.4,418,508.4z M418,504.6c1.5,0,2.9-0.3,4.2-1c1.2-0.7,2.3-1.6,3.2-2.9
			s1.6-2.7,2.1-4.4s0.7-3.7,0.7-5.8s-0.2-4-0.7-5.8c-0.5-1.7-1.2-3.2-2.1-4.3c-0.9-1.2-2-2.1-3.2-2.7s-2.6-1-4.2-1
			c-1.5,0-2.9,0.3-4.2,1c-1.2,0.6-2.3,1.6-3.2,2.7c-0.9,1.2-1.6,2.6-2.1,4.3c-0.5,1.7-0.7,3.6-0.7,5.8s0.2,4.1,0.7,5.8
			s1.2,3.2,2.1,4.4c0.9,1.2,2,2.2,3.2,2.9C415,504.3,416.4,504.6,418,504.6z"/>
		<path id="XMLID_183_" class="st6" d="M464.1,507.8l-8.3-14.5h-6.2v14.5h-4.3v-34.3H456c1.7,0,3.4,0.2,4.8,0.5
			c1.5,0.3,2.8,0.9,3.8,1.6c1.1,0.8,1.9,1.8,2.5,3s0.9,2.7,0.9,4.5c0,2.7-0.7,4.8-2.1,6.4c-1.4,1.6-3.3,2.7-5.6,3.3l8.7,15H464.1z
			 M449.6,489.7h5.8c2.7,0,4.7-0.5,6.2-1.6c1.4-1.1,2.1-2.8,2.1-5c0-2.3-0.7-3.9-2.1-4.8c-1.4-0.9-3.5-1.4-6.2-1.4h-5.8V489.7z"/>
		<path id="XMLID_186_" class="st6" d="M480.9,473.5h5.1l6.6,18.4l2.5,7h0.2l2.4-7l6.6-18.4h5.1v34.3h-4.1v-18.9
			c0-1.5,0.1-3.2,0.2-5.1c0.1-1.8,0.3-3.5,0.4-5.1h-0.2l-2.8,7.6l-6.6,17.9h-2.5l-6.6-17.9l-2.7-7.6h-0.2c0.1,1.5,0.2,3.2,0.4,5.1
			c0.1,1.8,0.2,3.5,0.2,5.1v18.9h-4L480.9,473.5L480.9,473.5z"/>
	</g>
	<g id="XMLID_149_">
		<path id="XMLID_160_" class="st7" d="M475.9,360c-25.1,0-44.8,19.4-44.8,44.7c0,25.3,19.7,44.6,44.8,44.6s44.8-19.4,44.8-44.6
			C520.7,379.3,501,360,475.9,360 M475.9,375.4c16,0,28.7,13.3,28.7,29.2c0,15.8-12.7,29.2-28.7,29.2c-15.9,0-28.7-13.5-28.7-29.2
			C447.2,388.7,459.9,375.4,475.9,375.4"/>
		<path id="XMLID_157_" class="st7" d="M268.5,433.8c-16,0-28.7-13.4-28.7-29.2c0-16,12.7-29.2,28.7-29.2s28.7,13.3,28.7,29.2
			C297.2,420.4,284.4,433.8,268.5,433.8 M296.9,362.5v9.6h-0.6c-6.5-7.3-17.2-12.1-28.3-12.1c-25.1,0-44.8,19.4-44.8,44.7
			c0,25.3,19.7,44.6,44.8,44.6c11.1,0,21.7-4.9,28.3-12.1h0.6v9.4H313v-84.1H296.9z"/>
		<path id="XMLID_154_" class="st7" d="M372.2,433.8c-16,0-28.7-13.4-28.7-29.2c0-16,12.7-29.2,28.7-29.2s28.7,13.3,28.7,29.2
			C400.9,420.4,388.1,433.8,372.2,433.8 M400.5,322.2V372H400c-6.5-7.3-17.2-12.1-28.2-12.1c-25.1,0-44.8,19.4-44.8,44.7
			c0,25.3,19.7,44.6,44.8,44.6c11.1,0,21.7-4.9,28.2-12.1h0.6v9.4h16.1V322.2H400.5z"/>
		<path id="XMLID_153_" class="st7" d="M208.6,424.6c-5.2,5.7-12.6,9.3-20.9,9.3c-16,0-28.7-13.5-28.7-29.2
			c0-16,12.7-29.2,28.7-29.2c8.3,0,15.7,3.6,20.9,9.3l7.8-14.7c-7.7-6.3-17.7-10-28.7-10c-25.1,0-44.8,19.4-44.8,44.7
			c0,25.3,19.7,44.6,44.8,44.6c11,0,21-3.7,28.7-10L208.6,424.6z"/>
		<path id="XMLID_150_" class="st7" d="M85.7,360c-25.1,0-44.8,19.4-44.8,44.7c0,25.3,19.7,44.6,44.8,44.6s44.8-19.4,44.8-44.6
			C130.5,379.3,110.8,360,85.7,360 M85.7,375.4c16,0,28.7,13.3,28.7,29.2c0,15.8-12.7,29.2-28.7,29.2c-15.9,0-28.7-13.5-28.7-29.2
			C57,388.7,69.8,375.4,85.7,375.4"/>
	</g>
</g>
</svg>
