<?xml version="1.0" encoding="UTF-8"?>
<svg width="162px" height="153px" viewBox="0 0 162 153" version="1.1" xmlns="http://www.w3.org/2000/svg" xmlns:xlink="http://www.w3.org/1999/xlink">
    <!-- Generator: Sketch 64 (93537) - https://sketch.com -->
    <title>osp-logo</title>
    <desc>Created with Sketch.</desc>
    <g id="Page-1" stroke="none" stroke-width="1" fill="none" fill-rule="evenodd">
        <g id="osp-logo" fill="#262626" fill-rule="nonzero">
            <path d="M41.1996337,26.0526316 C39.0506716,26.0526316 37.2710623,24.380117 37.2710623,22.2894737 L37.2710623,3.76315789 C37.2710623,1.70467836 39.017094,0 41.1996337,0 L60.540293,0 C62.6892552,0 64.4688645,1.67251462 64.4688645,3.76315789 L64.4688645,26.0526316 L41.1996337,26.0526316 Z" id="Path"></path>
            <path d="M71.4194139,55.9649123 C69.2704518,55.9649123 67.4908425,54.2923977 67.4908425,52.2017544 L67.4908425,33.6754386 C67.4908425,31.6169591 69.2368742,29.9122807 71.4194139,29.9122807 L90.7600733,29.9122807 C92.9090354,29.9122807 94.6886447,31.5847953 94.6886447,33.6754386 L94.6886447,55.9649123 L71.4194139,55.9649123 Z" id="Path"></path>
            <path d="M71.4194139,26.0526316 C69.2704518,26.0526316 67.4908425,24.380117 67.4908425,22.2894737 L67.4908425,3.76315789 C67.4908425,1.70467836 69.2368742,0 71.4194139,0 L90.7600733,0 C92.9090354,0 94.6886447,1.67251462 94.6886447,3.76315789 L94.6886447,26.0526316 L71.4194139,26.0526316 Z" id="Path"></path>
            <path d="M102.64652,55.9649123 C100.497558,55.9649123 98.7179487,54.2923977 98.7179487,52.2017544 L98.7179487,33.6754386 C98.7179487,31.6169591 100.46398,29.9122807 102.64652,29.9122807 L121.987179,29.9122807 C124.136142,29.9122807 125.915751,31.5847953 125.915751,33.6754386 L125.915751,55.9649123 L102.64652,55.9649123 Z" id="Path"></path>
            <path d="M41.1996337,85.877193 C39.0506716,85.877193 37.2710623,84.2046784 37.2710623,82.1140351 L37.2710623,63.5877193 C37.2710623,61.5292398 39.017094,59.8245614 41.1996337,59.8245614 L60.540293,59.8245614 C62.6892552,59.8245614 64.4688645,61.497076 64.4688645,63.5877193 L64.4688645,85.877193 L41.1996337,85.877193 Z" id="Path"></path>
            <path d="M102.64652,26.0526316 C100.497558,26.0526316 98.7179487,24.380117 98.7179487,22.2894737 L98.7179487,3.76315789 C98.7179487,1.70467836 100.46398,0 102.64652,0 L121.987179,0 C124.136142,0 125.915751,1.67251462 125.915751,3.76315789 L125.915751,26.0526316 L102.64652,26.0526316 Z" id="Path"></path>
            <path d="M41.1996337,55.9649123 C39.0506716,55.9649123 37.2710623,54.2923977 37.2710623,52.2017544 L37.2710623,33.6754386 C37.2710623,31.6169591 39.017094,29.9122807 41.1996337,29.9122807 L60.540293,29.9122807 C62.6892552,29.9122807 64.4688645,31.5847953 64.4688645,33.6754386 L64.4688645,55.9649123 L41.1996337,55.9649123 Z" id="Path"></path>
            <path d="M71.4194139,85.877193 C69.2704518,85.877193 67.4908425,84.2046784 67.4908425,82.1140351 L67.4908425,63.5877193 C67.4908425,61.5292398 69.2368742,59.8245614 71.4194139,59.8245614 L90.7600733,59.8245614 C92.9090354,59.8245614 94.6886447,61.497076 94.6886447,63.5877193 L94.6886447,85.877193 L71.4194139,85.877193 Z" id="Path"></path>
            <g id="Group" transform="translate(2.014652, 140.877193)">
                <path d="M1.03865537,8.85633001 C1.44071551,9.26315789 1.94329069,9.57610242 2.47937088,9.82645804 C3.04895608,10.0768137 3.61854129,10.2019915 4.2216315,10.2019915 C4.99224677,10.2019915 5.56183198,10.0455192 5.99739713,9.73257468 C6.43296229,9.41963016 6.63399236,8.98150782 6.63399236,8.44950213 C6.63399236,8.16785206 6.60048735,7.9487909 6.49997231,7.76102418 C6.39945727,7.57325747 6.26543723,7.41678521 6.09791217,7.26031294 C5.93038711,7.13513514 5.72935704,7.00995733 5.49482195,6.88477952 C5.26028687,6.79089616 5.02575179,6.66571835 4.75771169,6.54054054 L3.11596611,5.88335704 C2.84792601,5.78947368 2.57988592,5.63300142 2.27834081,5.47652916 C2.01030071,5.3200569 1.74226062,5.13229018 1.54123055,4.91322902 C1.30669546,4.69416785 1.1391704,4.44381223 1.00515036,4.13086771 C0.87113031,3.81792319 0.804120286,3.47368421 0.804120286,3.09815078 C0.804120286,2.6913229 0.904635321,2.31578947 1.07216038,1.9715505 C1.23968544,1.62731152 1.50772554,1.314367 1.80927064,1.06401138 C2.14432076,0.813655761 2.51287589,0.594594595 2.94844105,0.469416785 C3.3840062,0.312944523 3.85307637,0.250355619 4.38915656,0.250355619 C5.09276181,0.250355619 5.72935704,0.375533428 6.29894224,0.625889047 C6.86852744,0.876244666 7.37110262,1.18918919 7.77316276,1.59601707 L6.96904248,2.47226174 C6.63399236,2.15931721 6.23193221,1.90896159 5.79636706,1.72119488 C5.36080191,1.53342817 4.89173174,1.43954481 4.35565155,1.43954481 C3.71905632,1.43954481 3.18297613,1.56472262 2.814421,1.84637269 C2.41236086,2.12802276 2.21133079,2.50355619 2.21133079,3.00426743 C2.21133079,3.25462304 2.27834081,3.47368421 2.37885585,3.66145092 C2.47937088,3.84921764 2.64689594,4.0056899 2.814421,4.13086771 C3.01545107,4.25604552 3.21648114,4.38122333 3.41751121,4.50640114 C3.6520463,4.6002845 3.85307637,4.69416785 4.08761145,4.78805121 L5.72935704,5.44523471 C6.06440716,5.57041252 6.36595226,5.72688478 6.66749737,5.88335704 C6.96904248,6.0398293 7.20357756,6.25889047 7.40460763,6.47795164 C7.6056377,6.6970128 7.77316276,6.97866287 7.90718281,7.26031294 C8.04120286,7.57325747 8.07470787,7.91749644 8.07470787,8.29302987 C8.07470787,8.7311522 7.97419283,9.10668563 7.80666777,9.48221906 C7.63914271,9.85775249 7.37110262,10.170697 7.0360525,10.4523471 C6.70100238,10.7339972 6.29894224,10.9530583 5.79636706,11.1095306 C5.32729689,11.2660028 4.75771169,11.3598862 4.15462148,11.3598862 C3.35050119,11.3598862 2.61339093,11.2034139 1.90978568,10.9217639 C1.20618043,10.6401138 0.636595226,10.2645804 0.134020048,9.76386913 L1.03865537,8.85633001 Z" id="Path"></path>
                <path d="M12.1288143,0.469416785 L13.8375699,0.469416785 L16.0489007,6.22759602 L16.886526,8.41820768 L16.953536,8.41820768 L17.7576563,6.22759602 L19.9689871,0.469416785 L21.6777427,0.469416785 L21.6777427,11.2034139 L20.3040372,11.2034139 L20.3040372,5.28876245 C20.3040372,4.81934566 20.3375422,4.28733997 20.3710472,3.69274538 C20.4045523,3.12944523 20.4715623,2.59743954 20.5050673,2.09672831 L20.4380573,2.09672831 L19.4999169,4.47510669 L17.2885861,10.0768137 L16.4509608,10.0768137 L14.2396301,4.47510669 L13.3349947,2.09672831 L13.2679847,2.09672831 C13.3014897,2.56614509 13.3349947,3.09815078 13.4020048,3.69274538 C13.4355098,4.25604552 13.4690148,4.78805121 13.4690148,5.28876245 L13.4690148,11.2034139 L12.1288143,11.2034139 L12.1288143,0.469416785 Z" id="Path"></path>
                <path d="M31.8632663,7.91749644 L27.6751398,7.91749644 L26.5694744,11.2034139 L25.0952539,11.2034139 L28.9818353,0.469416785 L30.6235809,0.469416785 L34.5101623,11.2034139 L32.9354267,11.2034139 L31.8632663,7.91749644 Z M31.4947112,6.82219061 L30.958631,5.19487909 C30.7576009,4.6002845 30.5565709,4.0056899 30.3555408,3.41109531 C30.1545107,2.81650071 29.9869857,2.22190612 29.7859556,1.59601707 L29.7189456,1.59601707 C29.5514205,2.22190612 29.3503904,2.81650071 29.1828654,3.41109531 C28.9818353,4.0056899 28.7808052,4.6002845 28.5797752,5.19487909 L28.043695,6.82219061 L31.4947112,6.82219061 Z" id="Shape"></path>
                <path d="M44.1931107,11.2034139 L41.4121947,6.66571835 L39.334884,6.66571835 L39.334884,11.2034139 L37.8941685,11.2034139 L37.8941685,0.469416785 L41.4792047,0.469416785 C42.0487899,0.469416785 42.6183751,0.53200569 43.0874453,0.625889047 C43.5900205,0.719772404 44.0255856,0.907539118 44.3606358,1.12660028 C44.7291909,1.3769559 44.997231,1.68990043 45.1982611,2.06543385 C45.3992911,2.44096728 45.4998062,2.91038407 45.4998062,3.47368421 C45.4998062,4.31863442 45.2652711,4.97581792 44.7962009,5.47652916 C44.3271308,5.9772404 43.6905355,6.32147937 42.9199203,6.50924609 L45.8348563,11.2034139 L44.1931107,11.2034139 Z M39.368389,5.53911807 L41.3116797,5.53911807 C42.216315,5.53911807 42.8864152,5.3826458 43.3889904,5.03840683 C43.8580606,4.69416785 44.0925957,4.16216216 44.0925957,3.47368421 C44.0925957,2.75391181 43.8580606,2.25320057 43.3889904,1.9715505 C42.9199203,1.68990043 42.216315,1.53342817 41.3116797,1.53342817 L39.368389,1.53342817 L39.368389,5.53911807 Z" id="Shape"></path>
                <polygon id="Path" points="51.8657584 1.59601707 48.3812372 1.59601707 48.3812372 0.438122333 56.7909952 0.438122333 56.7909952 1.59601707 53.3064739 1.59601707 53.3064739 11.2034139 51.8322534 11.2034139"></polygon>
                <path d="M65.9043584,0.469416785 L69.4223847,0.469416785 C70.0589799,0.469416785 70.6285651,0.53200569 71.1646453,0.625889047 C71.7007255,0.719772404 72.1362906,0.907539118 72.5048458,1.15789474 C72.8734009,1.40825036 73.174946,1.72119488 73.3759761,2.12802276 C73.5770061,2.53485064 73.6775212,3.03556188 73.6775212,3.63015647 C73.6775212,4.19345661 73.5770061,4.69416785 73.3759761,5.10099573 C73.174946,5.50782361 72.8734009,5.85206259 72.5048458,6.13371266 C72.1362906,6.41536273 71.7007255,6.60312945 71.1646453,6.75960171 C70.6285651,6.88477952 70.0589799,6.97866287 69.4223847,6.97866287 L67.3450739,6.97866287 L67.3450739,11.2347084 L65.9043584,11.2347084 L65.9043584,0.469416785 Z M69.2548596,5.82076814 C70.26001,5.82076814 70.9971202,5.63300142 71.4996954,5.28876245 C71.9687656,4.94452347 72.2368057,4.38122333 72.2368057,3.59886202 C72.2368057,2.81650071 72.0022706,2.28449502 71.4996954,1.9715505 C70.9971202,1.65860597 70.26001,1.53342817 69.2883646,1.53342817 L67.412084,1.53342817 L67.412084,5.82076814 L69.2548596,5.82076814 Z" id="Shape"></path>
                <polygon id="Path" points="77.7651326 0.469416785 79.2058481 0.469416785 79.2058481 10.0455192 84.2315999 10.0455192 84.2315999 11.2034139 77.7316276 11.2034139 77.7316276 0.469416785"></polygon>
                <path d="M93.3449632,7.91749644 L89.1568367,7.91749644 L88.0511713,11.2034139 L86.5769508,11.2034139 L90.4635321,0.469416785 L92.1052777,0.469416785 L95.9918591,11.2034139 L94.4171236,11.2034139 L93.3449632,7.91749644 Z M92.976408,6.82219061 L92.4403279,5.19487909 C92.2392978,4.6002845 92.0382677,4.0056899 91.8372376,3.41109531 C91.6362076,2.81650071 91.4686825,2.22190612 91.2676524,1.59601707 L91.2006424,1.59601707 C91.0331174,2.22190612 90.8320873,2.81650071 90.6645622,3.41109531 C90.4635321,4.0056899 90.2625021,4.6002845 90.061472,5.19487909 L89.5253918,6.82219061 L92.976408,6.82219061 Z" id="Shape"></path>
                <polygon id="Path" points="101.051116 1.59601707 97.5665947 1.59601707 97.5665947 0.438122333 105.976353 0.438122333 105.976353 1.59601707 102.525336 1.59601707 102.525336 11.2034139 101.051116 11.2034139"></polygon>
                <polygon id="Path" points="109.829429 0.469416785 116.463421 0.469416785 116.463421 1.62731152 111.30365 1.62731152 111.30365 5.25746799 115.692806 5.25746799 115.692806 6.41536273 111.30365 6.41536273 111.30365 11.2347084 109.862934 11.2347084"></polygon>
                <path d="M124.303594,11.3911807 C123.566484,11.3911807 122.929889,11.2660028 122.326798,10.9843528 C121.723708,10.7339972 121.221133,10.3584637 120.785568,9.85775249 C120.350003,9.3883357 120.014953,8.79374111 119.780418,8.10526316 C119.545882,7.41678521 119.411862,6.6344239 119.411862,5.75817923 C119.411862,4.88193457 119.545882,4.13086771 119.780418,3.44238976 C120.014953,2.75391181 120.350003,2.19061166 120.785568,1.72119488 C121.221133,1.25177809 121.723708,0.876244666 122.326798,0.625889047 C122.929889,0.375533428 123.599989,0.250355619 124.303594,0.250355619 C125.040704,0.250355619 125.6773,0.375533428 126.28039,0.625889047 C126.88348,0.876244666 127.386055,1.25177809 127.855125,1.72119488 C128.290691,2.19061166 128.625741,2.78520626 128.860276,3.44238976 C129.094811,4.13086771 129.228831,4.88193457 129.228831,5.72688478 C129.228831,6.60312945 129.094811,7.3541963 128.860276,8.07396871 C128.625741,8.76244666 128.290691,9.35704125 127.855125,9.82645804 C127.41956,10.3271693 126.88348,10.6714083 126.28039,10.9530583 C125.6773,11.2660028 125.007199,11.3911807 124.303594,11.3911807 Z M124.303594,10.2019915 C124.806169,10.2019915 125.27524,10.1081081 125.710805,9.88904694 C126.112865,9.66998578 126.48142,9.3883357 126.782965,8.98150782 C127.08451,8.57467994 127.319045,8.13655761 127.48657,7.60455192 C127.654095,7.07254623 127.721105,6.44665718 127.721105,5.78947368 C127.721105,5.13229018 127.654095,4.53769559 127.48657,3.97439545 C127.319045,3.44238976 127.08451,2.97297297 126.782965,2.628734 C126.48142,2.25320057 126.112865,1.9715505 125.710805,1.78378378 C125.308745,1.59601707 124.839674,1.47083926 124.303594,1.47083926 C123.801019,1.47083926 123.331949,1.56472262 122.896384,1.78378378 C122.494324,1.9715505 122.125768,2.28449502 121.824223,2.628734 C121.522678,3.00426743 121.288143,3.44238976 121.120618,3.97439545 C120.953093,4.50640114 120.886083,5.10099573 120.886083,5.78947368 C120.886083,6.47795164 120.953093,7.07254623 121.120618,7.60455192 C121.288143,8.13655761 121.522678,8.6059744 121.824223,8.98150782 C122.125768,9.35704125 122.494324,9.66998578 122.896384,9.88904694 C123.298444,10.1081081 123.767514,10.2019915 124.303594,10.2019915 Z" id="Shape"></path>
                <path d="M139.749405,11.2034139 L136.968489,6.66571835 L134.891178,6.66571835 L134.891178,11.2034139 L133.450462,11.2034139 L133.450462,0.469416785 L137.035499,0.469416785 C137.605084,0.469416785 138.174669,0.53200569 138.643739,0.625889047 C139.146314,0.719772404 139.58188,0.907539118 139.91693,1.12660028 C140.285485,1.3769559 140.553525,1.68990043 140.754555,2.06543385 C140.955585,2.44096728 141.0561,2.91038407 141.0561,3.47368421 C141.0561,4.31863442 140.821565,4.97581792 140.352495,5.47652916 C139.883425,5.9772404 139.246829,6.32147937 138.476214,6.50924609 L141.39115,11.2034139 L139.749405,11.2034139 Z M134.891178,5.53911807 L136.834469,5.53911807 C137.739104,5.53911807 138.409204,5.3826458 138.911779,5.03840683 C139.38085,4.69416785 139.615385,4.16216216 139.615385,3.47368421 C139.615385,2.75391181 139.38085,2.25320057 138.911779,1.9715505 C138.442709,1.68990043 137.739104,1.53342817 136.834469,1.53342817 L134.891178,1.53342817 L134.891178,5.53911807 Z" id="Shape"></path>
                <path d="M145.378247,0.469416785 L147.087002,0.469416785 L149.298333,6.22759602 L150.135958,8.41820768 L150.202968,8.41820768 L151.007089,6.22759602 L153.218419,0.469416785 L154.927175,0.469416785 L154.927175,11.2034139 L153.55347,11.2034139 L153.55347,5.28876245 C153.55347,4.81934566 153.586975,4.28733997 153.62048,3.69274538 C153.653985,3.12944523 153.720995,2.59743954 153.7545,2.09672831 L153.68749,2.09672831 L152.749349,4.47510669 L150.538018,10.0768137 L149.700393,10.0768137 L147.489062,4.47510669 L146.584427,2.09672831 L146.517417,2.09672831 C146.550922,2.56614509 146.584427,3.09815078 146.651437,3.69274538 C146.684942,4.25604552 146.718447,4.78805121 146.718447,5.28876245 L146.718447,11.2034139 L145.378247,11.2034139 L145.378247,0.469416785 Z" id="Path"></path>
            </g>
            <path d="M146.062271,104.210526 C137.596685,104.210526 130.952381,110.499204 130.952381,118.700418 C130.952381,126.901633 137.596685,133.157895 146.062271,133.157895 C154.527857,133.157895 161.172161,126.869217 161.172161,118.700418 C161.172161,110.466788 154.527857,104.210526 146.062271,104.210526 M146.062271,109.20257 C151.45866,109.20257 155.742044,113.51388 155.742044,118.668003 C155.742044,123.789709 151.45866,128.133435 146.062271,128.133435 C140.699609,128.133435 136.382498,123.757294 136.382498,118.668003 C136.382498,113.51388 140.665882,109.20257 146.062271,109.20257" id="Shape"></path>
            <path d="M76.6913858,128.133435 C71.3070152,128.133435 67.033171,123.789709 67.033171,118.668003 C67.033171,113.481464 71.3070152,109.20257 76.6913858,109.20257 C82.0757565,109.20257 86.3496007,113.51388 86.3496007,118.668003 C86.3496007,123.789709 82.0421041,128.133435 76.6913858,128.133435 M86.2486437,105.020923 L86.2486437,108.132846 L86.0467298,108.132846 C83.8593292,105.766488 80.2585314,104.210526 76.5231242,104.210526 C68.0763928,104.210526 61.4468864,110.499204 61.4468864,118.700418 C61.4468864,126.901633 68.0763928,133.157895 76.5231242,133.157895 C80.2585314,133.157895 83.8256769,131.569517 86.0467298,129.235575 L86.2486437,129.235575 L86.2486437,132.282666 L91.6666667,132.282666 L91.6666667,105.020923 L86.2486437,105.020923 Z" id="Shape"></path>
            <path d="M110.923775,128.24368 C105.533402,128.24368 101.254793,123.967675 101.254793,118.925818 C101.254793,113.820141 105.533402,109.607957 110.923775,109.607957 C116.314149,109.607957 120.592757,113.852051 120.592757,118.925818 C120.592757,123.967675 116.280459,128.24368 110.923775,128.24368 M120.457998,92.6315789 L120.457998,108.523 L120.289549,108.523 C118.09971,106.193535 114.494898,104.661832 110.789016,104.661832 C102.332868,104.661832 95.6959707,110.852466 95.6959707,118.925818 C95.6959707,126.999171 102.332868,133.157895 110.789016,133.157895 C114.528587,133.157895 118.09971,131.594281 120.289549,129.296726 L120.491688,129.296726 L120.491688,132.296312 L125.915751,132.296312 L125.915751,92.6315789 L120.457998,92.6315789 Z" id="Shape"></path>
            <path d="M55.8593108,125.11876 C54.1489123,126.966464 51.7148838,128.133435 48.9848247,128.133435 C43.7220603,128.133435 39.544741,123.757294 39.544741,118.668003 C39.544741,113.481464 43.7220603,109.20257 48.9848247,109.20257 C51.7148838,109.20257 54.1489123,110.369541 55.8593108,112.217245 L58.4249084,107.452113 C55.892203,105.409913 52.6029753,104.210526 48.9848247,104.210526 C40.728863,104.210526 34.2490842,110.499204 34.2490842,118.700418 C34.2490842,126.901633 40.728863,133.157895 48.9848247,133.157895 C52.6029753,133.157895 55.892203,131.958508 58.4249084,129.916308 L55.8593108,125.11876 Z" id="Path"></path>
            <path d="M15.1098901,104.210526 C6.64430436,104.210526 0,110.499204 0,118.700418 C0,126.901633 6.64430436,133.157895 15.1098901,133.157895 C23.5754759,133.157895 30.2197802,126.869217 30.2197802,118.700418 C30.2197802,110.466788 23.5754759,104.210526 15.1098901,104.210526 M15.1098901,109.20257 C20.5062794,109.20257 24.7896635,113.51388 24.7896635,118.668003 C24.7896635,123.789709 20.5062794,128.133435 15.1098901,128.133435 C9.74722822,128.133435 5.43011676,123.757294 5.43011676,118.668003 C5.43011676,113.51388 9.74722822,109.20257 15.1098901,109.20257" id="Shape"></path>
        </g>
    </g>
</svg>