<?xml version="1.0" encoding="UTF-8"?>
<svg width="345px" height="298px" viewBox="0 0 345 298" version="1.1" xmlns="http://www.w3.org/2000/svg" xmlns:xlink="http://www.w3.org/1999/xlink">
    <!-- Generator: Sketch 64 (93537) - https://sketch.com -->
    <title>Group 3</title>
    <desc>Created with Sketch.</desc>
    <g id="Page-1" stroke="none" stroke-width="1" fill="none" fill-rule="evenodd">
        <g id="Group-3" fill="#FFFFFF">
            <g id="Group-2" transform="translate(0.000000, 99.000000)">
                <rect id="Rectangle" x="0" y="0" width="212.079812" height="199"></rect>
            </g>
            <rect id="Rectangle" x="212" y="232" width="66" height="66"></rect>
            <rect id="Rectangle" fill-opacity="0.5" x="212" y="165" width="66" height="67"></rect>
            <rect id="Rectangle" fill-opacity="0.25" x="278" y="198" width="34" height="34"></rect>
            <rect id="Rectangle" fill-opacity="0.25" x="212" y="132" width="33" height="33"></rect>
            <rect id="Rectangle" fill-opacity="0.1" x="212" y="99" width="33" height="33"></rect>
            <rect id="Rectangle" x="0" y="66" width="33" height="33"></rect>
            <rect id="Rectangle" x="33" y="66" width="33" height="33"></rect>
            <rect id="Rectangle" fill-opacity="0.5" x="66" y="66" width="33" height="33"></rect>
            <rect id="Rectangle" fill-opacity="0.25" x="99" y="66" width="33" height="33"></rect>
            <rect id="Rectangle" fill-opacity="0.12" x="132" y="66" width="33" height="33"></rect>
            <rect id="Rectangle" fill-opacity="0.5" x="0" y="33" width="33" height="33"></rect>
            <rect id="Rectangle" fill-opacity="0.25" x="0" y="0" width="33" height="33"></rect>
            <rect id="Rectangle" fill-opacity="0.25" x="33" y="33" width="33" height="33"></rect>
            <rect id="Rectangle" fill-opacity="0.5" x="278" y="232" width="67" height="66"></rect>
        </g>
    </g>
</svg>