<svg enable-background="new 0 0 558 547" viewBox="0 0 558 547" xmlns="http://www.w3.org/2000/svg" xmlns:xlink="http://www.w3.org/1999/xlink"><linearGradient id="a"><stop offset="0" stop-color="#bbba32"/><stop offset=".4049" stop-color="#b7b72e"/><stop offset=".8668" stop-color="#adb020"/><stop offset="1" stop-color="#aaad19"/></linearGradient><linearGradient id="b" gradientTransform="matrix(1 0 0 -1 0 542.72)" gradientUnits="userSpaceOnUse" x1="190.5" x2="190.5" xlink:href="#a" y1="505.1933" y2="429.5802"/><linearGradient id="c" gradientTransform="matrix(1 0 0 -1 0 542.72)" gradientUnits="userSpaceOnUse" x1="283" x2="283" xlink:href="#a" y1="414.632" y2="341.5584"/><linearGradient id="d"><stop offset="0" stop-color="#4eb1e4"/><stop offset=".2816" stop-color="#49ade2"/><stop offset=".6035" stop-color="#39a3da"/><stop offset=".944" stop-color="#1592ce"/><stop offset="1" stop-color="#088ecc"/></linearGradient><linearGradient id="e" gradientTransform="matrix(1 0 0 -1 0 542.72)" gradientUnits="userSpaceOnUse" x1="283" x2="283" xlink:href="#d" y1="504.2213" y2="428.4491"/><linearGradient id="f" gradientTransform="matrix(1 0 0 -1 0 542.72)" gradientUnits="userSpaceOnUse" x1="375.6" x2="375.6" xlink:href="#d" y1="412.6693" y2="334.4724"/><linearGradient id="g" gradientTransform="matrix(1 0 0 -1 0 542.72)" gradientUnits="userSpaceOnUse" x1="190.5" x2="190.5" xlink:href="#d" y1="319.702" y2="243.2718"/><path d="m161.7 115.2c-6.4 0-11.7-5.2-11.7-11.7v-57.6c0-6.4 5.2-11.7 11.7-11.7h57.6c6.4 0 11.7 5.2 11.7 11.7v69.3z" fill="url(#b)"/><path d="m254.2 207.7c-6.4 0-11.7-5.2-11.7-11.7v-57.6c0-6.4 5.2-11.7 11.7-11.7h57.6c6.4 0 11.7 5.2 11.7 11.7v69.3z" fill="url(#c)"/><path d="m254.2 115.2c-6.4 0-11.7-5.2-11.7-11.7v-57.6c0-6.4 5.2-11.7 11.7-11.7h57.6c6.4 0 11.7 5.2 11.7 11.7v69.3z" fill="url(#e)"/><path d="m346.8 207.7c-6.4 0-11.7-5.2-11.7-11.7v-57.6c0-6.4 5.2-11.7 11.7-11.7h57.6c6.4 0 11.7 5.2 11.7 11.7v69.3z" fill="url(#f)"/><path d="m161.7 300.3c-6.4 0-11.7-5.2-11.7-11.7v-57.6c0-6.4 5.2-11.7 11.7-11.7h57.6c6.4 0 11.7 5.2 11.7 11.7v69.3z" fill="url(#g)"/><path d="m346.8 115.2c-6.4 0-11.7-5.2-11.7-11.7v-57.6c0-6.4 5.2-11.7 11.7-11.7h57.6c6.4 0 11.7 5.2 11.7 11.7v69.3z" fill="#56585a"/><path d="m161.7 207.7c-6.4 0-11.7-5.2-11.7-11.7v-57.6c0-6.4 5.2-11.7 11.7-11.7h57.6c6.4 0 11.7 5.2 11.7 11.7v69.3z" fill="#56585a"/><path d="m254.2 300.3c-6.4 0-11.7-5.2-11.7-11.7v-57.6c0-6.4 5.2-11.7 11.7-11.7h57.6c6.4 0 11.7 5.2 11.7 11.7v69.3z" fill="#56585a"/><g fill="#36a9e1"><path d="m50.1 500.3c1.2 1.3 2.7 2.3 4.3 3.1 1.7.8 3.4 1.2 5.2 1.2 2.3 0 4-.5 5.3-1.5s1.9-2.4 1.9-4.1c0-.9-.1-1.6-.4-2.2s-.7-1.1-1.2-1.6c-.5-.4-1.1-.8-1.8-1.2-.7-.3-1.4-.7-2.2-1.1l-4.9-2.1c-.8-.3-1.6-.8-2.5-1.3-.8-.5-1.6-1.1-2.2-1.8-.7-.7-1.2-1.5-1.6-2.5s-.6-2.1-.6-3.3c0-1.3.3-2.5.8-3.6s1.3-2.1 2.2-2.9c1-.8 2.1-1.5 3.4-1.9 1.3-.5 2.7-.7 4.3-.7 2.1 0 4 .4 5.7 1.2s3.2 1.8 4.4 3.1l-2.4 2.8c-1-1-2.2-1.8-3.5-2.4s-2.7-.9-4.3-.9c-1.9 0-3.5.4-4.6 1.3-1.2.9-1.8 2.1-1.8 3.7 0 .8.2 1.5.5 2.1s.8 1.1 1.3 1.5c.6.4 1.2.8 1.8 1.2.7.3 1.3.6 2 .9l4.9 2.1c1 .4 1.9.9 2.8 1.4s1.6 1.2 2.2 1.9 1.1 1.6 1.5 2.5c.4 1 .5 2.1.5 3.3 0 1.4-.3 2.6-.8 3.8s-1.3 2.2-2.3 3.1-2.2 1.6-3.7 2.1c-1.4.5-3.1.8-4.9.8-2.4 0-4.6-.5-6.7-1.4s-3.8-2.1-5.3-3.7z"/><path d="m83.2 473.5h5.1l6.6 18.4 2.5 7h.2l2.4-7 6.6-18.4h5.1v34.3h-4.1v-18.9c0-1.5.1-3.2.2-5.1.1-1.8.3-3.5.4-5.1h-.2l-2.8 7.6-6.6 17.9h-2.5l-6.6-17.9-2.7-7.6h-.2c.1 1.5.2 3.2.4 5.1.1 1.8.2 3.5.2 5.1v18.9h-4z"/><path d="m142.1 497.3h-12.5l-3.3 10.5h-4.4l11.6-34.3h4.9l11.6 34.3h-4.7zm-1.1-3.5-1.6-5.2c-.6-1.9-1.2-3.8-1.8-5.7s-1.1-3.8-1.7-5.8h-.2c-.5 2-1.1 3.9-1.6 5.8-.6 1.9-1.2 3.8-1.8 5.7l-1.6 5.2z"/><path d="m178.9 507.8-8.3-14.5h-6.2v14.5h-4.3v-34.3h10.7c1.7 0 3.4.2 4.8.5 1.5.3 2.8.9 3.8 1.6 1.1.8 1.9 1.8 2.5 3s.9 2.7.9 4.5c0 2.7-.7 4.8-2.1 6.4s-3.3 2.7-5.6 3.3l8.7 15zm-14.4-18.1h5.8c2.7 0 4.7-.5 6.2-1.6 1.4-1.1 2.1-2.8 2.1-5 0-2.3-.7-3.9-2.1-4.8s-3.5-1.4-6.2-1.4h-5.8z"/><path d="m201.8 477.1h-10.4v-3.7h25.1v3.7h-10.4v30.7h-4.4z"/><path d="m243.7 473.5h10.5c1.9 0 3.6.2 5.2.5s2.9.9 4 1.7 2 1.8 2.6 3.1.9 2.9.9 4.8c0 1.8-.3 3.4-.9 4.7s-1.5 2.4-2.6 3.3-2.4 1.5-4 2c-1.6.4-3.3.7-5.2.7h-6.2v13.6h-4.3zm10 17.1c3 0 5.2-.6 6.7-1.7 1.4-1.1 2.2-2.9 2.2-5.4s-.7-4.2-2.2-5.2-3.7-1.4-6.6-1.4h-5.6v13.7z"/><path d="m279.1 473.5h4.3v30.6h15v3.7h-19.4v-34.3z"/><path d="m325.6 497.3h-12.5l-3.3 10.5h-4.4l11.6-34.3h4.9l11.6 34.3h-4.7zm-1.1-3.5-1.6-5.2c-.6-1.9-1.2-3.8-1.8-5.7s-1.1-3.8-1.7-5.8h-.2c-.5 2-1.1 3.9-1.6 5.8-.6 1.9-1.2 3.8-1.8 5.7l-1.6 5.2z"/><path d="m348.6 477.1h-10.4v-3.7h25.1v3.7h-10.3v30.7h-4.4z"/><path d="m374.8 473.5h19.8v3.7h-15.4v11.6h13.1v3.7h-13.1v15.4h-4.3z"/><path d="m418 508.4c-2.2 0-4.1-.4-5.9-1.3-1.8-.8-3.3-2-4.6-3.6-1.3-1.5-2.3-3.4-3-5.6s-1.1-4.7-1.1-7.5.4-5.2 1.1-7.4 1.7-4 3-5.5 2.8-2.7 4.6-3.5 3.8-1.2 5.9-1.2c2.2 0 4.1.4 5.9 1.2s3.3 2 4.7 3.5c1.3 1.5 2.3 3.4 3 5.5.7 2.2 1.1 4.6 1.1 7.3 0 2.8-.4 5.2-1.1 7.5-.7 2.2-1.7 4.1-3 5.6-1.3 1.6-2.9 2.7-4.7 3.6-1.8 1-3.8 1.4-5.9 1.4zm0-3.8c1.5 0 2.9-.3 4.2-1 1.2-.7 2.3-1.6 3.2-2.9s1.6-2.7 2.1-4.4.7-3.7.7-5.8-.2-4-.7-5.8c-.5-1.7-1.2-3.2-2.1-4.3-.9-1.2-2-2.1-3.2-2.7s-2.6-1-4.2-1c-1.5 0-2.9.3-4.2 1-1.2.6-2.3 1.6-3.2 2.7-.9 1.2-1.6 2.6-2.1 4.3s-.7 3.6-.7 5.8.2 4.1.7 5.8 1.2 3.2 2.1 4.4 2 2.2 3.2 2.9 2.6 1 4.2 1z"/><path d="m464.1 507.8-8.3-14.5h-6.2v14.5h-4.3v-34.3h10.7c1.7 0 3.4.2 4.8.5 1.5.3 2.8.9 3.8 1.6 1.1.8 1.9 1.8 2.5 3s.9 2.7.9 4.5c0 2.7-.7 4.8-2.1 6.4s-3.3 2.7-5.6 3.3l8.7 15zm-14.5-18.1h5.8c2.7 0 4.7-.5 6.2-1.6 1.4-1.1 2.1-2.8 2.1-5 0-2.3-.7-3.9-2.1-4.8s-3.5-1.4-6.2-1.4h-5.8z"/><path d="m480.9 473.5h5.1l6.6 18.4 2.5 7h.2l2.4-7 6.6-18.4h5.1v34.3h-4.1v-18.9c0-1.5.1-3.2.2-5.1.1-1.8.3-3.5.4-5.1h-.2l-2.8 7.6-6.6 17.9h-2.5l-6.6-17.9-2.7-7.6h-.2c.1 1.5.2 3.2.4 5.1.1 1.8.2 3.5.2 5.1v18.9h-4z"/></g><path d="m475.9 360c-25.1 0-44.8 19.4-44.8 44.7s19.7 44.6 44.8 44.6 44.8-19.4 44.8-44.6c0-25.4-19.7-44.7-44.8-44.7m0 15.4c16 0 28.7 13.3 28.7 29.2 0 15.8-12.7 29.2-28.7 29.2-15.9 0-28.7-13.5-28.7-29.2 0-15.9 12.7-29.2 28.7-29.2" fill="#555759"/><path d="m268.5 433.8c-16 0-28.7-13.4-28.7-29.2 0-16 12.7-29.2 28.7-29.2s28.7 13.3 28.7 29.2c0 15.8-12.8 29.2-28.7 29.2m28.4-71.3v9.6h-.6c-6.5-7.3-17.2-12.1-28.3-12.1-25.1 0-44.8 19.4-44.8 44.7s19.7 44.6 44.8 44.6c11.1 0 21.7-4.9 28.3-12.1h.6v9.4h16.1v-84.1z" fill="#555759"/><path d="m372.2 433.8c-16 0-28.7-13.4-28.7-29.2 0-16 12.7-29.2 28.7-29.2s28.7 13.3 28.7 29.2c0 15.8-12.8 29.2-28.7 29.2m28.3-111.6v49.8h-.5c-6.5-7.3-17.2-12.1-28.2-12.1-25.1 0-44.8 19.4-44.8 44.7s19.7 44.6 44.8 44.6c11.1 0 21.7-4.9 28.2-12.1h.6v9.4h16.1v-124.3z" fill="#555759"/><path d="m208.6 424.6c-5.2 5.7-12.6 9.3-20.9 9.3-16 0-28.7-13.5-28.7-29.2 0-16 12.7-29.2 28.7-29.2 8.3 0 15.7 3.6 20.9 9.3l7.8-14.7c-7.7-6.3-17.7-10-28.7-10-25.1 0-44.8 19.4-44.8 44.7s19.7 44.6 44.8 44.6c11 0 21-3.7 28.7-10z" fill="#555759"/><path d="m85.7 360c-25.1 0-44.8 19.4-44.8 44.7s19.7 44.6 44.8 44.6 44.8-19.4 44.8-44.6c0-25.4-19.7-44.7-44.8-44.7m0 15.4c16 0 28.7 13.3 28.7 29.2 0 15.8-12.7 29.2-28.7 29.2-15.9 0-28.7-13.5-28.7-29.2 0-15.9 12.8-29.2 28.7-29.2" fill="#555759"/></svg>