<?xml version="1.0" encoding="UTF-8"?>
<svg width="146px" height="140px" viewBox="0 0 146 140" version="1.1" xmlns="http://www.w3.org/2000/svg" xmlns:xlink="http://www.w3.org/1999/xlink">
    <!-- Generator: Sketch 64 (93537) - https://sketch.com -->
    <title>osp-logo</title>
    <desc>Created with Sketch.</desc>
    <g id="Index" stroke="none" stroke-width="1" fill="none" fill-rule="evenodd">
        <g id="Desktop-HD" transform="translate(-336.000000, -2879.000000)" fill="#FFFFFF" fill-rule="nonzero">
            <g id="osp-logo" transform="translate(336.000000, 2879.000000)">
                <path d="M37.8829009,24.3113772 C35.9620019,24.3113772 34.3712575,22.7506469 34.3712575,20.7997339 L34.3712575,3.51164338 C34.3712575,1.59074444 35.9319879,0 37.8829009,0 L55.1709914,0 C57.0918903,0 58.6826347,1.56073039 58.6826347,3.51164338 L58.6826347,24.3113772 L37.8829009,24.3113772 Z" id="Path"></path>
                <path d="M64.7092482,51.1377246 C62.7883492,51.1377246 61.1976048,49.5769942 61.1976048,47.6260812 L61.1976048,30.3379907 C61.1976048,28.4170917 62.7583352,26.8263473 64.7092482,26.8263473 L81.9973387,26.8263473 C83.9182376,26.8263473 85.508982,28.3870777 85.508982,30.3379907 L85.508982,51.1377246 L64.7092482,51.1377246 Z" id="Path"></path>
                <path d="M64.7092482,24.3113772 C62.7883492,24.3113772 61.1976048,22.7506469 61.1976048,20.7997339 L61.1976048,3.51164338 C61.1976048,1.59074444 62.7583352,0 64.7092482,0 L81.9973387,0 C83.9182376,0 85.508982,1.56073039 85.508982,3.51164338 L85.508982,24.3113772 L64.7092482,24.3113772 Z" id="Path"></path>
                <path d="M93.2122422,51.1377246 C91.2913432,51.1377246 89.7005988,49.5769942 89.7005988,47.6260812 L89.7005988,30.3379907 C89.7005988,28.4170917 91.2613292,26.8263473 93.2122422,26.8263473 L110.500333,26.8263473 C112.421232,26.8263473 114.011976,28.3870777 114.011976,30.3379907 L114.011976,51.1377246 L93.2122422,51.1377246 Z" id="Path"></path>
                <path d="M37.8829009,78.8023952 C35.9620019,78.8023952 34.3712575,77.2416648 34.3712575,75.2907518 L34.3712575,58.0026613 C34.3712575,56.0817624 35.9319879,54.491018 37.8829009,54.491018 L55.1709914,54.491018 C57.0918903,54.491018 58.6826347,56.0517484 58.6826347,58.0026613 L58.6826347,78.8023952 L37.8829009,78.8023952 Z" id="Path"></path>
                <path d="M93.2122422,24.3113772 C91.2913432,24.3113772 89.7005988,22.7506469 89.7005988,20.7997339 L89.7005988,3.51164338 C89.7005988,1.59074444 91.2613292,0 93.2122422,0 L110.500333,0 C112.421232,0 114.011976,1.56073039 114.011976,3.51164338 L114.011976,24.3113772 L93.2122422,24.3113772 Z" id="Path"></path>
                <path d="M37.8829009,51.1377246 C35.9620019,51.1377246 34.3712575,49.5769942 34.3712575,47.6260812 L34.3712575,30.3379907 C34.3712575,28.4170917 35.9319879,26.8263473 37.8829009,26.8263473 L55.1709914,26.8263473 C57.0918903,26.8263473 58.6826347,28.3870777 58.6826347,30.3379907 L58.6826347,51.1377246 L37.8829009,51.1377246 Z" id="Path"></path>
                <path d="M64.7092482,78.8023952 C62.7883492,78.8023952 61.1976048,77.2416648 61.1976048,75.2907518 L61.1976048,58.0026613 C61.1976048,56.0817624 62.7583352,54.491018 64.7092482,54.491018 L81.9973387,54.491018 C83.9182376,54.491018 85.508982,56.0517484 85.508982,58.0026613 L85.508982,78.8023952 L64.7092482,78.8023952 Z" id="Path"></path>
                <g id="Group" transform="translate(1.676647, 129.101796)">
                    <path d="M0.94375794,8.04317397 C1.30908359,8.41264839 1.76574066,8.69685948 2.25284153,8.92422836 C2.77038621,9.15159723 3.28793089,9.26528167 3.83591937,9.26528167 C4.53612687,9.26528167 5.05367155,9.12317612 5.44944101,8.83896503 C5.84521047,8.55475393 6.0278733,8.1568584 6.0278733,7.67369954 C6.0278733,7.41790956 5.99742949,7.21896179 5.90609808,7.04843514 C5.81476666,6.87790848 5.69299145,6.73580293 5.54077242,6.59369738 C5.3885534,6.48001295 5.20589057,6.36632851 4.99278394,6.25264407 C4.77967731,6.16738074 4.56657068,6.05369631 4.32302024,5.94001187 L2.83127382,5.34316857 C2.58772338,5.25790524 2.34417295,5.1157997 2.07017871,4.97369415 C1.82662827,4.8315886 1.58307784,4.66106194 1.40041501,4.46211418 C1.18730838,4.26316641 1.03508935,4.03579754 0.913314136,3.75158644 C0.791538918,3.46737535 0.730651309,3.15474315 0.730651309,2.81368983 C0.730651309,2.44421541 0.821982722,2.1031621 0.974201745,1.79052989 C1.12642077,1.47789769 1.3699712,1.1936866 1.64396544,0.96631772 C1.94840349,0.738948845 2.28328534,0.540001079 2.6790548,0.426316641 C3.07482426,0.284211094 3.50103752,0.227368875 3.98813839,0.227368875 C4.62745829,0.227368875 5.20589057,0.341053313 5.72343525,0.568422188 C6.24097993,0.795791064 6.69763699,1.08000216 7.06296265,1.44947658 L6.33231134,2.24526764 C6.0278733,1.96105655 5.66254764,1.73368767 5.26677818,1.56316102 C4.87100872,1.39263436 4.44479546,1.30737103 3.95769459,1.30737103 C3.3792623,1.30737103 2.89216143,1.42105547 2.55727958,1.67684546 C2.19195393,1.93263544 2.0092911,2.27368875 2.0092911,2.7284265 C2.0092911,2.95579538 2.07017871,3.15474315 2.16151012,3.3252698 C2.25284153,3.49579646 2.40506056,3.63790201 2.55727958,3.75158644 C2.73994241,3.86527088 2.92260523,3.97895532 3.10526806,4.09263976 C3.31837469,4.17790308 3.50103752,4.26316641 3.71414415,4.34842974 L5.20589057,4.94527304 C5.51032862,5.05895748 5.78432286,5.20106302 6.0583171,5.34316857 C6.33231134,5.48527412 6.54541797,5.68422188 6.7280808,5.88316965 C6.91074363,6.08211742 7.06296265,6.3379074 7.18473787,6.59369738 C7.30651309,6.87790848 7.33695689,7.19054068 7.33695689,7.531594 C7.33695689,7.92948953 7.24562548,8.27054284 7.09340645,8.61159615 C6.94118743,8.95264947 6.69763699,9.23686056 6.39319895,9.49265055 C6.0887609,9.74844053 5.72343525,9.9473883 5.26677818,10.0894938 C4.84056492,10.2315994 4.32302024,10.3168627 3.77503176,10.3168627 C3.04438045,10.3168627 2.37461675,10.1747572 1.73529686,9.91896719 C1.09597696,9.6631772 0.578432286,9.32212389 0.121775218,8.86738614 L0.94375794,8.04317397 Z" id="Path"></path>
                    <path d="M11.0206572,0.426316641 L12.5732913,0.426316641 L14.5825824,5.65580077 L15.3436775,7.64527843 L15.4045651,7.64527843 L16.1352164,5.65580077 L18.1445075,0.426316641 L19.6971415,0.426316641 L19.6971415,10.1747572 L18.4489455,10.1747572 L18.4489455,4.80316749 C18.4489455,4.37685085 18.4793893,3.89369199 18.5098331,3.35369091 C18.540277,2.84211094 18.6011646,2.35895208 18.6316084,1.90421433 L18.5707208,1.90421433 L17.7182942,4.06421865 L15.7090031,9.15159723 L14.947908,9.15159723 L12.9386169,4.06421865 L12.1166342,1.90421433 L12.0557466,1.90421433 C12.0861904,2.33053097 12.1166342,2.81368983 12.1775218,3.35369091 C12.2079656,3.86527088 12.2384094,4.34842974 12.2384094,4.80316749 L12.2384094,10.1747572 L11.0206572,10.1747572 L11.0206572,0.426316641 Z" id="Path"></path>
                    <path d="M28.9520581,7.19054068 L25.1465825,7.19054068 L24.141937,10.1747572 L22.8024096,10.1747572 L26.3338909,0.426316641 L27.8256373,0.426316641 L31.3571187,10.1747572 L29.9262598,10.1747572 L28.9520581,7.19054068 Z M28.6171763,6.19580185 L28.1300754,4.71790416 C27.9474126,4.17790308 27.7647497,3.63790201 27.5820869,3.09790093 C27.3994241,2.55789985 27.247205,2.01789877 27.0645422,1.44947658 L27.0036546,1.44947658 C26.8514356,2.01789877 26.6687728,2.55789985 26.5165537,3.09790093 C26.3338909,3.63790201 26.1512281,4.17790308 25.9685653,4.71790416 L25.4814644,6.19580185 L28.6171763,6.19580185 Z" id="Shape"></path>
                    <path d="M40.1553782,10.1747572 L37.6285424,6.05369631 L35.7410265,6.05369631 L35.7410265,10.1747572 L34.4319429,10.1747572 L34.4319429,0.426316641 L37.68943,0.426316641 C38.2069747,0.426316641 38.7245194,0.48315886 39.1507326,0.568422188 C39.6073897,0.653685517 40.0031591,0.824212173 40.3075972,1.02315994 C40.642479,1.25052881 40.8860295,1.53473991 41.0686923,1.87579322 C41.2513551,2.21684653 41.3426865,2.64316318 41.3426865,3.15474315 C41.3426865,3.9221131 41.1295799,4.5189564 40.7033666,4.97369415 C40.2771534,5.4284319 39.6987211,5.7410641 38.9985136,5.91159076 L41.6471246,10.1747572 L40.1553782,10.1747572 Z M35.7714703,5.03053637 L37.537211,5.03053637 C38.3591937,5.03053637 38.9680698,4.88843082 39.4247269,4.57579862 C39.8509401,4.26316641 40.0640468,3.78000755 40.0640468,3.15474315 C40.0640468,2.50105763 39.8509401,2.04631988 39.4247269,1.79052989 C38.9985136,1.53473991 38.3591937,1.39263436 37.537211,1.39263436 L35.7714703,1.39263436 L35.7714703,5.03053637 Z" id="Shape"></path>
                    <polygon id="Path" points="47.1270094 1.44947658 43.9608537 1.44947658 43.9608537 0.397895532 51.6022487 0.397895532 51.6022487 1.44947658 48.436093 1.44947658 48.436093 10.1747572 47.0965656 10.1747572"></polygon>
                    <path d="M59.8829635,0.426316641 L63.079563,0.426316641 C63.6579953,0.426316641 64.1755399,0.48315886 64.6626408,0.568422188 C65.1497417,0.653685517 65.5455111,0.824212173 65.880393,1.05158105 C66.2152748,1.27894992 66.4892691,1.56316102 66.6719319,1.93263544 C66.8545947,2.30210986 66.9459261,2.75684761 66.9459261,3.29684869 C66.9459261,3.80842866 66.8545947,4.26316641 66.6719319,4.63264083 C66.4892691,5.00211526 66.2152748,5.31474746 65.880393,5.57053745 C65.5455111,5.82632743 65.1497417,5.99685409 64.6626408,6.13895963 C64.1755399,6.25264407 63.6579953,6.3379074 63.079563,6.3379074 L61.1920471,6.3379074 L61.1920471,10.2031783 L59.8829635,10.2031783 L59.8829635,0.426316641 Z M62.9273439,5.28632635 C63.8406581,5.28632635 64.5104218,5.1157997 64.9670788,4.80316749 C65.3932921,4.49053529 65.6368425,3.97895532 65.6368425,3.26842758 C65.6368425,2.55789985 65.4237359,2.07474099 64.9670788,1.79052989 C64.5104218,1.5063188 63.8406581,1.39263436 62.9577878,1.39263436 L61.2529347,1.39263436 L61.2529347,5.28632635 L62.9273439,5.28632635 Z" id="Shape"></path>
                    <polygon id="Path" points="70.6600703 0.426316641 71.9691539 0.426316641 71.9691539 9.12317612 76.5357246 9.12317612 76.5357246 10.1747572 70.6296265 10.1747572 70.6296265 0.426316641"></polygon>
                    <path d="M84.8164394,7.19054068 L81.0109638,7.19054068 L80.0063183,10.1747572 L78.6667909,10.1747572 L82.1982722,0.426316641 L83.6900186,0.426316641 L87.2215,10.1747572 L85.7906411,10.1747572 L84.8164394,7.19054068 Z M84.4815575,6.19580185 L83.9944567,4.71790416 C83.8117938,4.17790308 83.629131,3.63790201 83.4464682,3.09790093 C83.2638054,2.55789985 83.1115863,2.01789877 82.9289235,1.44947658 L82.8680359,1.44947658 C82.7158169,2.01789877 82.5331541,2.55789985 82.380935,3.09790093 C82.1982722,3.63790201 82.0156094,4.17790308 81.8329466,4.71790416 L81.3458457,6.19580185 L84.4815575,6.19580185 Z" id="Shape"></path>
                    <polygon id="Path" points="91.8185144 1.44947658 88.6523588 1.44947658 88.6523588 0.397895532 96.2937537 0.397895532 96.2937537 1.44947658 93.1580418 1.44947658 93.1580418 10.1747572 91.8185144 10.1747572"></polygon>
                    <polygon id="Path" points="99.7947912 0.426316641 105.822665 0.426316641 105.822665 1.47789769 101.134319 1.47789769 101.134319 4.77474638 105.122457 4.77474638 105.122457 5.82632743 101.134319 5.82632743 101.134319 10.2031783 99.825235 10.2031783"></polygon>
                    <path d="M112.946515,10.3452838 C112.276751,10.3452838 111.698319,10.2315994 111.15033,9.97580941 C110.602342,9.74844053 110.145685,9.40738722 109.749915,8.95264947 C109.354146,8.52633283 109.049708,7.98633175 108.836601,7.36106734 C108.623495,6.73580293 108.501719,6.0252752 108.501719,5.22948413 C108.501719,4.43369307 108.623495,3.75158644 108.836601,3.12632204 C109.049708,2.50105763 109.354146,1.98947766 109.749915,1.56316102 C110.145685,1.13684438 110.602342,0.795791064 111.15033,0.568422188 C111.698319,0.341053313 112.307195,0.227368875 112.946515,0.227368875 C113.616278,0.227368875 114.194711,0.341053313 114.742699,0.568422188 C115.290688,0.795791064 115.747345,1.13684438 116.173558,1.56316102 C116.569328,1.98947766 116.873766,2.52947874 117.086872,3.12632204 C117.299979,3.75158644 117.421754,4.43369307 117.421754,5.20106302 C117.421754,5.99685409 117.299979,6.67896071 117.086872,7.33264623 C116.873766,7.95791064 116.569328,8.49791172 116.173558,8.92422836 C115.777789,9.37896611 115.290688,9.69159831 114.742699,9.9473883 C114.194711,10.2315994 113.585835,10.3452838 112.946515,10.3452838 Z M112.946515,9.26528167 C113.403172,9.26528167 113.829385,9.18001834 114.225155,8.98107058 C114.59048,8.78212281 114.925362,8.52633283 115.199356,8.1568584 C115.473351,7.78738398 115.686457,7.38948845 115.838676,6.90632959 C115.990895,6.42317073 116.051783,5.85474854 116.051783,5.25790524 C116.051783,4.66106194 115.990895,4.12106087 115.838676,3.6094809 C115.686457,3.12632204 115.473351,2.70000539 115.199356,2.38737319 C114.925362,2.04631988 114.59048,1.79052989 114.225155,1.62000324 C113.859829,1.44947658 113.433616,1.33579214 112.946515,1.33579214 C112.489858,1.33579214 112.063644,1.42105547 111.667875,1.62000324 C111.302549,1.79052989 110.967667,2.07474099 110.693673,2.38737319 C110.419679,2.7284265 110.206572,3.12632204 110.054353,3.6094809 C109.902134,4.09263976 109.841247,4.63264083 109.841247,5.25790524 C109.841247,5.88316965 109.902134,6.42317073 110.054353,6.90632959 C110.206572,7.38948845 110.419679,7.81580509 110.693673,8.1568584 C110.967667,8.49791172 111.302549,8.78212281 111.667875,8.98107058 C112.033201,9.18001834 112.459414,9.26528167 112.946515,9.26528167 Z" id="Shape"></path>
                    <path d="M126.981109,10.1747572 L124.454273,6.05369631 L122.566757,6.05369631 L122.566757,10.1747572 L121.257673,10.1747572 L121.257673,0.426316641 L124.51516,0.426316641 C125.032705,0.426316641 125.55025,0.48315886 125.976463,0.568422188 C126.43312,0.653685517 126.82889,0.824212173 127.133328,1.02315994 C127.46821,1.25052881 127.71176,1.53473991 127.894423,1.87579322 C128.077086,2.21684653 128.168417,2.64316318 128.168417,3.15474315 C128.168417,3.9221131 127.95531,4.5189564 127.529097,4.97369415 C127.102884,5.4284319 126.524452,5.7410641 125.824244,5.91159076 L128.472855,10.1747572 L126.981109,10.1747572 Z M122.566757,5.03053637 L124.332498,5.03053637 C125.15448,5.03053637 125.763356,4.88843082 126.220014,4.57579862 C126.646227,4.26316641 126.859333,3.78000755 126.859333,3.15474315 C126.859333,2.50105763 126.646227,2.04631988 126.220014,1.79052989 C125.7938,1.53473991 125.15448,1.39263436 124.332498,1.39263436 L122.566757,1.39263436 L122.566757,5.03053637 Z" id="Shape"></path>
                    <path d="M132.095668,0.426316641 L133.648302,0.426316641 L135.657593,5.65580077 L136.418688,7.64527843 L136.479576,7.64527843 L137.210227,5.65580077 L139.219518,0.426316641 L140.772152,0.426316641 L140.772152,10.1747572 L139.523956,10.1747572 L139.523956,4.80316749 C139.523956,4.37685085 139.5544,3.89369199 139.584844,3.35369091 C139.615288,2.84211094 139.676175,2.35895208 139.706619,1.90421433 L139.645731,1.90421433 L138.793305,4.06421865 L136.784014,9.15159723 L136.022919,9.15159723 L134.013628,4.06421865 L133.191645,1.90421433 L133.130757,1.90421433 C133.161201,2.33053097 133.191645,2.81368983 133.252532,3.35369091 C133.282976,3.86527088 133.31342,4.34842974 133.31342,4.80316749 L133.31342,10.1747572 L132.095668,10.1747572 L132.095668,0.426316641 Z" id="Path"></path>
                </g>
                <path d="M132.45509,94.7305389 C124.94012,94.7305389 119.041916,100.558435 119.041916,108.158733 C119.041916,115.759031 124.94012,121.556886 132.45509,121.556886 C139.97006,121.556886 145.868263,115.72899 145.868263,108.158733 C145.868263,100.528394 139.97006,94.7305389 132.45509,94.7305389 M132.45509,99.3568071 C137.245509,99.3568071 141.047904,103.352221 141.047904,108.128692 C141.047904,112.875123 137.245509,116.900577 132.45509,116.900577 C127.694611,116.900577 123.862275,112.845083 123.862275,108.128692 C123.862275,103.352221 127.664671,99.3568071 132.45509,99.3568071" id="Shape"></path>
                <path d="M68.8620087,116.900577 C64.0822586,116.900577 60.288332,112.875123 60.288332,108.128692 C60.288332,103.32218 64.0822586,99.3568071 68.8620087,99.3568071 C73.6417588,99.3568071 77.4356854,103.352221 77.4356854,108.128692 C77.4356854,112.875123 73.6118854,116.900577 68.8620087,116.900577 M77.3460651,95.4815565 L77.3460651,98.3654639 L77.1668245,98.3654639 C75.225051,96.1724926 72.0285931,94.7305389 68.7126415,94.7305389 C61.2144086,94.7305389 55.3293413,100.558435 55.3293413,108.158733 C55.3293413,115.759031 61.2144086,121.556886 68.7126415,121.556886 C72.0285931,121.556886 75.1951776,120.084892 77.1668245,117.921961 L77.3460651,117.921961 L77.3460651,120.745787 L82.1556886,120.745787 L82.1556886,95.4815565 L77.3460651,95.4815565 Z" id="Shape"></path>
                <path d="M100.703476,116.982413 C95.9183973,116.982413 92.1202411,113.002027 92.1202411,108.308737 C92.1202411,103.556038 95.9183973,99.6350606 100.703476,99.6350606 C105.488555,99.6350606 109.286711,103.585742 109.286711,108.308737 C109.286711,113.002027 105.458648,116.982413 100.703476,116.982413 M109.167084,83.8323353 L109.167084,98.625112 L109.01755,98.625112 C107.073612,96.4566929 103.873591,95.0308831 100.583849,95.0308831 C93.0772569,95.0308831 87.1856287,100.793531 87.1856287,108.308737 C87.1856287,115.823943 93.0772569,121.556886 100.583849,121.556886 C103.903497,121.556886 107.073612,120.101372 109.01755,117.962657 L109.196991,117.962657 L109.196991,120.754868 L114.011976,120.754868 L114.011976,83.8323353 L109.167084,83.8323353 Z" id="Shape"></path>
                <path d="M52.0889649,114.106792 C50.4875962,115.819112 48.2087254,116.900577 45.6526946,116.900577 C40.7254063,116.900577 36.8143713,112.845083 36.8143713,108.128692 C36.8143713,103.32218 40.7254063,99.3568071 45.6526946,99.3568071 C48.2087254,99.3568071 50.4875962,100.438272 52.0889649,102.150592 L54.491018,97.7346092 C52.1197605,95.8420449 49.0402053,94.7305389 45.6526946,94.7305389 C37.9230111,94.7305389 31.8562874,100.558435 31.8562874,108.158733 C31.8562874,115.759031 37.9230111,121.556886 45.6526946,121.556886 C49.0402053,121.556886 52.1197605,120.44538 54.491018,118.552816 L52.0889649,114.106792 Z" id="Path"></path>
                <path d="M13.4131737,94.7305389 C5.89820359,94.7305389 0,100.558435 0,108.158733 C0,115.759031 5.89820359,121.556886 13.4131737,121.556886 C20.9281437,121.556886 26.8263473,115.72899 26.8263473,108.158733 C26.8263473,100.528394 20.9281437,94.7305389 13.4131737,94.7305389 M13.4131737,99.3568071 C18.2035928,99.3568071 22.005988,103.352221 22.005988,108.128692 C22.005988,112.875123 18.2035928,116.900577 13.4131737,116.900577 C8.65269461,116.900577 4.82035928,112.845083 4.82035928,108.128692 C4.82035928,103.352221 8.65269461,99.3568071 13.4131737,99.3568071" id="Shape"></path>
            </g>
        </g>
    </g>
</svg>