<?xml version="1.0" encoding="UTF-8"?>
<svg width="249px" height="239px" viewBox="0 0 249 239" version="1.1" xmlns="http://www.w3.org/2000/svg" xmlns:xlink="http://www.w3.org/1999/xlink">
    <title>osp-logo</title>
    <g id="Index" stroke="none" stroke-width="1" fill="none" fill-rule="evenodd">
        <g id="osp-logo" style="mix-blend-mode: multiply;" fill-rule="nonzero">
            <path d="M64.9222222,41 C61.682716,41 59,38.3679012 59,35.0777778 L59,5.92222222 C59,2.68271605 61.6320988,0 64.9222222,0 L94.0777778,0 C97.317284,0 100,2.63209877 100,5.92222222 L100,41 L64.9222222,41 Z" id="Path" fill="#000000"></path>
            <path d="M110.922222,87 C107.682716,87 105,84.3679012 105,81.0777778 L105,51.9222222 C105,48.682716 107.632099,46 110.922222,46 L140.077778,46 C143.317284,46 146,48.6320988 146,51.9222222 L146,87 L110.922222,87 Z" id="Path" fill="#000000"></path>
            <path d="M110.922222,41 C107.682716,41 105,38.3679012 105,35.0777778 L105,5.92222222 C105,2.68271605 107.632099,0 110.922222,0 L140.077778,0 C143.317284,0 146,2.63209877 146,5.92222222 L146,41 L110.922222,41 Z" id="Path" fill="#000000"></path>
            <path d="M156.922222,87 C153.682716,87 151,84.3679012 151,81.0777778 L151,51.9222222 C151,48.682716 153.632099,46 156.922222,46 L186.077778,46 C189.317284,46 192,48.6320988 192,51.9222222 L192,87 L156.922222,87 Z" id="Path" fill="#000000"></path>
            <path d="M64.9222222,134 C61.682716,134 59,131.367901 59,128.077778 L59,98.9222222 C59,95.682716 61.6320988,93 64.9222222,93 L94.0777778,93 C97.317284,93 100,95.6320988 100,98.9222222 L100,134 L64.9222222,134 Z" id="Path" fill="#000000"></path>
            <path d="M156.922222,41 C153.682716,41 151,38.3679012 151,35.0777778 L151,5.92222222 C151,2.68271605 153.632099,0 156.922222,0 L186.077778,0 C189.317284,0 192,2.63209877 192,5.92222222 L192,41 L156.922222,41 Z" id="Path" fill="#000000"></path>
            <path d="M64.9222222,87 C61.682716,87 59,84.3679012 59,81.0777778 L59,51.9222222 C59,48.682716 61.6320988,46 64.9222222,46 L94.0777778,46 C97.317284,46 100,48.6320988 100,51.9222222 L100,87 L64.9222222,87 Z" id="Path" fill="#000000"></path>
            <path d="M110.922222,134 C107.682716,134 105,131.367901 105,128.077778 L105,98.9222222 C105,95.682716 107.632099,93 110.922222,93 L140.077778,93 C143.317284,93 146,95.6320988 146,98.9222222 L146,134 L110.922222,134 Z" id="Path" fill="#000000"></path>
            <g id="Group" transform="translate(3.000000, 221.000000)" fill="#262626">
                <path d="M1.61494157,13.284495 C2.24008025,13.8947368 3.02150359,14.3641536 3.85502182,14.7396871 C4.74063494,15.1152205 5.62624806,15.3029872 6.56395607,15.3029872 C7.76213853,15.3029872 8.64775165,15.0682788 9.32498522,14.598862 C10.0022188,14.1294452 10.3147881,13.4722617 10.3147881,12.6742532 C10.3147881,12.2517781 10.2626932,11.9231863 10.1064086,11.6415363 C9.95012389,11.3598862 9.74174433,11.1251778 9.48126989,10.8904694 C9.22079544,10.7027027 8.9082261,10.514936 8.54356187,10.3271693 C8.17889765,10.1863442 7.81423342,9.99857752 7.39747431,9.81081081 L4.84482472,8.82503556 C4.42806561,8.68421053 4.01130649,8.44950213 3.54245248,8.21479374 C3.12569337,7.98008535 2.70893425,7.69843528 2.39636492,7.36984353 C2.03170069,7.04125178 1.77122624,6.66571835 1.56284668,6.19630156 C1.35446713,5.72688478 1.25027735,5.21052632 1.25027735,4.64722617 C1.25027735,4.03698435 1.40656202,3.47368421 1.66703646,2.95732575 C1.92751091,2.44096728 2.34427003,1.9715505 2.81312403,1.59601707 C3.33407293,1.22048364 3.90711671,0.891891892 4.58435027,0.704125178 C5.26158384,0.469416785 5.99091229,0.375533428 6.82443052,0.375533428 C7.9184232,0.375533428 8.9082261,0.563300142 9.79383922,0.93883357 C10.6794523,1.314367 11.4608757,1.78378378 12.0860144,2.3940256 L10.835737,3.7083926 C10.3147881,3.23897582 9.68964944,2.86344239 9.01241588,2.58179232 C8.33518232,2.30014225 7.60585386,2.15931721 6.77233563,2.15931721 C5.78253273,2.15931721 4.9490145,2.34708393 4.37597072,2.76955903 C3.75083204,3.19203414 3.43826271,3.75533428 3.43826271,4.50640114 C3.43826271,4.88193457 3.54245248,5.21052632 3.69873715,5.49217639 C3.85502182,5.77382646 4.11549627,6.00853485 4.37597072,6.19630156 C4.68854005,6.38406828 5.00110939,6.57183499 5.31367873,6.75960171 C5.67834295,6.90042674 5.99091229,7.04125178 6.35557652,7.18207681 L8.9082261,8.16785206 C9.429175,8.35561878 9.898029,8.59032717 10.366883,8.82503556 C10.835737,9.05974395 11.2004012,9.3883357 11.5129706,9.71692745 C11.8255399,10.0455192 12.0860144,10.4679943 12.2943939,10.8904694 C12.5027735,11.3598862 12.5548684,11.8762447 12.5548684,12.4395448 C12.5548684,13.0967283 12.3985837,13.6600284 12.1381092,14.2233286 C11.8776348,14.7866287 11.4608757,15.2560455 10.9399268,15.6785206 C10.4189779,16.1009957 9.79383922,16.4295875 9.01241588,16.6642959 C8.28308743,16.8990043 7.39747431,17.0398293 6.4597663,17.0398293 C5.20948895,17.0398293 4.06340138,16.8051209 2.9694087,16.3826458 C1.87541602,15.9601707 0.9898029,15.3968706 0.208379558,14.6458037 L1.61494157,13.284495 Z" id="Path"></path>
                <path d="M18.85835,0.704125178 L21.5151894,0.704125178 L24.9534521,9.34139403 L26.2558243,12.6273115 L26.3600141,12.6273115 L27.6102914,9.34139403 L31.0485541,0.704125178 L33.7053935,0.704125178 L33.7053935,16.8051209 L31.569503,16.8051209 L31.569503,7.93314367 C31.569503,7.22901849 31.6215979,6.43100996 31.6736928,5.53911807 C31.7257877,4.69416785 31.8299775,3.89615932 31.8820724,3.14509246 L31.7778826,3.14509246 L30.3192257,6.71266003 L26.880963,15.1152205 L25.5785907,15.1152205 L22.140328,6.71266003 L20.733766,3.14509246 L20.6295762,3.14509246 C20.6816711,3.84921764 20.733766,4.64722617 20.8379558,5.53911807 C20.8900507,6.38406828 20.9421456,7.18207681 20.9421456,7.93314367 L20.9421456,16.8051209 L18.85835,16.8051209 L18.85835,0.704125178 Z" id="Path"></path>
                <path d="M49.5422399,11.8762447 L43.0303787,11.8762447 L41.3112474,16.8051209 L39.0190722,16.8051209 L45.0620794,0.704125178 L47.614729,0.704125178 L53.6577362,16.8051209 L51.2092764,16.8051209 L49.5422399,11.8762447 Z M48.9691961,10.2332859 L48.1356779,7.79231863 C47.8231085,6.90042674 47.5105392,6.00853485 47.1979699,5.11664296 C46.8854005,4.22475107 46.6249261,3.33285917 46.3123567,2.3940256 L46.208167,2.3940256 C45.9476925,3.33285917 45.6351232,4.22475107 45.3746487,5.11664296 C45.0620794,6.00853485 44.7495101,6.90042674 44.4369407,7.79231863 L43.6034225,10.2332859 L48.9691961,10.2332859 Z" id="Shape"></path>
                <path d="M68.7131592,16.8051209 L64.3892834,9.99857752 L61.1594003,9.99857752 L61.1594003,16.8051209 L58.91932,16.8051209 L58.91932,0.704125178 L64.4934732,0.704125178 C65.3790863,0.704125178 66.2646994,0.798008535 66.9940279,0.93883357 C67.7754512,1.07965861 68.4526848,1.36130868 68.9736337,1.68990043 C69.5466775,2.06543385 69.9634366,2.53485064 70.2760059,3.09815078 C70.5885752,3.66145092 70.7448599,4.3655761 70.7448599,5.21052632 C70.7448599,6.47795164 70.3801957,7.46372688 69.6508672,8.21479374 C68.9215388,8.9658606 67.9317359,9.48221906 66.7335534,9.76386913 L71.2658088,16.8051209 L68.7131592,16.8051209 Z M61.2114951,8.3086771 L64.2329987,8.3086771 C65.6395607,8.3086771 66.6814585,8.07396871 67.4628819,7.55761024 C68.1922103,7.04125178 68.5568746,6.24324324 68.5568746,5.21052632 C68.5568746,4.13086771 68.1922103,3.37980085 67.4628819,2.95732575 C66.7335534,2.53485064 65.6395607,2.30014225 64.2329987,2.30014225 L61.2114951,2.30014225 L61.2114951,8.3086771 Z" id="Shape"></path>
                <polygon id="Path" points="80.6428889 2.3940256 75.2250204 2.3940256 75.2250204 0.657183499 88.3008377 0.657183499 88.3008377 2.3940256 82.8829692 2.3940256 82.8829692 16.8051209 80.590794 16.8051209"></polygon>
                <path d="M102.470648,0.704125178 L107.940611,0.704125178 C108.930414,0.704125178 109.816027,0.798008535 110.649545,0.93883357 C111.483063,1.07965861 112.160297,1.36130868 112.733341,1.73684211 C113.306385,2.11237553 113.775239,2.58179232 114.087808,3.19203414 C114.400377,3.80227596 114.556662,4.55334282 114.556662,5.44523471 C114.556662,6.29018492 114.400377,7.04125178 114.087808,7.6514936 C113.775239,8.26173542 113.306385,8.77809388 112.733341,9.20056899 C112.160297,9.6230441 111.483063,9.90469417 110.649545,10.1394026 C109.816027,10.3271693 108.930414,10.4679943 107.940611,10.4679943 L104.710728,10.4679943 L104.710728,16.8520626 L102.470648,16.8520626 L102.470648,0.704125178 Z M107.680137,8.7311522 C109.242983,8.7311522 110.389071,8.44950213 111.170494,7.93314367 C111.899823,7.41678521 112.316582,6.57183499 112.316582,5.39829303 C112.316582,4.22475107 111.951917,3.42674253 111.170494,2.95732575 C110.389071,2.48790896 109.242983,2.30014225 107.732231,2.30014225 L104.814918,2.30014225 L104.814918,8.7311522 L107.680137,8.7311522 Z" id="Shape"></path>
                <polygon id="Path" points="120.912238 0.704125178 123.152319 0.704125178 123.152319 15.0682788 130.966552 15.0682788 130.966552 16.8051209 120.860144 16.8051209 120.860144 0.704125178"></polygon>
                <path d="M145.136362,11.8762447 L138.624501,11.8762447 L136.90537,16.8051209 L134.613194,16.8051209 L140.656202,0.704125178 L143.208851,0.704125178 L149.251858,16.8051209 L146.803399,16.8051209 L145.136362,11.8762447 Z M144.563318,10.2332859 L143.7298,7.79231863 C143.417231,6.90042674 143.104661,6.00853485 142.792092,5.11664296 C142.479523,4.22475107 142.219048,3.33285917 141.906479,2.3940256 L141.802289,2.3940256 C141.541815,3.33285917 141.229245,4.22475107 140.968771,5.11664296 C140.656202,6.00853485 140.343632,6.90042674 140.031063,7.79231863 L139.197545,10.2332859 L144.563318,10.2332859 Z" id="Shape"></path>
                <polygon id="Path" points="157.118187 2.3940256 151.700318 2.3940256 151.700318 0.657183499 164.776135 0.657183499 164.776135 2.3940256 159.410362 2.3940256 159.410362 16.8051209 157.118187 16.8051209"></polygon>
                <polygon id="Path" points="170.767048 0.704125178 181.081836 0.704125178 181.081836 2.44096728 173.059223 2.44096728 173.059223 7.88620199 179.883653 7.88620199 179.883653 9.6230441 173.059223 9.6230441 173.059223 16.8520626 170.819143 16.8520626"></polygon>
                <path d="M193.27204,17.086771 C192.125952,17.086771 191.13615,16.8990043 190.198441,16.4765292 C189.260733,16.1009957 188.47931,15.5376956 187.802077,14.7866287 C187.124843,14.0825036 186.603894,13.1906117 186.23923,12.1578947 C185.874566,11.1251778 185.666186,9.95163585 185.666186,8.63726885 C185.666186,7.32290185 185.874566,6.19630156 186.23923,5.16358464 C186.603894,4.13086771 187.124843,3.2859175 187.802077,2.58179232 C188.47931,1.87766714 189.260733,1.314367 190.198441,0.93883357 C191.13615,0.563300142 192.178047,0.375533428 193.27204,0.375533428 C194.418128,0.375533428 195.40793,0.563300142 196.345638,0.93883357 C197.283346,1.314367 198.06477,1.87766714 198.794098,2.58179232 C199.471332,3.2859175 199.992281,4.17780939 200.356945,5.16358464 C200.721609,6.19630156 200.929989,7.32290185 200.929989,8.59032717 C200.929989,9.90469417 200.721609,11.0312945 200.356945,12.1109531 C199.992281,13.14367 199.471332,14.0355619 198.794098,14.7396871 C198.116865,15.4907539 197.283346,16.0071124 196.345638,16.4295875 C195.40793,16.8990043 194.366033,17.086771 193.27204,17.086771 Z M193.27204,15.3029872 C194.053463,15.3029872 194.782792,15.1621622 195.460025,14.8335704 C196.085164,14.5049787 196.658208,14.0825036 197.127062,13.4722617 C197.595916,12.8620199 197.96058,12.2048364 198.221054,11.4068279 C198.481529,10.6088193 198.585719,9.66998578 198.585719,8.68421053 C198.585719,7.69843528 198.481529,6.80654339 198.221054,5.96159317 C197.96058,5.16358464 197.595916,4.45945946 197.127062,3.943101 C196.658208,3.37980085 196.085164,2.95732575 195.460025,2.67567568 C194.834887,2.3940256 194.105558,2.20625889 193.27204,2.20625889 C192.490617,2.20625889 191.761288,2.34708393 191.084055,2.67567568 C190.458916,2.95732575 189.885872,3.42674253 189.417018,3.943101 C188.948164,4.50640114 188.5835,5.16358464 188.323025,5.96159317 C188.062551,6.75960171 187.958361,7.6514936 187.958361,8.68421053 C187.958361,9.71692745 188.062551,10.6088193 188.323025,11.4068279 C188.5835,12.2048364 188.948164,12.9089616 189.417018,13.4722617 C189.885872,14.0355619 190.458916,14.5049787 191.084055,14.8335704 C191.709193,15.1621622 192.438522,15.3029872 193.27204,15.3029872 Z" id="Shape"></path>
                <path d="M217.287784,16.8051209 L212.963908,9.99857752 L209.734025,9.99857752 L209.734025,16.8051209 L207.493945,16.8051209 L207.493945,0.704125178 L213.068098,0.704125178 C213.953711,0.704125178 214.839324,0.798008535 215.568653,0.93883357 C216.350076,1.07965861 217.02731,1.36130868 217.548258,1.68990043 C218.121302,2.06543385 218.538061,2.53485064 218.850631,3.09815078 C219.1632,3.66145092 219.319485,4.3655761 219.319485,5.21052632 C219.319485,6.47795164 218.95482,7.46372688 218.225492,8.21479374 C217.496164,8.9658606 216.506361,9.48221906 215.308178,9.76386913 L219.840434,16.8051209 L217.287784,16.8051209 Z M209.734025,8.3086771 L212.755529,8.3086771 C214.162091,8.3086771 215.203988,8.07396871 215.985412,7.55761024 C216.71474,7.04125178 217.079404,6.24324324 217.079404,5.21052632 C217.079404,4.13086771 216.71474,3.37980085 215.985412,2.95732575 C215.256083,2.53485064 214.162091,2.30014225 212.755529,2.30014225 L209.734025,2.30014225 L209.734025,8.3086771 Z" id="Shape"></path>
                <path d="M226.039725,0.704125178 L228.696565,0.704125178 L232.134828,9.34139403 L233.4372,12.6273115 L233.54139,12.6273115 L234.791667,9.34139403 L238.22993,0.704125178 L240.886769,0.704125178 L240.886769,16.8051209 L238.750878,16.8051209 L238.750878,7.93314367 C238.750878,7.22901849 238.802973,6.43100996 238.855068,5.53911807 C238.907163,4.69416785 239.011353,3.89615932 239.063448,3.14509246 L238.959258,3.14509246 L237.500601,6.71266003 L234.062338,15.1152205 L232.759966,15.1152205 L229.321703,6.71266003 L227.915141,3.14509246 L227.810952,3.14509246 C227.863047,3.84921764 227.915141,4.64722617 228.019331,5.53911807 C228.071426,6.38406828 228.123521,7.18207681 228.123521,7.93314367 L228.123521,16.8051209 L226.039725,16.8051209 L226.039725,0.704125178 Z" id="Path"></path>
            </g>
            <path d="M226,162 C213.113839,162 203,171.993281 203,185.025756 C203,198.058231 213.113839,208 226,208 C238.886161,208 249,198.006719 249,185.025756 C249,171.941769 238.886161,162 226,162 M226,169.932811 C234.214286,169.932811 240.734375,176.783875 240.734375,184.974244 C240.734375,193.113102 234.214286,200.015677 226,200.015677 C217.837054,200.015677 211.265625,193.06159 211.265625,184.974244 C211.265625,176.783875 217.785714,169.932811 226,169.932811" id="Shape" fill="#000000"></path>
            <path d="M118.2049,200.015677 C110.008909,200.015677 103.503341,193.113102 103.503341,184.974244 C103.503341,176.732363 110.008909,169.932811 118.2049,169.932811 C126.400891,169.932811 132.906459,176.783875 132.906459,184.974244 C132.906459,193.113102 126.349666,200.015677 118.2049,200.015677 M132.752784,163.287794 L132.752784,168.232923 L132.445434,168.232923 C129.115813,164.472564 123.634744,162 117.948775,162 C105.091314,162 95,171.993281 95,185.025756 C95,198.058231 105.091314,208 117.948775,208 C123.634744,208 129.064588,205.475924 132.445434,201.767077 L132.752784,201.767077 L132.752784,206.609183 L141,206.609183 L141,163.287794 L132.752784,163.287794 Z" id="Shape" fill="#000000"></path>
            <path d="M172.179487,200.23937 C163.974359,200.23937 157.461538,193.486614 157.461538,185.524409 C157.461538,177.461417 163.974359,170.809449 172.179487,170.809449 C180.384615,170.809449 186.897436,177.511811 186.897436,185.524409 C186.897436,193.486614 180.333333,200.23937 172.179487,200.23937 M186.692308,144 L186.692308,169.096063 L186.435897,169.096063 C183.102564,165.417323 177.615385,162.998425 171.974359,162.998425 C159.102564,162.998425 149,172.774803 149,185.524409 C149,198.274016 159.102564,208 171.974359,208 C177.666667,208 183.102564,205.530709 186.435897,201.902362 L186.74359,201.902362 L186.74359,206.63937 L195,206.63937 L195,144 L186.692308,144 Z" id="Shape" fill="#000000"></path>
            <path d="M88.8612245,195.225084 C86.1020408,198.161254 82.1755102,200.015677 77.7714286,200.015677 C69.2816327,200.015677 62.5428571,193.06159 62.5428571,184.974244 C62.5428571,176.732363 69.2816327,169.932811 77.7714286,169.932811 C82.1755102,169.932811 86.1020408,171.787234 88.8612245,174.723404 L93,167.151176 C88.9142857,163.905935 83.6081633,162 77.7714286,162 C64.4530612,162 54,171.993281 54,185.025756 C54,198.058231 64.4530612,208 77.7714286,208 C83.6081633,208 88.9142857,206.094065 93,202.848824 L88.8612245,195.225084 Z" id="Path" fill="#000000"></path>
            <path d="M23,162 C10.1138393,162 0,171.993281 0,185.025756 C0,198.058231 10.1138393,208 23,208 C35.8861607,208 46,198.006719 46,185.025756 C46,171.941769 35.8861607,162 23,162 M23,169.932811 C31.2142857,169.932811 37.734375,176.783875 37.734375,184.974244 C37.734375,193.113102 31.2142857,200.015677 23,200.015677 C14.8370536,200.015677 8.265625,193.06159 8.265625,184.974244 C8.265625,176.783875 14.8370536,169.932811 23,169.932811" id="Shape" fill="#000000"></path>
        </g>
    </g>
</svg>