<?xml version="1.0" encoding="UTF-8"?>
<svg width="151px" height="65px" viewBox="0 0 151 65" version="1.1" xmlns="http://www.w3.org/2000/svg" xmlns:xlink="http://www.w3.org/1999/xlink">
    <!-- Generator: Sketch 64 (93537) - https://sketch.com -->
    <title>sun</title>
    <desc>Created with Sketch.</desc>
    <g id="Index" stroke="none" stroke-width="1" fill="none" fill-rule="evenodd">
        <g id="Desktop-HD" transform="translate(-428.000000, -7077.000000)" fill-rule="nonzero">
            <g id="sun" transform="translate(428.000000, 7077.000000)">
                <path d="M142.862266,17.042223 C136.750352,17.042223 129.933139,26.7685621 127.817513,30.0106123 C127.817513,30.4737671 127.5824,30.2422246 127.817513,30.0106123 C128.757808,26.0737599 129.933139,22.6000503 129.933139,20.0527206 C129.933139,18.4316453 129.227956,16.8105636 127.347365,16.8105636 C122.880929,16.8105636 116.768977,25.3790142 116.768977,27.4631758 C116.768977,27.9263306 116.768977,28.1579404 117.239125,28.1579404 C117.709272,28.1579404 118.414526,26.7684741 119.589863,25.1473988 C121.000306,23.5263234 122.880968,21.2105463 124.056299,21.2105463 C124.056299,21.2105463 124.291404,21.2105463 124.291404,21.9053109 C124.291404,24.6842371 118.884674,39.5053171 116.533852,46.9158163 C116.298816,47.6105809 116.768964,47.8421963 119.354809,47.8421963 C121.000287,47.8421963 121.940583,48.0737388 122.175689,46.9158163 C123.586132,41.8211131 126.171976,36.2632041 128.992856,31.4000346 C131.578701,27.0000267 137.220569,20.5158698 140.276453,20.5158698 C141.216819,20.5158698 141.451854,20.9790245 141.451854,22.136876 C141.451854,25.1474176 133.459254,40.2000503 133.459254,45.9895558 C133.694366,47.6106312 134.399549,48.7685574 136.515246,48.7685574 C141.216787,48.7685574 145.448104,42.0527159 147.563794,38.5790503 C147.798836,37.8842858 148.268978,37.4211304 147.798836,36.7263595 C147.563794,36.494817 147.563794,36.2632047 147.093653,36.2632047 C146.858541,36.2632047 146.623505,36.494817 146.623505,36.7263595 C145.212992,39.0422057 142.392112,44.1369216 140.276415,44.1369216 C140.041373,44.1369216 139.806267,43.905379 139.806267,43.4422261 C139.806267,41.1263799 146.858547,26.5368776 146.858547,21.673708 C146.858547,18.200011 144.977956,17.0421602 142.862259,17.0421602 M84.3284573,28.1579404 C84.3284573,28.3894829 84.7986752,28.6210952 85.0337108,28.6210952 C85.9740063,28.6210952 86.444154,27.0000198 88.3247386,24.4527027 C89.5001398,22.6000119 90.9105831,21.4421611 91.8508786,21.4421611 C92.3210263,21.4421611 92.5561321,21.9053159 92.5561321,22.1368565 C92.5561321,23.9894782 85.2688038,39.2736948 85.2688038,45.0632003 C85.2688038,46.915822 85.9739871,48.7685065 88.3247258,48.7685065 C93.7314568,48.7685065 99.8434348,41.589497 104.309864,35.3368864 C104.544976,35.1053439 104.544976,35.1053439 104.544976,35.5684986 C103.604681,38.1158848 102.194167,42.9790607 102.194167,45.9894955 C102.194167,47.3790308 102.664309,48.7685065 104.780012,48.7685065 C109.481553,48.7685065 116.063608,39.2737105 116.063608,36.9579335 C116.063608,36.4947787 116.063608,36.2631689 115.593461,36.2631689 C114.653165,36.2631689 114.41813,37.4210889 113.71287,38.8105551 C112.067321,41.1263322 109.481546,44.3684829 108.306139,44.3684829 C107.835991,44.3684829 107.835991,43.9053281 107.835991,43.4421721 C107.835991,40.2000151 115.828592,19.3579397 115.828592,18.6631564 C115.828592,18.2000016 115.59348,17.9684609 114.888297,17.9684609 C114.418149,17.9684609 113.712895,17.7368487 112.537488,17.7368487 C110.421861,17.7368487 110.186749,18.2000035 109.951713,18.4316132 C109.011418,20.515844 107.365869,26.7684484 104.544982,32.0947859 C100.313589,39.2737325 94.6718033,44.8316226 92.3210008,44.8316226 C91.3807053,44.8316226 90.9105576,44.1368581 90.9105576,43.2105473 C90.9105576,40.2000057 98.6680463,23.7579319 98.6680463,19.8210355 C98.6680463,18.8947246 98.1978986,17.0421093 95.8471663,17.0421093 C89.735252,17.0421093 84.3284573,27.0000009 84.3284573,28.1578895 L84.3284573,28.1579404 Z M65.2873717,16.3473768 C65.0522595,26.0737159 75.8657596,30.4737174 75.8657596,39.042168 C75.8657596,41.3579451 73.9850985,47.3790032 67.6380466,47.1473878 C64.5820544,47.1473878 61.5261323,45.063157 61.7611743,39.7368257 L61.7611743,36.0315887 C61.5261361,35.5684339 61.5261361,35.3368242 61.2910272,34.8736687 C61.0559182,34.8736687 60.8208801,34.6421262 60.5857737,34.8736687 C59.8805903,35.105281 59.6454782,35.7999796 59.6454782,36.263135 C59.1753311,37.8842104 58.7051827,39.505292 58.4701471,41.1262983 C58.4701471,41.3579105 58.7051853,41.3579105 58.4701471,41.3579105 C58.2350382,42.5157614 58,43.6736876 58,45.0631476 C58,45.7579121 58.4701471,46.2210675 59.1753311,46.6842229 C61.2910278,48.0736892 64.3470188,48.7684537 67.6380274,49 C75.8657405,49 82.4477961,42.0526059 82.6829083,35.3368273 C82.6829083,29.7789686 79.6269161,26.7684396 76.1007889,22.5999906 C74.4552399,20.5158289 70.9291701,17.5052873 71.1642057,13.5684349 C71.1642057,10.5578932 73.7500501,6.85265622 78.4515339,7.08420879 C84.7986241,7.08420879 83.8582649,13.7999874 83.8582649,16.8105479 C83.8582649,17.2737027 83.8582649,17.5053124 84.3284126,17.7368587 C84.5635248,17.968471 84.7986305,17.968471 85.2687783,17.968471 C85.2687783,17.7368587 85.5038139,17.5053162 85.738926,17.2737065 L87.1493692,11.4842386 C87.3844048,10.3263878 87.8545526,9.40000785 87.8545526,8.01054161 C87.8545526,7.77899909 87.8545526,7.54738683 87.3844048,7.08423078 C83.8582649,5.46315541 81.9776739,5.23160913 78.9217072,5 C70.9292339,5 65.2873717,10.5579278 65.2873717,16.3473956 L65.2873717,16.3473768 Z" id="Shape" fill="#000000"></path>
                <path d="M8.05167307,30.2586536 C6.39395413,32.1207121 3.5522053,32.1207121 1.42087441,30.2586536 C-0.473624804,28.3965952 -0.473624804,25.6034443 1.42087441,23.7413985 L12.5511344,13.0345245 L15.3928768,15.8276058 L4.26261681,26.7672751 L5.2099371,27.4655091 L16.3401328,16.525903 L19.1818752,19.5517796 L8.05167949,30.2586536 L8.05167307,30.2586536 Z M16.8137448,23.5086033 C18.708244,21.87934 21.5500571,21.87934 23.4445434,23.5086033 C25.3390427,25.3707312 25.3390427,28.3966078 23.4445434,30.2586536 L12.5511344,40.9655276 L9.47254105,38.1724463 L20.602801,27.232777 L19.6555514,26.3017478 L8.76207814,37.2413539 L5.68355547,34.4482725 L16.8137512,23.5086033 L16.8137448,23.5086033 Z M31.0226174,46.086201 C32.9171166,47.7155338 32.9171166,50.7414103 31.0226174,52.6034562 C29.1281182,54.4655146 26.2863051,54.4655146 24.3918188,52.6034562 L13.2615588,41.8965821 L16.3401521,38.8707056 L27.2335611,49.8103748 L28.1808108,48.8793456 L17.050615,38.1724715 L20.1292084,35.146595 L31.0226174,46.086201 Z M24.1550321,37.474168 C22.2604622,35.8448353 22.2604622,32.8189587 24.1550321,30.9569129 C26.0495313,29.0948544 29.1281246,29.0948544 31.0226174,30.9569129 L41.9160264,41.8965821 L39.0742841,44.6896635 L27.9440241,33.7500574 L26.9967744,34.6810867 L38.1269702,45.3879607 L35.2852278,48.4138373 L24.1550321,37.474168 Z M38.3638404,30.2586536 C36.4693412,32.1207121 33.6275988,32.1207121 31.7330418,30.2586536 C29.8385425,28.3965952 29.8385425,25.6034443 31.7330418,23.7413985 L42.6264508,13.0345245 L45.4682703,15.8276058 L34.5748613,26.7672751 L35.2852599,27.4655091 L46.4155199,16.525903 L49.4941133,19.5517796 L38.3638533,30.2586536 L38.3638404,30.2586536 Z M46.8891254,23.5086033 C48.7836247,21.87934 51.862218,21.87934 53.7567108,23.5086033 C55.4144297,25.3707312 55.4144297,28.3966078 53.7567108,30.2586536 L42.6264508,40.9655276 L39.7847084,38.1724463 L50.6781174,27.232777 L49.9677188,26.3017478 L39.0743098,37.2413539 L35.9957164,34.4482725 L46.8891254,23.5086033 Z M31.0226174,16.2930889 C32.9171166,18.1551473 32.9171166,21.1810239 31.0226174,22.810344 C29.1281182,24.6724025 26.2863051,24.6724025 24.3918188,22.810344 L13.2615588,12.10347 L16.3401521,9.31031281 L27.2335611,20.01725 L28.1808108,19.3189465 L17.050615,8.37927727 L20.1292084,5.5861959 L31.0226174,16.2930699 L31.0226174,16.2930889 Z M24.1550321,7.91378792 C22.2604622,6.05172946 22.2604622,3.02585289 24.1550321,1.39659595 C26.0495313,-0.465531982 29.1281246,-0.465531982 31.0226174,1.39659595 L41.9160264,12.10347 L39.0742841,14.8965513 L27.9440241,4.18967732 L26.9967744,4.88791135 L38.1269702,15.8275806 L35.2852278,18.6206619 L24.1550321,7.91378792 Z" id="Shape" fill="#000000"></path>
                <path d="M69.4645868,61.6666695 L69.4645868,57.6666886 C69.4645868,56.777739 69.2294993,56.3332973 68.288996,56.3332973 C67.3484927,56.3332973 66.4079193,57.222247 66.4079193,58.7777566 L66.4079193,61.6666695 L65.2323285,61.6666695 L65.2323285,57.6666886 C65.2323285,56.999996 65.2323285,56.3332973 64.0566675,56.3332973 C63.1161642,56.3332973 62.175661,57.222247 62.175661,58.7777566 L62.175661,61.6666695 L61,61.6666695 L61,55.4444261 L62.175661,55.4444261 L62.175661,56.777751 C62.645912,55.8888677 63.351322,55.4444261 64.5269191,55.4444261 C65.937674,55.4444261 66.4079257,56.3333094 66.4079257,56.777751 C66.6430898,56.1111247 67.3484991,55.4444261 68.5240899,55.4444261 C69.9348448,55.4444261 70.6402542,55.8888671 70.6402542,57.4444437 L70.6402542,61.6666695 L69.4645932,61.6666695 L69.4645868,61.6666695 Z M80.0453123,61.8889151 C78.3993997,61.8889151 77.2238089,60.9999618 77.2238089,58.7777535 C77.2238089,56.777736 78.1643122,55.444411 80.5155639,55.444411 C80.9858156,55.444411 81.4560672,55.444411 81.9263188,55.666665 L81.9263188,56.5555483 C81.4560672,56.3332943 80.9858156,56.3332943 80.5155639,56.3332943 C78.8696513,56.3332943 78.3993997,57.2222439 78.3993997,58.5555689 C78.3993997,59.8888939 78.8696513,60.7777772 80.2804062,60.7777772 C80.9858156,60.7777772 81.4560672,60.7777772 81.9263188,60.5555232 L81.9263188,61.444411 C81.4560672,61.6666605 80.750728,61.8889151 80.0453123,61.8889151 L80.0453123,61.8889151 Z M87.3342573,56.5555513 C85.6884085,56.3332973 85.2181568,57.2222439 85.2181568,59.2221952 L85.2181568,61.6666544 L84.0424958,61.6666544 L84.0424958,55.4444231 L84.9829991,55.4444231 C84.9829991,55.8888641 84.9829991,56.3333064 84.7478414,56.999999 L84.9829991,56.999999 C85.2181632,56.1111157 85.9235024,55.2222324 87.3342573,55.4444231 L87.3342573,56.5555573 L87.3342573,56.5555513 Z M91.5665794,56.3332973 C90.6260761,56.3332973 89.6855027,56.99999 89.6855027,58.5555719 C89.6855027,60.1110815 90.390912,60.7777802 91.5665794,60.7777802 C92.5070826,60.7777802 93.4475859,60.1110876 93.4475859,58.5555719 C93.4475859,57.222247 92.9773343,56.3332973 91.5665794,56.3332973 M91.3314153,61.8889145 C89.4504088,61.8889145 88.2747542,60.7777802 88.2747542,58.5555719 C88.2747542,56.777739 89.4504088,55.444414 91.5665858,55.444414 C93.4475923,55.444414 94.6232469,56.3332973 94.6232469,58.5555719 C94.6232469,60.3333385 93.4475923,61.8889145 91.3314153,61.8889145 Z M97.9149892,61.8889145 C97.4447439,61.8889145 96.7393282,61.8889145 96.5042343,61.6666605 L96.5042343,60.7777772 C96.9744859,60.7777772 97.4447375,60.9999642 98.1500767,60.9999642 C98.8554861,60.9999642 99.5609082,60.5555232 99.5609082,59.8888963 C99.5609082,58.5555713 96.2690702,59.4444552 96.2690702,57.2222524 C96.2690702,56.1111181 97.2095798,55.4444194 99.0905736,55.4444194 L100.501405,55.4444194 L100.266241,56.3333027 C100.031153,56.3333027 99.3257377,56.1111157 98.8554861,56.1111157 C98.1500767,56.1111157 97.6798251,56.5555567 97.6798251,57.22225 C97.6798251,58.5555749 100.736493,57.666691 100.736493,59.8888939 C100.736493,60.9999618 99.7959893,61.8889145 97.9149892,61.8889145 L97.9149892,61.8889145 Z M105.203928,62.3333555 C104.498589,64.3333074 103.793173,65 102.382424,65 C102.147267,65 101.677015,64.777743 101.441921,64.777743 L101.441921,63.8888597 L102.382424,63.8888597 C103.087764,63.8888597 103.558015,63.666675 104.028337,62.3333525 L104.498589,61.6666599 L101.912173,55.4444285 L103.087764,55.4444285 L104.498589,58.777771 C104.733682,59.2222121 104.96884,59.6666543 104.96884,60.333347 C105.203934,59.8889059 105.439092,59.000022 105.674179,58.3333294 L106.84984,55.4444285 L108.025431,55.4444285 L105.203928,62.3333706 L105.203928,62.3333555 Z M110.611853,61.8889145 C110.141608,61.8889145 109.436269,61.8889145 109.201099,61.6666605 L109.201099,60.7777772 C109.67135,60.7777772 110.141608,60.9999642 110.847011,60.9999642 C111.787514,60.9999642 112.257766,60.5555232 112.257766,59.8888963 C112.257766,58.5555713 109.201099,59.4444552 109.201099,57.2222524 C109.201099,56.1111181 109.906508,55.4444194 111.787514,55.4444194 L112.963105,55.4444194 L112.963105,56.3333027 C112.728018,56.3333027 112.022602,56.1111157 111.787514,56.1111157 C110.847011,56.1111157 110.376759,56.5555567 110.376759,57.22225 C110.376759,58.5555749 113.433427,57.666691 113.433427,59.8888939 C113.433427,60.9999618 112.492854,61.8889145 110.611847,61.8889145 L110.611853,61.8889145 Z M117.665692,61.8889265 C116.254937,61.8889265 115.784685,61.2222148 115.784685,59.8888969 L115.784685,56.3333034 L114.37393,56.3333034 L114.37393,55.44442 L115.784685,55.44442 L115.784685,53.4444688 L117.19544,53.2222148 L117.19544,55.4444231 L118.841359,55.4444231 L118.841359,56.3333064 L117.19544,56.3333064 L117.19544,59.4444643 C117.19544,60.5555322 117.19544,60.7777892 118.13595,60.7777892 L118.841359,60.7777892 L118.841359,61.6666725 C118.606195,61.6666725 118.13595,61.8889265 117.665698,61.8889265 L117.665692,61.8889265 Z M123.308775,56.1111127 C122.368202,56.1111127 121.89795,56.777739 121.662862,57.6666886 L124.954618,57.6666886 C124.954618,56.777739 124.249278,56.1111127 123.308775,56.1111127 M126.130278,58.5555719 L121.662856,58.5555719 C121.427698,60.1110815 122.368195,60.9999648 123.77902,60.9999648 C124.484359,60.9999648 125.189782,60.7777778 125.660027,60.5555238 L125.895121,61.4444152 C125.189782,61.6666611 124.484366,61.8889157 123.543863,61.8889157 C121.427698,61.8889157 120.252108,60.7777814 120.252108,58.5555731 C120.252108,56.7777402 121.427698,55.4444152 123.308775,55.4444152 C125.424869,55.4444152 126.130278,56.5555495 126.130278,57.8888745 L126.130278,58.5555671 L126.130278,58.5555719 Z M136.475904,61.6666695 L136.475904,57.6666886 C136.475904,56.777739 136.240746,56.3332973 135.300243,56.3332973 C134.359739,56.3332973 133.419236,57.222247 133.419236,58.7777566 L133.419236,61.6666695 L132.243652,61.6666695 L132.243652,57.6666886 C132.243652,56.999996 132.008488,56.3332973 131.067991,56.3332973 C130.127488,56.3332973 129.186984,57.222247 129.186984,58.7777566 L129.186984,61.6666695 L128.011323,61.6666695 L128.011323,55.4444261 L129.186984,55.4444261 C129.186984,55.8888671 129.186984,56.3333094 128.95182,56.777751 C129.422072,55.8888677 130.362575,55.4444261 131.303078,55.4444261 C132.948991,55.4444261 133.184155,56.3333094 133.419243,56.777751 C133.419243,56.1111247 134.359746,55.4444261 135.535407,55.4444261 C136.946162,55.4444261 137.651571,55.8888671 137.651571,57.4444437 L137.651571,61.6666695 L136.47591,61.6666695 L136.475904,61.6666695 Z M141.178414,61.8889114 C140.473074,61.8889114 140.002823,61.8889114 139.532571,61.6666575 L139.532571,60.7777741 C140.002823,60.7777741 140.708162,60.9999612 141.178414,60.9999612 C141.883823,60.9999612 142.589239,60.5555202 142.589239,59.8888933 C142.589239,58.5555683 139.532571,59.4444522 139.532571,57.2222494 C139.532571,56.1111151 140.473081,55.4444164 142.118993,55.4444164 L143.529748,55.4444164 L143.529748,56.3332997 C143.059497,56.3332997 142.589239,56.1111127 142.118993,56.1111127 C141.17842,56.1111127 140.708162,56.5555537 140.708162,57.222247 C140.708162,58.5555719 144,57.666688 144,59.8888908 C144,60.9999588 142.824339,61.8889114 141.178414,61.8889114 L141.178414,61.8889114 Z M74.1674923,54.3333189 C74.6377439,54.3333189 75.1079956,54.1110649 75.1079956,53.6666263 C75.1079956,53.2221853 74.6377503,53 74.1674923,53 C73.697247,53 73.226989,53.2221871 73.226989,53.6666263 C73.226989,54.1110674 73.6972407,54.3333189 74.1674923,54.3333189 Z M72.5215733,55.4443869 L72.5215733,56.3332702 L73.6972407,56.3332702 L73.6972407,61.6666303 L74.8728315,61.6666303 L74.8728315,55.4443869 L72.5215733,55.4443869 L72.5215733,55.4443869 Z" id="Shape" fill="#000000"></path>
                <path d="M149.000035,45.7999674 C149.2,45.7999674 149.599994,45.7999674 149.599994,45.3999669 C149.599994,45.1999973 149.2,44.9999674 149.000035,44.9999674 L148.600041,44.9999674 L148.600041,45.7999674 L149.000035,45.7999674 M148.600041,46.9999674 L148.200047,46.9999674 L148.200047,44.8 L149.2,44.8 C149.599994,44.8 149.800018,44.9999696 149.800018,45.3999674 C149.800018,45.7999669 149.599994,45.9999946 149.2,45.9999946 L149.999988,46.9999674 L149.599994,46.9999674 L149.000035,45.9999946 L148.600041,45.9999946 L148.600041,46.9999674 L148.600041,46.9999674 Z M147.400059,46 C147.400059,46.8 148.000018,47.6 149.000035,47.6 C149.999988,47.6 150.600011,46.8 150.600011,46 C150.600011,44.9999729 149.999993,44.1999729 149.000035,44.1999729 C148.000023,44.1999729 147.400059,44.9999729 147.400059,46 L147.400059,46 Z M151,46 C151,46.9999674 149.999988,48 149.00003,48 C147.800048,48 147,46.9999729 147,46 C147,44.8 147.800048,44 149.00003,44 C149.999982,44 151,44.8 151,46 Z" id="Shape" fill="#FFFFFF"></path>
            </g>
        </g>
    </g>
</svg>