<svg height="269.1496" width="612.56689" xmlns="http://www.w3.org/2000/svg"><g fill="#5583a3" transform="matrix(2.567007 0 0 2.567007 -1.7572 -1.5362)"><path d="m226.14 28.1466c-9.58203 0-20.2698 15.4788-23.5866 20.6383 0 .737079-.3686.368595 0 0 1.47416-6.26523 3.3168-11.7934 3.3168-15.8473 0-2.57983-1.10556-5.15967-4.05388-5.15967-7.00231 0-16.5844 13.6361-16.5844 16.9529 0 .737079 0 1.10567.73708 1.10567s1.84275-2.21124 3.6854-4.79107c2.21124-2.57983 5.15967-6.26523 7.00231-6.26523 0 0 .36859 0 .36859 1.10567 0 4.42247-8.47647 28.0092-12.162 39.8025-.36848 1.10567.3686 1.47427 4.42259 1.47427 2.57972 0 4.05388.368484 4.42247-1.47427 2.21124-8.10787 6.26523-16.9529 10.6877-24.6923 4.05399-7.00231 12.8991-17.3214 17.69-17.3214 1.47427 0 1.84275.737079 1.84275 2.57972 0 4.79107-12.5305 28.7463-12.5305 37.9599.3686 2.57983 1.47416 4.42259 4.79107 4.42259 7.3709 0 14.0046-10.6878 17.3215-16.2159.36849-1.10567 1.10556-1.84275.36849-2.94843-.36849-.368484-.36849-.737079-1.10556-.737079-.3686 0-.73708.368595-.73708.737079-2.21135 3.68551-6.63382 11.7934-9.95073 11.7934-.36849 0-.73708-.368484-.73708-1.10556 0-3.68551 11.0563-26.9037 11.0563-34.6431 0-5.52815-2.94832-7.37079-6.26523-7.37079m-91.7671 17.69c0 .368484.73719.737079 1.10567.737079 1.47416 0 2.21124-2.57983 5.15955-6.63371 1.84275-2.94843 4.05399-4.79107 5.52815-4.79107.73708 0 1.10567.737079 1.10567 1.10556 0 2.94832-11.4248 27.2721-11.4248 36.4857 0 2.94832 1.10556 5.89674 4.79096 5.89674 8.47647 0 18.0586-11.4249 25.0609-21.3755.3686-.368484.3686-.368484.3686.368595-1.47416 4.05399-3.68551 11.7934-3.68551 16.5843 0 2.21135.73707 4.42259 4.05399 4.42259 7.3709 0 17.69-15.1103 17.69-18.7957 0-.737079 0-1.10567-.73708-1.10567-1.47416 0-1.84264 1.84275-2.94832 4.05399-2.57983 3.6854-6.63371 8.84506-8.47647 8.84506-.73708 0-.73708-.737079-.73708-1.47416 0-5.15967 12.5305-38.3284 12.5305-39.4341 0-.737079-.3686-1.10556-1.47416-1.10556-.73708 0-1.84275-.368595-3.68551-.368595-3.3168 0-3.6854.737079-4.05388 1.10567-1.47416 3.31691-4.05399 13.2675-8.47647 21.744-6.63382 11.4248-15.4788 20.2698-19.1643 20.2698-1.47416 0-2.21124-1.10567-2.21124-2.57983 0-4.79107 12.1619-30.9575 12.1619-37.2228 0-1.47416-.73708-4.42247-4.42247-4.42247-9.58203 0-18.0586 15.8473-18.0586 17.69zm-29.8519-18.7957c-.3686 15.4788 16.5844 22.4811 16.5844 36.1172 0 3.6854-2.94843 13.2675-12.8991 12.8989-4.79107 0-9.58203-3.31691-9.21354-11.7934v-5.89663c-.368484-.737079-.368484-1.10567-.737079-1.84275-.368595 0-.737079-.368484-1.10567 0-1.10556.368595-1.47416 1.47416-1.47416 2.21124-.737079 2.57983-1.47416 5.15967-1.84264 7.73939 0 .368595.368484.368595 0 .368595-.368595 1.84264-.737079 3.6854-.737079 5.89663 0 1.10567.737079 1.84275 1.84264 2.57983 3.31691 2.21124 8.107978 3.31691 13.267498 3.6854 12.8991 0 23.2182-11.0563 23.5868-21.744 0-8.84495-4.79107-13.636-10.3192-20.2698-2.57983-3.3168-8.10787-8.10787-7.73939-14.3731 0-4.79107 4.05399-10.6877 11.4248-10.3192 9.95073 0 8.47647 10.6877 8.47647 15.4788 0 .737079 0 1.10567.73708 1.47416.3686.368595.73719.368595 1.47427.368595 0-.368595.36848-.737079.73708-1.10567l2.21124-9.21354c.36848-1.84264 1.10556-3.31691 1.10556-5.52815 0-.368484 0-.737079-.73708-1.47416-5.52815-2.57983-8.47647-2.94832-13.2675-3.31691-12.5303 0-21.3754 8.84506-21.3754 18.0586z"/><path d="m14.5969 49.8906c-2.57983 2.94832-7.00231 2.94832-10.3192 0-2.94832-2.94832-2.94832-7.3709 0-10.3192l17.3215-16.9529 4.42247 4.42247-17.3215 17.3215 1.47427 1.10556 17.3214-17.3214 4.42247 4.79107-17.3214 16.9529zm13.636-10.6878c2.94832-2.57972 7.3709-2.57972 10.3192 0 2.94832 2.94843 2.94832 7.7395 0 10.6878l-16.9529 16.9529-4.79107-4.42247 17.3215-17.3215-1.47416-1.47416-16.953 17.3214-4.79096-4.42247 17.3214-17.3215zm22.1126 35.7486c2.94832 2.57983 2.94832 7.3709 0 10.3192-2.94832 2.94832-7.3709 2.94832-10.3192 0l-17.3215-16.9529 4.79107-4.79107 16.9529 17.3215 1.47416-1.47416-17.3214-16.9529 4.79107-4.79107zm-10.6877-13.636c-2.94843-2.57983-2.94843-7.3709 0-10.3192 2.94832-2.94832 7.73939-2.94832 10.6877 0l16.9529 17.3215-4.42247 4.42247-17.3215-17.3214-1.47416 1.47416 17.3214 16.9529-4.42247 4.79107zm22.1125-11.4248c-2.94832 2.94832-7.37079 2.94832-10.3192 0-2.94832-2.94832-2.94832-7.3709 0-10.3192l16.9529-16.9529 4.42259 4.42247-16.9529 17.3215 1.10556 1.10556 17.3215-17.3214 4.79107 4.79107-17.3215 16.9529zm13.2675-10.6878c2.94832-2.57972 7.73939-2.57972 10.6877 0 2.57983 2.94843 2.57983 7.7395 0 10.6878l-17.3215 16.9529-4.42247-4.42247 16.9529-17.3215-1.10556-1.47416-16.9529 17.3214-4.79107-4.42247zm-24.6923-11.4248c2.94832 2.94832 2.94832 7.73939 0 10.3192-2.94832 2.94832-7.3709 2.94832-10.3192 0l-17.3215-16.9529 4.79107-4.42259 16.9529 16.953 1.47416-1.10567-17.3214-17.3215 4.79107-4.42247 16.9529 16.9529zm-10.6877-13.2675c-2.94843-2.94832-2.94843-7.73939 0-10.3191 2.94832-2.94843 7.73939-2.94843 10.6877 0l16.9529 16.9529-4.42247 4.42247-17.3215-16.9529-1.47416 1.10556 17.3214 17.3215-4.42247 4.42247z"/><path d="m110.418 98.5382v-6.63371c0-1.47427-.36848-2.21135-1.84264-2.21135s-2.94843 1.47427-2.94843 4.05399v4.79107h-1.84264v-6.63371c0-1.10567 0-2.21135-1.84275-2.21135-1.47416 0-2.94832 1.47427-2.94832 4.05399v4.79107h-1.84275v-10.3192h1.84275v2.21124c.737079-1.47416 1.84275-2.21124 3.6854-2.21124 2.21124 0 2.94832 1.47416 2.94832 2.21124.3686-1.10556 1.47427-2.21124 3.31691-2.21124 2.21124 0 3.31691.737079 3.31691 3.31691v7.00231h-1.84275zm16.5844.368595c-2.57983 0-4.42247-1.47427-4.42247-5.15967 0-3.31691 1.47416-5.52815 5.15955-5.52815.73708 0 1.47416 0 2.21124.368595v1.47416c-.73708-.368595-1.47416-.368595-2.21124-.368595-2.57983 0-3.31691 1.47427-3.31691 3.68551s.73708 3.6854 2.94832 3.6854c1.10567 0 1.84275 0 2.57983-.368595v1.47416c-.73708.368595-1.84264.737191-2.94832.737191zm11.4248-8.84506c-2.57972-.368595-3.3168 1.10567-3.3168 4.42247v4.05399h-1.84275v-10.3192h1.47416c0 .737079 0 1.47416-.36859 2.57983h.36859c.3686-1.47416 1.47416-2.94832 3.6854-2.57983v1.84275zm6.63382-.368595c-1.47416 0-2.94843 1.10567-2.94843 3.68551 0 2.57972 1.10567 3.6854 2.94843 3.6854 1.47416 0 2.94832-1.10567 2.94832-3.6854 0-2.21124-.73708-3.68551-2.94832-3.68551m-.3686 9.21366c-2.94832 0-4.79106-1.84275-4.79106-5.52815 0-2.94843 1.84274-5.15967 5.15967-5.15967 2.94832 0 4.79106 1.47416 4.79106 5.15967 0 2.94832-1.84274 5.52815-5.15967 5.52815zm10.3192 0c-.73707 0-1.84275 0-2.21124-.368595v-1.47416c.73708 0 1.47416.368484 2.57972.368484 1.10567 0 2.21136-.737079 2.21136-1.84264 0-2.21124-5.15968-.737079-5.15968-4.42247 0-1.84275 1.47417-2.94843 4.42247-2.94843h2.21136l-.3686 1.47416c-.36848 0-1.47416-.368484-2.21124-.368484-1.10567 0-1.84275.737079-1.84275 1.84275 0 2.21124 4.79107.737079 4.79107 4.42247 0 1.84264-1.47416 3.31691-4.42247 3.31691zm11.4248.737079c-1.10556 3.316801-2.21124 4.422471-4.42247 4.422471-.36859 0-1.10567-.3686-1.47416-.3686v-1.47416h1.47416c1.10556 0 1.84264-.36848 2.57983-2.579716l.73708-1.10567-4.05399-10.3192h1.84264l2.21135 5.52815c.36849.737079.73708 1.47416.73708 2.57983.36849-.737079.73708-2.21124 1.10556-3.31691l1.84275-4.79107h1.84264l-4.42247 11.4249zm8.47647-.737079c-.73707 0-1.84263 0-2.21124-.368595v-1.47416c.73708 0 1.47417.368484 2.57983.368484 1.47416 0 2.21124-.737079 2.21124-1.84264 0-2.21124-4.79107-.737079-4.79107-4.42247 0-1.84275 1.10567-2.94843 4.05399-2.94843h1.84264v1.47416c-.36848 0-1.47416-.368484-1.84264-.368484-1.47416 0-2.21124.737079-2.21124 1.84275 0 2.21124 4.79107.737079 4.79107 4.42247 0 1.84264-1.47427 3.31691-4.42259 3.31691zm11.0563 0c-2.21124 0-2.94832-1.10567-2.94832-3.31691v-5.89674h-2.21124v-1.47416h2.21124v-3.3168l2.21124-.368595v3.6854h2.57983v1.47416h-2.57983v5.15967c0 1.84264 0 2.21124 1.47417 2.21124h1.10567v1.47416c-.3686 0-1.10567.368595-1.84275.368595zm8.84506-9.58214c-1.47427 0-2.21135 1.10556-2.57983 2.57983h5.15955c0-1.47427-1.10556-2.57983-2.57972-2.57983m4.42247 4.05399h-7.00231c-.36859 2.57972 1.10556 4.05388 3.31691 4.05388 1.10556 0 2.21125-.368484 2.94832-.737079l.36849 1.47416c-1.10556.368595-2.21124.737191-3.6854.737191-3.31691 0-5.15955-1.84275-5.15955-5.52815 0-2.94843 1.84264-5.15967 4.79107-5.15967 3.3168 0 4.42247 1.84275 4.42247 4.05399v1.10567zm16.2159 5.15955v-6.63371c0-1.47427-.36859-2.21135-1.84275-2.21135s-2.94832 1.47427-2.94832 4.05399v4.79107h-1.84263v-6.63371c0-1.10567-.3686-2.21135-1.84275-2.21135-1.47416 0-2.94832 1.47427-2.94832 4.05399v4.79107h-1.84275v-10.3192h1.84275c0 .737079 0 1.47416-.3686 2.21124.73708-1.47416 2.21124-2.21124 3.6854-2.21124 2.57983 0 2.94843 1.47416 3.31691 2.21124 0-1.10556 1.47416-2.21124 3.31691-2.21124 2.21124 0 3.31691.737079 3.31691 3.31691v7.00231h-1.84275zm7.37079.368595c-1.10556 0-1.84264 0-2.57972-.368595v-1.47416c.73708 0 1.84264.368484 2.57972.368484 1.10567 0 2.21135-.737079 2.21135-1.84264 0-2.21124-4.79106-.737079-4.79106-4.42247 0-1.84275 1.47416-2.94843 4.05399-2.94843h2.21124v1.47416c-.73708 0-1.47417-.368484-2.21124-.368484-1.47427 0-2.21136.737079-2.21136 1.84275 0 2.21124 5.15968.737079 5.15968 4.42247 0 1.84264-1.84275 3.31691-4.4226 3.31691zm-105.034-12.5305c.73708 0 1.47416-.368595 1.47416-1.10567 0-.737079-.73707-1.10556-1.47416-1.10556-.73707 0-1.47416.368484-1.47416 1.10556 0 .737079.73708 1.10567 1.47416 1.10567zm-2.57983 1.84264v1.47416h1.84275v8.84506h1.84264v-10.3192h-3.6854z"/><path d="m234.248 73.4773c.36848 0 1.10556 0 1.10556-.737079 0-.368484-.73708-.737079-1.10556-.737079h-.73708v1.47416h.73708m-.73708 2.21124h-.73708v-4.05388h1.84264c.73708 0 1.10567.368484 1.10567 1.10556 0 .737079-.36859 1.10567-1.10567 1.10567l1.47416 1.84264h-.73708l-1.10556-1.84264h-.73708v1.84264zm-2.21124-1.84264c0 1.47416 1.10556 2.94832 2.94832 2.94832 1.84264 0 2.94832-1.47416 2.94832-2.94832 0-1.84275-1.10567-3.31691-2.94832-3.31691-1.84275 0-2.94832 1.47416-2.94832 3.31691zm6.63371 0c0 1.84264-1.84275 3.6854-3.6854 3.6854-2.21124 0-3.68551-1.84275-3.68551-3.6854 0-2.21124 1.47427-3.6854 3.68551-3.6854 1.84264 0 3.6854 1.47416 3.6854 3.6854z"/></g></svg>