<svg height="240" viewBox="-1.3600875 -1.3600875 205.174765 48.056425" width="1024" xmlns="http://www.w3.org/2000/svg" xmlns:xlink="http://www.w3.org/1999/xlink"><clipPath id="a"><path d="m392.314 16.466h179.453v69.345h-179.453z"/></clipPath><linearGradient id="b"><stop offset="0" stop-color="#f79210"/><stop offset=".5" stop-color="#f35c19"/><stop offset="1" stop-color="#f79210"/></linearGradient><linearGradient id="c" gradientTransform="matrix(-10.472366 -5.6944885 -5.6531982 10.548828 427.01743 51.292908)" gradientUnits="userSpaceOnUse" spreadMethod="pad" x1="0" x2="1" xlink:href="#b" y1="0" y2="0"/><linearGradient id="d" gradientTransform="matrix(-15.375839 4.5487671 4.5157928 15.488113 429.46941 46.169586)" gradientUnits="userSpaceOnUse" spreadMethod="pad" x1="0" x2="1" xlink:href="#b" y1="0" y2="0"/><linearGradient id="e" gradientTransform="matrix(-15.073257 15.183334 15.073257 15.183334 429.31879 40.854889)" gradientUnits="userSpaceOnUse" spreadMethod="pad" x1="0" x2="1" xlink:href="#b" y1="0" y2="0"/><linearGradient id="f" gradientTransform="matrix(-11.135727 26.004806 25.816284 11.217026 427.34856 35.439804)" gradientUnits="userSpaceOnUse" spreadMethod="pad" x1="0" x2="1" xlink:href="#b" y1="0" y2="0"/><linearGradient id="g" gradientTransform="matrix(0 36.271317 36.008377 0 421.77983 30.308243)" gradientUnits="userSpaceOnUse" spreadMethod="pad" x1="0" x2="1" xlink:href="#b" y1="0" y2="0"/><g clip-path="url(#a)" transform="matrix(1.25 0 0 -1.25 -503.275 83.22375)"><path d="m0 0c0 1.888.07 1.938 1.777 1.938h5.703c.242 0 .448.203.448.45v1.438c0 .318-.114.431-.448.474-.724.114-2.189.315-4.867.315-3.744 0-5.723.026-5.723-4.615v-7.125c0-4.64 1.979-4.613 5.723-4.613 2.678 0 4.143.203 4.867.313.334.043.448.158.448.475v1.438c0 .246-.206.452-.448.452h-5.703c-1.707 0-1.777.051-1.777 1.935v2.065h7.207c.25 0 .447.205.447.449v1.626c0 .245-.197.448-.447.448h-7.207zm33.303 4.626c-1.991 0-4.008-.343-5.09-.592-.223-.045-.428-.2-.428-.448v-1.622c0-.246.205-.429.428-.429h.045c.902.113 3.009.407 5.091.407 2.002 0 2.616-.717 2.616-2.023 0-1.689-4.032-2.623-6-3.435-1.959-.809-2.653-2.362-2.653-3.936 0-2.479 1.994-4.279 6.182-4.279 2.146 0 4.111.408 4.877.591.226.044.404.202.404.426v1.667c0 .223-.154.405-.383.405h-.043c-1.488-.134-3.029-.409-4.986-.409-1.67 0-2.918.586-2.918 1.599 0 .741.846 1.422 1.846 1.819 1 .394 2.31.905 3.808 1.507 1.897.768 3.127 1.885 3.127 4.045 0 2.273-1.418 4.707-5.923 4.707m-11.973-11.276c0-1.689-1.311-2.41-3.567-2.41-.47 0-2.519.045-2.925.09v4.883c.365.023 2.549.068 2.925.068 2.325 0 3.567-.447 3.567-2.427zm3.379 11.087h-2.75c-.248 0-.336-.229-.447-.451l-3.247-5.461h-.502c-.582 0-2.404-.064-2.925-.09v5.551c0 .246-.178.451-.424.451h-2.25c-.248 0-.451-.205-.451-.451v-14.758c0-.452.267-.61.718-.675 1.17-.18 3.692-.291 5.332-.291 3.471 0 6.672 1.239 6.672 5.088v.204c0 2.383-1.195 3.689-3.041 4.406l3.539 6.026c.045.068.045.132.045.182 0 .154-.091.269-.269.269m-30.582-13.386h-4.492v12.935c0 .246-.207.451-.456.451h-2.228c-.248 0-.451-.205-.451-.451v-12.935h-4.496c-.244 0-.448-.155-.448-.404v-1.779c0-.25.204-.428.448-.428h12.123c.244 0 .447.178.447.428v1.779c0 .249-.203.404-.447.404m-21.557 13.564c-3.623 0-6.744-1.576-6.744-6.375v-9.372c0-.25.205-.428.453-.428h2.225c.25 0 .451.178.451.428v9.372c0 2.569 1.187 3.786 3.615 3.786 2.434 0 3.619-1.217 3.619-3.786v-9.372c0-.25.201-.428.449-.428h2.229c.25 0 .453.178.453.428v9.372c0 4.799-3.123 6.375-6.75 6.375m-18.039-4.615c0 1.888.072 1.938 1.775 1.938h5.702c.248 0 .451.203.451.45v1.438c0 .318-.114.431-.451.474-.721.114-2.188.315-4.866.315-3.738 0-5.72.026-5.72-4.615v-7.125c0-4.64 1.982-4.613 5.72-4.613 2.678 0 4.145.203 4.866.313.337.043.451.158.451.475v1.438c0 .246-.203.452-.451.452h-5.702c-1.703 0-1.775.051-1.775 1.935v2.065h7.207c.248 0 .451.205.451.449v1.626c0 .245-.203.448-.451.448h-7.207zm-9.652-6.65c0-1.689-1.311-2.41-3.563-2.41-.474 0-2.523.045-2.926.09v4.883c.358.023 2.539.068 2.926.068 2.317 0 3.563-.447 3.563-2.427zm3.379 11.087h-2.75c-.246 0-.338-.229-.45-.451l-3.244-5.461h-.498c-.588 0-2.408-.064-2.926-.09v5.551c0 .246-.181.451-.429.451h-2.252c-.246 0-.449-.205-.449-.451v-14.758c0-.452.267-.61.72-.675 1.172-.18 3.69-.291 5.336-.291 3.467 0 6.67 1.239 6.67 5.088v.204c0 2.383-1.193 3.689-3.039 4.406l3.533 6.026c.047.068.047.132.047.182 0 .154-.09.269-.269.269m-43.754-9.151c0-2.972-1.797-4.301-4.004-4.301s-4.004 1.329-4.004 4.301v2.304c0 2.973 1.797 4.3 4.004 4.3s4.004-1.327 4.004-4.3zm-4.004 9.329c-3.715 0-7.155-2.071-7.155-7.025v-2.304c0-4.953 3.44-7.024 7.155-7.024s7.154 2.071 7.154 7.024v2.304c0 4.954-3.439 7.025-7.154 7.025m-15.918.011c-1.988 0-4.008-.343-5.09-.592-.225-.045-.428-.2-.428-.448v-1.622c0-.246.203-.429.428-.429h.045c.9.113 3.008.407 5.09.407 2.006 0 2.613-.717 2.613-2.023 0-1.689-4.025-2.623-5.992-3.435-1.963-.809-2.656-2.362-2.656-3.936 0-2.479 1.996-4.279 6.183-4.279 2.147 0 4.112.408 4.875.591.227.044.404.202.404.426v1.667c0 .223-.156.405-.38.405h-.045c-1.489-.134-3.03-.409-4.991-.409-1.662 0-2.916.586-2.916 1.599 0 .741.848 1.424 1.844 1.819 1 .394 2.315.905 3.811 1.507 1.902.768 3.131 1.885 3.131 4.045 0 2.273-1.418 4.707-5.926 4.707m39.422-.189h-2.278c-.541 0-1.015 0-1.369-.81l-6.109-10.232c-.065-.134-.135-.183-.201-.183-.065 0-.114.049-.114.183v10.591c0 .246-.181.451-.429.451h-1.91c-.252 0-.45-.205-.45-.451v-14.646c0-.496.401-.9.897-.9h2.433c.473 0 .719.135.993.724l6.351 10.836c.043.11.11.181.18.181.045 0 .109-.071.109-.204v-11.109c0-.25.18-.428.43-.428h1.937c.248 0 .43.178.43.428v14.667c0 .497-.406.902-.9.902m-49.466 0h-2.275c-.201 0-.357-.229-.357-.451v-9.737c0-.157-.024-.224-.073-.224-.017 0-.063.067-.111.134l-3.636 8.052c-.133.245-.424.384-.716.384h-1.171c-.293 0-.586-.139-.718-.384l-3.66-8.052c-.047-.067-.094-.134-.113-.134-.045 0-.069.067-.069.224v9.737c0 .222-.158.451-.361.451h-2.272c-.204 0-.386-.115-.386-.338v-14.759c0-.496.407-.9.902-.9h1.847c.358 0 .675.224.833.54l4.321 8.797c.111.202.158.315.252.315.088 0 .133-.113.247-.315l4.318-8.797c.158-.316.476-.54.834-.54h1.848c.495 0 .9.404.9.9v14.759c0 .223-.181.338-.384.338m-22.558-9.151c0-2.972-1.795-4.301-4.003-4.301-2.206 0-4.003 1.329-4.003 4.301v2.304c0 2.973 1.797 4.3 4.003 4.3 2.208 0 4.003-1.327 4.003-4.3zm-4.003 9.329c-3.715 0-7.154-2.071-7.154-7.025v-2.304c0-4.953 3.439-7.024 7.154-7.024 3.717 0 7.158 2.071 7.158 7.024v2.304c0 4.954-3.441 7.025-7.158 7.025m-11.16-.178h-2.227c-.251 0-.455-.205-.455-.451v-6.523h-7.133v6.523c0 .246-.202.451-.446.451h-2.231c-.25 0-.452-.205-.452-.451v-15.118c0-.25.202-.428.452-.428h2.231c.244 0 .446.178.446.428v5.848h7.133v-5.848c0-.25.204-.428.455-.428h2.227c.245 0 .449.178.449.428v15.118c0 .246-.204.451-.449.451m-16.248-13.386h-4.493v12.935c0 .246-.202.451-.453.451h-2.225c-.248 0-.45-.205-.45-.451v-12.935h-4.498c-.247 0-.451-.155-.451-.404v-1.779c0-.25.204-.428.451-.428h12.119c.248 0 .451.178.451.428v1.779c0 .249-.203.404-.451.404" fill="#827f80" transform="matrix(.5001221 0 0 -.5037689 544.96588833879 46.65418507536)"/></g><path d="m420.463 54.569c-.322-.175-.437-.583-.267-.904.171-.329.578-.446.9-.274.322.178.44.582.268.909-.118.222-.348.35-.585.35-.107 0-.216-.026-.316-.081m1.783-.028c-.288-.154-.39-.513-.239-.803.152-.288.509-.396.794-.238.292.157.394.515.242.804-.103.197-.305.312-.515.312-.095 0-.192-.025-.282-.075m-3.475-.478c-.364-.199-.502-.659-.302-1.024.198-.367.652-.51 1.021-.31.365.199.498.659.302 1.024-.135.256-.395.402-.664.402-.12 0-.243-.03-.357-.092m5.186-.084c-.252-.141-.349-.46-.214-.71.135-.252.455-.345.698-.207.256.137.348.452.21.703-.091.176-.271.275-.456.275-.081 0-.163-.02-.238-.061m-6.528-1.06c-.327-.18-.447-.579-.271-.91.176-.322.572-.443.895-.268.328.175.447.583.273.904-.119.225-.35.355-.586.355-.106 0-.213-.026-.311-.081m8-.008c-.219-.121-.298-.39-.184-.605.116-.215.383-.294.604-.183.213.122.297.391.18.608-.082.149-.235.235-.391.235-.071 0-.142-.018-.209-.055m1.088-1.46c-.172-.101-.243-.332-.144-.508.096-.181.321-.246.495-.15.181.097.248.319.15.5-.068.128-.196.199-.33.199-.057 0-.116-.013-.171-.041m-10.046-.047c-.286-.157-.392-.519-.242-.806.158-.286.515-.397.8-.239.287.153.397.515.242.805-.109.197-.313.31-.522.31-.094 0-.189-.023-.278-.07m10.6-1.551c-.219-.115-.301-.39-.182-.606.112-.216.386-.296.593-.185.218.127.301.398.187.612-.081.149-.234.233-.39.233-.071 0-.143-.018-.208-.054m-11.068-.204c-.248-.134-.34-.45-.207-.7.138-.255.449-.348.701-.212.249.137.344.457.209.705-.093.174-.269.273-.452.273-.085 0-.171-.022-.251-.066m11.07-1.49c-.252-.14-.341-.452-.211-.709.133-.248.455-.339.703-.206.251.137.341.453.205.704-.092.175-.267.273-.451.273-.083 0-.166-.021-.246-.062m-10.996-.33c-.212-.119-.292-.392-.176-.607.118-.219.387-.295.598-.175.215.11.302.387.18.602-.083.147-.234.233-.392.233-.07 0-.142-.017-.21-.053m10.461-1.289c-.289-.153-.393-.521-.241-.809.157-.286.514-.394.795-.24.294.16.395.517.246.808-.108.198-.311.312-.521.312-.094 0-.19-.022-.279-.071m-9.843-.437c-.18-.095-.245-.321-.148-.507.096-.177.318-.246.501-.151.178.102.245.327.147.507-.067.124-.196.195-.328.195-.058 0-.117-.014-.172-.044m8.816-.948c-.324-.177-.442-.583-.268-.906.17-.325.574-.446.899-.267.322.168.441.581.266.903-.122.222-.35.352-.585.352-.105 0-.212-.026-.312-.082m-7.79-.385c-.216-.114-.296-.388-.18-.603.113-.217.382-.297.597-.177.214.112.295.383.18.6-.078.148-.231.231-.389.231-.071 0-.142-.016-.208-.051m6.355-.606c-.365-.196-.505-.655-.302-1.024.198-.367.654-.502 1.021-.308.363.202.498.664.303 1.023-.136.256-.395.403-.663.403-.121 0-.244-.03-.359-.094m-4.951-.329c-.256-.139-.347-.45-.209-.702.13-.254.445-.351.695-.215.252.143.346.46.211.71-.095.171-.274.27-.455.27-.082 0-.166-.019-.242-.063m3.345-.332c-.324-.173-.437-.577-.26-.906.168-.322.569-.45.893-.267.325.171.441.578.269.902-.122.224-.35.351-.586.351-.107 0-.215-.026-.316-.08m-1.712-.104c-.287-.156-.389-.519-.237-.805.157-.29.514-.398.801-.243.29.152.395.516.24.808-.105.198-.31.308-.522.308-.096 0-.192-.021-.282-.068" fill="url(#c)" transform="matrix(1.25 0 0 -1.25 -503.275 83.22375)"/><path d="m420.756 56.394c-.133-.45.122-.919.569-1.054.447-.133.914.128 1.046.573.134.45-.122.925-.567 1.055-.081.025-.162.036-.242.036-.366 0-.697-.241-.806-.61m2.257-.274c-.149-.52.135-1.058.656-1.212.513-.153 1.05.141 1.199.655.156.522-.138 1.066-.654 1.219-.091.026-.182.039-.272.039-.42 0-.807-.277-.929-.701m-4.523-.198c-.116-.401.113-.819.51-.937.396-.118.815.108.93.511.113.398-.115.818-.508.936-.07.02-.14.03-.209.03-.326 0-.625-.214-.723-.54m6.808-.874c-.133-.449.125-.92.571-1.053.447-.133.915.129 1.046.577.133.449-.122.921-.569 1.054-.079.024-.158.035-.237.035-.366 0-.701-.244-.811-.613m-8.756-.33c-.092-.317.084-.644.399-.738.312-.092.64.09.733.403.091.314-.089.644-.402.738-.055.017-.111.025-.166.025-.256 0-.49-.169-.564-.428m10.586-1.351c-.119-.405.111-.82.506-.938.399-.117.812.115.931.514.119.396-.108.816-.508.932-.07.021-.141.031-.211.031-.321 0-.619-.213-.718-.539m-12.127-.433c-.076-.252.072-.521.324-.594.253-.075.515.07.592.324.078.252-.071.52-.322.598-.043.012-.087.018-.131.018-.209 0-.401-.134-.463-.346m13.428-1.73c-.097-.321.089-.649.399-.741.315-.093.641.087.733.403.092.316-.086.645-.398.736-.056.017-.113.025-.169.025-.256 0-.492-.168-.565-.423m-14.335-.485c-.055-.192.049-.394.239-.449.191-.056.388.055.444.245.055.19-.052.389-.243.447-.034.009-.067.014-.1.014-.154 0-.295-.101-.34-.257m14.887-1.921c-.076-.253.068-.524.324-.597.254-.076.518.071.593.327.073.251-.069.52-.324.597-.044.012-.089.019-.132.019-.209 0-.403-.136-.461-.346m-15.315-.438c-.076-.253.073-.519.325-.595.252-.076.517.067.592.324.076.254-.068.521-.322.598-.044.014-.088.019-.132.019-.207 0-.398-.138-.463-.346m15.121-1.991c-.052-.189.053-.392.24-.445.192-.056.388.052.442.244.058.189-.05.391-.24.447-.032.009-.065.013-.097.013-.153 0-.299-.102-.345-.259m-14.78-.351c-.088-.314.081-.646.399-.738.309-.095.639.089.731.406.091.314-.089.644-.399.731-.058.018-.116.026-.174.026-.254 0-.486-.167-.557-.425m13.641-1.794c-.074-.256.071-.524.32-.596.257-.076.523.071.597.324.073.252-.071.523-.324.599-.044.013-.089.019-.134.019-.207 0-.398-.136-.459-.346m-12.649-.279c-.118-.399.107-.817.506-.937.401-.119.813.111.933.511.117.399-.114.821-.511.94-.07.021-.141.031-.211.031-.323 0-.619-.215-.717-.545m10.892-1.442c-.09-.313.092-.644.402-.738.311-.093.638.089.729.4.095.318-.084.648-.396.74-.057.017-.113.025-.168.025-.256 0-.491-.17-.567-.427m-9.24-.192c-.13-.445.121-.917.57-1.051.448-.13.914.128 1.048.576.128.446-.126.922-.575 1.053-.08.024-.16.035-.238.035-.365 0-.698-.24-.805-.613m2.044-.992c-.148-.523.14-1.06.657-1.214.513-.149 1.055.148 1.201.661.151.518-.14 1.061-.657 1.214-.091.027-.183.039-.273.039-.42 0-.806-.274-.928-.7m4.939.072c-.116-.401.115-.821.509-.937.4-.118.814.11.931.512.117.396-.108.817-.507.934-.071.022-.143.032-.214.032-.324 0-.624-.214-.719-.541m-2.443-.423c-.13-.446.127-.914.573-1.049.448-.135.917.124 1.044.571.13.451-.121.923-.568 1.055-.081.023-.161.035-.24.035-.365 0-.7-.24-.809-.612" fill="url(#d)" transform="matrix(1.25 0 0 -1.25 -503.275 83.22375)"/><path d="m422.375 59.307c-.362-.388-.345-1.001.043-1.368.386-.367.995-.349 1.356.04.364.391.344 1.001-.041 1.369-.185.175-.421.262-.656.262-.256 0-.512-.102-.702-.303m-3.042-.237c-.286-.308-.272-.789.034-1.079.301-.287.781-.271 1.069.034.283.305.27.79-.033 1.077-.147.139-.333.206-.519.206-.201 0-.402-.08-.551-.238m6.023-.579c-.409-.437-.391-1.124.043-1.539.434-.413 1.123-.391 1.529.044.408.438.39 1.129-.044 1.539-.211.2-.478.299-.743.299-.287 0-.572-.116-.785-.343m-8.926-.604c-.231-.248-.22-.635.025-.872.249-.232.635-.221.867.027.232.247.219.637-.025.87-.12.113-.271.169-.422.169-.162 0-.324-.066-.445-.194m11.448-1.1c-.473-.501-.454-1.291.049-1.767.499-.477 1.287-.451 1.755.047.473.51.45 1.301-.049 1.776-.24.228-.546.339-.85.339-.332 0-.661-.132-.905-.395m-13.859-.977c-.175-.186-.166-.475.018-.65.186-.177.474-.166.644.018.174.185.166.476-.017.651-.09.083-.203.124-.316.124-.12 0-.24-.048-.329-.143m15.93-1.679c-.41-.436-.391-1.126.046-1.539.435-.414 1.119-.388 1.526.047.411.438.392 1.123-.047 1.54-.206.197-.47.295-.736.295-.288 0-.576-.115-.789-.343m-17.844-.869c-.234-.248-.221-.636.028-.872.243-.232.63-.222.864.023.229.249.22.638-.027.872-.118.113-.269.169-.419.169-.163 0-.325-.065-.446-.192m19.007-2.242c-.366-.389-.347-1.002.041-1.367.385-.37.995-.347 1.357.041.367.387.347 1-.04 1.368-.186.175-.424.262-.66.262-.255 0-.51-.101-.698-.304m-20.005-.75c-.281-.309-.274-.786.033-1.075.301-.29.783-.274 1.069.029.287.305.27.792-.031 1.079-.147.139-.334.208-.521.208-.201 0-.402-.081-.55-.241m20.246-2.607c-.285-.306-.268-.788.034-1.075.308-.291.782-.275 1.07.032.285.305.275.786-.034 1.076-.145.138-.331.206-.518.206-.201 0-.403-.08-.552-.239m-20.301-.465c-.362-.387-.344-1.003.042-1.369.388-.368.994-.349 1.358.04.364.387.346 1.001-.041 1.371-.185.177-.42.263-.656.263-.256 0-.513-.103-.703-.305m19.515-2.723c-.232-.247-.221-.639.025-.875.25-.233.637-.22.869.03.23.247.221.638-.026.873-.119.112-.27.167-.421.167-.162 0-.326-.066-.447-.195m-18.523-.226c-.409-.434-.396-1.124.041-1.539.437-.41 1.123-.388 1.529.047.408.436.389 1.129-.044 1.538-.209.2-.474.297-.737.297-.288 0-.576-.117-.789-.343m1.835-2.429c-.469-.509-.447-1.293.054-1.772.499-.474 1.286-.452 1.755.053.472.504.448 1.294-.052 1.771-.241.228-.548.341-.853.342-.33 0-.66-.133-.904-.394m15.001-.11c-.172-.186-.163-.477.02-.651.185-.172.472-.166.644.023.174.183.167.475-.02.647-.086.084-.199.126-.311.126-.123 0-.244-.049-.333-.145m-12.245-1.821c-.407-.431-.388-1.121.049-1.535.434-.415 1.119-.392 1.525.044.408.441.393 1.127-.046 1.54-.207.197-.474.295-.739.295-.002 0-.003 0-.004 0-.287 0-.573-.116-.785-.344m9.607-.041c-.233-.248-.222-.639.024-.872.249-.234.637-.222.867.026.232.246.221.636-.026.871-.118.113-.269.169-.421.169-.162 0-.324-.065-.444-.194m-6.455-.937c-.364-.387-.346-1.004.041-1.366.391-.37.995-.352 1.358.038.365.387.35 1.002-.038 1.367-.186.178-.422.264-.659.264-.257 0-.513-.102-.702-.303m3.341-.048c-.285-.302-.27-.788.033-1.076.305-.289.784-.271 1.07.035.286.302.275.786-.031 1.075-.147.139-.333.207-.519.207-.202 0-.403-.081-.553-.241" fill="url(#e)" transform="matrix(1.25 0 0 -1.25 -503.275 83.22375)"/><path d="m423.181 62.726c-.451-.09-.743-.527-.653-.984.09-.452.529-.746.979-.655.45.091.741.531.651.983-.08.401-.425.673-.812.673-.054 0-.109-.006-.165-.017m-3.444-.227c-.353-.053-.6-.383-.548-.742.053-.358.383-.603.737-.552.355.053.602.383.549.742-.046.326-.324.559-.642.559-.032 0-.063-.003-.096-.007m6.763-.479c-.538-.138-.865-.688-.726-1.233.137-.542.687-.872 1.225-.731.537.138.863.691.725 1.232-.117.461-.526.764-.974.764-.083 0-.166-.01-.25-.032m-10.286-.574c-.306-.133-.449-.49-.316-.801.131-.308.489-.449.795-.317.306.134.449.492.317.8-.099.231-.322.368-.555.368-.081 0-.163-.016-.241-.05m13.227-.926c-.659-.207-1.032-.915-.824-1.583.206-.666.912-1.038 1.571-.83.663.209 1.031.918.825 1.583-.169.542-.663.888-1.195.888-.126 0-.252-.019-.377-.058m-16.407-.933c-.28-.225-.329-.633-.107-.918.223-.284.632-.331.912-.108.282.225.331.635.108.92-.128.163-.317.248-.508.248-.141 0-.284-.047-.405-.142m18.824-1.429c-.717-.267-1.086-1.065-.818-1.79.265-.724 1.062-1.092 1.776-.825.717.266 1.085 1.07.819 1.792-.208.566-.736.91-1.296.91-.16 0-.323-.028-.481-.087m-21.35-.937c-.375-.267-.466-.787-.198-1.167.266-.376.784-.465 1.157-.198.375.268.464.79.198 1.166-.162.231-.417.354-.676.354-.167 0-.335-.05-.481-.155m23.031-2.018c-.765-.333-1.118-1.219-.788-1.992.33-.77 1.215-1.125 1.979-.794.763.332 1.117 1.226.786 1.994-.245.575-.799.916-1.38.916-.2 0-.403-.039-.597-.124m-24.8-.897c-.468-.301-.611-.923-.311-1.399.297-.473.919-.614 1.388-.315.472.298.61.927.312 1.401-.192.305-.516.471-.849.471-.185 0-.372-.052-.54-.158m25.742-2.65c-.683-.341-.964-1.178-.626-1.865.342-.696 1.17-.973 1.855-.632.684.34.966 1.174.625 1.866-.241.491-.732.775-1.242.775-.206 0-.415-.046-.612-.144m-26.678-.537c-.605-.341-.82-1.11-.479-1.72.339-.607 1.103-.826 1.708-.483.605.341.82 1.113.48 1.722-.231.413-.655.644-1.094.644-.002 0-.003 0-.005 0-.207 0-.417-.053-.61-.163m26.725-3.148c-.602-.34-.819-1.112-.48-1.723.341-.61 1.107-.821 1.708-.48.605.342.821 1.109.48 1.72-.23.413-.656.646-1.094.646-.208 0-.419-.052-.614-.163m-26.678-.243c-.681-.339-.966-1.173-.626-1.867.34-.69 1.172-.972 1.857-.63.684.341.964 1.178.624 1.868-.242.493-.729.777-1.236.777-.208 0-.419-.048-.619-.148m.981-3.259c-.762-.33-1.118-1.22-.787-1.993.328-.769 1.218-1.123 1.98-.792.761.332 1.113 1.224.783 1.994-.246.574-.799.915-1.38.915-.199 0-.401-.039-.596-.124m24.915-.173c-.47-.299-.611-.927-.312-1.398.298-.476.919-.614 1.388-.315.469.299.612.923.313 1.399-.192.304-.52.471-.854.471-.183 0-.368-.051-.535-.157m-23.002-2.952c-.716-.267-1.084-1.071-.818-1.79.267-.729 1.064-1.091 1.777-.823.719.268 1.086 1.063.819 1.791-.207.561-.735.91-1.298.91-.159 0-.322-.028-.48-.088m21.35-.313c-.376-.267-.463-.789-.198-1.166.266-.379.784-.467 1.16-.201.373.267.462.788.195 1.169-.161.23-.418.352-.678.353-.166 0-.334-.051-.479-.155m-18.722-2.251c-.662-.207-1.03-.915-.823-1.582.207-.671.908-1.039 1.57-.829.661.206 1.032.913.825 1.58-.167.542-.664.889-1.199.889-.123 0-.249-.019-.373-.058m16.348-.454c-.279-.225-.327-.636-.106-.918.223-.286.632-.331.913-.107.281.224.329.633.108.918-.128.163-.318.248-.51.248-.141 0-.284-.046-.405-.141m-13.156-1.495c-.538-.139-.862-.689-.725-1.231.137-.547.685-.871 1.223-.733.539.139.865.688.727 1.233-.115.458-.526.763-.974.763-.083 0-.167-.011-.251-.032m10.305-.273c-.306-.132-.448-.49-.316-.798.134-.312.489-.452.795-.32.307.133.45.492.318.801-.099.23-.323.367-.557.367-.08 0-.162-.016-.24-.05m-6.815-.757c-.449-.091-.741-.534-.651-.985.09-.456.529-.749.978-.658.449.091.743.532.652.988-.08.396-.427.671-.816.671-.054 0-.108-.005-.163-.016m3.58-.118c-.352-.054-.599-.386-.547-.743.052-.359.384-.604.736-.552.356.053.603.383.55.742-.046.326-.325.559-.646.559-.03 0-.061-.001-.093-.006" fill="url(#f)" transform="matrix(1.25 0 0 -1.25 -503.275 83.22375)"/><path d="m421.006 65.801c0-.432.348-.78.774-.78.428 0 .776.348.776.78 0 .433-.348.778-.776.778-.426 0-.774-.345-.774-.778m-3.9.216c-.444-.119-.708-.576-.59-1.024.12-.449.578-.712 1.019-.593.445.12.709.578.591 1.027-.1.375-.435.62-.801.62-.072 0-.146-.01-.219-.03m8.331-.591c-.119-.448.145-.906.588-1.026.444-.12.902.144 1.021.592.118.448-.147.905-.592 1.025-.072.02-.145.029-.216.029-.366 0-.702-.244-.801-.62m-12.494-.9c-.576-.123-.944-.688-.821-1.271.122-.578.687-.947 1.262-.824.576.123.943.692.82 1.272-.106.505-.546.848-1.037.848-.074 0-.149-.008-.224-.025m16.414-.823c-.123-.58.244-1.149.82-1.272.574-.123 1.14.246 1.261.824.125.583-.244 1.148-.819 1.27-.075.017-.151.025-.226.025-.491 0-.93-.342-1.036-.847m-19.962-1.703c-.703-.112-1.183-.772-1.071-1.485.111-.708.771-1.193 1.474-1.081.704.112 1.184.779 1.073 1.488-.101.642-.648 1.094-1.271 1.094-.068 0-.136-.005-.205-.016m23.296-1.079c-.11-.709.369-1.376 1.072-1.488.702-.112 1.365.373 1.475 1.081.113.713-.37 1.373-1.07 1.485-.068.011-.137.016-.204.016-.623 0-1.171-.451-1.273-1.094m2.411-3.63c-.092-.888.552-1.685 1.431-1.779.884-.094 1.674.554 1.767 1.442.094.893-.547 1.685-1.429 1.779-.058.006-.114.009-.171.009-.81 0-1.51-.616-1.598-1.451m-28.412 1.442c-.885-.094-1.523-.886-1.43-1.779.092-.888.881-1.536 1.766-1.441.882.093 1.524.89 1.431 1.778-.087.835-.785 1.451-1.595 1.451-.057 0-.114-.003-.172-.009m29.969-5.701c-.051-.985.7-1.826 1.674-1.878.979-.05 1.815.706 1.866 1.691.051.99-.703 1.824-1.678 1.875-.032.002-.064.003-.096.003-.934 0-1.716-.734-1.766-1.691m-31.622 1.688c-.973-.051-1.728-.885-1.676-1.875.051-.985.888-1.741 1.865-1.691.977.052 1.728.893 1.677 1.878-.05.957-.831 1.691-1.77 1.691-.032 0-.064-.001-.096-.003m32.046-6.274c0-1.074.862-1.945 1.926-1.945 1.067 0 1.931.871 1.931 1.943 0 1.079-.864 1.942-1.928 1.942-1.067 0-1.929-.863-1.929-1.94m-34.463-.002c0-1.072.868-1.943 1.931-1.943 1.061 0 1.925.871 1.925 1.945 0 1.077-.864 1.94-1.925 1.94-1.063 0-1.931-.863-1.931-1.942m35.713-2.71c-.974-.052-1.725-.892-1.674-1.876.052-.991.886-1.739 1.862-1.689.975.052 1.728.885 1.677 1.876-.049.951-.834 1.691-1.771 1.691-.031 0-.062-.001-.094-.002m-34.971-1.689c-.051-.991.702-1.824 1.676-1.876.98-.051 1.813.698 1.866 1.689.05.984-.701 1.824-1.677 1.876-.032.001-.063.002-.094.002-.936 0-1.722-.74-1.771-1.691m33.171-2.669c-.88-.093-1.523-.89-1.431-1.78.094-.893.888-1.533 1.768-1.44.883.094 1.524.885 1.43 1.779-.087.831-.785 1.45-1.597 1.45-.055 0-.112-.003-.17-.009m-31.273-1.441c-.093-.894.546-1.685 1.43-1.779.882-.093 1.674.547 1.767 1.44.093.89-.549 1.687-1.431 1.78-.058.006-.115.009-.172.009-.812 0-1.508-.619-1.594-1.45m28.504-2.481c-.704-.113-1.185-.778-1.073-1.486.112-.712.773-1.191 1.476-1.079.701.112 1.183.773 1.071 1.485-.101.64-.651 1.096-1.273 1.096-.066 0-.134-.006-.201-.016m-25.439-1.08c-.113-.712.368-1.374 1.07-1.485.703-.112 1.364.367 1.477 1.079.11.707-.37 1.373-1.074 1.485-.069.01-.136.016-.203.016-.622 0-1.171-.456-1.27-1.095m21.852-1.916c-.576-.123-.944-.694-.821-1.271.123-.583.687-.951 1.263-.827.575.122.943.69.819 1.273-.106.502-.549.849-1.041.849-.073 0-.147-.007-.22-.024m-18.054-.826c-.124-.582.244-1.15.819-1.273.575-.123 1.14.245 1.262.828.123.577-.244 1.148-.82 1.271-.073.017-.147.024-.22.024-.492 0-.935-.347-1.041-.85m13.901-1.144c-.442-.12-.706-.578-.589-1.027.12-.447.577-.71 1.019-.59.446.119.709.576.591 1.025-.099.374-.437.621-.805.621-.071 0-.144-.009-.216-.029m-9.508-.594c-.118-.447.147-.904.59-1.023.445-.12.901.143 1.02.591.118.448-.146.906-.591 1.026-.071.019-.143.029-.214.029-.366 0-.705-.247-.805-.623m4.49-.807c0-.414.32-.75.722-.777h.105c.403.027.723.363.723.778 0 .43-.348.779-.776.779-.426 0-.774-.349-.774-.78" fill="url(#g)" transform="matrix(1.25 0 0 -1.25 -503.275 83.22375)"/></svg>