<svg width="203" height="45" viewBox="0 0 203 45" fill="none" xmlns="http://www.w3.org/2000/svg">
<path fill-rule="evenodd" clip-rule="evenodd" d="M179.258 27.1499C178.182 27.1499 178.138 27.1208 178.138 26.022V24.5454H182.679C182.837 24.5454 182.961 24.4273 182.961 24.2847V23.3384C182.961 23.1964 182.837 23.077 182.679 23.077H178.138V21.8752C178.138 20.7787 178.182 20.7491 179.258 20.7491H182.851C183.004 20.7491 183.134 20.6292 183.134 20.486V19.6491C183.134 19.4646 183.062 19.3977 182.851 19.3726C182.395 19.3086 181.472 19.1905 179.784 19.1905L179.744 19.1905C177.411 19.1904 176.178 19.1903 176.178 21.8752V26.022C176.178 28.708 177.411 28.708 179.745 28.7079H179.784C181.472 28.7079 182.395 28.5909 182.851 28.5245C183.062 28.4995 183.134 28.4337 183.134 28.2487V27.4118C183.134 27.268 183.004 27.1499 182.851 27.1499H179.258ZM195.917 28.3697C196.599 28.5146 197.87 28.7143 199.125 28.7143C201.964 28.7143 202.857 27.2977 202.857 25.9748C202.857 24.7177 202.082 24.0676 200.887 23.6206C200.15 23.3472 199.485 23.106 198.929 22.9043L198.487 22.7436C197.857 22.5125 197.324 22.1162 197.324 21.6849C197.324 21.0953 198.11 20.7543 199.162 20.7543C200.033 20.7543 200.773 20.834 201.463 20.9084C201.75 20.9394 202.029 20.9694 202.304 20.9923H202.332C202.476 20.9923 202.573 20.8864 202.573 20.7566V19.7864C202.573 19.6561 202.461 19.5641 202.318 19.5385C201.836 19.432 200.597 19.1945 199.245 19.1945C196.606 19.1945 195.349 20.2421 195.349 21.6849C195.349 22.601 195.787 23.5048 197.021 23.9756C197.289 24.0779 197.618 24.1834 197.969 24.296C199.241 24.7039 200.802 25.2044 200.802 25.9748C200.802 26.7349 200.415 27.1522 199.154 27.1522C197.953 27.1522 196.739 27.0089 196.106 26.9342L195.945 26.9153H195.917C195.776 26.9153 195.647 27.0218 195.647 27.165V28.109C195.647 28.2533 195.776 28.3435 195.917 28.3697ZM191.579 22.1517C191.579 21.1687 190.753 20.7491 189.332 20.7491C189.035 20.7491 187.744 20.7752 187.488 20.8014V23.6433C187.718 23.6567 189.095 23.6829 189.332 23.6829C190.797 23.6829 191.579 23.4228 191.579 22.2704V22.1517ZM191.976 28.6043H193.709C193.821 28.6043 193.878 28.5373 193.878 28.4477C193.878 28.4186 193.878 28.3814 193.85 28.3418L191.62 24.8347C192.783 24.4174 193.536 23.6573 193.536 22.2704V22.1517C193.536 19.9116 191.519 19.1905 189.332 19.1905C188.298 19.1905 186.709 19.2551 185.971 19.3598C185.687 19.3977 185.519 19.4896 185.519 19.7527V28.3418C185.519 28.485 185.647 28.6043 185.803 28.6043H187.221C187.376 28.6043 187.488 28.485 187.488 28.3418V25.1111C187.817 25.1263 188.965 25.1635 189.332 25.1635H189.648L191.694 28.3418L191.712 28.3761C191.775 28.4936 191.833 28.6043 191.976 28.6043ZM174.437 20.8137H171.606V28.3418C171.606 28.485 171.475 28.6043 171.319 28.6043H169.915C169.758 28.6043 169.63 28.485 169.63 28.3418V20.8137H166.797C166.643 20.8137 166.515 20.7234 166.515 20.5785V19.5432C166.515 19.3977 166.643 19.2941 166.797 19.2941H174.437C174.59 19.2941 174.718 19.3977 174.718 19.5432V20.5785C174.718 20.7234 174.59 20.8137 174.437 20.8137ZM156.602 24.9976C156.602 27.7906 158.569 28.7079 160.852 28.7079C163.138 28.7079 165.106 27.7906 165.106 24.9976V19.5432C165.106 19.3977 164.978 19.2941 164.82 19.2941H163.415C163.259 19.2941 163.133 19.3977 163.133 19.5432V24.9976C163.133 26.4928 162.386 27.2011 160.852 27.2011C159.322 27.2011 158.574 26.4928 158.574 24.9976V19.5432C158.574 19.3977 158.447 19.2941 158.29 19.2941H156.887C156.731 19.2941 156.602 19.3977 156.602 19.5432V24.9976ZM149.484 26.022C149.484 27.1208 149.53 27.1499 150.603 27.1499H154.196C154.352 27.1499 154.48 27.268 154.48 27.4118V28.2487C154.48 28.4337 154.408 28.4995 154.196 28.5245C153.742 28.5909 152.817 28.7079 151.13 28.7079H151.09C148.76 28.708 147.525 28.708 147.525 26.022V21.8752C147.525 19.1903 148.76 19.1904 151.089 19.1905L151.13 19.1905C152.817 19.1905 153.742 19.3086 154.196 19.3726C154.408 19.3977 154.48 19.4646 154.48 19.6491V20.486C154.48 20.6292 154.352 20.7491 154.196 20.7491H150.603C149.53 20.7491 149.484 20.7787 149.484 21.8752V23.077H154.026C154.182 23.077 154.31 23.1964 154.31 23.3384V24.2847C154.31 24.4273 154.182 24.5454 154.026 24.5454H149.484V26.022ZM141.156 20.7491C142.575 20.7491 143.402 21.1687 143.402 22.1517V22.2704C143.402 23.4228 142.616 23.6829 141.156 23.6829C140.912 23.6829 139.538 23.6567 139.312 23.6433V20.8014C139.566 20.7752 140.858 20.7491 141.156 20.7491ZM145.531 28.6043H143.798C143.656 28.6043 143.595 28.4916 143.531 28.3731L143.514 28.3418L141.47 25.1635H141.156C140.786 25.1635 139.639 25.1263 139.312 25.1111V28.3418C139.312 28.485 139.198 28.6043 139.042 28.6043H137.623C137.468 28.6043 137.34 28.485 137.34 28.3418V19.7527C137.34 19.4896 137.508 19.3977 137.794 19.3598C138.532 19.2551 140.119 19.1905 141.156 19.1905C143.341 19.1905 145.36 19.9116 145.36 22.1517V22.2704C145.36 23.6573 144.608 24.4174 143.445 24.8347L145.671 28.3418C145.701 28.3814 145.701 28.4186 145.701 28.4477C145.701 28.5373 145.644 28.6043 145.531 28.6043ZM115.435 20.7752C116.826 20.7752 117.958 21.5487 117.958 23.2784V24.6193C117.958 26.3496 116.826 27.1219 115.435 27.1219C114.044 27.1219 112.912 26.3496 112.912 24.6193V23.2784C112.912 21.5487 114.044 20.7752 115.435 20.7752ZM115.435 28.7079C113.094 28.7079 110.926 27.5026 110.926 24.6193V23.2784C110.926 20.3958 113.094 19.1905 115.435 19.1905C117.776 19.1905 119.943 20.3958 119.943 23.2784V24.6193C119.943 27.5026 117.776 28.7079 115.435 28.7079ZM102.196 28.3697C102.878 28.5146 104.151 28.7143 105.404 28.7143C108.245 28.7143 109.138 27.2977 109.138 25.9748C109.138 24.7177 108.364 24.0676 107.165 23.6206C106.456 23.3572 105.812 23.1237 105.268 22.9266L105.268 22.9266C105.088 22.8615 104.92 22.8004 104.764 22.7436C104.136 22.5137 103.601 22.1162 103.601 21.6849C103.601 21.0953 104.392 20.7543 105.439 20.7543C106.312 20.7543 107.052 20.8341 107.742 20.9084C108.03 20.9394 108.308 20.9694 108.584 20.9923H108.613C108.754 20.9923 108.852 20.8864 108.852 20.7566V19.7864C108.852 19.6561 108.741 19.5641 108.598 19.5385C108.117 19.432 106.878 19.1945 105.525 19.1945C102.887 19.1945 101.629 20.2421 101.629 21.6849C101.629 22.601 102.066 23.5048 103.303 23.9756C103.57 24.0777 103.899 24.1831 104.249 24.2955C105.52 24.7035 107.079 25.2041 107.079 25.9748C107.079 26.7349 106.696 27.1522 105.432 27.1522C104.229 27.1522 103.013 27.0084 102.381 26.9338L102.225 26.9153H102.196C102.054 26.9153 101.926 27.0218 101.926 27.165V28.109C101.926 28.2533 102.054 28.3435 102.196 28.3697ZM130.247 28.6043H128.811C128.47 28.6043 128.172 28.6043 127.948 28.1329L124.099 22.1779C124.058 22.0999 124.014 22.0714 123.972 22.0714C123.931 22.0714 123.9 22.0999 123.9 22.1779V28.3418C123.9 28.485 123.786 28.6043 123.63 28.6043H122.426C122.267 28.6043 122.143 28.485 122.143 28.3418V19.8179C122.143 19.5292 122.395 19.2941 122.708 19.2941H124.241C124.539 19.2941 124.694 19.3726 124.867 19.7154L128.869 26.022C128.896 26.086 128.938 26.1273 128.983 26.1273C129.011 26.1273 129.051 26.086 129.051 26.0086V19.5432C129.051 19.3977 129.165 19.2941 129.322 19.2941H130.543C130.699 19.2941 130.814 19.3977 130.814 19.5432V28.0793C130.814 28.3686 130.558 28.6043 130.247 28.6043ZM97.6406 28.6043H99.0743C99.2022 28.6043 99.3163 28.5373 99.3163 28.4076V19.8179C99.3163 19.5292 99.061 19.2941 98.7491 19.2941H97.5845C97.3589 19.2941 97.1585 19.4244 97.059 19.6083L94.3378 24.7282C94.3262 24.7472 94.3158 24.7648 94.3061 24.781C94.2561 24.8653 94.2287 24.9115 94.1822 24.9115C94.1306 24.9115 94.1015 24.8616 94.0486 24.7711L94.0234 24.7282L91.3004 19.6083C91.2008 19.4244 91.0011 19.2941 90.7754 19.2941H89.6115C89.2996 19.2941 89.0431 19.5292 89.0431 19.8179V28.4076C89.0431 28.5373 89.1578 28.6043 89.2863 28.6043H90.7181C90.846 28.6043 90.9456 28.471 90.9456 28.3418V22.6749C90.9456 22.5835 90.9607 22.5445 90.9891 22.5445C91.001 22.5445 91.0307 22.5835 91.0603 22.6225L91.0603 22.6225L93.3667 27.3087C93.4499 27.4513 93.6346 27.5322 93.8192 27.5322H94.5572C94.7412 27.5322 94.9245 27.4513 95.0084 27.3087L97.2997 22.6225L97.3084 22.6113L97.3084 22.6112L97.3085 22.6111L97.3085 22.6111C97.3354 22.5763 97.36 22.5445 97.3696 22.5445C97.4005 22.5445 97.4156 22.5835 97.4156 22.6749V28.3418C97.4156 28.471 97.514 28.6043 97.6406 28.6043ZM84.8587 23.2784C84.8587 21.5487 83.7275 20.7752 82.3361 20.7752C80.9459 20.7752 79.8135 21.5487 79.8135 23.2784V24.6193C79.8135 26.3496 80.9459 27.1219 82.3361 27.1219C83.7275 27.1219 84.8587 26.3496 84.8587 24.6193V23.2784ZM77.8278 24.6193C77.8278 27.5026 79.995 28.7079 82.3361 28.7079C84.6785 28.7079 86.8469 27.5026 86.8469 24.6193V23.2784C86.8469 20.3958 84.6785 19.1905 82.3361 19.1905C79.995 19.1905 77.8278 20.3958 77.8278 23.2784V24.6193ZM75.3033 28.6043H73.8999C73.7417 28.6043 73.6132 28.485 73.6132 28.3418V24.5454H69.1181V28.3418C69.1181 28.485 68.9908 28.6043 68.837 28.6043H67.4311C67.2736 28.6043 67.1463 28.485 67.1463 28.3418V19.5432C67.1463 19.3977 67.2736 19.2941 67.4311 19.2941H68.837C68.9908 19.2941 69.1181 19.3977 69.1181 19.5432V22.9467H73.6132V19.5432C73.6132 19.3977 73.7417 19.2941 73.8999 19.2941H75.3033C75.4577 19.2941 75.5863 19.3977 75.5863 19.5432V28.3418C75.5863 28.485 75.4577 28.6043 75.3033 28.6043ZM62.2328 20.8137H65.0642C65.2205 20.8137 65.3484 20.7234 65.3484 20.5785V19.5432C65.3484 19.3977 65.2205 19.2941 65.0642 19.2941H57.427C57.2714 19.2941 57.1428 19.3977 57.1428 19.5432V20.5785C57.1428 20.7234 57.2714 20.8137 57.427 20.8137H60.2616V28.3418C60.2616 28.485 60.3889 28.6043 60.5452 28.6043H61.9473C62.1055 28.6043 62.2328 28.485 62.2328 28.3418V20.8137Z" fill="white"/>
<path fill-rule="evenodd" clip-rule="evenodd" d="M24.6733 29.0748C24.2652 29.2874 24.1229 29.7837 24.3458 30.1878C24.5574 30.5834 25.0625 30.7406 25.4706 30.5158C25.8799 30.3058 26.026 29.8058 25.8094 29.4077C25.6557 29.1326 25.3685 28.9765 25.0713 28.9765C24.9365 28.9765 24.8005 29.0085 24.6733 29.0748ZM26.6961 28.2628C26.2364 28.5036 26.06 29.0675 26.3157 29.5208C26.5651 29.9716 27.1394 30.1375 27.6017 29.8991C28.0589 29.651 28.2289 29.0834 27.9833 28.6424C27.812 28.3279 27.4858 28.1473 27.1483 28.1473C26.9959 28.1473 26.8409 28.1842 26.6961 28.2628ZM28.5035 27.0454C28.0954 27.2628 27.9468 27.7616 28.166 28.1584C28.3801 28.5576 28.8889 28.7063 29.2983 28.4864C29.7039 28.28 29.8538 27.7726 29.6333 27.3771C29.4797 27.1043 29.1925 26.9446 28.8965 26.9446C28.7643 26.9446 28.6295 26.9766 28.5035 27.0454ZM17.213 26.5036C17.0908 26.2751 17.1727 25.9975 17.3994 25.8808C17.4687 25.8439 17.543 25.8267 17.6161 25.8267C17.7823 25.8267 17.9448 25.9139 18.0292 26.0663C18.1526 26.2874 18.0682 26.5638 17.8441 26.6891C17.6136 26.8058 17.3339 26.7211 17.213 26.5036ZM29.7971 25.3439C29.4331 25.5319 29.3021 25.984 29.4935 26.3378C29.6913 26.6891 30.1409 26.8218 30.4949 26.6326C30.8652 26.436 30.9924 25.9975 30.8047 25.64C30.6687 25.3968 30.413 25.2567 30.1485 25.2567C30.0301 25.2567 29.9092 25.2837 29.7971 25.3439ZM16.3994 24.5061C16.2533 24.242 16.354 23.9066 16.621 23.7604C16.7067 23.7162 16.7974 23.6953 16.8855 23.6953C17.0845 23.6953 17.2747 23.801 17.3793 23.9815C17.5329 24.2457 17.4234 24.586 17.1526 24.7211C16.8868 24.8685 16.548 24.7751 16.3994 24.5061ZM30.4709 23.355C30.1535 23.527 30.0414 23.9103 30.2052 24.226C30.3727 24.5307 30.7783 24.6425 31.0906 24.4791C31.4068 24.3108 31.5201 23.9226 31.3488 23.6142C31.2329 23.3992 31.0125 23.2789 30.7808 23.2789C30.6762 23.2789 30.5717 23.3047 30.4709 23.355ZM16.2671 22.3845C16.0996 22.0774 16.2155 21.6892 16.5278 21.5246C16.6286 21.4705 16.7369 21.4435 16.844 21.4435C17.0745 21.4435 17.2962 21.5651 17.4133 21.7789C17.5833 22.0835 17.4637 22.4767 17.15 22.645C16.8326 22.812 16.4409 22.6978 16.2671 22.3845ZM30.4684 21.274C30.1926 21.4152 30.0893 21.7531 30.2392 22.0184C30.3802 22.2838 30.7254 22.3821 30.9861 22.2457C31.2607 22.0897 31.3652 21.7568 31.2216 21.4939C31.1196 21.3108 30.9269 21.2076 30.7304 21.2076C30.641 21.2076 30.5503 21.2297 30.4684 21.274ZM16.8125 20.3588C16.6236 20.0062 16.7571 19.5615 17.1173 19.3686C17.2294 19.3109 17.3491 19.2826 17.4674 19.2826C17.7307 19.2826 17.9876 19.4214 18.1249 19.6634C18.3202 20.0197 18.1816 20.4644 17.8201 20.6524C17.4612 20.8465 17.0115 20.7101 16.8125 20.3588ZM29.7706 19.3109C29.554 19.4349 29.4646 19.7187 29.5892 19.9349C29.7102 20.1573 29.9936 20.2371 30.2127 20.1192C30.4407 20 30.5251 19.7273 30.4017 19.505C30.316 19.3477 30.1548 19.2605 29.986 19.2605C29.9142 19.2605 29.8399 19.2765 29.7706 19.3109ZM18.3239 17.5075C17.9121 17.7286 17.7609 18.2187 17.9826 18.6254C18.2043 19.0209 18.7031 19.1696 19.1099 18.9546C19.523 18.7396 19.6729 18.2384 19.4537 17.8441C19.3039 17.5676 19.0129 17.4079 18.7157 17.4079C18.5821 17.4079 18.4474 17.4399 18.3239 17.5075ZM20.0142 16.1021C19.5558 16.3465 19.3819 16.9116 19.6339 17.36C19.8832 17.8109 20.4551 17.9866 20.9198 17.7409C21.3796 17.4964 21.5471 16.9313 21.3002 16.4829C21.1302 16.1684 20.8027 15.9891 20.4639 15.9891C20.3127 15.9891 20.1578 16.0259 20.0142 16.1021ZM21.8091 16.591C21.595 16.1967 21.7398 15.6954 22.1454 15.4805C22.2713 15.4129 22.4086 15.381 22.5434 15.381C22.8419 15.381 23.1316 15.5382 23.2802 15.8109C23.4969 16.2126 23.3482 16.7089 22.9427 16.9276C22.5371 17.1389 22.0245 16.9952 21.8091 16.591ZM24.0901 16.5013C23.8999 16.1451 24.0284 15.704 24.3911 15.5149C24.5045 15.4534 24.6267 15.4227 24.7463 15.4227C25.0108 15.4227 25.2653 15.564 25.395 15.806C25.5864 16.161 25.458 16.6008 25.0902 16.7937C24.7312 16.9878 24.2816 16.8551 24.0901 16.5013ZM26.2767 17.0775C26.1066 16.7704 26.2288 16.3785 26.5462 16.2053C26.6407 16.1549 26.744 16.1303 26.846 16.1303C27.079 16.1303 27.3057 16.2519 27.4203 16.4682C27.5941 16.7765 27.4783 17.1635 27.1558 17.3318C26.8498 17.5013 26.4467 17.3871 26.2767 17.0775ZM28.1685 18.2605C28.0249 17.9964 28.1244 17.6659 28.4002 17.5173C28.4846 17.4718 28.5741 17.4497 28.6635 17.4497C28.86 17.4497 29.0527 17.5554 29.156 17.7384C29.3033 18.005 29.1975 18.3354 28.9293 18.4853C28.6509 18.6217 28.3146 18.5246 28.1685 18.2605ZM18.465 28.2591C18.3189 27.995 18.4197 27.6584 18.6917 27.5183C18.7748 27.4753 18.8643 27.4557 18.9537 27.4557C19.1527 27.4557 19.3454 27.5577 19.4437 27.7395C19.5885 28.006 19.4865 28.339 19.2169 28.4766C18.9461 28.624 18.6073 28.5257 18.465 28.2591ZM20.1969 29.5294C20.0231 29.2198 20.1377 28.8377 20.4601 28.667C20.5558 28.6129 20.6616 28.5896 20.7649 28.5896C20.9929 28.5896 21.2184 28.7112 21.338 28.9213C21.508 29.2284 21.3897 29.6178 21.0722 29.7935C20.7574 29.9606 20.3606 29.8414 20.1969 29.5294ZM22.2184 30.1915C22.027 29.8402 22.1555 29.3942 22.5169 29.2026C22.6303 29.1448 22.7512 29.1191 22.8721 29.1191C23.1392 29.1191 23.3974 29.2542 23.5296 29.4974C23.7248 29.8561 23.5926 30.3033 23.2273 30.49C22.8658 30.6804 22.4162 30.5478 22.2184 30.1915Z" fill="white"/>
<path fill-rule="evenodd" clip-rule="evenodd" d="M23.7869 32.48C23.2126 32.3148 22.8816 31.742 23.049 31.1962C23.1894 30.741 23.6208 30.4473 24.0908 30.4473C24.1925 30.4473 24.2955 30.4619 24.3998 30.4901C24.9754 30.6516 25.2987 31.2293 25.1312 31.7812C24.9677 32.3282 24.3638 32.6452 23.7869 32.48ZM20.6809 32.2524C20.0152 32.0639 19.6443 31.4067 19.8349 30.7667C19.992 30.2453 20.489 29.91 21.0299 29.91C21.1458 29.91 21.2642 29.9247 21.3814 29.9577C22.0472 30.145 22.4219 30.8095 22.2275 31.4434C22.0395 32.0712 21.3415 32.4347 20.6809 32.2524ZM17.2028 29.5527C17.0354 30.0973 17.3586 30.6749 17.9368 30.8389C18.5137 30.998 19.1138 30.6822 19.2863 30.134C19.4511 29.5882 19.1241 29.0056 18.5459 28.8453C18.4429 28.8159 18.3399 28.8025 18.2394 28.8025C17.7694 28.8025 17.3406 29.0962 17.2028 29.5527ZM29.6189 30.2209C29.2197 30.1058 28.9854 29.7007 29.1013 29.3177C29.1991 29.0032 29.5017 28.7951 29.8314 28.7951C29.9022 28.7951 29.9743 28.8049 30.0477 28.8257C30.4495 28.9383 30.68 29.3422 30.5577 29.7313C30.4405 30.1119 30.0194 30.3347 29.6189 30.2209ZM15.0755 27.553C14.9236 28.0413 15.2133 28.5528 15.7271 28.6997C16.2435 28.8453 16.774 28.5638 16.9285 28.0743C17.0792 27.586 16.7817 27.0696 16.2705 26.924C16.1804 26.8983 16.0889 26.886 15.9988 26.886C15.5829 26.886 15.2017 27.1491 15.0755 27.553ZM31.7758 27.9409C31.4552 27.8528 31.2685 27.5248 31.3638 27.2115C31.4423 26.9545 31.6883 26.7881 31.9548 26.7881C32.0128 26.7881 32.0707 26.7955 32.1274 26.8114C32.4532 26.9044 32.6386 27.236 32.5446 27.5444C32.4493 27.854 32.1068 28.0339 31.7758 27.9409ZM13.7981 25.0161C13.6848 25.4003 13.9024 25.8066 14.3119 25.9192C14.7098 26.0355 15.1347 25.8103 15.2532 25.4224C15.3704 25.0381 15.1386 24.6342 14.7394 24.5278C14.6647 24.5057 14.59 24.4959 14.5153 24.4959C14.1883 24.4959 13.8895 24.7003 13.7981 25.0161ZM33.1395 25.1311C32.8987 25.0662 32.7635 24.8178 32.8305 24.5865C32.8897 24.3944 33.0777 24.2695 33.2747 24.2695C33.316 24.2695 33.3584 24.2744 33.3997 24.2854C33.6443 24.354 33.7834 24.6012 33.7087 24.8325C33.6392 25.0675 33.3868 25.1996 33.1395 25.1311ZM13.359 22.1499C13.2611 22.4595 13.453 22.7851 13.7775 22.8781C14.102 22.9711 14.4432 22.7961 14.5398 22.4816C14.6377 22.1707 14.4522 21.844 14.1252 21.7497C14.0685 21.7326 14.0119 21.7265 13.9552 21.7265C13.6886 21.7265 13.4427 21.8954 13.359 22.1499ZM33.4975 22.3445C33.1679 22.2552 32.9824 21.9235 33.0803 21.6139C33.155 21.3569 33.4048 21.1905 33.6739 21.1905C33.7293 21.1905 33.7873 21.199 33.8439 21.2137C34.1723 21.3079 34.3551 21.6371 34.2611 21.9443C34.1646 22.2576 33.8246 22.4375 33.4975 22.3445ZM13.9101 19.263C13.8393 19.498 13.9732 19.7452 14.2179 19.8125C14.4638 19.881 14.7175 19.7452 14.7896 19.5126C14.8605 19.2801 14.7227 19.0366 14.4767 18.9656C14.4329 18.9546 14.3904 18.9485 14.3479 18.9485C14.1496 18.9485 13.9681 19.0721 13.9101 19.263ZM32.8833 19.5763C32.4841 19.4637 32.2446 19.0623 32.3695 18.6694C32.4635 18.3574 32.7674 18.1518 33.097 18.1518C33.1692 18.1518 33.2426 18.1616 33.3147 18.1824C33.7164 18.2937 33.9456 18.6964 33.8272 19.0831C33.7087 19.4698 33.2889 19.6901 32.8833 19.5763ZM15.0781 16.5523C14.9802 16.8607 15.1708 17.1899 15.4953 17.2792C15.8211 17.371 16.1585 17.1935 16.2576 16.8827C16.3581 16.5743 16.1662 16.2463 15.843 16.1509C15.7876 16.1362 15.7309 16.1288 15.6743 16.1288C15.4052 16.1288 15.1579 16.2928 15.0781 16.5523ZM31.3458 17.1703C30.8371 17.0259 30.5409 16.518 30.6942 16.0224C30.8217 15.6234 31.2054 15.3627 31.6187 15.3627C31.7089 15.3627 31.8003 15.375 31.8905 15.4007C32.4055 15.5426 32.6978 16.0566 32.5446 16.5413C32.3914 17.0296 31.8595 17.3135 31.3458 17.1703ZM17.0624 14.369C16.944 14.757 17.1706 15.1571 17.5762 15.2722C17.978 15.3848 18.4004 15.162 18.5201 14.779C18.6373 14.3947 18.4055 13.9909 18.0025 13.8758C17.9316 13.855 17.8595 13.8452 17.7887 13.8452C17.4591 13.8452 17.1577 14.0521 17.0624 14.369ZM29.0729 15.2538C28.4986 15.0911 28.1664 14.5147 28.3377 13.9652C28.4793 13.5136 28.9107 13.215 29.382 13.215C29.4837 13.215 29.5854 13.2284 29.6872 13.2578C30.2628 13.4206 30.5912 13.9982 30.4199 14.5477C30.2512 15.096 29.6485 15.4166 29.0729 15.2538ZM26.24 14.1365C25.5691 13.948 25.2034 13.2896 25.3952 12.6533C25.5523 12.1344 26.0507 11.7954 26.5915 11.7954C26.7074 11.7954 26.8246 11.8113 26.9418 11.8431C27.6062 12.0303 27.9848 12.6961 27.7839 13.3349C27.5921 13.9639 26.9006 14.3237 26.24 14.1365ZM23.2216 13.6078C22.646 13.4426 22.3176 12.8686 22.4889 12.3179C22.6292 11.8664 23.0555 11.5714 23.5268 11.5714C23.6298 11.5714 23.7341 11.5849 23.8384 11.6155C24.4114 11.7746 24.7411 12.3559 24.5685 12.9066C24.3985 13.4512 23.7972 13.7706 23.2216 13.6078ZM19.5709 12.8956C19.4215 13.3863 19.7164 13.8979 20.2276 14.0423C20.7376 14.1867 21.2771 13.9101 21.4252 13.4169C21.5707 12.9298 21.2771 12.4158 20.7711 12.2714C20.6809 12.247 20.5908 12.2347 20.5019 12.2347C20.0821 12.2347 19.6971 12.4966 19.5709 12.8956ZM26.1949 30.6786C26.0455 31.1693 26.343 31.6833 26.8503 31.8253C27.3654 31.9697 27.8985 31.6906 28.0492 31.1987C28.1999 30.714 27.9101 30.1988 27.3963 30.0556C27.3049 30.0287 27.2122 30.0165 27.1208 30.0165C26.7035 30.0165 26.3172 30.2784 26.1949 30.6786Z" fill="white"/>
<path fill-rule="evenodd" clip-rule="evenodd" d="M21.3885 34.3144C20.9469 34.793 20.9688 35.5561 21.4383 36.0039C21.9126 36.4615 22.6454 36.4392 23.0857 35.9569C23.5285 35.4782 23.5103 34.7176 23.0396 34.2662C22.814 34.046 22.5277 33.9397 22.2402 33.9397C21.9284 33.9397 21.6178 34.0658 21.3885 34.3144ZM17.5646 33.1048C17.0709 33.6379 17.0939 34.4913 17.6241 35.0033C18.1506 35.5166 18.9816 35.4881 19.4741 34.9489C19.9691 34.4035 19.9509 33.555 19.4183 33.0442C19.1672 32.8006 18.8433 32.6794 18.5218 32.6794H18.517C18.1688 32.6794 17.8218 32.8228 17.5646 33.1048ZM14.2212 30.7166C13.6522 31.3461 13.6789 32.3158 14.2867 32.9082C14.892 33.4944 15.8468 33.4672 16.4158 32.8426C16.9884 32.2193 16.9593 31.2422 16.3527 30.6523C16.0603 30.3703 15.6879 30.2306 15.3179 30.2293C14.9175 30.2293 14.5172 30.3938 14.2212 30.7166ZM12.0448 29.6159C11.5146 29.1026 11.4988 28.2492 11.995 27.7125C12.2534 27.433 12.6028 27.2883 12.9522 27.2883C13.2713 27.2883 13.5927 27.4082 13.8463 27.6556C14.3716 28.1614 14.3946 29.0185 13.8997 29.5577C13.4071 30.0957 12.5749 30.123 12.0448 29.6159ZM34.4664 27.433C34.1849 27.7384 34.1983 28.2233 34.4967 28.5151C34.8 28.8033 35.2695 28.7872 35.551 28.478C35.83 28.1726 35.8191 27.689 35.5194 27.3983C35.375 27.2598 35.1919 27.1918 35.0087 27.1918C34.8121 27.1918 34.6132 27.2734 34.4664 27.433ZM10.8425 25.7584C10.3742 25.3057 10.3524 24.5438 10.7916 24.0652C11.0221 23.8154 11.3338 23.688 11.6444 23.688C11.9307 23.688 12.2158 23.7943 12.4402 24.0133C12.9097 24.4709 12.9316 25.2302 12.49 25.7089C12.0484 26.19 11.3132 26.2135 10.8425 25.7584ZM35.4199 23.4901C35.0742 23.8686 35.0948 24.4647 35.4612 24.8196C35.8348 25.1795 36.4099 25.1597 36.7593 24.7801C37.105 24.4028 37.0929 23.8079 36.718 23.4493C36.5421 23.2786 36.3165 23.1945 36.0896 23.1945C35.8458 23.1945 35.6007 23.2934 35.4199 23.4901ZM10.8983 21.5953C10.5259 21.2379 10.5174 20.648 10.8583 20.2658C11.0378 20.0679 11.2817 19.9677 11.5255 19.9677C11.7524 19.9677 11.9792 20.0531 12.1576 20.225C12.5227 20.5799 12.5434 21.1823 12.1952 21.5595C11.8482 21.9342 11.2635 21.954 10.8983 21.5953ZM35.1276 19.3382C34.6835 19.8193 34.7066 20.5775 35.1773 21.0289C35.6444 21.4865 36.3844 21.4581 36.8236 20.9782C37.2688 20.4996 37.2445 19.7414 36.775 19.2863C36.5494 19.0698 36.2607 18.9622 35.9743 18.9622C35.665 18.9622 35.3556 19.0872 35.1276 19.3382ZM12.103 17.6438C11.8009 17.3519 11.7851 16.8721 12.069 16.5654C12.2158 16.4083 12.4123 16.3279 12.6101 16.3279C12.7921 16.3279 12.9752 16.3972 13.1184 16.5369C13.4181 16.8263 13.429 17.3074 13.1512 17.6154C12.8673 17.9184 12.3978 17.9308 12.103 17.6438ZM33.7167 15.4906C33.2193 16.0298 33.2423 16.8832 33.7725 17.394C34.3002 17.906 35.13 17.8739 35.6237 17.3359C36.1224 16.7942 36.0993 15.947 35.5667 15.4312C35.3168 15.1876 34.9965 15.0664 34.6738 15.0664C34.3245 15.0664 33.9751 15.2086 33.7167 15.4906ZM31.2042 12.2057C30.6304 12.8253 30.6534 13.8024 31.2636 14.3911C31.869 14.981 32.825 14.9489 33.3927 14.333C33.9666 13.7022 33.9387 12.7239 33.3333 12.1364C33.0421 11.8545 32.6709 11.7172 32.3021 11.7172C31.8993 11.7172 31.5002 11.8804 31.2042 12.2057ZM28.1446 10.0982C27.6484 10.6387 27.6703 11.4884 28.1968 12.0016C28.7233 12.5124 29.5592 12.4852 30.0517 11.9472C30.5467 11.4055 30.5248 10.5509 29.9983 10.0438C29.7423 9.79645 29.4184 9.67401 29.0969 9.67401C28.7488 9.67401 28.403 9.81747 28.1446 10.0982ZM24.5803 10.7809C24.1096 10.327 24.089 9.56888 24.5282 9.08901C24.7587 8.84042 25.0692 8.71427 25.3798 8.71427C25.6649 8.71427 25.9512 8.82187 26.1757 9.0383C26.6427 9.49344 26.667 10.2479 26.2254 10.7315C25.7874 11.2126 25.0486 11.2348 24.5803 10.7809ZM20.879 10.7166C20.5078 10.3579 20.4908 9.76306 20.8377 9.38213C21.0185 9.18672 21.2623 9.08777 21.5062 9.08777C21.7318 9.08777 21.9575 9.17064 22.1358 9.34255C22.5034 9.69751 22.5192 10.2973 22.1759 10.6746C21.8265 11.0518 21.2442 11.0716 20.879 10.7166ZM17.3463 11.9237C17.049 11.6306 17.0357 11.152 17.3159 10.8452C17.4627 10.6869 17.6593 10.6053 17.8558 10.6053C18.039 10.6053 18.2222 10.6746 18.3677 10.8143C18.6638 11.1025 18.6795 11.5848 18.3981 11.8903C18.1166 12.197 17.6483 12.2106 17.3463 11.9237ZM14.4128 14.2179C14.1896 14.0015 14.1787 13.6441 14.391 13.414C14.499 13.2965 14.6446 13.2372 14.7901 13.2372C14.9272 13.2372 15.0643 13.2879 15.1735 13.3905C15.3955 13.607 15.4052 13.9669 15.1941 14.1957C14.9879 14.4232 14.6385 14.4369 14.4128 14.2179ZM32.4441 31.6578C32.222 31.4426 32.2111 31.0827 32.4198 30.8527C32.5278 30.7339 32.6746 30.6733 32.8238 30.6733C32.9596 30.6733 33.0967 30.7253 33.2011 30.8292C33.4279 31.0419 33.4364 31.403 33.2253 31.6294C33.0167 31.8631 32.6685 31.8705 32.4441 31.6578ZM29.2486 34.234C28.9501 33.9458 28.9368 33.4623 29.2195 33.1555C29.365 32.996 29.5616 32.9156 29.7581 32.9156C29.9425 32.9156 30.1257 32.9849 30.2689 33.1246C30.5685 33.4153 30.5819 33.8976 30.3004 34.2019C30.0214 34.5086 29.5507 34.5234 29.2486 34.234ZM25.4817 35.7045C25.1141 35.3484 25.0959 34.7473 25.4417 34.3738C25.6237 34.1759 25.8675 34.0757 26.1126 34.0757C26.3382 34.0757 26.5639 34.1598 26.7422 34.3317C27.1134 34.6892 27.1268 35.2878 26.7798 35.6613C26.4328 36.0397 25.8517 36.062 25.4817 35.7045Z" fill="white"/>
<path fill-rule="evenodd" clip-rule="evenodd" d="M22.105 38.9953C21.5377 39.1105 21.1688 39.671 21.2825 40.2417C21.3962 40.8187 21.9508 41.1894 22.5181 41.0743C23.0853 40.9591 23.4568 40.4011 23.3418 39.8241C23.2407 39.3231 22.8023 38.9751 22.3109 38.9751C22.2427 38.9751 22.1744 38.9814 22.105 38.9953ZM17.6958 37.6921C17.0161 37.8679 16.6067 38.5639 16.7798 39.2497C16.9529 39.9418 17.6452 40.3518 18.3249 40.1772C19.0059 40.0013 19.4178 39.3066 19.2434 38.617C19.0981 38.0375 18.5789 37.6516 18.0129 37.6516C17.908 37.6516 17.8019 37.6655 17.6958 37.6921ZM13.6631 35.2259C12.8267 35.4878 12.3618 36.3837 12.6233 37.2277C12.8848 38.0767 13.7704 38.5424 14.6068 38.2766C15.4419 38.016 15.9106 37.1214 15.6491 36.2774C15.4381 35.5916 14.8102 35.1525 14.1343 35.1525C13.9789 35.1525 13.8197 35.1766 13.6631 35.2259ZM10.3429 31.9816C9.43831 32.3195 8.97339 33.3368 9.30945 34.2466C9.64677 35.169 10.6537 35.627 11.5545 35.2879C12.4628 34.9488 12.9265 33.9429 12.5892 33.0217C12.3277 32.3119 11.6606 31.8703 10.9493 31.8703C10.7484 31.8703 10.5425 31.9057 10.3429 31.9816ZM7.92605 28.0274C6.96335 28.445 6.51359 29.5712 6.93177 30.5493C7.34616 31.5223 8.47056 31.9702 9.43326 31.5514C10.3947 31.1313 10.8394 30.0026 10.4225 29.0283C10.1117 28.302 9.41305 27.8705 8.67902 27.8705C8.42761 27.8705 8.17241 27.9199 7.92605 28.0274ZM5.8958 26.2661C5.46625 25.388 5.82631 24.3327 6.68667 23.9037C6.93935 23.7772 7.20592 23.7165 7.4687 23.7165C8.10924 23.7165 8.7245 24.0758 9.03024 24.6996C9.45979 25.5727 9.10604 26.6318 8.24189 27.0633C7.37648 27.496 6.32535 27.1392 5.8958 26.2661ZM40.3911 23.5963C39.6306 24.0265 39.3564 25.0033 39.7847 25.7764C40.2155 26.5483 41.1833 26.8153 41.9426 26.3838C42.7069 25.951 42.9798 24.9805 42.549 24.2074C42.2584 23.6848 41.7202 23.39 41.1668 23.39C40.9041 23.39 40.6375 23.4558 40.3911 23.5963ZM6.02213 21.7894C5.59132 21.0175 5.86295 20.0445 6.62729 19.613C6.87113 19.4738 7.13644 19.4067 7.39795 19.4067H7.40427C7.9589 19.4067 8.49457 19.699 8.78641 20.2216C9.21596 20.9922 8.94433 21.969 8.17999 22.4005C7.41564 22.8345 6.45042 22.5574 6.02213 21.7894ZM40.3317 18.9335C39.4689 19.365 39.1138 20.4241 39.5409 21.2934C39.9729 22.174 41.019 22.5245 41.8844 22.093C42.7486 21.6628 43.1049 20.6075 42.674 19.7319C42.3696 19.1107 41.7493 18.7513 41.1049 18.7513C40.8447 18.7513 40.5806 18.8095 40.3317 18.9335ZM39.1416 14.4454C38.1752 14.8667 37.7292 15.9878 38.1461 16.9659C38.563 17.9402 39.6811 18.3894 40.6463 17.9706C41.6103 17.5505 42.0575 16.4193 41.6393 15.4475C41.3298 14.72 40.6299 14.2885 39.8959 14.2885C39.6432 14.2885 39.3867 14.3378 39.1416 14.4454ZM37.0179 10.7063C36.1121 11.0442 35.6459 12.0539 35.9845 12.9713C36.3192 13.8874 37.3262 14.353 38.2282 14.0152C39.1341 13.6786 39.599 12.6613 39.2629 11.7477C39.0001 11.0315 38.3331 10.5962 37.6256 10.5962C37.4234 10.5962 37.2175 10.6317 37.0179 10.7063ZM33.9643 7.7176C33.1317 7.97953 32.6605 8.87538 32.9233 9.72062C33.1835 10.5633 34.0755 11.034 34.9081 10.7708C35.7457 10.5064 36.2106 9.60927 35.9503 8.76783C35.7368 8.08202 35.1127 7.64421 34.4406 7.64421C34.2814 7.64421 34.1222 7.66825 33.9643 7.7176ZM30.2487 5.8196C29.569 5.99422 29.1559 6.69015 29.3315 7.37976C29.5046 8.06557 30.1994 8.48313 30.8791 8.30472C31.5576 8.1301 31.9694 7.43037 31.7951 6.74583C31.6473 6.16251 31.1305 5.77911 30.5646 5.77911C30.4597 5.77911 30.3548 5.79177 30.2487 5.8196ZM25.2306 6.17137C25.1169 5.59311 25.4858 5.04016 26.0556 4.92628C26.1263 4.91236 26.1958 4.90477 26.264 4.90477C26.7529 4.90477 27.1888 5.24894 27.2899 5.75634C27.4036 6.32827 27.0359 6.88501 26.4674 7.00016C25.8989 7.1153 25.3443 6.7433 25.2306 6.17137ZM21.0121 6.15239C20.9464 5.69814 21.2585 5.28057 21.7045 5.21351C21.7462 5.20845 21.7853 5.20465 21.8258 5.20465C22.2275 5.20465 22.5787 5.49948 22.6368 5.91198C22.7038 6.36623 22.3917 6.78379 21.9432 6.85085C21.496 6.91538 21.0791 6.60538 21.0121 6.15239ZM16.8544 7.55944C16.6863 7.16592 16.867 6.7142 17.2536 6.54591C17.3521 6.50288 17.4557 6.48264 17.5581 6.48264C17.8524 6.48264 18.1342 6.65599 18.2592 6.94828C18.426 7.33801 18.2453 7.79099 17.8587 7.96055C17.4721 8.12757 17.0199 7.94916 16.8544 7.55944ZM13.1009 10.0597C12.8204 9.69911 12.8823 9.18286 13.236 8.89816C13.3889 8.77795 13.5696 8.71848 13.7477 8.71848C13.989 8.71848 14.2278 8.82603 14.3895 9.03228C14.6712 9.3929 14.6093 9.91169 14.2531 10.1964C13.8993 10.4786 13.3826 10.4191 13.1009 10.0597ZM9.79459 13.3686C9.456 12.8878 9.57097 12.2298 10.0447 11.8919C10.2292 11.7591 10.4414 11.6958 10.6524 11.6958C10.9796 11.6958 11.3018 11.8514 11.5065 12.1437C11.8425 12.6195 11.7301 13.28 11.2563 13.6191C10.7851 13.957 10.1306 13.8443 9.79459 13.3686ZM7.41691 17.3506C7.03789 16.7483 7.21855 15.9612 7.80982 15.5804C8.02206 15.4463 8.25832 15.3805 8.49204 15.3805C8.91275 15.3805 9.32208 15.5905 9.56465 15.9764C9.94114 16.5762 9.76679 17.3721 9.17048 17.7492C8.57795 18.1275 7.79213 17.9491 7.41691 17.3506ZM39.009 30.0153C38.6312 29.4193 38.8094 28.6247 39.4032 28.2464C39.6141 28.1122 39.8479 28.0477 40.0791 28.0477C40.501 28.0477 40.9154 28.259 41.158 28.6437C41.5357 29.246 41.3551 30.0355 40.7626 30.4139C40.17 30.7922 39.3855 30.6176 39.009 30.0153ZM37.0659 33.853C36.7311 33.376 36.841 32.7155 37.3161 32.3777C37.4992 32.2461 37.7115 32.1815 37.9212 32.1815C38.2497 32.1828 38.5744 32.3372 38.7778 32.6282C39.1151 33.1103 39.0027 33.7695 38.5314 34.1074C38.0564 34.4439 37.402 34.3326 37.0659 33.853ZM34.1829 36.962C33.9037 36.6051 33.9643 36.0851 34.3168 35.8004C34.4697 35.6802 34.6503 35.622 34.8285 35.622C35.071 35.622 35.3111 35.7295 35.4728 35.9358C35.752 36.2964 35.6913 36.8139 35.3363 37.0974C34.9813 37.3808 34.4646 37.3238 34.1829 36.962ZM30.3157 39.0472C30.1489 38.6575 30.3283 38.2045 30.7149 38.0375C30.8134 37.9945 30.917 37.9742 31.0181 37.9742C31.3137 37.9742 31.5967 38.1476 31.7218 38.4386C31.8886 38.8296 31.7079 39.2838 31.3201 39.4521C30.9335 39.6192 30.485 39.442 30.3157 39.0472ZM25.9368 40.0848C25.8711 39.6331 26.1832 39.213 26.6279 39.1447C26.6683 39.1383 26.7075 39.1371 26.7454 39.1371C27.1509 39.1371 27.5034 39.4319 27.5615 39.8444C27.6285 40.2986 27.3164 40.7162 26.8666 40.7833C26.4219 40.8491 26.0025 40.5391 25.9368 40.0848Z" fill="white"/>
<path fill-rule="evenodd" clip-rule="evenodd" d="M23.7449 44.9048C23.2454 44.8714 22.8477 44.4568 22.8477 43.9458C22.8477 43.4139 23.2801 42.9832 23.8095 42.9832C24.3414 42.9832 24.7738 43.4139 24.7738 43.9446C24.7738 44.4568 24.3762 44.8714 23.8754 44.9048H23.7449ZM28.3515 43.4842C28.2061 42.9301 28.5341 42.3648 29.0834 42.2167C29.1729 42.1921 29.2636 42.181 29.3518 42.181C29.8091 42.181 30.2291 42.4858 30.3522 42.9474C30.4988 43.5015 30.172 44.0655 29.6178 44.2124C29.0685 44.3605 28.5006 44.0359 28.3515 43.4842ZM11.8091 40.8049C11.655 41.5231 12.1123 42.2241 12.8268 42.376C13.5414 42.5278 14.2435 42.0736 14.3951 41.3541C14.5479 40.642 14.0919 39.9372 13.3761 39.7854C13.2854 39.7645 13.1934 39.7558 13.1027 39.7558C12.4913 39.7558 11.9408 40.1841 11.8091 40.8049ZM33.224 41.3541C33.0711 40.642 33.5284 39.9372 34.2442 39.7854C34.3349 39.7645 34.4269 39.7558 34.5176 39.7558C35.129 39.7558 35.6795 40.1841 35.8112 40.8036C35.9653 41.5231 35.508 42.2241 34.7935 42.3747C34.0777 42.5278 33.3768 42.0736 33.224 41.3541ZM37.3683 37.9219C37.2291 37.0481 37.8268 36.2273 38.7017 36.0879C38.7849 36.0755 38.8694 36.0681 38.9514 36.0681C39.7244 36.0681 40.4078 36.6309 40.5334 37.4208C40.6725 38.2995 40.0736 39.1153 39.2025 39.2535C38.3289 39.3917 37.5075 38.8006 37.3683 37.9219ZM40.3644 33.4443C40.25 32.3459 41.0491 31.3623 42.1426 31.2475C42.2147 31.2401 42.2855 31.2364 42.3539 31.2364C43.3629 31.2364 44.2303 32.0003 44.3384 33.0259C44.4552 34.1293 43.6587 35.1055 42.5614 35.2215C41.4678 35.3363 40.4812 34.5464 40.3644 33.4443ZM0.92206 27.9535C0.858684 29.1766 1.79441 30.2046 3.00477 30.2688C4.22259 30.3317 5.25773 29.4074 5.32359 28.1843C5.38572 26.9699 4.45248 25.9332 3.23964 25.869L3.23585 25.8689H3.23579H3.23573H3.23567H3.23561H3.23556H3.23551H3.23547H3.23542H3.23538C3.19712 25.8677 3.15997 25.8665 3.12283 25.8665C1.95969 25.8665 0.982951 26.7798 0.92206 27.9535ZM42.2992 28.1843C42.2358 26.9699 43.1691 25.9332 44.3794 25.869C44.4192 25.8678 44.4577 25.8665 44.4962 25.8665C45.6606 25.8665 46.6361 26.7798 46.697 27.9535C46.7604 29.1766 45.8246 30.2046 44.613 30.2688C43.4002 30.3305 42.3638 29.4074 42.2992 28.1843ZM0 22.5244C0 23.8474 1.07864 24.9224 2.39959 24.9224C3.71806 24.9224 4.79173 23.8474 4.79173 22.522C4.79173 21.1928 3.71806 20.1277 2.39959 20.1277C1.07864 20.1277 0 21.1928 0 22.5244ZM45.2195 24.9224C43.8973 24.9224 42.8261 23.8474 42.8261 22.522C42.8261 21.1928 43.8973 20.1277 45.2232 20.1277C46.5454 20.1277 47.619 21.1928 47.619 22.5244C47.619 23.8474 46.5454 24.9224 45.2195 24.9224ZM3.00353 14.7788C1.79441 14.8417 0.856198 15.871 0.920817 17.0929C0.984193 18.3085 2.02431 19.2415 3.23839 19.1798C4.45248 19.1157 5.38572 18.0777 5.32235 16.8621C5.26021 15.681 4.28969 14.7751 3.12283 14.7751C3.08306 14.7751 3.04329 14.7763 3.00353 14.7788ZM44.3794 19.1798C43.1691 19.1157 42.2358 18.0777 42.2992 16.8621C42.3613 15.681 43.3331 14.7751 44.4937 14.7751C44.5335 14.7751 44.5733 14.7763 44.613 14.7788C45.8246 14.8417 46.7616 15.871 46.6982 17.0929C46.6349 18.3085 45.596 19.2415 44.3794 19.1798ZM42.1426 13.8013C41.0503 13.6853 40.25 12.7017 40.3643 11.6058C40.4737 10.5752 41.3436 9.81499 42.3501 9.81499C42.421 9.81499 42.4906 9.8187 42.5626 9.8261C43.6587 9.94212 44.4552 10.9196 44.3384 12.0217C44.2228 13.1176 43.2411 13.9174 42.1426 13.8013ZM37.3683 7.12575C37.2316 8.00077 37.8268 8.82396 38.7004 8.96219C39.5728 9.10041 40.3967 8.50185 40.5334 7.62806C40.6738 6.7481 40.0736 5.93355 39.2037 5.79532C39.1192 5.78175 39.0335 5.77558 38.9502 5.77558C38.176 5.77558 37.495 6.33218 37.3683 7.12575ZM7.08818 7.62682C6.949 6.74686 7.54548 5.93231 8.41908 5.79409C8.50482 5.78051 8.58932 5.77434 8.67382 5.77434C9.44801 5.77434 10.1277 6.33218 10.2533 7.12452C10.3912 7.99954 9.79471 8.82273 8.91987 8.96095C8.04628 9.09918 7.22612 8.50061 7.08818 7.62682ZM11.8078 4.24521C11.655 3.52569 12.1123 2.82839 12.8281 2.67659C12.9213 2.65561 13.0145 2.64573 13.1064 2.64573C13.7166 2.64573 14.2633 3.06905 14.3951 3.69231C14.5479 4.40812 14.0919 5.11036 13.3761 5.26216C12.6615 5.41396 11.9594 4.95856 11.8078 4.24521ZM28.354 1.56584C28.2061 2.11875 28.5341 2.68399 29.0847 2.83209C29.6364 2.98019 30.2055 2.65437 30.3534 2.10147C30.5 1.54856 30.1707 0.98455 29.6178 0.836449C29.5283 0.811768 29.4376 0.800659 29.3493 0.800659C28.8945 0.800659 28.477 1.1018 28.354 1.56584ZM17.2681 2.10023C17.1215 1.54733 17.4495 0.983318 18.0013 0.836452C18.092 0.811768 18.184 0.799427 18.2734 0.799427C18.7283 0.799427 19.1445 1.1018 19.2688 1.56461C19.4154 2.11875 19.0874 2.68399 18.5344 2.8321C17.9864 2.97896 17.4172 2.65438 17.2681 2.10023ZM23.8095 2.06568C23.2801 2.06568 22.8477 1.63619 22.8477 1.10303C22.8477 0.568638 23.2801 0.142849 23.8095 0.142849C24.3414 0.142849 24.7738 0.568638 24.7738 1.10303C24.7738 1.63619 24.3414 2.06568 23.8095 2.06568ZM33.2252 3.69231C33.0724 4.40812 33.5284 5.11036 34.2442 5.26216C34.9575 5.41396 35.6609 4.95856 35.8112 4.24521C35.9665 3.52569 35.508 2.82839 34.7935 2.67782C34.7003 2.65684 34.6058 2.64697 34.5126 2.64697C33.9025 2.64697 33.3569 3.06905 33.2252 3.69231ZM5.05766 9.8261C3.9579 9.94212 3.16508 10.9196 3.28064 12.0217C3.39497 13.1176 4.37543 13.9174 5.4752 13.8001C6.57123 13.6853 7.36902 12.7017 7.25345 11.6058C7.14534 10.5752 6.27796 9.81499 5.2714 9.81499C5.20057 9.81499 5.12973 9.8187 5.05766 9.8261ZM3.28064 33.0259C3.16508 34.1293 3.95914 35.1055 5.05766 35.2215C6.15369 35.3363 7.13789 34.5464 7.25345 33.4443C7.36902 32.3459 6.57123 31.3623 5.4752 31.2475C5.40312 31.2401 5.33229 31.2364 5.26146 31.2364C4.25241 31.2364 3.38751 32.0003 3.28064 33.0259ZM7.08942 37.4208C6.949 38.2995 7.54672 39.1165 8.41908 39.2535C9.29267 39.3917 10.1141 38.8006 10.2545 37.9219C10.3912 37.0493 9.79471 36.2273 8.91987 36.0891C8.83413 36.0768 8.75087 36.0694 8.66761 36.0694C7.89467 36.0694 7.21245 36.6322 7.08942 37.4208ZM17.2681 42.9498C17.1215 43.5015 17.4508 44.0655 18.0013 44.2124C18.5543 44.3605 19.1209 44.0359 19.2688 43.483C19.4154 42.9301 19.0874 42.3648 18.5344 42.2167C18.4462 42.1933 18.3567 42.181 18.2685 42.181C17.8136 42.181 17.3924 42.4858 17.2681 42.9498Z" fill="white"/>
</svg>
