<?xml version="1.0" encoding="UTF-8"?>
<svg width="213px" height="47px" viewBox="0 0 213 47" version="1.1" xmlns="http://www.w3.org/2000/svg" xmlns:xlink="http://www.w3.org/1999/xlink">
    <!-- Generator: Sketch 64 (93537) - https://sketch.com -->
    <title>thomson</title>
    <desc>Created with Sketch.</desc>
    <g id="Index" stroke="none" stroke-width="1" fill="none" fill-rule="evenodd">
        <g id="Desktop-HD" transform="translate(-809.000000, -7089.000000)" fill="#000000" fill-rule="nonzero">
            <g id="thomson" transform="translate(809.000000, 7089.000000)">
                <path d="M187.044649,27.1730634 C187.044649,28.3268153 187.090967,28.3573702 188.220467,28.3573702 L191.994071,28.3573702 C192.154199,28.3573702 192.290507,28.481423 192.290507,28.632364 L192.290507,29.5111221 C192.290507,29.7054511 192.215074,29.7745051 191.994071,29.8007822 C191.515009,29.8704474 190.545637,29.9932799 188.773638,29.9932799 C186.29628,29.9932799 184.986801,30.0091665 184.986801,27.1730634 L184.986801,22.8189945 C184.986801,19.9835026 186.29628,20.0000011 188.773638,20.0000011 C190.545637,20.0000011 191.515009,20.124055 191.994071,20.1912757 C192.215074,20.2175529 192.290507,20.2878291 192.290507,20.481547 L192.290507,21.360305 C192.290507,21.510635 192.154199,21.636521 191.994071,21.636521 L188.220467,21.636521 C187.090967,21.636521 187.044649,21.667687 187.044649,22.8189945 L187.044649,24.0809106 L191.81343,24.0809106 C191.978852,24.0809106 192.109204,24.2061856 192.109204,24.3552933 L192.109204,25.3489377 C192.109204,25.4986566 191.978852,25.6227093 191.81343,25.6227093 L187.044649,25.6227093 L187.044649,27.1730634 Z M209.080825,30 C207.763406,30 206.428782,29.7903936 205.712836,29.6382303 C205.56528,29.610731 205.429634,29.5160109 205.429634,29.3644587 L205.429634,28.3732587 C205.429634,28.2229288 205.56528,28.1110979 205.712836,28.1110979 L205.742612,28.1110979 C206.339454,28.180152 207.73363,28.3598146 209.111263,28.3598146 C210.435961,28.3598146 210.842237,27.9216578 210.842237,27.1235646 C210.842237,26.0914211 208.174314,25.5206561 206.872113,25.024445 C205.575867,24.5300672 205.116656,23.5810329 205.116656,22.6191656 C205.116656,21.1042552 206.436061,20.0042799 209.207208,20.0042799 C210.627189,20.0042799 211.927405,20.2536076 212.434257,20.3654384 C212.583799,20.3923267 212.701579,20.4888801 212.701579,20.6257659 L212.701579,21.6444653 C212.701579,21.78074 212.599679,21.8919597 212.448153,21.8919597 L212.4197,21.8919597 C211.435109,21.8100727 210.415449,21.6420209 209.120527,21.6420209 C208.015509,21.6420209 207.189723,22.000124 207.189723,22.6191656 C207.189723,23.0719888 207.74951,23.4881461 208.411198,23.7307518 C209.072885,23.9715242 209.939696,24.283795 210.930903,24.6516756 C212.186124,25.1209984 213,25.8035942 213,27.1235646 C213,28.5125889 212.061727,30 209.080825,30 M201.158442,23.1092658 C201.158442,22.0771223 200.290969,21.636521 198.798203,21.636521 C198.48721,21.636521 197.131412,21.6640204 196.862767,21.6915198 L196.862767,24.6755084 C197.104283,24.6895636 198.549408,24.717063 198.798203,24.717063 C200.336626,24.717063 201.158442,24.4439025 201.158442,23.2339296 L201.158442,23.1092658 Z M203.394284,29.8845026 L201.574643,29.8845026 C201.410545,29.8845026 201.352316,29.7445613 201.278869,29.6088977 L199.13037,26.2716948 L198.798203,26.2716948 C198.413101,26.2716948 197.207506,26.2325846 196.862767,26.216696 L196.862767,29.6088977 C196.862767,29.7592276 196.744987,29.8845026 196.582211,29.8845026 L195.093415,29.8845026 C194.929316,29.8845026 194.794994,29.7592276 194.794994,29.6088977 L194.794994,20.5903223 C194.794994,20.3141063 194.971664,20.2175529 195.270085,20.1778315 C196.04426,20.067834 197.713035,20.0000022 198.798203,20.0000022 C201.09492,20.0000022 203.212981,20.7571519 203.212981,23.1092658 L203.212981,23.2339296 C203.212981,24.6901747 202.422265,25.4882679 201.20079,25.9264248 L203.542502,29.6088977 C203.572277,29.6504523 203.572277,29.6895625 203.572277,29.7201174 C203.572277,29.8142264 203.512064,29.8845026 203.394284,29.8845026 M183.158558,21.7043528 L180.186259,21.7043528 L180.186259,29.6088977 C180.186259,29.7592276 180.049289,29.8845026 179.884529,29.8845026 L178.410289,29.8845026 C178.246191,29.8845026 178.111868,29.7592276 178.111868,29.6088977 L178.111868,21.7043528 L175.136922,21.7043528 C174.97547,21.7043528 174.840486,21.6096327 174.840486,21.4574695 L174.840486,20.3703272 C174.840486,20.2175529 174.97547,20.1087775 175.136922,20.1087775 L183.158558,20.1087775 C183.32001,20.1087775 183.454333,20.2175529 183.454333,20.3703272 L183.454333,21.4574695 C183.454333,21.6096327 183.32001,21.7043528 183.158558,21.7043528 M168.894562,29.9932779 C166.497269,29.9932779 164.432142,29.0301884 164.432142,26.097532 L164.432142,20.3703272 C164.432142,20.2175529 164.567788,20.1087775 164.731887,20.1087775 L166.204141,20.1087775 C166.369563,20.1087775 166.502562,20.2175529 166.502562,20.3703272 L166.502562,26.097532 C166.502562,27.6674412 167.287985,28.4111468 168.894562,28.4111468 C170.50511,28.4111468 171.289209,27.6674412 171.289209,26.097532 L171.289209,20.3703272 C171.289209,20.2175529 171.422208,20.1087775 171.586307,20.1087775 L173.061208,20.1087775 C173.22663,20.1087775 173.360953,20.2175529 173.360953,20.3703272 L173.360953,26.097532 C173.360953,29.0301884 171.294503,29.9932779 168.894562,29.9932779 M156.958383,27.1730634 C156.958383,28.3268153 157.006024,28.3573702 158.132878,28.3573702 L161.90582,28.3573702 C162.069918,28.3573702 162.204241,28.481423 162.204241,28.632364 L162.204241,29.5111221 C162.204241,29.7054511 162.128808,29.7745051 161.90582,29.8007822 C161.428743,29.8704474 160.458048,29.9932799 158.686049,29.9932799 C156.212661,29.9932799 154.901197,30.0091665 154.901197,27.1730634 L154.901197,22.8189945 C154.901197,19.9835026 156.212661,20.0000011 158.686049,20.0000011 C160.458048,20.0000011 161.428743,20.124055 161.90582,20.1912757 C162.128808,20.2175529 162.204241,20.2878291 162.204241,20.481547 L162.204241,21.360305 C162.204241,21.510635 162.069918,21.636521 161.90582,21.636521 L158.132878,21.636521 C157.006024,21.636521 156.958383,21.667687 156.958383,22.8189945 L156.958383,24.0809106 L161.727164,24.0809106 C161.891263,24.0809106 162.025585,24.2061856 162.025585,24.3552933 L162.025585,25.3489377 C162.025585,25.4986566 161.891263,25.6227093 161.727164,25.6227093 L156.958383,25.6227093 L156.958383,27.1730634 Z M150.571776,23.1092658 C150.571776,22.0771223 149.704304,21.636521 148.214183,21.636521 C147.900544,21.636521 146.544746,21.6640204 146.278086,21.6915198 L146.278086,24.6755084 C146.51497,24.6895636 147.95811,24.717063 148.214183,24.717063 C149.747313,24.717063 150.571776,24.4439025 150.571776,23.2339296 L150.571776,23.1092658 Z M152.807618,29.8845026 L150.987977,29.8845026 C150.825202,29.8845026 150.764327,29.7445613 150.690218,29.6088977 L148.543704,26.2716948 L148.214183,26.2716948 C147.825111,26.2716948 146.62084,26.2325846 146.278086,26.216696 L146.278086,29.6088977 C146.278086,29.7592276 146.158321,29.8845026 145.994222,29.8845026 L144.504102,29.8845026 C144.341327,29.8845026 144.207004,29.7592276 144.207004,29.6088977 L144.207004,20.5903223 C144.207004,20.3141063 144.383675,20.2175529 144.683419,20.1778315 C145.458917,20.067834 147.125046,20.0000022 148.214183,20.0000022 C150.508254,20.0000022 152.627639,20.7571519 152.627639,23.1092658 L152.627639,23.2339296 C152.627639,24.6901747 151.838246,25.4882679 150.616771,25.9264248 L152.954512,29.6088977 C152.985612,29.6504523 152.985612,29.6895625 152.985612,29.7201174 C152.985612,29.8142264 152.92606,29.8845026 152.807618,29.8845026 M123.856146,24.2923503 C123.856146,22.4761689 122.667093,21.6640204 121.206749,21.6640204 C119.746405,21.6640204 118.557353,22.4761689 118.557353,24.2923503 L118.557353,25.7003187 C118.557353,27.5171113 119.746405,28.3280375 121.206749,28.3280375 C122.667093,28.3280375 123.856146,27.5171113 123.856146,25.7003187 L123.856146,24.2923503 Z M121.206749,29.9932779 C118.74858,29.9932779 116.472376,28.7276952 116.472376,25.7003187 L116.472376,24.2923503 C116.472376,21.2655849 118.74858,20.0000022 121.206749,20.0000022 C123.664918,20.0000022 125.940461,21.2655849 125.940461,24.2923503 L125.940461,25.7003187 C125.940461,28.7276952 123.664918,29.9932779 121.206749,29.9932779 M110.674009,30 C109.358574,30 108.021965,29.7903936 107.30602,29.6382303 C107.15714,29.610731 107.022817,29.5160109 107.022817,29.3644587 L107.022817,28.3732587 C107.022817,28.2229288 107.15714,28.1110979 107.30602,28.1110979 L107.335796,28.1110979 C107.931314,28.180152 109.326151,28.3598146 110.703785,28.3598146 C112.03113,28.3598146 112.432774,27.9216578 112.432774,27.1235646 C112.432774,26.0914211 109.769482,25.5206561 108.467943,25.024445 C107.16905,24.5300672 106.710501,23.5810329 106.710501,22.6191656 C106.710501,21.1042552 108.031229,20.0042799 110.801714,20.0042799 C112.222357,20.0042799 113.522573,20.2536076 114.027441,20.3654384 C114.177644,20.3923267 114.294762,20.4888801 114.294762,20.6257659 L114.294762,21.6444653 C114.294762,21.78074 114.191539,21.8919597 114.043321,21.8919597 L114.013545,21.8919597 C113.028293,21.8100727 112.008632,21.6420209 110.711063,21.6420209 C109.611339,21.6420209 108.781583,22.000124 108.781583,22.6191656 C108.781583,23.0719888 109.342694,23.4893683 110.001734,23.7307518 C110.663422,23.9715242 111.533541,24.283795 112.523425,24.6516756 C113.781955,25.1209984 114.595168,25.8035942 114.595168,27.1235646 C114.595168,28.5125889 113.656896,30 110.674009,30 M136.759051,29.8845026 L135.251727,29.8845026 C134.893754,29.8845026 134.580114,29.8845026 134.345877,29.3895137 L130.303628,23.1367651 C130.260618,23.0548781 130.2143,23.0249343 130.170629,23.0249343 C130.127619,23.0249343 130.095196,23.0548781 130.095196,23.1367651 L130.095196,29.6088977 C130.095196,29.7592276 129.975431,29.8845026 129.811333,29.8845026 L128.54751,29.8845026 C128.380764,29.8845026 128.24975,29.7592276 128.24975,29.6088977 L128.24975,20.6587652 C128.24975,20.3556609 128.515087,20.1087775 128.843284,20.1087775 L130.453169,20.1087775 C130.766148,20.1087775 130.928923,20.1912757 131.110225,20.5512121 L135.312602,27.1730634 C135.341054,27.2402842 135.385388,27.2836721 135.431706,27.2836721 C135.461482,27.2836721 135.50383,27.2402842 135.50383,27.1590082 L135.50383,20.3703272 C135.50383,20.2175529 135.622933,20.1087775 135.788355,20.1087775 L137.070044,20.1087775 C137.234142,20.1087775 137.354569,20.2175529 137.354569,20.3703272 L137.354569,29.3332927 C137.354569,29.6370081 137.085924,29.8845026 136.759051,29.8845026 M104.02802,29.8845026 L102.522681,29.8845026 C102.389682,29.8845026 102.286459,29.7445613 102.286459,29.6088977 L102.286459,23.6586423 C102.286459,23.5627 102.270578,23.5217565 102.238156,23.5217565 C102.226907,23.5217565 102.196469,23.5627 102.164708,23.6036435 L99.7588128,28.5241998 C99.6708083,28.6739186 99.4782573,28.7588612 99.2850446,28.7588612 L98.5102086,28.7588612 C98.3163342,28.7588612 98.1224597,28.6739186 98.035117,28.5241998 L95.613341,23.6036435 C95.5822417,23.5627 95.5511424,23.5217565 95.5385703,23.5217565 C95.5087944,23.5217565 95.4929139,23.5627 95.4929139,23.6586423 L95.4929139,29.6088977 C95.4929139,29.7445613 95.3883673,29.8845026 95.2540447,29.8845026 L93.7506909,29.8845026 C93.6157066,29.8845026 93.4952795,29.8142264 93.4952795,29.6779517 L93.4952795,20.6587652 C93.4952795,20.3556609 93.7645863,20.1087775 94.0921216,20.1087775 L95.3142583,20.1087775 C95.5511424,20.1087775 95.7608973,20.2456634 95.8654439,20.4387701 L98.7245953,25.8145939 C98.7980426,25.9380356 98.8291419,26.0070896 98.8913405,26.0070896 C98.949569,26.0070896 98.979345,25.9380356 99.0547773,25.8145939 L101.911944,20.4387701 C102.01649,20.2456634 102.226907,20.1087775 102.463791,20.1087775 L103.686589,20.1087775 C104.014125,20.1087775 104.282108,20.3556609 104.282108,20.6587652 L104.282108,29.6779517 C104.282108,29.8142264 104.162343,29.8845026 104.02802,29.8845026 M89.101675,24.2923503 C89.101675,22.4761689 87.913946,21.6640204 86.4529402,21.6640204 C84.9932577,21.6640204 83.8042054,22.4761689 83.8042054,24.2923503 L83.8042054,25.7003187 C83.8042054,27.5171113 84.9932577,28.3280375 86.4529402,28.3280375 C87.913946,28.3280375 89.101675,27.5171113 89.101675,25.7003187 L89.101675,24.2923503 Z M86.4529402,29.9932779 C83.9947714,29.9932779 81.7192283,28.7276952 81.7192283,25.7003187 L81.7192283,24.2923503 C81.7192283,21.2655849 83.9947714,20.0000022 86.4529402,20.0000022 C88.9124324,20.0000022 91.1892988,21.2655849 91.1892988,24.2923503 L91.1892988,25.7003187 C91.1892988,28.7276952 88.9124324,29.9932779 86.4529402,29.9932779 M79.0685084,29.8845026 L77.5949305,29.8845026 C77.428847,29.8845026 77.2938627,29.7592276 77.2938627,29.6088977 L77.2938627,25.6227093 L72.5740463,25.6227093 L72.5740463,29.6088977 C72.5740463,29.7592276 72.4403854,29.8845026 72.2789337,29.8845026 L70.802709,29.8845026 C70.6372872,29.8845026 70.5036263,29.7592276 70.5036263,29.6088977 L70.5036263,20.3703272 C70.5036263,20.2175529 70.6372872,20.1087775 70.802709,20.1087775 L72.2789337,20.1087775 C72.4403854,20.1087775 72.5740463,20.2175529 72.5740463,20.3703272 L72.5740463,23.9440248 L77.2938627,23.9440248 L77.2938627,20.3703272 C77.2938627,20.2175529 77.428847,20.1087775 77.5949305,20.1087775 L79.0685084,20.1087775 C79.2306219,20.1087775 79.3656061,20.2175529 79.3656061,20.3703272 L79.3656061,29.6088977 C79.3656061,29.7592276 79.2306219,29.8845026 79.0685084,29.8845026 M68.317411,21.7043528 L65.3444494,21.7043528 L65.3444494,29.6088977 C65.3444494,29.7592276 65.2107885,29.8845026 65.044705,29.8845026 L63.5724504,29.8845026 C63.408352,29.8845026 63.2746911,29.7592276 63.2746911,29.6088977 L63.2746911,21.7043528 L60.298421,21.7043528 C60.1349842,21.7043528 60,21.6096327 60,21.4574695 L60,20.3703272 C60,20.2175529 60.1349842,20.1087775 60.298421,20.1087775 L68.317411,20.1087775 C68.4815095,20.1087775 68.6158321,20.2175529 68.6158321,20.3703272 L68.6158321,21.4574695 C68.6158321,21.6096327 68.4815095,21.7043528 68.317411,21.7043528" id="Shape" transform="translate(136.500000, 25.000000) scale(-1, -1) rotate(-180.000000) translate(-136.500000, -25.000000) "></path>
                <path d="M23.252693,31.8955177 C22.8268429,31.6697845 22.6747536,31.1435035 22.8995813,30.7294441 C23.1257315,30.3050656 23.6639953,30.1541468 24.0898454,30.3760103 C24.5156954,30.6056133 24.6717523,31.1267347 24.4442796,31.5485335 C24.2882228,31.8348922 23.9840441,32 23.6706079,32 C23.5290988,32 23.3849445,31.9664625 23.252693,31.8955177 M25.6107384,31.8594004 C25.2298539,31.6607551 25.0949573,31.1976794 25.2946572,30.8236072 C25.4956796,30.4521147 25.9678177,30.312805 26.3447346,30.5166099 C26.7309092,30.7191249 26.8658058,31.1809107 26.6647834,31.5536931 C26.5285643,31.8078042 26.2614161,31.9561432 25.9836879,31.9561432 C25.8580489,31.9561432 25.7297648,31.9238956 25.6107384,31.8594004 M21.0149964,31.2428261 C20.5336007,30.9861351 20.3510936,30.3927791 20.6155967,29.921964 C20.8774548,29.448569 21.4778769,29.2641127 21.9658852,29.5220936 C22.4486034,29.7787846 22.624498,30.3721406 22.365285,30.8429557 C22.1867453,31.1731713 21.8428913,31.3614973 21.4871345,31.3614973 C21.3284327,31.3614973 21.1657632,31.3228002 21.0149964,31.2428261 M27.8735628,31.1344741 C27.5402888,30.9525976 27.4120048,30.5411181 27.5905444,30.218642 C27.769084,29.8935861 28.192289,29.773625 28.5136603,29.9516318 C28.8522244,30.1283487 28.9738958,30.5346686 28.7913886,30.8584346 C28.6710397,31.0854578 28.4329869,31.2131583 28.1883215,31.2131583 C28.0811977,31.2131583 27.9727514,31.1873602 27.8735628,31.1344741 M19.2401804,29.7671754 C18.8077178,29.5349926 18.6490159,29.0203208 18.8817787,28.5933624 C19.1145414,28.1780132 19.6382576,28.0219348 20.0654302,28.247668 C20.4992153,28.4734013 20.6565947,28.9996823 20.426477,29.4137416 C20.2690976,29.7039701 19.9635965,29.8716577 19.6514828,29.8716577 C19.5112961,29.8716577 19.3697869,29.8381202 19.2401804,29.7671754 M29.8203058,29.7568562 C29.5306749,29.6007778 29.4261962,29.2537935 29.576963,28.976464 C29.7303748,28.6991346 30.0834865,28.5972321 30.3757624,28.7404115 C30.6574583,28.8977799 30.7685496,29.2447641 30.6138152,29.5246734 C30.505369,29.7168692 30.3030241,29.8278009 30.0967116,29.8278009 C30.002813,29.8278009 29.9089144,29.8045827 29.8203058,29.7568562 M31.2592029,27.8735957 C31.0317302,27.7433154 30.9378316,27.4453475 31.0687606,27.2183243 C31.1957221,26.9848516 31.4932882,26.9010078 31.7234059,27.0248386 C31.9627812,27.1499594 32.0513898,27.4363181 31.9217833,27.6697908 C31.8318522,27.8348986 31.6625702,27.9264818 31.4853531,27.9264818 C31.4099697,27.9264818 31.3319413,27.9097131 31.2592029,27.8735957 M17.9732104,27.8129702 C17.5949709,27.6104552 17.4547842,27.1435098 17.6531616,26.7733073 C17.8621191,26.4043946 18.3342572,26.2612152 18.7111741,26.4650201 C19.0907361,26.6623755 19.2362129,27.1293209 19.0312229,27.5033932 C18.8870687,27.7575043 18.6172755,27.9032635 18.3408697,27.9032635 C18.2165533,27.9032635 18.0909143,27.8735957 17.9732104,27.8129702 M31.9918766,25.8123285 C31.7022456,25.6639895 31.5937994,25.3092657 31.7511787,25.0306464 C31.8993005,24.752027 32.2616698,24.6488347 32.5354305,24.7920141 C32.8237389,24.9558319 32.9335077,25.305396 32.782741,25.5814356 C32.6756172,25.7736313 32.4732723,25.8819833 32.2669598,25.8819833 C32.1730612,25.8819833 32.0778401,25.858765 31.9918766,25.8123285 M17.354273,25.549188 C17.0262892,25.3763408 16.9046177,24.968731 17.0805123,24.6462549 C17.2630195,24.3173292 17.6743218,24.1973681 18.0075958,24.3727951 C18.3369022,24.549512 18.4625412,24.9622815 18.2840016,25.2821778 C18.1610076,25.5066211 17.9282448,25.6343217 17.6862245,25.6343217 C17.5738106,25.6343217 17.4600743,25.6059438 17.354273,25.549188 M31.9945216,23.6272304 C31.6612477,23.4466438 31.5435438,23.0441936 31.7154708,22.7126881 C31.8913654,22.3927918 32.3172154,22.2754105 32.6451993,22.4469678 C32.9771508,22.6236847 33.0961772,23.0312945 32.916315,23.3550605 C32.7946436,23.5807938 32.5632034,23.7072045 32.3198605,23.7072045 C32.2100917,23.7072045 32.1003229,23.6801165 31.9945216,23.6272304 M17.4521392,23.2015619 C17.1717659,23.0480633 17.0659646,22.6959194 17.2193764,22.4185899 C17.3754333,22.1361009 17.73119,22.0380681 18.0102408,22.1928567 C18.2945817,22.3347461 18.4096406,22.6920497 18.2482936,22.9693791 C18.1385248,23.1589951 17.938825,23.2699269 17.7298675,23.2699269 C17.6372914,23.2699269 17.5420703,23.2479985 17.4521392,23.2015619 M31.2869757,21.5388751 C30.9047687,21.3415197 30.7672271,20.8668349 30.9682494,20.4953424 C31.1758844,20.1264298 31.6480225,19.9871201 32.0196494,20.1857654 C32.408469,20.3921501 32.5420431,20.852646 32.3449883,21.2280082 C32.2021566,21.4834092 31.9336859,21.6304583 31.6559576,21.6304583 C31.5316411,21.6304583 31.4046796,21.6020804 31.2869757,21.5388751 M18.2694539,20.9751869 C18.0314011,20.852646 17.9454376,20.5611276 18.0737216,20.3212053 C18.2006831,20.0928923 18.4942816,20.0038889 18.7363019,20.1264298 C18.9717097,20.258 19.0603183,20.5482285 18.9307117,20.7804113 C18.8421032,20.9403595 18.6714987,21.0319427 18.4969266,21.0319427 C18.4202207,21.0319427 18.3421923,21.013884 18.2694539,20.9751869 M29.9287521,19.7523575 C29.500257,19.5240444 29.3442002,19.0003432 29.5743179,18.5837041 C29.7991456,18.1644851 30.3334419,18.0084067 30.7632595,18.2392996 C31.1891096,18.4560035 31.3464889,18.9887341 31.1150487,19.4040833 C30.9537018,19.6904421 30.6521682,19.8581297 30.341377,19.8581297 C30.2025129,19.8581297 30.0610037,19.8245921 29.9287521,19.7523575 M19.626355,19.2557443 C19.3406916,19.1086952 19.2348903,18.7552614 19.3883022,18.4779319 C19.5377464,18.1980227 19.8935031,18.0948303 20.177844,18.2496188 C20.4608624,18.3940881 20.5679861,18.7436522 20.4158968,19.0235615 C20.3127406,19.2144673 20.1103957,19.3215294 19.9014382,19.3215294 C19.8075396,19.3215294 19.713641,19.3008909 19.626355,19.2557443 M28.0309421,18.4740622 C27.5482239,18.2212409 27.3630717,17.6291748 27.6315424,17.1532001 C27.8934005,16.6798051 28.4964676,16.5056681 28.9818309,16.7559095 C29.4619041,17.0164702 29.6404437,17.612406 29.3825531,18.0754817 C29.202691,18.4056973 28.8601595,18.5953132 28.5057253,18.5953132 C28.3457009,18.5953132 28.1830314,18.5566161 28.0309421,18.4740622 M21.483167,18.0496836 C21.144603,17.8703869 21.0242541,17.4692267 21.2067612,17.1441707 C21.3786883,16.816535 21.7952807,16.6914143 22.1259096,16.8668413 C22.4591836,17.0512976 22.5835,17.4601973 22.4049604,17.7826734 C22.2793214,18.0032471 22.0425911,18.1309476 21.8032158,18.1309476 C21.6947695,18.1309476 21.5836782,18.1064394 21.483167,18.0496836 M25.9069819,17.6214354 C25.4784869,17.3982819 25.3290426,16.8771605 25.5631279,16.452782 C25.7853105,16.0374327 26.3156393,15.872325 26.7441344,16.1083775 C27.173952,16.3289511 27.3273638,16.8539422 27.0998911,17.2718713 C26.9385442,17.5608099 26.6370106,17.7246277 26.3248969,17.7246277 C26.1833877,17.7246277 26.040556,17.6910902 25.9069819,17.6214354 M23.6428351,17.4872853 C23.2632731,17.2860602 23.1283765,16.8178249 23.3293989,16.4489123 C23.5370338,16.07484 24.0091719,15.9355303 24.3887339,16.1354655 C24.7722635,16.331531 24.9111276,16.8010562 24.7061377,17.1777083 C24.5672736,17.4331093 24.2961578,17.5749988 24.0157845,17.5749988 C23.888823,17.5749988 23.7618615,17.5479108 23.6428351,17.4872853" id="Shape" transform="translate(25.000000, 24.000000) scale(-1, 1) rotate(-180.000000) translate(-25.000000, -24.000000) "></path>
                <path d="M23.6132638,33.2161583 C23.4334347,32.6379145 23.7782198,32.0352559 24.3826077,31.8617827 C24.9869956,31.6908796 25.6184255,32.026261 25.7969024,32.5980799 C25.9780836,33.1763238 25.6319465,33.7866923 25.0302627,33.9537405 C24.9207428,33.9858652 24.8112228,34 24.703055,34 C24.208187,34 23.7606425,33.6903183 23.6132638,33.2161583 M26.6649495,32.8640721 C26.4634869,32.1958792 26.8474828,31.5045565 27.551926,31.3066686 C28.2455524,31.1100657 28.9716291,31.4878517 29.1730918,32.1483347 C29.3840191,32.8190976 28.9865022,33.5181301 28.2888195,33.714733 C28.1657786,33.7481427 28.0427376,33.7648475 27.9210488,33.7648475 C27.3531675,33.7648475 26.8299055,33.4089063 26.6649495,32.8640721 M20.5494092,32.6096448 C20.3925658,32.0943653 20.7021963,31.557241 21.2389793,31.4056126 C21.7744102,31.2539842 22.3409393,31.5443911 22.4964306,32.0622406 C22.6492177,32.5736652 22.3409393,33.1133594 21.8095647,33.2649878 C21.7149178,33.2906875 21.620271,33.3035374 21.5269762,33.3035374 C21.0861922,33.3035374 20.6819148,33.0285503 20.5494092,32.6096448 M29.754494,31.4865667 C29.5746649,30.9096079 29.9235063,30.3043793 30.5265421,30.1334761 C31.13093,29.9625729 31.763712,30.2992394 31.9408369,30.8749132 C32.1206659,31.4518721 31.7758809,32.0583856 31.171493,32.2292888 C31.0646772,32.2601285 30.9578614,32.2742634 30.8510457,32.2742634 C30.3561777,32.2742634 29.9032248,31.9607267 29.754494,31.4865667 M17.9155218,31.0625212 C17.7911287,30.6551806 18.029098,30.23499 18.455009,30.1142013 C18.8768636,29.9959826 19.3203519,30.2298501 19.446097,30.6320508 C19.5691379,31.0355365 19.3257602,31.459582 18.9025535,31.5803707 C18.8281881,31.6022155 18.7524706,31.6124954 18.6781052,31.6124954 C18.331968,31.6124954 18.015577,31.3953327 17.9155218,31.0625212 M32.2288338,29.3265047 C32.0679341,28.8060852 32.3789167,28.2728159 32.9129955,28.1211875 C33.4524827,27.9708441 34.0108993,28.268961 34.171799,28.7816705 C34.3326987,29.2905251 34.0257724,29.8302193 33.4849331,29.9792778 C33.3902862,30.0062625 33.2942872,30.0191123 33.1996403,30.0191123 C32.7656168,30.0191123 32.3626915,29.7454102 32.2288338,29.3265047 M15.8319384,28.7701056 C15.7291789,28.4462891 15.9292895,28.1006277 16.2700182,28.0068237 C16.6120991,27.9104498 16.9663488,28.0967728 17.0704604,28.4231593 C17.175924,28.7469759 16.9744614,29.0913522 16.6350847,29.1915811 C16.5769445,29.207001 16.5174522,29.2147109 16.4579599,29.2147109 C16.1753713,29.2147109 15.9157685,29.0425227 15.8319384,28.7701056 M33.9879136,26.5470793 C33.8567601,26.1345987 34.1082504,25.7131231 34.5274008,25.5949044 C34.9533118,25.4754007 35.3940958,25.7066982 35.5184888,26.1127539 C35.6428819,26.5188096 35.4022084,26.9415701 34.9803537,27.0585038 C34.9046362,27.0803486 34.8275666,27.0906285 34.7518491,27.0906285 C34.405712,27.0906285 34.0866168,26.8747508 33.9879136,26.5470793 M14.6055853,25.9238609 C14.5312199,25.6771435 14.6718381,25.4175763 14.9287368,25.346902 C15.1869875,25.2749428 15.4533509,25.4175763 15.5290684,25.6617237 C15.6034338,25.9058711 15.4587593,26.1615834 15.2005085,26.2361126 C15.1545372,26.2476774 15.1099179,26.2541024 15.0652987,26.2541024 C14.8570755,26.2541024 14.6664297,26.1243188 14.6055853,25.9238609 M34.7342718,23.4554021 C34.6315124,23.1303006 34.8262145,22.7820693 35.1723517,22.6882653 C35.5157846,22.5906063 35.8727386,22.7794993 35.9741459,23.1084558 C36.0728491,23.4309874 35.8808512,23.7766487 35.5360661,23.8755927 C35.4765738,23.8910125 35.4157294,23.9000074 35.3575891,23.9000074 C35.0750006,23.9000074 34.8126935,23.7252493 34.7342718,23.4554021 M14.0268872,22.8925781 C13.9241278,22.5674766 14.1255904,22.2256702 14.4663192,22.1280113 C14.8070479,22.0303523 15.1653539,22.2141053 15.2667613,22.5443468 C15.3695208,22.8707334 15.1748186,23.2138247 14.8313857,23.3127687 C14.7718934,23.3307585 14.712401,23.3371834 14.6529087,23.3371834 C14.3730244,23.3371834 14.1147736,23.1598553 14.0268872,22.8925781 M34.4719648,20.3341703 C34.4016557,20.0913079 34.543626,19.8304557 34.7964684,19.7623514 C35.0560712,19.6903922 35.3210825,19.8291707 35.3940958,20.0758881 C35.4725175,20.3187505 35.3264909,20.5783177 35.0695922,20.650277 C35.0263251,20.6618419 34.9817058,20.6669818 34.9384387,20.6669818 C34.7315677,20.6669818 34.5341613,20.5359132 34.4719648,20.3341703 M14.4879527,19.8831401 C14.3689681,19.4796544 14.5974727,19.053039 15.0274399,18.9348202 C15.4452383,18.8127465 15.8914307,19.049184 16.0158237,19.4565247 C16.1388647,19.8600104 15.895487,20.2840559 15.4763365,20.3958497 C15.3979148,20.4189794 15.3194931,20.4292593 15.2410714,20.4292593 C14.8976385,20.4292593 14.5839517,20.2146666 14.4879527,19.8831401 M32.9319249,17.5778747 C32.8318696,17.2489182 33.0279239,16.9045418 33.3645963,16.8120228 C33.7120856,16.7143638 34.0717437,16.9032568 34.171799,17.2283584 C34.2705021,17.5521749 34.0758,17.9004062 33.7337191,17.9980652 C33.6742268,18.01477 33.6133824,18.0224799 33.552538,18.0224799 C33.2726536,18.0224799 33.0144029,17.8477218 32.9319249,17.5778747 M15.8292342,17.2193635 C15.6696866,16.7066539 15.9739087,16.1695296 16.5133959,16.0153313 C17.0555873,15.8624179 17.6126518,16.1579648 17.7749036,16.6719593 C17.9330991,17.1846688 17.6207644,17.7269331 17.0839814,17.8798464 C16.9893345,17.9068312 16.8933355,17.919681 16.7986886,17.919681 C16.3619609,17.919681 15.9617398,17.643409 15.8292342,17.2193635 M30.5562883,15.3664132 C30.4345994,14.9642124 30.6806813,14.538882 31.0998318,14.4180933 C31.5203343,14.2985895 31.9624704,14.532457 32.0855114,14.9320878 C32.2139607,15.3407134 31.9719351,15.7647589 31.5500805,15.8829777 C31.4730109,15.9048224 31.3972934,15.9151023 31.322928,15.9151023 C30.9767908,15.9151023 30.6590477,15.6966547 30.5562883,15.3664132 M18.0629005,15.1196958 C17.8871277,14.5478769 18.2265044,13.9413633 18.8335965,13.7691752 C19.4393365,13.6021269 20.0694143,13.9336534 20.2505954,14.5093273 C20.423664,15.0824312 20.0802311,15.6940847 19.473139,15.8624179 C19.3649711,15.8932576 19.2568032,15.9073924 19.1513396,15.9073924 C18.6578237,15.9073924 18.207575,15.5989957 18.0629005,15.1196958 M20.8265893,13.8449894 C20.6264788,13.1729415 21.0158831,12.4829038 21.7149178,12.2850159 C22.4085442,12.093553 23.1413815,12.4751939 23.3387878,13.1343919 C23.5429547,13.8000148 23.1494941,14.4977624 22.4504593,14.6943653 C22.3274183,14.72906 22.2030253,14.7444798 22.0813365,14.7444798 C21.5134552,14.7444798 20.9915453,14.3923935 20.8265893,13.8449894 M27.5046025,13.9375084 C27.3477591,13.4222288 27.6600938,12.8825346 28.1928205,12.7334762 C28.7336598,12.5818478 29.2934285,12.8748247 29.451624,13.3913892 C29.6098195,13.9002438 29.3055974,14.441223 28.7661102,14.5915664 C28.6701112,14.6198361 28.5727601,14.632686 28.4767612,14.632686 C28.0386813,14.632686 27.6330519,14.3576989 27.5046025,13.9375084 M24.2014265,13.3939591 C24.0256537,12.8208552 24.373143,12.2194816 24.9761788,12.0460085 C25.5819188,11.8725353 26.2160529,12.2053468 26.3877694,12.7797357 C26.5635422,13.3592645 26.2241655,13.9657781 25.6197776,14.1353963 C25.5102576,14.164951 25.4020898,14.1803708 25.295274,14.1803708 C24.8017581,14.1803708 24.3488052,13.8719741 24.2014265,13.3939591" id="Shape" transform="translate(25.000000, 23.000000) scale(-1, 1) rotate(-180.000000) translate(-25.000000, -23.000000) "></path>
                <path d="M25.7545807,37.6065179 C25.2934583,37.1026531 25.3151132,36.3065987 25.8093549,35.8300049 C26.301049,35.3534111 27.0768046,35.3767863 27.5366532,35.8819497 C28.0003233,36.3897104 27.9748469,37.181869 27.4844266,37.6597614 C27.2487702,37.88702 26.9481489,38 26.6488015,38 C26.3227039,38 25.9966063,37.8675407 25.7545807,37.6065179 M21.879624,37.2987448 C21.5153118,36.8987697 21.5331453,36.2741332 21.9229338,35.8975332 C22.3063533,35.524829 22.9177863,35.545607 23.2846461,35.9416863 C23.6451368,36.3377656 23.6285772,36.9675966 23.2426101,37.3403007 C23.0553587,37.520809 22.8184284,37.6078166 22.5814981,37.6078166 C22.3254606,37.6078166 22.069423,37.5039269 21.879624,37.2987448 M29.5518345,36.5468435 C29.0308426,35.9793463 29.0537714,35.0871939 29.6066087,34.5482663 C30.1594461,34.011936 31.0371072,34.0405056 31.5542777,34.6054056 C32.0739957,35.1742015 32.051067,36.0715483 31.4982296,36.6039828 C31.2294539,36.8637069 30.8893443,36.9922704 30.5517823,36.9922704 C30.1861963,36.9922704 29.8231579,36.8416304 29.5518345,36.5468435 M18.181728,35.7624766 C17.8874759,35.4404187 17.9014879,34.9378525 18.2135735,34.6300794 C18.5307544,34.3287994 19.0224484,34.3430842 19.3179744,34.6651422 C19.6135004,34.9859015 19.5969407,35.4923635 19.2861289,35.7949421 C19.1332707,35.9416863 18.940924,36.014409 18.7485774,36.014409 C18.5422188,36.014409 18.3358601,35.9287001 18.181728,35.7624766 M32.7644055,34.3339939 C32.1618892,33.683385 32.1860918,32.6574746 32.8268226,32.0393312 C33.4624582,31.4198892 34.4662274,31.4536533 35.0623746,32.1003664 C35.6648909,32.7626629 35.6355931,33.7898718 34.9999575,34.4067167 C34.694241,34.7028022 34.3044524,34.8469491 33.9172115,34.8469491 C33.4943037,34.8469491 33.0752173,34.6755311 32.7644055,34.3339939 M15.1105509,33.0652415 C14.8876327,32.8236981 14.899097,32.4483967 15.1334797,32.2211381 C15.37041,31.9912822 15.7372698,32.0055671 15.953819,32.2445133 C16.1754635,32.4847581 16.1652729,32.8626567 15.9321641,33.0899153 C15.8175204,33.1977008 15.6735788,33.2509443 15.5296373,33.2509443 C15.3767791,33.2509443 15.2239208,33.1886105 15.1105509,33.0652415 M35.4024842,30.8848575 C34.8802185,30.3186588 34.9044211,29.4226106 35.4610799,28.8862803 C36.0151911,28.3486513 36.8864831,28.3824155 37.4049274,28.9473154 C37.9284669,29.5161113 37.9042643,30.4056664 37.3450579,30.9471912 C37.0826512,31.2030195 36.746363,31.3302843 36.4075272,31.3302843 C36.0406674,31.3302843 35.6738076,31.180943 35.4024842,30.8848575 M12.6724618,29.7563561 C12.3743882,29.4342982 12.3909478,28.9304334 12.7081287,28.6239589 C13.0176667,28.3226789 13.5106345,28.3356651 13.8087081,28.6538272 C14.1004126,28.9771837 14.0889483,29.4823471 13.774315,29.7862244 C13.6240044,29.9329685 13.4316578,30.0056913 13.240585,30.0056913 C13.0329525,30.0056913 12.8265939,29.9212809 12.6724618,29.7563561 M36.8839355,26.8448486 C36.4177178,26.3396852 36.4419204,25.5436307 36.936162,25.0696342 C37.4265823,24.5891445 38.2036117,24.6190128 38.6647341,25.1228776 C39.1322256,25.6254438 39.1067493,26.4214983 38.6137814,26.8993907 C38.3768511,27.1266493 38.0736822,27.2396293 37.773061,27.2396293 C37.4482372,27.2396293 37.1234134,27.1084686 36.8839355,26.8448486 M11.4011906,25.8708831 C11.0432476,25.4696093 11.0521643,24.8501673 11.4432267,24.4748659 C11.8266461,24.0982659 12.4406268,24.1190439 12.8049389,24.5125259 C13.1705249,24.9086052 13.14887,25.5410335 12.7654506,25.9137376 C12.5781992,26.0942459 12.3399951,26.1838507 12.101791,26.1838507 C11.8457534,26.1838507 11.5897158,26.0786624 11.4011906,25.8708831 M37.1909258,22.4853791 C36.8278874,22.0880012 36.8495424,21.462066 37.2342356,21.0893619 C37.6265718,20.7114633 38.2303619,20.7322412 38.5972217,21.1309177 C38.9602601,21.526997 38.9475219,22.1516336 38.5539119,22.5282336 C38.3692082,22.7074432 38.1322779,22.7957494 37.8940738,22.7957494 C37.6380362,22.7957494 37.3807248,22.6918598 37.1909258,22.4853791 M11.3311306,21.8815205 C10.8700082,21.3789543 10.8929369,20.579004 11.384631,20.1037088 C11.8788727,19.6258164 12.6508069,19.6504902 13.1144769,20.1556536 C13.5781469,20.6582198 13.5552182,21.4555729 13.0622503,21.9360625 C12.8265939,22.1659184 12.5272464,22.2775998 12.2266252,22.2775998 C11.9005276,22.2775998 11.5731562,22.1438418 11.3311306,21.8815205 M36.1897042,18.3453764 C35.8941783,18.0246171 35.9081903,17.5155578 36.2215497,17.2090834 C36.5400044,16.9065048 37.0329723,16.9233868 37.3284982,17.248042 C37.6214765,17.5688013 37.6100122,18.076562 37.2953789,18.3817378 C37.1437945,18.5271833 36.9514479,18.5986075 36.7591012,18.5986075 C36.5527426,18.5986075 36.3438363,18.5128985 36.1897042,18.3453764 M12.5947588,18.0518882 C12.073767,17.4882868 12.0903266,16.5922386 12.6469854,16.053311 C13.2036442,15.5208765 14.0774839,15.5494462 14.5946543,16.1143462 C15.1143724,16.6805448 15.0901698,17.5804889 14.5386063,18.1116247 C14.2723782,18.3713489 13.9348162,18.4973151 13.5998019,18.4973151 C13.2329421,18.4973151 12.8660822,18.3453764 12.5947588,18.0518882 M14.9322163,14.8975386 C14.3347953,14.2365407 14.3628193,13.2184221 15.0010025,12.5963828 C15.6366381,11.9808366 16.6391335,12.0094063 17.2365545,12.6652097 C17.837797,13.3197145 17.8072253,14.3456248 17.1703159,14.9650669 C16.8633256,15.2611524 16.4722632,15.4078965 16.0837485,15.4091951 C15.6633883,15.4091951 15.2430281,15.2364786 14.9322163,14.8975386 M34.0407719,14.7546903 C33.8216751,14.5131469 33.8331395,14.1352483 34.0662483,13.9092883 C34.3019048,13.6859255 34.6674908,13.6937173 34.8865876,13.9391566 C35.1082321,14.1768041 35.0993154,14.5560014 34.8611112,14.7793641 C34.7515628,14.8884483 34.6076213,14.9429903 34.4649536,14.9429903 C34.3082739,14.9429903 34.1541418,14.8793579 34.0407719,14.7546903 M18.4428609,12.3899021 C17.9244166,11.8301966 17.9486192,10.9341484 18.505278,10.3965194 C19.0581154,9.85759186 19.9306812,9.88746014 20.4478517,10.4536587 C20.9675697,11.0263504 20.9484624,11.9172042 20.389256,12.4535345 C20.1255755,12.7093628 19.7854659,12.8366276 19.4479039,12.8366276 C19.4453563,12.8366276 19.4440825,12.8366276 19.4428086,12.8366276 C19.0772226,12.8366276 18.7129105,12.6859876 18.4428609,12.3899021 M30.680438,12.3366587 C30.3836382,12.0146008 30.3976502,11.5068401 30.7110096,11.2042615 C31.0281905,10.9003842 31.5224322,10.9159677 31.8154105,11.2380256 C32.1109365,11.5574863 32.0969245,12.0639483 31.7822912,12.3691242 C31.6319806,12.5158683 31.439634,12.5885911 31.2460135,12.5885911 C31.0396549,12.5885911 30.8332962,12.5041807 30.680438,12.3366587 M22.4579377,11.1198511 C21.9942677,10.6172849 22.0171964,9.816036 22.5101643,9.34593532 C23.0082274,8.86544568 23.777614,8.88882086 24.2400102,9.39528291 C24.704954,9.8978491 24.6858468,10.6965008 24.1916051,11.1704973 C23.9546748,11.4016518 23.6540535,11.5133332 23.3521585,11.5133332 C23.0247871,11.5133332 22.6986895,11.3808739 22.4579377,11.1198511 M26.7137663,11.0575173 C26.3507279,10.6653339 26.3698352,10.0342043 26.7558023,9.66020152 C27.144317,9.28490015 27.7544762,9.30827533 28.1187884,9.70565325 C28.4831006,10.0978367 28.4690886,10.7263691 28.0793,11.1016704 C27.8920487,11.2821787 27.6551184,11.3704849 27.4181881,11.3704849 C27.1608767,11.3704849 26.9048391,11.2652966 26.7137663,11.0575173" id="Shape" transform="translate(25.000000, 23.500000) scale(-1, 1) rotate(-180.000000) translate(-25.000000, -23.500000) "></path>
                <path d="M27.3583827,42.9774138 C26.7601091,42.8578399 26.3727568,42.2772423 26.4921462,41.6700726 C26.6115356,41.069546 27.1938906,40.6789379 27.7908377,40.7998404 C28.3877847,40.9207429 28.7738105,41.5053264 28.654421,42.105853 C28.5482971,42.6386211 28.0906377,43 27.5772633,43 C27.5056296,43 27.4326694,42.9920284 27.3583827,42.9774138 M22.789748,42.6758219 C22.3214762,42.6054062 21.9938186,42.1669686 22.0627992,41.6900016 C22.1331062,41.2143632 22.5708674,40.8888565 23.0404658,40.9566151 C23.5113906,41.0270308 23.8390482,41.4654684 23.7687411,41.9424354 C23.7077199,42.3755586 23.3389393,42.6851221 22.9170967,42.6851221 C22.8746471,42.6851221 22.8335241,42.6811363 22.789748,42.6758219 M31.7611988,42.0394231 C31.0475154,41.8560764 30.6137339,41.1253471 30.7981242,40.4012608 C30.9798614,39.6811602 31.7094633,39.2427226 32.4231467,39.4300551 C33.1355035,39.6134017 33.5679585,40.3481168 33.3848947,41.0668888 C33.2296885,41.6793728 32.6871299,42.0819382 32.092836,42.0819382 C31.9827324,42.0819382 31.8726289,42.0686523 31.7611988,42.0394231 M18.1163159,41.2768074 C17.7103919,41.1001037 17.5206954,40.625794 17.6971265,40.2125998 C17.8709044,39.8033913 18.3458089,39.6160589 18.7517329,39.7914339 C19.1576569,39.9694662 19.3473534,40.4451045 19.1722489,40.854313 C19.0409206,41.1612193 18.7451001,41.3432373 18.4360142,41.3432373 C18.3285638,41.3432373 18.2197868,41.3219797 18.1163159,41.2768074 M35.6625793,40.0465249 C34.7883835,39.771505 34.2935808,38.830857 34.569503,37.943353 C34.842772,37.0585062 35.7793156,36.5642675 36.6535114,36.840616 C37.5330134,37.1182932 38.0211834,38.0602697 37.7479143,38.9437879 C37.5237275,39.6638885 36.8684123,40.1235836 36.1626883,40.1235836 C35.9955431,40.1235836 35.8283979,40.0983403 35.6625793,40.0465249 M13.8978902,38.8069422 C13.5264565,38.5080075 13.4614556,37.9659392 13.7559494,37.5872886 C14.0517698,37.2099665 14.5943284,37.1475224 14.9657621,37.4437999 C15.3398489,37.7427346 15.4048498,38.2874601 15.1090294,38.6661108 C14.9392311,38.8826724 14.6885134,38.9956033 14.4351425,38.9956033 C14.2480991,38.9956033 14.0584026,38.9331591 13.8978902,38.8069422 M38.8688482,36.9083746 C37.9177126,36.5536387 37.428216,35.4934169 37.7837311,34.5301828 C38.1352666,33.5682772 39.1925262,33.0793529 40.1396821,33.4340888 C41.0908177,33.787496 41.5789878,34.8556895 41.2261257,35.8149378 C40.9502036,36.5669247 40.2497857,37.0239627 39.5069183,37.0239627 C39.2946704,37.0239627 39.0784429,36.9867619 38.8688482,36.9083746 M10.5470274,35.6634775 C10.0495716,35.3087417 9.92885561,34.6178703 10.2843707,34.1130027 C10.6372328,33.6134496 11.3243851,33.4952043 11.8191879,33.8499402 C12.3166438,34.2060047 12.4347066,34.8995332 12.0818446,35.3990864 C11.8669437,35.7059927 11.5286737,35.8694103 11.1850975,35.8694103 C10.9635638,35.8694103 10.7407036,35.8029804 10.5470274,35.6634775 M41.098777,32.9823652 C40.0839671,32.5399418 39.6156953,31.3628033 40.0534564,30.3357964 C40.4912176,29.3127753 41.6652135,28.8411228 42.6786969,29.280889 C43.6908538,29.7219838 44.1604521,30.9097511 43.7213644,31.9301149 C43.3963599,32.6940592 42.6614517,33.1471114 41.8907268,33.1471114 C41.625417,33.1471114 41.3561275,33.0952961 41.098777,32.9823652 M8.20036229,31.7906121 C7.57953737,31.3907038 7.38984086,30.5643154 7.78780556,29.9319024 C8.1817906,29.3034752 9.00690407,29.1161427 9.62905554,29.5133938 C10.2551867,29.9093162 10.4382504,30.7450048 10.0429388,31.3747607 C9.78824142,31.7799833 9.35843955,32.0005307 8.91669874,32.0005307 C8.67128718,32.0005307 8.42322252,31.9314435 8.20036229,31.7906121 M42.3483862,28.2698253 C41.4423532,27.8167731 41.069593,26.7047359 41.5179665,25.7919886 C41.9716463,24.8672838 43.0700288,24.499262 43.9787149,24.9523141 C44.8860744,25.4040377 45.2601612,26.5120891 44.807808,27.4314795 C44.4881097,28.0838215 43.8367741,28.4611435 43.1602342,28.4611435 C42.8869651,28.4611435 42.6097163,28.400028 42.3483862,28.2698253 M6.95871244,27.5563678 C6.15615031,27.1033156 5.87094228,26.0816231 6.32329548,25.2711779 C6.77299559,24.4647184 7.78647901,24.1737553 8.58904114,24.6294646 C9.39160328,25.0825168 9.67681131,26.1081951 9.22578465,26.9173117 C8.91935184,27.466023 8.35689507,27.7729294 7.77454007,27.7729294 C7.77188697,27.7729294 7.77056042,27.7729294 7.76790732,27.7729294 C7.49331168,27.7729294 7.2147364,27.7025136 6.95871244,27.5563678 M42.410734,23.3739388 C41.6121515,22.9222152 41.3242904,21.8965369 41.7739905,21.0847631 C42.2263437,20.2743178 43.2424802,19.9939835 44.0397361,20.4470357 C44.8422983,20.9014165 45.1288329,21.9204517 44.6764796,22.7322256 C44.3713734,23.2809369 43.8062635,23.5905004 43.2252351,23.5905004 C42.9493129,23.5905004 42.669411,23.5214133 42.410734,23.3739388 M7.02106025,23.0510893 C6.11768039,22.6006943 5.73961393,21.4926429 6.19064058,20.5705954 C6.64166724,19.6538622 7.74535599,19.2791973 8.65404204,19.7335781 C9.56140155,20.1866303 9.93283526,21.2986675 9.48180861,22.2154007 C9.16078375,22.8703999 8.5147544,23.2477219 7.84219407,23.2477219 C7.56627188,23.2477219 7.28637004,23.1839492 7.02106025,23.0510893 M8.3224048,18.7211859 C7.31157447,18.2827483 6.83932303,17.1002953 7.27841075,16.0732885 C7.71351881,15.051596 8.89414741,14.5812721 9.90497773,15.0210383 C10.9144815,15.462133 11.3814267,16.6472432 10.9436656,17.6702642 C10.6173345,18.4328799 9.88375295,18.8859321 9.11302799,18.8859321 C8.84904474,18.8859321 8.58108185,18.8341168 8.3224048,18.7211859 M41.3733727,18.4913383 C40.7498947,18.0940872 40.5628513,17.2597272 40.9594894,16.6339572 C41.354801,16.0015442 42.1785879,15.8181975 42.8007394,16.2154486 C43.4228909,16.6126996 43.6125874,17.4417452 43.2159492,18.0741583 C42.9612518,18.4780523 42.5261437,18.6999283 42.0830764,18.6999283 C41.8403179,18.6999283 41.5949064,18.6321697 41.3733727,18.4913383 M10.860093,14.5693147 C9.91028393,14.2145788 9.4221139,13.1463854 9.77497593,12.1911228 C10.1291645,11.2225743 11.186424,10.7416216 12.1322535,11.097686 C13.0860422,11.4537505 13.5728857,12.5099866 13.2186971,13.4772065 C12.9441014,14.2225504 12.2436836,14.6862314 11.4968365,14.6862314 C11.2859152,14.6862314 11.0696877,14.6490306 10.860093,14.5693147 M39.1819138,14.1534632 C38.6831313,13.7987274 38.5677216,13.1051988 38.9192571,12.6043171 C39.2721191,12.1007781 39.9592715,11.9838614 40.4580539,12.3372687 C40.9528567,12.6920046 41.0709195,13.3842046 40.7167309,13.8904007 C40.5031566,14.1959784 40.1622335,14.3580675 39.8173307,14.3593961 C39.5971236,14.3593961 39.3742634,14.2916375 39.1819138,14.1534632 M14.3462637,11.1627874 C13.4680883,10.8877674 12.9799183,9.9471195 13.2545139,9.06094412 C13.5291096,8.16945433 14.4590204,7.68052998 15.3371958,7.95953573 C16.2140447,8.23322708 16.7061944,9.17254641 16.4315987,10.0587218 C16.210065,10.7788223 15.5507702,11.2398461 14.8410665,11.2398461 C14.677901,11.2398461 14.5107558,11.2146027 14.3462637,11.1627874 M36.0326865,10.5596035 C35.6625793,10.2606688 35.598905,9.71461472 35.8920723,9.33994986 C36.1878927,8.95997061 36.7304512,8.90018366 37.1032115,9.19778979 C37.4759718,9.49539592 37.5396461,10.0387928 37.2464788,10.4174435 C37.0766805,10.6340051 36.8246362,10.746936 36.5699388,10.746936 C36.3828954,10.746936 36.1931989,10.6858204 36.0326865,10.5596035 M18.5806081,8.57334836 C17.8669247,8.38867313 17.4371229,7.6579438 17.6188601,6.93784326 C17.8005973,6.21109973 18.5275461,5.78063372 19.2412295,5.96398036 C19.9562394,6.14865559 20.3886943,6.87805632 20.2056306,7.60214265 C20.0530774,8.2106409 19.5078658,8.61586353 18.9135719,8.61586353 C18.8034683,8.61586353 18.6920382,8.60124894 18.5806081,8.57334836 M32.2506953,8.2106409 C31.8447713,8.03526586 31.6564014,7.55962749 31.8315059,7.15041907 C32.0092634,6.73589625 32.4801883,6.54989242 32.8861123,6.72526746 C33.2933628,6.9019711 33.4830593,7.37893806 33.3079549,7.78947508 C33.1766265,8.0950528 32.8794796,8.27707084 32.5690671,8.27707084 C32.4629432,8.27707084 32.3541662,8.25581326 32.2506953,8.2106409 M23.210264,7.20489162 C22.6146435,7.08398913 22.2272912,6.49541987 22.3466806,5.89622182 C22.46607,5.29038077 23.048425,4.90110133 23.6440455,5.02200382 C24.239666,5.14290631 24.6296714,5.72881837 24.5089555,6.33465942 C24.4028316,6.86078453 23.9425191,7.2261492 23.4264915,7.2261492 C23.3548579,7.2261492 23.2832242,7.21950621 23.210264,7.20489162 M27.9593094,7.04811696 C27.4923641,6.97637263 27.1647065,6.53527783 27.2336871,6.06096807 C27.3026676,5.5840011 27.7430819,5.2584944 28.2100271,5.32758154 C28.6822786,5.39799728 29.0099362,5.83643487 28.9396291,6.31340184 C28.8786078,6.74652504 28.5085007,7.05608856 28.0826784,7.05608856 C28.042882,7.05608856 28.0017589,7.05475996 27.9593094,7.04811696" id="Shape" transform="translate(25.500000, 24.000000) scale(-1, 1) rotate(-180.000000) translate(-25.500000, -24.000000) "></path>
                <path d="M23.9900835,45.9918112 C23.9900835,45.4319943 24.4441545,44.9810306 25,44.9810306 C25.5584551,44.9810306 26.0125261,45.4319943 26.0125261,45.9918112 C26.0125261,46.552924 25.5584551,47 25,47 C24.4441545,47 23.9900835,46.552924 23.9900835,45.9918112 M18.901357,46.2717197 C18.3220251,46.1175108 17.9775574,45.5252971 18.131524,44.9447462 C18.2881002,44.3628994 18.8856994,44.022085 19.4611169,44.1762938 C20.0417537,44.3317985 20.3862213,44.9253081 20.2322547,45.5071549 C20.1017745,45.9931071 19.664666,46.3105958 19.1871086,46.3105958 C19.0931628,46.3105958 18.9966075,46.2976371 18.901357,46.2717197 M29.7716597,45.505859 C29.6163883,44.9253081 29.9608559,44.3317985 30.5388831,44.1762938 C31.118215,44.0207891 31.7158142,44.3628994 31.8710856,44.9434503 C32.0250522,45.5240012 31.6792797,46.1162149 31.098643,46.2717197 C31.0046973,46.2976371 30.9094468,46.3093 30.8168058,46.3093 C30.3392484,46.3093 29.9008351,45.9931071 29.7716597,45.505859 M13.4694676,44.3395737 C12.7179019,44.1801814 12.2377349,43.4480135 12.3982255,42.6925198 C12.5574113,41.9435055 13.2946242,41.4653285 14.0448852,41.6247208 C14.7964509,41.7841132 15.2753132,42.5214646 15.1148225,43.2730707 C14.9765136,43.9274863 14.4024008,44.3719706 13.7617432,44.3719706 C13.6651879,44.3719706 13.5673278,44.3616036 13.4694676,44.3395737 M34.8864823,43.2730707 C34.7259916,42.5214646 35.2048539,41.7841132 35.9564196,41.6247208 C36.7053758,41.4653285 37.4438935,41.9435055 37.6017745,42.6925198 C37.7648747,43.4480135 37.2834029,44.1801814 36.533142,44.3382779 C36.4352818,44.3603077 36.3361169,44.3706747 36.2382568,44.3706747 C35.5975992,44.3706747 35.0247912,43.9274863 34.8864823,43.2730707 M8.84003132,41.0661998 C7.92275574,40.9210621 7.29645094,40.0657862 7.44258873,39.1418291 C7.58742171,38.2243514 8.44859081,37.5958532 9.36586639,37.7409909 C10.2844468,37.8861286 10.9107516,38.7504756 10.7659186,39.6692492 C10.6341336,40.5011994 9.9204071,41.0869337 9.10751566,41.0869337 C9.01878914,41.0869337 8.93006263,41.0804544 8.84003132,41.0661998 M39.236691,39.6679533 C39.0931628,38.7491797 39.7181628,37.8848328 40.6354384,37.7396951 C41.5514092,37.5945573 42.4164927,38.2230555 42.5600209,39.1405332 C42.7074635,40.0644903 42.0772443,40.9197662 41.1638831,41.0649039 C41.0751566,41.0791585 40.9851253,41.0856379 40.8977035,41.0856379 C40.0848121,41.0856379 39.3697808,40.5011994 39.236691,39.6679533 M42.3825678,34.9639361 C42.2625261,33.8132014 43.1028184,32.780391 44.249739,32.658579 C45.4031837,32.5367669 46.433977,33.3764923 46.5553236,34.5272271 C46.6779749,35.6844413 45.8415971,36.7107723 44.690762,36.8325843 C44.6150835,36.8403595 44.5420146,36.8442472 44.4676409,36.8442472 C43.4107516,36.8442472 42.4973904,36.0459897 42.3825678,34.9639361 M5.3105428,36.8325843 C4.15579332,36.7107723 3.32332985,35.6844413 3.44467641,34.5272271 C3.56471816,33.3764923 4.59420668,32.5367669 5.74895616,32.6598748 C6.89979123,32.780391 7.7374739,33.8132014 7.61612735,34.9639361 C7.5026096,36.0459897 6.59185804,36.8442472 5.53496868,36.8442472 C5.46059499,36.8442472 5.38622129,36.8403595 5.3105428,36.8325843 M44.4141441,29.4448151 C44.3475992,28.1683807 45.3275052,27.0785519 46.598382,27.0111666 C47.8757829,26.9463729 48.9665971,27.9260526 49.033142,29.202487 C49.0996868,30.4854008 48.1158664,31.5661584 46.8436848,31.6322479 C46.8019311,31.6348397 46.7601775,31.6361355 46.7184238,31.6361355 C45.499739,31.6361355 44.4793841,30.6849651 44.4141441,29.4448151 M3.15370564,31.6322479 C1.88413361,31.5661584 0.899008351,30.4854008 0.966858038,29.202487 C1.03340292,27.9260526 2.12552192,26.9463729 3.40031315,27.0111666 C4.67510438,27.0785519 5.65501044,28.1683807 5.58846555,29.4448151 C5.52322547,30.6849651 4.50417537,31.6361355 3.2789666,31.6361355 C3.23721294,31.6361355 3.19545929,31.6348397 3.15370564,31.6322479 M44.96738,23.5019438 C44.96738,22.1101767 46.092119,20.9814718 47.480428,20.9814718 C48.8726514,20.9814718 50,22.1101767 50,23.4993521 C50,24.8975985 48.8726514,26.0159365 47.4843424,26.0159365 C46.092119,26.0159365 44.96738,24.8975985 44.96738,23.5019438 M0,23.4993521 C0,22.1101767 1.13256785,20.9814718 2.51957203,20.9814718 C3.9039666,20.9814718 5.03131524,22.1101767 5.03131524,23.5019438 C5.03131524,24.8975985 3.9039666,26.0159365 2.51957203,26.0159365 C1.13256785,26.0159365 0,24.8975985 0,23.4993521 M46.598382,19.9875376 C45.3275052,19.9201522 44.3475992,18.8316193 44.4141441,17.5564807 C44.4819937,16.2722711 45.5701983,15.3029584 46.8436848,15.3677521 C48.1158664,15.4351374 49.098382,16.5145992 49.0318372,17.7988089 C48.9679019,19.0311837 47.9436326,19.9901293 46.7210334,19.9901293 C46.6805846,19.9901293 46.6401357,19.9888334 46.598382,19.9875376 M0.968162839,17.7988089 C0.901617954,16.5145992 1.88413361,15.4351374 3.15501044,15.3677521 C4.43371608,15.3016626 5.52061587,16.2722711 5.58977035,17.5564807 C5.65501044,18.8316193 4.67510438,19.9201522 3.40161795,19.9875376 C3.3598643,19.9888334 3.31941545,19.9901293 3.2789666,19.9901293 C2.05767223,19.9901293 1.03209812,19.0311837 0.968162839,17.7988089 M44.249739,14.3401252 C43.1015136,14.219609 42.2625261,13.1867986 42.3825678,12.0334721 C42.5052192,10.876258 43.5412317,10.0468996 44.6894572,10.1674157 C45.8415971,10.2892277 46.6779749,11.3142629 46.5553236,12.4727729 C46.4418058,13.5496429 45.5310543,14.351788 44.4715553,14.351788 C44.3997912,14.351788 44.3254175,14.3479004 44.249739,14.3401252 M3.44467641,12.4727729 C3.32332985,11.3142629 4.15709812,10.2892277 5.3105428,10.1674157 C6.46137787,10.0468996 7.49478079,10.876258 7.61612735,12.0334721 C7.7374739,13.1867986 6.89979123,14.219609 5.74895616,14.3401252 C5.67327766,14.3479004 5.59890397,14.351788 5.52453027,14.351788 C4.46503132,14.351788 3.55688935,13.5496429 3.44467641,12.4727729 M40.6367432,9.2577132 C39.7181628,9.11127961 39.0905532,8.24952439 39.236691,7.33204665 C39.3828288,6.40938543 40.2453027,5.78866249 41.1625783,5.93380022 C42.0772443,6.07893794 42.7061587,6.93550966 42.5600209,7.85817089 C42.4282359,8.68752929 41.710595,9.27844716 40.8990084,9.27844716 C40.8128914,9.27844716 40.7241649,9.27067192 40.6367432,9.2577132 M7.44389353,7.85817089 C7.29645094,6.93550966 7.92406054,6.07764206 8.84003132,5.93380022 C9.75730689,5.78866249 10.6197808,6.40938543 10.7672234,7.33204665 C10.9107516,8.24822851 10.2844468,9.11127961 9.36586639,9.25641733 C9.27583507,9.26937605 9.18841336,9.27715129 9.10099165,9.27715129 C8.28940501,9.27715129 7.57306889,8.68623342 7.44389353,7.85817089 M35.9564196,5.37527916 C35.2048539,5.21588685 34.7246868,4.47594364 34.8851775,3.72822521 C35.0456681,2.97273153 35.7815762,2.49585045 36.533142,2.65653864 C37.2834029,2.81463509 37.7635699,3.55069067 37.6017745,4.30618434 C37.4634656,4.95671234 36.8854384,5.4063801 36.243476,5.4063801 C36.1482255,5.4063801 36.0516701,5.397309 35.9564196,5.37527916 M12.3995303,4.30488847 C12.2377349,3.55069067 12.7179019,2.81463509 13.4681628,2.65524277 C14.2184238,2.49585045 14.9556367,2.97273153 15.1148225,3.72822521 C15.2753132,4.47594364 14.7964509,5.21588685 14.0448852,5.37527916 C13.9496347,5.397309 13.8530793,5.4063801 13.7578288,5.4063801 C13.1158664,5.4063801 12.5378392,4.95671234 12.3995303,4.30488847 M30.5375783,2.82241032 C29.9608559,2.66690562 29.6163883,2.07339601 29.7690501,1.49154926 C29.9256263,0.912294246 30.5219207,0.571479776 31.098643,0.726984477 C31.6805846,0.881193306 32.0237474,1.47340704 31.8697808,2.0552538 C31.7406054,2.53991012 31.2995825,2.85999063 30.8194154,2.85999063 C30.7267745,2.85999063 30.631524,2.84832777 30.5375783,2.82241032 M18.131524,2.05266205 C17.9775574,1.47340704 18.3233299,0.881193306 18.901357,0.726984477 C19.4819937,0.571479776 20.0769833,0.912294246 20.2322547,1.49284513 C20.3862213,2.07339601 20.0417537,2.66690562 19.4611169,2.82241032 C19.368476,2.8470319 19.2745303,2.85999063 19.1818894,2.85999063 C18.7043319,2.85999063 18.2620042,2.53991012 18.131524,2.05266205 M23.9900835,1.00689294 C23.9900835,0.47040172 24.40762,0.0349885577 24.9321503,0 L25.0691545,0 C25.5949896,0.0349885577 26.0125261,0.47040172 26.0125261,1.00818881 C26.0125261,1.56541399 25.5584551,2.0176735 25,2.0176735 C24.4441545,2.0176735 23.9900835,1.56541399 23.9900835,1.00689294" id="Shape" transform="translate(25.000000, 23.500000) scale(-1, 1) rotate(-180.000000) translate(-25.000000, -23.500000) "></path>
            </g>
        </g>
    </g>
</svg>