<?xml version="1.0" encoding="utf-8"?>
<!-- Generator: Adobe Illustrator 24.0.0, SVG Export Plug-In . SVG Version: 6.00 Build 0)  -->
<svg version="1.1" id="Layer_1" xmlns="http://www.w3.org/2000/svg" xmlns:xlink="http://www.w3.org/1999/xlink" x="0px" y="0px"
	 viewBox="0 0 180 33" style="enable-background:new 0 0 180 33;" xml:space="preserve">
<title>Group 6</title>
<path id="Combined-Shape" d="M66.7,0C76.8,0,84,6.7,84.2,16.4c0,4.6-1.7,8.8-4.9,11.9c-3.2,3.1-7.7,4.8-12.6,4.8
	c-4.9,0-9.4-1.7-12.6-4.8c-3.2-3-4.9-7.2-4.9-11.9c0-4.6,1.7-8.8,4.9-11.7C57.3,1.7,61.8,0,66.7,0z M66.7,8.9c-2,0-3.9,0.8-5.3,2.2
	c-1.4,1.4-2.1,3.3-2.1,5.3s0.8,3.8,2.1,5.3c1.4,1.4,3.3,2.2,5.3,2.2c1.9,0,3.8-0.8,5.2-2.1c1.4-1.4,2.2-3.3,2.2-5.3
	c0-2-0.8-3.8-2.1-5.3C70.6,9.7,68.7,8.9,66.7,8.9z"/>
<path id="Combined-Shape_1_" d="M116.6,0.8c3.9,0,7.1,1.1,9.2,3.1c2.1,2,3.3,5,3.3,8.7c0,7.5-4.7,12.1-12.2,12.2l-0.3,0h-5.4v7.3
	h-9.3V0.8H116.6z M116.6,8.9h-5.4V17h5.4c2.3,0,3.9-1.7,3.9-4.1C120.5,10.5,118.9,8.9,116.6,8.9z"/>
<path id="Combined-Shape-path" d="M31.7,0.8v1.1c0,5.9-6,11.8-10.3,16c-1.6,1.5-2.9,2.9-3.8,4l-0.2,0.2l-0.5,0.6l14.7,0l0,9.3H0V31
	c0-5.9,5.5-11.3,9.9-15.6c1.8-1.8,3.4-3.3,4.2-4.6l0.1-0.2l0.4-0.6L1,10.1V0.8H31.7z"/>
<path id="Combined-Shape_2_" d="M168,0.7l12,31.4h-9.7l-1.9-5h-13l-1.9,5h-9.7l12-31.4H168z M161.8,9.9l-3.7,9.8h7.4L161.8,9.9z"/>
</svg>
