<?xml version="1.0" encoding="UTF-8"?>
<svg width="180px" height="33px" viewBox="0 0 180 33" version="1.1" xmlns="http://www.w3.org/2000/svg" xmlns:xlink="http://www.w3.org/1999/xlink">
    <!-- Generator: Sketch 64 (93537) - https://sketch.com -->
    <title>Combined-Shape</title>
    <desc>Created with Sketch.</desc>
    <g id="Index" stroke="none" stroke-width="1" fill="none" fill-rule="evenodd">
        <g id="Desktop-HD" transform="translate(-775.000000, -950.000000)" fill="#FFFFFF">
            <path d="M841.706525,950 C851.772391,950 858.96031,956.740156 859.186235,966.381655 C859.186235,970.986285 857.447041,975.195841 854.289292,978.234331 C851.095917,981.307329 846.626495,983 841.706525,983 C836.78612,983 832.317567,981.307329 829.123757,978.234331 C825.966009,975.195841 824.227248,970.986285 824.227248,966.381655 C824.227248,961.794278 825.96514,957.627636 829.120716,954.649757 C832.299319,951.651084 836.768741,950 841.706525,950 Z M891.578785,950.809173 C895.457324,950.809173 898.647658,951.893968 900.804815,953.946763 C902.942422,955.980534 904.072486,958.972128 904.072486,962.597699 C904.072486,970.052482 899.411844,974.721107 891.885473,974.844279 L891.578785,974.846778 L886.182633,974.846778 L886.182633,982.190385 L876.852328,982.190385 L876.852328,950.809173 L891.578785,950.809173 Z M806.706523,950.809128 L806.706523,951.936396 C806.706523,957.873131 800.744253,963.707669 796.39127,967.96766 C794.833713,969.492155 793.474478,970.822027 792.555887,971.96663 L792.365879,972.209069 L791.889262,972.832429 L806.575313,972.828005 L806.566189,982.156275 L775,982.156275 L775,981.029008 C775,975.139611 780.48435,969.767837 784.891208,965.451217 C786.686633,963.691718 788.250822,962.15974 789.130128,960.873715 L789.27026,960.661658 L789.650424,960.065285 L776.018404,960.063516 L776.018404,950.809128 L806.706523,950.809128 Z M943.032446,950.686226 L955,982.077614 L945.256947,982.077614 L943.335708,977.038534 L930.306303,977.038534 L928.385063,982.077614 L918.642445,982.077614 L930.609565,950.686226 L943.032446,950.686226 Z M841.706525,958.928772 C839.692743,958.928772 837.817124,959.710957 836.424204,961.130217 C835.048229,962.532665 834.290074,964.397876 834.290074,966.381655 C834.290074,968.365433 835.048229,970.231087 836.424204,971.633092 C837.817124,973.052795 839.692743,973.834538 841.706525,973.834538 C843.653832,973.834538 845.496431,973.083321 846.894999,971.719805 C848.331366,970.318685 849.122976,968.422946 849.122976,966.381655 C849.122976,964.397876 848.364821,962.532665 846.988411,961.130217 C845.595491,959.710957 843.719872,958.928772 841.706525,958.928772 Z M936.821223,959.949904 L933.103004,969.70289 L940.539441,969.70289 L936.821223,959.949904 Z M891.585737,958.918596 L886.182633,958.918596 L886.182633,966.989972 L891.585737,966.989972 C893.871064,966.989972 895.467751,965.304822 895.467751,962.891461 C895.467751,960.514821 893.90756,958.918596 891.585737,958.918596 Z" id="Combined-Shape" style="mix-blend-mode: overlay;"></path>
        </g>
    </g>
</svg>