<?xml version="1.0" encoding="UTF-8"?>
<svg width="486px" height="1210px" viewBox="0 0 486 1210" version="1.1" xmlns="http://www.w3.org/2000/svg" xmlns:xlink="http://www.w3.org/1999/xlink">
    <!-- Generator: Sketch 64 (93537) - https://sketch.com -->
    <title>g</title>
    <desc>Created with Sketch.</desc>
    <defs>
        <linearGradient x1="50%" y1="0%" x2="50%" y2="100%" id="linearGradient-1">
            <stop stop-color="#FF5E72" offset="0%"></stop>
            <stop stop-color="#FF2147" offset="100%"></stop>
        </linearGradient>
    </defs>
    <g id="Index" stroke="none" stroke-width="1" fill="none" fill-rule="evenodd">
        <g id="Desktop-HD" transform="translate(0.000000, -2801.000000)" fill="url(#linearGradient-1)" fill-rule="nonzero">
            <path d="M73.9797048,4011 C208.992005,4011 308.388991,3987.01424 372.170664,3939.04273 C435.952337,3891.07121 467.843173,3826.10008 467.843173,3744.12933 C467.843173,3592.29715 362.161132,3516.38106 150.797048,3516.38106 L8.33579336,3516.38106 C-51.2558426,3516.38106 -81.0516605,3509.86066 -81.0516605,3496.81986 C-81.0516605,3483.77906 -60.5670357,3464.21786 -19.597786,3438.13626 C19.5092251,3445.58814 57.2195572,3449.31409 93.5332103,3449.31409 C181.058426,3449.31409 250.426814,3428.8214 301.638376,3387.83603 C352.849938,3346.85065 378.45572,3289.33141 378.45572,3215.27829 C378.45572,3141.22517 343.073186,3080.44573 272.308118,3032.93995 C265.790283,3001.26944 262.531365,2973.32487 262.531365,2949.10624 C262.531365,2887.62818 282.550431,2856.88915 322.588561,2856.88915 C350.52214,2856.88915 361.695572,2871.32717 356.108856,2900.20323 L317.001845,2923.95612 C317.932964,2947.24326 326.080258,2965.17436 341.443727,2977.74942 C356.807196,2990.32448 376.360701,2996.61201 400.104244,2996.61201 C423.847786,2996.61201 444.099631,2988.92725 460.859779,2973.55774 C477.619926,2958.18822 486,2934.66821 486,2902.99769 C486,2871.32717 475.524908,2846.40993 454.574723,2828.24596 C433.624539,2810.08199 405.923739,2801 371.472325,2801 C337.02091,2801 305.828413,2812.64357 277.894834,2835.93072 C249.961255,2859.21786 235.994465,2896.94303 235.994465,2949.10624 C235.994465,2969.59892 238.787823,2992.42032 244.374539,3017.57044 C201.54305,2994.28329 149.865929,2982.63972 89.3431734,2982.63972 C-11.2177122,2982.63972 -86.6383764,3004.0639 -136.918819,3046.91224 C-187.199262,3089.76059 -212.339483,3146.11547 -212.339483,3215.97691 C-212.339483,3326.82371 -158.334563,3397.61663 -50.3247232,3428.35566 C-109.916359,3464.6836 -151.351169,3495.18976 -174.629151,3519.87413 C-197.907134,3544.55851 -209.546125,3575.29754 -209.546125,3612.09122 C-209.546125,3648.88491 -193.251538,3679.85681 -160.662362,3705.00693 C-128.073186,3730.15704 -74.0682657,3742.7321 1.35239852,3742.7321 L139.206693,3742.73466 C208.654252,3742.88471 255.116412,3749.63713 278.593173,3762.99192 C302.336716,3776.49846 314.208487,3803.27868 314.208487,3843.33256 C314.208487,3883.38645 294.654982,3916.91994 255.54797,3943.93303 C216.440959,3970.94611 160.573801,3984.45266 87.9464945,3984.45266 C-31.2367774,3984.45266 -90.8284133,3944.39877 -90.8284133,3864.29099 C-90.8284133,3840.07236 -87.103936,3814.45651 -79.6549815,3787.44342 L-163.45572,3749.71824 C-235.151907,3770.21093 -271,3807.47036 -271,3861.49654 C-271,3961.16551 -156.006765,4011 73.9797048,4011 Z M85.8956044,3421 C64.0311355,3421 47.7490842,3409.81081 37.0494505,3387.43243 C26.3498168,3365.05405 21,3322.62838 21,3260.15541 L21.0021626,3182.22165 C21.127594,3112.69108 26.7092907,3066.17237 37.7472527,3042.66554 C48.9120879,3018.88851 65.4267399,3007 87.2912088,3007 C109.155678,3007 124.739927,3018.4223 134.043956,3041.26689 C143.347985,3064.11149 148,3111.89865 148,3184.62838 L148,3184.62838 L148,3253.16216 C148,3321.22973 143.115385,3366.21959 133.346154,3388.13176 C123.576923,3410.04392 107.760073,3421 85.8956044,3421 Z" id="g" style="mix-blend-mode: multiply;"></path>
        </g>
    </g>
</svg>