<?xml version="1.0" encoding="UTF-8"?>
<svg width="328px" height="425px" viewBox="0 0 328 425" version="1.1" xmlns="http://www.w3.org/2000/svg" xmlns:xlink="http://www.w3.org/1999/xlink">
    <title>gianni</title>
    <g id="Experiment" stroke="none" stroke-width="1" fill="none" fill-rule="evenodd">
        <g id="Mobile-Portrait" transform="translate(-24.000000, -117.000000)" fill="#000000" fill-rule="nonzero">
            <path d="M86.4992004,335.52552 C108.95864,335.52552 125.996836,330.508741 137.613788,320.475182 C149.23074,310.441624 155.039216,295.700011 155.039216,276.250343 L155.039216,276.250343 L155.039216,166.035562 L113.218189,166.035562 L113.218189,180.831202 L113.009084,180.503568 C110.270582,176.299661 106.457743,172.684616 101.570569,169.658433 L101.13656,169.392945 C93.8566032,164.993616 85.6472906,162.793951 76.5086219,162.793951 C66.440597,162.793951 57.4180979,165.26375 49.4411243,170.203348 C41.4641508,175.142946 35.22972,182.012074 30.737832,190.810733 C26.245944,199.609393 24,209.874495 24,221.60604 C24,233.491948 26.245944,243.872822 30.737832,252.748662 C35.22972,261.624502 41.4641508,268.45504 49.4411243,273.240276 C57.4180979,278.025511 66.440597,280.418129 76.5086219,280.418129 C82.5494368,280.418129 88.2417432,279.260411 93.585541,276.944974 C98.9293388,274.629538 103.537396,271.696651 107.409714,268.146315 C109.561001,266.173906 111.401547,264.201497 112.931351,262.229089 L113.218189,261.854502 L113.218189,279.491955 C113.218189,287.981889 111.014389,294.275567 106.606788,298.372989 L106.364188,298.594306 C101.794854,302.684911 94.708513,304.730213 85.1051662,304.730213 C78.5996732,304.730213 71.6682253,303.88122 64.3108226,302.183233 C56.9534198,300.485246 49.7896329,298.015447 42.8194618,294.773836 L42.8194618,294.773836 L36.5463079,325.337599 C50.951328,332.129546 67.6022922,335.52552 86.4992004,335.52552 Z M89.6352941,249.561437 C82.3856209,249.561437 76.6013072,247.092222 72.2823529,242.153792 C67.9633987,237.215362 65.8039216,230.502184 65.8039216,222.014258 C65.8039216,213.526332 67.9248366,206.890316 72.1666667,202.106213 C76.4084967,197.322109 82.2313725,194.930057 89.6352941,194.930057 C97.1934641,194.930057 103.01634,197.36069 107.103922,202.221957 C111.191503,207.083224 113.235294,213.680657 113.235294,222.014258 C113.235294,230.65651 111.152941,237.40827 106.988235,242.269536 C102.823529,247.130803 97.0392157,249.561437 89.6352941,249.561437 Z M212.921569,154.759924 L212.921569,117 L168.705882,117 L168.705882,154.759924 L212.921569,154.759924 Z M212.117647,283.304348 L212.117647,166.007561 L170.313725,166.007561 L170.313725,283.304348 L212.117647,283.304348 Z M274.526741,285.714556 C283.495701,285.714556 291.575497,283.627225 298.766129,279.452563 C303.841869,276.505742 307.781106,272.788512 310.583839,268.30087 L310.71131,268.093616 L310.711856,283.85915 L352,283.85915 L352,166.04091 L310.711856,166.04091 L310.71131,180.964554 L310.513534,180.646429 C307.79532,176.361989 304.022419,172.70313 299.19483,169.669851 L298.766129,169.403832 C291.575497,164.997245 283.495701,162.793951 274.526741,162.793951 C264.47532,162.793951 255.54502,165.422442 247.735839,170.679424 C239.926658,175.936405 233.779828,183.242064 229.295348,192.596399 C224.810867,201.950735 222.568627,212.812587 222.568627,225.181956 C222.568627,237.396708 224.772208,248.065289 229.17937,257.187698 C233.586531,266.310108 239.733361,273.345187 247.619861,278.292934 C255.50636,283.240682 264.47532,285.714556 274.526741,285.714556 Z M286.998342,254.381853 C279.420414,254.381853 273.62098,251.885492 269.600039,246.89277 C265.579098,241.900048 263.568627,234.718209 263.568627,225.347255 C263.568627,215.669055 265.656424,208.179972 269.832016,202.880006 C274.007609,197.58004 279.729717,194.930057 286.998342,194.930057 C294.421617,194.930057 300.143726,197.464823 304.164667,202.534356 C308.185608,207.603889 310.196078,215.054566 310.196078,224.886388 C310.196078,234.410965 308.146945,241.70802 304.048678,246.777553 C299.950411,251.847086 294.266966,254.381853 286.998342,254.381853 Z M234.956952,413.455577 L234.956952,348.121396 C234.956952,341.195511 237.842629,335.616326 243.613982,331.383841 C249.385336,327.151355 257.003522,325.035113 266.468542,325.035113 C274.317583,325.035113 280.088936,326.612676 283.782602,329.767801 C287.476268,332.922926 289.323102,338.11734 289.323102,345.351042 L289.323102,345.351042 L289.323102,413.455577 L352,413.455577 L352,343.504139 C352,309.798166 331.338555,292.94518 290.015664,292.94518 C276.39527,292.94518 264.333141,295.061422 253.829278,299.293907 C245.235208,302.75685 237.993352,307.378876 232.103709,313.159987 L231.646436,313.613559 L228.377609,296.177259 L169.509804,296.177259 C170.664075,301.717967 171.414351,307.335629 171.760632,313.030246 C172.106913,318.724862 172.280054,324.342524 172.280054,329.883232 L172.280054,329.883232 L172.280054,413.455577 L234.956952,413.455577 Z M216.549131,542 L216.549131,476.665819 C216.549131,469.739934 218.481391,464.160749 222.345909,459.928264 C226.210428,455.695779 231.311592,453.579536 237.649403,453.579536 C242.905148,453.579536 246.769667,455.157099 249.242959,458.312224 C251.716251,461.46735 252.952897,466.661763 252.952897,473.895465 L252.952897,473.895465 L252.952897,542 L294.921569,542 L294.921569,472.048563 C294.921569,438.34259 281.086592,421.489603 253.416639,421.489603 C244.296375,421.489603 236.219531,423.605846 229.186107,427.838331 C223.431488,431.301273 218.582315,435.9233 214.63859,441.70441 L214.332125,442.159522 L212.14358,424.721683 L172.72549,424.721683 C173.498394,430.262391 174.000781,435.880053 174.232652,441.574669 C174.464524,447.269286 174.580459,452.886948 174.580459,458.427656 L174.580459,458.427656 L174.580459,542 L216.549131,542 Z M352,542 L352,424.703214 L310.196078,424.703214 L310.196078,542 L352,542 Z" id="gianni"></path>
        </g>
    </g>
</svg>