<?xml version="1.0" encoding="UTF-8"?>
<svg width="152px" height="185px" viewBox="0 0 152 185" version="1.1" xmlns="http://www.w3.org/2000/svg" xmlns:xlink="http://www.w3.org/1999/xlink">
    <title>Group 28</title>
    <g id="Experiment" stroke="none" stroke-width="1" fill="none" fill-rule="evenodd">
        <g id="Group-28">
            <g id="Group-8">
                <circle id="Oval" fill="#F2F4F4" cx="47" cy="80" r="47"></circle>
                <circle id="Oval-Copy-2" fill-opacity="0.1" fill="#9A9849" cx="126.5" cy="25.5" r="25.5"></circle>
            </g>
            <path d="M88.1915503,168.904921 L89.5641172,170.292266 C90.1452943,170.879701 90.1452943,171.829595 89.5641172,172.41078 L77.5510648,184.559424 C76.9698878,185.146859 76.0301122,185.146859 75.4551179,184.559424 L63.4358828,172.41078 C62.8547057,171.823346 62.8547057,170.873452 63.4358828,170.292266 L64.8084497,168.904921 C65.3958095,168.311238 66.3541333,168.323736 66.9291275,168.929919 L74.0269063,176.460328 L74.0269063,158.499833 C74.0269063,157.668675 74.6884589,157 75.5107625,157 L77.4892375,157 C78.3115411,157 78.9730937,157.668675 78.9730937,158.499833 L78.9730937,176.460328 L86.0708725,168.929919 C86.6458667,168.317487 87.6041905,168.304988 88.1915503,168.904921 Z" id="Path" fill="#F2F4F4" fill-rule="nonzero"></path>
        </g>
    </g>
</svg>