<svg width="64" height="18" viewBox="0 0 64 18" fill="none" xmlns="http://www.w3.org/2000/svg">
<g style="mix-blend-mode:multiply">
<rect x="16" y="5.00024" width="32" height="8" fill="#41B9CA" fill-opacity="0.24"/>
</g>
<g style="mix-blend-mode:multiply">
<rect y="8.00024" width="64" height="2" fill="#41B9CA" fill-opacity="0.24"/>
</g>
<g style="mix-blend-mode:multiply">
<path d="M43.256 6.99215C43.256 7.08815 43.2 7.14415 43.088 7.16015C42.992 7.17615 42.624 7.20015 41.984 7.23215C41.488 7.24815 41.168 7.30415 41.024 7.40015C40.88 7.49615 40.776 7.74415 40.712 8.14415C40.344 10.1442 39.648 11.9442 38.624 13.5442C38.944 14.0562 39.176 14.4562 39.32 14.7442C39.704 15.5122 40.072 15.9922 40.424 16.1842C40.792 16.3762 41.52 16.4962 42.608 16.5442C42.944 16.5602 43.112 16.6482 43.112 16.8082C43.112 16.9362 43 17.0002 42.776 17.0002C42.376 17.0002 41.64 16.9762 40.568 16.9282C40.2 16.9122 39.952 16.9042 39.824 16.9042C39.296 16.9042 38.72 16.9362 38.096 17.0002C38.032 16.8242 37.76 16.3122 37.28 15.4642L37.16 15.2722C35.88 16.6322 34.208 17.3122 32.144 17.3122C30.56 17.3122 29.272 16.8882 28.28 16.0402C27.288 15.1922 26.792 14.0882 26.792 12.7282C26.792 10.4562 28.2 8.66415 31.016 7.35215C30.984 7.30415 30.88 7.19215 30.704 7.01615C29.888 6.16815 29.376 5.57615 29.168 5.24015C28.976 4.88815 28.88 4.43215 28.88 3.87215C28.88 2.73615 29.248 1.81615 29.984 1.11215C30.736 0.408152 31.704 0.0561523 32.888 0.0561523C34.024 0.0561523 34.936 0.352152 35.624 0.944152C36.328 1.52015 36.68 2.28015 36.68 3.22415C36.68 4.74415 35.568 5.95215 33.344 6.84815C33.44 6.96015 33.84 7.42415 34.544 8.24015C35.952 9.85615 37.192 11.4402 38.264 12.9922C39.4 11.1682 39.968 9.47215 39.968 7.90415C39.968 7.55215 39.896 7.35215 39.752 7.30415C39.608 7.24015 39.096 7.20815 38.216 7.20815C37.736 7.20815 37.496 7.12815 37.496 6.96815C37.496 6.84015 37.632 6.77615 37.904 6.77615H41.792C42.528 6.77615 42.928 6.78415 42.992 6.80015C43.168 6.84815 43.256 6.91215 43.256 6.99215ZM34.832 3.46415C34.832 2.56815 34.632 1.84015 34.232 1.28015C33.848 0.720152 33.344 0.440152 32.72 0.440152C32.08 0.440152 31.552 0.656152 31.136 1.08815C30.72 1.50415 30.512 2.03215 30.512 2.67215C30.512 3.85615 31.376 5.14415 33.104 6.53615C34.256 5.91215 34.832 4.88815 34.832 3.46415ZM36.872 14.7922C35.896 13.0962 34.032 10.7122 31.28 7.64015C30.496 8.23215 29.936 8.84015 29.6 9.46415C29.28 10.0882 29.12 10.8402 29.12 11.7202C29.12 13.0802 29.496 14.2162 30.248 15.1282C31.016 16.0402 31.968 16.4962 33.104 16.4962C34.528 16.4962 35.784 15.9282 36.872 14.7922Z" fill="#3CAAB9" fill-opacity="0.63"/>
</g>
</svg>
