<svg width="581" height="180" viewBox="0 0 581 180" fill="none" xmlns="http://www.w3.org/2000/svg">
<mask id="mask0" mask-type="alpha" maskUnits="userSpaceOnUse" x="0" y="0" width="581" height="180">
<path d="M0 0.785645H580.24V179.996H0" fill="white"/>
</mask>
<g mask="url(#mask0)">
<path fill-rule="evenodd" clip-rule="evenodd" d="M547.97 59.319C549.91 59.319 551.09 60.669 551.57 62.486C552.6 66.333 547.58 75.708 530.03 86.478C530.42 73.995 537.97 59.319 547.97 59.319V59.319ZM494.25 59.319C497.18 59.319 497.37 62.203 497.51 63.236C498.25 68.681 493.22 78.328 476.76 83.861C478.52 72.326 486.1 59.319 494.25 59.319V59.319ZM423.26 13.922C428.82 13.922 424.26 32.868 406.58 59.403C410.63 24.238 416.48 13.922 423.26 13.922ZM362.23 59.319C363.88 59.319 364.29 60.628 364.51 61.37C365.22 63.795 362.67 73.346 343.59 86.698C344.68 73.959 352.44 59.319 362.23 59.319V59.319ZM283.18 166.869C281.2 166.869 279.85 165.609 279.85 163.129C279.85 151.719 297.67 136.129 297.86 136.079C295.43 151.419 289.21 166.869 283.18 166.869V166.869ZM577.3 91.583C574.29 89.588 570.23 90.405 568.21 93.404C567.88 93.895 559.94 105.469 546.1 105.469C540.66 105.469 536.54 103.789 533.86 100.469C533.68 100.249 533.51 100.009 533.33 99.773C533.4 99.743 533.45 99.709 533.51 99.675C566.04 80.963 565.85 65.065 564.26 59.099C562.35 51.959 555.96 47.346 547.97 47.346C529.38 47.346 516.89 68.102 516.89 87.486C516.89 89.95 517.12 92.309 517.51 94.568C510.92 99.441 500.68 105.469 491.69 105.469C486.45 105.469 482.51 103.919 479.99 100.839C479.09 99.747 478.4 98.524 477.89 97.257C502.8 90.032 512.24 74.132 510.51 61.459C509.38 53.149 503.18 47.346 495.44 47.346C478.11 47.346 465.58 65.549 463.55 83.609C460.24 83.264 457.23 82.289 454.57 80.646C455.01 77.781 455.23 74.967 455.23 72.293C455.23 66.407 454.11 61.279 451.98 57.456C449.08 52.227 444.37 49.347 438.72 49.347C435.69 49.347 432.97 51.015 431.44 53.813C428.22 59.699 430.28 71.123 436.21 80.387C437.36 82.18 438.62 83.835 439.97 85.349C436.73 95.798 430.02 105.629 421.24 105.629C417.3 105.629 414.35 104.409 411.95 101.799C408.5 98.042 406.29 91.358 405.57 82.907C430.01 52.371 441.88 22.501 435.13 8.35498C432.83 3.54418 428.53 0.78418 423.33 0.78418C406.43 0.78423 396.37 22.6582 392.57 67.6522C392.33 70.4052 392.16 73.7272 392.19 77.3422C383.16 89.5642 368.37 105.469 355.01 105.469C351.2 105.469 348.41 104.179 346.51 101.529C346.34 101.309 346.19 101.069 346.04 100.829C346.19 100.739 346.35 100.649 346.5 100.549C379.29 79.3522 378.82 63.4902 377.1 57.6512C375.22 51.2972 369.52 47.3462 362.23 47.3462C343.15 47.3462 330.33 69.2592 330.33 89.7272C330.33 91.5792 330.45 93.3742 330.67 95.1042C324.65 99.4372 319.66 103.299 314.87 107.039C315.59 101.439 316.65 94.3652 317.84 83.7492V83.7452C318.12 81.6022 318.36 79.8452 318.48 78.9832C319.55 71.2262 306.83 69.6212 305.45 78.2782C304.03 87.1902 300.19 105.629 289.73 105.629C283.41 105.629 280.09 98.6012 280.7 88.3812C281.67 72.3082 290.34 59.2022 301.09 59.2022C304.78 59.2022 306.7 63.1492 306.7 63.1492C310.09 69.3192 320.63 64.1112 318.4 57.5852C317.41 54.6702 313.86 47.4312 301.61 47.4312C276.44 47.4312 268.66 72.9102 267.54 89.7272C267.35 92.4942 267.41 95.1682 267.66 97.7122C264.15 101.989 259.97 105.629 255.91 105.629C251.92 105.629 249.4 101.189 250.89 90.9312C252.31 81.1492 253.31 73.0642 253.98 68.3312C257.03 46.9342 230.26 47.5222 230.26 47.5222C230.26 47.5222 229.97 35.0422 219.66 35.0422C214.38 35.0422 209.7 39.1432 209.7 46.8772C209.7 54.0272 215.56 57.5422 215.56 57.5422L215.59 57.5482C214.29 68.6222 209.09 105.629 197.55 105.629C192.37 105.629 192.02 100.029 192.47 96.0962C193.1 90.6312 194.09 81.3752 194.42 78.9832C195.49 71.2262 182.76 69.6212 181.39 78.2782C179.97 87.1902 176.13 105.629 165.67 105.629C159.35 105.629 156.02 97.6792 156.53 88.1122C157.4 71.7192 166.28 59.2022 177.03 59.2022C180.72 59.2022 182.64 63.1492 182.64 63.1492C185.44 69.2612 196.51 64.8662 194.34 57.5852C193.39 54.3702 189.8 47.4312 177.55 47.4312C152.37 47.4312 144.59 72.9102 143.48 89.7272C143.3 92.3292 143.35 94.8442 143.56 97.2492C139.96 102.139 135.62 105.629 131.53 105.629C127.8 105.629 124.94 103.709 125.63 95.2452C125.95 91.2922 130.55 64.2702 130.25 59.3412C129.74 51.1452 126.02 47.5322 116.88 47.5322C107.27 47.5322 100.01 52.4722 96.9618 55.6282C96.9618 55.6282 101.51 21.5292 102.37 14.9822C103.28 8.12128 90.0888 8.05198 89.2278 14.9252C88.8548 17.9052 85.3338 44.9222 82.0708 69.8632C74.7188 86.1492 59.8188 111.249 37.7608 111.249C-4.02924 111.249 15.2558 20.1592 54.3468 20.1592C63.5088 20.1592 59.4168 34.7912 53.2728 43.7142C48.8858 50.0872 59.9408 57.4172 66.0468 47.1122C82.9218 18.6362 68.7008 7.98818 55.3338 7.98818C-2.76324 7.98818 -24.3262 123.838 36.1918 123.838C56.1158 123.838 69.4488 112.638 78.0398 100.598C77.1398 107.438 76.5228 112.098 76.3968 112.968C75.3718 120.118 88.7308 119.528 89.4338 113.558C89.8818 109.748 91.8658 93.7612 93.5648 81.5642C94.5358 74.5912 103.06 61.7602 112.82 61.7602C115.13 61.7602 116.63 64.0462 116.34 66.0052C115.99 68.2802 111.84 98.6082 112.12 103.128C112.91 115.778 121.95 118.718 130.57 118.718C137.39 118.718 142.85 115.488 147.44 110.418C150.49 115.518 155.21 118.688 161.57 118.688C176.12 118.688 181.14 108.208 181.14 108.208C181.14 108.208 182.88 118.588 195.42 118.588C220.83 118.588 226.76 74.2612 228.02 59.4822C229.51 59.5402 238.49 60.0912 239.97 65.1182C241.39 69.9372 236.88 85.3942 236.51 101.308C236.32 109.688 239.4 118.688 252.67 118.688C260.77 118.688 267.12 114.968 271.73 110.758C274.78 115.648 279.42 118.688 285.63 118.688C292.79 118.688 297.64 116.388 300.72 114.058C300.52 115.428 300.32 116.778 300.13 118.138C300.12 118.228 300.11 118.308 300.1 118.398C300.13 118.138 266.59 142.348 266.59 165.228C266.59 174.148 270.73 179.998 281.3 179.998C302.33 179.998 308.83 151.938 311.93 128.708C312.08 127.608 312.22 126.568 312.36 125.568C315.65 123.078 318.71 120.688 321.68 118.368C326.05 114.958 330.27 111.668 335.13 108.088C335.37 108.458 335.6 108.838 335.85 109.198C340.28 115.348 346.9 118.598 355.01 118.598C370.23 118.598 384.31 106.918 394.46 95.4972C395.99 101.138 398.43 106.488 402.29 110.678C407.14 115.958 413.69 118.748 421.24 118.748C435.78 118.748 445.87 107.148 451.09 93.6672C455.07 95.5142 459.44 96.5772 464.1 96.8242C465.12 101.568 467.05 105.768 469.85 109.178C473.38 113.468 480.04 118.598 491.69 118.598C503.27 118.598 514.76 112.408 522.48 107.108C522.86 107.658 523.23 108.198 523.64 108.708C527.28 113.218 534.13 118.598 546.1 118.598C567.14 118.598 578.69 101.368 579.17 100.628C581.15 97.6162 580.31 93.5792 577.3 91.5822" fill="white"/>
</g>
</svg>
