<svg width="125" height="58" viewBox="0 0 125 58" fill="none" xmlns="http://www.w3.org/2000/svg">
<path d="M15.9293 57.0341C15.9293 54.7376 15.9293 51.5383 15.9293 51.5383C15.9293 49.6007 15.1686 47.548 12.1656 47.548C10.1509 47.548 9.0862 48.4701 8.47828 49.3931C7.98415 48.2078 6.59603 47.548 5.20872 47.548C3.28907 47.548 2.26261 48.5651 1.78717 49.1477V47.6228H0V57.0333H1.78636V51.0676C2.10982 50.1076 2.94611 48.9409 4.73328 48.9409C6.13928 48.9409 7.20394 50.0127 7.20394 51.5938V57.0333H8.89602C8.89602 57.0333 8.89602 51.651 8.89602 51.5938C8.89602 50.4464 9.75182 48.9409 11.7097 48.9409C13.4773 48.9409 14.1616 50.1261 14.1616 51.6502V57.0325H15.9293V57.0341Z" fill="white"/>
<path fill-rule="evenodd" clip-rule="evenodd" d="M29.0254 56.977V55.8472C28.9851 55.8615 28.7351 55.8555 28.5384 55.8509H28.5384H28.5384C28.4575 55.8489 28.3856 55.8472 28.3411 55.8472C27.9038 55.8303 27.7323 55.5471 27.7323 54.7939V50.6717C27.7323 48.5264 26.1922 47.5303 23.4558 47.5303C23.3038 47.5303 23.1706 47.5303 23.0186 47.5472V47.5472C21.023 47.6415 19.6546 48.4509 18.7998 49.4864L19.8262 50.3337C20.5292 49.3359 21.7459 48.9038 23.0194 48.8282H23.3794C25.2609 48.8282 25.9078 49.4486 25.9078 50.2581C25.9078 50.6145 25.5274 50.9541 23.0186 51.1995V51.2003H22.8861C20.5479 51.4063 18.2097 51.9905 18.2097 54.287C18.2097 56.0548 19.4646 57.1098 21.8596 57.1098C22.24 57.1098 22.639 57.0912 23.0194 57.0534V57.0525C24.1211 56.9205 25.1855 56.5447 26.098 55.7354C26.1931 56.4886 26.5352 57.0711 27.5999 57.0711C28.0753 57.0711 28.6458 57.0148 29.0254 56.977ZM23.0194 52.2713C23.0191 52.2713 23.0188 52.2713 23.0186 52.2713V51.2003H23.0194V52.2713ZM23.0186 55.9238C22.8287 55.9422 22.6387 55.9422 22.4302 55.9422C20.7576 55.9422 20.0546 55.3966 20.0546 54.3232C20.0546 52.9312 21.3281 52.4612 23.0194 52.2721V52.2713C23.0665 52.2713 23.1088 52.2667 23.1513 52.2621H23.1513C23.1941 52.2575 23.2371 52.2528 23.2851 52.2528C24.7107 52.1209 25.5851 51.8964 25.9842 51.5568C25.978 51.7249 25.9737 51.952 25.969 52.2054V52.2054C25.9589 52.7476 25.9466 53.4101 25.9078 53.8718C25.8127 54.8511 24.7293 55.7547 23.0186 55.9229V55.9238ZM23.0186 55.9238C23.0188 55.9237 23.0191 55.9237 23.0194 55.9237V57.0525C23.0191 57.0526 23.0188 57.0526 23.0186 57.0526V55.9238ZM23.0194 48.8282V47.5472L23.0186 47.5472V48.8282H23.0194Z" fill="white"/>
<path d="M40.9635 54.3055L39.2341 54.0223C38.588 55.358 37.542 55.8473 35.9458 55.8473C34.2537 55.8473 32.4487 54.8133 32.4487 52.3663C32.4487 50.0135 33.9506 48.7912 35.9271 48.7912C37.429 48.7912 38.6644 49.4309 39.1593 50.5606L40.9457 50.2404C40.3182 48.6029 38.5319 47.5311 35.9084 47.5311C32.7339 47.5311 30.6428 49.3368 30.6428 52.3293C30.6428 55.5857 32.9623 57.0913 35.9458 57.0913C38.4165 57.0905 40.1841 56.3373 40.9635 54.3055Z" fill="white"/>
<path d="M49.0225 49.0535V47.548C48.9656 47.548 48.8892 47.548 48.8518 47.548C46.9696 47.548 45.8293 48.2835 45.0881 49.3175V47.6421H43.3018V57.0341H45.0881V51.1062C45.6586 49.9193 46.7233 48.961 48.491 48.961C48.6429 48.9602 48.9087 49.0173 49.0225 49.0535V49.0535Z" fill="white"/>
<path fill-rule="evenodd" clip-rule="evenodd" d="M50.2585 52.3285C50.2585 49.3923 52.483 47.5303 55.7712 47.5303H55.7899C58.9652 47.5303 61.3026 49.2233 61.3026 52.3285C61.3026 55.3017 58.9644 57.1089 55.7899 57.1089H55.7712C52.4066 57.1089 50.2585 55.3773 50.2585 52.3285ZM55.7712 48.7719C53.7565 48.7719 52.0457 50.0698 52.0457 52.3285C52.0457 54.7376 53.8134 55.8472 55.7712 55.8472H55.7899C58.1086 55.8472 59.5154 54.4552 59.5154 52.3285C59.5154 49.8622 57.6714 48.7719 55.7899 48.7719H55.7712Z" fill="white"/>
<path d="M79.7976 57.0341C79.7976 54.7376 79.7976 51.5383 79.7976 51.5383C79.7976 49.6007 79.0564 47.548 76.0339 47.548C74.0191 47.548 72.9545 48.4701 72.3652 49.3931C71.8711 48.2078 70.4643 47.548 69.077 47.548C67.176 47.548 66.1496 48.5651 65.6733 49.1477V47.6228H63.887V57.0333H65.6733V51.0676C65.9781 50.1076 66.8144 48.9409 68.6202 48.9409C70.0075 48.9409 71.0722 50.0127 71.0722 51.5938V57.0333H72.7643C72.7643 57.0333 72.7643 51.651 72.7643 51.5938C72.7643 50.4464 73.6388 48.9409 75.5958 48.9409C77.3643 48.9409 78.0291 50.1261 78.0291 51.6502V57.0325H79.7976V57.0341Z" fill="white"/>
<path fill-rule="evenodd" clip-rule="evenodd" d="M87.5153 47.5303H87.5721C90.8604 47.5472 92.9133 49.3737 92.8946 52.6865H87.5721V52.6857H84.0173C84.0937 54.7746 85.6712 55.8859 87.5339 55.8859H87.5721V55.8867C89.1878 55.8867 90.3476 55.226 90.8799 54.0601L92.6094 54.3602C91.8877 55.9599 90.1761 57.1089 87.5721 57.1089H87.5339C84.3977 57.1089 82.231 55.4908 82.231 52.1965C82.231 49.3923 84.5878 47.5303 87.5153 47.5303ZM87.5721 51.5946H91.0888C90.784 49.5435 89.3585 48.7526 87.5721 48.734V48.7332H87.5339C85.8614 48.7332 84.1888 49.8622 84.0555 51.5938H87.5721V51.5946Z" fill="white"/>
<path fill-rule="evenodd" clip-rule="evenodd" d="M105.288 43.5585V57.0325H103.538V55.5077C103.063 56.2414 101.884 57.0323 100.022 57.0888V55.9221C100.022 55.9221 100.022 55.9221 100.021 55.9221V55.9213H100.136C102.151 55.9213 103.463 54.6048 103.501 53.3818C103.501 53.3595 103.502 53.287 103.505 53.1852C103.51 52.9456 103.519 52.5435 103.519 52.252C103.519 51.9778 103.51 51.5943 103.505 51.3607C103.502 51.2583 103.501 51.1847 103.501 51.1617C103.387 49.9563 101.904 48.7526 100.117 48.7526H100.022C97.7985 48.7904 96.5445 50.2581 96.5445 52.3091C96.5445 54.7743 98.1776 55.8855 100.021 55.9221V57.0888C100.022 57.0888 100.022 57.0888 100.022 57.0888V57.0896H99.7945C96.8866 57.0896 94.7378 55.3958 94.7378 52.3091C94.7378 49.2788 97.0191 47.5472 99.7563 47.5472H100.022C101.695 47.6228 102.969 48.3373 103.52 49.0905V43.5585H105.288Z" fill="white"/>
<path fill-rule="evenodd" clip-rule="evenodd" d="M110.174 44.4058V46.2114H108.33V44.4058H110.174ZM110.154 47.6228V57.0333H108.367V47.6228H110.154Z" fill="white"/>
<path fill-rule="evenodd" clip-rule="evenodd" d="M123.25 56.977V55.8472C123.211 55.8615 122.96 55.8555 122.764 55.8509H122.764H122.764C122.683 55.8489 122.611 55.8472 122.566 55.8472C122.129 55.8303 121.958 55.5471 121.958 54.7939V50.6717C121.958 48.5264 120.418 47.5303 117.681 47.5303C117.528 47.5303 117.377 47.5303 117.244 47.5472V47.5472C115.249 47.6415 113.88 48.4509 113.025 49.4864L114.051 50.3337C114.755 49.3359 115.971 48.9038 117.245 48.8282H117.604C119.486 48.8282 120.132 49.4486 120.132 50.2581C120.132 50.6145 119.752 50.9541 117.243 51.1995V51.2003H117.111C114.774 51.4063 112.436 51.9905 112.436 54.287C112.436 56.0548 113.69 57.1098 116.085 57.1098C116.465 57.1098 116.864 57.0912 117.244 57.0534V57.0523C118.346 56.9201 119.409 56.5443 120.321 55.7354C120.416 56.4886 120.759 57.0711 121.823 57.0711C122.3 57.0711 122.871 57.0148 123.25 56.977ZM117.244 52.2713C117.243 52.2713 117.243 52.2713 117.243 52.2713V51.2003H117.244V52.2713ZM117.242 55.9239C117.053 55.9422 116.863 55.9422 116.655 55.9422C114.982 55.9422 114.279 55.3966 114.279 54.3232C114.279 52.9312 115.552 52.4612 117.244 52.2721V52.2713C117.279 52.2713 117.319 52.2672 117.362 52.2628C117.409 52.258 117.459 52.2528 117.509 52.2528C118.934 52.1209 119.809 51.8964 120.208 51.5568C120.202 51.7198 120.198 51.9384 120.193 52.1825C120.183 52.7289 120.171 53.4035 120.131 53.8718C120.037 54.8511 118.954 55.7547 117.242 55.9229V55.9239ZM117.242 55.9239C117.243 55.9238 117.244 55.9238 117.244 55.9237V57.0523C117.244 57.0524 117.243 57.0525 117.242 57.0526V55.9239ZM117.245 48.8282V47.5472H117.244L117.244 47.5472V48.8282H117.245Z" fill="white"/>
<path d="M72.0743 5.36771C76.2931 9.54551 76.2931 16.3022 72.0743 20.48L52.9892 39.3558C48.7696 43.5335 41.9452 43.5335 37.7255 39.3558C33.5059 35.1788 33.5059 28.422 37.7255 24.2627L56.8098 5.36771C61.0294 1.18912 67.853 1.18912 72.0743 5.36771Z" fill="white"/>
<path d="M102.658 5.49967L121.742 24.1308C125.962 28.3086 125.962 35.0653 121.742 39.2439C117.523 43.4201 110.679 43.4201 106.459 39.2439L95.0159 27.6689L83.5533 39.2439C79.3711 43.4201 72.5288 43.4201 68.3091 39.2439C64.0887 35.0653 64.0887 28.3086 68.3091 24.1308L87.3755 5.49967C91.5952 1.32107 98.4383 1.32107 102.658 5.49967Z" fill="white"/>
<path d="M114.334 3.94008C113.138 3.94008 112.117 4.366 111.27 5.21783C110.427 6.06508 110.006 7.08866 110.006 8.28855C110.006 9.49761 110.425 10.5281 111.263 11.3799C112.106 12.2317 113.129 12.6576 114.334 12.6576C115.538 12.6576 116.562 12.2317 117.404 11.3799C118.247 10.5281 118.668 9.49761 118.668 8.28855C118.668 7.08866 118.247 6.06508 117.404 5.21783C116.557 4.366 115.534 3.94008 114.334 3.94008ZM119.383 8.28855C119.383 9.68538 118.891 10.8784 117.906 11.8676C116.921 12.8569 115.731 13.3515 114.334 13.3515C112.937 13.3515 111.748 12.8569 110.768 11.8676C109.793 10.883 109.305 9.68996 109.305 8.28855C109.305 6.90089 109.797 5.71473 110.782 4.73009C111.762 3.75002 112.946 3.25999 114.334 3.25999C115.731 3.25999 116.921 3.75002 117.906 4.73009C118.891 5.71015 119.383 6.89631 119.383 8.28855ZM115.653 7.18941C115.653 6.7864 115.529 6.51619 115.282 6.3788C115.039 6.2414 114.647 6.17271 114.107 6.17271H113.276V8.17864H114.155C114.567 8.17864 114.876 8.13742 115.083 8.05499C115.463 7.90386 115.653 7.61533 115.653 7.18941ZM114.238 5.50635C114.925 5.50635 115.428 5.57276 115.749 5.70557C116.321 5.94372 116.608 6.41086 116.608 7.10698C116.608 7.60159 116.427 7.96568 116.065 8.19925C115.873 8.3229 115.605 8.41221 115.261 8.46716C115.696 8.53586 116.014 8.71676 116.216 9.00987C116.418 9.30297 116.518 9.5892 116.518 9.86857V10.2739C116.518 10.4021 116.523 10.5395 116.532 10.6861C116.541 10.8326 116.557 10.9288 116.58 10.9746L116.614 11.0433H115.701C115.696 11.025 115.692 11.0066 115.687 10.9883C115.682 10.97 115.678 10.9494 115.673 10.9265L115.653 10.7479V10.3082C115.653 9.66706 115.479 9.24343 115.131 9.03734C114.925 8.91827 114.563 8.85873 114.045 8.85873H113.276V11.0433H112.3V5.50635H114.238Z" fill="white"/>
</svg>
