<svg width="153" height="72" viewBox="0 0 153 72" fill="none" xmlns="http://www.w3.org/2000/svg">
<path d="M75.2527 16.1045C74.8268 16.3302 74.6748 16.8565 74.8996 17.2706C75.1257 17.6949 75.664 17.8459 76.0898 17.624C76.5157 17.3944 76.6718 16.8733 76.4443 16.4515C76.2882 16.1651 75.984 16 75.6706 16C75.5291 16 75.3849 16.0335 75.2527 16.1045ZM77.6107 16.1406C77.2299 16.3392 77.095 16.8023 77.2947 17.1764C77.4957 17.5479 77.9678 17.6872 78.3447 17.4834C78.7309 17.2809 78.8658 16.8191 78.6648 16.4463C78.5286 16.1922 78.2614 16.0439 77.9837 16.0439C77.858 16.0439 77.7298 16.0761 77.6107 16.1406ZM73.015 16.7572C72.5336 17.0139 72.3511 17.6072 72.6156 18.078C72.8775 18.5514 73.4779 18.7359 73.9659 18.4779C74.4486 18.2212 74.6245 17.6279 74.3653 17.157C74.1867 16.8268 73.8429 16.6385 73.4871 16.6385C73.3284 16.6385 73.1658 16.6772 73.015 16.7572ZM79.8736 16.8655C79.5403 17.0474 79.412 17.4589 79.5905 17.7814C79.7691 18.1064 80.1923 18.2264 80.5137 18.0484C80.8522 17.8717 80.9739 17.4653 80.7914 17.1416C80.671 16.9145 80.433 16.7868 80.1883 16.7868C80.0812 16.7868 79.9727 16.8126 79.8736 16.8655ZM71.2402 18.2328C70.8077 18.465 70.649 18.9797 70.8818 19.4066C71.1145 19.822 71.6383 19.9781 72.0654 19.7523C72.4992 19.5266 72.6566 19.0003 72.4265 18.5863C72.2691 18.296 71.9636 18.1283 71.6515 18.1283C71.5113 18.1283 71.3698 18.1619 71.2402 18.2328ZM81.8203 18.2431C81.5307 18.3992 81.4262 18.7462 81.577 19.0235C81.7304 19.3009 82.0835 19.4028 82.3758 19.2596C82.6575 19.1022 82.7685 18.7552 82.6138 18.4753C82.5054 18.2831 82.303 18.1722 82.0967 18.1722C82.0028 18.1722 81.9089 18.1954 81.8203 18.2431ZM83.2592 20.1264C83.0317 20.2567 82.9378 20.5547 83.0688 20.7817C83.1957 21.0151 83.4933 21.099 83.7234 20.9752C83.9628 20.85 84.0514 20.5637 83.9218 20.3302C83.8319 20.1651 83.6626 20.0735 83.4854 20.0735C83.41 20.0735 83.3319 20.0903 83.2592 20.1264ZM69.9732 20.187C69.595 20.3895 69.4548 20.8565 69.6532 21.2267C69.8621 21.5956 70.3343 21.7388 70.7112 21.535C71.0907 21.3376 71.2362 20.8707 71.0312 20.4966C70.8871 20.2425 70.6173 20.0967 70.3409 20.0967C70.2166 20.0967 70.0909 20.1264 69.9732 20.187ZM83.9919 22.1877C83.7022 22.336 83.5938 22.6907 83.7512 22.9694C83.8993 23.248 84.2617 23.3512 84.5354 23.208C84.8237 23.0442 84.9335 22.6946 84.7827 22.4186C84.6756 22.2264 84.4733 22.118 84.267 22.118C84.1731 22.118 84.0778 22.1412 83.9919 22.1877ZM69.3543 22.4508C69.0263 22.6237 68.9046 23.0313 69.0805 23.3537C69.263 23.6827 69.6743 23.8026 70.0076 23.6272C70.3369 23.4505 70.4625 23.0377 70.284 22.7178C70.161 22.4934 69.9282 22.3657 69.6862 22.3657C69.5738 22.3657 69.4601 22.3941 69.3543 22.4508ZM83.9945 24.3728C83.6612 24.5534 83.5435 24.9558 83.7155 25.2873C83.8914 25.6072 84.3172 25.7246 84.6452 25.553C84.9771 25.3763 85.0962 24.9687 84.9163 24.6449C84.7946 24.4192 84.5632 24.2928 84.3199 24.2928C84.2101 24.2928 84.1003 24.3199 83.9945 24.3728ZM69.4521 24.7984C69.1718 24.9519 69.066 25.3041 69.2194 25.5814C69.3754 25.8639 69.7312 25.9619 70.0102 25.8071C70.2946 25.6653 70.4096 25.3079 70.2483 25.0306C70.1385 24.841 69.9388 24.7301 69.7299 24.7301C69.6373 24.7301 69.5421 24.752 69.4521 24.7984ZM83.287 26.4611C82.9048 26.6585 82.7672 27.1332 82.9682 27.5047C83.1759 27.8736 83.648 28.0129 84.0196 27.8142C84.4085 27.6078 84.542 27.1474 84.345 26.772C84.2022 26.5166 83.9337 26.3695 83.656 26.3695C83.5316 26.3695 83.4047 26.3979 83.287 26.4611ZM70.2695 27.0248C70.0314 27.1474 69.9454 27.4389 70.0737 27.6788C70.2007 27.9071 70.4943 27.9961 70.7363 27.8736C70.9717 27.742 71.0603 27.4518 70.9307 27.2196C70.8421 27.0596 70.6715 26.9681 70.4969 26.9681C70.4202 26.9681 70.3422 26.9861 70.2695 27.0248ZM81.9288 28.2476C81.5003 28.476 81.3442 28.9997 81.5743 29.4163C81.7991 29.8355 82.3334 29.9916 82.7633 29.7607C83.1891 29.544 83.3465 29.0113 83.115 28.5959C82.9537 28.3096 82.6522 28.1419 82.3414 28.1419C82.2025 28.1419 82.061 28.1754 81.9288 28.2476ZM71.6264 28.7443C71.3407 28.8913 71.2349 29.2447 71.3883 29.5221C71.5377 29.802 71.8935 29.9052 72.1778 29.7504C72.4609 29.6059 72.568 29.2563 72.4159 28.9764C72.3127 28.7855 72.1104 28.6785 71.9014 28.6785C71.8075 28.6785 71.7136 28.6991 71.6264 28.7443ZM80.0309 29.5259C79.5482 29.7788 79.3631 30.3708 79.6315 30.8468C79.8934 31.3202 80.4965 31.4943 80.9818 31.2441C81.4619 30.9835 81.6404 30.3876 81.3826 29.9245C81.2027 29.5943 80.8602 29.4047 80.5057 29.4047C80.3457 29.4047 80.183 29.4434 80.0309 29.5259ZM73.4832 29.9503C73.1446 30.1296 73.0243 30.5308 73.2068 30.8558C73.3787 31.1835 73.7953 31.3086 74.1259 31.1332C74.4592 30.9487 74.5835 30.5398 74.405 30.2173C74.2793 29.9968 74.0426 29.8691 73.8032 29.8691C73.6948 29.8691 73.5837 29.8936 73.4832 29.9503ZM77.907 30.3786C77.4785 30.6017 77.329 31.1228 77.5631 31.5472C77.7853 31.9626 78.3156 32.1277 78.7441 31.8916C79.174 31.671 79.3274 31.1461 79.0999 30.7281C78.9385 30.4392 78.637 30.2754 78.3249 30.2754C78.1834 30.2754 78.0406 30.3089 77.907 30.3786ZM75.6428 30.5127C75.2633 30.7139 75.1284 31.1822 75.3294 31.5511C75.537 31.9252 76.0092 32.0645 76.3887 31.8645C76.7723 31.6685 76.9111 31.1989 76.7061 30.8223C76.5673 30.5669 76.2962 30.425 76.0158 30.425C75.8888 30.425 75.7619 30.4521 75.6428 30.5127Z" fill="black"/>
<path d="M75.6133 12.7838C75.4334 13.3621 75.7782 13.9647 76.3826 14.1382C76.987 14.3091 77.6184 13.9737 77.7969 13.4019C77.9781 12.8237 77.6319 12.2133 77.0303 12.0463C76.9207 12.0141 76.8112 12 76.7031 12C76.2082 12 75.7606 12.3097 75.6133 12.7838ZM78.6649 13.1359C78.4635 13.8041 78.8475 14.4954 79.5519 14.6933C80.2456 14.8899 80.9716 14.5121 81.1731 13.8517C81.384 13.1809 80.9865 12.4819 80.2888 12.2853C80.1658 12.2519 80.0427 12.2352 79.921 12.2352C79.3532 12.2352 78.8299 12.5911 78.6649 13.1359ZM72.5494 13.3904C72.3926 13.9056 72.7022 14.4428 73.239 14.5944C73.7744 14.746 74.3409 14.4556 74.4964 13.9378C74.6492 13.4263 74.3409 12.8866 73.8096 12.735C73.7149 12.7093 73.6203 12.6965 73.527 12.6965C73.0862 12.6965 72.6819 12.9714 72.5494 13.3904ZM81.7545 14.5134C81.5747 15.0904 81.9235 15.6956 82.5265 15.8665C83.1309 16.0374 83.7637 15.7008 83.9408 15.1251C84.1207 14.5481 83.7759 13.9416 83.1715 13.7707C83.0647 13.7399 82.9579 13.7257 82.851 13.7257C82.3562 13.7257 81.9032 14.0393 81.7545 14.5134ZM69.9155 14.9375C69.7911 15.3448 70.0291 15.765 70.455 15.8858C70.8769 16.004 71.3204 15.7701 71.4461 15.3679C71.5691 14.9645 71.3258 14.5404 70.9026 14.4196C70.8282 14.3978 70.7525 14.3875 70.6781 14.3875C70.332 14.3875 70.0156 14.6047 69.9155 14.9375ZM84.2288 16.6735C84.0679 17.1939 84.3789 17.7272 84.913 17.8788C85.4525 18.0292 86.0109 17.731 86.1718 17.2183C86.3327 16.7095 86.0258 16.1698 85.4849 16.0207C85.3903 15.9937 85.2943 15.9809 85.1996 15.9809C84.7656 15.9809 84.3627 16.2546 84.2288 16.6735ZM67.8319 17.2299C67.7292 17.5537 67.9293 17.8994 68.27 17.9932C68.6121 18.0895 68.9663 17.9032 69.0705 17.5768C69.1759 17.253 68.9745 16.9086 68.6351 16.8084C68.5769 16.793 68.5175 16.7853 68.458 16.7853C68.1754 16.7853 67.9158 16.9575 67.8319 17.2299ZM85.9879 19.4529C85.8568 19.8654 86.1083 20.2869 86.5274 20.4051C86.9533 20.5246 87.3941 20.2933 87.5185 19.8872C87.6429 19.4812 87.4022 19.0584 86.9804 18.9415C86.9046 18.9197 86.8276 18.9094 86.7519 18.9094C86.4057 18.9094 86.0866 19.1252 85.9879 19.4529ZM66.6056 20.0761C66.5312 20.3229 66.6718 20.5824 66.9287 20.6531C67.187 20.7251 67.4534 20.5824 67.5291 20.3383C67.6034 20.0941 67.4588 19.8384 67.2005 19.7639C67.1545 19.7523 67.1099 19.7459 67.0653 19.7459C66.8571 19.7459 66.6664 19.8757 66.6056 20.0761ZM86.7343 22.5446C86.6315 22.8697 86.8262 23.2179 87.1724 23.3117C87.5158 23.4094 87.8727 23.2205 87.9741 22.8915C88.0729 22.569 87.8809 22.2234 87.5361 22.1244C87.4766 22.109 87.4157 22.1 87.3576 22.1C87.075 22.1 86.8127 22.2748 86.7343 22.5446ZM66.0269 23.1074C65.9241 23.4325 66.1256 23.7743 66.4663 23.872C66.807 23.9696 67.1654 23.7859 67.2668 23.4557C67.3695 23.1293 67.1748 22.7862 66.8314 22.6872C66.7719 22.6692 66.7124 22.6628 66.6529 22.6628C66.373 22.6628 66.1148 22.8401 66.0269 23.1074ZM86.472 25.6658C86.4017 25.9087 86.5436 26.1695 86.7965 26.2376C87.0561 26.3096 87.3211 26.1708 87.3941 25.9241C87.4725 25.6812 87.3265 25.4217 87.0696 25.3497C87.0263 25.3382 86.9817 25.333 86.9384 25.333C86.7316 25.333 86.5342 25.4641 86.472 25.6658ZM66.488 26.1169C66.369 26.5203 66.5975 26.947 67.0274 27.0652C67.4452 27.1873 67.8914 26.9508 68.0158 26.5435C68.1389 26.14 67.8955 25.7159 67.4763 25.6042C67.3979 25.581 67.3195 25.5707 67.2411 25.5707C66.8976 25.5707 66.584 25.7853 66.488 26.1169ZM84.9319 28.4221C84.8319 28.7511 85.0279 29.0955 85.3646 29.188C85.7121 29.2856 86.0717 29.0967 86.1718 28.7716C86.2705 28.4478 86.0758 28.0996 85.7337 28.0019C85.6742 27.9852 85.6134 27.9775 85.5525 27.9775C85.2727 27.9775 85.0144 28.1523 84.9319 28.4221ZM67.8292 28.7806C67.6697 29.2933 67.9739 29.8305 68.5134 29.9847C69.0556 30.1376 69.6127 29.842 69.7749 29.328C69.9331 28.8153 69.6208 28.2731 69.084 28.1202C68.9893 28.0932 68.8933 28.0803 68.7987 28.0803C68.362 28.0803 67.9617 28.3566 67.8292 28.7806ZM82.5563 30.6336C82.4346 31.0358 82.6807 31.4611 83.0998 31.5819C83.5203 31.7014 83.9625 31.4675 84.0855 31.0679C84.214 30.6593 83.9719 30.2352 83.5501 30.117C83.473 30.0952 83.3973 30.0849 83.3229 30.0849C82.9768 30.0849 82.659 30.3033 82.5563 30.6336ZM70.0629 30.8803C69.8871 31.4521 70.2265 32.0586 70.8336 32.2308C71.4393 32.3979 72.0694 32.0663 72.2506 31.4907C72.4237 30.9176 72.0802 30.3059 71.4731 30.1376C71.365 30.1067 71.2568 30.0926 71.1513 30.0926C70.6578 30.0926 70.2076 30.401 70.0629 30.8803ZM72.8266 32.155C72.6265 32.8271 73.0159 33.5171 73.7149 33.715C74.4085 33.9064 75.1414 33.5248 75.3388 32.8656C75.543 32.2 75.1495 31.5022 74.4505 31.3056C74.3274 31.2709 74.203 31.2555 74.0813 31.2555C73.5135 31.2555 72.9915 31.6076 72.8266 32.155ZM79.5046 32.0625C79.3478 32.5778 79.6601 33.1175 80.1928 33.2665C80.7337 33.4182 81.2934 33.1252 81.4516 32.6086C81.6098 32.0998 81.3056 31.5588 80.7661 31.4084C80.6701 31.3802 80.5728 31.3673 80.4768 31.3673C80.0387 31.3673 79.6331 31.6423 79.5046 32.0625ZM76.2014 32.606C76.0257 33.1791 76.3731 33.7805 76.9762 33.954C77.5819 34.1275 78.2161 33.7947 78.3878 33.2203C78.5635 32.6407 78.2242 32.0342 77.6198 31.8646C77.5103 31.835 77.4021 31.8196 77.2953 31.8196C76.8018 31.8196 76.3488 32.128 76.2014 32.606Z" fill="black"/>
<path d="M77.7546 9.39348C77.2935 9.89735 77.3151 10.6934 77.8094 11.17C78.301 11.6466 79.0768 11.6232 79.5367 11.118C80.0003 10.6103 79.9748 9.81813 79.4844 9.34024C79.2488 9.11298 78.9481 9 78.6488 9C78.3227 9 77.9966 9.13246 77.7546 9.39348ZM73.8796 9.70126C73.5153 10.1012 73.5331 10.7259 73.9229 11.1025C74.3064 11.4752 74.9178 11.4544 75.2846 11.0583C75.6451 10.6622 75.6286 10.0324 75.2426 9.6597C75.0554 9.47919 74.8184 9.39219 74.5815 9.39219C74.3255 9.39219 74.0694 9.49607 73.8796 9.70126ZM81.5518 10.4532C81.0308 11.0207 81.0538 11.9128 81.6066 12.4517C82.1594 12.9881 83.0371 12.9595 83.5543 12.3946C84.074 11.8258 84.0511 10.9285 83.4982 10.396C83.2295 10.1363 82.8893 10.0077 82.5518 10.0077C82.1862 10.0077 81.8232 10.1584 81.5518 10.4532ZM70.1817 11.2375C69.8875 11.5596 69.9015 12.0621 70.2136 12.3699C70.5308 12.6712 71.0224 12.6569 71.318 12.3349C71.6135 12.0141 71.5969 11.5076 71.2861 11.2051C71.1333 11.0583 70.9409 10.9856 70.7486 10.9856C70.5422 10.9856 70.3359 11.0713 70.1817 11.2375ZM84.7644 12.666C84.1619 13.3166 84.1861 14.3425 84.8268 14.9607C85.4625 15.5801 86.4662 15.5463 87.0624 14.8996C87.6649 14.2373 87.6356 13.2101 87 12.5933C86.6942 12.2972 86.3045 12.153 85.9172 12.153C85.4943 12.153 85.0752 12.3245 84.7644 12.666ZM67.1106 13.9348C66.8876 14.1763 66.8991 14.5516 67.1335 14.7789C67.3704 15.0087 67.7373 14.9944 67.9538 14.7555C68.1755 14.5152 68.1653 14.1373 67.9322 13.9101C67.8175 13.8023 67.6736 13.7491 67.5296 13.7491C67.3768 13.7491 67.2239 13.8114 67.1106 13.9348ZM87.4025 16.1151C86.8802 16.6813 86.9044 17.5774 87.4611 18.1137C88.0152 18.6513 88.8865 18.6176 89.4049 18.0527C89.9285 17.4839 89.9043 16.5943 89.3451 16.0528C89.0827 15.797 88.7464 15.6697 88.4075 15.6697C88.0407 15.6697 87.6738 15.8191 87.4025 16.1151ZM64.6725 17.2436C64.3744 17.5657 64.3909 18.0696 64.7081 18.376C65.0177 18.6773 65.5106 18.6643 65.8087 18.3462C66.1004 18.0228 66.0889 17.5177 65.7743 17.2138C65.624 17.067 65.4317 16.9943 65.2406 16.9943C65.033 16.9943 64.8266 17.0787 64.6725 17.2436ZM88.8839 20.1552C88.4177 20.6603 88.4419 21.4564 88.9362 21.9304C89.4266 22.4109 90.2036 22.381 90.6647 21.8771C91.1322 21.3746 91.1067 20.5785 90.6138 20.1006C90.3769 19.8734 90.0737 19.7604 89.7731 19.7604C89.4482 19.7604 89.1234 19.8915 88.8839 20.1552ZM63.4012 21.1291C63.0432 21.5304 63.0522 22.1498 63.4432 22.5251C63.8266 22.9017 64.4406 22.881 64.8049 22.4875C65.1705 22.0914 65.1489 21.459 64.7655 21.0863C64.5782 20.9058 64.34 20.8161 64.1018 20.8161C63.8458 20.8161 63.5897 20.9213 63.4012 21.1291ZM89.1909 24.5146C88.8279 24.912 88.8495 25.5379 89.2342 25.9106C89.6266 26.2885 90.2304 26.2678 90.5972 25.8691C90.9603 25.473 90.9475 24.8484 90.5539 24.4718C90.3692 24.2926 90.1323 24.2043 89.8941 24.2043C89.638 24.2043 89.3807 24.3081 89.1909 24.5146ZM63.3311 25.1185C62.87 25.621 62.8929 26.421 63.3846 26.8963C63.8789 27.3742 64.6508 27.3495 65.1145 26.8443C65.5781 26.3418 65.5552 25.5444 65.0622 25.0639C64.8266 24.8341 64.5272 24.7224 64.2266 24.7224C63.9005 24.7224 63.5732 24.8562 63.3311 25.1185ZM88.1897 28.6546C87.8942 28.9754 87.9082 29.4844 88.2215 29.7909C88.54 30.0935 89.033 30.0766 89.3285 29.752C89.6215 29.4312 89.61 28.9234 89.2954 28.6183C89.1438 28.4728 88.9514 28.4014 88.7591 28.4014C88.5527 28.4014 88.3438 28.4871 88.1897 28.6546ZM64.5948 28.9481C64.0738 29.5117 64.0903 30.4078 64.647 30.9467C65.2036 31.4791 66.0775 31.4506 66.5947 30.8857C67.1144 30.3195 67.0902 29.4195 66.5386 28.8884C66.2724 28.6287 65.9348 28.5027 65.5998 28.5027C65.2329 28.5027 64.8661 28.6546 64.5948 28.9481ZM66.9322 32.1025C66.3348 32.7635 66.3628 33.7816 67.001 34.4036C67.6366 35.0192 68.6391 34.9906 69.2366 34.3348C69.8378 33.6803 69.8072 32.6544 69.1703 32.0349C68.8633 31.7388 68.4723 31.5921 68.0837 31.5908C67.6634 31.5908 67.243 31.7635 66.9322 32.1025ZM86.0408 32.2453C85.8217 32.4869 85.8331 32.8648 86.0662 33.0907C86.3019 33.3141 86.6675 33.3063 86.8866 33.0608C87.1082 32.8232 87.0993 32.444 86.8611 32.2206C86.7516 32.1116 86.6076 32.057 86.465 32.057C86.3083 32.057 86.1541 32.1206 86.0408 32.2453ZM70.4429 34.6101C69.9244 35.1698 69.9486 36.0659 70.5053 36.6035C71.0581 37.1424 71.9307 37.1125 72.4479 36.5463C72.9676 35.9736 72.9485 35.0828 72.3893 34.5465C72.1256 34.2906 71.7855 34.1634 71.4479 34.1634C71.4454 34.1634 71.4441 34.1634 71.4428 34.1634C71.0772 34.1634 70.7129 34.314 70.4429 34.6101ZM82.6804 34.6633C82.3836 34.9854 82.3977 35.4932 82.711 35.7957C83.0282 36.0996 83.5224 36.084 83.8154 35.762C84.1109 35.4425 84.0969 34.9361 83.7823 34.6309C83.632 34.4841 83.4396 34.4114 83.246 34.4114C83.0397 34.4114 82.8333 34.4958 82.6804 34.6633ZM74.4579 35.8801C73.9943 36.3827 74.0172 37.184 74.5102 37.6541C75.0082 38.1346 75.7776 38.1112 76.24 37.6047C76.705 37.1022 76.6858 36.3035 76.1916 35.8295C75.9547 35.5983 75.6541 35.4867 75.3522 35.4867C75.0248 35.4867 74.6987 35.6191 74.4579 35.8801ZM78.7138 35.9425C78.3507 36.3347 78.3698 36.9658 78.7558 37.3398C79.1443 37.7151 79.7545 37.6917 80.1188 37.2943C80.4831 36.9022 80.4691 36.2736 80.0793 35.8983C79.892 35.7178 79.6551 35.6295 79.4182 35.6295C79.1609 35.6295 78.9048 35.7347 78.7138 35.9425Z" fill="black"/>
<path d="M79.3584 5.02259C78.7601 5.14216 78.3728 5.72276 78.4921 6.32993C78.6115 6.93045 79.1939 7.32106 79.7908 7.20016C80.3878 7.07926 80.7738 6.49467 80.6544 5.89415C80.5483 5.36138 80.0906 5 79.5773 5C79.5056 5 79.4327 5.00797 79.3584 5.02259ZM74.7897 5.32418C74.3215 5.39459 73.9938 5.83303 74.0628 6.31C74.1331 6.78564 74.5709 7.11114 75.0405 7.04338C75.5114 6.97297 75.839 6.53453 75.7687 6.05756C75.7077 5.62444 75.3389 5.31488 74.9171 5.31488C74.8746 5.31488 74.8335 5.31886 74.7897 5.32418ZM83.7612 5.96058C83.0475 6.14392 82.6137 6.87465 82.7981 7.59874C82.9799 8.31884 83.7095 8.75728 84.4231 8.56995C85.1355 8.3866 85.568 7.65189 85.3849 6.93311C85.2297 6.32063 84.6871 5.91806 84.0928 5.91806C83.9827 5.91806 83.8726 5.93135 83.7612 5.96058ZM70.1163 6.72319C69.7104 6.8999 69.5207 7.37421 69.6971 7.7874C69.8709 8.19661 70.3458 8.38394 70.7517 8.20856C71.1577 8.03053 71.3474 7.5549 71.1722 7.14569C71.0409 6.83878 70.7451 6.65676 70.436 6.65676C70.3286 6.65676 70.2198 6.67802 70.1163 6.72319ZM87.6626 7.95348C86.7884 8.2285 86.2936 9.16914 86.5695 10.0566C86.8428 10.9415 87.7793 11.4357 88.6535 11.1594C89.533 10.8817 90.0212 9.93973 89.7479 9.05621C89.5237 8.33611 88.8684 7.87642 88.1627 7.87642C87.9955 7.87642 87.8284 7.90166 87.6626 7.95348ZM65.8979 9.19306C65.5265 9.49199 65.4615 10.0341 65.7559 10.4127C66.0518 10.79 66.5943 10.8525 66.9658 10.5562C67.3398 10.2573 67.4049 9.71254 67.109 9.33389C66.9392 9.11733 66.6885 9.0044 66.4351 9.0044C66.2481 9.0044 66.0584 9.06684 65.8979 9.19306ZM90.8688 11.0916C89.9177 11.4464 89.4282 12.5066 89.7837 13.4698C90.1353 14.4317 91.1925 14.9206 92.1397 14.5659C93.0908 14.2125 93.579 13.1443 93.2261 12.1851C92.9502 11.4331 92.2498 10.976 91.5069 10.976C91.2947 10.976 91.0784 11.0132 90.8688 11.0916ZM62.547 12.3365C62.0496 12.6913 61.9289 13.3821 62.2844 13.887C62.6372 14.3866 63.3244 14.5048 63.8192 14.1501C64.3166 13.794 64.4347 13.1005 64.0818 12.6009C63.8669 12.294 63.5287 12.1306 63.1851 12.1306C62.9636 12.1306 62.7407 12.197 62.547 12.3365ZM93.0988 15.0176C92.084 15.4601 91.6157 16.6372 92.0535 17.6642C92.4912 18.6872 93.6652 19.1589 94.6787 18.7191C95.6909 18.278 96.1605 17.0902 95.7214 16.0699C95.3964 15.3059 94.6615 14.8529 93.8907 14.8529C93.6254 14.8529 93.3561 14.9047 93.0988 15.0176ZM60.2004 16.2094C59.5795 16.6093 59.3898 17.4357 59.7878 18.0681C60.1818 18.6965 61.0069 18.8839 61.6291 18.4866C62.2552 18.0907 62.4383 17.255 62.0429 16.6252C61.7882 16.22 61.3584 15.9995 60.9167 15.9995C60.6713 15.9995 60.4232 16.0686 60.2004 16.2094ZM94.3484 19.7302C93.4424 20.1832 93.0696 21.2953 93.518 22.208C93.9716 23.1327 95.07 23.5007 95.9787 23.0477C96.8861 22.596 97.2602 21.4879 96.8078 20.5685C96.4881 19.9162 95.8368 19.5389 95.1602 19.5389C94.887 19.5389 94.6097 19.6 94.3484 19.7302ZM58.9587 20.4436C58.1562 20.8967 57.8709 21.9184 58.3233 22.7288C58.773 23.5353 59.7865 23.8262 60.589 23.3705C61.3916 22.9175 61.6768 21.8918 61.2258 21.0827C60.9194 20.534 60.3569 20.2271 59.7745 20.2271C59.7719 20.2271 59.7706 20.2271 59.7679 20.2271C59.4933 20.2271 59.2147 20.2975 58.9587 20.4436ZM94.4107 24.6261C93.6121 25.0778 93.3243 26.1035 93.774 26.9152C94.2263 27.7257 95.2425 28.006 96.0397 27.553C96.8423 27.0986 97.1288 26.0795 96.6765 25.2678C96.3714 24.7191 95.8063 24.4095 95.2252 24.4095C94.9493 24.4095 94.6694 24.4786 94.4107 24.6261ZM59.0211 24.9489C58.1177 25.3993 57.7396 26.5074 58.1906 27.4294C58.6417 28.3461 59.7454 28.7208 60.654 28.2664C61.5614 27.8134 61.9328 26.7013 61.4818 25.7846C61.1608 25.1296 60.5148 24.7523 59.8422 24.7523C59.5663 24.7523 59.2864 24.816 59.0211 24.9489ZM60.3224 29.2788C59.3116 29.7173 58.8393 30.8997 59.2784 31.9267C59.7135 32.9484 60.8941 33.4187 61.905 32.979C62.9145 32.5379 63.3814 31.3528 62.9437 30.3297C62.6173 29.5671 61.8838 29.1141 61.113 29.1141C60.849 29.1141 60.5811 29.1659 60.3224 29.2788ZM93.3734 29.5087C92.7499 29.9059 92.5628 30.7403 92.9595 31.366C93.3548 31.9985 94.1786 32.1818 94.8007 31.7846C95.4229 31.3873 95.6126 30.5583 95.216 29.9258C94.9613 29.5219 94.5261 29.3001 94.0831 29.3001C93.8403 29.3001 93.5949 29.3678 93.3734 29.5087ZM62.8601 33.4307C61.9103 33.7854 61.4221 34.8536 61.775 35.8089C62.1292 36.7774 63.1864 37.2584 64.1323 36.9023C65.086 36.5462 65.5729 35.49 65.2187 34.5228C64.9441 33.7774 64.2437 33.3138 63.4968 33.3138C63.2859 33.3138 63.0697 33.351 62.8601 33.4307ZM91.1819 33.8465C90.6831 34.2013 90.5677 34.8948 90.9193 35.3957C91.2721 35.8992 91.9593 36.0161 92.4581 35.6627C92.9529 35.308 93.0709 34.6158 92.7167 34.1096C92.5032 33.804 92.1622 33.6419 91.8173 33.6406C91.5971 33.6406 91.3743 33.7084 91.1819 33.8465ZM66.3463 36.8372C65.4681 37.1122 64.9799 38.0529 65.2545 38.9391C65.5291 39.8305 66.459 40.3195 67.3372 40.0405C68.214 39.7668 68.7062 38.8275 68.4316 37.9413C68.2101 37.2212 67.5508 36.7602 66.8411 36.7602C66.6779 36.7602 66.5108 36.7854 66.3463 36.8372ZM88.0327 37.4404C87.6626 37.7393 87.5989 38.2854 87.8921 38.6601C88.1879 39.04 88.7305 39.0998 89.1032 38.8022C89.476 38.5046 89.5396 37.9612 89.2465 37.5826C89.0767 37.366 88.8246 37.2531 88.5699 37.2531C88.3829 37.2531 88.1932 37.3142 88.0327 37.4404ZM70.5806 39.4267C69.8669 39.6113 69.4371 40.3421 69.6189 41.0622C69.8006 41.7889 70.5275 42.2194 71.2412 42.036C71.9562 41.8513 72.3887 41.1219 72.2056 40.3979C72.0531 39.7894 71.5079 39.3841 70.9136 39.3841C70.8035 39.3841 70.692 39.3988 70.5806 39.4267ZM84.2507 39.7894C83.8448 39.9647 83.6564 40.4404 83.8315 40.8496C84.0093 41.2641 84.4802 41.4501 84.8861 41.2747C85.2934 41.098 85.4831 40.6211 85.308 40.2105C85.1766 39.9049 84.8795 39.7229 84.5691 39.7229C84.4629 39.7229 84.3542 39.7442 84.2507 39.7894ZM75.2103 40.7951C74.6146 40.916 74.2273 41.5046 74.3467 42.1038C74.4661 42.7096 75.0484 43.0989 75.644 42.978C76.2397 42.8571 76.6297 42.2712 76.509 41.6653C76.4028 41.1392 75.9425 40.7739 75.4265 40.7739C75.3549 40.7739 75.2832 40.7805 75.2103 40.7951ZM79.9593 40.9519C79.4924 41.0236 79.1647 41.4647 79.2337 41.939C79.3027 42.416 79.7431 42.7415 80.21 42.6724C80.6823 42.602 81.0099 42.1636 80.9396 41.6866C80.8786 41.2535 80.5085 40.9439 80.0827 40.9439C80.0429 40.9439 80.0018 40.9452 79.9593 40.9519Z" fill="black"/>
<path d="M75.9901 1.00819C75.9901 1.56801 76.4442 2.01897 77 2.01897C77.5585 2.01897 78.0125 1.56801 78.0125 1.00819C78.0125 0.447077 77.5585 0 77 0C76.4442 0 75.9901 0.447077 75.9901 1.00819ZM70.9014 0.728279C70.322 0.882488 69.9776 1.4747 70.1315 2.05525C70.2881 2.6371 70.8857 2.97792 71.4611 2.82371C72.0418 2.6682 72.3862 2.07469 72.2323 1.49284C72.1018 1.00689 71.6647 0.689404 71.1871 0.689404C71.0932 0.689404 70.9966 0.702362 70.9014 0.728279ZM81.7717 1.49414C81.6164 2.07469 81.9609 2.6682 82.5389 2.82371C83.1182 2.97921 83.7158 2.6371 83.8711 2.05655C84.0251 1.476 83.6793 0.883784 83.0986 0.728279C83.0047 0.702362 82.9094 0.690701 82.8168 0.690701C82.3392 0.690701 81.9008 1.00689 81.7717 1.49414ZM65.4695 2.66043C64.7179 2.81982 64.2377 3.55199 64.3982 4.30748C64.5574 5.05649 65.2946 5.53467 66.0449 5.37528C66.7965 5.21589 67.2753 4.47853 67.1148 3.72693C66.9765 3.07251 66.4024 2.62803 65.7617 2.62803C65.6652 2.62803 65.5673 2.6384 65.4695 2.66043ZM86.8865 3.72693C86.726 4.47853 87.2049 5.21589 87.9564 5.37528C88.7054 5.53467 89.4439 5.05649 89.6018 4.30748C89.7649 3.55199 89.2834 2.81982 88.5331 2.66172C88.4353 2.63969 88.3361 2.62933 88.2383 2.62933C87.5976 2.62933 87.0248 3.07251 86.8865 3.72693ZM60.84 5.9338C59.9228 6.07894 59.2965 6.93421 59.4426 7.85817C59.5874 8.77565 60.4486 9.40415 61.3659 9.25901C62.2844 9.11387 62.9108 8.24952 62.7659 7.33075C62.6341 6.4988 61.9204 5.91307 61.1075 5.91307C61.0188 5.91307 60.9301 5.91955 60.84 5.9338ZM91.2367 7.33205C91.0932 8.25082 91.7182 9.11517 92.6354 9.2603C93.5514 9.40544 94.4165 8.77694 94.56 7.85947C94.7075 6.93551 94.0772 6.08023 93.1639 5.9351C93.0752 5.92084 92.9851 5.91436 92.8977 5.91436C92.0848 5.91436 91.3698 6.4988 91.2367 7.33205ZM94.3826 12.0361C94.2625 13.1868 95.1028 14.2196 96.2497 14.3414C97.4032 14.4632 98.434 13.6235 98.5553 12.4728C98.678 11.3156 97.8416 10.2892 96.6908 10.1674C96.6151 10.1596 96.542 10.1558 96.4676 10.1558C95.4108 10.1558 94.4974 10.954 94.3826 12.0361ZM57.3105 10.1674C56.1558 10.2892 55.3233 11.3156 55.4447 12.4728C55.5647 13.6235 56.5942 14.4632 57.749 14.3401C58.8998 14.2196 59.7375 13.1868 59.6161 12.0361C59.5026 10.954 58.5919 10.1558 57.535 10.1558C57.4606 10.1558 57.3862 10.1596 57.3105 10.1674ZM96.4141 17.5552C96.3476 18.8316 97.3275 19.9214 98.5984 19.9888C99.8758 20.0536 100.967 19.0739 101.033 17.7975C101.1 16.5146 100.116 15.4338 98.8437 15.3678C98.8019 15.3652 98.7602 15.3639 98.7184 15.3639C97.4997 15.3639 96.4794 16.315 96.4141 17.5552ZM55.1537 15.3678C53.8841 15.4338 52.899 16.5146 52.9669 17.7975C53.0334 19.0739 54.1255 20.0536 55.4003 19.9888C56.6751 19.9214 57.655 18.8316 57.5885 17.5552C57.5232 16.315 56.5042 15.3639 55.279 15.3639C55.2372 15.3639 55.1955 15.3652 55.1537 15.3678ZM96.9674 23.4981C96.9674 24.8898 98.0921 26.0185 99.4804 26.0185C100.873 26.0185 102 24.8898 102 23.5006C102 22.1024 100.873 20.9841 99.4843 20.9841C98.0921 20.9841 96.9674 22.1024 96.9674 23.4981ZM52 23.5006C52 24.8898 53.1326 26.0185 54.5196 26.0185C55.904 26.0185 57.0313 24.8898 57.0313 23.4981C57.0313 22.1024 55.904 20.9841 54.5196 20.9841C53.1326 20.9841 52 22.1024 52 23.5006ZM98.5984 27.0125C97.3275 27.0798 96.3476 28.1684 96.4141 29.4435C96.482 30.7277 97.5702 31.697 98.8437 31.6322C100.116 31.5649 101.098 30.4854 101.032 29.2012C100.968 27.9688 99.9436 27.0099 98.721 27.0099C98.6806 27.0099 98.6401 27.0112 98.5984 27.0125ZM52.9682 29.2012C52.9016 30.4854 53.8841 31.5649 55.155 31.6322C56.4337 31.6983 57.5206 30.7277 57.5898 29.4435C57.655 28.1684 56.6751 27.0798 55.4016 27.0125C55.3599 27.0112 55.3194 27.0099 55.279 27.0099C54.0577 27.0099 53.0321 27.9688 52.9682 29.2012ZM96.2497 32.6599C95.1015 32.7804 94.2625 33.8132 94.3826 34.9665C94.5052 36.1237 95.5412 36.9531 96.6895 36.8326C97.8416 36.7108 98.678 35.6857 98.5553 34.5272C98.4418 33.4504 97.5311 32.6482 96.4716 32.6482C96.3998 32.6482 96.3254 32.6521 96.2497 32.6599ZM55.4447 34.5272C55.3233 35.6857 56.1571 36.7108 57.3105 36.8326C58.4614 36.9531 59.4948 36.1237 59.6161 34.9665C59.7375 33.8132 58.8998 32.7804 57.749 32.6599C57.6733 32.6521 57.5989 32.6482 57.5245 32.6482C56.465 32.6482 55.5569 33.4504 55.4447 34.5272ZM92.6367 37.7423C91.7182 37.8887 91.0906 38.7505 91.2367 39.668C91.3828 40.5906 92.2453 41.2113 93.1626 41.0662C94.0772 40.9211 94.7062 40.0645 94.56 39.1418C94.4282 38.3125 93.7106 37.7216 92.899 37.7216C92.8129 37.7216 92.7242 37.7293 92.6367 37.7423ZM59.4439 39.1418C59.2965 40.0645 59.9241 40.9224 60.84 41.0662C61.7573 41.2113 62.6198 40.5906 62.7672 39.668C62.9108 38.7518 62.2844 37.8887 61.3659 37.7436C61.2758 37.7306 61.1884 37.7228 61.101 37.7228C60.2894 37.7228 59.5731 38.3138 59.4439 39.1418ZM87.9564 41.6247C87.2049 41.7841 86.7247 42.5241 86.8852 43.2718C87.0457 44.0273 87.7816 44.5041 88.5331 44.3435C89.2834 44.1854 89.7636 43.4493 89.6018 42.6938C89.4635 42.0433 88.8854 41.5936 88.2435 41.5936C88.1482 41.5936 88.0517 41.6027 87.9564 41.6247ZM64.3995 42.6951C64.2377 43.4493 64.7179 44.1854 65.4682 44.3448C66.2184 44.5041 66.9556 44.0273 67.1148 43.2718C67.2753 42.5241 66.7965 41.7841 66.0449 41.6247C65.9496 41.6027 65.8531 41.5936 65.7578 41.5936C65.1159 41.5936 64.5378 42.0433 64.3995 42.6951ZM82.5376 44.1776C81.9609 44.3331 81.6164 44.9266 81.7691 45.5085C81.9256 46.0877 82.5219 46.4285 83.0986 46.273C83.6806 46.1188 84.0237 45.5266 83.8698 44.9447C83.7406 44.4601 83.2996 44.14 82.8194 44.14C82.7268 44.14 82.6315 44.1517 82.5376 44.1776ZM70.1315 44.9473C69.9776 45.5266 70.3233 46.1188 70.9014 46.273C71.482 46.4285 72.077 46.0877 72.2323 45.5072C72.3862 44.9266 72.0418 44.3331 71.4611 44.1776C71.3685 44.153 71.2745 44.14 71.1819 44.14C70.7043 44.14 70.262 44.4601 70.1315 44.9473ZM75.9901 45.9931C75.9901 46.5296 76.4076 46.965 76.9321 47H77.0692C77.595 46.965 78.0125 46.5296 78.0125 45.9918C78.0125 45.4346 77.5585 44.9823 77 44.9823C76.4442 44.9823 75.9901 45.4346 75.9901 45.9931Z" fill="black"/>
<path d="M127.045 69.1731C127.045 70.3268 127.091 70.3574 128.22 70.3574H131.994C132.154 70.3574 132.291 70.4814 132.291 70.6324V71.5111C132.291 71.7055 132.215 71.7745 131.994 71.8008C131.515 71.8704 130.546 71.9933 128.774 71.9933C126.296 71.9933 124.987 72.0092 124.987 69.1731V64.819C124.987 61.9835 126.296 62 128.774 62C130.546 62 131.515 62.1241 131.994 62.1913C132.215 62.2176 132.291 62.2878 132.291 62.4815V63.3603C132.291 63.5106 132.154 63.6365 131.994 63.6365H128.22C127.091 63.6365 127.045 63.6677 127.045 64.819V66.0809H131.813C131.979 66.0809 132.109 66.2062 132.109 66.3553V67.3489C132.109 67.4987 131.979 67.6227 131.813 67.6227H127.045V69.1731ZM149.081 72C147.763 72 146.429 71.7904 145.713 71.6382C145.565 71.6107 145.43 71.516 145.43 71.3645V70.3733C145.43 70.2229 145.565 70.1111 145.713 70.1111H145.743C146.339 70.1802 147.734 70.3598 149.111 70.3598C150.436 70.3598 150.842 69.9217 150.842 69.1236C150.842 68.0914 148.174 67.5207 146.872 67.0244C145.576 66.5301 145.117 65.581 145.117 64.6192C145.117 63.1043 146.436 62.0043 149.207 62.0043C150.627 62.0043 151.927 62.2536 152.434 62.3654C152.584 62.3923 152.702 62.4889 152.702 62.6258V63.6445C152.702 63.7807 152.6 63.892 152.448 63.892H152.42C151.435 63.8101 150.415 63.642 149.121 63.642C148.016 63.642 147.19 64.0001 147.19 64.6192C147.19 65.072 147.75 65.4881 148.411 65.7308C149.073 65.9715 149.94 66.2838 150.931 66.6517C152.186 67.121 153 67.8036 153 69.1236C153 70.5126 152.062 72 149.081 72ZM141.158 65.1093C141.158 64.0771 140.291 63.6365 138.798 63.6365C138.487 63.6365 137.131 63.664 136.863 63.6915V66.6755C137.104 66.6896 138.549 66.7171 138.798 66.7171C140.337 66.7171 141.158 66.4439 141.158 65.2339V65.1093ZM143.394 71.8845H141.575C141.411 71.8845 141.352 71.7446 141.279 71.6089L139.13 68.2717H138.798C138.413 68.2717 137.208 68.2326 136.863 68.2167V71.6089C136.863 71.7592 136.745 71.8845 136.582 71.8845H135.093C134.929 71.8845 134.795 71.7592 134.795 71.6089V62.5903C134.795 62.3141 134.972 62.2176 135.27 62.1778C136.044 62.0678 137.713 62 138.798 62C141.095 62 143.213 62.7572 143.213 65.1093V65.2339C143.213 66.6902 142.422 67.4883 141.201 67.9264L143.542 71.6089C143.572 71.6505 143.572 71.6896 143.572 71.7201C143.572 71.8142 143.512 71.8845 143.394 71.8845ZM123.159 63.7044H120.186V71.6089C120.186 71.7592 120.049 71.8845 119.885 71.8845H118.41C118.246 71.8845 118.112 71.7592 118.112 71.6089V63.7044H115.137C114.975 63.7044 114.84 63.6096 114.84 63.4575V62.3703C114.84 62.2176 114.975 62.1088 115.137 62.1088H123.159C123.32 62.1088 123.454 62.2176 123.454 62.3703V63.4575C123.454 63.6096 123.32 63.7044 123.159 63.7044ZM108.895 71.9933C106.497 71.9933 104.432 71.0302 104.432 68.0975V62.3703C104.432 62.2176 104.568 62.1088 104.732 62.1088H106.204C106.37 62.1088 106.503 62.2176 106.503 62.3703V68.0975C106.503 69.6674 107.288 70.4111 108.895 70.4111C110.505 70.4111 111.289 69.6674 111.289 68.0975V62.3703C111.289 62.2176 111.422 62.1088 111.586 62.1088H113.061C113.227 62.1088 113.361 62.2176 113.361 62.3703V68.0975C113.361 71.0302 111.295 71.9933 108.895 71.9933ZM96.9584 69.1731C96.9584 70.3268 97.006 70.3574 98.1329 70.3574H101.906C102.07 70.3574 102.204 70.4814 102.204 70.6324V71.5111C102.204 71.7055 102.129 71.7745 101.906 71.8008C101.429 71.8704 100.458 71.9933 98.6861 71.9933C96.2127 71.9933 94.9012 72.0092 94.9012 69.1731V64.819C94.9012 61.9835 96.2127 62 98.6861 62C100.458 62 101.429 62.1241 101.906 62.1913C102.129 62.2176 102.204 62.2878 102.204 62.4815V63.3603C102.204 63.5106 102.07 63.6365 101.906 63.6365H98.1329C97.006 63.6365 96.9584 63.6677 96.9584 64.819V66.0809H101.727C101.891 66.0809 102.026 66.2062 102.026 66.3553V67.3489C102.026 67.4987 101.891 67.6227 101.727 67.6227H96.9584V69.1731ZM90.5718 65.1093C90.5718 64.0771 89.7043 63.6365 88.2142 63.6365C87.9005 63.6365 86.5448 63.664 86.2781 63.6915V66.6755C86.515 66.6896 87.9581 66.7171 88.2142 66.7171C89.7473 66.7171 90.5718 66.4439 90.5718 65.2339V65.1093ZM92.8076 71.8845H90.988C90.8252 71.8845 90.7643 71.7446 90.6902 71.6089L88.5437 68.2717H88.2142C87.8251 68.2717 86.6208 68.2326 86.2781 68.2167V71.6089C86.2781 71.7592 86.1583 71.8845 85.9942 71.8845H84.5041C84.3413 71.8845 84.207 71.7592 84.207 71.6089V62.5903C84.207 62.3141 84.3837 62.2176 84.6834 62.1778C85.4589 62.0678 87.1251 62 88.2142 62C90.5083 62 92.6276 62.7572 92.6276 65.1093V65.2339C92.6276 66.6902 91.8383 67.4883 90.6168 67.9264L92.9545 71.6089C92.9856 71.6505 92.9856 71.6896 92.9856 71.7201C92.9856 71.8142 92.9261 71.8845 92.8076 71.8845ZM63.8561 66.2924C63.8561 64.4762 62.6671 63.664 61.2067 63.664C59.7464 63.664 58.5574 64.4762 58.5574 66.2924V67.7003C58.5574 69.5171 59.7464 70.328 61.2067 70.328C62.6671 70.328 63.8561 69.5171 63.8561 67.7003V66.2924ZM61.2067 71.9933C58.7486 71.9933 56.4724 70.7277 56.4724 67.7003V66.2924C56.4724 63.2656 58.7486 62 61.2067 62C63.6649 62 65.9405 63.2656 65.9405 66.2924V67.7003C65.9405 70.7277 63.6649 71.9933 61.2067 71.9933ZM50.674 72C49.3586 72 48.022 71.7904 47.306 71.6382C47.1571 71.6107 47.0228 71.516 47.0228 71.3645V70.3733C47.0228 70.2229 47.1571 70.1111 47.306 70.1111H47.3358C47.9313 70.1802 49.3262 70.3598 50.7038 70.3598C52.0311 70.3598 52.4328 69.9217 52.4328 69.1236C52.4328 68.0914 49.7695 67.5207 48.4679 67.0244C47.169 66.5301 46.7105 65.581 46.7105 64.6192C46.7105 63.1043 48.0312 62.0043 50.8017 62.0043C52.2224 62.0043 53.5226 62.2536 54.0274 62.3654C54.1776 62.3923 54.2948 62.4889 54.2948 62.6258V63.6445C54.2948 63.7807 54.1915 63.892 54.0433 63.892H54.0135C53.0283 63.8101 52.0086 63.642 50.7111 63.642C49.6113 63.642 48.7816 64.0001 48.7816 64.6192C48.7816 65.072 49.3427 65.4894 50.0017 65.7308C50.6634 65.9715 51.5335 66.2838 52.5234 66.6517C53.782 67.121 54.5952 67.8036 54.5952 69.1236C54.5952 70.5126 53.6569 72 50.674 72ZM76.759 71.8845H75.2517C74.8938 71.8845 74.5801 71.8845 74.3459 71.3895L70.3036 65.1368C70.2606 65.0549 70.2143 65.0249 70.1706 65.0249C70.1276 65.0249 70.0952 65.0549 70.0952 65.1368V71.6089C70.0952 71.7592 69.9754 71.8845 69.8113 71.8845H68.5475C68.3808 71.8845 68.2498 71.7592 68.2498 71.6089V62.6588C68.2498 62.3557 68.5151 62.1088 68.8433 62.1088H70.4532C70.7661 62.1088 70.9289 62.1913 71.1102 62.5512L75.3126 69.1731C75.3411 69.2403 75.3854 69.2837 75.4317 69.2837C75.4615 69.2837 75.5038 69.2403 75.5038 69.159V62.3703C75.5038 62.2176 75.6229 62.1088 75.7884 62.1088H77.07C77.2341 62.1088 77.3546 62.2176 77.3546 62.3703V71.3333C77.3546 71.637 77.0859 71.8845 76.759 71.8845ZM44.028 71.8845H42.5227C42.3897 71.8845 42.2865 71.7446 42.2865 71.6089V65.6586C42.2865 65.5627 42.2706 65.5218 42.2382 65.5218C42.2269 65.5218 42.1965 65.5627 42.1647 65.6036L39.7588 70.5242C39.6708 70.6739 39.4783 70.7589 39.285 70.7589H38.5102C38.3163 70.7589 38.1225 70.6739 38.0351 70.5242L35.6133 65.6036C35.5822 65.5627 35.5511 65.5218 35.5386 65.5218C35.5088 65.5218 35.4929 65.5627 35.4929 65.6586V71.6089C35.4929 71.7446 35.3884 71.8845 35.254 71.8845H33.7507C33.6157 71.8845 33.4953 71.8142 33.4953 71.678V62.6588C33.4953 62.3557 33.7646 62.1088 34.0921 62.1088H35.3143C35.5511 62.1088 35.7609 62.2457 35.8654 62.4388L38.7246 67.8146C38.798 67.938 38.8291 68.0071 38.8913 68.0071C38.9496 68.0071 38.9793 67.938 39.0548 67.8146L41.9119 62.4388C42.0165 62.2457 42.2269 62.1088 42.4638 62.1088H43.6866C44.0141 62.1088 44.2821 62.3557 44.2821 62.6588V71.678C44.2821 71.8142 44.1623 71.8845 44.028 71.8845ZM29.1017 66.2924C29.1017 64.4762 27.9139 63.664 26.4529 63.664C24.9933 63.664 23.8042 64.4762 23.8042 66.2924V67.7003C23.8042 69.5171 24.9933 70.328 26.4529 70.328C27.9139 70.328 29.1017 69.5171 29.1017 67.7003V66.2924ZM26.4529 71.9933C23.9948 71.9933 21.7192 70.7277 21.7192 67.7003V66.2924C21.7192 63.2656 23.9948 62 26.4529 62C28.9124 62 31.1893 63.2656 31.1893 66.2924V67.7003C31.1893 70.7277 28.9124 71.9933 26.4529 71.9933ZM19.0685 71.8845H17.5949C17.4288 71.8845 17.2939 71.7592 17.2939 71.6089V67.6227H12.574L12.574 71.6089C12.574 71.7592 12.4404 71.8845 12.2789 71.8845H10.8027C10.6373 71.8845 10.5036 71.7592 10.5036 71.6089L10.5036 62.3703C10.5036 62.2176 10.6373 62.1088 10.8027 62.1088H12.2789C12.4404 62.1088 12.574 62.2176 12.574 62.3703V65.944H17.2939V62.3703C17.2939 62.2176 17.4288 62.1088 17.5949 62.1088H19.0685C19.2306 62.1088 19.3656 62.2176 19.3656 62.3703V71.6089C19.3656 71.7592 19.2306 71.8845 19.0685 71.8845ZM8.31741 63.7044H5.34445L5.34445 71.6089C5.34445 71.7592 5.21079 71.8845 5.04471 71.8845H3.57245C3.40835 71.8845 3.27469 71.7592 3.27469 71.6089L3.27469 63.7044H0.29842C0.134983 63.7044 0 63.6096 0 63.4575L0 62.3703C0 62.2176 0.134983 62.1088 0.29842 62.1088H8.31741C8.48151 62.1088 8.61583 62.2176 8.61583 62.3703V63.4575C8.61583 63.6096 8.48151 63.7044 8.31741 63.7044Z" fill="black"/>
</svg>
