<svg fill="none" height="30" viewBox="0 0 165 30" width="165" xmlns="http://www.w3.org/2000/svg"><path clip-rule="evenodd" d="m60.8551 0c9.1829 0 15.7403 6.05284 15.9464 14.7112 0 4.135-1.5867 7.9153-4.4674 10.644-2.9133 2.7596-6.9906 4.2797-11.479 4.2797-4.4888 0-8.5654-1.5201-11.479-4.2797-2.8808-2.7287-4.467-6.509-4.467-10.644 0-4.1196 1.5854-7.86138 4.4642-10.5356 2.8998-2.69288 6.9771-4.1756 11.4818-4.1756zm45.4979.726658c3.538 0 6.448.974172 8.416 2.817642 1.95 1.82638 2.981 4.51291 2.981 7.7688 0 6.6946-4.251 10.8871-11.118 10.9977l-.279.0023h-4.923v6.5947h-8.5121v-28.181142zm-77.4278-.00004v1.012312c0 5.33135-5.4392 10.57087-9.4104 14.39647-1.4209 1.3691-2.6609 2.5633-3.4989 3.5912l-.1733.2177-.4349.5598 13.3978-.004-.0083 8.3771h-28.7972v-1.0123c0-5.2889 5.00327-10.1129 9.02356-13.9893 1.63794-1.5801 3.06494-2.9558 3.86704-4.11072l.1279-.19043.3468-.53556-12.436229-.00159v-8.310682zm124.3678-.110369 10.918 28.190251h-8.889l-1.753-4.5252h-11.886l-1.753 4.5252h-8.888l10.918-28.190251zm-92.4379 7.402021c-1.8372 0-3.5482.70242-4.819 1.97696-1.2553 1.25947-1.9469 2.93447-1.9469 4.71597 0 1.7814.6916 3.4568 1.9469 4.7159 1.2708 1.2749 2.9818 1.9769 4.819 1.9769 1.7765 0 3.4574-.6746 4.7333-1.899 1.3104-1.2583 2.0326-2.9607 2.0326-4.7938 0-1.7815-.6917-3.4565-1.9474-4.71597-1.2707-1.27454-2.9818-1.97696-4.8185-1.97696zm86.7709.917-3.392 8.75843h6.784zm-41.267-.92614h-4.929v7.24827h4.929c2.085 0 3.541-1.5133 3.541-3.6805 0-2.13432-1.423-3.56777-3.541-3.56777z" fill="#fff" fill-rule="evenodd"/></svg>