<svg width="462" height="86" viewBox="0 0 462 86" fill="none" xmlns="http://www.w3.org/2000/svg">
<g style="mix-blend-mode:hard-light">
<path d="M26.3198 85.68C21.2798 85.68 16.8465 85.0733 13.0198 83.86C9.19318 82.6467 6.20651 80.1733 4.05984 76.44C1.91318 72.7067 0.839844 67.1533 0.839844 59.78V18.9C0.839844 14.2333 1.91318 10.5467 4.05984 7.84C6.20651 5.04 9.19318 3.03334 13.0198 1.82C16.8465 0.606667 21.2798 0 26.3198 0C31.4532 0 35.8398 0.606667 39.4798 1.82C43.1198 3.03334 45.9198 5.04 47.8798 7.84C49.8398 10.5467 50.8198 14.2333 50.8198 18.9V38.22H28.5598V17.78C28.5598 16.66 28.4665 15.82 28.2798 15.26C28.0932 14.6067 27.8132 14.1867 27.4398 14C27.1598 13.72 26.7865 13.58 26.3198 13.58C25.8532 13.58 25.4332 13.72 25.0598 14C24.7798 14.1867 24.5465 14.6067 24.3598 15.26C24.1732 15.82 24.0798 16.66 24.0798 17.78V68.6C24.0798 69.6267 24.1732 70.4667 24.3598 71.12C24.5465 71.7733 24.7798 72.24 25.0598 72.52C25.4332 72.7067 25.8532 72.8 26.3198 72.8C26.7865 72.8 27.1598 72.7067 27.4398 72.52C27.8132 72.24 28.0932 71.7733 28.2798 71.12C28.4665 70.4667 28.5598 69.6267 28.5598 68.6V49.28H50.8198V59.64C50.8198 67.1067 49.8398 72.7067 47.8798 76.44C45.9198 80.1733 43.1198 82.6467 39.4798 83.86C35.8398 85.0733 31.4532 85.68 26.3198 85.68Z" fill="#F2F2F2"/>
<path d="M50.8942 84L62.7942 1.26H95.6942L107.314 84H82.2542L81.1342 71.96H75.9542L75.1142 84H50.8942ZM76.0942 61.18H81.1342L78.6142 18.76L76.0942 61.18Z" fill="#F2F2F2"/>
<path d="M132.819 85.12C127.313 85.12 122.599 84.4667 118.679 83.16C114.853 81.76 111.913 79.2867 109.859 75.74C107.899 72.1 106.919 66.9667 106.919 60.34V55.16C110.839 55.16 114.713 55.16 118.539 55.16C122.459 55.16 126.379 55.16 130.299 55.16V62.3C130.299 64.82 130.393 66.7333 130.579 68.04C130.859 69.2533 131.186 70.0933 131.559 70.56C132.026 70.9333 132.586 71.12 133.239 71.12C134.266 71.12 134.966 70.6533 135.339 69.72C135.806 68.6933 136.039 66.5933 136.039 63.42C136.039 60.4333 135.573 58.24 134.639 56.84C133.706 55.44 132.119 54.2733 129.879 53.34C127.733 52.4067 124.793 51.1467 121.059 49.56C117.606 47.9733 114.899 46.1067 112.939 43.96C110.979 41.72 109.579 39.06 108.739 35.98C107.993 32.8067 107.619 29.12 107.619 24.92C107.619 19.04 108.366 14.3733 109.859 10.92C111.446 7.37334 114.106 4.85334 117.839 3.36C121.573 1.77333 126.706 0.979996 133.239 0.979996C141.639 0.979996 147.986 2.66 152.279 6.02C156.573 9.28667 158.719 14.3267 158.719 21.14V31.78C154.986 31.78 151.253 31.78 147.519 31.78C143.879 31.78 140.193 31.78 136.459 31.78V28.14C136.459 24.3133 136.319 21.7933 136.039 20.58C135.853 19.2733 135.013 18.62 133.519 18.62C132.306 18.62 131.513 19.04 131.139 19.88C130.859 20.72 130.719 22.1667 130.719 24.22C130.719 26.9267 131.233 28.98 132.259 30.38C133.379 31.78 134.826 32.8533 136.599 33.6C138.373 34.2533 140.239 34.9533 142.199 35.7C146.306 37.1933 149.619 38.78 152.139 40.46C154.753 42.0467 156.666 44.3333 157.879 47.32C159.093 50.2133 159.699 54.46 159.699 60.06C159.699 66.3133 158.626 71.3067 156.479 75.04C154.333 78.68 151.253 81.2933 147.239 82.88C143.226 84.3733 138.419 85.12 132.819 85.12Z" fill="#F2F2F2"/>
<path d="M162.398 84V1.26H202.438V16.8H185.638V32.9H201.038V50.4H185.638V68.88H202.438V84H162.398Z" fill="#F2F2F2"/>
<path d="M230.9 85.12C225.393 85.12 220.68 84.4667 216.76 83.16C212.933 81.76 209.993 79.2867 207.94 75.74C205.98 72.1 205 66.9667 205 60.34V55.16C208.92 55.16 212.793 55.16 216.62 55.16C220.54 55.16 224.46 55.16 228.38 55.16V62.3C228.38 64.82 228.473 66.7333 228.66 68.04C228.94 69.2533 229.267 70.0933 229.64 70.56C230.107 70.9333 230.667 71.12 231.32 71.12C232.347 71.12 233.047 70.6533 233.42 69.72C233.887 68.6933 234.12 66.5933 234.12 63.42C234.12 60.4333 233.653 58.24 232.72 56.84C231.787 55.44 230.2 54.2733 227.96 53.34C225.813 52.4067 222.873 51.1467 219.14 49.56C215.687 47.9733 212.98 46.1067 211.02 43.96C209.06 41.72 207.66 39.06 206.82 35.98C206.073 32.8067 205.7 29.12 205.7 24.92C205.7 19.04 206.447 14.3733 207.94 10.92C209.527 7.37333 212.187 4.85334 215.92 3.36C219.653 1.77333 224.787 0.979996 231.32 0.979996C239.72 0.979996 246.067 2.66 250.36 6.02C254.653 9.28667 256.8 14.3267 256.8 21.14V31.78C253.067 31.78 249.333 31.78 245.6 31.78C241.96 31.78 238.273 31.78 234.54 31.78V28.14C234.54 24.3133 234.4 21.7933 234.12 20.58C233.933 19.2733 233.093 18.62 231.6 18.62C230.387 18.62 229.593 19.04 229.22 19.88C228.94 20.72 228.8 22.1667 228.8 24.22C228.8 26.9267 229.313 28.98 230.34 30.38C231.46 31.78 232.907 32.8533 234.68 33.6C236.453 34.2533 238.32 34.9533 240.28 35.7C244.387 37.1933 247.7 38.78 250.22 40.46C252.833 42.0467 254.747 44.3333 255.96 47.32C257.173 50.2133 257.78 54.46 257.78 60.06C257.78 66.3133 256.707 71.3067 254.56 75.04C252.413 78.68 249.333 81.2933 245.32 82.88C241.307 84.3733 236.5 85.12 230.9 85.12Z" fill="#F2F2F2"/>
<path d="M269.998 84V16.8H258.098V1.26H304.158V16.8H292.258V84H269.998Z" fill="#F2F2F2"/>
<path d="M330.58 85.68C326.847 85.68 323.44 85.4 320.36 84.84C317.373 84.3733 314.807 83.3467 312.66 81.76C310.513 80.1733 308.833 77.7467 307.62 74.48C306.5 71.2133 305.94 66.78 305.94 61.18V1.26H328.2V67.9C328.2 68.9267 328.293 69.7667 328.48 70.42C328.667 71.0733 328.947 71.54 329.32 71.82C329.693 72.0067 330.113 72.1 330.58 72.1C331.047 72.1 331.467 72.0067 331.84 71.82C332.213 71.54 332.493 71.0733 332.68 70.42C332.867 69.7667 332.96 68.9267 332.96 67.9V1.26H355.22V61.04C355.22 66.64 354.613 71.12 353.4 74.48C352.28 77.7467 350.647 80.1733 348.5 81.76C346.353 83.3467 343.74 84.3733 340.66 84.84C337.673 85.4 334.313 85.68 330.58 85.68Z" fill="#F2F2F2"/>
<path d="M359.468 84V1.26H391.948C396.055 1.26 399.368 1.86667 401.888 3.08C404.501 4.29334 406.415 5.97333 407.628 8.12C408.841 10.1733 409.448 12.6 409.448 15.4V66.5C409.448 70.8867 408.608 74.3867 406.928 77C405.248 79.52 402.868 81.34 399.788 82.46C396.708 83.4867 392.975 84 388.588 84H359.468ZM382.708 72.8H384.808C385.555 72.8 386.115 72.52 386.488 71.96C386.955 71.3067 387.188 70.1867 387.188 68.6V17.78C387.188 16.1933 386.955 15.12 386.488 14.56C386.115 13.9067 385.555 13.58 384.808 13.58H382.708V72.8Z" fill="#F2F2F2"/>
<path d="M423.135 84V49.7L407.595 1.26H429.575L434.055 18.62L435.315 25.9L436.575 18.62L441.195 1.26H461.355L445.395 50.96V84H423.135Z" fill="#F2F2F2"/>
</g>
</svg>
