<svg fill="none" height="634" viewBox="0 0 268 634" width="268" xmlns="http://www.w3.org/2000/svg"><path d="m267.93 573.34c0 3.74-.22 8.25-.66 13.53-.22 5.28-.55 10.56-.99 15.84-.44 5.06-.88 9.46-1.32 13.2-.44 3.52-.77 5.61-.99 6.27h-26.73c.66-3.3 1.21-8.03 1.65-14.19.44-6.38.66-11.55.66-15.51 0-2.64-.22-5.17-.66-7.59-.44-2.64-1.32-4.95-2.64-6.93-1.1-2.2-2.75-3.96-4.95-5.28s-5.06-1.98-8.58-1.98h-24.09c1.54.88 3.85 2.09 6.93 3.63 3.08 1.32 5.94 3.85 8.58 7.59 2.42 3.74 3.63 9.68 3.63 17.82 0 4.84-.55 9.35-1.65 13.53s-3.41 7.81-6.93 10.89c-3.52 2.86-8.91 5.17-16.17 6.93-7.26 1.54-17.16 2.31-29.7 2.31h-64.35c-8.14 0-14.52-1.21-19.14-3.63-4.84-2.64-8.47-5.83-10.89-9.57s-3.96-7.48-4.62-11.22c-.88-3.96-1.32-7.37-1.32-10.23 0-6.82.66-12.65 1.98-17.49 1.1-4.84 4.84-8.36 11.22-10.56l-11.55-5.28v-46.2h130.68c7.26 0 15.07.44 23.43 1.32 8.36.66 16.28 2.64 23.76 5.94 7.48 3.08 13.53 8.36 18.15 15.84 4.84 7.26 7.26 17.6 7.26 31.02zm-80.19 2.97c0-1.1-.22-2.09-.66-2.97-.66-.88-1.76-1.54-3.3-1.98s-3.52-.66-5.94-.66h-83.49c-.22.44-.33.88-.33 1.32-.22.44-.33.99-.33 1.65-.22.66-.33 1.54-.33 2.64 0 1.54.77 2.86 2.31 3.96 1.32 1.1 3.85 1.65 7.59 1.65h74.25c1.98 0 3.63-.11 4.95-.33s2.42-.55 3.3-.99c.66-.66 1.21-1.32 1.65-1.98.22-.66.33-1.43.33-2.31zm40.26-73.466h-163.35v-51.48h163.35zm-179.19-25.41c0 6.82-2.31 12.65-6.93 17.49-4.84 4.84-10.67 7.37-17.49 7.59-6.6 0-12.21-2.53-16.83002-7.59-4.84-5.06-7.260006-11-7.260006-17.82 0-7.04 2.420006-12.98 7.260006-17.82 4.62002-5.06 10.34002-7.59 17.16002-7.59 6.6-.22 12.32 2.31 17.16 7.59 4.62 5.06 6.93 11.11 6.93 18.15zm181.83-71.298c0 6.16-.88 11.66-2.64 16.5-1.54 4.84-4.62 8.69-9.24 11.55s-11.33 4.29-20.13 4.29h-26.73c-9.68 0-17.6-2.75-23.76-8.25-6.16-5.72-11.44-15.62-15.84-29.7-2.2-6.38-4.07-11.22-5.61-14.52-1.76-3.3-3.96-5.5-6.6-6.6-2.86-1.32-7.04-1.98-12.54-1.98h-10.56c-1.76 0-3.19.22-4.29.66-1.32.22-2.31.77-2.97 1.65-.88.66-1.32 1.76-1.32 3.3 0 2.2 1.43 3.74 4.29 4.62 2.64.66 7.81.99 15.51.99h13.86v46.53h-18.81c-8.14 0-15.29-1.21-21.45-3.63-6.38-2.42-11.33-7.37-14.85-14.85-3.74-7.48-5.61-18.7-5.61-33.66s1.1-26.62 3.3-34.98 6.16-14.3 11.88-17.82c5.5-3.52 13.53-5.28 24.09-5.28h127.38v51.48h-16.17c5.5 1.1 10.01 4.62 13.53 10.56 3.52 5.72 5.28 12.1 5.28 19.14zm-33.33-23.1c0-2.64-1.21-4.18-3.63-4.62-2.42-.66-6.38-.99-11.88-.99h-33.33c.88.44 1.76 1.43 2.64 2.97.66 1.54 1.65 2.86 2.97 3.96 1.54 1.54 3.08 2.64 4.62 3.3s3.74.99 6.6.99h20.13c1.98 0 3.96-.11 5.94-.33 1.76-.22 3.19-.66 4.29-1.32 1.1-.88 1.65-2.2 1.65-3.96zm30.69-72.907h-163.35v-43.89l21.45-3.96c-6.82-1.98-12.43-5.72-16.83-11.22-4.62-5.5-6.93-11.77-6.93-18.81 0-9.68 1.65-17.16 4.95-22.44s8.14-8.91 14.52-10.89 14.3-2.97 23.76-2.97h122.43v51.48h-120.45c-1.54 0-2.86.11-3.96.33s-1.98.55-2.64.99c-.88.44-1.54.99-1.98 1.65s-.66 1.54-.66 2.64c0 .44.11 1.1.33 1.98 0 .66.11 1.32.33 1.98 0 .66.11 1.21.33 1.65h128.7zm0-128.906h-163.35v-43.89l21.45-3.96c-6.82-1.98-12.43-5.72-16.83-11.22-4.62-5.5-6.93-11.77-6.93-18.81 0-9.6803 1.65-17.1603 4.95-22.4403s8.14-8.91 14.52-10.89 14.3-2.97 23.76-2.97l122.43-.0001v51.4804h-120.45c-1.54 0-2.86.11-3.96.33s-1.98.55-2.64.99c-.88.44-1.54.99-1.98 1.65s-.66 1.54-.66 2.64c0 .44.11 1.1.33 1.98 0 .66.11 1.32.33 1.98 0 .66.11 1.21.33 1.65h128.7zm0-128.9066h-163.35v-51.479994l163.35-.000007zm-179.19-25.41c0 6.82-2.31 12.65-6.93 17.49-4.84 4.84-10.67 7.37-17.49 7.59-6.6 0-12.21-2.53-16.83004-7.59-4.84-5.06-7.260005-11-7.260006-17.82 0-7.04 2.420006-12.98 7.260006-17.81999 4.62004-5.06 10.34004-7.59 17.16004-7.59 6.6-.220002 12.32 2.31 17.16 7.59 4.62 5.05999 6.93 11.10999 6.93 18.14999z" fill="#27f7ff"/></svg>