<svg fill="none" height="1123" viewBox="0 0 1121 1123" width="1121" xmlns="http://www.w3.org/2000/svg"><g fill="#000"><g fill-opacity=".02"><path d="m1.37988 276.5 39.10002-271.86h108.1001l38.18 271.86h-82.34l-3.68-39.56h-17.0201l-2.76 39.56zm82.80002-74.98h16.5601l-8.2801-139.38z"/><path d="m199.723 276.5v-271.86h63.48l33.12 126.5v-126.5h63.94v271.86h-63.02l-33.58-112.7v112.7z"/><path d="m440.493 281.1c-9.507 0-18.86-1.687-28.06-5.06-8.893-3.68-16.407-10.887-22.54-21.62-5.827-10.733-8.74-26.527-8.74-47.38v-143.52c0-15.3333 3.373-27.4467 10.12-36.34 6.747-9.2 16.1-15.7933 28.06-19.78001 12.267-3.98667 26.527-5.97999 42.78-5.97999s30.667 1.99332 43.24 5.97999c12.573 3.98671 22.387 10.58001 29.44 19.78001 7.053 8.8933 10.58 21.0067 10.58 36.34v41.4h-70.84v-46c0-3.68-.46-6.44-1.38-8.28-.92-2.1467-2.147-3.5267-3.68-4.14-1.227-.92-2.913-1.38-5.06-1.38-1.84 0-3.527.46-5.06 1.38-1.533.6133-2.76 1.9933-3.68 4.14-.92 1.84-1.38 4.6-1.38 8.28v166.98c0 3.373.46 6.133 1.38 8.28s2.147 3.68 3.68 4.6c1.533.613 3.22.92 5.06.92 3.067 0 5.52-.92 7.36-2.76 1.84-2.147 2.76-5.827 2.76-11.04v-51.52h-11.5v-40.94h82.34v143.06h-55.2l-3.68-17.48c-2.147 4.6-6.747 9.507-13.8 14.72-7.053 4.907-17.787 7.36-32.2 7.36z"/><path d="m564.937 276.5v-271.86h131.56v51.06h-55.2v52.9h50.6v57.5h-50.6v60.72h55.2v49.68z"/><path d="m715.875 276.5v-271.86h72.22v222.18h50.14v49.68z"/><path d="m854.234 276.5v-271.86h73.14v271.86z"/><path d="m1031.79 282.02c-16.56 0-31.13-1.993-43.703-5.98s-22.387-12.113-29.44-24.38-10.58-30.513-10.58-54.74v-134.32c0-15.3333 3.527-27.4467 10.58-36.34 7.053-9.2 16.867-15.7933 29.44-19.77999 12.573-3.98667 27.143-5.98001 43.703-5.98001 16.86 0 31.28 1.99334 43.24 5.98001 11.96 3.98669 21.16 10.57999 27.6 19.77999 6.44 8.8933 9.66 21.0067 9.66 36.34v63.48h-73.14v-67.16c0-3.68-.31-6.44-.92-8.28-.62-2.1467-1.54-3.5267-2.76-4.14-.92-.92-2.15-1.38-3.68-1.38-1.54 0-2.92.46-4.14 1.38-.92.6133-1.69 1.9933-2.3 4.14-.62 1.84-.92 4.6-.92 8.28v166.98c0 3.373.3 6.133.92 8.28.61 2.147 1.38 3.68 2.3 4.6 1.22.613 2.6.92 4.14.92 1.53 0 2.76-.307 3.68-.92 1.22-.92 2.14-2.453 2.76-4.6.61-2.147.92-4.907.92-8.28v-63.48h73.14v34.04c0 24.533-3.22 42.933-9.66 55.2s-15.64 20.393-27.6 24.38-26.38 5.98-43.24 5.98z"/><path d="m21.9479 425.5v-113.28h-20.06002v-26.196h77.64402v26.196h-20.06v113.28z"/><path d="m87.2554 425.5v-139.476h56.6396c10.384 0 17.858 2.281 22.42 6.844 4.72 4.405 7.08 10.069 7.08 16.992v21.24c0 6.765-1.652 12.98-4.956 18.644-3.146 5.507-8.889 8.732-17.228 9.676v.472c5.507 1.101 9.283 2.911 11.328 5.428 2.203 2.36 4.012 6.372 5.428 12.036l12.272 48.144h-41.772l-8.024-45.784c-.314-2.203-.708-4.012-1.18-5.428-.314-1.573-.629-2.753-.944-3.54-.314-.787-.708-1.18-1.18-1.18h-.708v55.932zm39.1756-81.892h3.776c2.046 0 3.619-.865 4.72-2.596 1.102-1.731 1.652-4.72 1.652-8.968v-15.34c0-4.248-.472-7.08-1.416-8.496-.786-1.573-2.202-2.36-4.248-2.36h-4.484z"/><path d="m227.871 428.332c-8.339 0-15.655-1.023-21.948-3.068-6.294-2.045-11.171-6.215-14.632-12.508-3.462-6.293-5.192-15.655-5.192-28.084v-68.912c0-7.867 1.73-14.081 5.192-18.644 3.461-4.72 8.338-8.103 14.632-10.148 6.293-2.045 13.609-3.068 21.948-3.068 8.338 0 15.654 1.023 21.948 3.068 6.45 2.045 11.485 5.428 15.104 10.148 3.618 4.563 5.428 10.777 5.428 18.644v68.676c0 12.587-1.81 22.027-5.428 28.32-3.619 6.293-8.654 10.463-15.104 12.508-6.294 2.045-13.61 3.068-21.948 3.068zm0-21.712c.944 0 1.809-.236 2.596-.708.786-.629 1.337-1.495 1.652-2.596.472-1.101.708-2.36.708-3.776v-85.668c0-1.416-.236-2.675-.708-3.776-.315-1.101-.866-1.888-1.652-2.36-.787-.629-1.652-.944-2.596-.944s-1.81.315-2.596.944c-.63.472-1.18 1.259-1.652 2.36s-.708 2.36-.708 3.776v85.668c0 1.416.236 2.675.708 3.776s1.022 1.967 1.652 2.596c.786.472 1.652.708 2.596.708z"/><path d="m322.616 428.332c-6.294 0-12.036-.472-17.228-1.416-5.035-.787-9.362-2.517-12.98-5.192-3.619-2.675-6.451-6.765-8.496-12.272-1.888-5.507-2.832-12.98-2.832-22.42v-101.008h37.524v112.336c0 1.731.157 3.147.472 4.248.314 1.101.786 1.888 1.416 2.36.629.315 1.337.472 2.124.472.786 0 1.494-.157 2.124-.472.629-.472 1.101-1.259 1.416-2.36.314-1.101.472-2.517.472-4.248v-112.336h37.524v100.772c0 9.44-1.023 16.992-3.068 22.656-1.888 5.507-4.642 9.597-8.26 12.272-3.619 2.675-8.024 4.405-13.216 5.192-5.035.944-10.699 1.416-16.992 1.416z"/><path d="m376.033 425.5v-139.476h54.752c9.754 0 16.834 2.281 21.24 6.844 4.562 4.405 6.844 10.069 6.844 16.992v15.104c0 3.933-.551 7.631-1.652 11.092-1.102 3.304-2.911 6.136-5.428 8.496-1.574 1.573-3.54 2.911-5.9 4.012-2.36.944-4.878 1.573-7.552 1.888v.472c2.202 0 4.326.315 6.372.944 2.202.629 4.562 1.809 7.08 3.54 2.832 2.045 5.113 4.956 6.844 8.732 1.73 3.619 2.596 8.181 2.596 13.688v18.172c0 7.395-1.338 13.295-4.012 17.7-2.675 4.248-6.53 7.316-11.564 9.204-5.035 1.731-11.092 2.596-18.172 2.596zm37.76-19.116h4.72c1.101 0 1.966-.315 2.596-.944.629-.787 1.101-2.045 1.416-3.776.472-1.888.708-4.484.708-7.788v-14.868c0-5.192-.394-8.496-1.18-9.912-.787-1.573-2.046-2.36-3.776-2.36h-4.484zm0-63.012h3.776c1.416 0 2.674-.865 3.776-2.596 1.101-1.888 1.652-5.743 1.652-11.564v-12.508c0-4.091-.394-6.923-1.18-8.496-.787-1.573-2.046-2.36-3.776-2.36h-4.248z"/><path d="m470.755 425.5v-139.476h37.052v113.988h25.724v25.488z"/><path d="m541.74 425.5v-139.476h67.496v26.196h-28.32v27.14h25.96v29.5h-25.96v31.152h28.32v25.488z"/><path d="m619.177 425.5v-139.476h47.672l10.148 71.272 10.148-71.272h47.672v139.476h-32.804v-97.232l-12.508 97.232h-25.016l-12.508-97.232v97.232z"/><path d="m741.434 425.5 20.06-139.476h55.46l19.588 139.476h-42.244l-1.888-20.296h-8.732l-1.416 20.296zm42.48-38.468h8.496l-4.248-71.508z"/><path d="m899.361 425.5-19.116-72.216 19.116-67.26h39.884l-22.656 67.024 23.128 72.452zm-56.168 0v-139.476h37.524v139.476z"/><path d="m946.904 425.5v-139.476h67.496v26.196h-28.32v27.14h25.96v29.5h-25.96v31.152h28.32v25.488z"/><path d="m1024.34 425.5v-139.476h56.64c10.39 0 17.86 2.281 22.42 6.844 4.72 4.405 7.08 10.069 7.08 16.992v21.24c0 6.765-1.65 12.98-4.95 18.644-3.15 5.507-8.89 8.732-17.23 9.676v.472c5.5 1.101 9.28 2.911 11.33 5.428 2.2 2.36 4.01 6.372 5.42 12.036l12.28 48.144h-41.78l-8.02-45.784c-.32-2.203-.71-4.012-1.18-5.428-.32-1.573-.63-2.753-.94-3.54-.32-.787-.71-1.18-1.18-1.18h-.71v55.932zm39.18-81.892h3.77c2.05 0 3.62-.865 4.72-2.596s1.66-4.72 1.66-8.968v-15.34c0-4.248-.48-7.08-1.42-8.496-.79-1.573-2.2-2.36-4.25-2.36h-4.48z"/><path d="m68.8539 641.268c-13.6093 0-25.258-1.615-34.946-4.844-9.4574-3.46-16.7234-9.573-21.798-18.338-4.84402-8.996-7.26602-21.683-7.26602-38.06v-12.802h28.71802 29.064v17.646c0 6.228.2307 10.957.692 14.186.692 2.999 1.4993 5.075 2.422 6.228 1.1533.923 2.5373 1.384 4.152 1.384 2.5373 0 4.2673-1.153 5.19-3.46 1.1533-2.537 1.73-7.727 1.73-15.57 0-7.381-1.1533-12.802-3.46-16.262s-6.228-6.343-11.764-8.65c-5.3054-2.307-12.5714-5.421-21.798-9.342-8.5347-3.921-15.224-8.535-20.068-13.84-4.844-5.536-8.304-12.11-10.38002-19.722-1.84533-7.843-2.768-16.954-2.768-27.334 0-14.532 1.84534-26.065 5.53602-34.6 3.9213-8.765 10.4953-14.993 19.722-18.684 9.2267-3.921 21.9133-5.882 38.06-5.882 20.76 0 36.4451 4.152 47.0561 12.456 10.611 8.073 15.916 20.529 15.916 37.368v26.296c-9.227 0-18.453 0-27.68 0-8.9961 0-18.1074 0-27.3341 0v-8.996c0-9.457-.346-15.685-1.038-18.684-.4613-3.229-2.5373-4.844-6.228-4.844-2.9987 0-4.9593 1.038-5.882 3.114-.692 2.076-1.038 5.651-1.038 10.726 0 6.689 1.2687 11.764 3.806 15.224 2.768 3.46 6.3433 6.113 10.726 7.958 4.3827 1.615 8.996 3.345 13.84 5.19 10.1491 3.691 18.3381 7.612 24.5661 11.764 6.459 3.921 11.187 9.573 14.186 16.954 2.999 7.151 4.498 17.646 4.498 31.486 0 15.455-2.653 27.795-7.958 37.022-5.305 8.996-12.917 15.455-22.836 19.376-9.9188 3.691-21.7981 5.536-35.6381 5.536z"/><path d="m231.222 638.5-28.026-105.876 28.026-98.61h58.475l-33.217 98.264 33.908 106.222zm-82.348 0v-204.486h55.014v204.486z"/><path d="m300.925 638.5v-204.486h98.956v38.406h-41.52v39.79h38.06v43.25h-38.06v45.672h41.52v37.368z"/><path d="m414.457 638.5v-204.486h80.272c15.224 0 26.18 3.345 32.87 10.034 6.92 6.459 10.38 14.763 10.38 24.912v33.908c0 10.149-1.154 19.722-3.461 28.718-2.306 8.765-6.458 15.916-12.456 21.452-5.766 5.305-13.955 7.958-24.565 7.958h-25.604v77.504zm57.436-107.26h4.152c2.537 0 4.382-2.422 5.536-7.266 1.153-5.075 1.73-13.955 1.73-26.642v-3.46c0-11.303-.346-19.261-1.038-23.874-.462-4.613-2.192-6.92-5.19-6.92h-5.19z"/><path d="m575.844 638.5v-166.08h-29.41v-38.406h113.834v38.406h-29.41v166.08z"/><path d="m671.591 638.5v-204.486h55.014v204.486z"/><path d="m805.142 642.652c-12.456 0-23.413-1.499-32.87-4.498s-16.839-9.111-22.144-18.338-7.958-22.951-7.958-41.174v-101.032c0-11.533 2.653-20.645 7.958-27.334 5.305-6.92 12.687-11.879 22.144-14.878s20.414-4.498 32.87-4.498c12.687 0 23.528 1.499 32.524 4.498s15.916 7.958 20.76 14.878c4.844 6.689 7.266 15.801 7.266 27.334v47.748h-55.014v-50.516c0-2.768-.231-4.844-.692-6.228-.461-1.615-1.153-2.653-2.076-3.114-.692-.692-1.615-1.038-2.768-1.038s-2.191.346-3.114 1.038c-.692.461-1.269 1.499-1.73 3.114-.461 1.384-.692 3.46-.692 6.228v125.598c0 2.537.231 4.613.692 6.228s1.038 2.768 1.73 3.46c.923.461 1.961.692 3.114.692s2.076-.231 2.768-.692c.923-.692 1.615-1.845 2.076-3.46s.692-3.691.692-6.228v-47.748h55.014v25.604c0 18.453-2.422 32.293-7.266 41.52s-11.764 15.339-20.76 18.338-19.837 4.498-32.524 4.498z"/><path d="m872.796 638.5 29.41-204.486h81.31l28.714 204.486h-61.93l-2.768-29.756h-12.802l-2.076 29.756zm62.28-56.398h12.456l-6.228-104.838z"/><path d="m1021.98 638.5v-204.486h54.33v167.118h37.71v37.368z"/><path d="m77.2239 885.204c-13.8507 0-26.0027-1.699-36.456-5.096s-18.5547-10.323-24.304-20.776c-5.7494-10.453-8.62402-26.003-8.62402-46.648v-114.464c0-13.067 2.87462-23.389 8.62402-30.968 5.7493-7.84 13.8507-13.459 24.304-16.856s22.6053-5.096 36.456-5.096 26.0031 1.699 36.4561 5.096c10.715 3.397 19.077 9.016 25.088 16.856 6.011 7.579 9.016 17.901 9.016 30.968v114.072c0 20.907-3.005 36.587-9.016 47.04s-14.373 17.379-25.088 20.776c-10.453 3.397-22.6054 5.096-36.4561 5.096zm0-36.064c1.568 0 3.0053-.392 4.312-1.176 1.3067-1.045 2.2213-2.483 2.744-4.312.784-1.829 1.176-3.92 1.176-6.272v-142.296c0-2.352-.392-4.443-1.176-6.272-.5227-1.829-1.4373-3.136-2.744-3.92-1.3067-1.045-2.744-1.568-4.312-1.568s-3.0053.523-4.312 1.568c-1.0453.784-1.96 2.091-2.744 3.92s-1.176 3.92-1.176 6.272v142.296c0 2.352.392 4.443 1.176 6.272s1.6987 3.267 2.744 4.312c1.3067.784 2.744 1.176 4.312 1.176z"/><path d="m165.605 880.5v-231.672h90.944c17.248 0 29.661 3.789 37.24 11.368 7.84 7.317 11.76 16.725 11.76 28.224v38.416c0 11.499-1.307 22.344-3.92 32.536-2.614 9.931-7.318 18.032-14.112 24.304-6.534 6.011-15.811 9.016-27.832 9.016h-29.008v87.808zm65.072-121.52h4.704c2.874 0 4.965-2.744 6.272-8.232 1.306-5.749 1.96-15.811 1.96-30.184v-3.92c0-12.805-.392-21.821-1.176-27.048-.523-5.227-2.483-7.84-5.88-7.84h-5.88z"/><path d="m348.448 880.5v-188.16h-33.32v-43.512h128.968v43.512h-33.32v188.16z"/><path d="m456.925 880.5v-231.672h62.328v231.672z"/><path d="m538.847 880.5v-231.672h79.184l16.856 118.384 16.856-118.384h79.184v231.672h-54.488v-161.504l-20.776 161.504h-41.552l-20.776-161.504v161.504z"/><path d="m750.542 880.5v-231.672h62.328v231.672z"/><path d="m900.672 883.636c-15.419 0-28.616-1.829-39.592-5.488-10.715-3.92-18.947-10.845-24.696-20.776-5.488-10.192-8.232-24.565-8.232-43.12v-14.504h32.536 32.928v19.992c0 7.056.261 12.413.784 16.072.784 3.397 1.699 5.749 2.744 7.056 1.307 1.045 2.875 1.568 4.704 1.568 2.875 0 4.835-1.307 5.88-3.92 1.307-2.875 1.96-8.755 1.96-17.64 0-8.363-1.307-14.504-3.92-18.424s-7.056-7.187-13.328-9.8c-6.011-2.613-14.243-6.141-24.696-10.584-9.669-4.443-17.248-9.669-22.736-15.68-5.488-6.272-9.408-13.72-11.76-22.344-2.091-8.885-3.136-19.208-3.136-30.968 0-16.464 2.091-29.531 6.272-39.2 4.443-9.931 11.891-16.987 22.344-21.168 10.453-4.443 24.827-6.664 43.12-6.664 23.52 0 41.291 4.704 53.312 14.112 12.021 9.147 18.032 23.259 18.032 42.336v29.792c-10.453 0-20.907 0-31.36 0-10.192 0-20.515 0-30.968 0v-10.192c0-10.715-.392-17.771-1.176-21.168-.523-3.659-2.875-5.488-7.056-5.488-3.397 0-5.619 1.176-6.664 3.528-.784 2.352-1.176 6.403-1.176 12.152 0 7.579 1.437 13.328 4.312 17.248 3.136 3.92 7.187 6.925 12.152 9.016 4.965 1.829 10.192 3.789 15.68 5.88 11.499 4.181 20.776 8.624 27.832 13.328 7.317 4.443 12.675 10.845 16.072 19.208 3.397 8.101 5.096 19.992 5.096 35.672 0 17.509-3.005 31.491-9.016 41.944-6.011 10.192-14.635 17.509-25.872 21.952-11.237 4.181-24.696 6.272-40.376 6.272z"/><path d="m1017.99 880.5v-188.16h-33.323v-43.512h128.973v43.512h-33.32v188.16z"/><path d="m1.38 276.5 39.1-271.86001h108.1l38.18 271.86001h-82.34l-3.68-39.56h-17.02l-2.76 39.56zm82.8-74.98h16.56l-8.28-139.38zm115.543 74.98v-271.86001h63.48l33.12 126.50001v-126.50001h63.94v271.86001h-63.02l-33.58-112.7v112.7zm240.77 4.6c-9.507 0-18.86-1.687-28.06-5.06-8.893-3.68-16.407-10.887-22.54-21.62-5.827-10.733-8.74-26.527-8.74-47.38v-143.52c0-15.3333 3.373-27.4467 10.12-36.34 6.747-9.2 16.1-15.7933 28.06-19.78002 12.267-3.98667 26.527-5.98 42.78-5.98s30.667 1.99333 43.24 5.98c12.573 3.98672 22.387 10.58002 29.44 19.78002 7.053 8.8933 10.58 21.0067 10.58 36.34v41.4h-70.84v-46c0-3.68-.46-6.44-1.38-8.28-.92-2.1467-2.147-3.5267-3.68-4.14-1.227-.92-2.913-1.38-5.06-1.38-1.84 0-3.527.46-5.06 1.38-1.533.6133-2.76 1.9933-3.68 4.14-.92 1.84-1.38 4.6-1.38 8.28v166.98c0 3.373.46 6.133 1.38 8.28s2.147 3.68 3.68 4.6c1.533.613 3.22.92 5.06.92 3.067 0 5.52-.92 7.36-2.76 1.84-2.147 2.76-5.827 2.76-11.04v-51.52h-11.5v-40.94h82.34v143.06h-55.2l-3.68-17.48c-2.147 4.6-6.747 9.507-13.8 14.72-7.053 4.907-17.787 7.36-32.2 7.36zm124.445-4.6v-271.86001h131.56v51.06001h-55.2v52.9h50.6v57.5h-50.6v60.72h55.2v49.68zm150.937 0v-271.86001h72.22v222.18001h50.14v49.68zm138.359 0v-271.86001h73.14v271.86001zm177.556 5.52c-16.56 0-31.13-1.993-43.703-5.98s-22.386-12.113-29.44-24.38c-7.053-12.267-10.58-30.513-10.58-54.74v-134.32c0-15.3334 3.527-27.4467 10.58-36.34 7.054-9.2 16.867-15.7933 29.44-19.78001 12.573-3.98667 27.143-5.980001 43.703-5.980001 16.86 0 31.28 1.993331 43.24 5.980001 11.96 3.98671 21.16 10.58001 27.6 19.78001 6.44 8.8933 9.66 21.0066 9.66 36.34v63.48h-73.14v-67.16c0-3.68-.31-6.44-.92-8.28-.62-2.1467-1.54-3.5267-2.76-4.14-.92-.92-2.15-1.38-3.68-1.38-1.54 0-2.92.46-4.14 1.38-.92.6133-1.69 1.9933-2.3 4.14-.62 1.84-.92 4.6-.92 8.28v166.98c0 3.373.3 6.133.92 8.28.61 2.147 1.38 3.68 2.3 4.6 1.22.613 2.6.92 4.14.92 1.53 0 2.76-.307 3.68-.92 1.22-.92 2.14-2.453 2.76-4.6.61-2.147.92-4.907.92-8.28v-63.48h73.14v34.04c0 24.533-3.22 42.933-9.66 55.2s-15.64 20.393-27.6 24.38-26.38 5.98-43.24 5.98zm-1009.842 143.48v-113.28h-20.06v-26.196h77.644v26.196h-20.06v113.28zm65.3075 0v-139.476h56.6395c10.384 0 17.858 2.281 22.42 6.844 4.72 4.405 7.08 10.069 7.08 16.992v21.24c0 6.765-1.652 12.98-4.956 18.644-3.146 5.507-8.889 8.732-17.228 9.676v.472c5.507 1.101 9.283 2.911 11.328 5.428 2.203 2.36 4.012 6.372 5.428 12.036l12.272 48.144h-41.772l-8.024-45.784c-.314-2.203-.708-4.012-1.18-5.428-.314-1.573-.629-2.753-.944-3.54-.314-.787-.708-1.18-1.18-1.18h-.708v55.932zm39.1755-81.892h3.776c2.046 0 3.619-.865 4.72-2.596 1.102-1.731 1.652-4.72 1.652-8.968v-15.34c0-4.248-.472-7.08-1.416-8.496-.786-1.573-2.202-2.36-4.248-2.36h-4.484zm101.44 84.724c-8.339 0-15.655-1.023-21.948-3.068s-11.171-6.215-14.632-12.508-5.192-15.655-5.192-28.084v-68.912c0-7.867 1.731-14.081 5.192-18.644 3.461-4.72 8.339-8.103 14.632-10.148s13.609-3.068 21.948-3.068 15.655 1.023 21.948 3.068c6.451 2.045 11.485 5.428 15.104 10.148 3.619 4.563 5.428 10.777 5.428 18.644v68.676c0 12.587-1.809 22.027-5.428 28.32s-8.653 10.463-15.104 12.508c-6.293 2.045-13.609 3.068-21.948 3.068zm0-21.712c.944 0 1.809-.236 2.596-.708.787-.629 1.337-1.495 1.652-2.596.472-1.101.708-2.36.708-3.776v-85.668c0-1.416-.236-2.675-.708-3.776-.315-1.101-.865-1.888-1.652-2.36-.787-.629-1.652-.944-2.596-.944s-1.809.315-2.596.944c-.629.472-1.18 1.259-1.652 2.36s-.708 2.36-.708 3.776v85.668c0 1.416.236 2.675.708 3.776s1.023 1.967 1.652 2.596c.787.472 1.652.708 2.596.708zm94.745 21.712c-6.294 0-12.036-.472-17.228-1.416-5.035-.787-9.362-2.517-12.98-5.192-3.619-2.675-6.451-6.765-8.496-12.272-1.888-5.507-2.832-12.98-2.832-22.42v-101.008h37.524v112.336c0 1.731.157 3.147.472 4.248.314 1.101.786 1.888 1.416 2.36.629.315 1.337.472 2.124.472.786 0 1.494-.157 2.124-.472.629-.472 1.101-1.259 1.416-2.36.314-1.101.472-2.517.472-4.248v-112.336h37.524v100.772c0 9.44-1.023 16.992-3.068 22.656-1.888 5.507-4.642 9.597-8.26 12.272-3.619 2.675-8.024 4.405-13.216 5.192-5.035.944-10.699 1.416-16.992 1.416zm53.417-2.832v-139.476h54.752c9.754 0 16.834 2.281 21.24 6.844 4.562 4.405 6.844 10.069 6.844 16.992v15.104c0 3.933-.551 7.631-1.652 11.092-1.102 3.304-2.911 6.136-5.428 8.496-1.574 1.573-3.54 2.911-5.9 4.012-2.36.944-4.878 1.573-7.552 1.888v.472c2.202 0 4.326.315 6.372.944 2.202.629 4.562 1.809 7.08 3.54 2.832 2.045 5.113 4.956 6.844 8.732 1.73 3.619 2.596 8.181 2.596 13.688v18.172c0 7.395-1.338 13.295-4.012 17.7-2.675 4.248-6.53 7.316-11.564 9.204-5.035 1.731-11.092 2.596-18.172 2.596zm37.76-19.116h4.72c1.101 0 1.966-.315 2.596-.944.629-.787 1.101-2.045 1.416-3.776.472-1.888.708-4.484.708-7.788v-14.868c0-5.192-.394-8.496-1.18-9.912-.787-1.573-2.046-2.36-3.776-2.36h-4.484zm0-63.012h3.776c1.416 0 2.674-.865 3.776-2.596 1.101-1.888 1.652-5.743 1.652-11.564v-12.508c0-4.091-.394-6.923-1.18-8.496-.787-1.573-2.046-2.36-3.776-2.36h-4.248zm56.962 82.128v-139.476h37.052v113.988h25.724v25.488zm70.985 0v-139.476h67.496v26.196h-28.32v27.14h25.96v29.5h-25.96v31.152h28.32v25.488zm77.437 0v-139.476h47.672l10.148 71.272 10.148-71.272h47.672v139.476h-32.804v-97.232l-12.508 97.232h-25.016l-12.508-97.232v97.232zm122.258 0 20.06-139.476h55.46l19.588 139.476h-42.244l-1.888-20.296h-8.732l-1.416 20.296zm42.48-38.468h8.496l-4.248-71.508zm115.446 38.468-19.116-72.216 19.116-67.26h39.884l-22.656 67.024 23.128 72.452zm-56.168 0v-139.476h37.524v139.476zm103.711 0v-139.476h67.496v26.196h-28.32v27.14h25.96v29.5h-25.96v31.152h28.32v25.488zm77.436 0v-139.476h56.64c10.39 0 17.86 2.281 22.42 6.844 4.72 4.405 7.08 10.069 7.08 16.992v21.24c0 6.765-1.65 12.98-4.95 18.644-3.15 5.507-8.89 8.732-17.23 9.676v.472c5.5 1.101 9.28 2.911 11.33 5.428 2.2 2.36 4.01 6.372 5.42 12.036l12.28 48.144h-41.78l-8.02-45.784c-.32-2.203-.71-4.012-1.18-5.428-.32-1.573-.63-2.753-.94-3.54-.32-.787-.71-1.18-1.18-1.18h-.71v55.932zm39.18-81.892h3.77c2.05 0 3.62-.865 4.72-2.596s1.66-4.72 1.66-8.968v-15.34c0-4.248-.48-7.08-1.42-8.496-.79-1.573-2.2-2.36-4.25-2.36h-4.48zm-994.666 297.66c-13.6093 0-25.258-1.615-34.946-4.844-9.4573-3.46-16.7233-9.573-21.798-18.338-4.844-8.996-7.266-21.683-7.266-38.06v-12.802h28.718 29.064v17.646c0 6.228.2307 10.957.692 14.186.692 2.999 1.4993 5.075 2.422 6.228 1.1533.923 2.5373 1.384 4.152 1.384 2.5373 0 4.2673-1.153 5.19-3.46 1.1533-2.537 1.73-7.727 1.73-15.57 0-7.381-1.1533-12.802-3.46-16.262s-6.228-6.343-11.764-8.65c-5.3053-2.307-12.5713-5.421-21.798-9.342-8.5347-3.921-15.224-8.535-20.068-13.84-4.844-5.536-8.304-12.11-10.38-19.722-1.84533-7.843-2.768-16.954-2.768-27.334 0-14.532 1.84533-26.065 5.536-34.6 3.9213-8.765 10.4953-14.993 19.722-18.684 9.2267-3.921 21.9133-5.882 38.06-5.882 20.76 0 36.445 4.152 47.056 12.456 10.611 8.073 15.916 20.529 15.916 37.368v26.296c-9.227 0-18.453 0-27.68 0-8.996 0-18.1073 0-27.334 0v-8.996c0-9.457-.346-15.685-1.038-18.684-.4613-3.229-2.5373-4.844-6.228-4.844-2.9987 0-4.9593 1.038-5.882 3.114-.692 2.076-1.038 5.651-1.038 10.726 0 6.689 1.2687 11.764 3.806 15.224 2.768 3.46 6.3433 6.113 10.726 7.958 4.3827 1.615 8.996 3.345 13.84 5.19 10.149 3.691 18.338 7.612 24.566 11.764 6.459 3.921 11.187 9.573 14.186 16.954 2.999 7.151 4.498 17.646 4.498 31.486 0 15.455-2.653 27.795-7.958 37.022-5.305 8.996-12.917 15.455-22.836 19.376-9.9187 3.691-21.798 5.536-35.638 5.536zm162.369-2.768-28.026-105.876 28.026-98.61h58.474l-33.216 98.264 33.908 106.222zm-82.348 0v-204.486h55.014v204.486zm152.05 0v-204.486h98.956v38.406h-41.52v39.79h38.06v43.25h-38.06v45.672h41.52v37.368zm113.532 0v-204.486h80.272c15.224 0 26.18 3.345 32.87 10.034 6.92 6.459 10.38 14.763 10.38 24.912v33.908c0 10.149-1.154 19.722-3.46 28.718-2.307 8.765-6.459 15.916-12.456 21.452-5.767 5.305-13.956 7.958-24.566 7.958h-25.604v77.504zm57.436-107.26h4.152c2.537 0 4.382-2.422 5.536-7.266 1.153-5.075 1.73-13.955 1.73-26.642v-3.46c0-11.303-.346-19.261-1.038-23.874-.462-4.613-2.192-6.92-5.19-6.92h-5.19zm103.951 107.26v-166.08h-29.41v-38.406h113.834v38.406h-29.41v166.08zm95.747 0v-204.486h55.014v204.486zm133.551 4.152c-12.456 0-23.413-1.499-32.87-4.498s-16.839-9.111-22.144-18.338-7.958-22.951-7.958-41.174v-101.032c0-11.533 2.653-20.645 7.958-27.334 5.305-6.92 12.687-11.879 22.144-14.878s20.414-4.498 32.87-4.498c12.687 0 23.528 1.499 32.524 4.498s15.916 7.958 20.76 14.878c4.844 6.689 7.266 15.801 7.266 27.334v47.748h-55.014v-50.516c0-2.768-.231-4.844-.692-6.228-.461-1.615-1.153-2.653-2.076-3.114-.692-.692-1.615-1.038-2.768-1.038s-2.191.346-3.114 1.038c-.692.461-1.269 1.499-1.73 3.114-.461 1.384-.692 3.46-.692 6.228v125.598c0 2.537.231 4.613.692 6.228s1.038 2.768 1.73 3.46c.923.461 1.961.692 3.114.692s2.076-.231 2.768-.692c.923-.692 1.615-1.845 2.076-3.46s.692-3.691.692-6.228v-47.748h55.014v25.604c0 18.453-2.422 32.293-7.266 41.52s-11.764 15.339-20.76 18.338-19.837 4.498-32.524 4.498zm67.654-4.152 29.41-204.486h81.31l28.714 204.486h-61.93l-2.768-29.756h-12.802l-2.076 29.756zm62.28-56.398h12.456l-6.228-104.838zm86.904 56.398v-204.486h54.33v167.118h37.71v37.368zm-944.756 246.704c-13.8507 0-26.0027-1.699-36.456-5.096s-18.5547-10.323-24.304-20.776-8.624-26.003-8.624-46.648v-114.464c0-13.067 2.8747-23.389 8.624-30.968 5.7493-7.84 13.8507-13.459 24.304-16.856s22.6053-5.096 36.456-5.096 26.003 1.699 36.456 5.096c10.715 3.397 19.077 9.016 25.088 16.856 6.011 7.579 9.016 17.901 9.016 30.968v114.072c0 20.907-3.005 36.587-9.016 47.04s-14.373 17.379-25.088 20.776c-10.453 3.397-22.6053 5.096-36.456 5.096zm0-36.064c1.568 0 3.0053-.392 4.312-1.176 1.3067-1.045 2.2213-2.483 2.744-4.312.784-1.829 1.176-3.92 1.176-6.272v-142.296c0-2.352-.392-4.443-1.176-6.272-.5227-1.829-1.4373-3.136-2.744-3.92-1.3067-1.045-2.744-1.568-4.312-1.568s-3.0053.523-4.312 1.568c-1.0453.784-1.96 2.091-2.744 3.92s-1.176 3.92-1.176 6.272v142.296c0 2.352.392 4.443 1.176 6.272s1.6987 3.267 2.744 4.312c1.3067.784 2.744 1.176 4.312 1.176zm88.381 31.36v-231.672h90.944c17.248 0 29.661 3.789 37.24 11.368 7.84 7.317 11.76 16.725 11.76 28.224v38.416c0 11.499-1.307 22.344-3.92 32.536-2.614 9.931-7.318 18.032-14.112 24.304-6.534 6.011-15.811 9.016-27.832 9.016h-29.008v87.808zm65.072-121.52h4.704c2.874 0 4.965-2.744 6.272-8.232 1.306-5.749 1.96-15.811 1.96-30.184v-3.92c0-12.805-.392-21.821-1.176-27.048-.523-5.227-2.483-7.84-5.88-7.84h-5.88zm117.771 121.52v-188.16h-33.32v-43.512h128.968v43.512h-33.32v188.16zm108.477 0v-231.672h62.328v231.672zm81.922 0v-231.672h79.184l16.856 118.384 16.856-118.384h79.184v231.672h-54.488v-161.504l-20.776 161.504h-41.552l-20.776-161.504v161.504zm211.695 0v-231.672h62.328v231.672zm150.13 3.136c-15.419 0-28.616-1.829-39.592-5.488-10.715-3.92-18.947-10.845-24.696-20.776-5.488-10.192-8.232-24.565-8.232-43.12v-14.504h32.536 32.928v19.992c0 7.056.261 12.413.784 16.072.784 3.397 1.699 5.749 2.744 7.056 1.307 1.045 2.875 1.568 4.704 1.568 2.875 0 4.835-1.307 5.88-3.92 1.307-2.875 1.96-8.755 1.96-17.64 0-8.363-1.307-14.504-3.92-18.424s-7.056-7.187-13.328-9.8c-6.011-2.613-14.243-6.141-24.696-10.584-9.669-4.443-17.248-9.669-22.736-15.68-5.488-6.272-9.408-13.72-11.76-22.344-2.091-8.885-3.136-19.208-3.136-30.968 0-16.464 2.091-29.531 6.272-39.2 4.443-9.931 11.891-16.987 22.344-21.168 10.453-4.443 24.827-6.664 43.12-6.664 23.52 0 41.291 4.704 53.312 14.112 12.021 9.147 18.032 23.259 18.032 42.336v29.792c-10.453 0-20.907 0-31.36 0-10.192 0-20.515 0-30.968 0v-10.192c0-10.715-.392-17.771-1.176-21.168-.523-3.659-2.875-5.488-7.056-5.488-3.397 0-5.619 1.176-6.664 3.528-.784 2.352-1.176 6.403-1.176 12.152 0 7.579 1.437 13.328 4.312 17.248 3.136 3.92 7.187 6.925 12.152 9.016 4.965 1.829 10.192 3.789 15.68 5.88 11.499 4.181 20.776 8.624 27.832 13.328 7.317 4.443 12.675 10.845 16.072 19.208 3.397 8.101 5.096 19.992 5.096 35.672 0 17.509-3.005 31.491-9.016 41.944-6.011 10.192-14.635 17.509-25.872 21.952-11.237 4.181-24.696 6.272-40.376 6.272zm117.318-3.136v-188.16h-33.323v-43.512h128.973v43.512h-33.32v188.16z"/></g><path d="m7.6748 1119v-228.717h89.784c11.3522 0 20.5112 1.677 27.4772 5.031 7.224 3.354 12.513 7.998 15.867 13.932 3.354 5.676 5.031 12.384 5.031 20.124v141.25c0 12.13-2.322 21.81-6.966 29.03-4.644 6.97-11.223 12-19.737 15.09-8.514 2.84-18.834 4.26-30.9602 4.26zm64.242-30.96h5.805c2.064 0 3.612-.77 4.644-2.32 1.29-1.81 1.935-4.9 1.935-9.29v-140.481c0-4.386-.645-7.353-1.935-8.901-1.032-1.806-2.58-2.709-4.644-2.709h-5.805z" fill-opacity=".05"/><path d="m163.382 1119v-228.717h110.682v42.957h-46.44v44.505h42.57v48.375h-42.57v51.08h46.44v41.8z" fill-opacity=".05"/><path d="m357.704 1122.1c-15.222 0-28.251-1.81-39.087-5.42-10.578-3.87-18.705-10.71-24.381-20.51-5.418-10.07-8.127-24.26-8.127-42.57v-14.32h32.121 32.508v19.73c0 6.97.258 12.26.774 15.87.774 3.36 1.677 5.68 2.709 6.97 1.29 1.03 2.838 1.55 4.644 1.55 2.838 0 4.773-1.29 5.805-3.87 1.29-2.84 1.935-8.65 1.935-17.42 0-8.26-1.29-14.32-3.87-18.19s-6.966-7.09-13.158-9.67c-5.934-2.58-14.061-6.07-24.381-10.45-9.546-4.39-17.028-9.55-22.446-15.48-5.418-6.19-9.288-13.547-11.61-22.061-2.064-8.772-3.096-18.963-3.096-30.573 0-16.254 2.064-29.154 6.192-38.7 4.386-9.804 11.739-16.77 22.059-20.898 10.32-4.386 24.51-6.579 42.57-6.579 23.22 0 40.764 4.644 52.632 13.932 11.868 9.03 17.802 22.962 17.802 41.796v29.412c-10.32 0-20.64 0-30.96 0-10.062 0-20.253 0-30.573 0v-10.062c0-10.578-.387-17.544-1.161-20.898-.516-3.612-2.838-5.418-6.966-5.418-3.354 0-5.547 1.161-6.579 3.483-.774 2.322-1.161 6.321-1.161 11.997 0 7.482 1.419 13.158 4.257 17.028 3.096 3.87 7.095 6.837 11.997 8.901 4.902 1.806 10.062 3.741 15.48 5.805 11.352 4.128 20.511 8.514 27.477 13.158 7.224 4.387 12.513 10.707 15.867 18.967 3.354 7.99 5.031 19.73 5.031 35.21 0 17.29-2.967 31.09-8.901 41.41-5.934 10.06-14.448 17.29-25.542 21.67-11.094 4.13-24.381 6.2-39.861 6.2z" fill-opacity=".05"/><path d="m447.207 1119v-228.717h61.533v228.717z" fill-opacity=".05"/><path d="m576.072 1122.87c-7.998 0-15.867-1.42-23.607-4.26-7.482-3.09-13.803-9.16-18.963-18.19-4.902-9.03-7.353-22.31-7.353-39.86v-120.741c0-12.9 2.838-23.091 8.514-30.573 5.676-7.74 13.545-13.287 23.607-16.641 10.32-3.354 22.317-5.031 35.991-5.031s25.8 1.677 36.378 5.031 18.834 8.901 24.768 16.641c5.934 7.482 8.901 17.673 8.901 30.573v34.83h-59.598v-38.7c0-3.096-.387-5.418-1.161-6.966-.774-1.806-1.806-2.967-3.096-3.483-1.032-.774-2.451-1.161-4.257-1.161-1.548 0-2.967.387-4.257 1.161-1.29.516-2.322 1.677-3.096 3.483-.774 1.548-1.161 3.87-1.161 6.966v140.481c0 2.84.387 5.16 1.161 6.97.774 1.8 1.806 3.09 3.096 3.87 1.29.51 2.709.77 4.257.77 2.58 0 4.644-.77 6.192-2.32 1.548-1.81 2.322-4.9 2.322-9.29v-43.34h-9.675v-34.447h69.273v120.357h-46.44l-3.096-14.71c-1.806 3.87-5.676 8-11.61 12.39-5.934 4.13-14.964 6.19-27.09 6.19z" fill-opacity=".05"/><path d="m680.768 1119v-228.717h53.406l27.864 106.425v-106.425h53.793v228.717h-53.019l-28.251-94.82v94.82z" fill-opacity=".05"/><path d="m835.341 1119v-228.717h110.682v42.957h-46.44v44.505h42.57v48.375h-42.57v51.08h46.44v41.8z" fill-opacity=".05"/><path d="m962.325 1119v-228.717h92.885c17.02 0 29.28 3.741 36.76 11.223 7.74 7.224 11.61 16.512 11.61 27.864v34.83c0 11.094-2.71 21.285-8.13 30.573-5.16 9.027-14.57 14.317-28.25 15.867v.77c9.03 1.81 15.22 4.78 18.58 8.9 3.61 3.87 6.58 10.45 8.9 19.74l20.12 78.95h-68.5l-13.15-75.08c-.52-3.61-1.16-6.58-1.94-8.9-.51-2.58-1.03-4.51-1.55-5.8-.51-1.29-1.16-1.94-1.93-1.94h-1.16v91.72zm64.245-134.289h6.19c3.35 0 5.93-1.419 7.74-4.257s2.71-7.74 2.71-14.706v-25.155c0-6.966-.78-11.61-2.32-13.932-1.29-2.58-3.62-3.87-6.97-3.87h-7.35z" fill-opacity=".05"/></g></svg>