<svg width="126" height="40" viewBox="0 0 126 40" fill="none" xmlns="http://www.w3.org/2000/svg">
<path fill-rule="evenodd" clip-rule="evenodd" d="M118.993 12.818C119.414 12.818 119.67 13.1136 119.775 13.5119C119.999 14.3541 118.909 16.4071 115.098 18.7661C115.182 16.0318 116.82 12.818 118.993 12.818ZM107.327 12.818C107.963 12.818 108.004 13.4495 108.035 13.6757C108.196 14.8682 107.103 16.9807 103.529 18.1924C103.911 15.6668 105.558 12.818 107.327 12.818ZM91.9122 2.87631C93.1188 2.87631 92.1284 7.02594 88.2886 12.8365C89.1681 5.13549 90.4384 2.87631 91.9122 2.87631ZM78.6592 12.818C79.0163 12.818 79.1065 13.1046 79.1535 13.2672C79.3091 13.7981 78.7546 15.8902 74.6117 18.8137C74.8486 16.024 76.5328 12.818 78.6592 12.818ZM61.4926 36.3718C61.0623 36.3718 60.7706 36.0938 60.7706 35.5521C60.7706 33.054 64.6386 29.6385 64.6812 29.6287C64.153 32.988 62.8023 36.3718 61.4926 36.3718ZM125.362 19.8837C124.709 19.4469 123.826 19.6259 123.389 20.2824C123.317 20.3904 121.592 22.9251 118.586 22.9251C117.404 22.9251 116.51 22.5568 115.928 21.8296C115.889 21.7807 115.852 21.7299 115.815 21.6773C115.828 21.6707 115.841 21.6633 115.853 21.6563C122.917 17.5581 122.875 14.0769 122.529 12.7699C122.115 11.2063 120.727 10.1962 118.993 10.1962C114.956 10.1962 112.244 14.7417 112.244 18.987C112.244 19.5261 112.293 20.0426 112.379 20.5374C110.948 21.605 108.724 22.9251 106.772 22.9251C105.634 22.9251 104.779 22.5843 104.231 21.9117C104.035 21.6715 103.886 21.4038 103.774 21.1267C109.184 19.5442 111.234 16.0626 110.858 13.2869C110.613 11.4671 109.266 10.1962 107.586 10.1962C103.822 10.1962 101.102 14.1824 100.661 18.1374C99.9416 18.0623 99.289 17.8484 98.7095 17.4887C98.8055 16.8613 98.8536 16.2449 98.8536 15.6594C98.8536 14.3705 98.61 13.2475 98.1489 12.4103C97.5176 11.265 96.4948 10.6344 95.2681 10.6344C94.6115 10.6344 94.0211 10.9998 93.6884 11.6129C92.9898 12.9013 93.4355 15.4032 94.7245 17.4324C94.9745 17.825 95.2463 18.1871 95.5398 18.5185C94.837 20.8068 93.3789 22.9592 91.4729 22.9592C90.6177 22.9592 89.9768 22.6931 89.4558 22.1216C88.7056 21.2987 88.2275 19.8345 88.0708 17.9838C93.3786 11.2967 95.9558 4.75525 94.4891 1.65805C93.9905 0.604006 93.0566 0 91.9261 0C88.2573 0 86.0723 4.79016 85.2466 14.6435C85.1963 15.2459 85.1589 15.9735 85.1658 16.7652C83.2045 19.4415 79.9915 22.9251 77.0904 22.9251C76.2623 22.9251 75.6589 22.643 75.2443 22.0628C75.2095 22.0136 75.1757 21.9618 75.1427 21.908C75.1765 21.8896 75.2105 21.8695 75.2433 21.8481C82.3628 17.2053 82.261 13.7316 81.8873 12.4534C81.4797 11.0614 80.2428 10.1962 78.6592 10.1962C74.5157 10.1962 71.7327 14.995 71.7327 19.4773C71.7327 19.8833 71.7579 20.2759 71.8047 20.6549C70.4985 21.6042 69.4143 22.4496 68.3745 23.268C68.5295 22.0423 68.7616 20.4935 69.0193 18.1682C69.0193 18.1682 69.0193 18.1682 69.0193 18.1678C69.0813 17.6985 69.1329 17.3133 69.1587 17.1245C69.3911 15.4257 66.6273 15.0743 66.3284 16.9705C66.0207 18.9217 65.1872 22.9592 62.9162 22.9592C61.5423 22.9592 60.8217 21.4207 60.9552 19.1824C61.165 15.6627 63.0481 12.7925 65.383 12.7925C66.184 12.7925 66.6004 13.6569 66.6004 13.6569C67.3362 15.0082 69.6251 13.8675 69.1419 12.4386C68.9265 11.8005 68.1551 10.2147 65.4949 10.2147C60.0281 10.2147 58.3386 15.7945 58.0964 19.4773C58.0565 20.0837 58.0677 20.6688 58.1224 21.226C57.3611 22.1622 56.454 22.9592 55.5708 22.9592C54.7052 22.9592 54.1568 21.9865 54.4802 19.7413C54.7884 17.5987 55.0065 15.8281 55.1528 14.7918C55.8139 10.1059 50.0016 10.2348 50.0016 10.2348C50.0016 10.2348 49.9383 7.50183 47.6989 7.50183C46.5538 7.50183 45.5361 8.39983 45.5361 10.0936C45.5361 11.6592 46.8083 12.4291 46.8083 12.4291L46.8157 12.4304C46.5338 14.8558 45.405 22.9592 42.898 22.9592C41.7739 22.9592 41.696 21.7339 41.7954 20.8721C41.9327 19.6752 42.1473 17.6484 42.2188 17.1245C42.451 15.4257 39.6876 15.0743 39.3887 16.9705C39.0808 18.9217 38.2471 22.9592 35.9763 22.9592C34.6022 22.9592 33.881 21.2186 33.9913 19.1241C34.1804 15.5337 36.1079 12.7925 38.4425 12.7925C39.2433 12.7925 39.6603 13.6569 39.6603 13.6569C40.2682 14.9954 42.6727 14.033 42.2023 12.4386C41.9938 11.7348 41.2152 10.2147 38.5548 10.2147C33.088 10.2147 31.399 15.7945 31.1562 19.4773C31.1185 20.0472 31.1278 20.5978 31.1743 21.125C30.3914 22.1955 29.4503 22.9592 28.5612 22.9592C27.7525 22.9592 27.131 22.5387 27.2797 20.6857C27.3494 19.8201 28.3493 13.9024 28.2831 12.8229C28.1722 11.0281 27.3661 10.2369 25.3817 10.2369C23.2949 10.2369 21.7175 11.3188 21.0555 12.0099C21.0555 12.0099 22.0433 4.54256 22.2306 3.10872C22.4264 1.60672 19.5629 1.59153 19.376 3.0964C19.295 3.74885 18.5303 9.66532 17.8215 15.1272C16.2254 18.6938 12.9897 24.191 8.19944 24.191C-0.875326 24.191 3.31272 4.24241 11.8016 4.24241C13.7906 4.24241 12.9022 7.44681 11.5683 9.40088C10.6151 10.7966 13.0157 12.402 14.3419 10.1449C18.0063 3.909 14.918 1.57714 12.0157 1.57714C-0.600101 1.57714 -5.28241 26.9475 7.85907 26.9475C12.1855 26.9475 15.0805 24.4957 16.9465 21.8584C16.7506 23.3563 16.6166 24.377 16.5894 24.5676C16.3671 26.1333 19.2681 26.0046 19.4208 24.6961C19.5181 23.8609 19.9484 20.3609 20.3177 17.6899C20.5287 16.1632 22.3788 13.353 24.5002 13.353C25.0004 13.353 25.3267 13.854 25.2623 14.283C25.1879 14.7807 24.2859 21.4223 24.347 22.4123C24.518 25.1835 26.4822 25.8252 28.3528 25.8252C29.8343 25.8252 31.0193 25.1199 32.0176 24.0091C32.6792 25.1255 33.7052 25.8191 35.0846 25.8191C38.2457 25.8191 39.3353 23.5238 39.3353 23.5238C39.3353 23.5238 39.7129 25.7973 42.4358 25.7973C47.9537 25.7973 49.24 16.0905 49.516 12.8545C49.8383 12.8669 51.7887 12.9876 52.1099 14.0884C52.4179 15.1437 51.4398 18.5287 51.3592 22.0136C51.3169 23.8494 51.9855 25.8191 54.8666 25.8191C56.6263 25.8191 58.0062 25.006 59.0056 24.0834C59.668 25.1547 60.6767 25.8191 62.0247 25.8191C63.581 25.8191 64.633 25.317 65.3024 24.8065C65.258 25.1066 65.2157 25.4006 65.1742 25.6999C65.1718 25.7185 65.1689 25.7374 65.1668 25.7563C65.1742 25.6999 57.89 31.001 57.89 36.0121C57.89 37.9659 58.7883 39.2459 61.0839 39.2459C65.6526 39.2459 67.0626 33.1014 67.7367 28.0139C67.7686 27.7736 67.7992 27.5456 67.8288 27.3272C68.5433 26.7812 69.2079 26.2581 69.8536 25.7494C70.8016 25.0036 71.7194 24.2818 72.7743 23.4975C72.8264 23.5792 72.8756 23.6634 72.9315 23.7414C73.8918 25.0877 75.3299 25.7994 77.0904 25.7994C80.3955 25.7994 83.4545 23.2425 85.658 20.7411C85.9891 21.9762 86.5207 23.1477 87.3573 24.0666C88.4107 25.2226 89.8342 25.8335 91.4729 25.8335C94.6309 25.8335 96.8211 23.2926 97.9551 20.3407C98.8185 20.7448 99.7677 20.9776 100.781 21.0318C101.002 22.0715 101.42 22.99 102.029 23.7361C102.796 24.6776 104.24 25.7994 106.772 25.7994C109.285 25.7994 111.781 24.4448 113.458 23.2848C113.54 23.4039 113.621 23.523 113.711 23.6347C114.5 24.6222 115.988 25.7994 118.586 25.7994C123.154 25.7994 125.663 22.0267 125.767 21.8658C126.197 21.2051 126.015 20.3215 125.362 19.8837Z" fill="black"/>
</svg>
