<?xml version="1.0" encoding="UTF-8"?>
<svg width="82px" height="81px" viewBox="0 0 82 81" version="1.1" xmlns="http://www.w3.org/2000/svg" xmlns:xlink="http://www.w3.org/1999/xlink">
    <!-- Generator: Sketch 64 (93537) - https://sketch.com -->
    <title>eni</title>
    <desc>Created with Sketch.</desc>
    <g id="Index" stroke="none" stroke-width="1" fill="none" fill-rule="evenodd">
        <g id="Desktop-HD" transform="translate(-669.000000, -7018.000000)">
            <g id="eni" transform="translate(669.000000, 7018.000000)">
                <polygon id="Path" fill="#F7F7F7" points="0 0 82 0 82 81 0 81"></polygon>
                <polygon id="Path" fill="#231F20" fill-rule="nonzero" points="57 55 62 55 62 50 57 50"></polygon>
                <polygon id="Path" fill="#231F20" fill-rule="nonzero" points="60 75 62 75 62 56 60 56"></polygon>
                <polygon id="Path" fill="#000000" fill-rule="nonzero" points="10 45.4 73 45.4 73 44.6 10 44.6"></polygon>
                <g id="Group" transform="translate(19.000000, 50.000000)" fill="#231F20" fill-rule="nonzero">
                    <polygon id="Path" points="38.4670976 24.7571203 40.7902692 24.7571203 40.7902692 6.47903481 38.4670976 6.47903481"></polygon>
                    <path d="M36.2730031,24.7571203 L36.2730031,10.7606804 C36.2759759,9.41205042 35.7220053,8.12267319 34.7432969,7.20028741 C33.7645884,6.27790163 32.4489498,5.80526183 31.1103876,5.89517405 C29.2461688,5.78546197 27.4230029,6.47497051 26.0929822,7.79272152 L26.0929822,6.49525316 L23.7698107,6.49525316 L23.7698107,11.3607595 C24.9453204,9.25205622 27.1733705,7.95793847 29.5777396,7.98734177 C30.6778296,7.89819372 31.7667003,8.26248467 32.5942651,8.99654606 C33.42183,9.73060745 33.916966,10.7713521 33.9659527,11.8797468 L33.9659527,24.7084652 L36.2730031,24.7571203 Z" id="Path"></path>
                    <path d="M33.175429,24.7571203 L33.175429,11.9284019 C33.175429,9.7227057 31.3685178,8.81447785 29.5616065,8.81447785 C27.9713548,8.71999612 26.418442,9.32312099 25.3044478,10.4678857 C24.1904536,11.6126503 23.6247686,13.1866429 23.7536775,14.7828323 L23.7536775,24.7733386 L26.0768491,24.7733386 L26.0768491,13.0961234 C26.0613336,12.414667 26.3328271,11.7583164 26.8244153,11.2888408 C27.3160036,10.8193651 27.9819611,10.580433 28.6581509,10.6309335 C30.2714645,10.6309335 30.7231923,11.5391614 30.7231923,12.5771361 L30.7231923,24.7571203 L33.175429,24.7571203 Z" id="Path"></path>
                    <polygon id="Path" points="20.6722485 24.7571203 23.1244852 24.7571203 23.1244852 6.47903481 20.6722485 6.47903481"></polygon>
                    <polygon id="Path" points="18.8653373 4.66257911 18.8653373 2.71637658 3.52272485 2.71637658 3.52272485 11.6689082 18.0909467 11.6689082 18.0909467 9.59295886 6.3621568 9.59295886 6.3621568 4.66257911"></polygon>
                    <polygon id="Path" points="19.2525325 24.7571203 19.2525325 22.5514241 2.74833432 22.5514241 2.74833432 1.93789557 18.8653373 1.93789557 18.8653373 0.0079113924 0.167032544 0.0079113924 0.167032544 24.7571203"></polygon>
                    <polygon id="Path" points="19.2525325 21.772943 19.2525325 19.5672468 6.23309172 19.5672468 6.23309172 14.3935918 18.0909467 14.3935918 18.0909467 12.4473892 3.52272485 12.4473892 3.52272485 21.772943"></polygon>
                </g>
                <path d="M46.8714286,11.0515432 C46.8714286,10.81088 46.6142857,10.4498853 46.3571429,10.4498853 C45.0714286,9.72789591 43.7857143,10.5702169 42.5,10.5702169 C41.9857143,10.5702169 41.4714286,10.6905485 41.2142857,10.4498853 C41.2142857,10.2092222 41.3428571,10.2092222 41.3428571,9.96855904 C41.0857143,9.96855904 40.7,9.84822748 40.3142857,9.84822748 C39.8732305,9.84554124 39.4368032,9.76384971 39.0285714,9.60756434 C37.285773,8.84168387 35.2789554,8.79800469 33.5,9.48723277 C32.8946851,9.75844035 32.2406579,9.92167023 31.5714286,9.96855904 C31.1857143,9.96855904 32.0857143,10.5702169 31.9571429,10.9312116 C30.8655684,11.0483908 29.8360555,11.4673185 29,12.1345273 L29,12.2548588 C29.7006264,12.8488068 30.6279691,13.1525758 31.5714286,13.0971798 C32.3135565,13.5324524 33.1463881,13.8144929 34.0142857,13.9244594 C36.2,14.2854541 37.4857143,13.2024699 39.0285714,13.8041278 C38.9246385,13.6193687 38.8799892,13.4104292 38.9,13.2024699 C40.4582448,13.70811 42.1662142,13.6217041 43.6571429,12.9618068 C44.9428571,12.6008121 45.5857143,10.9161701 47,11.0365017 L46.8714286,11.0515432 Z" id="Path" fill="#000000"></path>
                <path d="M62.9838176,35.5460798 C62.7148449,35.2449661 62.4104734,34.9788564 62.0776021,34.7537827 C61.4303053,34.6217331 61.4303053,33.829436 61.1713865,33.301238 C60.7830085,32.2448418 61.8186833,32.5089409 61.689224,31.8486933 C61.5911182,31.5041321 61.3565008,31.2169583 61.0419272,31.0563961 C61.0419272,30.6602476 61.4303053,30.5281981 61.689224,30.5281981 C61.6844277,30.3215658 61.5894908,30.1278932 61.4303053,30 C61.1235826,29.9295079 60.8210252,29.8413334 60.5240897,29.735901 C60.5240897,29.4718019 61.4303053,29.2077029 61.3008459,28.4154058 C60.9511569,28.4973552 60.5843239,28.4505836 60.265171,28.2833563 C60.0062523,28.0192572 60.5240897,27.7551582 60.3946304,27.4910591 C59.7473336,27.2269601 59.1000368,26.8308116 58.45274,26.5667125 C57.8054432,26.3026135 57.9349025,25.7744154 57.6759838,25.2462173 C57.0882418,23.252196 56.1686188,21.3761514 54.9573373,19.7001376 C54.6984185,19.303989 54.5689592,19.303989 54.1805811,18.9078404 C54.1805811,18.7757909 54.0511217,18.5116919 54.3100405,18.3796424 C54.5689592,18.2475928 54.9573373,17.8514443 54.9573373,17.5873453 C55.6073213,16.2568336 55.6073213,14.6922723 54.9573373,13.3617607 C54.300633,12.1784067 53.0531624,11.4658463 51.7208533,11.5130674 C49.8759106,11.674506 48.3254444,12.992412 47.8370725,14.8143054 C46.9308569,16.9270977 47.1897757,17.9834938 45.7657227,19.03989 C45.6362633,19.303989 45.1184259,19.4360385 44.6005885,18.9078404 C44.285932,18.601892 44.1404536,18.1567247 44.2122104,17.7193948 C44.3416697,17.8514443 44.6005885,18.2475928 44.7300478,18.2475928 C44.9237588,18.4771126 45.2505851,18.5326735 45.506804,18.3796424 C45.7824305,18.2209228 45.936073,17.9074899 45.8951821,17.5873453 C45.8562168,17.1821186 45.6717879,16.805881 45.3773446,16.5309491 C44.896686,16.1677722 44.2397612,16.1677722 43.7591026,16.5309491 C43.0693489,16.854132 42.6925098,17.6228895 42.8528871,18.3796424 C42.8528871,18.9078404 43.2412652,19.303989 43.3707245,20.0302613 C43.3707245,20.0302613 43.2412652,20.2943604 43.1118058,20.2943604 C42.7347531,20.3129525 42.3813134,20.1069462 42.2055903,19.7661623 C42.0761309,19.6341128 42.2055903,19.3700138 41.9466716,19.3700138 C41.4288341,19.7661623 41.5582935,20.4264099 41.5582935,21.0206327 C41.5582935,21.1526823 41.5582935,21.2847318 41.4288341,21.2847318 C40.9596537,20.8265131 40.6045746,20.2606017 40.3931592,19.6341128 C40.0070145,19.8271185 39.7950108,20.2596091 39.8753218,20.6905089 C39.7458624,21.0866575 40.1342405,21.6148556 39.8753218,21.6148556 C39.228025,21.4828061 38.9691063,20.5584594 38.9691063,19.7661623 C38.7291089,19.9088902 38.5110073,20.0868624 38.3218095,20.2943604 C38.0628908,20.6905089 38.0628908,21.218707 37.5450533,21.218707 C37.0272159,21.218707 36.8977565,20.4264099 36.8977565,19.7661623 C36.7682972,19.6341128 36.6388378,19.8982118 36.5093784,20.0302613 C36.1375926,20.3655896 35.8302818,20.7686088 35.6031629,21.218707 C35.2962214,20.6501341 35.1192009,20.0181665 35.0853255,19.3700138 C34.4380287,19.6341128 33.7907319,21.6148556 32.8845164,21.6148556 L32.8845164,21.3507565 C33.169362,20.7336469 33.2598132,20.0416902 33.1434351,19.3700138 C33.1434351,19.2379642 33.1434351,18.7097662 32.8845164,18.7097662 C32.6097251,19.1643716 32.2592392,19.5665572 31.8488415,19.8982118 C31.4941798,20.2481661 31.1035419,20.5580745 30.6837072,20.8225585 C30.714203,20.6000896 30.7574299,20.3796306 30.8131666,20.1623109 C30.9752587,19.8341401 31.0637037,19.473282 31.0720853,19.1059147 C31.0478955,18.7953443 31.0046577,18.4866243 30.942626,18.1815681 C30.942626,18.0495186 30.942626,18.0495186 30.8131666,18.0495186 C30.5003317,18.3185099 30.1516239,18.5408127 29.7774917,18.7097662 C29.0007356,19.2379642 28.1592497,18.8418157 27.9650607,18.9738652 C27.9638161,19.2003793 27.9198644,19.4245346 27.8356013,19.6341128 C27.706142,20.0302613 27.5766826,20.4264099 27.3177639,20.4264099 C27.0588452,20.4264099 25.8937109,19.6341128 25.3758735,19.7661623 C24.8750131,20.5902306 24.4832361,21.4782648 24.2107392,22.4071527 C23.5165083,22.4035859 22.8864458,21.992278 22.5924972,21.3507565 C22.3335785,21.218707 22.3335785,21.4828061 22.3335785,21.6148556 C22.3335785,21.7469051 22.0746598,22.2751032 22.0746598,23.2654746 C22.0614963,23.6224317 22.1052178,23.9792019 22.2041192,24.3218707 L22.2041192,24.9821183 C22.9808753,29.2077029 24.7933064,32.8885832 25.1816844,37.1141678 C25.6995219,39.3590096 23.5634424,40.2833563 22.851416,41.8679505 L22.9808753,42 L25.4406032,42 C25.7309973,41.9490409 25.9754139,41.7495955 26.0879,41.4718019 C26.179568,40.4359931 26.3969976,39.4158059 26.7351968,38.434663 C27.6414123,38.3026135 27.900331,37.2462173 28.6770872,36.784044 C28.6770872,36.519945 28.2887091,36.3878955 28.1592497,35.9917469 C28.4926247,35.7173069 28.7964084,35.4074452 29.0654652,35.0674003 C29.1949246,34.6712517 28.6770872,34.5392022 28.6770872,34.2751032 C28.6770872,34.0110041 28.8065465,34.0110041 28.9360059,33.8789546 C29.0654652,33.4828061 29.712762,33.4828061 29.324384,33.0866575 C29.1949246,32.5584594 28.6770872,32.8225585 28.4181684,32.4264099 C28.5606138,31.8211673 28.9332278,31.2985723 29.4538433,30.9738652 C29.0148684,30.5542889 28.4371668,30.3185849 27.8356013,30.3136176 L27.8356013,29.2572215 L27.9650607,29.1251719 L30.0364104,30.1815681 C29.9952114,30.8094801 30.0834113,31.4392324 30.2953292,32.0302613 C30.4247885,32.954608 31.0720853,33.6808803 30.942626,34.5392022 C30.8131666,35.3975241 30.0364104,35.5955983 29.6480324,35.9917469 C29.518573,36.1237964 29.1301949,36.2558459 29.1301949,36.519945 C29.6686458,37.1408893 30.2769879,37.6949193 30.942626,38.170564 L31.0720853,38.3026135 C31.5899228,37.6423659 31.7193821,36.8500688 32.1077602,36.3218707 C32.3666789,36.1898212 32.755057,36.1898212 33.0139757,35.9257221 C33.232125,35.8948817 33.448275,35.8507868 33.6612725,35.7936726 C33.4635397,35.2857885 33.0969032,34.86507 32.6255976,34.605227 C32.8735527,34.3830237 33.2061975,34.2860808 33.5318132,34.3411279 C33.6612725,34.2090784 33.7907319,34.2090784 33.9201912,33.9449794 C33.5046736,33.9134575 33.1743386,33.5765134 33.1434351,33.1526823 C33.7279759,32.8374993 34.1859709,32.3236252 34.4380287,31.7001376 C34.17911,31.4360385 33.7907319,31.4360385 33.5318132,31.303989 C33.5548795,30.8962127 33.6423096,30.4949054 33.7907319,30.1155433 C33.7907319,29.9834938 33.7907319,29.7193948 34.0496506,29.7193948 C35.2003403,29.9840452 36.3943636,29.9840452 37.5450533,29.7193948 C37.6745127,29.8514443 37.803972,29.8514443 37.803972,29.9834938 C37.5450533,31.4360385 37.0272159,32.8885832 36.7682972,34.3411279 C36.310347,34.8761465 35.7623117,35.3233466 35.1500552,35.6616231 C34.8911364,35.9257221 34.373299,36.0577717 34.2438396,36.5859697 L36.18573,38.2365887 L36.4446488,38.2365887 C36.8330268,37.7083906 37.0919456,37.1801926 37.4803236,36.5859697 C37.4803236,36.3218707 37.4803236,35.9257221 37.609783,35.7936726 C38.0951088,35.7823637 38.5756684,35.693241 39.033836,35.5295736 C39.033836,35.133425 38.6454579,34.869326 38.3865392,34.4731774 C38.7749172,34.3411279 39.2927547,34.4731774 39.6811328,34.2090784 C39.8105921,34.2090784 40.0695108,33.9449794 40.0695108,33.5488308 L39.6811328,33.5488308 C39.6811328,33.5488308 39.422214,33.5488308 39.5516734,33.4167813 C40.221905,33.3514041 40.8554623,33.074447 41.3641045,32.6244842 C41.2346451,32.6244842 41.1051857,32.4924347 40.9757264,32.3603851 C41.0797709,32.2601215 41.2218906,32.2118004 41.3641045,32.2283356 C41.8208462,31.9836847 42.1208634,31.515287 42.157043,30.9903714 C41.768665,30.9903714 41.2508275,30.8583219 41.1213682,30.5942228 C41.3700536,30.1816961 41.8117332,29.9314092 42.2865024,29.9339752 C42.8423693,31.3372346 43.6306048,32.6325778 44.6167709,33.7634113 L44.6167709,34.1595598 L42.5454211,36.6024759 C42.5454211,36.7345254 42.4159618,36.9986245 42.6748805,36.9986245 L45.5229864,36.866575 C45.6524458,36.866575 45.9113645,36.7345254 45.9113645,36.6024759 C46.0408238,35.8101788 46.0408238,34.9518569 46.1702832,34.0935351 C46.5586613,33.829436 46.81758,33.0371389 47.4648768,33.0371389 C47.4648768,32.7730399 47.0764987,32.6409904 46.81758,32.5089409 C46.81758,31.9807428 47.2059581,31.7166437 47.4648768,31.4525447 C47.2059581,31.3204952 46.81758,31.7166437 46.5586613,31.4525447 C46.81758,31.3204952 46.9470394,31.1884457 47.2059581,30.6602476 L47.2059581,30.5281981 C46.81758,30.6602476 46.6881206,30.5281981 46.4292019,30.5281981 C46.1568572,30.4134615 45.961324,30.1641547 45.9113645,29.8679505 C46.1826492,29.3724133 46.5326217,28.9261951 46.9470394,28.5474553 C47.0764987,28.5474553 47.2059581,28.2833563 47.3354174,28.5474553 C47.4532531,28.9661481 47.6275306,29.366118 47.8532549,29.735901 C47.8185273,30.0262604 47.9135931,30.317164 48.1121736,30.5281981 C48.8529084,31.0336658 49.5086636,31.6579494 50.054064,32.3768913 C50.1835234,32.7730399 50.7013608,33.1691884 50.5719014,33.829436 L48.9536594,36.4704264 L48.8242001,36.7345254 C48.9536594,36.7345254 48.9536594,36.866575 49.0831188,36.866575 L51.8017654,36.2063274 L52.0606841,36.0742779 L51.866495,34.0935351 C52.1254138,33.6973865 52.5137918,33.565337 52.9021699,33.1691884 C52.7727106,33.0371389 52.6432512,33.0371389 52.5137918,32.9050894 C52.5137918,32.5089409 52.9021699,32.5089409 53.0316293,32.2448418 C53.1610886,31.9807428 52.3843325,31.9807428 52.3843325,31.5845942 C52.8211413,31.3451238 53.1123783,30.8995279 53.1610886,30.3961486 C53.0316293,30.264099 52.7727106,30.5281981 52.6432512,30.5281981 C52.5137918,30.5281981 52.5137918,30.264099 52.3843325,30.3961486 C51.9913622,30.1698024 51.5378292,30.077281 51.0897389,30.1320495 C50.9292485,29.7104597 50.8416445,29.2636763 50.8308202,28.8115543 L50.9602795,28.8115543 C52.9814596,29.4968206 55.0622945,29.9832193 57.1743288,30.264099 L57.5627069,30.5281981 C58.3488561,32.0695446 59.2130864,33.568131 60.1518941,35.0178817 C60.4425151,35.2395907 60.6300135,35.5742777 60.6697315,35.9422283 C60.0938969,36.7925319 59.443961,37.5880594 58.7278411,38.3191197 L58.5983818,38.7152682 C58.7278411,38.8473177 58.8573005,38.8473177 58.9867598,38.9793673 L61.575947,38.4511692 L61.8348658,38.3191197 C61.9429471,37.664961 61.986318,37.0013807 61.9643251,36.3383769 C62.2232438,35.9422283 62.7410813,35.9422283 63,35.5460798 L62.9838176,35.5460798 Z M31.6708349,8.90508941 L31.1691798,6.39614856 C31.1691798,6.26409904 30.9102611,6 30.7808018,6.13204952 C28.8389114,6.79229711 27.4148584,7.4525447 25.472968,8.1127923 C25.3435086,8.24484182 25.2140493,8.24484182 24.9551306,8.1127923 L21.9775653,6 C22.1070246,7.32049519 22.236484,8.50894085 22.3659434,9.30123796 C22.4954027,9.43328748 22.3659434,9.43328748 22.236484,9.43328748 C21.7186466,9.43328748 21.2008091,9.96148556 20.812431,10.4896836 C20.420758,11.3575422 19.791314,12.0912995 19,12.6024759 C19.1129586,12.982313 19.4043696,13.2795544 19.7767562,13.394773 C20.0423849,13.3728797 20.3092032,13.4182392 20.5535123,13.5268226 C20.5535123,13.6588721 20.5535123,13.6588721 20.424053,13.7909216 C19.7767562,15.1114168 20.812431,16.8280605 19.5178374,17.7524072 C20.1711869,17.9610384 20.8835962,17.7534205 21.3302685,17.2242091 C20.9484358,18.13972 20.8143173,19.1429334 20.9418904,20.1292985 C20.9164583,20.4518651 20.8284483,20.7660632 20.6829717,21.0536451 C21.9775653,20.9215956 22.8837808,19.4030261 23.2721589,18.0165062 L23.2721589,18.1485557 C23.1426995,18.6767538 22.7543214,19.7991747 23.2721589,20.525447 C23.4016182,20.6574966 23.5310776,20.9215956 23.7899963,20.9215956 C23.9809098,20.0158861 24.4315352,19.1885318 25.0845899,18.5447043 C25.7466837,18.6583121 26.3968408,18.8351562 27.0264803,19.0729023 C27.4148584,18.2806052 26.7675616,16.96011 26.7675616,16.96011 L27.592865,17.7854195 C28.1495527,18.0957778 28.8110135,18.1439703 29.4052961,17.9174691 C29.6642148,17.65337 29.9231335,17.5213205 29.9231335,17.2572215 C28.3048915,17.389271 28.1107025,15.1444292 27.3339463,14.088033 L27.4634057,14.088033 C27.8517837,14.352132 28.1107025,14.8803301 28.4990805,15.1444292 L30.829349,15.6231087 L31.0882677,15.3590096 C31.0882677,14.9628611 31.3471865,14.434663 31.2177271,14.0385144 C31.0882677,13.6423659 30.829349,14.3026135 30.5704303,14.3026135 C30.0525929,14.0385144 29.6642148,14.0385144 28.9521883,13.7744154 L27.7870541,11.5295736 L27.7870541,11.4140303 L29.4052961,10.4896836 C29.5347554,10.6217331 29.6642148,10.8858322 29.7936741,11.0178817 C30.1820522,10.8858322 30.0525929,10.3576341 30.1820522,10.0935351 C30.4409709,10.0935351 30.4409709,10.3576341 30.5704303,10.6217331 C30.9588084,10.6217331 30.829349,9.96148556 31.0882677,9.69738652 C31.3471865,9.43328748 31.8650239,9.43328748 31.7355645,8.90508941 L31.6708349,8.90508941 Z M53.792203,14.698762 C54.0983428,15.4482944 53.9805448,16.3083499 53.484737,16.9436039 C53.0386321,17.5592554 52.2618759,17.8233544 51.5428466,17.6038514 C51.1285131,17.4352232 50.7369721,17.2133483 50.3777124,16.9436039 C49.9016715,17.7328052 49.3125884,18.4449466 48.630011,19.0563961 C48.0902151,19.4530066 47.4714203,19.7235103 46.81758,19.8486933 L46.81758,19.5845942 C47.8631226,18.2056106 48.7331161,16.6970308 49.4067672,15.0949106 C49.7041955,14.079957 50.5739632,13.3493468 51.6075763,13.2462173 C52.5428785,13.2946753 53.3818036,13.8483699 53.8083854,14.698762 L53.792203,14.698762 Z M27.0264803,9.96148556 C27.0264803,10.3261302 26.7366757,10.6217331 26.3791835,10.6217331 C26.0216914,10.6217331 25.7318867,10.3261302 25.7318867,9.96148556 C25.7318867,9.59684088 26.0216914,9.30123796 26.3791835,9.30123796 C26.5535825,9.29160084 26.7237718,9.35806203 26.8472713,9.48403247 C26.9707709,9.61000291 27.0359284,9.78359731 27.0264803,9.96148556 L27.0264803,9.96148556 Z" id="Shape" fill="#231F20" fill-rule="nonzero"></path>
            </g>
        </g>
    </g>
</svg>