<svg width="52" height="17" viewBox="0 0 52 17" fill="none" xmlns="http://www.w3.org/2000/svg">
<g clip-path="url(#clip0_59_31)">
<path d="M16.7345 14.6284L16.6843 2.251C16.6843 1.00656 17.667 -4.95911e-05 18.9274 -4.95911e-05H19.1736C20.435 -4.95911e-05 21.4581 1.00656 21.4581 2.251L21.5083 14.6284C21.5083 15.8708 20.4872 16.8804 19.2228 16.8804H18.9639C17.6995 16.8804 16.7345 15.8708 16.7345 14.6284Z" fill="white"/>
<path d="M45.5731 1.46189L50.6481 9.60701C51.745 11.3659 52.0001 11.8241 52.0001 13.1209C52.0001 15.1662 50.1193 16.731 48.4503 16.731H41.5979C40.3454 16.731 39.3361 15.8787 39.3361 14.6469V14.5061C39.3361 13.2753 40.3454 12.2784 41.5979 12.2784L45.7985 12.2784C46.0615 12.2784 46.2289 12.2434 46.2978 12.0794C46.3746 11.8998 46.3539 11.7988 46.2288 11.5979L43.2364 6.86382C43.1862 6.7852 43.131 6.67648 43.0365 6.67648C42.9499 6.67648 42.875 6.7852 42.8347 6.86965L38.2588 14.6061C37.5499 15.834 36.7109 16.731 35.4604 16.731H26.6682C25.0041 16.731 23.3271 15.1128 23.3271 13.4364L23.3271 2.24428C23.3271 1.0144 24.3374 0.0155563 25.5831 0.0155563H25.8716C27.1201 0.0155563 28.1334 1.0144 28.1334 2.24428L28.1294 11.3873C28.1294 11.7251 28.3776 11.992 28.7468 11.992H33.1188C33.8819 11.992 34.3438 11.7212 34.7455 11.0631L40.6211 1.46189C41.1824 0.54847 42.0804 0.0602093 43.1399 0.0602093C44.165 0.0602093 44.9773 0.517406 45.5731 1.46189Z" fill="white"/>
<path d="M5.41968 10.9368C5.07898 10.9368 4.80623 11.2076 4.80623 11.5425L4.80623 14.6575C4.80623 15.8883 3.79496 16.8823 2.54835 16.8823H2.25787C1.01127 16.8823 0 15.8883 0 14.6575L0.00196936 8.9925C0.00196936 7.5549 1.12155 6.34056 2.69113 6.34056L11.8723 6.34056C13.1179 6.34056 14.1302 7.33843 14.1302 8.56927V8.70905C14.1302 9.94184 13.1179 10.9368 11.8723 10.9368L5.41968 10.9368Z" fill="white"/>
<path d="M2.30901 0.566748L13.1186 0.566748C14.3925 0.566748 15.4286 1.64049 15.4286 3.01518V3.16995C15.4286 4.55109 14.3925 5.66675 13.1186 5.66675L2.30901 5.66675C1.03408 5.66675 0 4.55109 0 3.16995L0 2.99906C0 1.62114 1.03408 0.566748 2.30901 0.566748Z" fill="white"/>
</g>
<defs>
<clipPath id="clip0_59_31">
<rect width="52" height="17" fill="white"/>
</clipPath>
</defs>
</svg>
