<svg width="178" height="30" viewBox="0 0 178 30" fill="none" xmlns="http://www.w3.org/2000/svg">
<path d="M41.5208 25.2502C41.5558 26.8329 41.8159 27.3622 42.211 27.5009C42.5441 27.6081 42.8925 27.6567 43.2413 27.6448C43.4564 27.6448 43.5764 27.6859 43.5764 27.8092C43.5764 27.9325 43.3964 28.0096 43.1213 28.0096C41.8359 28.0096 41.0456 27.9531 40.6705 27.9531C40.4905 27.9531 39.5602 28.0096 38.5349 28.0096C38.2748 28.0096 38.0947 28.0096 38.0947 27.8092C38.0947 27.6088 38.2148 27.6448 38.4148 27.6448C38.7143 27.6494 39.0133 27.6166 39.3051 27.5471C39.8053 27.3827 39.8953 26.7918 39.9153 25.0241L40.1003 12.9998C40.1003 12.5887 40.1604 12.3061 40.3554 12.3061C40.5505 12.3061 40.7506 12.5682 41.0907 12.9382C41.3257 13.2002 44.3317 16.5352 47.2176 19.459C48.563 20.8413 51.2188 23.7652 51.5689 24.0837H51.6589L51.4589 14.973C51.4589 13.7346 51.2638 13.3493 50.7987 13.1437C50.4552 13.0472 50.099 13.0073 49.7433 13.0255C49.5083 13.0255 49.4282 12.9587 49.4282 12.8405C49.4282 12.7223 49.6483 12.6555 49.9284 12.6555C50.9637 12.6555 51.929 12.7172 52.3191 12.7172C52.5442 12.7172 53.2844 12.6555 54.2647 12.6555C54.5198 12.6555 54.7149 12.6555 54.7149 12.8405C54.7149 13.0255 54.5949 13.0255 54.3548 13.0255C54.1582 13.0183 53.9615 13.0373 53.7696 13.082C53.2094 13.2465 53.0594 13.673 53.0294 14.8086L52.8193 27.6294C52.8193 28.0764 52.7443 28.2614 52.5592 28.2614C52.3742 28.2614 52.1091 28.0405 51.884 27.8144C50.6386 26.5965 48.1078 23.9347 46.0522 21.8433C43.8965 19.644 41.7008 17.1056 41.3457 16.7047H41.3007L41.5208 25.2502Z" fill="white"/>
<path fill-rule="evenodd" clip-rule="evenodd" d="M69.1043 12.3678C63.1625 12.3678 60.9318 16.8589 60.9318 20.3326H60.9468C60.9468 23.9296 63.2375 28.2974 68.9192 28.2974C73.9408 28.2974 77.1068 24.6233 77.1068 19.9677C77.1068 15.3122 74.0158 12.3678 69.1043 12.3678ZM68.5291 13.3441C71.7701 13.3441 74.3209 16.1652 74.3209 20.718C74.3209 26.5914 71.1099 27.3056 69.7345 27.2799C65.9383 27.2799 63.6576 23.9296 63.6576 19.7005C63.6576 14.6442 66.2534 13.3441 68.5291 13.3441Z" fill="white"/>
<path d="M83.5489 14.6442C83.0937 13.524 82.7636 13.303 82.0484 13.1026C81.7974 13.0443 81.5404 13.0184 81.2832 13.0255C81.1131 13.0255 81.0531 12.9587 81.0531 12.8405C81.0531 12.7223 81.2682 12.6555 81.5533 12.6555C82.5936 12.6555 83.7239 12.7172 84.4191 12.7172C84.9193 12.7172 85.8646 12.6555 86.8449 12.6555C87.085 12.6555 87.3 12.6967 87.3 12.8405C87.3 12.9844 87.175 13.0255 87.01 13.0255C86.7408 12.9982 86.4695 13.0462 86.2247 13.1643C86.0963 13.2656 86.0236 13.4245 86.0296 13.5908C86.1134 14.1315 86.2665 14.6585 86.4848 15.158L89.8908 24.3818H89.9659C90.8261 22.1465 93.3919 15.6051 93.8721 14.2639C93.9614 14.0214 94.017 13.7671 94.0371 13.5086C94.0449 13.3408 93.9486 13.1862 93.7971 13.1232C93.5366 13.0494 93.2668 13.0165 92.9968 13.0255C92.8168 13.0255 92.6667 13.0255 92.6667 12.8611C92.6667 12.6967 92.8468 12.6555 93.2219 12.6555C94.2222 12.6555 95.0324 12.7172 95.2875 12.7172C95.6376 12.7172 96.5579 12.6555 97.1431 12.6555C97.4182 12.6555 97.5682 12.6967 97.5682 12.8405C97.5682 12.9844 97.4482 13.0255 97.2481 13.0255C96.9102 13.0061 96.5743 13.0902 96.2828 13.267C96.0278 13.4469 95.7277 13.7809 95.1975 15.0964C94.4173 17.0028 93.8871 18.1024 92.8168 20.5998C91.5564 23.5596 90.6161 25.7641 90.1959 26.7918C89.6958 27.9685 89.5657 28.2974 89.2757 28.2974C88.9856 28.2974 88.9155 28.0096 88.5404 27.059L83.5389 14.6442" fill="white"/>
<path fill-rule="evenodd" clip-rule="evenodd" d="M104.275 22.8864C104.32 22.7631 104.35 22.722 104.455 22.722L104.43 22.7066H108.837C108.929 22.694 109.014 22.757 109.032 22.8505L110.612 27.1617C110.661 27.2456 110.669 27.348 110.633 27.4387C110.598 27.5294 110.524 27.598 110.432 27.6242L110.422 27.6252C110.235 27.645 110.162 27.6526 110.162 27.8092C110.162 27.9685 110.402 27.9685 110.767 27.9685C112.333 28.0096 113.748 28.0096 114.488 28.0096C115.229 28.0096 115.409 27.9736 115.409 27.8092C115.409 27.6448 115.304 27.6448 115.154 27.6448C114.875 27.6458 114.597 27.6183 114.323 27.5626C113.903 27.4649 113.328 27.1772 112.573 25.3478C111.821 23.517 110.4 19.849 109.272 16.9377C108.5 14.9462 107.865 13.3089 107.676 12.8559C107.476 12.3883 107.371 12.2033 107.176 12.2033C106.981 12.2033 106.861 12.4294 106.621 13.0204L101.659 25.764C101.264 26.7763 100.889 27.4701 99.9839 27.5882C99.778 27.6128 99.571 27.6266 99.3637 27.6294C99.2137 27.6294 99.1237 27.6345 99.1237 27.7938C99.1237 27.9531 99.2437 27.9942 99.5038 27.9942C100.21 27.9942 100.951 27.9674 101.413 27.9507C101.622 27.9432 101.774 27.9377 101.84 27.9377C102.132 27.9377 102.49 27.9513 102.854 27.9652C103.23 27.9796 103.612 27.9942 103.935 27.9942C104.16 27.9942 104.265 27.9171 104.265 27.7938C104.265 27.6705 104.205 27.6294 103.98 27.6294H103.68C103.06 27.6294 102.895 27.3673 102.895 27.0024C102.923 26.5763 103.019 26.1579 103.18 25.764L104.275 22.8864ZM108.562 21.571C108.577 21.6326 108.562 21.6943 108.457 21.6943H104.825C104.75 21.6943 104.75 21.6326 104.75 21.5504L106.576 16.5557C106.591 16.4735 106.621 16.3707 106.681 16.3707C106.741 16.3707 106.786 16.4735 106.786 16.5557L108.562 21.571Z" fill="white"/>
<path fill-rule="evenodd" clip-rule="evenodd" d="M121.396 14.2639C121.441 14.9114 121.441 15.4869 121.441 18.57V22.1208C121.441 23.9912 121.441 25.5945 121.336 26.4475C121.261 27.0487 121.155 27.4855 120.76 27.5625C120.529 27.6165 120.292 27.6441 120.055 27.6448C119.815 27.6448 119.735 27.6653 119.735 27.8092C119.735 27.9531 119.875 28.0096 120.13 28.0096C120.625 28.0096 121.313 27.988 121.838 27.9715C122.162 27.9613 122.424 27.9531 122.541 27.9531C122.645 27.9531 122.883 27.9596 123.196 27.9683C123.804 27.985 124.696 28.0096 125.452 28.0096C125.707 28.0096 125.842 27.912 125.842 27.8092C125.842 27.7064 125.767 27.6448 125.602 27.6448C125.279 27.6345 124.957 27.607 124.637 27.5625C124.051 27.4752 123.931 27.0384 123.871 26.4475C123.761 25.5945 123.761 23.9912 123.761 22.1002V21.8125C123.761 21.6943 123.826 21.6532 123.931 21.6532L125.647 21.72C125.784 21.7067 125.919 21.7599 126.012 21.8639C126.159 22.0388 126.523 22.573 126.955 23.2079C127.272 23.6733 127.625 24.1927 127.958 24.6644C129.073 26.2265 129.823 27.1874 130.668 27.6499C131.184 27.9377 131.679 28.0353 132.779 28.0353H134.665C134.905 28.0353 135.045 27.9377 135.045 27.8349C135.045 27.7321 134.965 27.6705 134.8 27.6705C134.613 27.6663 134.428 27.6457 134.245 27.6088L134.232 27.6064C133.932 27.5481 133.129 27.3922 132.044 26.2265C131.046 25.1621 129.923 23.7083 128.532 21.9086C128.278 21.5797 128.015 21.2393 127.743 20.8875C129.733 19.2175 130.353 17.8404 130.353 16.3348C130.35 15.2432 129.855 14.2147 129.013 13.5496C127.943 12.7994 126.612 12.6761 125.377 12.6761C125.072 12.6761 124.554 12.691 124.026 12.7061C123.48 12.7218 122.924 12.7377 122.586 12.7377C122.423 12.7377 122.139 12.7285 121.79 12.7172C121.237 12.6993 120.522 12.6761 119.875 12.6761C119.57 12.6761 119.435 12.7223 119.435 12.8611C119.435 12.9998 119.555 13.0461 119.77 13.0461C120.031 13.0398 120.292 13.0587 120.55 13.1026C121.2 13.2362 121.351 13.6164 121.396 14.2639ZM123.946 20.5124C123.806 20.4559 123.761 20.3737 123.761 20.1476L123.771 13.971C123.771 13.8117 123.816 13.7295 123.956 13.6884C124.304 13.6166 124.658 13.589 125.012 13.6062C126.157 13.6062 128.013 14.4386 128.013 17.3265C128.013 18.9914 127.437 19.9266 126.847 20.3737C126.438 20.663 125.939 20.7858 125.447 20.718C124.94 20.7251 124.434 20.6559 123.946 20.5124Z" fill="white"/>
<path d="M142.082 13.7912L139.146 13.8682C137.996 13.9145 137.516 14.0121 137.215 14.4592C137.068 14.6775 136.955 14.9186 136.88 15.1734C136.85 15.3327 136.79 15.4149 136.67 15.4149C136.55 15.4149 136.49 15.3122 136.49 15.0912C136.49 14.7675 136.865 12.9176 136.895 12.7532C136.955 12.4911 137.015 12.3678 137.14 12.3678C137.418 12.4744 137.704 12.5552 137.996 12.6093C138.571 12.6709 139.326 12.7121 139.971 12.7121H147.799C148.438 12.7172 149.075 12.65 149.699 12.5116C149.834 12.5116 149.849 12.6298 149.849 12.9381C149.849 13.3647 149.789 14.7675 149.789 15.2916C149.789 15.4972 149.744 15.6153 149.624 15.6153C149.504 15.6153 149.429 15.5177 149.399 15.2094V14.9884C149.354 14.4746 148.824 13.8939 147.059 13.8477L144.558 13.7912V22.1208C144.558 23.9912 144.558 25.5945 144.648 26.468C144.723 27.0384 144.828 27.4957 145.433 27.5625C145.764 27.6113 146.099 27.6388 146.433 27.6448C146.643 27.6448 146.748 27.7064 146.748 27.8092C146.748 27.912 146.583 28.0096 146.373 28.0096C145.058 28.0096 143.808 27.9531 143.267 27.9531C142.812 27.9531 141.562 28.0096 140.767 28.0096C140.511 28.0096 140.376 27.9531 140.376 27.8092C140.376 27.6653 140.451 27.6448 140.692 27.6448C140.931 27.646 141.169 27.6184 141.402 27.5625C141.807 27.4855 141.927 27.0487 141.987 26.4475C142.077 25.5945 142.077 23.9912 142.077 22.1208V13.7912" fill="white"/>
<path d="M157.452 18.57C157.452 15.4869 157.452 14.9114 157.407 14.2639C157.362 13.6164 157.177 13.2362 156.742 13.1231C156.509 13.0671 156.27 13.0412 156.031 13.0461C155.821 13.0461 155.716 12.9998 155.716 12.8405C155.716 12.6812 155.866 12.6761 156.181 12.6761C156.937 12.6761 158.182 12.7377 158.747 12.7377C159.247 12.7377 160.423 12.6761 161.158 12.6761C161.433 12.6761 161.583 12.7172 161.583 12.8405C161.583 12.9638 161.463 13.0461 161.263 13.0461C161.067 13.0459 160.871 13.0648 160.678 13.1026C160.133 13.2054 159.983 13.5496 159.938 14.2639C159.893 14.9782 159.908 15.4818 159.908 18.57V22.167C159.908 24.1351 159.908 25.764 159.983 26.6171C160.043 27.1617 160.178 27.5317 160.768 27.6088C161.099 27.6562 161.433 27.6837 161.768 27.691C161.993 27.691 162.083 27.7527 162.083 27.8554C162.083 27.9582 161.933 28.0559 161.708 28.0559C160.413 28.0559 159.157 27.9993 158.632 27.9993C158.107 27.9993 156.927 28.0559 156.131 28.0559C155.876 28.0559 155.741 27.9993 155.741 27.8554C155.741 27.7116 155.816 27.691 156.056 27.691C156.295 27.6916 156.534 27.664 156.767 27.6088C157.172 27.5317 157.267 27.1874 157.342 26.5811C157.447 25.7281 157.447 24.1197 157.447 22.1516V18.57" fill="white"/>
<path d="M169.255 27.7681C168.94 27.6242 168.88 27.5266 168.88 27.0795C168.88 25.9593 168.955 24.7415 168.97 24.4177C168.985 24.094 169.06 23.9039 169.21 23.9039C169.361 23.9039 169.406 24.0837 169.406 24.2482C169.421 24.5978 169.484 24.9435 169.591 25.2759C169.934 26.5686 171.121 27.4302 172.421 27.3313C174.202 27.3313 175.062 26.0929 175.062 25.0138C175.062 24.0221 174.777 23.0663 173.132 21.7662L172.211 21.0314C170.041 19.2843 169.285 17.8609 169.285 16.2166C169.285 13.9813 171.111 12.378 173.857 12.378C174.747 12.3654 175.634 12.4813 176.493 12.7223C176.678 12.7634 176.768 12.8251 176.768 12.9638C176.768 13.231 176.693 13.822 176.693 15.4047C176.693 15.8517 176.628 16.0161 176.463 16.0161C176.298 16.0161 176.268 15.8928 176.268 15.6462C176.238 15.1588 176.063 14.6925 175.768 14.3101C175.257 13.6279 174.448 13.2536 173.612 13.3133C172.146 13.3133 171.256 14.1868 171.256 15.4047C171.256 16.3399 171.711 17.0541 173.352 18.3336L173.912 18.755C176.268 20.6255 177.143 21.9975 177.143 23.9296C177.165 25.3594 176.462 26.6982 175.287 27.4649C174.337 28.0479 173.243 28.3369 172.136 28.2974C171.151 28.342 170.168 28.1667 169.255 27.7835" fill="white"/>
<path d="M12.2589 29.2748C1.1022 28.4492 -2.28955 22.2472 1.47341 15.2687C3.50745 11.5092 6.5585 7.46466 2.89724 3.72972C2.79553 3.60686 2.89724 3.52822 3.03453 3.59703C11.3537 6.81105 7.01107 13.303 5.58725 16.0059C2.77519 21.3036 4.57023 27.7415 12.2589 29.1274C12.4267 29.1618 12.4165 29.2994 12.2589 29.2846" fill="white"/>
<path d="M13.2074 23.4618L15.2381 0.714294H10.4762L13.0378 23.4618C13.0378 23.6105 13.1965 23.6055 13.2074 23.4618" fill="white"/>
<path d="M18.7562 11.3756C21.2747 13.5491 25.3777 25.6613 15.3548 29.1204C15.1922 29.1663 15.2061 29.3041 15.3548 29.2837C31.2975 27.1 25.8191 14.5338 18.8863 11.2277C18.7004 11.1256 18.6121 11.2532 18.7515 11.3756" fill="white"/>
</svg>
