<svg fill="none" height="138" viewBox="0 0 159 138" width="159" xmlns="http://www.w3.org/2000/svg"><g fill="#fff"><path d="m115.302 0c5.354 0 9.839 4.33387 9.695 9.82343v80.17657h-80.1581c-5.4982 0-9.8389-4.4783-9.8389-9.8234v-70.35317c0-5.48956 4.4854-9.82343 9.8389-9.82343zm-35.2301 13c-17.1183 0-31.0719 13.9677-31.0719 31.1363 0 17.7505 13.8097 31.8637 30.9281 31.8637 17.1183 0 31.0719-13.9677 31.0719-31.2818 0-4.0739-1.295-9.4572-1.295-8.1478 0 11.6398-10.6447 21.097-22.0089 19.4966-8.6311-1.164-18.2692-9.1663-16.543-21.8245 1.7262-12.5127 12.5151-17.4596 20.2831-16.4411 12.5148 1.7459 15.1048 11.3487 11.3638 15.8591-3.7397 5.2379-11.5077 2.1825-11.5077-3.7829 0-3.3464 2.1578-4.8014 2.4455-5.0924-6.3295-1.8914-12.9466 3.2009-13.8097 9.8938-1.007 7.2748 4.3155 13.0947 10.3573 13.8222 11.0766 1.6004 17.4056-7.4204 17.4056-15.4227 0-9.4573-9.9253-20.0785-27.6191-20.0785z"/><path d="m144.112 109.258c-8.384 0-14.888 6.199-14.888 14.371s6.504 14.371 14.888 14.371c8.383 0 14.888-6.199 14.888-14.371-.145-8.172-6.649-14.371-14.888-14.371zm0 4.931c5.348 0 9.54 4.227 9.54 9.44 0 5.072-4.192 9.44-9.54 9.44s-9.54-4.368-9.54-9.44c0-5.213 4.192-9.44 9.54-9.44zm-68.8038 18.88c-5.3482 0-9.54-4.368-9.54-9.44 0-5.213 4.1918-9.44 9.54-9.44s9.54 4.227 9.54 9.44c0 5.072-4.1918 9.44-9.54 9.44zm9.54-23.107v3.1h-.1446c-2.3127-2.254-5.7818-3.804-9.54-3.804-8.3836 0-14.8881 6.199-14.8881 14.371s6.5045 14.371 14.8881 14.371c3.6137 0 7.2273-1.55 9.3955-3.945h.1445v2.959h5.3482v-27.052zm24.8618 23.107c-5.348 0-9.54-4.368-9.54-9.44 0-5.213 4.192-9.44 9.54-9.44s9.54 4.227 9.54 9.44c0 5.072-4.192 9.44-9.54 9.44zm9.395-36.069v16.062h-.144c-2.168-2.395-5.637-3.945-9.396-3.945-8.383 0-14.8877 6.199-14.8877 14.371s6.5047 14.371 14.8877 14.371c3.614 0 7.228-1.55 9.396-3.945h.144v2.959h5.349v-39.873zm-63.5995 33.11c-1.7346 1.832-4.1919 2.959-6.9382 2.959-5.3482 0-9.54-4.368-9.54-9.44 0-5.213 4.1918-9.44 9.54-9.44 2.7463 0 5.2036 1.127 6.9382 2.959l2.6018-4.791c-2.6018-1.972-5.7818-3.24-9.54-3.24-8.3837 0-14.8882 6.199-14.8882 14.371s6.5045 14.371 14.8882 14.371c3.6136 0 6.9382-1.268 9.54-3.24zm-40.6173-20.852c-8.38365 0-14.8882 6.199-14.8882 14.371s6.50455 14.371 14.8882 14.371c8.3836 0 14.8882-6.199 14.8882-14.371-.1446-8.172-6.6491-14.371-14.8882-14.371zm0 4.931c5.3482 0 9.54 4.227 9.54 9.44 0 5.072-4.1918 9.44-9.54 9.44s-9.54002-4.368-9.54002-9.44c0-5.213 4.19182-9.44 9.54002-9.44z"/></g></svg>