<svg fill="none" height="239" viewBox="0 0 249 239" width="249" xmlns="http://www.w3.org/2000/svg"><g fill="#fff"><path d="m64.9222 41c-3.2395 0-5.9222-2.6321-5.9222-5.9222v-29.15558c0-3.2395 2.6321-5.92222 5.9222-5.92222h29.1556c3.2395 0 5.9222 2.6321 5.9222 5.92222v35.07778z"/><path d="m110.922 87c-3.239 0-5.922-2.6321-5.922-5.9222v-29.1556c0-3.2395 2.632-5.9222 5.922-5.9222h29.156c3.239 0 5.922 2.6321 5.922 5.9222v35.0778z"/><path d="m110.922 41c-3.239 0-5.922-2.6321-5.922-5.9222v-29.15558c0-3.2395 2.632-5.92222 5.922-5.92222h29.156c3.239 0 5.922 2.6321 5.922 5.92222v35.07778z"/><path d="m156.922 87c-3.239 0-5.922-2.6321-5.922-5.9222v-29.1556c0-3.2395 2.632-5.9222 5.922-5.9222h29.156c3.239 0 5.922 2.6321 5.922 5.9222v35.0778z"/><path d="m64.9222 134c-3.2395 0-5.9222-2.632-5.9222-5.922v-29.1558c0-3.2395 2.6321-5.9222 5.9222-5.9222h29.1556c3.2395 0 5.9222 2.6321 5.9222 5.9222v35.0778z"/><path d="m156.922 41c-3.239 0-5.922-2.6321-5.922-5.9222v-29.15558c0-3.2395 2.632-5.92222 5.922-5.92222h29.156c3.239 0 5.922 2.6321 5.922 5.92222v35.07778z"/><path d="m64.9222 87c-3.2395 0-5.9222-2.6321-5.9222-5.9222v-29.1556c0-3.2395 2.6321-5.9222 5.9222-5.9222h29.1556c3.2395 0 5.9222 2.6321 5.9222 5.9222v35.0778z"/><path d="m110.922 134c-3.239 0-5.922-2.632-5.922-5.922v-29.1558c0-3.2395 2.632-5.9222 5.922-5.9222h29.156c3.239 0 5.922 2.6321 5.922 5.9222v35.0778z"/><path d="m4.61555 234.284c.62514.611 1.40656 1.08 2.24008 1.456.88561.375 1.77122.563 2.70893.563 1.19814 0 2.08384-.235 2.76104-.704.6772-.47.9898-1.127.9898-1.925 0-.422-.0521-.751-.2084-1.033-.1563-.281-.3647-.516-.6251-.751-.2605-.187-.5731-.375-.9377-.563-.3647-.141-.7294-.328-1.1461-.516l-2.55267-.986c-.41676-.141-.83352-.376-1.30237-.61-.41676-.235-.83352-.517-1.14609-.845-.36466-.329-.62514-.704-.83352-1.174-.20838-.469-.31257-.986-.31257-1.549 0-.61.15629-1.173.41676-1.69.26048-.516.67723-.985 1.14609-1.361.52095-.376 1.09399-.704 1.77122-.892.67724-.235 1.40657-.329 2.24009-.329 1.09396 0 2.08376.188 2.96936.564.8857.375 1.6671.845 2.2922 1.455l-1.2503 1.314c-.5209-.469-1.146-.845-1.8233-1.126-.6772-.282-1.4065-.423-2.24006-.423-.9898 0-1.82332.188-2.39636.611-.62514.422-.93771.985-.93771 1.736 0 .376.10419.704.26047.986.15629.282.41676.516.67724.704.31256.188.62513.376.9377.564.36467.14.67724.281 1.0419.422l2.55262.986c.521.188.9898.422 1.4587.657.4688.235.8335.563 1.1461.892.3125.328.573.751.7814 1.173.2084.47.2605.986.2605 1.549 0 .658-.1563 1.221-.4168 1.784-.2605.564-.6772 1.033-1.1982 1.455-.5209.423-1.1461.752-1.9275.986-.7293.235-1.6149.376-2.55263.376-1.25028 0-2.39636-.235-3.49036-.657-1.09399-.423-1.9796-.986-2.76103-1.737z"/><path d="m21.8594 221.704h2.6568l3.4383 8.637 1.3023 3.286h.1042l1.2503-3.286 3.4383-8.637h2.6568v16.101h-2.1359v-8.872c0-.704.0521-1.502.1042-2.394.0521-.845.1563-1.643.2084-2.394h-.1042l-1.4587 3.568-3.4382 8.402h-1.3024l-3.4382-8.402-1.4066-3.568h-.1042c.0521.704.1042 1.502.2084 2.394.0521.845.1042 1.643.1042 2.394v8.872h-2.0838z"/><path d="m52.5427 232.876h-6.5119l-1.7191 4.929h-2.2922l6.043-16.101h2.5527l6.043 16.101h-2.4485zm-.573-1.643-.8336-2.441c-.3125-.892-.6251-1.783-.9377-2.675-.3125-.892-.573-1.784-.8856-2.723h-.1042c-.2604.939-.573 1.831-.8335 2.723-.3126.892-.6251 1.783-.9377 2.675l-.8335 2.441z"/><path d="m71.7138 237.805-4.3239-6.806h-3.2299v6.806h-2.2401v-16.101h5.5742c.8856 0 1.7712.094 2.5005.235.7815.141 1.4587.422 1.9796.751.5731.375.9898.845 1.3024 1.408s.4689 1.268.4689 2.113c0 1.267-.3647 2.253-1.094 3.004-.7294.751-1.7192 1.267-2.9173 1.549l4.5322 7.041zm-7.5017-8.496h3.0215c1.4066 0 2.4485-.235 3.2299-.751.7293-.517 1.094-1.315 1.094-2.347 0-1.08-.3647-1.831-1.094-2.254-.7293-.422-1.8233-.657-3.2299-.657h-3.0215z"/><path d="m83.6444 223.394h-5.4178v-1.737h13.0758v1.737h-5.4179v14.411h-2.2922z"/><path d="m105.471 221.704h5.47c.989 0 1.875.094 2.709.235.833.141 1.51.422 2.083.798.573.375 1.042.845 1.355 1.455.312.61.469 1.361.469 2.253 0 .845-.157 1.596-.469 2.206-.313.611-.782 1.127-1.355 1.55-.573.422-1.25.704-2.083.938-.834.188-1.72.329-2.709.329h-3.23v6.384h-2.24zm5.209 8.027c1.563 0 2.709-.282 3.491-.798.729-.516 1.146-1.361 1.146-2.535 0-1.173-.365-1.971-1.146-2.441-.782-.469-1.928-.657-3.439-.657h-2.917v6.431z"/><path d="m123.913 221.704h2.241v14.364h7.814v1.737h-10.107v-16.101z"/><path d="m148.136 232.876h-6.511l-1.72 4.929h-2.292l6.043-16.101h2.553l6.043 16.101h-2.449zm-.573-1.643-.833-2.441c-.313-.892-.625-1.783-.938-2.675-.312-.892-.573-1.784-.885-2.723h-.105c-.26.939-.573 1.831-.833 2.723-.313.892-.625 1.783-.938 2.675l-.833 2.441z"/><path d="m160.119 223.394h-5.418v-1.737h13.076v1.737h-5.366v14.411h-2.292z"/><path d="m173.768 221.704h10.314v1.737h-8.022v5.445h6.824v1.737h-6.824v7.229h-2.24z"/><path d="m196.272 238.087c-1.146 0-2.136-.188-3.074-.611-.937-.375-1.719-.938-2.396-1.689-.677-.705-1.198-1.596-1.563-2.629s-.573-2.206-.573-3.521c0-1.314.208-2.441.573-3.473.365-1.033.886-1.878 1.563-2.582s1.459-1.268 2.396-1.643c.938-.376 1.98-.564 3.074-.564 1.146 0 2.136.188 3.073.564.938.375 1.72.939 2.449 1.643.677.704 1.198 1.596 1.563 2.582.364 1.032.573 2.159.573 3.426 0 1.315-.209 2.441-.573 3.521-.365 1.033-.886 1.925-1.563 2.629-.677.751-1.511 1.267-2.449 1.69-.937.469-1.979.657-3.073.657zm0-1.784c.781 0 1.511-.141 2.188-.469.625-.329 1.198-.752 1.667-1.362s.833-1.267 1.094-2.065c.26-.798.365-1.737.365-2.723s-.105-1.878-.365-2.722c-.261-.798-.625-1.503-1.094-2.019-.469-.563-1.042-.986-1.667-1.267-.625-.282-1.355-.47-2.188-.47-.782 0-1.511.141-2.188.47-.625.281-1.198.751-1.667 1.267-.469.563-.834 1.221-1.094 2.019-.261.798-.365 1.689-.365 2.722s.104 1.925.365 2.723c.26.798.625 1.502 1.094 2.065.469.564 1.042 1.033 1.667 1.362.625.328 1.354.469 2.188.469z"/><path d="m220.288 237.805-4.324-6.806h-3.23v6.806h-2.24v-16.101h5.574c.886 0 1.772.094 2.501.235.781.141 1.459.422 1.979.751.574.375.99.845 1.303 1.408.312.563.469 1.268.469 2.113 0 1.267-.365 2.253-1.094 3.004-.73.751-1.719 1.267-2.918 1.549l4.533 7.041zm-7.554-8.496h3.022c1.406 0 2.448-.235 3.23-.751.729-.517 1.094-1.315 1.094-2.347 0-1.08-.365-1.831-1.094-2.254-.73-.422-1.824-.657-3.23-.657h-3.022z"/><path d="m229.041 221.704h2.657l3.438 8.637 1.302 3.286h.105l1.25-3.286 3.438-8.637h2.657v16.101h-2.136v-8.872c0-.704.052-1.502.104-2.394.052-.845.157-1.643.209-2.394h-.104l-1.459 3.568-3.438 8.402h-1.303l-3.438-8.402-1.407-3.568h-.104c.052.704.104 1.502.209 2.394.052.845.104 1.643.104 2.394v8.872h-2.084z"/><path d="m226 162c-12.886 0-23 9.993-23 23.026 0 13.032 10.114 22.974 23 22.974s23-9.993 23-22.974c0-13.084-10.114-23.026-23-23.026zm0 7.933c8.214 0 14.734 6.851 14.734 15.041 0 8.139-6.52 15.042-14.734 15.042-8.163 0-14.734-6.954-14.734-15.042 0-8.19 6.52-15.041 14.734-15.041z"/><path d="m118.205 200.016c-8.196 0-14.702-6.903-14.702-15.042 0-8.242 6.506-15.041 14.702-15.041s14.701 6.851 14.701 15.041c0 8.139-6.556 15.042-14.701 15.042zm14.548-36.728v4.945h-.308c-3.329-3.76-8.81-6.233-14.496-6.233-12.858 0-22.949 9.993-22.949 23.026 0 13.032 10.091 22.974 22.949 22.974 5.686 0 11.116-2.524 14.496-6.233h.308v4.842h8.247v-43.321z"/><path d="m172.179 200.239c-8.205 0-14.717-6.752-14.717-14.715 0-8.063 6.512-14.715 14.717-14.715 8.206 0 14.718 6.703 14.718 14.715 0 7.963-6.564 14.715-14.718 14.715zm14.513-56.239v25.096h-.256c-3.333-3.679-8.821-6.098-14.462-6.098-12.871 0-22.974 9.777-22.974 22.526 0 12.75 10.103 22.476 22.974 22.476 5.693 0 11.129-2.469 14.462-6.098h.308v4.737h8.256v-62.639z"/><path d="m88.8612 195.225c-2.7592 2.936-6.6857 4.791-11.0898 4.791-8.4898 0-15.2285-6.954-15.2285-15.042 0-8.242 6.7387-15.041 15.2285-15.041 4.4041 0 8.3306 1.854 11.0898 4.79l4.1388-7.572c-4.0857-3.245-9.3918-5.151-15.2286-5.151-13.3183 0-23.7714 9.993-23.7714 23.026 0 13.032 10.4531 22.974 23.7714 22.974 5.8368 0 11.1429-1.906 15.2286-5.151z"/><path d="m23 162c-12.8862 0-23 9.993-23 23.026 0 13.032 10.1138 22.974 23 22.974s23-9.993 23-22.974c0-13.084-10.1138-23.026-23-23.026zm0 7.933c8.2143 0 14.7344 6.851 14.7344 15.041 0 8.139-6.5201 15.042-14.7344 15.042-8.1629 0-14.73438-6.954-14.73438-15.042 0-8.19 6.57148-15.041 14.73438-15.041z"/></g></svg>