<svg width="360" height="95" viewBox="0 0 360 95" fill="none" xmlns="http://www.w3.org/2000/svg">
<g style="mix-blend-mode:multiply">
<g style="mix-blend-mode:multiply">
<g style="mix-blend-mode:multiply">
<path d="M115.615 90.2845C116.24 90.8947 117.021 91.3642 117.855 91.7397C118.74 92.1152 119.626 92.303 120.564 92.303C121.762 92.303 122.647 92.0683 123.325 91.5989C124.002 91.1294 124.314 90.4723 124.314 89.6743C124.314 89.2518 124.262 88.9232 124.106 88.6415C123.95 88.3599 123.741 88.1252 123.481 87.8905C123.22 87.7027 122.908 87.5149 122.543 87.3272C122.179 87.1863 121.814 86.9986 121.397 86.8108L118.844 85.825C118.428 85.6842 118.011 85.4495 117.542 85.2148C117.125 84.9801 116.709 84.6984 116.396 84.3698C116.031 84.0413 115.771 83.6657 115.562 83.1963C115.354 82.7269 115.25 82.2105 115.25 81.6472C115.25 81.037 115.406 80.4737 115.667 79.9573C115.927 79.441 116.344 78.9716 116.813 78.596C117.334 78.2205 117.907 77.8919 118.584 77.7041C119.261 77.4694 119.991 77.3755 120.824 77.3755C121.918 77.3755 122.908 77.5633 123.793 77.9388C124.679 78.3144 125.461 78.7838 126.086 79.394L124.835 80.7084C124.314 80.239 123.689 79.8634 123.012 79.5818C122.335 79.3001 121.605 79.1593 120.772 79.1593C119.782 79.1593 118.949 79.3471 118.376 79.7696C117.75 80.192 117.438 80.7553 117.438 81.5064C117.438 81.8819 117.542 82.2105 117.698 82.4922C117.855 82.7738 118.115 83.0085 118.376 83.1963C118.688 83.3841 119.001 83.5718 119.313 83.7596C119.678 83.9004 119.991 84.0413 120.355 84.1821L122.908 85.1679C123.429 85.3556 123.898 85.5903 124.367 85.825C124.835 86.0597 125.2 86.3883 125.513 86.7169C125.825 87.0455 126.086 87.468 126.294 87.8905C126.502 88.3599 126.554 88.8762 126.554 89.4395C126.554 90.0967 126.398 90.66 126.138 91.2233C125.877 91.7866 125.461 92.256 124.94 92.6785C124.419 93.101 123.793 93.4296 123.012 93.6643C122.283 93.899 121.397 94.0398 120.459 94.0398C119.209 94.0398 118.063 93.8051 116.969 93.3826C115.875 92.9602 114.989 92.3969 114.208 91.6458L115.615 90.2845Z" fill="#262626"/>
</g>
<g style="mix-blend-mode:multiply">
<path d="M132.858 77.7041H135.515L138.953 86.3414L140.256 89.6273H140.36L141.61 86.3414L145.049 77.7041H147.705V93.8051H145.57V84.9332C145.57 84.229 145.622 83.431 145.674 82.5391C145.726 81.6942 145.83 80.8962 145.882 80.1451H145.778L144.319 83.7127L140.881 92.1152H139.579L136.14 83.7127L134.734 80.1451H134.63C134.682 80.8492 134.734 81.6472 134.838 82.5391C134.89 83.3841 134.942 84.1821 134.942 84.9332V93.8051H132.858V77.7041Z" fill="#262626"/>
</g>
<g style="mix-blend-mode:multiply">
<path d="M163.542 88.8763H157.03L155.311 93.8051H153.019L159.062 77.7041H161.614L167.657 93.8051H165.209L163.542 88.8763ZM162.969 87.2333L162.135 84.7923C161.823 83.9004 161.51 83.0085 161.197 82.1166C160.885 81.2248 160.624 80.3329 160.312 79.394H160.208C159.947 80.3329 159.635 81.2248 159.374 82.1166C159.062 83.0085 158.749 83.9004 158.436 84.7923L157.603 87.2333H162.969Z" fill="#262626"/>
</g>
<g style="mix-blend-mode:multiply">
<path d="M182.713 93.8051L178.389 86.9986H175.159V93.8051H172.919V77.7041H178.493C179.379 77.7041 180.264 77.798 180.994 77.9388C181.775 78.0797 182.452 78.3613 182.973 78.6899C183.546 79.0654 183.963 79.5349 184.276 80.0982C184.588 80.6615 184.744 81.3656 184.744 82.2105C184.744 83.478 184.38 84.4637 183.65 85.2148C182.921 85.9659 181.931 86.4822 180.733 86.7639L185.265 93.8051H182.713ZM175.211 85.3087H178.233C179.639 85.3087 180.681 85.074 181.463 84.5576C182.192 84.0413 182.557 83.2433 182.557 82.2105C182.557 81.1309 182.192 80.3798 181.463 79.9573C180.733 79.5349 179.639 79.3001 178.233 79.3001H175.211V85.3087Z" fill="#262626"/>
</g>
<g style="mix-blend-mode:multiply">
<path d="M194.642 79.394H189.225V77.6572H202.3V79.394H196.883V93.8051H194.59L194.642 79.394Z" fill="#262626"/>
</g>
<g style="mix-blend-mode:multiply">
<path d="M216.471 77.7041H221.941C222.93 77.7041 223.816 77.798 224.65 77.9388C225.483 78.0797 226.16 78.3613 226.733 78.7368C227.306 79.1124 227.775 79.5818 228.088 80.192C228.4 80.8023 228.557 81.5534 228.557 82.4452C228.557 83.2902 228.4 84.0413 228.088 84.6515C227.775 85.2617 227.306 85.7781 226.733 86.2006C226.16 86.6231 225.483 86.9047 224.65 87.1394C223.816 87.3272 222.93 87.468 221.941 87.468H218.711V93.8521H216.471V77.7041ZM221.68 85.7312C223.243 85.7312 224.389 85.4495 225.171 84.9332C225.9 84.4168 226.317 83.5718 226.317 82.3983C226.317 81.2248 225.952 80.4267 225.171 79.9573C224.389 79.4879 223.243 79.3001 221.732 79.3001H218.815V85.7312H221.68Z" fill="#262626"/>
</g>
<g style="mix-blend-mode:multiply">
<path d="M234.911 77.7041H237.152V92.0683H244.966V93.8051H234.859V77.7041H234.911Z" fill="#262626"/>
</g>
<g style="mix-blend-mode:multiply">
<path d="M259.136 88.8763H252.625L250.905 93.8051H248.613L254.656 77.7041H257.209L263.252 93.8051H260.803L259.136 88.8763ZM258.563 87.2333L257.73 84.7923C257.417 83.9004 257.105 83.0085 256.792 82.1166C256.48 81.2248 256.219 80.3329 255.907 79.394H255.802C255.542 80.3329 255.229 81.2248 254.969 82.1166C254.656 83.0085 254.344 83.9004 254.031 84.7923L253.198 87.2333H258.563Z" fill="#262626"/>
</g>
<g style="mix-blend-mode:multiply">
<path d="M271.118 79.394H265.7V77.6572H278.776V79.394H273.41V93.8051H271.118V79.394Z" fill="#262626"/>
</g>
<g style="mix-blend-mode:multiply">
<path d="M284.767 77.7041H295.081V79.441H287.059V84.8862H293.883V86.6231H287.059V93.8521H284.819L284.767 77.7041Z" fill="#262626"/>
</g>
<g style="mix-blend-mode:multiply">
<path d="M307.272 94.0868C306.126 94.0868 305.136 93.899 304.198 93.4765C303.261 93.101 302.479 92.5377 301.802 91.7866C301.125 91.0825 300.604 90.1906 300.239 89.1579C299.874 88.1252 299.666 86.9516 299.666 85.6373C299.666 84.3229 299.874 83.1963 300.239 82.1636C300.604 81.1309 301.125 80.2859 301.802 79.5818C302.479 78.8777 303.261 78.3144 304.198 77.9388C305.136 77.5633 306.178 77.3755 307.272 77.3755C308.418 77.3755 309.408 77.5633 310.345 77.9388C311.283 78.3144 312.065 78.8777 312.794 79.5818C313.471 80.2859 313.992 81.1778 314.357 82.1636C314.721 83.1963 314.93 84.3229 314.93 85.5903C314.93 86.9047 314.721 88.0313 314.357 89.111C313.992 90.1437 313.471 91.0356 312.794 91.7397C312.117 92.4908 311.283 93.0071 310.345 93.4296C309.408 93.899 308.366 94.0868 307.272 94.0868ZM307.272 92.303C308.053 92.303 308.783 92.1622 309.46 91.8336C310.085 91.505 310.658 91.0825 311.127 90.4723C311.596 89.862 311.96 89.2048 312.221 88.4068C312.481 87.6088 312.586 86.67 312.586 85.6842C312.586 84.6984 312.481 83.8065 312.221 82.9616C311.96 82.1636 311.596 81.4595 311.127 80.9431C310.658 80.3798 310.085 79.9573 309.46 79.6757C308.835 79.394 308.105 79.2063 307.272 79.2063C306.49 79.2063 305.761 79.3471 305.084 79.6757C304.459 79.9573 303.886 80.4267 303.417 80.9431C302.948 81.5064 302.583 82.1636 302.323 82.9616C302.062 83.7596 301.958 84.6515 301.958 85.6842C301.958 86.7169 302.062 87.6088 302.323 88.4068C302.583 89.2048 302.948 89.909 303.417 90.4723C303.886 91.0356 304.459 91.505 305.084 91.8336C305.709 92.1622 306.438 92.303 307.272 92.303Z" fill="#262626"/>
</g>
<g style="mix-blend-mode:multiply">
<path d="M331.287 93.8051L326.963 86.9986H323.733V93.8051H321.493V77.7041H327.067C327.953 77.7041 328.839 77.798 329.568 77.9388C330.349 78.0797 331.027 78.3613 331.547 78.6899C332.121 79.0654 332.537 79.5349 332.85 80.0982C333.162 80.6615 333.319 81.3656 333.319 82.2105C333.319 83.478 332.954 84.4637 332.225 85.2148C331.495 85.9659 330.506 86.4822 329.307 86.7639L333.84 93.8051H331.287ZM323.733 85.3087H326.755C328.161 85.3087 329.203 85.074 329.985 84.5576C330.714 84.0413 331.079 83.2433 331.079 82.2105C331.079 81.1309 330.714 80.3798 329.985 79.9573C329.255 79.5349 328.161 79.3001 326.755 79.3001H323.733V85.3087Z" fill="#262626"/>
</g>
<g style="mix-blend-mode:multiply">
<path d="M340.039 77.7041H342.696L346.134 86.3414L347.437 89.6273H347.541L348.791 86.3414L352.229 77.7041H354.886V93.8051H352.75V84.9332C352.75 84.229 352.802 83.431 352.854 82.5391C352.907 81.6942 353.011 80.8962 353.063 80.1451H352.959L351.5 83.7127L348.062 92.1152H346.759L343.321 83.7127L341.914 80.1451H341.81C341.862 80.8492 341.914 81.6472 342.019 82.5391C342.071 83.3841 342.123 84.1821 342.123 84.9332V93.8051H340.039V77.7041Z" fill="#262626"/>
</g>
</g>
<g style="mix-blend-mode:multiply">
<path d="M337 18C324.114 18 314 27.9933 314 41.0258C314 54.0582 324.114 64 337 64C349.886 64 360 54.0067 360 41.0258C360 27.9418 349.886 18 337 18ZM337 25.9328C345.214 25.9328 351.734 32.7839 351.734 40.9742C351.734 49.1131 345.214 56.0157 337 56.0157C328.837 56.0157 322.266 49.0616 322.266 40.9742C322.266 32.7839 328.786 25.9328 337 25.9328Z" fill="black"/>
</g>
<g style="mix-blend-mode:multiply">
<path d="M229.205 56.0157C221.009 56.0157 214.503 49.1131 214.503 40.9742C214.503 32.7324 221.009 25.9328 229.205 25.9328C237.401 25.9328 243.906 32.7839 243.906 40.9742C243.906 49.1131 237.35 56.0157 229.205 56.0157ZM243.753 19.2878V24.2329H243.445C240.116 20.4726 234.635 18 228.949 18C216.091 18 206 27.9933 206 41.0258C206 54.0582 216.091 64 228.949 64C234.635 64 240.065 61.4759 243.445 57.7671H243.753V62.6092H252V19.2878H243.753Z" fill="black"/>
</g>
<g style="mix-blend-mode:multiply">
<path d="M283.179 56.2394C274.974 56.2394 268.462 49.4866 268.462 41.5244C268.462 33.4614 274.974 26.8094 283.179 26.8094C291.385 26.8094 297.897 33.5118 297.897 41.5244C297.897 49.4866 291.333 56.2394 283.179 56.2394ZM297.692 0V25.0961H297.436C294.103 21.4173 288.615 18.9984 282.974 18.9984C270.103 18.9984 260 28.7748 260 41.5244C260 54.274 270.103 64 282.974 64C288.667 64 294.103 61.5307 297.436 57.9024H297.744V62.6394H306V0H297.692Z" fill="black"/>
</g>
<g style="mix-blend-mode:multiply">
<path d="M199.861 51.2251C197.102 54.1613 193.176 56.0157 188.771 56.0157C180.282 56.0157 173.543 49.0616 173.543 40.9742C173.543 32.7324 180.282 25.9328 188.771 25.9328C193.176 25.9328 197.102 27.7872 199.861 30.7234L204 23.1512C199.914 19.9059 194.608 18 188.771 18C175.453 18 165 27.9933 165 41.0258C165 54.0582 175.453 64 188.771 64C194.608 64 199.914 62.0941 204 58.8488L199.861 51.2251Z" fill="black"/>
</g>
<g style="mix-blend-mode:multiply">
<path d="M134 18C121.114 18 111 27.9933 111 41.0258C111 54.0582 121.114 64 134 64C146.886 64 157 54.0067 157 41.0258C157 27.9418 146.886 18 134 18ZM134 25.9328C142.214 25.9328 148.734 32.7839 148.734 40.9742C148.734 49.1131 142.214 56.0157 134 56.0157C125.837 56.0157 119.266 49.0616 119.266 40.9742C119.266 32.7839 125.837 25.9328 134 25.9328Z" fill="black"/>
</g>
</g>
<g style="mix-blend-mode:multiply">
<path d="M4.18889 29C1.89753 29 0 27.1383 0 24.8111V4.18889C0 1.89753 1.86173 0 4.18889 0H24.8111C27.1025 0 29 1.86173 29 4.18889V29H4.18889Z" fill="black"/>
</g>
<g style="mix-blend-mode:multiply">
<path d="M36.1889 61C33.8975 61 32 59.1383 32 56.8111V36.1889C32 33.8975 33.8617 32 36.1889 32H56.8111C59.1025 32 61 33.8617 61 36.1889V61H36.1889Z" fill="black"/>
</g>
<g style="mix-blend-mode:multiply">
<path d="M36.1889 29C33.8975 29 32 27.1383 32 24.8111V4.18889C32 1.89753 33.8617 0 36.1889 0H56.8111C59.1025 0 61 1.86173 61 4.18889V29H36.1889Z" fill="black"/>
</g>
<g style="mix-blend-mode:multiply">
<path d="M68.1889 61C65.8975 61 64 59.1383 64 56.8111V36.1889C64 33.8975 65.8617 32 68.1889 32H88.8111C91.1025 32 93 33.8617 93 36.1889V61H68.1889Z" fill="black"/>
</g>
<g style="mix-blend-mode:multiply">
<path d="M4.18889 94C1.89753 94 0 92.1383 0 89.8111V69.1889C0 66.8975 1.86173 65 4.18889 65H24.8111C27.1025 65 29 66.8617 29 69.1889V94H4.18889Z" fill="black"/>
</g>
<g style="mix-blend-mode:multiply">
<path d="M68.1889 29C65.8975 29 64 27.1383 64 24.8111V4.18889C64 1.89753 65.8617 0 68.1889 0H88.8111C91.1025 0 93 1.86173 93 4.18889V29H68.1889Z" fill="black"/>
</g>
<g style="mix-blend-mode:multiply">
<path d="M4.18889 61C1.89753 61 0 59.1383 0 56.8111V36.1889C0 33.8975 1.86173 32 4.18889 32H24.8111C27.1025 32 29 33.8617 29 36.1889V61H4.18889Z" fill="black"/>
</g>
<g style="mix-blend-mode:multiply">
<path d="M36.1889 94C33.8975 94 32 92.1383 32 89.8111V69.1889C32 66.8975 33.8617 65 36.1889 65H56.8111C59.1025 65 61 66.8617 61 69.1889V94H36.1889Z" fill="black"/>
</g>
</svg>
