<svg width="144" height="63" viewBox="0 0 144 63" fill="none" xmlns="http://www.w3.org/2000/svg">
<path fill-rule="evenodd" clip-rule="evenodd" d="M67.4311 27.7396C64.7866 24.3971 62.062 20.9535 62.1784 16.1404V16.1404C62.1784 10.6266 67.5516 5.33334 75.1635 5.33334C78.0739 5.55392 79.865 5.77444 83.2232 7.31833C83.6709 7.75943 83.6709 7.98001 83.6709 8.20053C83.6709 9.08271 83.4719 9.76888 83.273 10.455C83.1735 10.7981 83.074 11.1412 82.9993 11.5088L81.6561 17.0226C81.4321 17.2432 81.2083 17.4637 81.2083 17.6843C80.7605 17.6843 80.5366 17.6843 80.3127 17.4637C79.865 17.2432 79.865 17.0226 79.865 16.5815C79.865 16.2802 79.8748 15.94 79.8855 15.5723C79.9765 12.4408 80.1254 7.3183 74.7157 7.3183C70.2381 7.09778 67.7754 10.6266 67.7754 13.4938C67.5936 16.5383 69.7737 19.0012 71.4389 20.8824C71.8244 21.3178 72.1823 21.7221 72.4769 22.0952C72.7814 22.4552 73.0822 22.8062 73.3776 23.1507C76.339 26.6051 78.7456 29.4123 78.7456 34.2256C78.5217 40.6215 72.253 47.2381 64.4171 47.2381C61.2828 47.0176 58.3723 46.3559 56.3574 45.0326C55.6858 44.5915 55.238 44.1504 55.238 43.4887C55.238 42.1654 55.4619 41.0626 55.6858 39.9599C55.7571 39.9599 55.783 39.9599 55.7851 39.9528C55.7897 39.9375 55.6858 39.8896 55.6858 39.7393C55.9096 38.1955 56.3574 36.6516 56.8052 35.1078C56.8052 34.6667 57.0291 34.005 57.7007 33.7845C57.85 33.6374 57.9992 33.6864 58.1484 33.7355C58.2231 33.76 58.2977 33.7845 58.3723 33.7845C58.4843 34.0051 58.5403 34.1705 58.5963 34.336C58.6522 34.5013 58.7082 34.6667 58.8201 34.8872V38.416C58.5963 43.4887 61.5067 45.4737 64.4171 45.4737C70.4619 45.6943 72.253 39.96 72.253 37.7545C72.253 33.8342 69.8763 30.8301 67.4311 27.7396ZM136.059 16.8021C130.238 16.8021 123.746 26.0653 121.731 29.153C121.979 28.113 122.245 27.107 122.499 26.1444L122.499 26.1439L122.499 26.1439C123.161 23.636 123.746 21.4223 123.746 19.6693C123.746 18.1254 123.074 16.5815 121.283 16.5815C117.029 16.5815 111.208 24.7419 111.208 26.7268C111.208 27.1679 111.208 27.3885 111.656 27.3885C111.963 27.3885 112.374 26.7684 112.962 25.8818L112.962 25.8818C113.233 25.4733 113.542 25.0083 113.895 24.5213C114.017 24.3811 114.143 24.2354 114.271 24.0865L114.271 24.0863C115.558 22.5949 117.131 20.772 118.149 20.772C118.149 20.772 118.373 20.772 118.373 21.4336C118.373 23.3092 115.787 30.9445 113.483 37.7459C112.536 40.5419 111.637 43.1971 110.985 45.2532C110.761 45.9148 111.208 46.1354 113.671 46.1354C113.911 46.1354 114.134 46.1406 114.343 46.1454H114.343C115.496 46.1719 116.168 46.1874 116.358 45.2532C117.701 40.4011 120.164 35.1078 122.85 30.4762C125.313 26.2857 130.686 20.1104 133.597 20.1104C134.492 20.1104 134.716 20.5515 134.716 21.6542C134.716 22.8555 133.38 26.07 131.827 29.8054L131.827 29.8054C129.674 34.9856 127.104 41.1674 127.104 44.371C127.328 45.9149 128 47.0177 130.014 47.0177C134.492 47.0177 138.522 40.6216 140.537 37.3134C140.592 37.1506 140.661 37.0012 140.726 36.8586C140.927 36.4213 141.098 36.0478 140.761 35.5489C140.701 35.4898 140.657 35.4307 140.616 35.3759C140.505 35.226 140.417 35.1078 140.089 35.1078C139.865 35.1078 139.641 35.3284 139.641 35.5489C139.511 35.7635 139.367 36.003 139.213 36.2608L139.213 36.2611C137.782 38.6529 135.415 42.6066 133.597 42.6066C133.373 42.6066 133.149 42.3861 133.149 41.945C133.149 41.0444 134.269 38.1951 135.594 34.8232C137.514 29.937 139.865 23.9535 139.865 21.2131C139.865 17.9048 138.074 16.8021 136.059 16.8021L136.059 16.8021ZM80.3128 27.3885C80.3128 27.609 80.7606 27.8296 80.9844 27.8296C81.5557 27.8296 81.9447 27.2014 82.6164 26.1168L82.6164 26.1168C82.9978 25.501 83.4702 24.7382 84.1187 23.8597C85.2382 22.0953 86.5814 20.9925 87.477 20.9925C87.9247 20.9925 88.1486 21.4336 88.1486 21.6542C88.1486 22.2916 87.2427 24.599 86.0854 27.5463C84.0395 32.7566 81.2083 39.9671 81.2083 43.4888C81.2083 45.2532 81.8799 47.0176 84.1187 47.0176C89.268 47.0176 95.0889 40.1805 99.3427 34.2256C99.4444 34.1254 99.4999 34.0708 99.5302 34.0823C99.5666 34.0962 99.5666 34.2055 99.5666 34.4462C98.6711 36.8723 97.3277 41.5039 97.3277 44.371C97.3277 45.6943 97.7755 47.0176 99.7904 47.0176C104.268 47.0176 110.537 37.975 110.537 35.7695C110.537 35.3284 110.537 35.1078 110.089 35.1078C109.4 35.1078 109.109 35.7603 108.705 36.6637L108.705 36.6638C108.584 36.9349 108.453 37.2285 108.298 37.5339C106.731 39.7394 104.268 42.8271 103.149 42.8271C102.701 42.8271 102.701 42.386 102.701 41.9449C102.701 39.8343 106.258 29.8914 108.509 23.5989C109.551 20.686 110.313 18.5553 110.313 18.3459C110.313 17.9048 110.089 17.6843 109.417 17.6843C109.244 17.6843 109.037 17.6511 108.783 17.6106C108.382 17.5464 107.864 17.4637 107.179 17.4637C105.336 17.4637 104.991 17.8325 104.774 18.0643L104.774 18.0644C104.754 18.086 104.735 18.1065 104.716 18.1254C104.426 18.7679 104.066 19.8263 103.62 21.1362L103.62 21.1363L103.62 21.1363C102.688 23.8731 101.384 27.7072 99.5666 31.1379C95.5367 37.975 90.1636 43.2682 87.9247 43.2682C87.0292 43.2682 86.5814 42.6065 86.5814 41.7243C86.5814 40.3868 88.1893 36.2652 89.9049 31.8676L89.905 31.8675C91.8668 26.8386 93.9695 21.4489 93.9695 19.4486C93.9695 18.5664 93.5217 16.802 91.283 16.802C85.4621 16.802 80.3128 26.2857 80.3128 27.3885V27.3885Z" fill="white"/>
<path fill-rule="evenodd" clip-rule="evenodd" d="M23.0048 1.90153C21.2004 3.45321 21.2004 6.33499 23.0048 8.10838L33.605 18.3054L36.3114 15.6453L25.7112 5.2266L26.6134 4.56161L37.2136 14.7586L39.92 12.0986L29.5453 1.90153C27.7411 0.128078 24.8091 0.128078 23.0048 1.90153ZM29.5454 16.0887C31.3496 17.8621 31.3496 20.7438 29.5454 22.2956C27.7411 24.069 25.0346 24.069 23.2303 22.2956L12.6301 12.0986L15.562 9.43841L25.9367 19.6355L26.8389 18.9704L16.2387 8.55171L19.1707 5.89163L29.5454 16.0887V16.0887ZM1.35321 29.3892C3.38305 31.1626 6.08948 31.1626 7.66826 29.3892L18.2685 19.1922L15.562 16.3104L4.96184 26.7291L4.05964 26.0641L14.6599 15.6454L11.9535 12.9853L1.35321 23.1823C-0.451071 24.9557 -0.451071 27.6158 1.35321 29.3892ZM22.3281 22.9606C20.5239 21.4089 17.8174 21.4089 16.0131 22.9606L5.41291 33.3793L8.34484 36.0394L18.7196 25.6207L19.6217 26.5074L9.02147 36.9262L11.9535 39.5862L22.3281 29.3892C24.1324 27.6158 24.1324 24.734 22.3281 22.9606ZM29.5454 44.4631C31.3496 46.0148 31.3496 48.8966 29.5454 50.67C27.7411 52.4434 25.0346 52.4434 23.2303 50.67L12.6301 40.4729L15.562 37.5912L25.9367 48.0099L26.8389 47.1232L16.2387 36.9262L19.1707 34.0444L29.5454 44.4631ZM23.0048 30.0542C21.2004 31.8276 21.2004 34.7094 23.0048 36.2611L33.605 46.6799L36.3114 43.7981L25.7112 33.601L26.6134 32.7144L37.2136 43.133L39.92 40.4729L29.5453 30.0542C27.7411 28.2808 24.8091 28.2808 23.0048 30.0542ZM36.537 29.3892C34.7327 31.1626 32.0263 31.1626 30.2219 29.3892C28.4177 27.6158 28.4177 24.9557 30.2219 23.1823L40.5966 12.9853L43.3031 15.6454L32.9284 26.0641L33.605 26.7291L44.2053 16.3104L47.1373 19.1922L36.537 29.3892ZM51.1969 22.9606C49.3926 21.4089 46.4606 21.4089 44.6563 22.9606L34.2816 33.3793L37.2136 36.0394L47.5883 25.6207L48.2649 26.5074L37.8902 36.9262L40.5966 39.5862L51.1969 29.3892C52.7757 27.6158 52.7757 24.734 51.1969 22.9606Z" fill="white"/>
<path fill-rule="evenodd" clip-rule="evenodd" d="M70.6357 52.3175C71.0835 52.3175 71.5314 52.1058 71.5314 51.6825C71.5314 51.2592 71.0835 51.0476 70.6357 51.0476C70.1878 51.0476 69.74 51.2592 69.74 51.6825C69.74 52.1058 70.1878 52.3175 70.6357 52.3175ZM110.271 57.6085C110.271 58.8783 110.719 59.5133 112.063 59.5133C112.325 59.5133 112.587 59.4407 112.805 59.3805C112.958 59.3379 113.089 59.3016 113.182 59.3016V58.4551H112.51C111.615 58.4551 111.615 58.2434 111.615 57.1852V54.2222H113.182V53.3757H111.615V51.2593L110.271 51.4709V53.3757H108.928V54.2222H110.271V57.6085ZM81.1601 56.9735C81.1601 55.0688 81.608 54.2222 83.1755 54.4339V53.3757C81.8319 53.164 81.1601 54.0106 80.9362 54.8572H80.7122C80.9362 54.2222 80.9362 53.7989 80.9362 53.3757H80.0404V59.3016H81.1601V56.9735ZM76.2336 59.5133C74.6661 59.5133 73.5465 58.6666 73.5465 56.5503C73.5465 54.6455 74.4422 53.3756 76.6815 53.3756C77.1293 53.3756 77.5772 53.3756 78.025 53.5873V54.4339C77.5772 54.2222 77.1293 54.2222 76.6815 54.2222C75.1139 54.2222 74.6661 55.0688 74.6661 56.3387C74.6661 57.6085 75.1139 58.455 76.4575 58.455C77.1293 58.455 77.5772 58.455 78.025 58.2434V59.0899C77.5772 59.3016 76.9054 59.5133 76.2336 59.5133ZM66.1567 59.3016V55.4921C66.1567 54.6455 65.9328 54.2222 65.0371 54.2222C64.1414 54.2222 63.2456 55.0688 63.2456 56.5503V59.3016H62.126V55.4921C62.126 54.8572 62.126 54.2222 61.0063 54.2222C60.1106 54.2222 59.2149 55.0688 59.2149 56.5503V59.3016H58.0952V53.3757H59.2149V54.6455C59.6628 53.7989 60.3346 53.3757 61.4542 53.3757C62.7978 53.3757 63.2456 54.2222 63.2456 54.6455C63.4696 54.0106 64.1414 53.3757 65.261 53.3757C66.6046 53.3757 67.2764 53.7989 67.2764 55.2804V59.3016H66.1567ZM87.2062 54.2222C86.3105 54.2222 85.4147 54.8572 85.4147 56.3387C85.4147 57.8201 86.0866 58.455 87.2062 58.455C88.102 58.455 88.9977 57.8201 88.9977 56.3387C88.9977 55.0688 88.5498 54.2222 87.2062 54.2222ZM84.0712 56.3387C84.0712 58.455 85.1908 59.5133 86.9823 59.5133C88.9977 59.5133 90.1174 58.0318 90.1174 56.3387C90.1174 54.2222 88.9977 53.3757 87.2062 53.3757C85.1908 53.3757 84.0712 54.6455 84.0712 56.3387ZM93.2523 59.5133C92.8045 59.5133 92.1327 59.5133 91.9088 59.3016V58.455C92.1101 58.455 92.3114 58.4978 92.533 58.5449C92.8045 58.6025 93.1064 58.6667 93.4762 58.6667C94.1481 58.6667 94.8199 58.2434 94.8199 57.6085C94.8199 57.0542 94.2226 56.9032 93.5494 56.7329C92.6803 56.5132 91.6848 56.2614 91.6848 55.0688C91.6848 54.0106 92.5805 53.3757 94.372 53.3757H95.7156L95.4916 54.2222C95.3989 54.2222 95.2293 54.1859 95.0306 54.1434C94.7496 54.0832 94.4104 54.0106 94.1481 54.0106C93.4762 54.0106 93.0284 54.4339 93.0284 55.0688C93.0284 55.6231 93.583 55.7741 94.2081 55.9444C95.0151 56.1641 95.9395 56.4159 95.9395 57.6085C95.9395 58.6666 95.0438 59.5133 93.2523 59.5133ZM97.507 62.4762C98.8506 62.4762 99.5224 61.8413 100.194 59.9365L102.881 53.3757H101.762L100.642 56.127C100.567 56.3385 100.493 56.5736 100.418 56.8086L100.418 56.8087C100.269 57.2791 100.12 57.7495 99.9703 58.0318C99.9703 57.397 99.7464 56.9737 99.5226 56.5505L99.5224 56.5503L98.1788 53.3757H97.0592L99.5224 59.3016L99.0746 59.9365C98.6267 61.2064 98.1788 61.418 97.507 61.418H96.6113V62.2645C96.7233 62.2645 96.8912 62.3174 97.0591 62.3704C97.2271 62.4233 97.3951 62.4762 97.507 62.4762ZM105.345 59.5133C104.897 59.5133 104.225 59.5133 104.001 59.3016V58.455C104.202 58.455 104.404 58.4978 104.625 58.5449C104.897 58.6025 105.199 58.6667 105.569 58.6667C106.464 58.6667 106.912 58.2434 106.912 57.6085C106.912 57.0542 106.357 56.9032 105.732 56.7329C104.925 56.5132 104.001 56.2614 104.001 55.0688C104.001 54.0106 104.673 53.3757 106.464 53.3757H107.584V54.2222C107.472 54.2222 107.248 54.1693 107.024 54.1164L107.024 54.1164C106.8 54.0635 106.576 54.0106 106.464 54.0106C105.569 54.0106 105.121 54.4339 105.121 55.0688C105.121 55.6231 105.675 55.7741 106.3 55.9444C107.107 56.1641 108.032 56.4159 108.032 57.6085C108.032 58.6666 107.136 59.5133 105.345 59.5133ZM115.869 55.4921H119.004C119.004 54.6455 118.333 54.0106 117.437 54.0106C116.541 54.0106 116.093 54.6455 115.869 55.4921ZM115.869 56.3387H120.124V55.7037C120.124 54.4339 119.452 53.3757 117.437 53.3757C115.645 53.3757 114.526 54.6455 114.526 56.3387C114.526 58.455 115.645 59.5133 117.661 59.5133C118.557 59.5133 119.228 59.3016 119.9 59.0899L119.676 58.2434C119.228 58.455 118.557 58.6667 117.885 58.6667C116.541 58.6667 115.645 57.8201 115.869 56.3387ZM129.977 59.3016V55.4921C129.977 54.6455 129.753 54.2222 128.857 54.2222C127.962 54.2222 127.066 55.0688 127.066 56.5503V59.3016H125.946V55.4921C125.946 54.8572 125.722 54.2222 124.827 54.2222C123.931 54.2222 123.035 55.0688 123.035 56.5503V59.3016H121.916V53.3757H123.035C123.035 53.7989 123.035 54.2222 122.811 54.6455C123.259 53.7989 124.155 53.3757 125.051 53.3757C126.455 53.3757 126.781 54.0555 126.995 54.5013L126.995 54.5016L126.995 54.5022C127.02 54.5535 127.043 54.6018 127.066 54.6455C127.066 54.0106 127.962 53.3757 129.081 53.3757C130.425 53.3757 131.097 53.7989 131.097 55.2804V59.3016H129.977ZM132.888 59.3016C133.336 59.5133 133.784 59.5133 134.456 59.5133C136.023 59.5133 137.143 58.6666 137.143 57.6085C137.143 56.4159 136.147 56.1641 135.278 55.9444C134.605 55.7741 134.008 55.6231 134.008 55.0688C134.008 54.4339 134.456 54.0106 135.351 54.0106C135.575 54.0106 135.799 54.0635 136.023 54.1164C136.247 54.1693 136.471 54.2222 136.695 54.2222V53.3757H135.351C133.784 53.3757 132.888 54.0106 132.888 55.0688C132.888 56.2614 133.813 56.5132 134.62 56.7329C135.245 56.9032 135.799 57.0542 135.799 57.6085C135.799 58.2434 135.127 58.6666 134.456 58.6666C134.232 58.6666 133.952 58.6137 133.672 58.5608C133.392 58.5079 133.112 58.455 132.888 58.455V59.3016ZM69.0681 54.2222V53.3756H71.3074V59.3016H70.1878V54.2222H69.0681Z" fill="white"/>
<path fill-rule="evenodd" clip-rule="evenodd" d="M141.905 46.2857C142.857 46.2857 143.81 45.3333 143.81 44.381C143.81 43.2381 142.857 42.4762 141.905 42.4762C140.762 42.4762 140 43.2381 140 44.381C140 45.3333 140.762 46.2857 141.905 46.2857ZM140.381 44.381C140.381 45.1429 140.952 45.9048 141.905 45.9048C142.857 45.9048 143.429 45.1429 143.429 44.381C143.429 43.4286 142.857 42.6666 141.905 42.6666C140.952 42.6666 140.381 43.4286 140.381 44.381ZM141.143 45.3333H141.524V44.381H141.905L142.476 45.3333H142.857L142.095 44.381C142.476 44.381 142.667 44.1905 142.667 43.8095C142.667 43.4285 142.476 43.2381 142.095 43.2381H141.143V45.3333ZM142.476 43.8095C142.476 44.1905 142.095 44.1905 141.905 44.1905H141.524V43.4285H141.905C142.095 43.4285 142.476 43.6191 142.476 43.8095Z" fill="white"/>
</svg>
