<?xml version="1.0" encoding="utf-8"?>
<!-- Generator: Adobe Illustrator 22.1.0, SVG Export Plug-In . SVG Version: 6.00 Build 0)  -->
<svg version="1.1" id="Layer_1" xmlns="http://www.w3.org/2000/svg" xmlns:xlink="http://www.w3.org/1999/xlink" x="0px" y="0px"
	 viewBox="0 0 42 42" style="enable-background:new 0 0 42 42;" xml:space="preserve">
<title>Be</title>
<desc>Created with Sketch.</desc>
<g id="Desktop-HD" transform="translate(-1133.000000, -388.000000)">
	<g id="Social" transform="translate(1012.000000, 389.000000)">
		<g id="Be" transform="translate(122.000000, 0.000000)">
			<g id="behance-logo" transform="translate(7.857143, 12.142857)">
				<path id="Behance" d="M21.6,2.2h-6V0.7h6L21.6,2.2L21.6,2.2z M11.6,8.7c0.4,0.6,0.6,1.4,0.6,2.3c0,0.9-0.2,1.8-0.7,2.5
					c-0.3,0.5-0.6,0.9-1.1,1.2c-0.5,0.4-1,0.6-1.7,0.8c-0.6,0.1-1.3,0.2-2.1,0.2H0V0h7.2C9,0,10.3,0.6,11,1.7
					c0.5,0.7,0.7,1.5,0.7,2.4c0,1-0.2,1.7-0.7,2.3C10.8,6.7,10.4,7,9.9,7.3C10.7,7.6,11.2,8,11.6,8.7z M3.4,6.2h3.1
					c0.6,0,1.2-0.1,1.6-0.4c0.4-0.3,0.6-0.7,0.6-1.4C8.8,3.7,8.5,3.2,8,3c-0.5-0.2-1-0.2-1.8-0.2H3.4V6.2z M9.1,10.7
					c0-0.8-0.3-1.4-0.9-1.7C7.8,8.9,7.3,8.8,6.6,8.8H3.4V13h3.1c0.6,0,1.1-0.1,1.5-0.3C8.7,12.4,9.1,11.7,9.1,10.7z M23.8,8.2
					c0.1,0.5,0.1,1.3,0.1,2.2h-7.8c0,1.1,0.4,1.9,1.1,2.4c0.4,0.3,0.9,0.4,1.5,0.4c0.6,0,1.1-0.2,1.5-0.5c0.2-0.2,0.4-0.4,0.6-0.8
					h2.8c-0.1,0.7-0.4,1.3-1,2c-1,1.1-2.3,1.6-4,1.6c-1.4,0-2.7-0.5-3.8-1.4c-1.1-0.9-1.6-2.4-1.6-4.5c0-2,0.5-3.4,1.5-4.5
					c1-1,2.3-1.6,3.8-1.6c0.9,0,1.8,0.2,2.5,0.5c0.7,0.4,1.4,0.9,1.8,1.7C23.4,6.5,23.7,7.3,23.8,8.2z M21,8.5
					c-0.1-0.8-0.3-1.4-0.7-1.8c-0.4-0.4-1-0.6-1.7-0.6c-0.7,0-1.3,0.2-1.7,0.6c-0.4,0.4-0.6,1-0.7,1.7L21,8.5L21,8.5z"/>
			</g>
		</g>
	</g>
</g>
</svg>
