<?xml version="1.0" encoding="UTF-8"?>
<svg width="450px" height="793px" viewBox="0 0 450 793" version="1.1" xmlns="http://www.w3.org/2000/svg" xmlns:xlink="http://www.w3.org/1999/xlink">
    <!-- Generator: Sketch 55.2 (78181) - https://sketchapp.com -->
    <title>Combined Shape</title>
    <desc>Created with Sketch.</desc>
    <g id="Page-1" stroke="none" stroke-width="1" fill="none" fill-rule="evenodd" fill-opacity="0.05">
        <path d="M360.001242,0 L419.583593,0 C431.882672,13.4336722 438.032159,31.3653312 438.032159,53.7951232 C438.032159,69.6036541 431.768638,94.6334525 419.24141,128.885269 L387.593833,214.843726 C371.110637,259.634564 362.869163,292.239169 362.869163,312.658522 C362.869163,349.545094 388.582562,367.65876 440.010132,367.000075 C446.60341,367.000075 449.9,368.976112 449.9,372.928244 C449.9,376.221688 448.416535,378.197725 445.449559,378.856414 C442.482584,379.515103 431.439009,379.844442 412.318502,379.844442 C387.264045,379.844442 366.825189,383.796516 351.001322,391.700781 C331.880815,401.581113 319.188945,411.296627 312.92533,420.847614 C306.661716,430.398601 296.277459,456.251748 281.772247,498.407831 L242.212775,611.04305 C225.72958,657.151265 208.752143,691.731908 191.279956,714.786015 C173.807769,737.840123 149.907494,756.612471 119.578414,771.103625 C89.2493344,785.594778 55.294461,792.840246 17.7127753,792.840246 C6.5042024,792.840246 0.9,790.53487 0.9,785.924048 C0.9,781.313227 7.4931793,778.678511 20.6797357,778.019822 C53.6461267,776.043766 76.7222542,768.468949 89.9088106,755.295173 C103.095367,742.121397 117.93002,713.139525 134.413216,668.348688 L179.906608,545.833186 C201.005098,488.527262 226.553668,447.030491 256.553084,421.341628 C286.552499,395.652765 330.561971,378.856453 388.582819,370.952188 C359.572395,365.682678 336.331438,353.826457 318.859251,335.383171 C301.387064,316.939885 292.651101,295.532821 292.651101,271.161336 C292.651101,248.765917 303.529847,209.903862 325.287665,154.574004 L349.023348,94.304281 C359.572593,67.2980408 364.847137,43.2562607 364.847137,22.1782196 C364.847137,13.4299033 363.231845,6.03717462 360.001242,-2.05040429e-11 Z" id="Combined-Shape" fill="#000000" fill-rule="nonzero"></path>
    </g>
</svg>