<svg width="380" height="152" viewBox="0 0 380 152" fill="none" xmlns="http://www.w3.org/2000/svg">
<g style="mix-blend-mode:multiply">
<path d="M12.2015 0.0162675C12.5486 0.0162675 13.4163 0.0162675 14.8045 0.0162675C16.1928 0.0162675 17.798 0.0162675 19.6201 0.0162675C21.4638 -0.0054225 23.2534 -0.0054225 24.9887 0.0162675C26.724 0.0162675 28.1015 0.037958 29.121 0.0813406C34.7825 0.276566 39.4028 1.38284 42.9819 3.40015C46.5827 5.41747 49.229 8.13976 50.921 11.567C52.6129 14.9943 53.4589 18.9313 53.4589 23.3781C53.4589 27.955 52.5804 32.033 50.8234 35.6121C49.0663 39.1695 46.3874 41.9678 42.7866 44.0068C39.1858 46.0458 34.6089 47.0653 29.0559 47.0653H12.2015V0.0162675ZM24.8586 9.97269V37.1088H29.4463C31.0515 37.1088 32.6784 36.6642 34.3269 35.7748C35.9972 34.8638 37.3963 33.3887 38.5243 31.3497C39.6739 29.3107 40.2487 26.5884 40.2487 23.1829C40.2487 18.8445 39.2509 15.5583 37.2553 13.324C35.2814 11.0898 32.6784 9.97269 29.4463 9.97269H24.8586Z" fill="white"/>
<path d="M68.5003 33.1393C68.4786 35.1566 68.945 36.6208 69.8994 37.5318C70.8538 38.4212 72.0143 38.8659 73.3809 38.8659C74.5305 38.8659 75.5609 38.6489 76.4719 38.2151C77.4047 37.7813 78.1313 36.9136 78.6519 35.6121H89.8448C89.4977 38.1067 88.5108 40.265 86.8839 42.0871C85.257 43.8875 83.2722 45.2757 80.9296 46.2518C78.6086 47.228 76.2008 47.716 73.7063 47.716C70.2139 47.716 67.1337 47.011 64.4657 45.6011C61.8193 44.1694 59.7586 42.1738 58.2836 39.6142C56.8085 37.0546 56.071 34.072 56.071 30.6664C56.071 27.4561 56.7435 24.4952 58.0883 21.7838C59.4549 19.0723 61.4071 16.8923 63.9451 15.2437C66.5047 13.5952 69.5849 12.7709 73.1857 12.7709C76.8515 12.7709 79.9101 13.5301 82.3612 15.0485C84.8123 16.5669 86.6453 18.6493 87.86 21.2957C89.0964 23.9204 89.7146 26.8921 89.7146 30.2109V33.1393H68.5003ZM68.4352 26.0461H78.0337C78.0337 24.7663 77.6216 23.6601 76.7973 22.7273C75.9947 21.7729 74.7908 21.2957 73.1857 21.2957C71.8842 21.2957 70.7671 21.7729 69.8343 22.7273C68.9016 23.6601 68.4352 24.7663 68.4352 26.0461Z" fill="white"/>
<path d="M107.462 47.716C105.119 47.716 102.798 47.3147 100.499 46.5121C98.1994 45.7095 96.2147 44.4297 94.5444 42.6727C92.8741 40.9157 91.8004 38.6056 91.3232 35.7423H102.061C102.343 36.8269 102.841 37.6294 103.557 38.15C104.273 38.6706 105 39.0069 105.737 39.1587C106.475 39.3105 107.028 39.3865 107.397 39.3865C108.807 39.3865 109.945 39.2238 110.813 38.8984C111.681 38.5513 112.115 38.0416 112.115 37.3691C112.115 36.7401 111.822 36.252 111.236 35.905C110.65 35.5362 109.598 35.2434 108.08 35.0264L103.102 34.2456C99.8914 33.6599 97.2992 32.5536 95.3253 30.9267C93.3514 29.2999 92.3427 26.9789 92.2993 23.9638C92.2776 21.8814 92.8525 19.9942 94.0238 18.3023C95.2168 16.6103 96.9522 15.2654 99.2298 14.2676C101.529 13.2698 104.316 12.7709 107.592 12.7709C112.19 12.7709 115.835 13.7687 118.524 15.7643C121.214 17.76 122.559 20.4714 122.559 23.8987H112.245C112.006 22.8792 111.431 22.1308 110.52 21.6536C109.609 21.1547 108.579 20.9052 107.429 20.9052C106.258 20.9052 105.26 21.0788 104.436 21.4258C103.633 21.7729 103.232 22.2718 103.232 22.9226C103.232 23.5082 103.622 23.9854 104.403 24.3542C105.184 24.7013 106.475 25.0266 108.275 25.3303L112.603 26.1112C114.772 26.6318 116.518 27.3368 117.841 28.2261C119.186 29.1155 120.206 30.0808 120.9 31.122C121.615 32.1415 122.104 33.1501 122.364 34.1479C122.624 35.1241 122.754 35.9592 122.754 36.6533C122.754 39.0611 122.071 41.0892 120.704 42.7378C119.36 44.3647 117.527 45.6011 115.206 46.4471C112.906 47.293 110.325 47.716 107.462 47.716Z" fill="white"/>
<path d="M138.187 0.0162675V10.6885H126.148V0.0162675H138.187ZM138.187 13.4217V47.0653H126.148V13.4217H138.187Z" fill="white"/>
<path d="M172.216 19.6688C171.348 19.6688 170.611 19.3868 170.004 18.8229C169.396 18.2155 169.093 17.3695 169.093 16.2849C169.093 15.2437 169.353 14.1809 169.873 13.0963C168.832 13.5301 167.965 14.029 167.27 14.593C166.62 15.1136 166.056 15.786 165.579 16.6103C166.923 18.2155 167.596 20.2979 167.596 22.8575C167.596 26.2847 166.403 28.866 164.017 30.6014C161.674 32.3367 158.55 33.2044 154.646 33.2044H153.475C151.696 34.2456 150.807 35.3952 150.807 36.6533C150.807 38.0416 151.674 38.7357 153.41 38.7357H160.503C164.32 38.7357 167.357 39.4515 169.613 40.8832C171.912 42.2714 173.062 44.4189 173.062 47.3256C173.062 49.5381 172.346 51.5337 170.915 53.3124C169.526 55.1345 167.401 56.5879 164.537 57.6724C161.674 58.757 158.16 59.2993 153.995 59.2993C149.787 59.2993 146.403 58.757 143.844 57.6724C141.327 56.6312 140.069 55.1128 140.069 53.1172C140.069 51.7723 140.677 50.5576 141.891 49.473C143.106 48.4318 144.906 47.6076 147.293 47.0002L147.878 48.0414C146.316 49.3429 145.535 50.8396 145.535 52.5315C145.535 54.3536 146.36 55.7419 148.008 56.6963C149.657 57.6941 151.935 58.193 154.841 58.193C157.878 58.193 160.329 57.5857 162.195 56.3709C164.103 55.1562 165.058 53.4426 165.058 51.23C165.058 49.7984 164.516 48.6704 163.431 47.8462C162.39 47.0219 160.546 46.6097 157.9 46.6097H153.865C151.089 46.6097 148.919 46.1542 147.358 45.2432C145.796 44.2887 145.015 42.8571 145.015 40.9482C145.015 39.3431 145.579 37.9114 146.707 36.6533C147.835 35.3952 149.548 34.1805 151.848 33.0091C148.724 32.6187 146.251 31.5775 144.429 29.8855C142.607 28.1936 141.696 25.8509 141.696 22.8575C141.696 19.4302 142.867 16.8489 145.21 15.1136C147.596 13.3783 150.741 12.5106 154.646 12.5106C158.984 12.5106 162.303 13.5301 164.602 15.5691C165.427 14.3978 166.446 13.465 167.661 12.7709C168.876 12.0768 170.112 11.7297 171.37 11.7297C172.672 11.7297 173.691 12.1202 174.429 12.9011C175.21 13.6386 175.6 14.6147 175.6 15.8294C175.6 17.0441 175.253 17.9986 174.559 18.6927C173.908 19.3435 173.127 19.6688 172.216 19.6688ZM154.646 32.033C155.861 32.033 156.772 31.3389 157.379 29.9506C158.03 28.5624 158.355 26.198 158.355 22.8575C158.355 19.517 158.03 17.1526 157.379 15.7643C156.772 14.3761 155.861 13.682 154.646 13.682C153.431 13.682 152.499 14.3761 151.848 15.7643C151.24 17.1526 150.937 19.517 150.937 22.8575C150.937 26.198 151.24 28.5624 151.848 29.9506C152.499 31.3389 153.431 32.033 154.646 32.033Z" fill="white"/>
<path d="M177.079 47.0653V13.4217H189.606V18.0745C190.084 17.3587 190.691 16.632 191.428 15.8945C192.166 15.157 193.12 14.5388 194.292 14.0399C195.463 13.541 196.927 13.2915 198.684 13.2915C200.658 13.2915 202.534 13.6711 204.313 14.4303C206.114 15.1895 207.578 16.4042 208.706 18.0745C209.855 19.7447 210.43 21.9464 210.43 24.6796V47.0653H197.741V26.4041C197.741 25.2978 197.329 24.4518 196.504 23.8661C195.68 23.2805 194.791 22.9876 193.836 22.9876C192.903 22.9876 191.982 23.2805 191.07 23.8661C190.181 24.4518 189.736 25.2978 189.736 26.4041V47.0653H177.079Z" fill="white"/>
</g>
<g style="mix-blend-mode:multiply">
<path d="M40.6066 74.7872C40.6066 78.7785 39.9667 82.2817 38.6869 85.2968C37.4071 88.3119 35.2813 90.6655 32.3096 92.3574C29.3595 94.0493 25.3574 94.8953 20.3033 94.8953C15.2492 94.8953 11.2362 94.0493 8.26449 92.3574C5.31443 90.6655 3.19951 88.3119 1.9197 85.2968C0.639901 82.2817 0 78.7785 0 74.7872V47.1956H12.8197V75.3078C12.8197 78.5616 13.5681 80.8717 15.0648 82.2383C16.5832 83.6048 18.3294 84.2881 20.3033 84.2881C21.6048 84.2881 22.8195 83.9953 23.9475 83.4096C25.0971 82.8023 26.019 81.8478 26.7132 80.5463C27.429 79.2232 27.7869 77.477 27.7869 75.3078V47.1956H40.6066V74.7872Z" fill="white"/>
<path d="M89.5179 94.2446H73.7047L65.0498 79.4726L56.5901 94.2446H43.1196L58.4772 70.4923L43.5101 47.1956H59.1931L66.4814 59.9502L73.7047 47.1956H86.9799L72.9238 68.6702L89.5179 94.2446Z" fill="white"/>
<path d="M100.483 80.3186C100.462 82.3359 100.928 83.8001 101.883 84.7111C102.837 85.6005 103.997 86.0451 105.364 86.0451C106.514 86.0451 107.544 85.8282 108.455 85.3944C109.388 84.9606 110.115 84.0929 110.635 82.7914H121.828C121.481 85.2859 120.494 87.4443 118.867 89.2663C117.24 91.0667 115.255 92.455 112.913 93.4311C110.592 94.4072 108.184 94.8953 105.689 94.8953C102.197 94.8953 99.1169 94.1903 96.4488 92.7804C93.8025 91.3487 91.7417 89.3531 90.2667 86.7935C88.7917 84.2339 88.0542 81.2513 88.0542 77.8457C88.0542 74.6354 88.7266 71.6745 90.0715 68.963C91.4381 66.2516 93.3903 64.0716 95.9282 62.423C98.4878 60.7745 101.568 59.9502 105.169 59.9502C108.835 59.9502 111.893 60.7094 114.344 62.2278C116.796 63.7462 118.628 65.8286 119.843 68.475C121.08 71.0997 121.698 74.0714 121.698 77.3902V80.3186H100.483ZM100.418 73.2254H110.017C110.017 71.9456 109.605 70.8394 108.78 69.9066C107.978 68.9522 106.774 68.475 105.169 68.475C103.867 68.475 102.75 68.9522 101.817 69.9066C100.885 70.8394 100.418 71.9456 100.418 73.2254Z" fill="white"/>
<path d="M124.933 104.722V60.6009H137.655V64.5054C138.935 62.7701 140.508 61.5771 142.373 60.9263C144.239 60.2756 145.963 59.9502 147.547 59.9502C149.889 59.9502 151.993 60.5684 153.859 61.8048C155.724 63.0412 157.199 64.9501 158.284 67.5314C159.369 70.091 159.911 73.3556 159.911 77.3251C159.911 81.5984 159.26 85.0256 157.959 87.6069C156.679 90.1665 154.987 92.0212 152.883 93.1708C150.8 94.3205 148.566 94.8953 146.18 94.8953C144.792 94.8953 143.284 94.5374 141.657 93.8216C140.052 93.0841 138.697 91.8585 137.59 90.1449V104.722H124.933ZM142.861 85.8499C144.271 85.8499 145.508 85.1883 146.571 83.8651C147.655 82.5203 148.197 80.3403 148.197 77.3251C148.197 74.592 147.655 72.4988 146.571 71.0454C145.508 69.5921 144.271 68.8654 142.861 68.8654C141.018 68.8654 139.673 69.7114 138.827 71.4033C138.002 73.0736 137.59 75.0475 137.59 77.3251C137.59 78.6917 137.775 80.0366 138.143 81.3598C138.512 82.6613 139.076 83.735 139.835 84.581C140.616 85.4269 141.625 85.8499 142.861 85.8499Z" fill="white"/>
<path d="M173.792 80.3186C173.77 82.3359 174.236 83.8001 175.191 84.7111C176.145 85.6005 177.306 86.0451 178.672 86.0451C179.822 86.0451 180.852 85.8282 181.763 85.3944C182.696 84.9606 183.423 84.0929 183.943 82.7914H195.136C194.789 85.2859 193.802 87.4443 192.175 89.2663C190.548 91.0667 188.564 92.455 186.221 93.4311C183.9 94.4072 181.492 94.8953 178.998 94.8953C175.505 94.8953 172.425 94.1903 169.757 92.7804C167.111 91.3487 165.05 89.3531 163.575 86.7935C162.1 84.2339 161.362 81.2513 161.362 77.8457C161.362 74.6354 162.035 71.6745 163.38 68.963C164.746 66.2516 166.698 64.0716 169.236 62.423C171.796 60.7745 174.876 59.9502 178.477 59.9502C182.143 59.9502 185.201 60.7094 187.653 62.2278C190.104 63.7462 191.937 65.8286 193.151 68.475C194.388 71.0997 195.006 74.0714 195.006 77.3902V80.3186H173.792ZM173.727 73.2254H183.325C183.325 71.9456 182.913 70.8394 182.089 69.9066C181.286 68.9522 180.082 68.475 178.477 68.475C177.176 68.475 176.058 68.9522 175.126 69.9066C174.193 70.8394 173.727 71.9456 173.727 73.2254Z" fill="white"/>
<path d="M198.241 94.2446V60.6009H210.475V69.9066C210.996 68.1062 211.734 66.4577 212.688 64.9609C213.664 63.4425 214.901 62.2278 216.397 61.3168C217.894 60.4057 219.684 59.9502 221.766 59.9502H222.254V71.9239C222.232 71.9239 222.091 71.9022 221.831 71.8589C218.686 71.5335 216.332 71.6636 214.77 72.2493C213.209 72.8133 212.167 73.6376 211.647 74.7222C211.148 75.8067 210.898 76.9347 210.898 78.106V94.2446H198.241Z" fill="white"/>
<path d="M236.234 47.1956V57.8678H224.195V47.1956H236.234ZM236.234 60.6009V94.2446H224.195V60.6009H236.234Z" fill="white"/>
<path d="M252.074 80.3186C252.053 82.3359 252.519 83.8001 253.474 84.7111C254.428 85.6005 255.588 86.0451 256.955 86.0451C258.105 86.0451 259.135 85.8282 260.046 85.3944C260.979 84.9606 261.705 84.0929 262.226 82.7914H273.419C273.072 85.2859 272.085 87.4443 270.458 89.2663C268.831 91.0667 266.846 92.455 264.504 93.4311C262.183 94.4072 259.775 94.8953 257.28 94.8953C253.788 94.8953 250.708 94.1903 248.04 92.7804C245.393 91.3487 243.333 89.3531 241.858 86.7935C240.383 84.2339 239.645 81.2513 239.645 77.8457C239.645 74.6354 240.318 71.6745 241.662 68.963C243.029 66.2516 244.981 64.0716 247.519 62.423C250.079 60.7745 253.159 59.9502 256.76 59.9502C260.426 59.9502 263.484 60.7094 265.935 62.2278C268.386 63.7462 270.219 65.8286 271.434 68.475C272.671 71.0997 273.289 74.0714 273.289 77.3902V80.3186H252.074ZM252.009 73.2254H261.608C261.608 71.9456 261.196 70.8394 260.371 69.9066C259.569 68.9522 258.365 68.475 256.76 68.475C255.458 68.475 254.341 68.9522 253.408 69.9066C252.476 70.8394 252.009 71.9456 252.009 73.2254Z" fill="white"/>
<path d="M276.524 94.2446V60.6009H289.051V65.2538C289.528 64.538 290.136 63.8113 290.873 63.0738C291.611 62.3363 292.565 61.7181 293.736 61.2191C294.908 60.7202 296.372 60.4708 298.129 60.4708C300.103 60.4708 301.979 60.8504 303.758 61.6096C305.558 62.3688 307.023 63.5835 308.151 65.2538C309.3 66.924 309.875 69.1257 309.875 71.8589V94.2446H297.185V73.5833C297.185 72.4771 296.773 71.6311 295.949 71.0454C295.125 70.4598 294.235 70.1669 293.281 70.1669C292.348 70.1669 291.426 70.4598 290.515 71.0454C289.626 71.6311 289.181 72.4771 289.181 73.5833V94.2446H276.524Z" fill="white"/>
<path d="M329.425 59.9502C332.592 59.9502 335.26 60.6226 337.429 61.9675C339.62 63.3124 341.279 65.0802 342.407 67.2711C343.557 69.4619 344.153 71.8155 344.197 74.3317H333.948C333.861 73.7026 333.676 72.9977 333.394 72.2168C333.112 71.4359 332.668 70.7634 332.06 70.1995C331.453 69.6138 330.607 69.321 329.522 69.321C327.896 69.321 326.583 70.0042 325.585 71.3708C324.609 72.7157 324.121 74.7438 324.121 77.4553C324.121 80.2101 324.653 82.3576 325.716 83.8977C326.778 85.4161 328.134 86.1753 329.783 86.1753C330.846 86.1753 331.67 85.8608 332.256 85.2317C332.863 84.581 333.297 83.8651 333.557 83.0842C333.839 82.3034 334.013 81.6851 334.078 81.2296H344.034C344.034 83.6157 343.448 85.8499 342.277 87.9323C341.127 90.0147 339.468 91.6958 337.299 92.9756C335.13 94.2554 332.505 94.8953 329.425 94.8953C326.214 94.8953 323.33 94.1686 320.77 92.7153C318.21 91.262 316.182 89.2338 314.685 86.6308C313.21 84.0278 312.473 81.0127 312.473 77.5854C312.473 74.1148 313.21 71.0563 314.685 68.4099C316.16 65.7635 318.178 63.692 320.737 62.1953C323.297 60.6986 326.193 59.9502 329.425 59.9502Z" fill="white"/>
<path d="M358.255 80.3186C358.234 82.3359 358.7 83.8001 359.655 84.7111C360.609 85.6005 361.77 86.0451 363.136 86.0451C364.286 86.0451 365.316 85.8282 366.227 85.3944C367.16 84.9606 367.887 84.0929 368.407 82.7914H379.6C379.253 85.2859 378.266 87.4443 376.639 89.2663C375.012 91.0667 373.027 92.455 370.685 93.4311C368.364 94.4072 365.956 94.8953 363.461 94.8953C359.969 94.8953 356.889 94.1903 354.221 92.7804C351.574 91.3487 349.514 89.3531 348.039 86.7935C346.564 84.2339 345.826 81.2513 345.826 77.8457C345.826 74.6354 346.499 71.6745 347.844 68.963C349.21 66.2516 351.162 64.0716 353.7 62.423C356.26 60.7745 359.34 59.9502 362.941 59.9502C366.607 59.9502 369.665 60.7094 372.116 62.2278C374.568 63.7462 376.4 65.8286 377.615 68.475C378.852 71.0997 379.47 74.0714 379.47 77.3902V80.3186H358.255ZM358.19 73.2254H367.789C367.789 71.9456 367.377 70.8394 366.552 69.9066C365.75 68.9522 364.546 68.475 362.941 68.475C361.639 68.475 360.522 68.9522 359.59 69.9066C358.657 70.8394 358.19 71.9456 358.19 73.2254Z" fill="white"/>
</g>
<g style="mix-blend-mode:multiply">
<path d="M27.6567 94.3746H40.3138V131.012H59.1203V141.424H27.6567V94.3746Z" fill="white"/>
<path d="M73.1521 127.498C73.1304 129.515 73.5968 130.979 74.5512 131.89C75.5056 132.779 76.6661 133.224 78.0327 133.224C79.1823 133.224 80.2127 133.007 81.1237 132.573C82.0565 132.14 82.7831 131.272 83.3037 129.97H94.4966C94.1495 132.465 93.1625 134.623 91.5357 136.445C89.9088 138.246 87.924 139.634 85.5813 140.61C83.2603 141.586 80.8526 142.074 78.358 142.074C74.8657 142.074 71.7855 141.369 69.1174 139.959C66.4711 138.528 64.4104 136.532 62.9354 133.973C61.4603 131.413 60.7228 128.43 60.7228 125.025C60.7228 121.814 61.3952 118.854 62.7401 116.142C64.1067 113.431 66.0589 111.251 68.5968 109.602C71.1565 107.954 74.2367 107.129 77.8375 107.129C81.5033 107.129 84.5618 107.888 87.013 109.407C89.4641 110.925 91.2971 113.008 92.5118 115.654C93.7482 118.279 94.3664 121.25 94.3664 124.569V127.498H73.1521ZM73.087 120.404H82.6855C82.6855 119.125 82.2734 118.018 81.4491 117.086C80.6465 116.131 79.4426 115.654 77.8375 115.654C76.536 115.654 75.4188 116.131 74.4861 117.086C73.5534 118.018 73.087 119.125 73.087 120.404Z" fill="white"/>
<path d="M107.754 142.074C105.649 142.074 103.708 141.662 101.929 140.838C100.172 140.014 98.7624 138.81 97.6995 137.226C96.6583 135.621 96.1377 133.658 96.1377 131.337C96.1377 127.693 97.5802 124.862 100.465 122.845C103.372 120.827 107.884 119.819 114.001 119.819H116.604V118.387C116.604 116.283 115.367 115.264 112.894 115.329C112.027 115.35 111.072 115.556 110.031 115.947C108.99 116.337 108.209 117.107 107.688 118.257H97.4392C97.5693 115.611 98.3611 113.474 99.8144 111.847C101.268 110.199 103.187 109.006 105.574 108.268C107.96 107.509 110.595 107.129 113.48 107.129C117.385 107.129 120.443 107.574 122.656 108.463C124.868 109.353 126.43 110.589 127.341 112.173C128.252 113.734 128.708 115.546 128.708 117.606V141.424H118.231L117.124 136.087C116.126 138.365 114.89 139.938 113.415 140.805C111.94 141.651 110.053 142.074 107.754 142.074ZM112.211 134.07C113.426 134.07 114.456 133.669 115.302 132.866C116.148 132.042 116.582 131.098 116.604 130.036V125.806H114.586C113.914 125.806 113.057 125.936 112.016 126.196C110.975 126.435 110.042 126.858 109.218 127.465C108.415 128.072 108.014 128.929 108.014 130.036C108.014 131.294 108.437 132.281 109.283 132.996C110.15 133.712 111.127 134.07 112.211 134.07Z" fill="white"/>
<path d="M146.345 142.074C141.703 142.074 138.135 140.469 135.64 137.259C133.146 134.027 131.898 129.732 131.898 124.374C131.898 119.06 133.048 114.862 135.347 111.782C137.647 108.68 140.857 107.129 144.978 107.129C146.649 107.129 148.351 107.444 150.087 108.073C151.844 108.702 153.243 109.884 154.284 111.619V93.0731H166.974V141.424H158.026L156.529 134.526C155.77 136.868 154.566 138.712 152.917 140.057C151.269 141.402 149.078 142.074 146.345 142.074ZM149.338 133.224C150.813 133.224 152.006 132.584 152.917 131.304C153.828 130.003 154.284 127.693 154.284 124.374C154.284 121.381 153.828 119.244 152.917 117.964C152.006 116.684 150.813 116.044 149.338 116.044C147.907 116.044 146.681 116.652 145.662 117.867C144.642 119.081 144.132 121.25 144.132 124.374C144.132 127.693 144.642 130.003 145.662 131.304C146.681 132.584 147.907 133.224 149.338 133.224Z" fill="white"/>
<path d="M182.511 127.498C182.489 129.515 182.955 130.979 183.91 131.89C184.864 132.779 186.025 133.224 187.391 133.224C188.541 133.224 189.571 133.007 190.482 132.573C191.415 132.14 192.142 131.272 192.662 129.97H203.855C203.508 132.465 202.521 134.623 200.894 136.445C199.267 138.246 197.283 139.634 194.94 140.61C192.619 141.586 190.211 142.074 187.717 142.074C184.224 142.074 181.144 141.369 178.476 139.959C175.83 138.528 173.769 136.532 172.294 133.973C170.819 131.413 170.081 128.43 170.081 125.025C170.081 121.814 170.754 118.854 172.099 116.142C173.465 113.431 175.417 111.251 177.955 109.602C180.515 107.954 183.595 107.129 187.196 107.129C190.862 107.129 193.92 107.888 196.372 109.407C198.823 110.925 200.656 113.008 201.87 115.654C203.107 118.279 203.725 121.25 203.725 124.569V127.498H182.511ZM182.446 120.404H192.044C192.044 119.125 191.632 118.018 190.808 117.086C190.005 116.131 188.801 115.654 187.196 115.654C185.894 115.654 184.777 116.131 183.845 117.086C182.912 118.018 182.446 119.125 182.446 120.404Z" fill="white"/>
<path d="M206.96 141.424V107.78H219.194V117.086C219.715 115.285 220.453 113.637 221.407 112.14C222.383 110.622 223.62 109.407 225.116 108.496C226.613 107.585 228.402 107.129 230.485 107.129H230.973V119.103C230.951 119.103 230.81 119.081 230.55 119.038C227.405 118.713 225.051 118.843 223.489 119.428C221.928 119.992 220.886 120.817 220.366 121.901C219.867 122.986 219.617 124.114 219.617 125.285V141.424H206.96Z" fill="white"/>
<path d="M247.1 142.074C244.758 142.074 242.437 141.673 240.137 140.87C237.838 140.068 235.853 138.788 234.183 137.031C232.513 135.274 231.439 132.964 230.962 130.101H241.699C241.981 131.185 242.48 131.988 243.196 132.508C243.912 133.029 244.638 133.365 245.376 133.517C246.113 133.669 246.666 133.745 247.035 133.745C248.445 133.745 249.584 133.582 250.452 133.257C251.319 132.91 251.753 132.4 251.753 131.727C251.753 131.098 251.46 130.61 250.875 130.263C250.289 129.895 249.237 129.602 247.719 129.385L242.74 128.604C239.53 128.018 236.938 126.912 234.964 125.285C232.99 123.658 231.981 121.337 231.938 118.322C231.916 116.24 232.491 114.353 233.662 112.661C234.855 110.969 236.591 109.624 238.868 108.626C241.168 107.628 243.955 107.129 247.23 107.129C251.829 107.129 255.473 108.127 258.163 110.123C260.853 112.118 262.198 114.83 262.198 118.257H251.883C251.645 117.237 251.07 116.489 250.159 116.012C249.248 115.513 248.217 115.264 247.068 115.264C245.896 115.264 244.899 115.437 244.074 115.784C243.272 116.131 242.87 116.63 242.87 117.281C242.87 117.867 243.261 118.344 244.042 118.713C244.823 119.06 246.113 119.385 247.914 119.689L252.241 120.47C254.41 120.99 256.157 121.695 257.48 122.584C258.825 123.474 259.844 124.439 260.538 125.48C261.254 126.5 261.742 127.508 262.002 128.506C262.263 129.482 262.393 130.318 262.393 131.012C262.393 133.419 261.71 135.448 260.343 137.096C258.998 138.723 257.165 139.959 254.844 140.805C252.545 141.651 249.964 142.074 247.1 142.074Z" fill="white"/>
<path d="M265.462 141.424V93.0731H278.119V112.563C278.639 111.912 279.247 111.218 279.941 110.481C280.656 109.743 281.568 109.114 282.674 108.593C283.802 108.051 285.244 107.78 287.001 107.78C289.105 107.78 291.047 108.214 292.825 109.081C294.604 109.927 296.036 111.186 297.12 112.856C298.205 114.526 298.747 116.587 298.747 119.038V141.424H286.058V120.665C286.058 119.558 285.635 118.734 284.789 118.192C283.943 117.628 283.043 117.346 282.088 117.346C281.155 117.346 280.255 117.65 279.387 118.257C278.542 118.864 278.119 119.721 278.119 120.827V141.424H265.462Z" fill="white"/>
<path d="M311.238 96.9125C311.281 95.1338 311.932 93.7238 313.19 92.6826C314.448 91.6414 316.01 91.1208 317.876 91.1208C319.394 91.1208 320.565 91.4896 321.39 92.2271C322.257 92.9213 322.691 93.8974 322.691 95.1555C322.691 96.8908 322.04 98.3225 320.739 99.4504C319.437 100.578 317.832 101.142 315.923 101.142C314.362 101.142 313.169 100.774 312.344 100.036C311.52 99.2552 311.151 98.214 311.238 96.9125ZM308.765 113.311C309.069 112.314 309.221 111.663 309.221 111.359C309.221 110.491 308.83 110.058 308.049 110.058C307.268 110.058 306.553 110.47 305.902 111.294C305.251 112.075 304.579 113.376 303.885 115.198L302.583 118.517H301.347L303.169 113.572C304.774 109.103 307.789 106.869 312.214 106.869C314.21 106.869 315.663 107.368 316.574 108.366C317.485 109.32 317.941 110.578 317.941 112.14C317.941 113.398 317.702 114.678 317.225 115.979L310.392 135.892C310.132 136.673 310.002 137.302 310.002 137.779C310.002 138.69 310.435 139.146 311.303 139.146C311.954 139.146 312.605 138.777 313.255 138.04C313.949 137.302 314.665 135.957 315.403 134.005L316.574 130.881H317.811L316.119 135.632C314.6 140.1 311.672 142.335 307.333 142.335C303.386 142.335 301.412 140.534 301.412 136.933C301.412 135.502 301.737 133.853 302.388 131.988L308.765 113.311Z" fill="white"/>
<path d="M321.993 151.901V107.78H334.715V111.684C335.995 109.949 337.567 108.756 339.433 108.105C341.298 107.455 343.023 107.129 344.606 107.129C346.949 107.129 349.053 107.747 350.918 108.984C352.784 110.22 354.259 112.129 355.343 114.71C356.428 117.27 356.97 120.535 356.97 124.504C356.97 128.777 356.319 132.205 355.018 134.786C353.738 137.346 352.046 139.2 349.942 140.35C347.86 141.5 345.626 142.074 343.239 142.074C341.851 142.074 340.344 141.716 338.717 141.001C337.112 140.263 335.756 139.038 334.65 137.324V151.901H321.993ZM339.921 133.029C341.331 133.029 342.567 132.367 343.63 131.044C344.715 129.699 345.257 127.519 345.257 124.504C345.257 121.771 344.715 119.678 343.63 118.224C342.567 116.771 341.331 116.044 339.921 116.044C338.077 116.044 336.732 116.89 335.886 118.582C335.062 120.253 334.65 122.227 334.65 124.504C334.65 125.871 334.834 127.216 335.203 128.539C335.572 129.84 336.135 130.914 336.895 131.76C337.676 132.606 338.684 133.029 339.921 133.029Z" fill="white"/>
</g>
</svg>
