<svg xmlns="http://www.w3.org/2000/svg" viewBox="0 0 18.6 18.6"><defs><style>.cls-1{fill:#fff;}</style></defs><title>Asset 1</title><g id="Layer_2" data-name="Layer 2"><g id="Layer_1-2" data-name="Layer 1"><g id="Desktop-HD"><g id="Social"><g id="in"><g id="linkedin-logo"><path id="LinkedIn" class="cls-1" d="M18.6,11.4v7.2h-4V11.9c0-1.7-.6-2.8-2-2.8a2.09,2.09,0,0,0-2,1.5,3.08,3.08,0,0,0-.1,1v7h-4s.1-11.4,0-12.5h4V7.9h0A3.64,3.64,0,0,1,14,5.7C16.6,5.7,18.6,7.5,18.6,11.4ZM2.3,0A2.13,2.13,0,0,0,0,2.2,2.16,2.16,0,0,0,2.2,4.4h0A2.18,2.18,0,0,0,4.5,2.2,2.1,2.1,0,0,0,2.3,0ZM.2,18.6h4V6H.2Z"/></g></g></g></g></g></g></svg>