<?xml version="1.0" encoding="utf-8"?>
<!-- Generator: Adobe Illustrator 22.1.0, SVG Export Plug-In . SVG Version: 6.00 Build 0)  -->
<svg version="1.1" id="Layer_1" xmlns="http://www.w3.org/2000/svg" xmlns:xlink="http://www.w3.org/1999/xlink" x="0px" y="0px"
	 viewBox="0 0 42 42" style="enable-background:new 0 0 42 42;" xml:space="preserve">
<title>in</title>
<desc>Created with Sketch.</desc>
<g id="Desktop-HD" transform="translate(-1011.000000, -388.000000)">
	<g id="Social" transform="translate(1012.000000, 389.000000)">
		<g id="in">
			<g id="linkedin-logo" transform="translate(10.714286, 10.714286)">
				<path id="LinkedIn" d="M18.6,11.4v7.2h-4v-6.7c0-1.7-0.6-2.8-2-2.8c-1.1,0-1.8,0.8-2,1.5c-0.1,0.3-0.1,0.6-0.1,1v7h-4
					c0,0,0.1-11.4,0-12.5h4v1.8c0,0,0,0,0,0h0v0C10.9,7,11.9,5.7,14,5.7C16.6,5.7,18.6,7.5,18.6,11.4z M2.3,0C0.9,0,0,0.9,0,2.2
					c0,1.2,0.9,2.2,2.2,2.2h0c1.4,0,2.3-1,2.3-2.2C4.5,0.9,3.6,0,2.3,0z M0.2,18.6h4V6h-4V18.6z"/>
			</g>
		</g>
	</g>
</g>
</svg>
