<svg xmlns="http://www.w3.org/2000/svg" viewBox="0 0 18.7 18.7"><defs><style>.cls-1{fill:#fff;}</style></defs><title>Asset 1</title><g id="Layer_2" data-name="Layer 2"><g id="Layer_1-2" data-name="Layer 1"><path class="cls-1" d="M16.7,0H1.9A1.9,1.9,0,0,0,0,1.9V16.8a1.9,1.9,0,0,0,1.9,1.9H16.8a1.9,1.9,0,0,0,1.9-1.9V1.9A2,2,0,0,0,16.7,0ZM9.3,5.6A3.76,3.76,0,0,1,13,9.3,3.76,3.76,0,0,1,9.3,13,3.76,3.76,0,0,1,5.6,9.3,3.76,3.76,0,0,1,9.3,5.6Zm-7,11.1a.47.47,0,0,1-.5-.5V8.3H3.7a3.08,3.08,0,0,0-.1.9,5.6,5.6,0,0,0,11.2,0,2.48,2.48,0,0,0-.1-.9h2v8a.47.47,0,0,1-.5.5H2.3ZM16.7,4.2a.47.47,0,0,1-.5.5H14.3a.47.47,0,0,1-.5-.5V2.3a.47.47,0,0,1,.5-.5h2a.47.47,0,0,1,.5.5V4.2Z"/></g></g></svg>