<?xml version="1.0" encoding="utf-8"?>
<!-- Generator: Adobe Illustrator 22.1.0, SVG Export Plug-In . SVG Version: 6.00 Build 0)  -->
<svg version="1.1" id="Layer_1" xmlns="http://www.w3.org/2000/svg" xmlns:xlink="http://www.w3.org/1999/xlink" x="0px" y="0px"
	 viewBox="0 0 42 42" style="enable-background:new 0 0 42 42;" xml:space="preserve">
<g>
	<path d="M28.4,11.7H13.6c-1,0-1.9,0.8-1.9,1.9v14.9c0,1,0.8,1.9,1.9,1.9h14.9c1,0,1.9-0.8,1.9-1.9V13.6
		C30.3,12.5,29.5,11.7,28.4,11.7z M21,17.3c2,0,3.7,1.7,3.7,3.7S23,24.7,21,24.7S17.3,23,17.3,21S19,17.3,21,17.3z M14,28.4
		c-0.3,0-0.5-0.2-0.5-0.5v-7.9h1.9c-0.1,0.3-0.1,0.7-0.1,0.9c0,3.1,2.5,5.6,5.6,5.6s5.6-2.5,5.6-5.6c0-0.3,0-0.7-0.1-0.9h2V28
		c0,0.3-0.2,0.5-0.5,0.5H14z M28.4,15.9c0,0.3-0.2,0.5-0.5,0.5h-1.9c-0.3,0-0.5-0.2-0.5-0.5V14c0-0.3,0.2-0.5,0.5-0.5H28
		c0.3,0,0.5,0.2,0.5,0.5V15.9z"/>
</g>
</svg>
