<svg xmlns="http://www.w3.org/2000/svg" viewBox="0 0 23.7 17.01"><defs><style>.cls-1{fill:#fff;}</style></defs><title>Asset 1</title><g id="Layer_2" data-name="Layer 2"><g id="Layer_1-2" data-name="Layer 1"><g id="Desktop-HD"><g id="Social"><g id="twit"><g id="twitter-logo"><path id="Twitter_alt_" data-name="Twitter (alt)" class="cls-1" d="M21,7.6A2.89,2.89,0,0,0,23.6,6a4.31,4.31,0,0,1-2.8.3c0-.2-.1-.4-.1-.6-.6-2.4-2.8-4.3-5-4.1.2-.1.4-.1.6-.2S18,1.1,17.8.5s-2,.4-2.3.5c.4-.2,1.2-.5,1.3-1a3.48,3.48,0,0,0-2,1,2.51,2.51,0,0,0,.4-.7c-1.8,1.2-2.9,3.6-3.7,6A8,8,0,0,0,9.6,4.7,54.55,54.55,0,0,0,3.5,1.9,3.46,3.46,0,0,0,5.6,5a10.4,10.4,0,0,0-1.5.2c.2,1.1.9,2,2.7,2.5a2.06,2.06,0,0,0-1.7.6,2.77,2.77,0,0,0,3,1.5c-1.8.8-.7,2.3.7,2.1a6.11,6.11,0,0,1-8.8.2c6,8.5,19,5,20.9-3.2a3.49,3.49,0,0,0,2.8-1.1A4.15,4.15,0,0,1,21,7.6Z"/></g></g></g></g></g></g></svg>