<?xml version="1.0" encoding="utf-8"?>
<!-- Generator: Adobe Illustrator 22.1.0, SVG Export Plug-In . SVG Version: 6.00 Build 0)  -->
<svg version="1.1" id="Layer_1" xmlns="http://www.w3.org/2000/svg" xmlns:xlink="http://www.w3.org/1999/xlink" x="0px" y="0px"
	 viewBox="0 0 42 42" style="enable-background:new 0 0 42 42;" xml:space="preserve">
<title>twit</title>
<desc>Created with Sketch.</desc>
<g id="Desktop-HD" transform="translate(-1072.000000, -388.000000)">
	<g id="Social" transform="translate(1012.000000, 389.000000)">
		<g id="twit" transform="translate(61.000000, 0.000000)">
			<g id="twitter-logo" transform="translate(7.857143, 11.428571)">
				<path id="Twitter__x28_alt_x29_" d="M21,7.6c1.3-0.1,2.2-0.7,2.6-1.6c-0.5,0.3-2,0.6-2.8,0.3c0-0.2-0.1-0.4-0.1-0.6
					c-0.6-2.4-2.8-4.3-5-4.1c0.2-0.1,0.4-0.1,0.6-0.2c0.2-0.1,1.7-0.3,1.5-0.9c-0.2-0.5-2,0.4-2.3,0.5c0.4-0.2,1.2-0.5,1.3-1
					C16,0.1,15.3,0.5,14.8,1c0.2-0.2,0.3-0.5,0.4-0.7c-1.8,1.2-2.9,3.6-3.7,6C10.7,5.5,10.2,5,9.6,4.7C8.1,3.9,6.3,3,3.5,1.9
					C3.5,2.9,4,4.2,5.6,5c-0.3,0-1,0.1-1.5,0.2c0.2,1.1,0.9,2,2.7,2.5C5.9,7.7,5.5,7.9,5.1,8.3C5.5,9.1,6.4,10,8.1,9.8
					c-1.8,0.8-0.7,2.3,0.7,2.1c-2.5,2.7-6.5,2.5-8.8,0.2c6,8.5,19,5,20.9-3.2c1.4,0,2.3-0.5,2.8-1.1C22.9,8.1,21.7,7.9,21,7.6z"/>
			</g>
		</g>
	</g>
</g>
</svg>
