<svg xmlns="http://www.w3.org/2000/svg" viewBox="0 0 661.61 977.38"><defs><style>.cls-1{fill:#231f20;opacity:0.04;}.cls-2{fill:none;}</style></defs><title>a</title><g id="Layer_2" data-name="Layer 2"><path class="cls-1" d="M1022.11,65.15Q934.54,28.33,805.23,28.31q-195,0-356.81,85.11l85.11,173q153.38-67.33,264.69-67.34,146.82,0,146.84,143.1v41.15L781.38,408q-214.18,7.5-317.53,79.5t-103.35,217q0,145,77.63,223.06t214.18,78.1q110.36,0,178.64-31.33T964.7,860.72h6.55l49.57,128.13h1.29ZM945.06,630.64q0,85.11-53.32,136.08t-143.09,51q-124.41,0-124.4-108.5,0-75.75,54.25-112.7t167.42-40.69l99.14-2.8Z" transform="translate(-360.5 -28.31)"/></g><g id="Layer_1" data-name="Layer 1"><path class="cls-2" transform="translate(-360.5 -28.31)"/></g></svg>