<svg xmlns="http://www.w3.org/2000/svg" width="730" height="225" viewBox="147 399.5 730 225">
  <metadata><?xpacket begin="﻿" id="W5M0MpCehiHzreSzNTczkc9d"?>
<x:xmpmeta xmlns:x="adobe:ns:meta/" x:xmptk="Adobe XMP Core 5.6-c140 79.160451, 2017/05/06-01:08:21        ">
   <rdf:RDF xmlns:rdf="http://www.w3.org/1999/02/22-rdf-syntax-ns#">
      <rdf:Description rdf:about=""/>
   </rdf:RDF>
</x:xmpmeta>
                                                                                                    
                                                                                                    
                                                                                                    
                                                                                                    
                                                                                                    
                                                                                                    
                                                                                                    
                                                                                                    
                                                                                                    
                                                                                                    
                                                                                                    
                                                                                                    
                                                                                                    
                                                                                                    
                                                                                                    
                                                                                                    
                                                                                                    
                                                                                                    
                                                                                                    
                                                                                                    
                           
<?xpacket end="w"?></metadata>
<defs>
    <style>
      .cls-1 {
        fill: #fff600;
        fill-rule: evenodd;
      }
    </style>
  </defs>
  <path id="achieve" class="cls-1" d="M165.427,534.55q-11.3,5.3-11.3,19.5,0,24.2,29.6,24.2,10,0,15.2-3.6t7.8-11.2q3.6,14.8,27.6,14.8,13.2,0,19-6.6t6.6-24.2l-3-.2q-1.2,20.6-8,20.6-5.8,0-5.8-10.4v-40.6q0-21.6-9.1-29.7t-32.9-8.1q-41.8,0-41.8,24.6,0,16.6,17.2,16.6a18.63,18.63,0,0,0,12.6-4.3,13.064,13.064,0,0,0,5-10.2,28.438,28.438,0,0,0-1.6-10.1h-5a20.041,20.041,0,0,1-1.2-6.7,5.916,5.916,0,0,1,2.9-5.2,11.6,11.6,0,0,1,6.5-1.9q6,0,8.1,6.5t2.1,25.5v15.4h-5.8Q176.727,529.25,165.427,534.55Zm26.7,19.3v-3.2q0-18.2,12.4-18.2h1.4v18.6q0,9-2.7,14.1t-5.8,5.1a4.143,4.143,0,0,1-4.2-3q-1.1-3-1.1-13.4h0Zm135.4-61.6a22.091,22.091,0,0,1-1.4,7.2h-6.6a26.742,26.742,0,0,0-1,7.2q0,8.2,4.8,12.4t12.7,4.2q7.9,0,12.4-4.8t4.5-15.2q0-10.4-9.4-17.3t-27.2-6.9q-25.2,0-39.3,13t-14.1,37.1q0,24.1,12.4,36.6t35.6,12.5q18.2,0,28.6-7.8,10.2-7.6,14-24.8l-3.6-.4a38.453,38.453,0,0,1-9,18.2q-7,8-18.8,8t-16.2-8.6q-4.4-8.6-4.4-28.4v-10.4q0-22.2,3.8-31.8t12.6-9.6q9.6,0,9.6,9.6h0Zm29-62.4h11v142.8h-11v3.6h56.8v-3.6h-8.6v-55.2q0-12,4.9-20.4t11.3-8.4a5.831,5.831,0,0,1,5.8,3.5q1.6,3.5,1.6,15.5v65h-8.2v3.6h56.6v-3.6h-11.2v-60.2q0-33.4-31-33.4-13.4,0-20,5.6a33.237,33.237,0,0,0-9.8,14.8v-73.2h-48.2v3.6Zm168.2,32.2q5-5.2,5-13.9t-5.2-13.4q-5.2-4.7-15.2-4.7t-14.9,5.2a18.478,18.478,0,0,0-4.9,13.2,20.225,20.225,0,0,0,4.5,13.4q4.5,5.4,15.1,5.4T524.724,462.05Zm-45.8,22.6h11.8v88h-11v3.6h59.4v-3.6h-11.2v-91.6h-49v3.6Zm116.8,93.6q19.8,0,29.7-8t13.7-22.4l-3.6-.6q-7.2,24.8-30.4,24.8-12.4,0-17.4-10t-5-29.6v-7.8h56.4q1.8-45.6-43.6-45.6-22.4,0-36.9,12.6t-14.5,36.3q0,23.7,12.9,37t38.7,13.3h0Zm-12.8-67.4q0-15.4,2.7-21.7t8.4-6.3q5.7,0,7.6,5.9t1.9,22.1v9.8h-20.6v-9.8Zm64.6-26.2,37,91.6h22.8l29.6-91.6h8.8v-3.6h-27v3.6h13.4l-21.6,66.4-24-66.4h12.6v-3.6h-59.8v3.6h8.2Zm147.8,93.6q19.8,0,29.7-8t13.7-22.4l-3.6-.6q-7.2,24.8-30.4,24.8-12.4,0-17.4-10t-5-29.6v-7.8h56.4q1.8-45.6-43.6-45.6-22.4,0-36.9,12.6t-14.5,36.3q0,23.7,12.9,37t38.7,13.3h0Zm-12.8-67.4q0-15.4,2.7-21.7t8.4-6.3q5.7,0,7.6,5.9t1.9,22.1v9.8h-20.6v-9.8Z"/>
</svg>
