<svg xmlns="http://www.w3.org/2000/svg" width="600" height="225" viewBox="212 399.5 600 225">
  <metadata><?xpacket begin="﻿" id="W5M0MpCehiHzreSzNTczkc9d"?>
<x:xmpmeta xmlns:x="adobe:ns:meta/" x:xmptk="Adobe XMP Core 5.6-c140 79.160451, 2017/05/06-01:08:21        ">
   <rdf:RDF xmlns:rdf="http://www.w3.org/1999/02/22-rdf-syntax-ns#">
      <rdf:Description rdf:about=""/>
   </rdf:RDF>
</x:xmpmeta>
                                                                                                    
                                                                                                    
                                                                                                    
                                                                                                    
                                                                                                    
                                                                                                    
                                                                                                    
                                                                                                    
                                                                                                    
                                                                                                    
                                                                                                    
                                                                                                    
                                                                                                    
                                                                                                    
                                                                                                    
                                                                                                    
                                                                                                    
                                                                                                    
                                                                                                    
                                                                                                    
                           
<?xpacket end="w"?></metadata>
<defs>
    <style>
      .cls-1 {
        fill: #fff600;
        fill-rule: evenodd;
      }
    </style>
  </defs>
  <path id="adapt" class="cls-1" d="M246.525,534.55q-11.3,5.3-11.3,19.5,0,24.2,29.6,24.2,10,0,15.2-3.6t7.8-11.2q3.6,14.8,27.6,14.8,13.2,0,19-6.6t6.6-24.2l-3-.2q-1.2,20.6-8,20.6-5.8,0-5.8-10.4v-40.6q0-21.6-9.1-29.7t-32.9-8.1q-41.8,0-41.8,24.6,0,16.6,17.2,16.6a18.633,18.633,0,0,0,12.6-4.3,13.064,13.064,0,0,0,5-10.2,28.46,28.46,0,0,0-1.6-10.1h-5a20.041,20.041,0,0,1-1.2-6.7,5.914,5.914,0,0,1,2.9-5.2,11.6,11.6,0,0,1,6.5-1.9q6,0,8.1,6.5t2.1,25.5v15.4h-5.8Q257.825,529.25,246.525,534.55Zm26.7,19.3v-3.2q0-18.2,12.4-18.2h1.4v18.6q0,9-2.7,14.1t-5.8,5.1a4.143,4.143,0,0,1-4.2-3q-1.1-3-1.1-13.4h0Zm110.4-19v-10.4q0-22,2.4-30.8t9-8.8a10.862,10.862,0,0,1,10,6,29.217,29.217,0,0,1,3.4,14.6v43.6q0,10.2-4.3,15.4t-10.2,5.2q-5.9,0-8.1-6.9t-2.2-27.9h0Zm71.8,41.4v-3.6h-9.8V426.25h-50v3.6h12.2v59q-5.6-9.8-23.2-9.8-39.6,0-39.6,49.8,0,24.6,9.5,37t26.7,12.4q20.8,0,27.6-16l2.2,14h44.4Zm18.5-41.7q-11.3,5.3-11.3,19.5,0,24.2,29.6,24.2,10,0,15.2-3.6t7.8-11.2q3.6,14.8,27.6,14.8,13.2,0,19-6.6t6.6-24.2l-3-.2q-1.2,20.6-8,20.6-5.8,0-5.8-10.4v-40.6q0-21.6-9.1-29.7t-32.9-8.1q-41.8,0-41.8,24.6,0,16.6,17.2,16.6a18.63,18.63,0,0,0,12.6-4.3,13.061,13.061,0,0,0,5-10.2,28.438,28.438,0,0,0-1.6-10.1h-5a20.041,20.041,0,0,1-1.2-6.7,5.916,5.916,0,0,1,2.9-5.2,11.6,11.6,0,0,1,6.5-1.9q6,0,8.1,6.5t2.1,25.5v15.4h-5.8Q485.223,529.25,473.923,534.55Zm26.7,19.3v-3.2q0-18.2,12.4-18.2h1.4v18.6q0,9-2.7,14.1t-5.8,5.1a4.144,4.144,0,0,1-4.2-3q-1.1-3-1.1-13.4h0Zm140.8-31.4v10.4q0,22-2.4,30.8t-9,8.8a10.858,10.858,0,0,1-10-6,29.167,29.167,0,0,1-3.4-14.6v-36.6q0-12.6,4.6-20.1t10.4-7.5q5.8,0,7.8,7.1t2,27.7h0Zm-72.6-41.4v3.6h10.6v135.6h-11v3.6h74v-3.6h-25.8v-51.8a18.873,18.873,0,0,0,7.8,7.4q4.8,2.4,14.4,2.4,20.6,0,30.9-12t10.3-37.2q0-25.2-9.5-37.6t-26.7-12.4q-19.8,0-27.6,17.8v-15.8h-47.4Zm136,90.6q8.8,6.6,25.4,6.6t23.8-8.1q7.2-8.1,8.8-21.9l-3.4-.4q-1.4,10.4-5.9,16.4t-10.5,6q-6,0-7.9-4.4t-1.9-13.8v-67.4h26v-3.6h-26v-35l-37.2,9.2v25.8h-11v3.6h11v63Q696.023,565.05,704.823,571.65Z"/>
</svg>
