<svg id="Layer_1" data-name="Layer 1" xmlns="http://www.w3.org/2000/svg" viewBox="0 0 228.74 818.32"><defs><style>.cls-1{fill:#231f20;}.cls-2{opacity:0.04;isolation:isolate;}</style></defs><title>bracket</title><g id="Layer_1-2" data-name="Layer 1"><path class="cls-1" d="M-479.28-17.64" transform="translate(-151.06 -77.52)"/></g><g class="cls-2"><path class="cls-1" d="M151.06,474.49Q212,472.75,212,372.64q0-35.68-9.4-97.07t-9.39-78.78q0-119.26,121.17-119.27,36.93,0,59.62,11.32l-3.24,13.93q-13.62-6.09-25.93-6.1-35,0-35,56.59,0,26.12,9.07,104T328,364.8q0,60.07-25,84.88t-85.21,29.17v1.73q57.66,6.1,83.91,31.78T328,599.85q0,27-9.07,110.13t-9.07,111.86q0,53.1,38.23,53.11a64.57,64.57,0,0,0,28.51-7l3.24,13.93q-24,13.92-55.73,13.93-130.9,0-130.89-126.23,0-13.93,9.39-79.65T212,589.4q0-99.22-60.92-101Z" transform="translate(-151.06 -77.52)"/></g></svg>