<svg xmlns="http://www.w3.org/2000/svg" width="1024" height="1024" viewBox="0 0 1024 1024">
  <metadata><?xpacket begin="﻿" id="W5M0MpCehiHzreSzNTczkc9d"?>
<x:xmpmeta xmlns:x="adobe:ns:meta/" x:xmptk="Adobe XMP Core 5.6-c140 79.160451, 2017/05/06-01:08:21        ">
   <rdf:RDF xmlns:rdf="http://www.w3.org/1999/02/22-rdf-syntax-ns#">
      <rdf:Description rdf:about=""/>
   </rdf:RDF>
</x:xmpmeta>
                                                                                                    
                                                                                                    
                                                                                                    
                                                                                                    
                                                                                                    
                                                                                                    
                                                                                                    
                                                                                                    
                                                                                                    
                                                                                                    
                                                                                                    
                                                                                                    
                                                                                                    
                                                                                                    
                                                                                                    
                                                                                                    
                                                                                                    
                                                                                                    
                                                                                                    
                                                                                                    
                           
<?xpacket end="w"?></metadata>
<defs>
    <style>
      .cls-1 {
        fill: #fff600;
        fill-rule: evenodd;
      }
    </style>
  </defs>
  <path id="c-full" class="cls-1" d="M592.43,297.25q0,20.813-9.11,46.8H540.43a173.8,173.8,0,0,0-6.5,46.8q0,53.321,31.187,80.609,31.2,27.3,82.547,27.3t80.609-31.2q29.25-31.2,29.25-98.8T696.414,256.312q-61.1-44.859-176.8-44.859-163.8,0-255.453,84.5-91.641,84.516-91.641,241.156,0,156.657,80.594,237.891,80.6,81.258,231.406,81.25,118.29,0,185.907-50.7,66.28-49.383,91-161.2l-23.407-2.594q-13.007,66.3-58.5,118.3-45.515,52.008-122.2,52-76.71,0-105.3-55.891T423.43,571.547V503.953q0-144.28,24.687-206.7,24.7-62.391,81.906-62.406,62.391,0,62.407,62.406h0Z"/>
</svg>
