<?xml version="1.0" encoding="utf-8"?>
<!-- Generator: Adobe Illustrator 22.1.0, SVG Export Plug-In . SVG Version: 6.00 Build 0)  -->
<svg version="1.1" xmlns="http://www.w3.org/2000/svg" xmlns:xlink="http://www.w3.org/1999/xlink" x="0px" y="0px"
	 viewBox="0 0 1024 1024" style="enable-background:new 0 0 1024 1024;" xml:space="preserve">
<style type="text/css">
	.st0{opacity:4.000000e-02;}
	.st1{fill:none;}
</style>
<g id="Layer_2">
	<path class="st0" d="M65.2,511.5c0-190.1,67.8-285.1,203.4-285.1c52.6,0,126.1,19,220.5,57l77-202.4
		c-89.3-43.1-188.5-64.6-297.5-64.6c-107,0-196.3,21.4-268.1,64.3v874.1c65.7,35.3,147.4,52.9,245.3,52.9
		c67.2,0,122.1-5.2,164.9-15.7c42.8-10.5,84.7-29,125.9-55.6V713c-84.3,55.8-173.6,83.6-268,83.6C133,796.7,65.2,701.6,65.2,511.5z"
		/>
</g>
<g id="Layer_1">
	<path class="st1" d=""/>
</g>
</svg>
