<svg xmlns="http://www.w3.org/2000/svg" width="550" height="200" viewBox="237 412 550 200">
  <metadata><?xpacket begin="﻿" id="W5M0MpCehiHzreSzNTczkc9d"?>
<x:xmpmeta xmlns:x="adobe:ns:meta/" x:xmptk="Adobe XMP Core 5.6-c140 79.160451, 2017/05/06-01:08:21        ">
   <rdf:RDF xmlns:rdf="http://www.w3.org/1999/02/22-rdf-syntax-ns#">
      <rdf:Description rdf:about=""/>
   </rdf:RDF>
</x:xmpmeta>
                                                                                                    
                                                                                                    
                                                                                                    
                                                                                                    
                                                                                                    
                                                                                                    
                                                                                                    
                                                                                                    
                                                                                                    
                                                                                                    
                                                                                                    
                                                                                                    
                                                                                                    
                                                                                                    
                                                                                                    
                                                                                                    
                                                                                                    
                                                                                                    
                                                                                                    
                                                                                                    
                           
<?xpacket end="w"?></metadata>
<defs>
    <style>
      .cls-1 {
        fill: #fff600;
        fill-rule: evenodd;
      }
    </style>
  </defs>
  <path id="climb" class="cls-1" d="M306.428,492.25a22.117,22.117,0,0,1-1.4,7.2h-6.6a26.7,26.7,0,0,0-1,7.2q0,8.2,4.8,12.4t12.7,4.2q7.9,0,12.4-4.8t4.5-15.2q0-10.4-9.4-17.3t-27.2-6.9q-25.2,0-39.3,13t-14.1,37.1q0,24.1,12.4,36.6t35.6,12.5q18.2,0,28.6-7.8,10.2-7.6,14-24.8l-3.6-.4a38.453,38.453,0,0,1-9,18.2q-7,8-18.8,8t-16.2-8.6q-4.4-8.6-4.4-28.4v-10.4q0-22.2,3.8-31.8t12.6-9.6q9.6,0,9.6,9.6h0Zm28.2-62.4h11.8v142.8h-11v3.6h59.4v-3.6h-11.2V426.25h-49v3.6Zm109,32.2q5-5.2,5-13.9t-5.2-13.4q-5.2-4.7-15.2-4.7t-14.9,5.2a18.483,18.483,0,0,0-4.9,13.2,20.225,20.225,0,0,0,4.5,13.4q4.5,5.4,15.1,5.4T443.625,462.05Zm-45.8,22.6h11.8v88h-11v3.6h59.4v-3.6h-11.2v-91.6h-49v3.6Zm64.2,0h11v88h-11v3.6h55.4v-3.6h-7.2v-55.2q0-11.8,4.5-20.3t10.1-8.5a4.329,4.329,0,0,1,3.2,1.2q2.6,2.6,2.6,17.8v65h-7v3.6h51.4v-3.6h-7.2v-56.4q0-12,4.4-19.8t10.2-7.8a4.329,4.329,0,0,1,3.2,1.2q2.6,2.6,2.6,17.8v65h-7v3.6h55.4v-3.6h-11.2v-60.2q0-33.4-29.4-33.4-22.4,0-29.4,21.6-4.8-21.6-27.3-21.6t-29.1,20.4v-18.4h-48.2v3.6Zm250.6,37.8v10.4q0,22-2.4,30.8t-8.9,8.8q-6.5,0-10-6a28.5,28.5,0,0,1-3.5-14.6v-37.2q0-12.6,4.6-19.8t10.4-7.2q5.8,0,7.8,7.1t2,27.7h0Zm-73-96.2v3.6h11v142.8h-11v3.6h45.6l1.4-11.8q2,7.4,7.5,10.6t15.9,3.2q20.6,0,30.9-12t10.3-37.4q0-49.8-37.4-49.8-18.4,0-26,17.2v-70h-48.2Z"/>
</svg>
