<svg xmlns="http://www.w3.org/2000/svg" width="800" height="230" viewBox="112 397 800 230">
  <metadata><?xpacket begin="﻿" id="W5M0MpCehiHzreSzNTczkc9d"?>
<x:xmpmeta xmlns:x="adobe:ns:meta/" x:xmptk="Adobe XMP Core 5.6-c140 79.160451, 2017/05/06-01:08:21        ">
   <rdf:RDF xmlns:rdf="http://www.w3.org/1999/02/22-rdf-syntax-ns#">
      <rdf:Description rdf:about=""/>
   </rdf:RDF>
</x:xmpmeta>
                                                                                                    
                                                                                                    
                                                                                                    
                                                                                                    
                                                                                                    
                                                                                                    
                                                                                                    
                                                                                                    
                                                                                                    
                                                                                                    
                                                                                                    
                                                                                                    
                                                                                                    
                                                                                                    
                                                                                                    
                                                                                                    
                                                                                                    
                                                                                                    
                                                                                                    
                                                                                                    
                           
<?xpacket end="w"?></metadata>
<defs>
    <style>
      .cls-1 {
        fill: #fff600;
        fill-rule: evenodd;
      }
    </style>
  </defs>
  <path id="conquer" class="cls-1" d="M180.027,492.25a22.091,22.091,0,0,1-1.4,7.2h-6.6a26.7,26.7,0,0,0-1,7.2q0,8.2,4.8,12.4t12.7,4.2q7.9,0,12.4-4.8t4.5-15.2q0-10.4-9.4-17.3t-27.2-6.9q-25.2,0-39.3,13t-14.1,37.1q0,24.1,12.4,36.6t35.6,12.5q18.2,0,28.6-7.8,10.2-7.6,14-24.8l-3.6-.4a38.453,38.453,0,0,1-9,18.2q-7,8-18.8,8t-16.2-8.6q-4.4-8.6-4.4-28.4v-10.4q0-22.2,3.8-31.8t12.6-9.6q9.6,0,9.6,9.6h0Zm93.8,73.4q-2.4,9-10.2,9-6.4,0-8.6-4.8a44.419,44.419,0,0,1-2.7-7.2q-1.3-4.4-1.3-26.2v-15.6q0-18.4,1.8-27.4,1.2-5.8,3.9-8.3a10.035,10.035,0,0,1,7.1-2.5q7.6,0,9.7,8.9t2.1,28.3v17q0,22.4-1.8,28.8h0Zm-10.6,12.6q50.8,0,50.8-51,0-24.4-12.2-36.3t-37-11.9q-24.8,0-38.5,12.9t-13.7,36.8q0,23.9,12.8,36.7t37.8,12.8h0Zm56.8-93.6h11v88h-11v3.6h56.8v-3.6h-8.6v-55.2q0-12,4.9-20.4t11.3-8.4a5.83,5.83,0,0,1,5.8,3.5q1.6,3.5,1.6,15.5v65h-8.2v3.6h56.6v-3.6h-11.2v-60.2q0-33.4-31-33.4-13.4,0-20,5.6a33.245,33.245,0,0,0-9.8,14.8v-18.4h-48.2v3.6Zm163.4,50.2v-10.4q0-21.8,2.3-30.7t9.3-8.9q6.2,0,9.7,6a28.55,28.55,0,0,1,3.5,14.6v37.2q0,12.6-4.6,19.8t-10.4,7.2q-5.8,0-7.8-7.1t-2-27.7h0Zm4.4,85.4v3.6h67.4v-3.6h-9.8V484.65h11v-3.6h-45.6l-1.4,10.6q-6.8-12.6-23.4-12.6-20.6,0-30.9,12t-10.3,37.4q0,49.8,37.4,49.8,18.4,0,26-17.2v59.2h-20.4Zm189.6-47.6h-11v-91.6h-46.4v3.6h9.2v61.2q0,11-4,17.2t-9.1,6.2q-5.1,0-6.8-3.8t-1.7-15.8v-68.6h-48.4v3.6h11.2v60.2q0,33.4,31,33.4,12.4,0,18.7-4.3a26.173,26.173,0,0,0,9.5-12.3l2.2,14.6h45.6v-3.6Zm56.6,5.6q19.8,0,29.7-8t13.7-22.4l-3.6-.6q-7.2,24.8-30.4,24.8-12.4,0-17.4-10t-5-29.6v-7.8h56.4q1.8-45.6-43.6-45.6-22.4,0-36.9,12.6t-14.5,36.3q0,23.7,12.9,37t38.7,13.3h0Zm-12.8-67.4q0-15.4,2.7-21.7t8.4-6.3q5.7,0,7.6,5.9t1.9,22.1v9.8h-20.6v-9.8Zm134.4-14h-7.2q-3.2,10.6,1.1,16.6t13.4,6q9.1,0,13.5-5.2t4.4-14.9q0-9.7-5.9-15t-15.3-5.3a27.437,27.437,0,0,0-16.8,5.5q-7.4,5.5-10,15.7v-19.2h-48.2v3.6h11v88h-11v3.6h62.4v-3.6h-14.2v-53.6q0-13.2,5.6-22.8t13-9.6q9.2,0,4.2,10.2h0Z"/>
</svg>
