<svg xmlns="http://www.w3.org/2000/svg" viewBox="0 0 615.91 929.09"><defs><style>.cls-1{opacity:0.04;}.cls-2{fill:#231f20;}.cls-3{fill:none;}</style></defs><title>d</title><g id="Layer_2" data-name="Layer 2"><g class="cls-1"><path class="cls-2" d="M843.81,879.58q-61.59,97-182.48,97T474.28,886.78Q408.1,795.7,408.09,634.53t67.82-251.28q67.82-90.09,189-90.09t186.73,97h5.91q-13.79-74-13.77-131.7v-211H1024v917.3H886.41l-34.74-85.17ZM590.25,638.45q0,194.61,129.73,194.6,68.79,0,101.22-40.28t35.07-136v-19q0-106.12-32.77-152.33T716.7,439.28q-60.27,0-93.37,51.44T590.25,638.45Z" transform="translate(-408.09 -47.45)"/></g></g><g id="Layer_1" data-name="Layer 1"><path class="cls-3" transform="translate(-408.09 -47.45)"/></g></svg>