<svg xmlns="http://www.w3.org/2000/svg" width="750" height="240" viewBox="137 392 750 240">
  <metadata><?xpacket begin="﻿" id="W5M0MpCehiHzreSzNTczkc9d"?>
<x:xmpmeta xmlns:x="adobe:ns:meta/" x:xmptk="Adobe XMP Core 5.6-c140 79.160451, 2017/05/06-01:08:21        ">
   <rdf:RDF xmlns:rdf="http://www.w3.org/1999/02/22-rdf-syntax-ns#">
      <rdf:Description rdf:about=""/>
   </rdf:RDF>
</x:xmpmeta>
                                                                                                    
                                                                                                    
                                                                                                    
                                                                                                    
                                                                                                    
                                                                                                    
                                                                                                    
                                                                                                    
                                                                                                    
                                                                                                    
                                                                                                    
                                                                                                    
                                                                                                    
                                                                                                    
                                                                                                    
                                                                                                    
                                                                                                    
                                                                                                    
                                                                                                    
                                                                                                    
                           
<?xpacket end="w"?></metadata>
<defs>
    <style>
      .cls-1 {
        fill: #fff600;
        fill-rule: evenodd;
      }
    </style>
  </defs>
  <path id="explore" class="cls-1" d="M198.726,578.25q19.8,0,29.7-8t13.7-22.4l-3.6-.6q-7.2,24.8-30.4,24.8-12.4,0-17.4-10t-5-29.6v-7.8h56.4q1.8-45.6-43.6-45.6-22.4,0-36.9,12.6t-14.5,36.3q0,23.7,12.9,37t38.7,13.3h0Zm-12.8-67.4q0-15.4,2.7-21.7t8.4-6.3q5.7,0,7.6,5.9t1.9,22.1v9.8h-20.6v-9.8Zm108-26.2h14v-3.6h-67.6v3.6h11.6l30.4,48-25.4,40h-13.2v3.6h31.4v-3.6h-13.2l22.8-36,22,36h-14.2v3.6h66.8v-3.6h-10.4l-32.6-51.2,26-36.8h10.4v-3.6h-29.8v3.6h14.4l-23.6,32.6Zm140.4,37.8v10.4q0,22-2.4,30.8t-9,8.8a10.858,10.858,0,0,1-10-6,29.167,29.167,0,0,1-3.4-14.6v-36.6q0-12.6,4.6-20.1t10.4-7.5q5.8,0,7.8,7.1t2,27.7h0Zm-72.6-41.4v3.6h10.6v135.6h-11v3.6h74v-3.6h-25.8v-51.8a18.873,18.873,0,0,0,7.8,7.4q4.8,2.4,14.4,2.4,20.6,0,30.9-12t10.3-37.2q0-25.2-9.5-37.6t-26.7-12.4q-19.8,0-27.6,17.8v-15.8h-47.4Zm116.4-51.2h11.8v142.8h-11v3.6h59.4v-3.6h-11.2V426.25h-49v3.6Zm126.8,135.8q-2.4,9-10.2,9-6.4,0-8.6-4.8a44.608,44.608,0,0,1-2.7-7.2q-1.3-4.4-1.3-26.2v-15.6q0-18.4,1.8-27.4,1.2-5.8,3.9-8.3a10.037,10.037,0,0,1,7.1-2.5q7.6,0,9.7,8.9t2.1,28.3v17q0,22.4-1.8,28.8h0Zm-10.6,12.6q50.8,0,50.8-51,0-24.4-12.2-36.3t-37-11.9q-24.8,0-38.5,12.9t-13.7,36.8q0,23.9,12.8,36.7t37.8,12.8h0Zm127.4-81.4h-7.2q-3.2,10.6,1.1,16.6t13.4,6q9.1,0,13.5-5.2t4.4-14.9q0-9.7-5.9-15t-15.3-5.3a27.437,27.437,0,0,0-16.8,5.5q-7.4,5.5-10,15.7v-19.2h-48.2v3.6h11v88h-11v3.6h62.4v-3.6h-14.2v-53.6q0-13.2,5.6-22.8t13-9.6q9.2,0,4.2,10.2h0Zm79.6,81.4q19.8,0,29.7-8t13.7-22.4l-3.6-.6q-7.2,24.8-30.4,24.8-12.4,0-17.4-10t-5-29.6v-7.8h56.4q1.8-45.6-43.6-45.6-22.4,0-36.9,12.6t-14.5,36.3q0,23.7,12.9,37t38.7,13.3h0Zm-12.8-67.4q0-15.4,2.7-21.7t8.4-6.3q5.7,0,7.6,5.9t1.9,22.1v9.8h-20.6v-9.8Z"/>
</svg>
