<svg xmlns="http://www.w3.org/2000/svg" width="600" height="200" viewBox="212 412 600 200">
  <metadata><?xpacket begin="﻿" id="W5M0MpCehiHzreSzNTczkc9d"?>
<x:xmpmeta xmlns:x="adobe:ns:meta/" x:xmptk="Adobe XMP Core 5.6-c140 79.160451, 2017/05/06-01:08:21        ">
   <rdf:RDF xmlns:rdf="http://www.w3.org/1999/02/22-rdf-syntax-ns#">
      <rdf:Description rdf:about=""/>
   </rdf:RDF>
</x:xmpmeta>
                                                                                                    
                                                                                                    
                                                                                                    
                                                                                                    
                                                                                                    
                                                                                                    
                                                                                                    
                                                                                                    
                                                                                                    
                                                                                                    
                                                                                                    
                                                                                                    
                                                                                                    
                                                                                                    
                                                                                                    
                                                                                                    
                                                                                                    
                                                                                                    
                                                                                                    
                                                                                                    
                           
<?xpacket end="w"?></metadata>
<defs>
    <style>
      .cls-1 {
        fill: #fff600;
        fill-rule: evenodd;
      }
    </style>
  </defs>
  <path id="learn" class="cls-1" d="M249.026,429.85h11.8v142.8h-11v3.6h59.4v-3.6h-11.2V426.25h-49v3.6Zm116.6,148.4q19.8,0,29.7-8t13.7-22.4l-3.6-.6q-7.2,24.8-30.4,24.8-12.4,0-17.4-10t-5-29.6v-7.8h56.4q1.8-45.6-43.6-45.6-22.4,0-36.9,12.6t-14.5,36.3q0,23.7,12.9,37t38.7,13.3h0Zm-12.8-67.4q0-15.4,2.7-21.7t8.4-6.3q5.7,0,7.6,5.9t1.9,22.1v9.8h-20.6v-9.8Zm76.7,23.7q-11.3,5.3-11.3,19.5,0,24.2,29.6,24.2,10,0,15.2-3.6t7.8-11.2q3.6,14.8,27.6,14.8,13.2,0,19-6.6t6.6-24.2l-3-.2q-1.2,20.6-8,20.6-5.8,0-5.8-10.4v-40.6q0-21.6-9.1-29.7t-32.9-8.1q-41.8,0-41.8,24.6,0,16.6,17.2,16.6a18.63,18.63,0,0,0,12.6-4.3,13.061,13.061,0,0,0,5-10.2,28.438,28.438,0,0,0-1.6-10.1h-5a20.041,20.041,0,0,1-1.2-6.7,5.916,5.916,0,0,1,2.9-5.2,11.6,11.6,0,0,1,6.5-1.9q6,0,8.1,6.5t2.1,25.5v15.4h-5.8Q440.823,529.25,429.523,534.55Zm26.7,19.3v-3.2q0-18.2,12.4-18.2h1.4v18.6q0,9-2.7,14.1t-5.8,5.1a4.144,4.144,0,0,1-4.2-3q-1.1-3-1.1-13.4h0Zm140.8-57h-7.2q-3.2,10.6,1.1,16.6t13.4,6q9.1,0,13.5-5.2t4.4-14.9q0-9.7-5.9-15t-15.3-5.3a27.441,27.441,0,0,0-16.8,5.5q-7.4,5.5-10,15.7v-19.2h-48.2v3.6h11v88h-11v3.6h62.4v-3.6h-14.2v-53.6q0-13.2,5.6-22.8t13-9.6q9.2,0,4.2,10.2h0Zm28.4-12.2h11v88h-11v3.6h56.8v-3.6h-8.6v-55.2q0-12,4.9-20.4t11.3-8.4a5.83,5.83,0,0,1,5.8,3.5q1.6,3.5,1.6,15.5v65h-8.2v3.6h56.6v-3.6h-11.2v-60.2q0-33.4-31-33.4-13.4,0-20,5.6a33.245,33.245,0,0,0-9.8,14.8v-18.4h-48.2v3.6Z"/>
</svg>
