<svg xmlns="http://www.w3.org/2000/svg" width="400" height="200" viewBox="312 412 400 200">
  <metadata><?xpacket begin="﻿" id="W5M0MpCehiHzreSzNTczkc9d"?>
<x:xmpmeta xmlns:x="adobe:ns:meta/" x:xmptk="Adobe XMP Core 5.6-c140 79.160451, 2017/05/06-01:08:21        ">
   <rdf:RDF xmlns:rdf="http://www.w3.org/1999/02/22-rdf-syntax-ns#">
      <rdf:Description rdf:about=""/>
   </rdf:RDF>
</x:xmpmeta>
                                                                                                    
                                                                                                    
                                                                                                    
                                                                                                    
                                                                                                    
                                                                                                    
                                                                                                    
                                                                                                    
                                                                                                    
                                                                                                    
                                                                                                    
                                                                                                    
                                                                                                    
                                                                                                    
                                                                                                    
                                                                                                    
                                                                                                    
                                                                                                    
                                                                                                    
                                                                                                    
                           
<?xpacket end="w"?></metadata>
<defs>
    <style>
      .cls-1 {
        fill: #fff600;
        fill-rule: evenodd;
      }
    </style>
  </defs>
  <path id="live" class="cls-1" d="M335.626,429.85h11.8v142.8h-11v3.6h59.4v-3.6h-11.2V426.25h-49v3.6Zm109,32.2q5-5.2,5-13.9t-5.2-13.4q-5.2-4.7-15.2-4.7t-14.9,5.2a18.478,18.478,0,0,0-4.9,13.2,20.225,20.225,0,0,0,4.5,13.4q4.5,5.4,15.1,5.4T444.625,462.05Zm-45.8,22.6h11.8v88h-11v3.6h59.4v-3.6h-11.2v-91.6h-49v3.6Zm64.4,0,37,91.6h22.8l29.6-91.6h8.8v-3.6h-27v3.6h13.4l-21.6,66.4-24-66.4h12.6v-3.6h-59.8v3.6h8.2Zm147.8,93.6q19.8,0,29.7-8t13.7-22.4l-3.6-.6q-7.2,24.8-30.4,24.8-12.4,0-17.4-10t-5-29.6v-7.8h56.4q1.8-45.6-43.6-45.6-22.4,0-36.9,12.6t-14.5,36.3q0,23.7,12.9,37t38.7,13.3h0Zm-12.8-67.4q0-15.4,2.7-21.7t8.4-6.3q5.7,0,7.6,5.9t1.9,22.1v9.8h-20.6v-9.8Z"/>
</svg>
