<svg xmlns="http://www.w3.org/2000/svg" viewBox="0 0 772.5 518.2"><defs><style>.cls-1{opacity:0.04;}.cls-2{fill:#231f20;}.cls-3{fill:none;}</style></defs><title>m</title><g id="Layer_2" data-name="Layer 2"><g class="cls-1"><path class="cls-2" d="M589.28,496.25V751.56h-139V454.29q0-55.6-18.71-82.66t-57.64-27.05q-53.07,0-77.35,38.68T272.3,512.43V751.56H133.77V243H239.94l18.71,65.22h7.58q20.22-35.39,58.9-55.11t88.72-19.71q114.76,0,154.7,74.82h12.64q19.72-35.9,59.66-55.36t90.5-19.46q88,0,131.44,45t43.48,141.56V751.56h-139V454.29q0-55.6-18.7-82.66T690.9,344.58q-51.57,0-76.59,36.66T589.28,496.25Z" transform="translate(-133.77 -233.36)"/></g></g><g id="Layer_1" data-name="Layer 1"><path class="cls-3" transform="translate(-133.77 -233.36)"/></g></svg>