<svg xmlns="http://www.w3.org/2000/svg" width="1024" height="1024" viewBox="0 0 1024 1024">
  <metadata><?xpacket begin="﻿" id="W5M0MpCehiHzreSzNTczkc9d"?>
<x:xmpmeta xmlns:x="adobe:ns:meta/" x:xmptk="Adobe XMP Core 5.6-c140 79.160451, 2017/05/06-01:08:21        ">
   <rdf:RDF xmlns:rdf="http://www.w3.org/1999/02/22-rdf-syntax-ns#">
      <rdf:Description rdf:about=""/>
   </rdf:RDF>
</x:xmpmeta>
                                                                                                    
                                                                                                    
                                                                                                    
                                                                                                    
                                                                                                    
                                                                                                    
                                                                                                    
                                                                                                    
                                                                                                    
                                                                                                    
                                                                                                    
                                                                                                    
                                                                                                    
                                                                                                    
                                                                                                    
                                                                                                    
                                                                                                    
                                                                                                    
                                                                                                    
                                                                                                    
                           
<?xpacket end="w"?></metadata>
<defs>
    <style>
      .cls-1 {
        fill: #fff600;
        fill-rule: evenodd;
      }
    </style>
  </defs>
  <path id="o-full" class="cls-1" d="M574.227,774.344q-15.61,58.5-66.3,58.5-41.625,0-55.907-31.188-9.093-18.187-17.546-46.8-8.461-28.593-8.454-170.312V483.156q0-119.6,11.7-178.109,7.781-37.687,25.343-53.953,17.532-16.242,46.157-16.25,49.382,0,63.046,57.859,13.641,57.845,13.657,183.953v110.5q0,145.595-11.7,187.188h0ZM505.32,856.25q330.188,0,330.2-331.5,0-158.578-79.3-235.938-79.312-77.343-240.5-77.359-161.2,0-250.25,83.859Q176.415,379.173,176.43,534.5q0,155.343,83.187,238.547,83.2,83.2,245.7,83.2h0Z"/>
</svg>
