<svg xmlns="http://www.w3.org/2000/svg" width="1024" height="1024" viewBox="0 0 1024 1024">
  <metadata><?xpacket begin="﻿" id="W5M0MpCehiHzreSzNTczkc9d"?>
<x:xmpmeta xmlns:x="adobe:ns:meta/" x:xmptk="Adobe XMP Core 5.6-c140 79.160451, 2017/05/06-01:08:21        ">
   <rdf:RDF xmlns:rdf="http://www.w3.org/1999/02/22-rdf-syntax-ns#">
      <rdf:Description rdf:about=""/>
   </rdf:RDF>
</x:xmpmeta>
                                                                                                    
                                                                                                    
                                                                                                    
                                                                                                    
                                                                                                    
                                                                                                    
                                                                                                    
                                                                                                    
                                                                                                    
                                                                                                    
                                                                                                    
                                                                                                    
                                                                                                    
                                                                                                    
                                                                                                    
                                                                                                    
                                                                                                    
                                                                                                    
                                                                                                    
                                                                                                    
                           
<?xpacket end="w"?></metadata>
<defs>
    <style>
      .cls-1 {
        fill: #fff600;
        fill-rule: evenodd;
      }
    </style>
  </defs>
  <path id="s-full" class="cls-1" d="M279.523,843.25q27.282-48.093,55.907-48.094,9.093,0,24.687,10.391,75.4,37.688,156,37.7,113.109,0,178.11-56.547,64.992-56.531,65-166.391t-71.5-159.265a436.121,436.121,0,0,0-74.11-39.641q-39-16.242-127.39-38.359-7.806-1.289-24.047-6.5-16.266-5.2-24.063-8.453-7.8-3.234-19.5-9.094-11.7-5.837-16.89-11.047T387.414,331.7q-9.093-11.038-9.094-30.547,0-32.484,29.891-53.953,29.906-21.446,91.016-21.453,139.077,0,205.39,169h15.61V195.844h-14.3q-13.008,24.7-22.11,33.812a30.091,30.091,0,0,1-22.093,9.094q-13.008,0-37.7-10.406-67.593-29.883-131.3-29.891-104.016,0-166.407,60.453T263.93,420.75q0,101.414,71.5,148.2,59.788,39,148.187,62.391,79.312,15.609,130,44.2,32.484,18.211,32.5,54.609,0,84.516-132.594,84.5-85.8,0-143-45.5t-91-158.609H263.93v232.7h15.593Z"/>
</svg>
