<svg xmlns="http://www.w3.org/2000/svg" viewBox="0 0 569.27 1012.36"><defs><style>.cls-1{fill:#231f20;opacity:0.04;}.cls-2{fill:none;}</style></defs><title>s</title><g id="Layer_2" data-name="Layer 2"><path class="cls-1" d="M1021.93,545.58q-54.9-55-168.22-109.52Q747.46,385.93,721.28,368q-53.14-35.93-53.13-88.3,0-45.63,31.8-72.57t85.3-26.94a447.16,447.16,0,0,1,105.88,12.72q52.32,12.72,130.8,44.84v-189Q900.85,5.82,796.85,5.82q-156.39,0-244.67,74.83T463.89,284.16q0,128.7,98.76,214Q606.8,537.07,703,582.33t124.95,65.1q28.8,19.83,45.27,41.9t16.46,52q0,51.63-36.29,78.19t-99.89,26.56q-63.6,0-132.44-18.7t-168.35-62.1V959.07q120.46,59.11,285.08,59.11t260.38-77.07a274.19,274.19,0,0,0,23.81-21.54Z" transform="translate(-452.66 -5.82)"/></g><g id="Layer_1" data-name="Layer 1"><path class="cls-2" transform="translate(-452.66 -5.82)"/></g></svg>