<svg xmlns="http://www.w3.org/2000/svg" width="400" height="230" viewBox="312 397 400 230">
  <metadata><?xpacket begin="﻿" id="W5M0MpCehiHzreSzNTczkc9d"?>
<x:xmpmeta xmlns:x="adobe:ns:meta/" x:xmptk="Adobe XMP Core 5.6-c140 79.160451, 2017/05/06-01:08:21        ">
   <rdf:RDF xmlns:rdf="http://www.w3.org/1999/02/22-rdf-syntax-ns#">
      <rdf:Description rdf:about=""/>
   </rdf:RDF>
</x:xmpmeta>
                                                                                                    
                                                                                                    
                                                                                                    
                                                                                                    
                                                                                                    
                                                                                                    
                                                                                                    
                                                                                                    
                                                                                                    
                                                                                                    
                                                                                                    
                                                                                                    
                                                                                                    
                                                                                                    
                                                                                                    
                                                                                                    
                                                                                                    
                                                                                                    
                                                                                                    
                                                                                                    
                           
<?xpacket end="w"?></metadata>
<defs>
    <style>
      .cls-1 {
        fill: #fff600;
        fill-rule: evenodd;
      }
    </style>
  </defs>
  <path id="solo" class="cls-1" d="M322.425,578.25q4.2-7.4,8.6-7.4a7.706,7.706,0,0,1,3.8,1.6,53.045,53.045,0,0,0,24,5.8q17.4,0,27.4-8.7t10-25.6q0-16.9-11-24.5a67.031,67.031,0,0,0-11.4-6.1q-6-2.5-19.6-5.9a29.038,29.038,0,0,1-3.7-1q-2.5-.8-3.7-1.3t-3-1.4a10.212,10.212,0,0,1-2.6-1.7q-0.8-.8-2.2-2.5a7.177,7.177,0,0,1-1.4-4.7q0-5,4.6-8.3t14-3.3q21.4,0,31.6,26h2.4v-30.6h-2.2a23.056,23.056,0,0,1-3.4,5.2,4.63,4.63,0,0,1-3.4,1.4,16.546,16.546,0,0,1-5.8-1.6,49.8,49.8,0,0,0-20.2-4.6q-16,0-25.6,9.3t-9.6,24.9q0,15.6,11,22.8a78.225,78.225,0,0,0,22.8,9.6q12.2,2.4,20,6.8a9.063,9.063,0,0,1,5,8.4q0,13-20.4,13-13.2,0-22-7t-14-24.4h-2.4v35.8h2.4Zm142.6-12.6q-2.4,9-10.2,9-6.4,0-8.6-4.8a44.608,44.608,0,0,1-2.7-7.2q-1.3-4.4-1.3-26.2v-15.6q0-18.4,1.8-27.4,1.2-5.8,3.9-8.3a10.037,10.037,0,0,1,7.1-2.5q7.6,0,9.7,8.9t2.1,28.3v17q0,22.4-1.8,28.8h0Zm-10.6,12.6q50.8,0,50.8-51,0-24.4-12.2-36.3t-37-11.9q-24.8,0-38.5,12.9t-13.7,36.8q0,23.9,12.8,36.7t37.8,12.8h0Zm55.6-148.4h11.8v142.8h-11v3.6h59.4v-3.6h-11.2V426.25h-49v3.6Zm126.8,135.8q-2.4,9-10.2,9-6.4,0-8.6-4.8a44.608,44.608,0,0,1-2.7-7.2q-1.3-4.4-1.3-26.2v-15.6q0-18.4,1.8-27.4,1.2-5.8,3.9-8.3a10.037,10.037,0,0,1,7.1-2.5q7.6,0,9.7,8.9t2.1,28.3v17q0,22.4-1.8,28.8h0Zm-10.6,12.6q50.8,0,50.8-51,0-24.4-12.2-36.3t-37-11.9q-24.8,0-38.5,12.9t-13.7,36.8q0,23.9,12.8,36.7t37.8,12.8h0Z"/>
</svg>
