<svg xmlns="http://www.w3.org/2000/svg" width="850" height="240" viewBox="87 392 850 240">
  <metadata><?xpacket begin="﻿" id="W5M0MpCehiHzreSzNTczkc9d"?>
<x:xmpmeta xmlns:x="adobe:ns:meta/" x:xmptk="Adobe XMP Core 5.6-c140 79.160451, 2017/05/06-01:08:21        ">
   <rdf:RDF xmlns:rdf="http://www.w3.org/1999/02/22-rdf-syntax-ns#">
      <rdf:Description rdf:about=""/>
   </rdf:RDF>
</x:xmpmeta>
                                                                                                    
                                                                                                    
                                                                                                    
                                                                                                    
                                                                                                    
                                                                                                    
                                                                                                    
                                                                                                    
                                                                                                    
                                                                                                    
                                                                                                    
                                                                                                    
                                                                                                    
                                                                                                    
                                                                                                    
                                                                                                    
                                                                                                    
                                                                                                    
                                                                                                    
                                                                                                    
                           
<?xpacket end="w"?></metadata>
<defs>
    <style>
      .cls-1 {
        fill: #fff600;
        fill-rule: evenodd;
      }
    </style>
  </defs>
  <path id="together" class="cls-1" d="M121.228,571.65q8.8,6.6,25.4,6.6t23.8-8.1q7.2-8.1,8.8-21.9l-3.4-.4q-1.4,10.4-5.9,16.4t-10.5,6q-6,0-7.9-4.4t-1.9-13.8v-67.4h26v-3.6h-26v-35l-37.2,9.2v25.8h-11v3.6h11v63Q112.428,565.05,121.228,571.65Zm122.8-6q-2.4,9-10.2,9-6.4,0-8.6-4.8a44.608,44.608,0,0,1-2.7-7.2q-1.3-4.4-1.3-26.2v-15.6q0-18.4,1.8-27.4,1.2-5.8,3.9-8.3a10.037,10.037,0,0,1,7.1-2.5q7.6,0,9.7,8.9t2.1,28.3v17q0,22.4-1.8,28.8h0Zm-10.6,12.6q50.8,0,50.8-51,0-24.4-12.2-36.3t-37-11.9q-24.8,0-38.5,12.9t-13.7,36.8q0,23.9,12.8,36.7t37.8,12.8h0Zm140.1-99.9a12.831,12.831,0,0,0,8.4,2.7,12.417,12.417,0,0,0,8.7-3.3q3.6-3.3,3.6-10.1t-4.5-10.7q-4.5-3.9-11.9-3.9a20.422,20.422,0,0,0-13.4,5q-6,5-6,16.2a45.548,45.548,0,0,0,1.2,9.8q-9.2-5-22.2-5-21.6,0-32.4,9.2t-10.8,24.2q0,23.8,23.2,30.4-12.8,7.8-17.8,13.1a18.489,18.489,0,0,0-5,13.2q0,7.9,7,13.3t23.2,5.4h19.4q15.2,0,20.3,2.9t5.1,11.5q0,8.6-8.4,14.4t-24,5.8q-25.6,0-25.6-17.2a41.289,41.289,0,0,1,1.6-11l-12-5.4q-15.4,4.4-15.4,16,0,21.4,49.4,21.4,29,0,42.7-10.3t13.7-27.9q0-32.6-45.4-32.6h-20.4q-12.8,0-12.8-2.8t8.8-8.4a86.366,86.366,0,0,0,16.2,1.6q18.8,0,29.8-8.8t11-24.7q0-15.9-15.2-26.1a60.3,60.3,0,0,1-1.4-12q0-13.2,8.6-13.2,6,0,4.8,6.2l-5.6,3.4A9.922,9.922,0,0,0,373.527,478.35Zm-43.5,9.4q2.4-5.1,7.1-5.1t6.7,4.9q2,4.9,2,20.5v9.8q0,14.6-2.1,19.3t-6.8,4.7q-4.7,0-7-4.8t-2.3-18.2v-10.8Q327.627,492.853,330.027,487.75Zm110.8,90.5q19.8,0,29.7-8t13.7-22.4l-3.6-.6q-7.2,24.8-30.4,24.8-12.4,0-17.4-10t-5-29.6v-7.8h56.4q1.8-45.6-43.6-45.6-22.4,0-36.9,12.6t-14.5,36.3q0,23.7,12.9,37t38.7,13.3h0Zm-12.8-67.4q0-15.4,2.7-21.7t8.4-6.3q5.7,0,7.6,5.9t1.9,22.1v9.8h-20.6v-9.8Zm82.2,60.8q8.8,6.6,25.4,6.6t23.8-8.1q7.2-8.1,8.8-21.9l-3.4-.4q-1.4,10.4-5.9,16.4t-10.5,6q-6,0-7.9-4.4t-1.9-13.8v-67.4h26v-3.6h-26v-35l-37.2,9.2v25.8h-11v3.6h11v63Q501.423,565.05,510.223,571.65Zm60-141.8h11v142.8h-11v3.6h56.8v-3.6h-8.6v-55.2q0-12,4.9-20.4t11.3-8.4a5.831,5.831,0,0,1,5.8,3.5q1.6,3.5,1.6,15.5v65h-8.2v3.6h56.6v-3.6h-11.2v-60.2q0-33.4-31-33.4-13.4,0-20,5.6a33.237,33.237,0,0,0-9.8,14.8v-73.2h-48.2v3.6Zm175.8,148.4q19.8,0,29.7-8t13.7-22.4l-3.6-.6q-7.2,24.8-30.4,24.8-12.4,0-17.4-10t-5-29.6v-7.8h56.4q1.8-45.6-43.6-45.6-22.4,0-36.9,12.6t-14.5,36.3q0,23.7,12.9,37t38.7,13.3h0Zm-12.8-67.4q0-15.4,2.7-21.7t8.4-6.3q5.7,0,7.6,5.9t1.9,22.1v9.8h-20.6v-9.8Zm134.4-14h-7.2q-3.2,10.6,1.1,16.6t13.4,6q9.1,0,13.5-5.2t4.4-14.9q0-9.7-5.9-15t-15.3-5.3a27.439,27.439,0,0,0-16.8,5.5q-7.4,5.5-10,15.7v-19.2h-48.2v3.6h11v88h-11v3.6h62.4v-3.6h-14.2v-53.6q0-13.2,5.6-22.8t13-9.6q9.2,0,4.2,10.2h0Z"/>
</svg>
