<svg fill="none" height="810" viewBox="0 0 304 810" width="304" xmlns="http://www.w3.org/2000/svg"><path d="m101.634 705.885c-10.3127-9.131-15.469-18.369-15.469-27.715 0-5.156 1.3965-9.131 4.1895-11.924 2.793-2.9 5.8545-4.35 9.1846-4.35 7.0899 0 10.6349 3.222 10.6349 9.667 0 3.545-2.202 6.607-6.607 9.185-4.0817 2.363-6.1227 4.834-6.1227 7.412 0 4.082 2.7927 8.594 8.3787 13.535 8.809-5.586 18.155-8.379 28.037-8.379 12.891 0 24.278 4.62 34.161 13.858 9.99 9.238 15.361 24.814 16.113 46.728.752 22.774 5.371 34.16 13.857 34.16 3.975 0 6.768-2.578 8.379-7.734 1.719-5.049 3.008-15.683 3.867-31.904.86-17.725 2.525-31.367 4.995-40.928 2.364-9.56 7.198-17.187 14.502-22.881 7.305-5.693 16.006-8.54 26.104-8.54 14.18 0 25.62 5.801 34.321 17.403 8.701 11.601 13.052 28.305 13.052 50.112 0 19.98-3.867 35.986-11.602 48.017-7.734 12.032-17.509 18.047-29.326 18.047-6.553 0-11.924-1.718-16.113-5.156-4.19-3.437-6.284-8.325-6.284-14.663 0-1.719.268-3.276.805-4.673 7.305 6.66 15.039 9.99 23.204 9.99 9.453 0 17.241-4.404 23.364-13.213 6.23-8.916 9.345-22.182 9.345-39.799 0-15.684-3.168-27.876-9.506-36.578-6.231-8.808-14.234-13.212-24.009-13.212-10.742 0-18.316 3.921-22.72 11.762-4.297 7.842-6.875 21.807-7.734 41.895-.967 23.096-3.814 38.081-8.54 44.956-4.619 6.875-10.581 10.312-17.886 10.312-14.072 0-22.935-9.829-26.587-29.487-6.016 10.205-12.891 17.886-20.625 23.042s-16.382 7.734-25.942 7.734c-13.428 0-24.815-5.263-34.1605-15.791-9.4531-10.634-14.1797-23.203-14.1797-37.705 0-17.939 5.6397-32.334 16.9192-43.183zm35.127 72.51c13.857 0 24.009-2.847 30.454-8.541 6.445-5.693 9.668-12.944 9.668-21.752 0-8.165-3.169-15.147-9.507-20.948-6.445-5.908-17.564-8.862-33.355-8.862-15.898 0-26.855 3.115-32.871 9.346-6.0152 6.23-9.0231 13.266-9.023 21.108 0 9.883 3.706 17.295 11.118 22.236 7.412 4.942 18.584 7.413 33.516 7.413zm-119.3997-136.158c-4.6191 0-8.59373-1.611-11.92381-4.834-3.33008-3.33-4.995115-7.304-4.995116-11.924 0-4.619 1.665036-8.54 4.995116-11.762 3.33008-3.223 7.30471-4.834 11.92381-4.834 4.7266 0 8.7549 1.611 12.085 4.834 3.3301 3.222 4.9951 7.143 4.9951 11.762 0 4.62-1.665 8.594-4.9951 11.924-3.3301 3.223-7.3584 4.834-12.085 4.834zm67.3535-31.098h92.0072c14.072 0 22.934-.215 26.587-.645 3.652-.43 6.445-1.987 8.378-4.673 1.934-2.685 2.901-7.466 2.901-14.341v-3.383h7.412v71.059h-7.412v-5.478c0-7.627-1.074-12.569-3.223-14.824-2.256-2.364-4.887-3.707-7.895-4.029-3.116-.429-12.032-.644-26.748-.644h-39.961c-15.469 0-24.922.752-28.36 2.256-3.437 1.396-5.586 3.33-6.445 5.8-.859 2.364-1.289 6.553-1.289 12.569v4.35h-7.4121c-1.9336-19.121-4.7803-33.945-8.5401-44.472zm113.1152-174.668v-5.962c18.369.967 27.554 9.99 27.554 27.07 0 7.305-1.934 13.106-5.801 17.402-3.867 4.19-9.614 6.929-17.241 8.218 7.627 10.742 13.374 20.572 17.241 29.488 3.867 8.808 5.801 16.704 5.801 23.686 0 8.916-2.578 16.597-7.735 23.042-5.156 6.445-11.977 9.668-20.463 9.668-11.065 0-20.733-5.371-29.004-16.113-8.272-10.85-16.328-25.782-24.17-44.795l-10.152-24.976h-6.445c-9.131 0-15.737.591-19.819 1.773-4.082 1.181-7.7347 4.243-10.9573 9.184-3.2227 4.942-4.834 11.441-4.834 19.497 0 16.114 5.3711 25.083 16.1133 26.91 10.957 1.718 16.436 6.23 16.436 13.535 0 6.552-3.116 9.829-9.346 9.829-6.123 0-12.676-4.351-19.6584-13.052-7.0898-8.701-10.6348-22.236-10.6348-40.605 0-13.643 2.1485-24.224 6.4453-31.744 4.2969-7.519 9.1849-12.461 14.6629-14.824 5.479-2.471 13.858-3.706 25.137-3.706h53.335c12.461 0 20.464-.644 24.009-1.934 3.545-1.289 5.317-4.082 5.317-8.378 0-7.09-5.264-11.495-15.791-13.213zm-56.396 46.728 7.089 17.564c11.28 27.715 25.459 41.572 42.539 41.572 6.768 0 12.247-1.773 16.436-5.317 4.082-3.545 6.123-8.164 6.123-13.858 0-5.049-1.665-10.903-4.995-17.563s-8.325-14.126-14.985-22.398zm-56.7192-101.513v-4.351c6.6602-2.471 15.7372-3.867 27.2312-4.189-9.131-7.735-15.9519-15.845-20.4636-24.332-4.5117-8.486-6.7676-17.348-6.7676-26.586 0-10.528 2.2022-19.122 6.6065-25.782 4.4043-6.767 9.8287-11.118 16.2747-13.051 6.338-1.934 15.63-2.901 27.876-2.901h41.25c15.254 0 24.546-.268 27.876-.806 3.33-.537 5.854-2.202 7.573-4.995 1.611-2.9 2.417-8.164 2.417-15.791h7.412v67.515h-7.412v-3.062c0-7.734-1.128-12.783-3.384-15.146s-4.888-3.706-7.895-4.028c-3.008-.323-11.871-.484-26.587-.484h-42.539c-10.42 0-17.832.537-22.237 1.612-4.511.966-8.486 3.706-11.924 8.217-3.4371 4.405-5.1558 10.044-5.1558 16.919 0 7.842 2.3633 15.362 7.0898 22.559 4.619 7.09 11.602 13.804 20.947 20.142h53.819c15.254 0 24.546-.269 27.876-.806 3.33-.645 5.854-2.363 7.573-5.156 1.611-2.901 2.417-8.218 2.417-15.953h7.412v66.709h-7.412c0-7.412-.752-12.568-2.256-15.468-1.504-2.901-3.76-4.673-6.768-5.318-3.115-.752-12.729-1.128-28.842-1.128h-39.317c-15.361 0-24.653.323-27.876.967-3.33.537-5.801 2.256-7.412 5.156-1.719 2.793-2.578 8.057-2.578 15.791h-7.4121c-1.289-11.816-3.7597-23.901-7.4121-36.254zm0-175.313v-4.351c6.6602-2.47 15.7372-3.867 27.2312-4.189-9.131-7.734-15.9519-15.845-20.4636-24.331s-6.7676-17.349-6.7676-26.587c0-10.527 2.2022-19.121 6.6065-25.781 4.4043-6.768 9.8287-11.118 16.2747-13.052 6.338-1.934 15.63-2.9 27.876-2.9h41.25c15.254 0 24.546-.269 27.876-.806s5.854-2.202 7.573-4.9951c1.611-2.9004 2.417-8.1641 2.417-15.7911h7.412v67.5142h-7.412v-3.061c0-7.734-1.128-12.783-3.384-15.147-2.256-2.363-4.888-3.706-7.895-4.028-3.008-.322-11.871-.483-26.587-.483h-42.539c-10.42 0-17.832.537-22.237 1.611-4.511.967-8.486 3.706-11.924 8.218-3.4371 4.404-5.1558 10.044-5.1558 16.919 0 7.842 2.3633 15.361 7.0898 22.558 4.619 7.09 11.602 13.804 20.947 20.142h53.819c15.254 0 24.546-.269 27.876-.806 3.33-.644 5.854-2.363 7.573-5.156 1.611-2.9 2.417-8.218 2.417-15.952h7.412v66.709h-7.412c0-7.412-.752-12.568-2.256-15.469-1.504-2.9-3.76-4.673-6.768-5.317-3.115-.752-12.729-1.128-28.842-1.128h-39.317c-15.361 0-24.653.322-27.876.967-3.33.537-5.801 2.256-7.412 5.156-1.719 2.793-2.578 8.057-2.578 15.791h-7.4121c-1.289-11.816-3.7597-23.901-7.4121-36.255zm-67.3535-151.9482c-4.6191 0-8.59376-1.6113-11.92383-4.834-3.33008-3.3301-4.995121-7.3047-4.995121-11.9238-.000001-4.6191 1.665041-8.54 4.995121-11.7627 3.33007-3.2227 7.30473-4.834 11.92383-4.834 4.7266 0 8.7549 1.6113 12.085 4.834 3.33 3.2227 4.9951 7.1436 4.9951 11.7627s-1.6651 8.5937-4.9951 11.9238c-3.3301 3.2227-7.3584 4.834-12.085 4.834zm67.3535-31.0986h92.0072c14.072 0 22.934-.2149 26.587-.6446 3.652-.4297 6.445-1.9873 8.378-4.6728 1.934-2.6856 2.901-7.4658 2.901-14.34084v-3.383785h7.412v71.059525h-7.412v-5.4785c0-7.6269-1.074-12.5683-3.223-14.8242-2.256-2.3633-4.887-3.706-7.895-4.0283-3.116-.4297-12.032-.6445-26.748-.6445h-39.961c-15.469 0-24.922.7519-28.36 2.2558-3.437 1.3965-5.586 3.3301-6.445 5.8008-.859 2.3633-1.289 6.5527-1.289 12.5684v4.3506h-7.4121c-1.9336-19.1211-4.7803-33.9454-8.5401-44.4727z" fill="#15d5ff"/></svg>