<svg width="1121" height="1123" viewBox="0 0 1121 1123" fill="none" xmlns="http://www.w3.org/2000/svg">
<path d="M1.37988 276.5L40.4799 4.64H148.58L186.76 276.5H104.42L100.74 236.94H83.7199L80.9599 276.5H1.37988ZM84.1799 201.52H100.74L92.4599 62.14L84.1799 201.52Z" fill="black" fill-opacity="0.02"/>
<path d="M199.723 276.5V4.64H263.203L296.323 131.14V4.64H360.263V276.5H297.243L263.663 163.8V276.5H199.723Z" fill="black" fill-opacity="0.02"/>
<path d="M440.493 281.1C430.986 281.1 421.633 279.413 412.433 276.04C403.54 272.36 396.026 265.153 389.893 254.42C384.066 243.687 381.153 227.893 381.153 207.04V63.52C381.153 48.1867 384.526 36.0733 391.273 27.18C398.02 17.98 407.373 11.3867 419.333 7.39999C431.6 3.41332 445.86 1.42 462.113 1.42C478.366 1.42 492.78 3.41332 505.353 7.39999C517.926 11.3867 527.74 17.98 534.793 27.18C541.846 36.0733 545.373 48.1867 545.373 63.52V104.92H474.533V58.92C474.533 55.24 474.073 52.48 473.153 50.64C472.233 48.4933 471.006 47.1133 469.473 46.5C468.246 45.58 466.56 45.12 464.413 45.12C462.573 45.12 460.886 45.58 459.353 46.5C457.82 47.1133 456.593 48.4933 455.673 50.64C454.753 52.48 454.293 55.24 454.293 58.92V225.9C454.293 229.273 454.753 232.033 455.673 234.18C456.593 236.327 457.82 237.86 459.353 238.78C460.886 239.393 462.573 239.7 464.413 239.7C467.48 239.7 469.933 238.78 471.773 236.94C473.613 234.793 474.533 231.113 474.533 225.9V174.38H463.033V133.44H545.373V276.5H490.173L486.493 259.02C484.346 263.62 479.746 268.527 472.693 273.74C465.64 278.647 454.906 281.1 440.493 281.1Z" fill="black" fill-opacity="0.02"/>
<path d="M564.937 276.5V4.64H696.497V55.7H641.297V108.6H691.897V166.1H641.297V226.82H696.497V276.5H564.937Z" fill="black" fill-opacity="0.02"/>
<path d="M715.875 276.5V4.64H788.095V226.82H838.235V276.5H715.875Z" fill="black" fill-opacity="0.02"/>
<path d="M854.234 276.5V4.64H927.374V276.5H854.234Z" fill="black" fill-opacity="0.02"/>
<path d="M1031.79 282.02C1015.23 282.02 1000.66 280.027 988.087 276.04C975.514 272.053 965.7 263.927 958.647 251.66C951.594 239.393 948.067 221.147 948.067 196.92V62.6C948.067 47.2667 951.594 35.1533 958.647 26.26C965.7 17.06 975.514 10.4667 988.087 6.48001C1000.66 2.49334 1015.23 0.5 1031.79 0.5C1048.65 0.5 1063.07 2.49334 1075.03 6.48001C1086.99 10.4667 1096.19 17.06 1102.63 26.26C1109.07 35.1533 1112.29 47.2667 1112.29 62.6V126.08H1039.15V58.92C1039.15 55.24 1038.84 52.48 1038.23 50.64C1037.61 48.4933 1036.69 47.1133 1035.47 46.5C1034.55 45.58 1033.32 45.12 1031.79 45.12C1030.25 45.12 1028.87 45.58 1027.65 46.5C1026.73 47.1133 1025.96 48.4933 1025.35 50.64C1024.73 52.48 1024.43 55.24 1024.43 58.92V225.9C1024.43 229.273 1024.73 232.033 1025.35 234.18C1025.96 236.327 1026.73 237.86 1027.65 238.78C1028.87 239.393 1030.25 239.7 1031.79 239.7C1033.32 239.7 1034.55 239.393 1035.47 238.78C1036.69 237.86 1037.61 236.327 1038.23 234.18C1038.84 232.033 1039.15 229.273 1039.15 225.9V162.42H1112.29V196.46C1112.29 220.993 1109.07 239.393 1102.63 251.66C1096.19 263.927 1086.99 272.053 1075.03 276.04C1063.07 280.027 1048.65 282.02 1031.79 282.02Z" fill="black" fill-opacity="0.02"/>
<path d="M21.9479 425.5V312.22H1.88788V286.024H79.5319V312.22H59.4719V425.5H21.9479Z" fill="black" fill-opacity="0.02"/>
<path d="M87.2554 425.5V286.024H143.895C154.279 286.024 161.753 288.305 166.315 292.868C171.035 297.273 173.395 302.937 173.395 309.86V331.1C173.395 337.865 171.743 344.08 168.439 349.744C165.293 355.251 159.55 358.476 151.211 359.42V359.892C156.718 360.993 160.494 362.803 162.539 365.32C164.742 367.68 166.551 371.692 167.967 377.356L180.239 425.5H138.467L130.443 379.716C130.129 377.513 129.735 375.704 129.263 374.288C128.949 372.715 128.634 371.535 128.319 370.748C128.005 369.961 127.611 369.568 127.139 369.568H126.431V425.5H87.2554ZM126.431 343.608H130.207C132.253 343.608 133.826 342.743 134.927 341.012C136.029 339.281 136.579 336.292 136.579 332.044V316.704C136.579 312.456 136.107 309.624 135.163 308.208C134.377 306.635 132.961 305.848 130.915 305.848H126.431V343.608Z" fill="black" fill-opacity="0.02"/>
<path d="M227.871 428.332C219.532 428.332 212.216 427.309 205.923 425.264C199.629 423.219 194.752 419.049 191.291 412.756C187.829 406.463 186.099 397.101 186.099 384.672V315.76C186.099 307.893 187.829 301.679 191.291 297.116C194.752 292.396 199.629 289.013 205.923 286.968C212.216 284.923 219.532 283.9 227.871 283.9C236.209 283.9 243.525 284.923 249.819 286.968C256.269 289.013 261.304 292.396 264.923 297.116C268.541 301.679 270.351 307.893 270.351 315.76V384.436C270.351 397.023 268.541 406.463 264.923 412.756C261.304 419.049 256.269 423.219 249.819 425.264C243.525 427.309 236.209 428.332 227.871 428.332ZM227.871 406.62C228.815 406.62 229.68 406.384 230.467 405.912C231.253 405.283 231.804 404.417 232.119 403.316C232.591 402.215 232.827 400.956 232.827 399.54V313.872C232.827 312.456 232.591 311.197 232.119 310.096C231.804 308.995 231.253 308.208 230.467 307.736C229.68 307.107 228.815 306.792 227.871 306.792C226.927 306.792 226.061 307.107 225.275 307.736C224.645 308.208 224.095 308.995 223.623 310.096C223.151 311.197 222.915 312.456 222.915 313.872V399.54C222.915 400.956 223.151 402.215 223.623 403.316C224.095 404.417 224.645 405.283 225.275 405.912C226.061 406.384 226.927 406.62 227.871 406.62Z" fill="black" fill-opacity="0.02"/>
<path d="M322.616 428.332C316.322 428.332 310.58 427.86 305.388 426.916C300.353 426.129 296.026 424.399 292.408 421.724C288.789 419.049 285.957 414.959 283.912 409.452C282.024 403.945 281.08 396.472 281.08 387.032V286.024H318.604V398.36C318.604 400.091 318.761 401.507 319.076 402.608C319.39 403.709 319.862 404.496 320.492 404.968C321.121 405.283 321.829 405.44 322.616 405.44C323.402 405.44 324.11 405.283 324.74 404.968C325.369 404.496 325.841 403.709 326.156 402.608C326.47 401.507 326.628 400.091 326.628 398.36V286.024H364.152V386.796C364.152 396.236 363.129 403.788 361.084 409.452C359.196 414.959 356.442 419.049 352.824 421.724C349.205 424.399 344.8 426.129 339.608 426.916C334.573 427.86 328.909 428.332 322.616 428.332Z" fill="black" fill-opacity="0.02"/>
<path d="M376.033 425.5V286.024H430.785C440.539 286.024 447.619 288.305 452.025 292.868C456.587 297.273 458.869 302.937 458.869 309.86V324.964C458.869 328.897 458.318 332.595 457.217 336.056C456.115 339.36 454.306 342.192 451.789 344.552C450.215 346.125 448.249 347.463 445.889 348.564C443.529 349.508 441.011 350.137 438.337 350.452V350.924C440.539 350.924 442.663 351.239 444.709 351.868C446.911 352.497 449.271 353.677 451.789 355.408C454.621 357.453 456.902 360.364 458.633 364.14C460.363 367.759 461.229 372.321 461.229 377.828V396C461.229 403.395 459.891 409.295 457.217 413.7C454.542 417.948 450.687 421.016 445.653 422.904C440.618 424.635 434.561 425.5 427.481 425.5H376.033ZM413.793 406.384H418.513C419.614 406.384 420.479 406.069 421.109 405.44C421.738 404.653 422.21 403.395 422.525 401.664C422.997 399.776 423.233 397.18 423.233 393.876V379.008C423.233 373.816 422.839 370.512 422.053 369.096C421.266 367.523 420.007 366.736 418.277 366.736H413.793V406.384ZM413.793 343.372H417.569C418.985 343.372 420.243 342.507 421.345 340.776C422.446 338.888 422.997 335.033 422.997 329.212V316.704C422.997 312.613 422.603 309.781 421.817 308.208C421.03 306.635 419.771 305.848 418.041 305.848H413.793V343.372Z" fill="black" fill-opacity="0.02"/>
<path d="M470.755 425.5V286.024H507.807V400.012H533.531V425.5H470.755Z" fill="black" fill-opacity="0.02"/>
<path d="M541.74 425.5V286.024H609.236V312.22H580.916V339.36H606.876V368.86H580.916V400.012H609.236V425.5H541.74Z" fill="black" fill-opacity="0.02"/>
<path d="M619.177 425.5V286.024H666.849L676.997 357.296L687.145 286.024H734.817V425.5H702.013V328.268L689.505 425.5H664.489L651.981 328.268V425.5H619.177Z" fill="black" fill-opacity="0.02"/>
<path d="M741.434 425.5L761.494 286.024H816.954L836.542 425.5H794.298L792.41 405.204H783.678L782.262 425.5H741.434ZM783.914 387.032H792.41L788.162 315.524L783.914 387.032Z" fill="black" fill-opacity="0.02"/>
<path d="M899.361 425.5L880.245 353.284L899.361 286.024H939.245L916.589 353.048L939.717 425.5H899.361ZM843.193 425.5V286.024H880.717V425.5H843.193Z" fill="black" fill-opacity="0.02"/>
<path d="M946.904 425.5V286.024H1014.4V312.22H986.08V339.36H1012.04V368.86H986.08V400.012H1014.4V425.5H946.904Z" fill="black" fill-opacity="0.02"/>
<path d="M1024.34 425.5V286.024H1080.98C1091.37 286.024 1098.84 288.305 1103.4 292.868C1108.12 297.273 1110.48 302.937 1110.48 309.86V331.1C1110.48 337.865 1108.83 344.08 1105.53 349.744C1102.38 355.251 1096.64 358.476 1088.3 359.42V359.892C1093.8 360.993 1097.58 362.803 1099.63 365.32C1101.83 367.68 1103.64 371.692 1105.05 377.356L1117.33 425.5H1075.55L1067.53 379.716C1067.21 377.513 1066.82 375.704 1066.35 374.288C1066.03 372.715 1065.72 371.535 1065.41 370.748C1065.09 369.961 1064.7 369.568 1064.23 369.568H1063.52V425.5H1024.34ZM1063.52 343.608H1067.29C1069.34 343.608 1070.91 342.743 1072.01 341.012C1073.11 339.281 1073.67 336.292 1073.67 332.044V316.704C1073.67 312.456 1073.19 309.624 1072.25 308.208C1071.46 306.635 1070.05 305.848 1068 305.848H1063.52V343.608Z" fill="black" fill-opacity="0.02"/>
<path d="M68.8539 641.268C55.2446 641.268 43.5959 639.653 33.9079 636.424C24.4505 632.964 17.1845 626.851 12.1099 618.086C7.26588 609.09 4.84388 596.403 4.84388 580.026V567.224C14.5319 567.224 24.1045 567.224 33.5619 567.224C43.2499 567.224 52.9379 567.224 62.6259 567.224V584.87C62.6259 591.098 62.8566 595.827 63.3179 599.056C64.0099 602.055 64.8172 604.131 65.7399 605.284C66.8932 606.207 68.2772 606.668 69.8919 606.668C72.4292 606.668 74.1592 605.515 75.0819 603.208C76.2352 600.671 76.8119 595.481 76.8119 587.638C76.8119 580.257 75.6586 574.836 73.3519 571.376C71.0452 567.916 67.1239 565.033 61.5879 562.726C56.2825 560.419 49.0165 557.305 39.7899 553.384C31.2552 549.463 24.5659 544.849 19.7219 539.544C14.8779 534.008 11.4179 527.434 9.34188 519.822C7.49655 511.979 6.57388 502.868 6.57388 492.488C6.57388 477.956 8.41922 466.423 12.1099 457.888C16.0312 449.123 22.6052 442.895 31.8319 439.204C41.0586 435.283 53.7452 433.322 69.8919 433.322C90.6519 433.322 106.337 437.474 116.948 445.778C127.559 453.851 132.864 466.307 132.864 483.146V509.442C123.637 509.442 114.411 509.442 105.184 509.442C96.1879 509.442 87.0766 509.442 77.8499 509.442V500.446C77.8499 490.989 77.5039 484.761 76.8119 481.762C76.3506 478.533 74.2746 476.918 70.5839 476.918C67.5852 476.918 65.6246 477.956 64.7019 480.032C64.0099 482.108 63.6639 485.683 63.6639 490.758C63.6639 497.447 64.9326 502.522 67.4699 505.982C70.2379 509.442 73.8132 512.095 78.1959 513.94C82.5786 515.555 87.1919 517.285 92.0359 519.13C102.185 522.821 110.374 526.742 116.602 530.894C123.061 534.815 127.789 540.467 130.788 547.848C133.787 554.999 135.286 565.494 135.286 579.334C135.286 594.789 132.633 607.129 127.328 616.356C122.023 625.352 114.411 631.811 104.492 635.732C94.5732 639.423 82.6939 641.268 68.8539 641.268Z" fill="black" fill-opacity="0.02"/>
<path d="M231.222 638.5L203.196 532.624L231.222 434.014H289.697L256.48 532.278L290.388 638.5H231.222ZM148.874 638.5V434.014H203.888V638.5H148.874Z" fill="black" fill-opacity="0.02"/>
<path d="M300.925 638.5V434.014H399.881V472.42H358.361V512.21H396.421V555.46H358.361V601.132H399.881V638.5H300.925Z" fill="black" fill-opacity="0.02"/>
<path d="M414.457 638.5V434.014H494.729C509.953 434.014 520.909 437.359 527.599 444.048C534.519 450.507 537.979 458.811 537.979 468.96V502.868C537.979 513.017 536.825 522.59 534.518 531.586C532.212 540.351 528.06 547.502 522.062 553.038C516.296 558.343 508.107 560.996 497.497 560.996H471.893V638.5H414.457ZM471.893 531.24H476.045C478.582 531.24 480.427 528.818 481.581 523.974C482.734 518.899 483.311 510.019 483.311 497.332V493.872C483.311 482.569 482.965 474.611 482.273 469.998C481.811 465.385 480.081 463.078 477.083 463.078H471.893V531.24Z" fill="black" fill-opacity="0.02"/>
<path d="M575.844 638.5V472.42H546.434V434.014H660.268V472.42H630.858V638.5H575.844Z" fill="black" fill-opacity="0.02"/>
<path d="M671.591 638.5V434.014H726.605V638.5H671.591Z" fill="black" fill-opacity="0.02"/>
<path d="M805.142 642.652C792.686 642.652 781.729 641.153 772.272 638.154C762.815 635.155 755.433 629.043 750.128 619.816C744.823 610.589 742.17 596.865 742.17 578.642V477.61C742.17 466.077 744.823 456.965 750.128 450.276C755.433 443.356 762.815 438.397 772.272 435.398C781.729 432.399 792.686 430.9 805.142 430.9C817.829 430.9 828.67 432.399 837.666 435.398C846.662 438.397 853.582 443.356 858.426 450.276C863.27 456.965 865.692 466.077 865.692 477.61V525.358H810.678V474.842C810.678 472.074 810.447 469.998 809.986 468.614C809.525 466.999 808.833 465.961 807.91 465.5C807.218 464.808 806.295 464.462 805.142 464.462C803.989 464.462 802.951 464.808 802.028 465.5C801.336 465.961 800.759 466.999 800.298 468.614C799.837 469.998 799.606 472.074 799.606 474.842V600.44C799.606 602.977 799.837 605.053 800.298 606.668C800.759 608.283 801.336 609.436 802.028 610.128C802.951 610.589 803.989 610.82 805.142 610.82C806.295 610.82 807.218 610.589 807.91 610.128C808.833 609.436 809.525 608.283 809.986 606.668C810.447 605.053 810.678 602.977 810.678 600.44V552.692H865.692V578.296C865.692 596.749 863.27 610.589 858.426 619.816C853.582 629.043 846.662 635.155 837.666 638.154C828.67 641.153 817.829 642.652 805.142 642.652Z" fill="black" fill-opacity="0.02"/>
<path d="M872.796 638.5L902.206 434.014H983.516L1012.23 638.5H950.3L947.532 608.744H934.73L932.654 638.5H872.796ZM935.076 582.102H947.532L941.304 477.264L935.076 582.102Z" fill="black" fill-opacity="0.02"/>
<path d="M1021.98 638.5V434.014H1076.31V601.132H1114.02V638.5H1021.98Z" fill="black" fill-opacity="0.02"/>
<path d="M77.2239 885.204C63.3732 885.204 51.2212 883.505 40.7679 880.108C30.3146 876.711 22.2132 869.785 16.4639 859.332C10.7145 848.879 7.83988 833.329 7.83988 812.684V698.22C7.83988 685.153 10.7145 674.831 16.4639 667.252C22.2132 659.412 30.3146 653.793 40.7679 650.396C51.2212 646.999 63.3732 645.3 77.2239 645.3C91.0746 645.3 103.227 646.999 113.68 650.396C124.395 653.793 132.757 659.412 138.768 667.252C144.779 674.831 147.784 685.153 147.784 698.22V812.292C147.784 833.199 144.779 848.879 138.768 859.332C132.757 869.785 124.395 876.711 113.68 880.108C103.227 883.505 91.0746 885.204 77.2239 885.204ZM77.2239 849.14C78.7919 849.14 80.2292 848.748 81.5359 847.964C82.8426 846.919 83.7572 845.481 84.2799 843.652C85.0639 841.823 85.4559 839.732 85.4559 837.38V695.084C85.4559 692.732 85.0639 690.641 84.2799 688.812C83.7572 686.983 82.8426 685.676 81.5359 684.892C80.2292 683.847 78.7919 683.324 77.2239 683.324C75.6559 683.324 74.2186 683.847 72.9119 684.892C71.8666 685.676 70.9519 686.983 70.1679 688.812C69.3839 690.641 68.9919 692.732 68.9919 695.084V837.38C68.9919 839.732 69.3839 841.823 70.1679 843.652C70.9519 845.481 71.8666 846.919 72.9119 847.964C74.2186 848.748 75.6559 849.14 77.2239 849.14Z" fill="black" fill-opacity="0.02"/>
<path d="M165.605 880.5V648.828H256.549C273.797 648.828 286.21 652.617 293.789 660.196C301.629 667.513 305.549 676.921 305.549 688.42V726.836C305.549 738.335 304.242 749.18 301.629 759.372C299.015 769.303 294.311 777.404 287.517 783.676C280.983 789.687 271.706 792.692 259.685 792.692H230.677V880.5H165.605ZM230.677 758.98H235.381C238.255 758.98 240.346 756.236 241.653 750.748C242.959 744.999 243.613 734.937 243.613 720.564V716.644C243.613 703.839 243.221 694.823 242.437 689.596C241.914 684.369 239.954 681.756 236.557 681.756H230.677V758.98Z" fill="black" fill-opacity="0.02"/>
<path d="M348.448 880.5V692.34H315.128V648.828H444.096V692.34H410.776V880.5H348.448Z" fill="black" fill-opacity="0.02"/>
<path d="M456.925 880.5V648.828H519.253V880.5H456.925Z" fill="black" fill-opacity="0.02"/>
<path d="M538.847 880.5V648.828H618.031L634.887 767.212L651.743 648.828H730.927V880.5H676.439V718.996L655.663 880.5H614.111L593.335 718.996V880.5H538.847Z" fill="black" fill-opacity="0.02"/>
<path d="M750.542 880.5V648.828H812.87V880.5H750.542Z" fill="black" fill-opacity="0.02"/>
<path d="M900.672 883.636C885.253 883.636 872.056 881.807 861.08 878.148C850.365 874.228 842.133 867.303 836.384 857.372C830.896 847.18 828.152 832.807 828.152 814.252V799.748C839.128 799.748 849.973 799.748 860.688 799.748C871.664 799.748 882.64 799.748 893.616 799.748V819.74C893.616 826.796 893.877 832.153 894.4 835.812C895.184 839.209 896.099 841.561 897.144 842.868C898.451 843.913 900.019 844.436 901.848 844.436C904.723 844.436 906.683 843.129 907.728 840.516C909.035 837.641 909.688 831.761 909.688 822.876C909.688 814.513 908.381 808.372 905.768 804.452C903.155 800.532 898.712 797.265 892.44 794.652C886.429 792.039 878.197 788.511 867.744 784.068C858.075 779.625 850.496 774.399 845.008 768.388C839.52 762.116 835.6 754.668 833.248 746.044C831.157 737.159 830.112 726.836 830.112 715.076C830.112 698.612 832.203 685.545 836.384 675.876C840.827 665.945 848.275 658.889 858.728 654.708C869.181 650.265 883.555 648.044 901.848 648.044C925.368 648.044 943.139 652.748 955.16 662.156C967.181 671.303 973.192 685.415 973.192 704.492V734.284C962.739 734.284 952.285 734.284 941.832 734.284C931.64 734.284 921.317 734.284 910.864 734.284V724.092C910.864 713.377 910.472 706.321 909.688 702.924C909.165 699.265 906.813 697.436 902.632 697.436C899.235 697.436 897.013 698.612 895.968 700.964C895.184 703.316 894.792 707.367 894.792 713.116C894.792 720.695 896.229 726.444 899.104 730.364C902.24 734.284 906.291 737.289 911.256 739.38C916.221 741.209 921.448 743.169 926.936 745.26C938.435 749.441 947.712 753.884 954.768 758.588C962.085 763.031 967.443 769.433 970.84 777.796C974.237 785.897 975.936 797.788 975.936 813.468C975.936 830.977 972.931 844.959 966.92 855.412C960.909 865.604 952.285 872.921 941.048 877.364C929.811 881.545 916.352 883.636 900.672 883.636Z" fill="black" fill-opacity="0.02"/>
<path d="M1017.99 880.5V692.34H984.667V648.828H1113.64V692.34H1080.32V880.5H1017.99Z" fill="black" fill-opacity="0.02"/>
<path d="M1.38 276.5L40.48 4.63999H148.58L186.76 276.5H104.42L100.74 236.94H83.72L80.96 276.5H1.38ZM84.18 201.52H100.74L92.46 62.14L84.18 201.52ZM199.723 276.5V4.63999H263.203L296.323 131.14V4.63999H360.263V276.5H297.243L263.663 163.8V276.5H199.723ZM440.493 281.1C430.986 281.1 421.633 279.413 412.433 276.04C403.54 272.36 396.026 265.153 389.893 254.42C384.066 243.687 381.153 227.893 381.153 207.04V63.52C381.153 48.1867 384.526 36.0733 391.273 27.18C398.02 17.98 407.373 11.3867 419.333 7.39998C431.6 3.41331 445.86 1.41998 462.113 1.41998C478.366 1.41998 492.78 3.41331 505.353 7.39998C517.926 11.3867 527.74 17.98 534.793 27.18C541.846 36.0733 545.373 48.1867 545.373 63.52V104.92H474.533V58.92C474.533 55.24 474.073 52.48 473.153 50.64C472.233 48.4933 471.006 47.1133 469.473 46.5C468.246 45.58 466.56 45.12 464.413 45.12C462.573 45.12 460.886 45.58 459.353 46.5C457.82 47.1133 456.593 48.4933 455.673 50.64C454.753 52.48 454.293 55.24 454.293 58.92V225.9C454.293 229.273 454.753 232.033 455.673 234.18C456.593 236.327 457.82 237.86 459.353 238.78C460.886 239.393 462.573 239.7 464.413 239.7C467.48 239.7 469.933 238.78 471.773 236.94C473.613 234.793 474.533 231.113 474.533 225.9V174.38H463.033V133.44H545.373V276.5H490.173L486.493 259.02C484.346 263.62 479.746 268.527 472.693 273.74C465.64 278.647 454.906 281.1 440.493 281.1ZM564.938 276.5V4.63999H696.498V55.7H641.298V108.6H691.898V166.1H641.298V226.82H696.498V276.5H564.938ZM715.875 276.5V4.63999H788.095V226.82H838.235V276.5H715.875ZM854.234 276.5V4.63999H927.374V276.5H854.234ZM1031.79 282.02C1015.23 282.02 1000.66 280.027 988.087 276.04C975.514 272.053 965.701 263.927 958.647 251.66C951.594 239.393 948.067 221.147 948.067 196.92V62.6C948.067 47.2666 951.594 35.1533 958.647 26.26C965.701 17.06 975.514 10.4667 988.087 6.47999C1000.66 2.49332 1015.23 0.499989 1031.79 0.499989C1048.65 0.499989 1063.07 2.49332 1075.03 6.47999C1086.99 10.4667 1096.19 17.06 1102.63 26.26C1109.07 35.1533 1112.29 47.2666 1112.29 62.6V126.08H1039.15V58.92C1039.15 55.24 1038.84 52.48 1038.23 50.64C1037.61 48.4933 1036.69 47.1133 1035.47 46.5C1034.55 45.58 1033.32 45.12 1031.79 45.12C1030.25 45.12 1028.87 45.58 1027.65 46.5C1026.73 47.1133 1025.96 48.4933 1025.35 50.64C1024.73 52.48 1024.43 55.24 1024.43 58.92V225.9C1024.43 229.273 1024.73 232.033 1025.35 234.18C1025.96 236.327 1026.73 237.86 1027.65 238.78C1028.87 239.393 1030.25 239.7 1031.79 239.7C1033.32 239.7 1034.55 239.393 1035.47 238.78C1036.69 237.86 1037.61 236.327 1038.23 234.18C1038.84 232.033 1039.15 229.273 1039.15 225.9V162.42H1112.29V196.46C1112.29 220.993 1109.07 239.393 1102.63 251.66C1096.19 263.927 1086.99 272.053 1075.03 276.04C1063.07 280.027 1048.65 282.02 1031.79 282.02ZM21.948 425.5V312.22H1.888V286.024H79.532V312.22H59.472V425.5H21.948ZM87.2555 425.5V286.024H143.895C154.279 286.024 161.753 288.305 166.315 292.868C171.035 297.273 173.395 302.937 173.395 309.86V331.1C173.395 337.865 171.743 344.08 168.439 349.744C165.293 355.251 159.55 358.476 151.211 359.42V359.892C156.718 360.993 160.494 362.803 162.539 365.32C164.742 367.68 166.551 371.692 167.967 377.356L180.239 425.5H138.467L130.443 379.716C130.129 377.513 129.735 375.704 129.263 374.288C128.949 372.715 128.634 371.535 128.319 370.748C128.005 369.961 127.611 369.568 127.139 369.568H126.431V425.5H87.2555ZM126.431 343.608H130.207C132.253 343.608 133.826 342.743 134.927 341.012C136.029 339.281 136.579 336.292 136.579 332.044V316.704C136.579 312.456 136.107 309.624 135.163 308.208C134.377 306.635 132.961 305.848 130.915 305.848H126.431V343.608ZM227.871 428.332C219.532 428.332 212.216 427.309 205.923 425.264C199.63 423.219 194.752 419.049 191.291 412.756C187.83 406.463 186.099 397.101 186.099 384.672V315.76C186.099 307.893 187.83 301.679 191.291 297.116C194.752 292.396 199.63 289.013 205.923 286.968C212.216 284.923 219.532 283.9 227.871 283.9C236.21 283.9 243.526 284.923 249.819 286.968C256.27 289.013 261.304 292.396 264.923 297.116C268.542 301.679 270.351 307.893 270.351 315.76V384.436C270.351 397.023 268.542 406.463 264.923 412.756C261.304 419.049 256.27 423.219 249.819 425.264C243.526 427.309 236.21 428.332 227.871 428.332ZM227.871 406.62C228.815 406.62 229.68 406.384 230.467 405.912C231.254 405.283 231.804 404.417 232.119 403.316C232.591 402.215 232.827 400.956 232.827 399.54V313.872C232.827 312.456 232.591 311.197 232.119 310.096C231.804 308.995 231.254 308.208 230.467 307.736C229.68 307.107 228.815 306.792 227.871 306.792C226.927 306.792 226.062 307.107 225.275 307.736C224.646 308.208 224.095 308.995 223.623 310.096C223.151 311.197 222.915 312.456 222.915 313.872V399.54C222.915 400.956 223.151 402.215 223.623 403.316C224.095 404.417 224.646 405.283 225.275 405.912C226.062 406.384 226.927 406.62 227.871 406.62ZM322.616 428.332C316.322 428.332 310.58 427.86 305.388 426.916C300.353 426.129 296.026 424.399 292.408 421.724C288.789 419.049 285.957 414.959 283.912 409.452C282.024 403.945 281.08 396.472 281.08 387.032V286.024H318.604V398.36C318.604 400.091 318.761 401.507 319.076 402.608C319.39 403.709 319.862 404.496 320.492 404.968C321.121 405.283 321.829 405.44 322.616 405.44C323.402 405.44 324.11 405.283 324.74 404.968C325.369 404.496 325.841 403.709 326.156 402.608C326.47 401.507 326.628 400.091 326.628 398.36V286.024H364.152V386.796C364.152 396.236 363.129 403.788 361.084 409.452C359.196 414.959 356.442 419.049 352.824 421.724C349.205 424.399 344.8 426.129 339.608 426.916C334.573 427.86 328.909 428.332 322.616 428.332ZM376.033 425.5V286.024H430.785C440.539 286.024 447.619 288.305 452.025 292.868C456.587 297.273 458.869 302.937 458.869 309.86V324.964C458.869 328.897 458.318 332.595 457.217 336.056C456.115 339.36 454.306 342.192 451.789 344.552C450.215 346.125 448.249 347.463 445.889 348.564C443.529 349.508 441.011 350.137 438.337 350.452V350.924C440.539 350.924 442.663 351.239 444.709 351.868C446.911 352.497 449.271 353.677 451.789 355.408C454.621 357.453 456.902 360.364 458.633 364.14C460.363 367.759 461.229 372.321 461.229 377.828V396C461.229 403.395 459.891 409.295 457.217 413.7C454.542 417.948 450.687 421.016 445.653 422.904C440.618 424.635 434.561 425.5 427.481 425.5H376.033ZM413.793 406.384H418.513C419.614 406.384 420.479 406.069 421.109 405.44C421.738 404.653 422.21 403.395 422.525 401.664C422.997 399.776 423.233 397.18 423.233 393.876V379.008C423.233 373.816 422.839 370.512 422.053 369.096C421.266 367.523 420.007 366.736 418.277 366.736H413.793V406.384ZM413.793 343.372H417.569C418.985 343.372 420.243 342.507 421.345 340.776C422.446 338.888 422.997 335.033 422.997 329.212V316.704C422.997 312.613 422.603 309.781 421.817 308.208C421.03 306.635 419.771 305.848 418.041 305.848H413.793V343.372ZM470.755 425.5V286.024H507.807V400.012H533.531V425.5H470.755ZM541.74 425.5V286.024H609.236V312.22H580.916V339.36H606.876V368.86H580.916V400.012H609.236V425.5H541.74ZM619.177 425.5V286.024H666.849L676.997 357.296L687.145 286.024H734.817V425.5H702.013V328.268L689.505 425.5H664.489L651.981 328.268V425.5H619.177ZM741.435 425.5L761.495 286.024H816.955L836.543 425.5H794.299L792.411 405.204H783.679L782.263 425.5H741.435ZM783.915 387.032H792.411L788.163 315.524L783.915 387.032ZM899.361 425.5L880.245 353.284L899.361 286.024H939.245L916.589 353.048L939.717 425.5H899.361ZM843.193 425.5V286.024H880.717V425.5H843.193ZM946.904 425.5V286.024H1014.4V312.22H986.08V339.36H1012.04V368.86H986.08V400.012H1014.4V425.5H946.904ZM1024.34 425.5V286.024H1080.98C1091.37 286.024 1098.84 288.305 1103.4 292.868C1108.12 297.273 1110.48 302.937 1110.48 309.86V331.1C1110.48 337.865 1108.83 344.08 1105.53 349.744C1102.38 355.251 1096.64 358.476 1088.3 359.42V359.892C1093.8 360.993 1097.58 362.803 1099.63 365.32C1101.83 367.68 1103.64 371.692 1105.05 377.356L1117.33 425.5H1075.55L1067.53 379.716C1067.21 377.513 1066.82 375.704 1066.35 374.288C1066.03 372.715 1065.72 371.535 1065.41 370.748C1065.09 369.961 1064.7 369.568 1064.23 369.568H1063.52V425.5H1024.34ZM1063.52 343.608H1067.29C1069.34 343.608 1070.91 342.743 1072.01 341.012C1073.11 339.281 1073.67 336.292 1073.67 332.044V316.704C1073.67 312.456 1073.19 309.624 1072.25 308.208C1071.46 306.635 1070.05 305.848 1068 305.848H1063.52V343.608ZM68.854 641.268C55.2447 641.268 43.596 639.653 33.908 636.424C24.4507 632.964 17.1847 626.851 12.11 618.086C7.266 609.09 4.844 596.403 4.844 580.026V567.224C14.532 567.224 24.1047 567.224 33.562 567.224C43.25 567.224 52.938 567.224 62.626 567.224V584.87C62.626 591.098 62.8567 595.827 63.318 599.056C64.01 602.055 64.8173 604.131 65.74 605.284C66.8933 606.207 68.2773 606.668 69.892 606.668C72.4293 606.668 74.1593 605.515 75.082 603.208C76.2353 600.671 76.812 595.481 76.812 587.638C76.812 580.257 75.6587 574.836 73.352 571.376C71.0453 567.916 67.124 565.033 61.588 562.726C56.2827 560.419 49.0167 557.305 39.79 553.384C31.2553 549.463 24.566 544.849 19.722 539.544C14.878 534.008 11.418 527.434 9.342 519.822C7.49667 511.979 6.574 502.868 6.574 492.488C6.574 477.956 8.41933 466.423 12.11 457.888C16.0313 449.123 22.6053 442.895 31.832 439.204C41.0587 435.283 53.7453 433.322 69.892 433.322C90.652 433.322 106.337 437.474 116.948 445.778C127.559 453.851 132.864 466.307 132.864 483.146V509.442C123.637 509.442 114.411 509.442 105.184 509.442C96.188 509.442 87.0767 509.442 77.85 509.442V500.446C77.85 490.989 77.504 484.761 76.812 481.762C76.3507 478.533 74.2747 476.918 70.584 476.918C67.5853 476.918 65.6247 477.956 64.702 480.032C64.01 482.108 63.664 485.683 63.664 490.758C63.664 497.447 64.9327 502.522 67.47 505.982C70.238 509.442 73.8133 512.095 78.196 513.94C82.5787 515.555 87.192 517.285 92.036 519.13C102.185 522.821 110.374 526.742 116.602 530.894C123.061 534.815 127.789 540.467 130.788 547.848C133.787 554.999 135.286 565.494 135.286 579.334C135.286 594.789 132.633 607.129 127.328 616.356C122.023 625.352 114.411 631.811 104.492 635.732C94.5733 639.423 82.694 641.268 68.854 641.268ZM231.223 638.5L203.197 532.624L231.223 434.014H289.697L256.481 532.278L290.389 638.5H231.223ZM148.875 638.5V434.014H203.889V638.5H148.875ZM300.925 638.5V434.014H399.881V472.42H358.361V512.21H396.421V555.46H358.361V601.132H399.881V638.5H300.925ZM414.457 638.5V434.014H494.729C509.953 434.014 520.909 437.359 527.599 444.048C534.519 450.507 537.979 458.811 537.979 468.96V502.868C537.979 513.017 536.825 522.59 534.519 531.586C532.212 540.351 528.06 547.502 522.063 553.038C516.296 558.343 508.107 560.996 497.497 560.996H471.893V638.5H414.457ZM471.893 531.24H476.045C478.582 531.24 480.427 528.818 481.581 523.974C482.734 518.899 483.311 510.019 483.311 497.332V493.872C483.311 482.569 482.965 474.611 482.273 469.998C481.811 465.385 480.081 463.078 477.083 463.078H471.893V531.24ZM575.844 638.5V472.42H546.434V434.014H660.268V472.42H630.858V638.5H575.844ZM671.591 638.5V434.014H726.605V638.5H671.591ZM805.142 642.652C792.686 642.652 781.729 641.153 772.272 638.154C762.815 635.155 755.433 629.043 750.128 619.816C744.823 610.589 742.17 596.865 742.17 578.642V477.61C742.17 466.077 744.823 456.965 750.128 450.276C755.433 443.356 762.815 438.397 772.272 435.398C781.729 432.399 792.686 430.9 805.142 430.9C817.829 430.9 828.67 432.399 837.666 435.398C846.662 438.397 853.582 443.356 858.426 450.276C863.27 456.965 865.692 466.077 865.692 477.61V525.358H810.678V474.842C810.678 472.074 810.447 469.998 809.986 468.614C809.525 466.999 808.833 465.961 807.91 465.5C807.218 464.808 806.295 464.462 805.142 464.462C803.989 464.462 802.951 464.808 802.028 465.5C801.336 465.961 800.759 466.999 800.298 468.614C799.837 469.998 799.606 472.074 799.606 474.842V600.44C799.606 602.977 799.837 605.053 800.298 606.668C800.759 608.283 801.336 609.436 802.028 610.128C802.951 610.589 803.989 610.82 805.142 610.82C806.295 610.82 807.218 610.589 807.91 610.128C808.833 609.436 809.525 608.283 809.986 606.668C810.447 605.053 810.678 602.977 810.678 600.44V552.692H865.692V578.296C865.692 596.749 863.27 610.589 858.426 619.816C853.582 629.043 846.662 635.155 837.666 638.154C828.67 641.153 817.829 642.652 805.142 642.652ZM872.796 638.5L902.206 434.014H983.516L1012.23 638.5H950.3L947.532 608.744H934.73L932.654 638.5H872.796ZM935.076 582.102H947.532L941.304 477.264L935.076 582.102ZM1021.98 638.5V434.014H1076.31V601.132H1114.02V638.5H1021.98ZM77.224 885.204C63.3733 885.204 51.2213 883.505 40.768 880.108C30.3147 876.711 22.2133 869.785 16.464 859.332C10.7147 848.879 7.84 833.329 7.84 812.684V698.22C7.84 685.153 10.7147 674.831 16.464 667.252C22.2133 659.412 30.3147 653.793 40.768 650.396C51.2213 646.999 63.3733 645.3 77.224 645.3C91.0747 645.3 103.227 646.999 113.68 650.396C124.395 653.793 132.757 659.412 138.768 667.252C144.779 674.831 147.784 685.153 147.784 698.22V812.292C147.784 833.199 144.779 848.879 138.768 859.332C132.757 869.785 124.395 876.711 113.68 880.108C103.227 883.505 91.0747 885.204 77.224 885.204ZM77.224 849.14C78.792 849.14 80.2293 848.748 81.536 847.964C82.8427 846.919 83.7573 845.481 84.28 843.652C85.064 841.823 85.456 839.732 85.456 837.38V695.084C85.456 692.732 85.064 690.641 84.28 688.812C83.7573 686.983 82.8427 685.676 81.536 684.892C80.2293 683.847 78.792 683.324 77.224 683.324C75.656 683.324 74.2187 683.847 72.912 684.892C71.8667 685.676 70.952 686.983 70.168 688.812C69.384 690.641 68.992 692.732 68.992 695.084V837.38C68.992 839.732 69.384 841.823 70.168 843.652C70.952 845.481 71.8667 846.919 72.912 847.964C74.2187 848.748 75.656 849.14 77.224 849.14ZM165.605 880.5V648.828H256.549C273.797 648.828 286.21 652.617 293.789 660.196C301.629 667.513 305.549 676.921 305.549 688.42V726.836C305.549 738.335 304.242 749.18 301.629 759.372C299.015 769.303 294.311 777.404 287.517 783.676C280.983 789.687 271.706 792.692 259.685 792.692H230.677V880.5H165.605ZM230.677 758.98H235.381C238.255 758.98 240.346 756.236 241.653 750.748C242.959 744.999 243.613 734.937 243.613 720.564V716.644C243.613 703.839 243.221 694.823 242.437 689.596C241.914 684.369 239.954 681.756 236.557 681.756H230.677V758.98ZM348.448 880.5V692.34H315.128V648.828H444.096V692.34H410.776V880.5H348.448ZM456.925 880.5V648.828H519.253V880.5H456.925ZM538.847 880.5V648.828H618.031L634.887 767.212L651.743 648.828H730.927V880.5H676.439V718.996L655.663 880.5H614.111L593.335 718.996V880.5H538.847ZM750.542 880.5V648.828H812.87V880.5H750.542ZM900.672 883.636C885.253 883.636 872.056 881.807 861.08 878.148C850.365 874.228 842.133 867.303 836.384 857.372C830.896 847.18 828.152 832.807 828.152 814.252V799.748C839.128 799.748 849.973 799.748 860.688 799.748C871.664 799.748 882.64 799.748 893.616 799.748V819.74C893.616 826.796 893.877 832.153 894.4 835.812C895.184 839.209 896.099 841.561 897.144 842.868C898.451 843.913 900.019 844.436 901.848 844.436C904.723 844.436 906.683 843.129 907.728 840.516C909.035 837.641 909.688 831.761 909.688 822.876C909.688 814.513 908.381 808.372 905.768 804.452C903.155 800.532 898.712 797.265 892.44 794.652C886.429 792.039 878.197 788.511 867.744 784.068C858.075 779.625 850.496 774.399 845.008 768.388C839.52 762.116 835.6 754.668 833.248 746.044C831.157 737.159 830.112 726.836 830.112 715.076C830.112 698.612 832.203 685.545 836.384 675.876C840.827 665.945 848.275 658.889 858.728 654.708C869.181 650.265 883.555 648.044 901.848 648.044C925.368 648.044 943.139 652.748 955.16 662.156C967.181 671.303 973.192 685.415 973.192 704.492V734.284C962.739 734.284 952.285 734.284 941.832 734.284C931.64 734.284 921.317 734.284 910.864 734.284V724.092C910.864 713.377 910.472 706.321 909.688 702.924C909.165 699.265 906.813 697.436 902.632 697.436C899.235 697.436 897.013 698.612 895.968 700.964C895.184 703.316 894.792 707.367 894.792 713.116C894.792 720.695 896.229 726.444 899.104 730.364C902.24 734.284 906.291 737.289 911.256 739.38C916.221 741.209 921.448 743.169 926.936 745.26C938.435 749.441 947.712 753.884 954.768 758.588C962.085 763.031 967.443 769.433 970.84 777.796C974.237 785.897 975.936 797.788 975.936 813.468C975.936 830.977 972.931 844.959 966.92 855.412C960.909 865.604 952.285 872.921 941.048 877.364C929.811 881.545 916.352 883.636 900.672 883.636ZM1017.99 880.5V692.34H984.667V648.828H1113.64V692.34H1080.32V880.5H1017.99Z" fill="black" fill-opacity="0.02"/>
<path d="M7.6748 1119V890.283H97.4588C108.811 890.283 117.97 891.96 124.936 895.314C132.16 898.668 137.449 903.312 140.803 909.246C144.157 914.922 145.834 921.63 145.834 929.37V1070.62C145.834 1082.75 143.512 1092.43 138.868 1099.65C134.224 1106.62 127.645 1111.65 119.131 1114.74C110.617 1117.58 100.297 1119 88.1708 1119H7.6748ZM71.9168 1088.04H77.7218C79.7858 1088.04 81.3338 1087.27 82.3658 1085.72C83.6558 1083.91 84.3008 1080.82 84.3008 1076.43V935.949C84.3008 931.563 83.6558 928.596 82.3658 927.048C81.3338 925.242 79.7858 924.339 77.7218 924.339H71.9168V1088.04Z" fill="black" fill-opacity="0.05"/>
<path d="M163.382 1119V890.283H274.064V933.24H227.624V977.745H270.194V1026.12H227.624V1077.2H274.064V1119H163.382Z" fill="black" fill-opacity="0.05"/>
<path d="M357.704 1122.1C342.482 1122.1 329.453 1120.29 318.617 1116.68C308.039 1112.81 299.912 1105.97 294.236 1096.17C288.818 1086.1 286.109 1071.91 286.109 1053.6V1039.28C296.945 1039.28 307.652 1039.28 318.23 1039.28C329.066 1039.28 339.902 1039.28 350.738 1039.28V1059.01C350.738 1065.98 350.996 1071.27 351.512 1074.88C352.286 1078.24 353.189 1080.56 354.221 1081.85C355.511 1082.88 357.059 1083.4 358.865 1083.4C361.703 1083.4 363.638 1082.11 364.67 1079.53C365.96 1076.69 366.605 1070.88 366.605 1062.11C366.605 1053.85 365.315 1047.79 362.735 1043.92C360.155 1040.05 355.769 1036.83 349.577 1034.25C343.643 1031.67 335.516 1028.18 325.196 1023.8C315.65 1019.41 308.168 1014.25 302.75 1008.32C297.332 1002.13 293.462 994.773 291.14 986.259C289.076 977.487 288.044 967.296 288.044 955.686C288.044 939.432 290.108 926.532 294.236 916.986C298.622 907.182 305.975 900.216 316.295 896.088C326.615 891.702 340.805 889.509 358.865 889.509C382.085 889.509 399.629 894.153 411.497 903.441C423.365 912.471 429.299 926.403 429.299 945.237V974.649C418.979 974.649 408.659 974.649 398.339 974.649C388.277 974.649 378.086 974.649 367.766 974.649V964.587C367.766 954.009 367.379 947.043 366.605 943.689C366.089 940.077 363.767 938.271 359.639 938.271C356.285 938.271 354.092 939.432 353.06 941.754C352.286 944.076 351.899 948.075 351.899 953.751C351.899 961.233 353.318 966.909 356.156 970.779C359.252 974.649 363.251 977.616 368.153 979.68C373.055 981.486 378.215 983.421 383.633 985.485C394.985 989.613 404.144 993.999 411.11 998.643C418.334 1003.03 423.623 1009.35 426.977 1017.61C430.331 1025.6 432.008 1037.34 432.008 1052.82C432.008 1070.11 429.041 1083.91 423.107 1094.23C417.173 1104.29 408.659 1111.52 397.565 1115.9C386.471 1120.03 373.184 1122.1 357.704 1122.1Z" fill="black" fill-opacity="0.05"/>
<path d="M447.207 1119V890.283H508.74V1119H447.207Z" fill="black" fill-opacity="0.05"/>
<path d="M576.072 1122.87C568.074 1122.87 560.205 1121.45 552.465 1118.61C544.983 1115.52 538.662 1109.45 533.502 1100.42C528.6 1091.39 526.149 1078.11 526.149 1060.56V939.819C526.149 926.919 528.987 916.728 534.663 909.246C540.339 901.506 548.208 895.959 558.27 892.605C568.59 889.251 580.587 887.574 594.261 887.574C607.935 887.574 620.061 889.251 630.639 892.605C641.217 895.959 649.473 901.506 655.407 909.246C661.341 916.728 664.308 926.919 664.308 939.819V974.649H604.71V935.949C604.71 932.853 604.323 930.531 603.549 928.983C602.775 927.177 601.743 926.016 600.453 925.5C599.421 924.726 598.002 924.339 596.196 924.339C594.648 924.339 593.229 924.726 591.939 925.5C590.649 926.016 589.617 927.177 588.843 928.983C588.069 930.531 587.682 932.853 587.682 935.949V1076.43C587.682 1079.27 588.069 1081.59 588.843 1083.4C589.617 1085.2 590.649 1086.49 591.939 1087.27C593.229 1087.78 594.648 1088.04 596.196 1088.04C598.776 1088.04 600.84 1087.27 602.388 1085.72C603.936 1083.91 604.71 1080.82 604.71 1076.43V1033.09H595.035V998.643H664.308V1119H617.868L614.772 1104.29C612.966 1108.16 609.096 1112.29 603.162 1116.68C597.228 1120.81 588.198 1122.87 576.072 1122.87Z" fill="black" fill-opacity="0.05"/>
<path d="M680.768 1119V890.283H734.174L762.038 996.708V890.283H815.831V1119H762.812L734.561 1024.18V1119H680.768Z" fill="black" fill-opacity="0.05"/>
<path d="M835.341 1119V890.283H946.023V933.24H899.583V977.745H942.153V1026.12H899.583V1077.2H946.023V1119H835.341Z" fill="black" fill-opacity="0.05"/>
<path d="M962.325 1119V890.283H1055.21C1072.23 890.283 1084.49 894.024 1091.97 901.506C1099.71 908.73 1103.58 918.018 1103.58 929.37V964.2C1103.58 975.294 1100.87 985.485 1095.45 994.773C1090.29 1003.8 1080.88 1009.09 1067.2 1010.64V1011.41C1076.23 1013.22 1082.42 1016.19 1085.78 1020.31C1089.39 1024.18 1092.36 1030.76 1094.68 1040.05L1114.8 1119H1046.3L1033.15 1043.92C1032.63 1040.31 1031.99 1037.34 1031.21 1035.02C1030.7 1032.44 1030.18 1030.51 1029.66 1029.22C1029.15 1027.93 1028.5 1027.28 1027.73 1027.28H1026.57V1119H962.325ZM1026.57 984.711H1032.76C1036.11 984.711 1038.69 983.292 1040.5 980.454C1042.31 977.616 1043.21 972.714 1043.21 965.748V940.593C1043.21 933.627 1042.43 928.983 1040.89 926.661C1039.6 924.081 1037.27 922.791 1033.92 922.791H1026.57V984.711Z" fill="black" fill-opacity="0.05"/>
</svg>
