<svg fill="none" height="30" viewBox="0 0 30 30" width="30" xmlns="http://www.w3.org/2000/svg" xmlns:xlink="http://www.w3.org/1999/xlink"><clipPath id="a"><path d="m0 0h30v30h-30z"/></clipPath><g clip-path="url(#a)"><path clip-rule="evenodd" d="m9.99805 3c-3.859 0-6.99805 3.14195-6.99805 7.002v10c0 3.859 3.14195 6.998 7.002 6.998h10c3.859 0 6.998-3.142 6.998-7.002v-9.99995c0-3.859-3.142-6.99805-7.002-6.99805zm-2.26905 6.43091c0 .94899.769 1.71999 1.72 1.71999.948 0 1.719-.771 1.719-1.71999 0-.948-.771-1.719-1.719-1.719-.95 0-1.72.77-1.72 1.719zm.275 12.56899h2.95v-9.492h-2.95zm14.0002.0001h-2.948v-4.616c0-1.101-.02-2.517-1.533-2.517-1.535 0-1.771 1.199-1.771 2.437v4.696h-2.948v-9.492h2.83v1.297h.04c.394-.746 1.356-1.533 2.791-1.533 2.987 0 3.539 1.966 3.539 4.522z" fill="#000" fill-rule="evenodd"/></g></svg>